<?xml version="1.0" encoding="UTF-8" standalone="no"?>
<!DOCTYPE svg PUBLIC "-//W3C//DTD SVG 1.1//EN"
 "http://www.w3.org/Graphics/SVG/1.1/DTD/svg11.dtd">
<!-- Generated by graphviz version 2.40.1 (20161225.0304)
 -->
<!-- Title: importexport.pur_lcpaymentdtail Pages: 1 -->
<svg width="497pt" height="375pt"
 viewBox="0.00 0.00 497.00 375.00" xmlns="http://www.w3.org/2000/svg" xmlns:xlink="http://www.w3.org/1999/xlink">
<g id="graph0" class="graph" transform="scale(1 1) rotate(0) translate(4 371)">
<title>importexport.pur_lcpaymentdtail</title>
<polygon fill="#ffffff" stroke="transparent" points="-4,4 -4,-371 493,-371 493,4 -4,4"/>
<!-- importexport.pur_lcpaymentdtail -->
<g id="node1" class="node">
<title>importexport.pur_lcpaymentdtail</title>
<polygon fill="#efefef" stroke="transparent" points="46.5,-285.5 46.5,-320.5 443.5,-320.5 443.5,-285.5 46.5,-285.5"/>
<polygon fill="none" stroke="#000000" points="46.5,-285.5 46.5,-320.5 443.5,-320.5 443.5,-285.5 46.5,-285.5"/>
<text text-anchor="start" x="53.1982" y="-298.3" font-family="Arial Bold" font-size="18.00" fill="#000000">importexport.pur_lcpaymentdtail</text>
<text text-anchor="start" x="309.2338" y="-298.3" font-family="Arial" font-size="14.00" fill="#000000">    </text>
<text text-anchor="start" x="343.4386" y="-298.3" font-family="Arial" font-size="14.00" fill="#666666">[BASE TABLE]</text>
<polygon fill="none" stroke="#000000" points="46.5,-255.5 46.5,-285.5 443.5,-285.5 443.5,-255.5 46.5,-255.5"/>
<text text-anchor="start" x="53.5" y="-266.9" font-family="Arial" font-size="14.00" fill="#000000">lcpaymentdetailid </text>
<text text-anchor="start" x="165.5196" y="-266.9" font-family="Arial" font-size="14.00" fill="#666666">[integer]</text>
<polygon fill="none" stroke="#000000" points="46.5,-225.5 46.5,-255.5 443.5,-255.5 443.5,-225.5 46.5,-225.5"/>
<text text-anchor="start" x="53.5" y="-236.9" font-family="Arial" font-size="14.00" fill="#000000">lcid </text>
<text text-anchor="start" x="78.3864" y="-236.9" font-family="Arial" font-size="14.00" fill="#666666">[integer]</text>
<polygon fill="none" stroke="#000000" points="46.5,-195.5 46.5,-225.5 443.5,-225.5 443.5,-195.5 46.5,-195.5"/>
<text text-anchor="start" x="53.5" y="-206.9" font-family="Arial" font-size="14.00" fill="#000000">paymentdate </text>
<text text-anchor="start" x="138.3106" y="-206.9" font-family="Arial" font-size="14.00" fill="#666666">[date]</text>
<polygon fill="none" stroke="#000000" points="46.5,-165.5 46.5,-195.5 443.5,-195.5 443.5,-165.5 46.5,-165.5"/>
<text text-anchor="start" x="53.5" y="-176.9" font-family="Arial" font-size="14.00" fill="#000000">amount </text>
<text text-anchor="start" x="104.0722" y="-176.9" font-family="Arial" font-size="14.00" fill="#666666">[numeric]</text>
<polygon fill="none" stroke="#000000" points="46.5,-135.5 46.5,-165.5 443.5,-165.5 443.5,-135.5 46.5,-135.5"/>
<text text-anchor="start" x="53.5" y="-146.9" font-family="Arial" font-size="14.00" fill="#000000">rateon </text>
<text text-anchor="start" x="97.0722" y="-146.9" font-family="Arial" font-size="14.00" fill="#666666">[numeric(15,5)]</text>
<polygon fill="none" stroke="#000000" points="46.5,-105.5 46.5,-135.5 443.5,-135.5 443.5,-105.5 46.5,-105.5"/>
<text text-anchor="start" x="53.5" y="-116.9" font-family="Arial" font-size="14.00" fill="#000000">exhaustlcbalance </text>
<text text-anchor="start" x="165.5378" y="-116.9" font-family="Arial" font-size="14.00" fill="#666666">[numeric(15,5)]</text>
<polygon fill="none" stroke="#000000" points="46.5,-75.5 46.5,-105.5 443.5,-105.5 443.5,-75.5 46.5,-75.5"/>
<text text-anchor="start" x="53.5" y="-86.9" font-family="Arial" font-size="14.00" fill="#000000">remarks </text>
<text text-anchor="start" x="107.9376" y="-86.9" font-family="Arial" font-size="14.00" fill="#666666">[text]</text>
<polygon fill="none" stroke="#000000" points="46.5,-45.5 46.5,-75.5 443.5,-75.5 443.5,-45.5 46.5,-45.5"/>
<text text-anchor="start" x="53.5" y="-56.9" font-family="Arial" font-size="14.00" fill="#000000">notificationid </text>
<text text-anchor="start" x="135.1844" y="-56.9" font-family="Arial" font-size="14.00" fill="#666666">[integer]</text>
<polygon fill="none" stroke="#000000" stroke-width="3" points="44.5,-44.5 44.5,-322.5 444.5,-322.5 444.5,-44.5 44.5,-44.5"/>
</g>
</g>
</svg>
