<?xml version="1.0" encoding="UTF-8" standalone="no"?>
<!DOCTYPE svg PUBLIC "-//W3C//DTD SVG 1.1//EN"
 "http://www.w3.org/Graphics/SVG/1.1/DTD/svg11.dtd">
<!-- Generated by graphviz version 2.40.1 (20161225.0304)
 -->
<!-- Title: importexport.pur_invoicedetail Pages: 1 -->
<svg width="481pt" height="315pt"
 viewBox="0.00 0.00 481.00 315.00" xmlns="http://www.w3.org/2000/svg" xmlns:xlink="http://www.w3.org/1999/xlink">
<g id="graph0" class="graph" transform="scale(1 1) rotate(0) translate(4 311)">
<title>importexport.pur_invoicedetail</title>
<polygon fill="#ffffff" stroke="transparent" points="-4,4 -4,-311 477,-311 477,4 -4,4"/>
<!-- importexport.pur_invoicedetail -->
<g id="node1" class="node">
<title>importexport.pur_invoicedetail</title>
<polygon fill="#efefef" stroke="transparent" points="46.5,-225.5 46.5,-260.5 427.5,-260.5 427.5,-225.5 46.5,-225.5"/>
<polygon fill="none" stroke="#000000" points="46.5,-225.5 46.5,-260.5 427.5,-260.5 427.5,-225.5 46.5,-225.5"/>
<text text-anchor="start" x="53.1983" y="-238.3" font-family="Arial Bold" font-size="18.00" fill="#000000">importexport.pur_invoicedetail</text>
<text text-anchor="start" x="293.2337" y="-238.3" font-family="Arial" font-size="14.00" fill="#000000">    </text>
<text text-anchor="start" x="327.4385" y="-238.3" font-family="Arial" font-size="14.00" fill="#666666">[BASE TABLE]</text>
<polygon fill="none" stroke="#000000" points="46.5,-195.5 46.5,-225.5 427.5,-225.5 427.5,-195.5 46.5,-195.5"/>
<text text-anchor="start" x="53.5" y="-206.9" font-family="Arial" font-size="14.00" fill="#000000">invoicedetailid </text>
<text text-anchor="start" x="145.2924" y="-206.9" font-family="Arial" font-size="14.00" fill="#666666">[integer]</text>
<polygon fill="none" stroke="#000000" points="46.5,-165.5 46.5,-195.5 427.5,-195.5 427.5,-165.5 46.5,-165.5"/>
<text text-anchor="start" x="53.5" y="-176.9" font-family="Arial" font-size="14.00" fill="#000000">invoiceid </text>
<text text-anchor="start" x="111.8408" y="-176.9" font-family="Arial" font-size="14.00" fill="#666666">[integer]</text>
<polygon fill="none" stroke="#000000" points="46.5,-135.5 46.5,-165.5 427.5,-165.5 427.5,-135.5 46.5,-135.5"/>
<text text-anchor="start" x="53.5" y="-146.9" font-family="Arial" font-size="14.00" fill="#000000">pclid </text>
<text text-anchor="start" x="86.169" y="-146.9" font-family="Arial" font-size="14.00" fill="#666666">[integer]</text>
<polygon fill="none" stroke="#000000" points="46.5,-105.5 46.5,-135.5 427.5,-135.5 427.5,-105.5 46.5,-105.5"/>
<text text-anchor="start" x="53.5" y="-116.9" font-family="Arial" font-size="14.00" fill="#000000">lcid </text>
<text text-anchor="start" x="78.3864" y="-116.9" font-family="Arial" font-size="14.00" fill="#666666">[integer]</text>
<polygon fill="none" stroke="#000000" points="46.5,-75.5 46.5,-105.5 427.5,-105.5 427.5,-75.5 46.5,-75.5"/>
<text text-anchor="start" x="53.5" y="-86.9" font-family="Arial" font-size="14.00" fill="#000000">amountsanction </text>
<text text-anchor="start" x="156.1998" y="-86.9" font-family="Arial" font-size="14.00" fill="#666666">[numeric(17,5)]</text>
<polygon fill="none" stroke="#000000" points="46.5,-45.5 46.5,-75.5 427.5,-75.5 427.5,-45.5 46.5,-45.5"/>
<text text-anchor="start" x="53.5" y="-56.9" font-family="Arial" font-size="14.00" fill="#000000">cargoreceiptid </text>
<text text-anchor="start" x="145.2938" y="-56.9" font-family="Arial" font-size="14.00" fill="#666666">[integer]</text>
<polygon fill="none" stroke="#000000" stroke-width="3" points="44.5,-44.5 44.5,-262.5 428.5,-262.5 428.5,-44.5 44.5,-44.5"/>
</g>
</g>
</svg>
