<?xml version="1.0" encoding="UTF-8" standalone="no"?>
<!DOCTYPE svg PUBLIC "-//W3C//DTD SVG 1.1//EN"
 "http://www.w3.org/Graphics/SVG/1.1/DTD/svg11.dtd">
<!-- Generated by graphviz version 2.40.1 (20161225.0304)
 -->
<!-- Title: kamdhenu.backuptmpsipretax Pages: 1 -->
<svg width="481pt" height="4215pt"
 viewBox="0.00 0.00 481.00 4215.00" xmlns="http://www.w3.org/2000/svg" xmlns:xlink="http://www.w3.org/1999/xlink">
<g id="graph0" class="graph" transform="scale(1 1) rotate(0) translate(4 4211)">
<title>kamdhenu.backuptmpsipretax</title>
<polygon fill="#ffffff" stroke="transparent" points="-4,4 -4,-4211 477,-4211 477,4 -4,4"/>
<!-- kamdhenu.backuptmpsipretax -->
<g id="node1" class="node">
<title>kamdhenu.backuptmpsipretax</title>
<polygon fill="#efefef" stroke="transparent" points="46.5,-4125.5 46.5,-4160.5 427.5,-4160.5 427.5,-4125.5 46.5,-4125.5"/>
<polygon fill="none" stroke="#000000" points="46.5,-4125.5 46.5,-4160.5 427.5,-4160.5 427.5,-4125.5 46.5,-4125.5"/>
<text text-anchor="start" x="53.1839" y="-4138.3" font-family="Arial Bold" font-size="18.00" fill="#000000">kamdhenu.backuptmpsipretax</text>
<text text-anchor="start" x="293.2481" y="-4138.3" font-family="Arial" font-size="14.00" fill="#000000">    </text>
<text text-anchor="start" x="327.4529" y="-4138.3" font-family="Arial" font-size="14.00" fill="#666666">[BASE TABLE]</text>
<polygon fill="none" stroke="#000000" points="46.5,-4095.5 46.5,-4125.5 427.5,-4125.5 427.5,-4095.5 46.5,-4095.5"/>
<text text-anchor="start" x="53.5" y="-4106.9" font-family="Arial" font-size="14.00" fill="#000000">invtype </text>
<text text-anchor="start" x="101.7356" y="-4106.9" font-family="Arial" font-size="14.00" fill="#666666">[integer]</text>
<polygon fill="none" stroke="#000000" points="46.5,-4065.5 46.5,-4095.5 427.5,-4095.5 427.5,-4065.5 46.5,-4065.5"/>
<text text-anchor="start" x="53.5" y="-4076.9" font-family="Arial" font-size="14.00" fill="#000000">invoiceid </text>
<text text-anchor="start" x="111.8408" y="-4076.9" font-family="Arial" font-size="14.00" fill="#666666">[integer]</text>
<polygon fill="none" stroke="#000000" points="46.5,-4035.5 46.5,-4065.5 427.5,-4065.5 427.5,-4035.5 46.5,-4035.5"/>
<text text-anchor="start" x="53.5" y="-4046.9" font-family="Arial" font-size="14.00" fill="#000000">invoicedetailid </text>
<text text-anchor="start" x="145.2924" y="-4046.9" font-family="Arial" font-size="14.00" fill="#666666">[integer]</text>
<polygon fill="none" stroke="#000000" points="46.5,-4005.5 46.5,-4035.5 427.5,-4035.5 427.5,-4005.5 46.5,-4005.5"/>
<text text-anchor="start" x="53.5" y="-4016.9" font-family="Arial" font-size="14.00" fill="#000000">itemid </text>
<text text-anchor="start" x="94.7202" y="-4016.9" font-family="Arial" font-size="14.00" fill="#666666">[integer]</text>
<polygon fill="none" stroke="#000000" points="46.5,-3975.5 46.5,-4005.5 427.5,-4005.5 427.5,-3975.5 46.5,-3975.5"/>
<text text-anchor="start" x="53.5" y="-3986.9" font-family="Arial" font-size="14.00" fill="#000000">&#45;15 </text>
<text text-anchor="start" x="77.6164" y="-3986.9" font-family="Arial" font-size="14.00" fill="#666666">[numeric]</text>
<polygon fill="none" stroke="#000000" points="46.5,-3945.5 46.5,-3975.5 427.5,-3975.5 427.5,-3945.5 46.5,-3945.5"/>
<text text-anchor="start" x="53.5" y="-3956.9" font-family="Arial" font-size="14.00" fill="#000000">2 </text>
<text text-anchor="start" x="65.1732" y="-3956.9" font-family="Arial" font-size="14.00" fill="#666666">[numeric]</text>
<polygon fill="none" stroke="#000000" points="46.5,-3915.5 46.5,-3945.5 427.5,-3945.5 427.5,-3915.5 46.5,-3915.5"/>
<text text-anchor="start" x="53.5" y="-3926.9" font-family="Arial" font-size="14.00" fill="#000000">3 </text>
<text text-anchor="start" x="65.1732" y="-3926.9" font-family="Arial" font-size="14.00" fill="#666666">[numeric]</text>
<polygon fill="none" stroke="#000000" points="46.5,-3885.5 46.5,-3915.5 427.5,-3915.5 427.5,-3885.5 46.5,-3885.5"/>
<text text-anchor="start" x="53.5" y="-3896.9" font-family="Arial" font-size="14.00" fill="#000000">4 </text>
<text text-anchor="start" x="65.1732" y="-3896.9" font-family="Arial" font-size="14.00" fill="#666666">[numeric]</text>
<polygon fill="none" stroke="#000000" points="46.5,-3855.5 46.5,-3885.5 427.5,-3885.5 427.5,-3855.5 46.5,-3855.5"/>
<text text-anchor="start" x="53.5" y="-3866.9" font-family="Arial" font-size="14.00" fill="#000000">5 </text>
<text text-anchor="start" x="65.1732" y="-3866.9" font-family="Arial" font-size="14.00" fill="#666666">[numeric]</text>
<polygon fill="none" stroke="#000000" points="46.5,-3825.5 46.5,-3855.5 427.5,-3855.5 427.5,-3825.5 46.5,-3825.5"/>
<text text-anchor="start" x="53.5" y="-3836.9" font-family="Arial" font-size="14.00" fill="#000000">6 </text>
<text text-anchor="start" x="65.1732" y="-3836.9" font-family="Arial" font-size="14.00" fill="#666666">[numeric]</text>
<polygon fill="none" stroke="#000000" points="46.5,-3795.5 46.5,-3825.5 427.5,-3825.5 427.5,-3795.5 46.5,-3795.5"/>
<text text-anchor="start" x="53.5" y="-3806.9" font-family="Arial" font-size="14.00" fill="#000000">7 </text>
<text text-anchor="start" x="65.1732" y="-3806.9" font-family="Arial" font-size="14.00" fill="#666666">[numeric]</text>
<polygon fill="none" stroke="#000000" points="46.5,-3765.5 46.5,-3795.5 427.5,-3795.5 427.5,-3765.5 46.5,-3765.5"/>
<text text-anchor="start" x="53.5" y="-3776.9" font-family="Arial" font-size="14.00" fill="#000000">8 </text>
<text text-anchor="start" x="65.1732" y="-3776.9" font-family="Arial" font-size="14.00" fill="#666666">[numeric]</text>
<polygon fill="none" stroke="#000000" points="46.5,-3735.5 46.5,-3765.5 427.5,-3765.5 427.5,-3735.5 46.5,-3735.5"/>
<text text-anchor="start" x="53.5" y="-3746.9" font-family="Arial" font-size="14.00" fill="#000000">9 </text>
<text text-anchor="start" x="65.1732" y="-3746.9" font-family="Arial" font-size="14.00" fill="#666666">[numeric]</text>
<polygon fill="none" stroke="#000000" points="46.5,-3705.5 46.5,-3735.5 427.5,-3735.5 427.5,-3705.5 46.5,-3705.5"/>
<text text-anchor="start" x="53.5" y="-3716.9" font-family="Arial" font-size="14.00" fill="#000000">10 </text>
<text text-anchor="start" x="72.9558" y="-3716.9" font-family="Arial" font-size="14.00" fill="#666666">[numeric]</text>
<polygon fill="none" stroke="#000000" points="46.5,-3675.5 46.5,-3705.5 427.5,-3705.5 427.5,-3675.5 46.5,-3675.5"/>
<text text-anchor="start" x="53.5" y="-3686.9" font-family="Arial" font-size="14.00" fill="#000000">11 </text>
<text text-anchor="start" x="72.9558" y="-3686.9" font-family="Arial" font-size="14.00" fill="#666666">[numeric]</text>
<polygon fill="none" stroke="#000000" points="46.5,-3645.5 46.5,-3675.5 427.5,-3675.5 427.5,-3645.5 46.5,-3645.5"/>
<text text-anchor="start" x="53.5" y="-3656.9" font-family="Arial" font-size="14.00" fill="#000000">12 </text>
<text text-anchor="start" x="72.9558" y="-3656.9" font-family="Arial" font-size="14.00" fill="#666666">[numeric]</text>
<polygon fill="none" stroke="#000000" points="46.5,-3615.5 46.5,-3645.5 427.5,-3645.5 427.5,-3615.5 46.5,-3615.5"/>
<text text-anchor="start" x="53.5" y="-3626.9" font-family="Arial" font-size="14.00" fill="#000000">16 </text>
<text text-anchor="start" x="72.9558" y="-3626.9" font-family="Arial" font-size="14.00" fill="#666666">[numeric]</text>
<polygon fill="none" stroke="#000000" points="46.5,-3585.5 46.5,-3615.5 427.5,-3615.5 427.5,-3585.5 46.5,-3585.5"/>
<text text-anchor="start" x="53.5" y="-3596.9" font-family="Arial" font-size="14.00" fill="#000000">17 </text>
<text text-anchor="start" x="72.9558" y="-3596.9" font-family="Arial" font-size="14.00" fill="#666666">[numeric]</text>
<polygon fill="none" stroke="#000000" points="46.5,-3555.5 46.5,-3585.5 427.5,-3585.5 427.5,-3555.5 46.5,-3555.5"/>
<text text-anchor="start" x="53.5" y="-3566.9" font-family="Arial" font-size="14.00" fill="#000000">18 </text>
<text text-anchor="start" x="72.9558" y="-3566.9" font-family="Arial" font-size="14.00" fill="#666666">[numeric]</text>
<polygon fill="none" stroke="#000000" points="46.5,-3525.5 46.5,-3555.5 427.5,-3555.5 427.5,-3525.5 46.5,-3525.5"/>
<text text-anchor="start" x="53.5" y="-3536.9" font-family="Arial" font-size="14.00" fill="#000000">19 </text>
<text text-anchor="start" x="72.9558" y="-3536.9" font-family="Arial" font-size="14.00" fill="#666666">[numeric]</text>
<polygon fill="none" stroke="#000000" points="46.5,-3495.5 46.5,-3525.5 427.5,-3525.5 427.5,-3495.5 46.5,-3495.5"/>
<text text-anchor="start" x="53.5" y="-3506.9" font-family="Arial" font-size="14.00" fill="#000000">20 </text>
<text text-anchor="start" x="72.9558" y="-3506.9" font-family="Arial" font-size="14.00" fill="#666666">[numeric]</text>
<polygon fill="none" stroke="#000000" points="46.5,-3465.5 46.5,-3495.5 427.5,-3495.5 427.5,-3465.5 46.5,-3465.5"/>
<text text-anchor="start" x="53.5" y="-3476.9" font-family="Arial" font-size="14.00" fill="#000000">22 </text>
<text text-anchor="start" x="72.9558" y="-3476.9" font-family="Arial" font-size="14.00" fill="#666666">[numeric]</text>
<polygon fill="none" stroke="#000000" points="46.5,-3435.5 46.5,-3465.5 427.5,-3465.5 427.5,-3435.5 46.5,-3435.5"/>
<text text-anchor="start" x="53.5" y="-3446.9" font-family="Arial" font-size="14.00" fill="#000000">23 </text>
<text text-anchor="start" x="72.9558" y="-3446.9" font-family="Arial" font-size="14.00" fill="#666666">[numeric]</text>
<polygon fill="none" stroke="#000000" points="46.5,-3405.5 46.5,-3435.5 427.5,-3435.5 427.5,-3405.5 46.5,-3405.5"/>
<text text-anchor="start" x="53.5" y="-3416.9" font-family="Arial" font-size="14.00" fill="#000000">26 </text>
<text text-anchor="start" x="72.9558" y="-3416.9" font-family="Arial" font-size="14.00" fill="#666666">[numeric]</text>
<polygon fill="none" stroke="#000000" points="46.5,-3375.5 46.5,-3405.5 427.5,-3405.5 427.5,-3375.5 46.5,-3375.5"/>
<text text-anchor="start" x="53.5" y="-3386.9" font-family="Arial" font-size="14.00" fill="#000000">28 </text>
<text text-anchor="start" x="72.9558" y="-3386.9" font-family="Arial" font-size="14.00" fill="#666666">[numeric]</text>
<polygon fill="none" stroke="#000000" points="46.5,-3345.5 46.5,-3375.5 427.5,-3375.5 427.5,-3345.5 46.5,-3345.5"/>
<text text-anchor="start" x="53.5" y="-3356.9" font-family="Arial" font-size="14.00" fill="#000000">29 </text>
<text text-anchor="start" x="72.9558" y="-3356.9" font-family="Arial" font-size="14.00" fill="#666666">[numeric]</text>
<polygon fill="none" stroke="#000000" points="46.5,-3315.5 46.5,-3345.5 427.5,-3345.5 427.5,-3315.5 46.5,-3315.5"/>
<text text-anchor="start" x="53.5" y="-3326.9" font-family="Arial" font-size="14.00" fill="#000000">30 </text>
<text text-anchor="start" x="72.9558" y="-3326.9" font-family="Arial" font-size="14.00" fill="#666666">[numeric]</text>
<polygon fill="none" stroke="#000000" points="46.5,-3285.5 46.5,-3315.5 427.5,-3315.5 427.5,-3285.5 46.5,-3285.5"/>
<text text-anchor="start" x="53.5" y="-3296.9" font-family="Arial" font-size="14.00" fill="#000000">31 </text>
<text text-anchor="start" x="72.9558" y="-3296.9" font-family="Arial" font-size="14.00" fill="#666666">[numeric]</text>
<polygon fill="none" stroke="#000000" points="46.5,-3255.5 46.5,-3285.5 427.5,-3285.5 427.5,-3255.5 46.5,-3255.5"/>
<text text-anchor="start" x="53.5" y="-3266.9" font-family="Arial" font-size="14.00" fill="#000000">32 </text>
<text text-anchor="start" x="72.9558" y="-3266.9" font-family="Arial" font-size="14.00" fill="#666666">[numeric]</text>
<polygon fill="none" stroke="#000000" points="46.5,-3225.5 46.5,-3255.5 427.5,-3255.5 427.5,-3225.5 46.5,-3225.5"/>
<text text-anchor="start" x="53.5" y="-3236.9" font-family="Arial" font-size="14.00" fill="#000000">33 </text>
<text text-anchor="start" x="72.9558" y="-3236.9" font-family="Arial" font-size="14.00" fill="#666666">[numeric]</text>
<polygon fill="none" stroke="#000000" points="46.5,-3195.5 46.5,-3225.5 427.5,-3225.5 427.5,-3195.5 46.5,-3195.5"/>
<text text-anchor="start" x="53.5" y="-3206.9" font-family="Arial" font-size="14.00" fill="#000000">34 </text>
<text text-anchor="start" x="72.9558" y="-3206.9" font-family="Arial" font-size="14.00" fill="#666666">[numeric]</text>
<polygon fill="none" stroke="#000000" points="46.5,-3165.5 46.5,-3195.5 427.5,-3195.5 427.5,-3165.5 46.5,-3165.5"/>
<text text-anchor="start" x="53.5" y="-3176.9" font-family="Arial" font-size="14.00" fill="#000000">35 </text>
<text text-anchor="start" x="72.9558" y="-3176.9" font-family="Arial" font-size="14.00" fill="#666666">[numeric]</text>
<polygon fill="none" stroke="#000000" points="46.5,-3135.5 46.5,-3165.5 427.5,-3165.5 427.5,-3135.5 46.5,-3135.5"/>
<text text-anchor="start" x="53.5" y="-3146.9" font-family="Arial" font-size="14.00" fill="#000000">36 </text>
<text text-anchor="start" x="72.9558" y="-3146.9" font-family="Arial" font-size="14.00" fill="#666666">[numeric]</text>
<polygon fill="none" stroke="#000000" points="46.5,-3105.5 46.5,-3135.5 427.5,-3135.5 427.5,-3105.5 46.5,-3105.5"/>
<text text-anchor="start" x="53.5" y="-3116.9" font-family="Arial" font-size="14.00" fill="#000000">37 </text>
<text text-anchor="start" x="72.9558" y="-3116.9" font-family="Arial" font-size="14.00" fill="#666666">[numeric]</text>
<polygon fill="none" stroke="#000000" points="46.5,-3075.5 46.5,-3105.5 427.5,-3105.5 427.5,-3075.5 46.5,-3075.5"/>
<text text-anchor="start" x="53.5" y="-3086.9" font-family="Arial" font-size="14.00" fill="#000000">38 </text>
<text text-anchor="start" x="72.9558" y="-3086.9" font-family="Arial" font-size="14.00" fill="#666666">[numeric]</text>
<polygon fill="none" stroke="#000000" points="46.5,-3045.5 46.5,-3075.5 427.5,-3075.5 427.5,-3045.5 46.5,-3045.5"/>
<text text-anchor="start" x="53.5" y="-3056.9" font-family="Arial" font-size="14.00" fill="#000000">41 </text>
<text text-anchor="start" x="72.9558" y="-3056.9" font-family="Arial" font-size="14.00" fill="#666666">[numeric]</text>
<polygon fill="none" stroke="#000000" points="46.5,-3015.5 46.5,-3045.5 427.5,-3045.5 427.5,-3015.5 46.5,-3015.5"/>
<text text-anchor="start" x="53.5" y="-3026.9" font-family="Arial" font-size="14.00" fill="#000000">44 </text>
<text text-anchor="start" x="72.9558" y="-3026.9" font-family="Arial" font-size="14.00" fill="#666666">[numeric]</text>
<polygon fill="none" stroke="#000000" points="46.5,-2985.5 46.5,-3015.5 427.5,-3015.5 427.5,-2985.5 46.5,-2985.5"/>
<text text-anchor="start" x="53.5" y="-2996.9" font-family="Arial" font-size="14.00" fill="#000000">45 </text>
<text text-anchor="start" x="72.9558" y="-2996.9" font-family="Arial" font-size="14.00" fill="#666666">[numeric]</text>
<polygon fill="none" stroke="#000000" points="46.5,-2955.5 46.5,-2985.5 427.5,-2985.5 427.5,-2955.5 46.5,-2955.5"/>
<text text-anchor="start" x="53.5" y="-2966.9" font-family="Arial" font-size="14.00" fill="#000000">46 </text>
<text text-anchor="start" x="72.9558" y="-2966.9" font-family="Arial" font-size="14.00" fill="#666666">[numeric]</text>
<polygon fill="none" stroke="#000000" points="46.5,-2925.5 46.5,-2955.5 427.5,-2955.5 427.5,-2925.5 46.5,-2925.5"/>
<text text-anchor="start" x="53.5" y="-2936.9" font-family="Arial" font-size="14.00" fill="#000000">48 </text>
<text text-anchor="start" x="72.9558" y="-2936.9" font-family="Arial" font-size="14.00" fill="#666666">[numeric]</text>
<polygon fill="none" stroke="#000000" points="46.5,-2895.5 46.5,-2925.5 427.5,-2925.5 427.5,-2895.5 46.5,-2895.5"/>
<text text-anchor="start" x="53.5" y="-2906.9" font-family="Arial" font-size="14.00" fill="#000000">49 </text>
<text text-anchor="start" x="72.9558" y="-2906.9" font-family="Arial" font-size="14.00" fill="#666666">[numeric]</text>
<polygon fill="none" stroke="#000000" points="46.5,-2865.5 46.5,-2895.5 427.5,-2895.5 427.5,-2865.5 46.5,-2865.5"/>
<text text-anchor="start" x="53.5" y="-2876.9" font-family="Arial" font-size="14.00" fill="#000000">50 </text>
<text text-anchor="start" x="72.9558" y="-2876.9" font-family="Arial" font-size="14.00" fill="#666666">[numeric]</text>
<polygon fill="none" stroke="#000000" points="46.5,-2835.5 46.5,-2865.5 427.5,-2865.5 427.5,-2835.5 46.5,-2835.5"/>
<text text-anchor="start" x="53.5" y="-2846.9" font-family="Arial" font-size="14.00" fill="#000000">75 </text>
<text text-anchor="start" x="72.9558" y="-2846.9" font-family="Arial" font-size="14.00" fill="#666666">[numeric]</text>
<polygon fill="none" stroke="#000000" points="46.5,-2805.5 46.5,-2835.5 427.5,-2835.5 427.5,-2805.5 46.5,-2805.5"/>
<text text-anchor="start" x="53.5" y="-2816.9" font-family="Arial" font-size="14.00" fill="#000000">77 </text>
<text text-anchor="start" x="72.9558" y="-2816.9" font-family="Arial" font-size="14.00" fill="#666666">[numeric]</text>
<polygon fill="none" stroke="#000000" points="46.5,-2775.5 46.5,-2805.5 427.5,-2805.5 427.5,-2775.5 46.5,-2775.5"/>
<text text-anchor="start" x="53.5" y="-2786.9" font-family="Arial" font-size="14.00" fill="#000000">78 </text>
<text text-anchor="start" x="72.9558" y="-2786.9" font-family="Arial" font-size="14.00" fill="#666666">[numeric]</text>
<polygon fill="none" stroke="#000000" points="46.5,-2745.5 46.5,-2775.5 427.5,-2775.5 427.5,-2745.5 46.5,-2745.5"/>
<text text-anchor="start" x="53.5" y="-2756.9" font-family="Arial" font-size="14.00" fill="#000000">80 </text>
<text text-anchor="start" x="72.9558" y="-2756.9" font-family="Arial" font-size="14.00" fill="#666666">[numeric]</text>
<polygon fill="none" stroke="#000000" points="46.5,-2715.5 46.5,-2745.5 427.5,-2745.5 427.5,-2715.5 46.5,-2715.5"/>
<text text-anchor="start" x="53.5" y="-2726.9" font-family="Arial" font-size="14.00" fill="#000000">83 </text>
<text text-anchor="start" x="72.9558" y="-2726.9" font-family="Arial" font-size="14.00" fill="#666666">[numeric]</text>
<polygon fill="none" stroke="#000000" points="46.5,-2685.5 46.5,-2715.5 427.5,-2715.5 427.5,-2685.5 46.5,-2685.5"/>
<text text-anchor="start" x="53.5" y="-2696.9" font-family="Arial" font-size="14.00" fill="#000000">84 </text>
<text text-anchor="start" x="72.9558" y="-2696.9" font-family="Arial" font-size="14.00" fill="#666666">[numeric]</text>
<polygon fill="none" stroke="#000000" points="46.5,-2655.5 46.5,-2685.5 427.5,-2685.5 427.5,-2655.5 46.5,-2655.5"/>
<text text-anchor="start" x="53.5" y="-2666.9" font-family="Arial" font-size="14.00" fill="#000000">92 </text>
<text text-anchor="start" x="72.9558" y="-2666.9" font-family="Arial" font-size="14.00" fill="#666666">[numeric]</text>
<polygon fill="none" stroke="#000000" points="46.5,-2625.5 46.5,-2655.5 427.5,-2655.5 427.5,-2625.5 46.5,-2625.5"/>
<text text-anchor="start" x="53.5" y="-2636.9" font-family="Arial" font-size="14.00" fill="#000000">94 </text>
<text text-anchor="start" x="72.9558" y="-2636.9" font-family="Arial" font-size="14.00" fill="#666666">[numeric]</text>
<polygon fill="none" stroke="#000000" points="46.5,-2595.5 46.5,-2625.5 427.5,-2625.5 427.5,-2595.5 46.5,-2595.5"/>
<text text-anchor="start" x="53.5" y="-2606.9" font-family="Arial" font-size="14.00" fill="#000000">114 </text>
<text text-anchor="start" x="80.7384" y="-2606.9" font-family="Arial" font-size="14.00" fill="#666666">[numeric]</text>
<polygon fill="none" stroke="#000000" points="46.5,-2565.5 46.5,-2595.5 427.5,-2595.5 427.5,-2565.5 46.5,-2565.5"/>
<text text-anchor="start" x="53.5" y="-2576.9" font-family="Arial" font-size="14.00" fill="#000000">115 </text>
<text text-anchor="start" x="80.7384" y="-2576.9" font-family="Arial" font-size="14.00" fill="#666666">[numeric]</text>
<polygon fill="none" stroke="#000000" points="46.5,-2535.5 46.5,-2565.5 427.5,-2565.5 427.5,-2535.5 46.5,-2535.5"/>
<text text-anchor="start" x="53.5" y="-2546.9" font-family="Arial" font-size="14.00" fill="#000000">120 </text>
<text text-anchor="start" x="80.7384" y="-2546.9" font-family="Arial" font-size="14.00" fill="#666666">[numeric]</text>
<polygon fill="none" stroke="#000000" points="46.5,-2505.5 46.5,-2535.5 427.5,-2535.5 427.5,-2505.5 46.5,-2505.5"/>
<text text-anchor="start" x="53.5" y="-2516.9" font-family="Arial" font-size="14.00" fill="#000000">121 </text>
<text text-anchor="start" x="80.7384" y="-2516.9" font-family="Arial" font-size="14.00" fill="#666666">[numeric]</text>
<polygon fill="none" stroke="#000000" points="46.5,-2475.5 46.5,-2505.5 427.5,-2505.5 427.5,-2475.5 46.5,-2475.5"/>
<text text-anchor="start" x="53.5" y="-2486.9" font-family="Arial" font-size="14.00" fill="#000000">123 </text>
<text text-anchor="start" x="80.7384" y="-2486.9" font-family="Arial" font-size="14.00" fill="#666666">[numeric]</text>
<polygon fill="none" stroke="#000000" points="46.5,-2445.5 46.5,-2475.5 427.5,-2475.5 427.5,-2445.5 46.5,-2445.5"/>
<text text-anchor="start" x="53.5" y="-2456.9" font-family="Arial" font-size="14.00" fill="#000000">124 </text>
<text text-anchor="start" x="80.7384" y="-2456.9" font-family="Arial" font-size="14.00" fill="#666666">[numeric]</text>
<polygon fill="none" stroke="#000000" points="46.5,-2415.5 46.5,-2445.5 427.5,-2445.5 427.5,-2415.5 46.5,-2415.5"/>
<text text-anchor="start" x="53.5" y="-2426.9" font-family="Arial" font-size="14.00" fill="#000000">125 </text>
<text text-anchor="start" x="80.7384" y="-2426.9" font-family="Arial" font-size="14.00" fill="#666666">[numeric]</text>
<polygon fill="none" stroke="#000000" points="46.5,-2385.5 46.5,-2415.5 427.5,-2415.5 427.5,-2385.5 46.5,-2385.5"/>
<text text-anchor="start" x="53.5" y="-2396.9" font-family="Arial" font-size="14.00" fill="#000000">pretaxtotal </text>
<text text-anchor="start" x="122.7426" y="-2396.9" font-family="Arial" font-size="14.00" fill="#666666">[numeric]</text>
<polygon fill="none" stroke="#000000" points="46.5,-2355.5 46.5,-2385.5 427.5,-2385.5 427.5,-2355.5 46.5,-2355.5"/>
<text text-anchor="start" x="53.5" y="-2366.9" font-family="Arial" font-size="14.00" fill="#000000">126 </text>
<text text-anchor="start" x="80.7384" y="-2366.9" font-family="Arial" font-size="14.00" fill="#666666">[numeric(18,2)]</text>
<polygon fill="none" stroke="#000000" points="46.5,-2325.5 46.5,-2355.5 427.5,-2355.5 427.5,-2325.5 46.5,-2325.5"/>
<text text-anchor="start" x="53.5" y="-2336.9" font-family="Arial" font-size="14.00" fill="#000000">127 </text>
<text text-anchor="start" x="80.7384" y="-2336.9" font-family="Arial" font-size="14.00" fill="#666666">[numeric(18,2)]</text>
<polygon fill="none" stroke="#000000" points="46.5,-2295.5 46.5,-2325.5 427.5,-2325.5 427.5,-2295.5 46.5,-2295.5"/>
<text text-anchor="start" x="53.5" y="-2306.9" font-family="Arial" font-size="14.00" fill="#000000">128 </text>
<text text-anchor="start" x="80.7384" y="-2306.9" font-family="Arial" font-size="14.00" fill="#666666">[numeric(18,2)]</text>
<polygon fill="none" stroke="#000000" points="46.5,-2265.5 46.5,-2295.5 427.5,-2295.5 427.5,-2265.5 46.5,-2265.5"/>
<text text-anchor="start" x="53.5" y="-2276.9" font-family="Arial" font-size="14.00" fill="#000000">129 </text>
<text text-anchor="start" x="80.7384" y="-2276.9" font-family="Arial" font-size="14.00" fill="#666666">[numeric(18,2)]</text>
<polygon fill="none" stroke="#000000" points="46.5,-2235.5 46.5,-2265.5 427.5,-2265.5 427.5,-2235.5 46.5,-2235.5"/>
<text text-anchor="start" x="53.5" y="-2246.9" font-family="Arial" font-size="14.00" fill="#000000">99 </text>
<text text-anchor="start" x="72.9558" y="-2246.9" font-family="Arial" font-size="14.00" fill="#666666">[numeric(18,2)]</text>
<polygon fill="none" stroke="#000000" points="46.5,-2205.5 46.5,-2235.5 427.5,-2235.5 427.5,-2205.5 46.5,-2205.5"/>
<text text-anchor="start" x="53.5" y="-2216.9" font-family="Arial" font-size="14.00" fill="#000000">104 </text>
<text text-anchor="start" x="80.7384" y="-2216.9" font-family="Arial" font-size="14.00" fill="#666666">[numeric(18,2)]</text>
<polygon fill="none" stroke="#000000" points="46.5,-2175.5 46.5,-2205.5 427.5,-2205.5 427.5,-2175.5 46.5,-2175.5"/>
<text text-anchor="start" x="53.5" y="-2186.9" font-family="Arial" font-size="14.00" fill="#000000">130 </text>
<text text-anchor="start" x="80.7384" y="-2186.9" font-family="Arial" font-size="14.00" fill="#666666">[numeric(18,2)]</text>
<polygon fill="none" stroke="#000000" points="46.5,-2145.5 46.5,-2175.5 427.5,-2175.5 427.5,-2145.5 46.5,-2145.5"/>
<text text-anchor="start" x="53.5" y="-2156.9" font-family="Arial" font-size="14.00" fill="#000000">131 </text>
<text text-anchor="start" x="80.7384" y="-2156.9" font-family="Arial" font-size="14.00" fill="#666666">[numeric(18,2)]</text>
<polygon fill="none" stroke="#000000" points="46.5,-2115.5 46.5,-2145.5 427.5,-2145.5 427.5,-2115.5 46.5,-2115.5"/>
<text text-anchor="start" x="53.5" y="-2126.9" font-family="Arial" font-size="14.00" fill="#000000">132 </text>
<text text-anchor="start" x="80.7384" y="-2126.9" font-family="Arial" font-size="14.00" fill="#666666">[numeric(18,2)]</text>
<polygon fill="none" stroke="#000000" points="46.5,-2085.5 46.5,-2115.5 427.5,-2115.5 427.5,-2085.5 46.5,-2085.5"/>
<text text-anchor="start" x="53.5" y="-2096.9" font-family="Arial" font-size="14.00" fill="#000000">133 </text>
<text text-anchor="start" x="80.7384" y="-2096.9" font-family="Arial" font-size="14.00" fill="#666666">[numeric(18,2)]</text>
<polygon fill="none" stroke="#000000" points="46.5,-2055.5 46.5,-2085.5 427.5,-2085.5 427.5,-2055.5 46.5,-2055.5"/>
<text text-anchor="start" x="53.5" y="-2066.9" font-family="Arial" font-size="14.00" fill="#000000">134 </text>
<text text-anchor="start" x="80.7384" y="-2066.9" font-family="Arial" font-size="14.00" fill="#666666">[numeric(18,2)]</text>
<polygon fill="none" stroke="#000000" points="46.5,-2025.5 46.5,-2055.5 427.5,-2055.5 427.5,-2025.5 46.5,-2025.5"/>
<text text-anchor="start" x="53.5" y="-2036.9" font-family="Arial" font-size="14.00" fill="#000000">136 </text>
<text text-anchor="start" x="80.7384" y="-2036.9" font-family="Arial" font-size="14.00" fill="#666666">[numeric(18,2)]</text>
<polygon fill="none" stroke="#000000" points="46.5,-1995.5 46.5,-2025.5 427.5,-2025.5 427.5,-1995.5 46.5,-1995.5"/>
<text text-anchor="start" x="53.5" y="-2006.9" font-family="Arial" font-size="14.00" fill="#000000">137 </text>
<text text-anchor="start" x="80.7384" y="-2006.9" font-family="Arial" font-size="14.00" fill="#666666">[numeric(18,2)]</text>
<polygon fill="none" stroke="#000000" points="46.5,-1965.5 46.5,-1995.5 427.5,-1995.5 427.5,-1965.5 46.5,-1965.5"/>
<text text-anchor="start" x="53.5" y="-1976.9" font-family="Arial" font-size="14.00" fill="#000000">61 </text>
<text text-anchor="start" x="72.9558" y="-1976.9" font-family="Arial" font-size="14.00" fill="#666666">[numeric(18,2)]</text>
<polygon fill="none" stroke="#000000" points="46.5,-1935.5 46.5,-1965.5 427.5,-1965.5 427.5,-1935.5 46.5,-1935.5"/>
<text text-anchor="start" x="53.5" y="-1946.9" font-family="Arial" font-size="14.00" fill="#000000">138 </text>
<text text-anchor="start" x="80.7384" y="-1946.9" font-family="Arial" font-size="14.00" fill="#666666">[numeric(18,2)]</text>
<polygon fill="none" stroke="#000000" points="46.5,-1905.5 46.5,-1935.5 427.5,-1935.5 427.5,-1905.5 46.5,-1905.5"/>
<text text-anchor="start" x="53.5" y="-1916.9" font-family="Arial" font-size="14.00" fill="#000000">139 </text>
<text text-anchor="start" x="80.7384" y="-1916.9" font-family="Arial" font-size="14.00" fill="#666666">[numeric(18,2)]</text>
<polygon fill="none" stroke="#000000" points="46.5,-1875.5 46.5,-1905.5 427.5,-1905.5 427.5,-1875.5 46.5,-1875.5"/>
<text text-anchor="start" x="53.5" y="-1886.9" font-family="Arial" font-size="14.00" fill="#000000">140 </text>
<text text-anchor="start" x="80.7384" y="-1886.9" font-family="Arial" font-size="14.00" fill="#666666">[numeric(18,2)]</text>
<polygon fill="none" stroke="#000000" points="46.5,-1845.5 46.5,-1875.5 427.5,-1875.5 427.5,-1845.5 46.5,-1845.5"/>
<text text-anchor="start" x="53.5" y="-1856.9" font-family="Arial" font-size="14.00" fill="#000000">141 </text>
<text text-anchor="start" x="80.7384" y="-1856.9" font-family="Arial" font-size="14.00" fill="#666666">[numeric(18,2)]</text>
<polygon fill="none" stroke="#000000" points="46.5,-1815.5 46.5,-1845.5 427.5,-1845.5 427.5,-1815.5 46.5,-1815.5"/>
<text text-anchor="start" x="53.5" y="-1826.9" font-family="Arial" font-size="14.00" fill="#000000">93 </text>
<text text-anchor="start" x="72.9558" y="-1826.9" font-family="Arial" font-size="14.00" fill="#666666">[numeric(18,2)]</text>
<polygon fill="none" stroke="#000000" points="46.5,-1785.5 46.5,-1815.5 427.5,-1815.5 427.5,-1785.5 46.5,-1785.5"/>
<text text-anchor="start" x="53.5" y="-1796.9" font-family="Arial" font-size="14.00" fill="#000000">142 </text>
<text text-anchor="start" x="80.7384" y="-1796.9" font-family="Arial" font-size="14.00" fill="#666666">[numeric(18,2)]</text>
<polygon fill="none" stroke="#000000" points="46.5,-1755.5 46.5,-1785.5 427.5,-1785.5 427.5,-1755.5 46.5,-1755.5"/>
<text text-anchor="start" x="53.5" y="-1766.9" font-family="Arial" font-size="14.00" fill="#000000">118 </text>
<text text-anchor="start" x="80.7384" y="-1766.9" font-family="Arial" font-size="14.00" fill="#666666">[numeric(18,2)]</text>
<polygon fill="none" stroke="#000000" points="46.5,-1725.5 46.5,-1755.5 427.5,-1755.5 427.5,-1725.5 46.5,-1725.5"/>
<text text-anchor="start" x="53.5" y="-1736.9" font-family="Arial" font-size="14.00" fill="#000000">91 </text>
<text text-anchor="start" x="72.9558" y="-1736.9" font-family="Arial" font-size="14.00" fill="#666666">[numeric(18,2)]</text>
<polygon fill="none" stroke="#000000" points="46.5,-1695.5 46.5,-1725.5 427.5,-1725.5 427.5,-1695.5 46.5,-1695.5"/>
<text text-anchor="start" x="53.5" y="-1706.9" font-family="Arial" font-size="14.00" fill="#000000">143 </text>
<text text-anchor="start" x="80.7384" y="-1706.9" font-family="Arial" font-size="14.00" fill="#666666">[numeric(18,2)]</text>
<polygon fill="none" stroke="#000000" points="46.5,-1665.5 46.5,-1695.5 427.5,-1695.5 427.5,-1665.5 46.5,-1665.5"/>
<text text-anchor="start" x="53.5" y="-1676.9" font-family="Arial" font-size="14.00" fill="#000000">144 </text>
<text text-anchor="start" x="80.7384" y="-1676.9" font-family="Arial" font-size="14.00" fill="#666666">[numeric(18,2)]</text>
<polygon fill="none" stroke="#000000" points="46.5,-1635.5 46.5,-1665.5 427.5,-1665.5 427.5,-1635.5 46.5,-1635.5"/>
<text text-anchor="start" x="53.5" y="-1646.9" font-family="Arial" font-size="14.00" fill="#000000">100 </text>
<text text-anchor="start" x="80.7384" y="-1646.9" font-family="Arial" font-size="14.00" fill="#666666">[numeric(18,2)]</text>
<polygon fill="none" stroke="#000000" points="46.5,-1605.5 46.5,-1635.5 427.5,-1635.5 427.5,-1605.5 46.5,-1605.5"/>
<text text-anchor="start" x="53.5" y="-1616.9" font-family="Arial" font-size="14.00" fill="#000000">87 </text>
<text text-anchor="start" x="72.9558" y="-1616.9" font-family="Arial" font-size="14.00" fill="#666666">[numeric(18,2)]</text>
<polygon fill="none" stroke="#000000" points="46.5,-1575.5 46.5,-1605.5 427.5,-1605.5 427.5,-1575.5 46.5,-1575.5"/>
<text text-anchor="start" x="53.5" y="-1586.9" font-family="Arial" font-size="14.00" fill="#000000">145 </text>
<text text-anchor="start" x="80.7384" y="-1586.9" font-family="Arial" font-size="14.00" fill="#666666">[numeric(18,2)]</text>
<polygon fill="none" stroke="#000000" points="46.5,-1545.5 46.5,-1575.5 427.5,-1575.5 427.5,-1545.5 46.5,-1545.5"/>
<text text-anchor="start" x="53.5" y="-1556.9" font-family="Arial" font-size="14.00" fill="#000000">146 </text>
<text text-anchor="start" x="80.7384" y="-1556.9" font-family="Arial" font-size="14.00" fill="#666666">[numeric(18,2)]</text>
<polygon fill="none" stroke="#000000" points="46.5,-1515.5 46.5,-1545.5 427.5,-1545.5 427.5,-1515.5 46.5,-1515.5"/>
<text text-anchor="start" x="53.5" y="-1526.9" font-family="Arial" font-size="14.00" fill="#000000">147 </text>
<text text-anchor="start" x="80.7384" y="-1526.9" font-family="Arial" font-size="14.00" fill="#666666">[numeric(18,2)]</text>
<polygon fill="none" stroke="#000000" points="46.5,-1485.5 46.5,-1515.5 427.5,-1515.5 427.5,-1485.5 46.5,-1485.5"/>
<text text-anchor="start" x="53.5" y="-1496.9" font-family="Arial" font-size="14.00" fill="#000000">148 </text>
<text text-anchor="start" x="80.7384" y="-1496.9" font-family="Arial" font-size="14.00" fill="#666666">[numeric(18,2)]</text>
<polygon fill="none" stroke="#000000" points="46.5,-1455.5 46.5,-1485.5 427.5,-1485.5 427.5,-1455.5 46.5,-1455.5"/>
<text text-anchor="start" x="53.5" y="-1466.9" font-family="Arial" font-size="14.00" fill="#000000">149 </text>
<text text-anchor="start" x="80.7384" y="-1466.9" font-family="Arial" font-size="14.00" fill="#666666">[numeric(18,2)]</text>
<polygon fill="none" stroke="#000000" points="46.5,-1425.5 46.5,-1455.5 427.5,-1455.5 427.5,-1425.5 46.5,-1425.5"/>
<text text-anchor="start" x="53.5" y="-1436.9" font-family="Arial" font-size="14.00" fill="#000000">150 </text>
<text text-anchor="start" x="80.7384" y="-1436.9" font-family="Arial" font-size="14.00" fill="#666666">[numeric(18,2)]</text>
<polygon fill="none" stroke="#000000" points="46.5,-1395.5 46.5,-1425.5 427.5,-1425.5 427.5,-1395.5 46.5,-1395.5"/>
<text text-anchor="start" x="53.5" y="-1406.9" font-family="Arial" font-size="14.00" fill="#000000">151 </text>
<text text-anchor="start" x="80.7384" y="-1406.9" font-family="Arial" font-size="14.00" fill="#666666">[numeric(18,2)]</text>
<polygon fill="none" stroke="#000000" points="46.5,-1365.5 46.5,-1395.5 427.5,-1395.5 427.5,-1365.5 46.5,-1365.5"/>
<text text-anchor="start" x="53.5" y="-1376.9" font-family="Arial" font-size="14.00" fill="#000000">152 </text>
<text text-anchor="start" x="80.7384" y="-1376.9" font-family="Arial" font-size="14.00" fill="#666666">[numeric(18,2)]</text>
<polygon fill="none" stroke="#000000" points="46.5,-1335.5 46.5,-1365.5 427.5,-1365.5 427.5,-1335.5 46.5,-1335.5"/>
<text text-anchor="start" x="53.5" y="-1346.9" font-family="Arial" font-size="14.00" fill="#000000">153 </text>
<text text-anchor="start" x="80.7384" y="-1346.9" font-family="Arial" font-size="14.00" fill="#666666">[numeric(18,2)]</text>
<polygon fill="none" stroke="#000000" points="46.5,-1305.5 46.5,-1335.5 427.5,-1335.5 427.5,-1305.5 46.5,-1305.5"/>
<text text-anchor="start" x="53.5" y="-1316.9" font-family="Arial" font-size="14.00" fill="#000000">154 </text>
<text text-anchor="start" x="80.7384" y="-1316.9" font-family="Arial" font-size="14.00" fill="#666666">[numeric(18,2)]</text>
<polygon fill="none" stroke="#000000" points="46.5,-1275.5 46.5,-1305.5 427.5,-1305.5 427.5,-1275.5 46.5,-1275.5"/>
<text text-anchor="start" x="53.5" y="-1286.9" font-family="Arial" font-size="14.00" fill="#000000">155 </text>
<text text-anchor="start" x="80.7384" y="-1286.9" font-family="Arial" font-size="14.00" fill="#666666">[numeric(18,2)]</text>
<polygon fill="none" stroke="#000000" points="46.5,-1245.5 46.5,-1275.5 427.5,-1275.5 427.5,-1245.5 46.5,-1245.5"/>
<text text-anchor="start" x="53.5" y="-1256.9" font-family="Arial" font-size="14.00" fill="#000000">156 </text>
<text text-anchor="start" x="80.7384" y="-1256.9" font-family="Arial" font-size="14.00" fill="#666666">[numeric(18,2)]</text>
<polygon fill="none" stroke="#000000" points="46.5,-1215.5 46.5,-1245.5 427.5,-1245.5 427.5,-1215.5 46.5,-1215.5"/>
<text text-anchor="start" x="53.5" y="-1226.9" font-family="Arial" font-size="14.00" fill="#000000">157 </text>
<text text-anchor="start" x="80.7384" y="-1226.9" font-family="Arial" font-size="14.00" fill="#666666">[numeric(18,2)]</text>
<polygon fill="none" stroke="#000000" points="46.5,-1185.5 46.5,-1215.5 427.5,-1215.5 427.5,-1185.5 46.5,-1185.5"/>
<text text-anchor="start" x="53.5" y="-1196.9" font-family="Arial" font-size="14.00" fill="#000000">159 </text>
<text text-anchor="start" x="80.7384" y="-1196.9" font-family="Arial" font-size="14.00" fill="#666666">[numeric(18,2)]</text>
<polygon fill="none" stroke="#000000" points="46.5,-1155.5 46.5,-1185.5 427.5,-1185.5 427.5,-1155.5 46.5,-1155.5"/>
<text text-anchor="start" x="53.5" y="-1166.9" font-family="Arial" font-size="14.00" fill="#000000">160 </text>
<text text-anchor="start" x="80.7384" y="-1166.9" font-family="Arial" font-size="14.00" fill="#666666">[numeric(18,2)]</text>
<polygon fill="none" stroke="#000000" points="46.5,-1125.5 46.5,-1155.5 427.5,-1155.5 427.5,-1125.5 46.5,-1125.5"/>
<text text-anchor="start" x="53.5" y="-1136.9" font-family="Arial" font-size="14.00" fill="#000000">161 </text>
<text text-anchor="start" x="80.7384" y="-1136.9" font-family="Arial" font-size="14.00" fill="#666666">[numeric(18,2)]</text>
<polygon fill="none" stroke="#000000" points="46.5,-1095.5 46.5,-1125.5 427.5,-1125.5 427.5,-1095.5 46.5,-1095.5"/>
<text text-anchor="start" x="53.5" y="-1106.9" font-family="Arial" font-size="14.00" fill="#000000">162 </text>
<text text-anchor="start" x="80.7384" y="-1106.9" font-family="Arial" font-size="14.00" fill="#666666">[numeric(18,2)]</text>
<polygon fill="none" stroke="#000000" points="46.5,-1065.5 46.5,-1095.5 427.5,-1095.5 427.5,-1065.5 46.5,-1065.5"/>
<text text-anchor="start" x="53.5" y="-1076.9" font-family="Arial" font-size="14.00" fill="#000000">163 </text>
<text text-anchor="start" x="80.7384" y="-1076.9" font-family="Arial" font-size="14.00" fill="#666666">[numeric(18,2)]</text>
<polygon fill="none" stroke="#000000" points="46.5,-1035.5 46.5,-1065.5 427.5,-1065.5 427.5,-1035.5 46.5,-1035.5"/>
<text text-anchor="start" x="53.5" y="-1046.9" font-family="Arial" font-size="14.00" fill="#000000">164 </text>
<text text-anchor="start" x="80.7384" y="-1046.9" font-family="Arial" font-size="14.00" fill="#666666">[numeric(18,2)]</text>
<polygon fill="none" stroke="#000000" points="46.5,-1005.5 46.5,-1035.5 427.5,-1035.5 427.5,-1005.5 46.5,-1005.5"/>
<text text-anchor="start" x="53.5" y="-1016.9" font-family="Arial" font-size="14.00" fill="#000000">165 </text>
<text text-anchor="start" x="80.7384" y="-1016.9" font-family="Arial" font-size="14.00" fill="#666666">[numeric(18,2)]</text>
<polygon fill="none" stroke="#000000" points="46.5,-975.5 46.5,-1005.5 427.5,-1005.5 427.5,-975.5 46.5,-975.5"/>
<text text-anchor="start" x="53.5" y="-986.9" font-family="Arial" font-size="14.00" fill="#000000">166 </text>
<text text-anchor="start" x="80.7384" y="-986.9" font-family="Arial" font-size="14.00" fill="#666666">[numeric(18,2)]</text>
<polygon fill="none" stroke="#000000" points="46.5,-945.5 46.5,-975.5 427.5,-975.5 427.5,-945.5 46.5,-945.5"/>
<text text-anchor="start" x="53.5" y="-956.9" font-family="Arial" font-size="14.00" fill="#000000">167 </text>
<text text-anchor="start" x="80.7384" y="-956.9" font-family="Arial" font-size="14.00" fill="#666666">[numeric(18,2)]</text>
<polygon fill="none" stroke="#000000" points="46.5,-915.5 46.5,-945.5 427.5,-945.5 427.5,-915.5 46.5,-915.5"/>
<text text-anchor="start" x="53.5" y="-926.9" font-family="Arial" font-size="14.00" fill="#000000">168 </text>
<text text-anchor="start" x="80.7384" y="-926.9" font-family="Arial" font-size="14.00" fill="#666666">[numeric(18,2)]</text>
<polygon fill="none" stroke="#000000" points="46.5,-885.5 46.5,-915.5 427.5,-915.5 427.5,-885.5 46.5,-885.5"/>
<text text-anchor="start" x="53.5" y="-896.9" font-family="Arial" font-size="14.00" fill="#000000">169 </text>
<text text-anchor="start" x="80.7384" y="-896.9" font-family="Arial" font-size="14.00" fill="#666666">[numeric(18,2)]</text>
<polygon fill="none" stroke="#000000" points="46.5,-855.5 46.5,-885.5 427.5,-885.5 427.5,-855.5 46.5,-855.5"/>
<text text-anchor="start" x="53.5" y="-866.9" font-family="Arial" font-size="14.00" fill="#000000">170 </text>
<text text-anchor="start" x="80.7384" y="-866.9" font-family="Arial" font-size="14.00" fill="#666666">[numeric(18,2)]</text>
<polygon fill="none" stroke="#000000" points="46.5,-825.5 46.5,-855.5 427.5,-855.5 427.5,-825.5 46.5,-825.5"/>
<text text-anchor="start" x="53.5" y="-836.9" font-family="Arial" font-size="14.00" fill="#000000">171 </text>
<text text-anchor="start" x="80.7384" y="-836.9" font-family="Arial" font-size="14.00" fill="#666666">[numeric(18,2)]</text>
<polygon fill="none" stroke="#000000" points="46.5,-795.5 46.5,-825.5 427.5,-825.5 427.5,-795.5 46.5,-795.5"/>
<text text-anchor="start" x="53.5" y="-806.9" font-family="Arial" font-size="14.00" fill="#000000">172 </text>
<text text-anchor="start" x="80.7384" y="-806.9" font-family="Arial" font-size="14.00" fill="#666666">[numeric(18,2)]</text>
<polygon fill="none" stroke="#000000" points="46.5,-765.5 46.5,-795.5 427.5,-795.5 427.5,-765.5 46.5,-765.5"/>
<text text-anchor="start" x="53.5" y="-776.9" font-family="Arial" font-size="14.00" fill="#000000">173 </text>
<text text-anchor="start" x="80.7384" y="-776.9" font-family="Arial" font-size="14.00" fill="#666666">[numeric(18,2)]</text>
<polygon fill="none" stroke="#000000" points="46.5,-735.5 46.5,-765.5 427.5,-765.5 427.5,-735.5 46.5,-735.5"/>
<text text-anchor="start" x="53.5" y="-746.9" font-family="Arial" font-size="14.00" fill="#000000">174 </text>
<text text-anchor="start" x="80.7384" y="-746.9" font-family="Arial" font-size="14.00" fill="#666666">[numeric(18,2)]</text>
<polygon fill="none" stroke="#000000" points="46.5,-705.5 46.5,-735.5 427.5,-735.5 427.5,-705.5 46.5,-705.5"/>
<text text-anchor="start" x="53.5" y="-716.9" font-family="Arial" font-size="14.00" fill="#000000">175 </text>
<text text-anchor="start" x="80.7384" y="-716.9" font-family="Arial" font-size="14.00" fill="#666666">[numeric(18,2)]</text>
<polygon fill="none" stroke="#000000" points="46.5,-675.5 46.5,-705.5 427.5,-705.5 427.5,-675.5 46.5,-675.5"/>
<text text-anchor="start" x="53.5" y="-686.9" font-family="Arial" font-size="14.00" fill="#000000">176 </text>
<text text-anchor="start" x="80.7384" y="-686.9" font-family="Arial" font-size="14.00" fill="#666666">[numeric(18,2)]</text>
<polygon fill="none" stroke="#000000" points="46.5,-645.5 46.5,-675.5 427.5,-675.5 427.5,-645.5 46.5,-645.5"/>
<text text-anchor="start" x="53.5" y="-656.9" font-family="Arial" font-size="14.00" fill="#000000">177 </text>
<text text-anchor="start" x="80.7384" y="-656.9" font-family="Arial" font-size="14.00" fill="#666666">[numeric(18,2)]</text>
<polygon fill="none" stroke="#000000" points="46.5,-615.5 46.5,-645.5 427.5,-645.5 427.5,-615.5 46.5,-615.5"/>
<text text-anchor="start" x="53.5" y="-626.9" font-family="Arial" font-size="14.00" fill="#000000">178 </text>
<text text-anchor="start" x="80.7384" y="-626.9" font-family="Arial" font-size="14.00" fill="#666666">[numeric(18,2)]</text>
<polygon fill="none" stroke="#000000" points="46.5,-585.5 46.5,-615.5 427.5,-615.5 427.5,-585.5 46.5,-585.5"/>
<text text-anchor="start" x="53.5" y="-596.9" font-family="Arial" font-size="14.00" fill="#000000">179 </text>
<text text-anchor="start" x="80.7384" y="-596.9" font-family="Arial" font-size="14.00" fill="#666666">[numeric(18,2)]</text>
<polygon fill="none" stroke="#000000" points="46.5,-555.5 46.5,-585.5 427.5,-585.5 427.5,-555.5 46.5,-555.5"/>
<text text-anchor="start" x="53.5" y="-566.9" font-family="Arial" font-size="14.00" fill="#000000">180 </text>
<text text-anchor="start" x="80.7384" y="-566.9" font-family="Arial" font-size="14.00" fill="#666666">[numeric(18,2)]</text>
<polygon fill="none" stroke="#000000" points="46.5,-525.5 46.5,-555.5 427.5,-555.5 427.5,-525.5 46.5,-525.5"/>
<text text-anchor="start" x="53.5" y="-536.9" font-family="Arial" font-size="14.00" fill="#000000">181 </text>
<text text-anchor="start" x="80.7384" y="-536.9" font-family="Arial" font-size="14.00" fill="#666666">[numeric(18,2)]</text>
<polygon fill="none" stroke="#000000" points="46.5,-495.5 46.5,-525.5 427.5,-525.5 427.5,-495.5 46.5,-495.5"/>
<text text-anchor="start" x="53.5" y="-506.9" font-family="Arial" font-size="14.00" fill="#000000">182 </text>
<text text-anchor="start" x="80.7384" y="-506.9" font-family="Arial" font-size="14.00" fill="#666666">[numeric(18,2)]</text>
<polygon fill="none" stroke="#000000" points="46.5,-465.5 46.5,-495.5 427.5,-495.5 427.5,-465.5 46.5,-465.5"/>
<text text-anchor="start" x="53.5" y="-476.9" font-family="Arial" font-size="14.00" fill="#000000">183 </text>
<text text-anchor="start" x="80.7384" y="-476.9" font-family="Arial" font-size="14.00" fill="#666666">[numeric(18,2)]</text>
<polygon fill="none" stroke="#000000" points="46.5,-435.5 46.5,-465.5 427.5,-465.5 427.5,-435.5 46.5,-435.5"/>
<text text-anchor="start" x="53.5" y="-446.9" font-family="Arial" font-size="14.00" fill="#000000">184 </text>
<text text-anchor="start" x="80.7384" y="-446.9" font-family="Arial" font-size="14.00" fill="#666666">[numeric(18,2)]</text>
<polygon fill="none" stroke="#000000" points="46.5,-405.5 46.5,-435.5 427.5,-435.5 427.5,-405.5 46.5,-405.5"/>
<text text-anchor="start" x="53.5" y="-416.9" font-family="Arial" font-size="14.00" fill="#000000">185 </text>
<text text-anchor="start" x="80.7384" y="-416.9" font-family="Arial" font-size="14.00" fill="#666666">[numeric(18,2)]</text>
<polygon fill="none" stroke="#000000" points="46.5,-375.5 46.5,-405.5 427.5,-405.5 427.5,-375.5 46.5,-375.5"/>
<text text-anchor="start" x="53.5" y="-386.9" font-family="Arial" font-size="14.00" fill="#000000">186 </text>
<text text-anchor="start" x="80.7384" y="-386.9" font-family="Arial" font-size="14.00" fill="#666666">[numeric(18,2)]</text>
<polygon fill="none" stroke="#000000" points="46.5,-345.5 46.5,-375.5 427.5,-375.5 427.5,-345.5 46.5,-345.5"/>
<text text-anchor="start" x="53.5" y="-356.9" font-family="Arial" font-size="14.00" fill="#000000">187 </text>
<text text-anchor="start" x="80.7384" y="-356.9" font-family="Arial" font-size="14.00" fill="#666666">[numeric(18,2)]</text>
<polygon fill="none" stroke="#000000" points="46.5,-315.5 46.5,-345.5 427.5,-345.5 427.5,-315.5 46.5,-315.5"/>
<text text-anchor="start" x="53.5" y="-326.9" font-family="Arial" font-size="14.00" fill="#000000">188 </text>
<text text-anchor="start" x="80.7384" y="-326.9" font-family="Arial" font-size="14.00" fill="#666666">[numeric(18,2)]</text>
<polygon fill="none" stroke="#000000" points="46.5,-285.5 46.5,-315.5 427.5,-315.5 427.5,-285.5 46.5,-285.5"/>
<text text-anchor="start" x="53.5" y="-296.9" font-family="Arial" font-size="14.00" fill="#000000">189 </text>
<text text-anchor="start" x="80.7384" y="-296.9" font-family="Arial" font-size="14.00" fill="#666666">[numeric(18,2)]</text>
<polygon fill="none" stroke="#000000" points="46.5,-255.5 46.5,-285.5 427.5,-285.5 427.5,-255.5 46.5,-255.5"/>
<text text-anchor="start" x="53.5" y="-266.9" font-family="Arial" font-size="14.00" fill="#000000">190 </text>
<text text-anchor="start" x="80.7384" y="-266.9" font-family="Arial" font-size="14.00" fill="#666666">[numeric(18,2)]</text>
<polygon fill="none" stroke="#000000" points="46.5,-225.5 46.5,-255.5 427.5,-255.5 427.5,-225.5 46.5,-225.5"/>
<text text-anchor="start" x="53.5" y="-236.9" font-family="Arial" font-size="14.00" fill="#000000">191 </text>
<text text-anchor="start" x="80.7384" y="-236.9" font-family="Arial" font-size="14.00" fill="#666666">[numeric(18,2)]</text>
<polygon fill="none" stroke="#000000" points="46.5,-195.5 46.5,-225.5 427.5,-225.5 427.5,-195.5 46.5,-195.5"/>
<text text-anchor="start" x="53.5" y="-206.9" font-family="Arial" font-size="14.00" fill="#000000">192 </text>
<text text-anchor="start" x="80.7384" y="-206.9" font-family="Arial" font-size="14.00" fill="#666666">[numeric(18,2)]</text>
<polygon fill="none" stroke="#000000" points="46.5,-165.5 46.5,-195.5 427.5,-195.5 427.5,-165.5 46.5,-165.5"/>
<text text-anchor="start" x="53.5" y="-176.9" font-family="Arial" font-size="14.00" fill="#000000">1 </text>
<text text-anchor="start" x="65.1732" y="-176.9" font-family="Arial" font-size="14.00" fill="#666666">[numeric(18,2)]</text>
<polygon fill="none" stroke="#000000" points="46.5,-135.5 46.5,-165.5 427.5,-165.5 427.5,-135.5 46.5,-135.5"/>
<text text-anchor="start" x="53.5" y="-146.9" font-family="Arial" font-size="14.00" fill="#000000">193 </text>
<text text-anchor="start" x="80.7384" y="-146.9" font-family="Arial" font-size="14.00" fill="#666666">[numeric(18,2)]</text>
<polygon fill="none" stroke="#000000" points="46.5,-105.5 46.5,-135.5 427.5,-135.5 427.5,-105.5 46.5,-105.5"/>
<text text-anchor="start" x="53.5" y="-116.9" font-family="Arial" font-size="14.00" fill="#000000">194 </text>
<text text-anchor="start" x="80.7384" y="-116.9" font-family="Arial" font-size="14.00" fill="#666666">[numeric(18,2)]</text>
<polygon fill="none" stroke="#000000" points="46.5,-75.5 46.5,-105.5 427.5,-105.5 427.5,-75.5 46.5,-75.5"/>
<text text-anchor="start" x="53.5" y="-86.9" font-family="Arial" font-size="14.00" fill="#000000">195 </text>
<text text-anchor="start" x="80.7384" y="-86.9" font-family="Arial" font-size="14.00" fill="#666666">[numeric(18,2)]</text>
<polygon fill="none" stroke="#000000" points="46.5,-45.5 46.5,-75.5 427.5,-75.5 427.5,-45.5 46.5,-45.5"/>
<text text-anchor="start" x="53.5" y="-56.9" font-family="Arial" font-size="14.00" fill="#000000">196 </text>
<text text-anchor="start" x="80.7384" y="-56.9" font-family="Arial" font-size="14.00" fill="#666666">[numeric(18,2)]</text>
<polygon fill="none" stroke="#000000" stroke-width="3" points="44.5,-44.5 44.5,-4162.5 428.5,-4162.5 428.5,-44.5 44.5,-44.5"/>
</g>
</g>
</svg>
