<?xml version="1.0" encoding="UTF-8" standalone="no"?>
<!DOCTYPE svg PUBLIC "-//W3C//DTD SVG 1.1//EN"
 "http://www.w3.org/Graphics/SVG/1.1/DTD/svg11.dtd">
<!-- Generated by graphviz version 2.40.1 (20161225.0304)
 -->
<!-- Title: log.comn_log Pages: 1 -->
<svg width="382pt" height="285pt"
 viewBox="0.00 0.00 382.00 285.00" xmlns="http://www.w3.org/2000/svg" xmlns:xlink="http://www.w3.org/1999/xlink">
<g id="graph0" class="graph" transform="scale(1 1) rotate(0) translate(4 281)">
<title>log.comn_log</title>
<polygon fill="#ffffff" stroke="transparent" points="-4,4 -4,-281 378,-281 378,4 -4,4"/>
<!-- log.comn_log -->
<g id="node1" class="node">
<title>log.comn_log</title>
<polygon fill="#efefef" stroke="transparent" points="46,-195.5 46,-230.5 328,-230.5 328,-195.5 46,-195.5"/>
<polygon fill="none" stroke="#000000" points="46,-195.5 46,-230.5 328,-230.5 328,-195.5 46,-195.5"/>
<text text-anchor="start" x="69.7029" y="-208.3" font-family="Arial Bold" font-size="18.00" fill="#000000">log.comn_log</text>
<text text-anchor="start" x="176.7291" y="-208.3" font-family="Arial" font-size="14.00" fill="#000000">    </text>
<text text-anchor="start" x="210.9339" y="-208.3" font-family="Arial" font-size="14.00" fill="#666666">[BASE TABLE]</text>
<polygon fill="none" stroke="#000000" points="46,-165.5 46,-195.5 328,-195.5 328,-165.5 46,-165.5"/>
<text text-anchor="start" x="53" y="-176.9" font-family="Arial" font-size="14.00" fill="#000000">id </text>
<text text-anchor="start" x="67.7798" y="-176.9" font-family="Arial" font-size="14.00" fill="#666666">[integer]</text>
<polygon fill="none" stroke="#000000" points="46,-135.5 46,-165.5 328,-165.5 328,-135.5 46,-135.5"/>
<text text-anchor="start" x="53" y="-146.9" font-family="Arial" font-size="14.00" fill="#000000">log </text>
<text text-anchor="start" x="75.5624" y="-146.9" font-family="Arial" font-size="14.00" fill="#666666">[text]</text>
<polygon fill="none" stroke="#000000" points="46,-105.5 46,-135.5 328,-135.5 328,-105.5 46,-105.5"/>
<text text-anchor="start" x="52.8093" y="-116.9" font-family="Arial" font-size="14.00" fill="#000000">createdon </text>
<text text-anchor="start" x="118.9467" y="-116.9" font-family="Arial" font-size="14.00" fill="#666666">[timestamp(6) without time zone]</text>
<polygon fill="none" stroke="#000000" points="46,-75.5 46,-105.5 328,-105.5 328,-75.5 46,-75.5"/>
<text text-anchor="start" x="53" y="-86.9" font-family="Arial" font-size="14.00" fill="#000000">createdby </text>
<text text-anchor="start" x="118.3548" y="-86.9" font-family="Arial" font-size="14.00" fill="#666666">[varchar]</text>
<polygon fill="none" stroke="#000000" points="46,-45.5 46,-75.5 328,-75.5 328,-45.5 46,-45.5"/>
<text text-anchor="start" x="53" y="-56.9" font-family="Arial" font-size="14.00" fill="#000000">issent </text>
<text text-anchor="start" x="93.453" y="-56.9" font-family="Arial" font-size="14.00" fill="#666666">[boolean]</text>
<polygon fill="none" stroke="#000000" stroke-width="3" points="44.5,-44.5 44.5,-232.5 329.5,-232.5 329.5,-44.5 44.5,-44.5"/>
</g>
</g>
</svg>
