<?xml version="1.0" encoding="UTF-8" standalone="no"?>
<!DOCTYPE svg PUBLIC "-//W3C//DTD SVG 1.1//EN"
 "http://www.w3.org/Graphics/SVG/1.1/DTD/svg11.dtd">
<!-- Generated by graphviz version 2.40.1 (20161225.0304)
 -->
<!-- Title: public.comn_whatsapp_parmas Pages: 1 -->
<svg width="494pt" height="255pt"
 viewBox="0.00 0.00 494.00 255.00" xmlns="http://www.w3.org/2000/svg" xmlns:xlink="http://www.w3.org/1999/xlink">
<g id="graph0" class="graph" transform="scale(1 1) rotate(0) translate(4 251)">
<title>public.comn_whatsapp_parmas</title>
<polygon fill="#ffffff" stroke="transparent" points="-4,4 -4,-251 490,-251 490,4 -4,4"/>
<!-- public.comn_whatsapp_parmas -->
<g id="node1" class="node">
<title>public.comn_whatsapp_parmas</title>
<polygon fill="#efefef" stroke="transparent" points="46,-165.5 46,-200.5 440,-200.5 440,-165.5 46,-165.5"/>
<polygon fill="none" stroke="#000000" points="46,-165.5 46,-200.5 440,-200.5 440,-165.5 46,-165.5"/>
<text text-anchor="start" x="52.6877" y="-178.3" font-family="Arial Bold" font-size="18.00" fill="#000000">public.comn_whatsapp_parmas</text>
<text text-anchor="start" x="305.7443" y="-178.3" font-family="Arial" font-size="14.00" fill="#000000">    </text>
<text text-anchor="start" x="339.9491" y="-178.3" font-family="Arial" font-size="14.00" fill="#666666">[BASE TABLE]</text>
<polygon fill="none" stroke="#000000" points="46,-135.5 46,-165.5 440,-165.5 440,-135.5 46,-135.5"/>
<text text-anchor="start" x="53" y="-146.9" font-family="Arial" font-size="14.00" fill="#000000">tableid </text>
<text text-anchor="start" x="98.1248" y="-146.9" font-family="Arial" font-size="14.00" fill="#666666">[integer]</text>
<polygon fill="none" stroke="#000000" points="46,-105.5 46,-135.5 440,-135.5 440,-105.5 46,-105.5"/>
<text text-anchor="start" x="53" y="-116.9" font-family="Arial" font-size="14.00" fill="#000000">templateid </text>
<text text-anchor="start" x="121.4586" y="-116.9" font-family="Arial" font-size="14.00" fill="#666666">[integer]</text>
<polygon fill="none" stroke="#000000" points="46,-75.5 46,-105.5 440,-105.5 440,-75.5 46,-75.5"/>
<text text-anchor="start" x="53" y="-86.9" font-family="Arial" font-size="14.00" fill="#000000">tagname </text>
<text text-anchor="start" x="111.3548" y="-86.9" font-family="Arial" font-size="14.00" fill="#666666">[varchar(200)]</text>
<polygon fill="none" stroke="#000000" points="46,-45.5 46,-75.5 440,-75.5 440,-45.5 46,-45.5"/>
<text text-anchor="start" x="53" y="-56.9" font-family="Arial" font-size="14.00" fill="#000000">seqno </text>
<text text-anchor="start" x="95.021" y="-56.9" font-family="Arial" font-size="14.00" fill="#666666">[integer]</text>
<polygon fill="none" stroke="#000000" stroke-width="3" points="44.5,-44.5 44.5,-202.5 441.5,-202.5 441.5,-44.5 44.5,-44.5"/>
</g>
</g>
</svg>
