<?xml version="1.0" encoding="UTF-8" standalone="no"?>
<!DOCTYPE svg PUBLIC "-//W3C//DTD SVG 1.1//EN"
 "http://www.w3.org/Graphics/SVG/1.1/DTD/svg11.dtd">
<!-- Generated by graphviz version 2.40.1 (20161225.0304)
 -->
<!-- Title: public.sale_packingslipdetail Pages: 1 -->
<svg width="468pt" height="1005pt"
 viewBox="0.00 0.00 468.00 1005.00" xmlns="http://www.w3.org/2000/svg" xmlns:xlink="http://www.w3.org/1999/xlink">
<g id="graph0" class="graph" transform="scale(1 1) rotate(0) translate(4 1001)">
<title>public.sale_packingslipdetail</title>
<polygon fill="#ffffff" stroke="transparent" points="-4,4 -4,-1001 464,-1001 464,4 -4,4"/>
<!-- public.sale_packingslipdetail -->
<g id="node1" class="node">
<title>public.sale_packingslipdetail</title>
<polygon fill="#efefef" stroke="transparent" points="46,-915.5 46,-950.5 414,-950.5 414,-915.5 46,-915.5"/>
<polygon fill="none" stroke="#000000" points="46,-915.5 46,-950.5 414,-950.5 414,-915.5 46,-915.5"/>
<text text-anchor="start" x="52.6936" y="-928.3" font-family="Arial Bold" font-size="18.00" fill="#000000">public.sale_packingslipdetail</text>
<text text-anchor="start" x="279.7384" y="-928.3" font-family="Arial" font-size="14.00" fill="#000000">    </text>
<text text-anchor="start" x="313.9432" y="-928.3" font-family="Arial" font-size="14.00" fill="#666666">[BASE TABLE]</text>
<polygon fill="none" stroke="#000000" points="46,-885.5 46,-915.5 414,-915.5 414,-885.5 46,-885.5"/>
<text text-anchor="start" x="53" y="-896.9" font-family="Arial" font-size="14.00" fill="#000000">packingslipdetailid </text>
<text text-anchor="start" x="170.4642" y="-896.9" font-family="Arial" font-size="14.00" fill="#666666">[integer]</text>
<polygon fill="none" stroke="#000000" points="46,-855.5 46,-885.5 414,-885.5 414,-855.5 46,-855.5"/>
<text text-anchor="start" x="53" y="-866.9" font-family="Arial" font-size="14.00" fill="#000000">packingslipid </text>
<text text-anchor="start" x="137.0126" y="-866.9" font-family="Arial" font-size="14.00" fill="#666666">[integer]</text>
<polygon fill="none" stroke="#000000" points="46,-825.5 46,-855.5 414,-855.5 414,-825.5 46,-825.5"/>
<text text-anchor="start" x="53" y="-836.9" font-family="Arial" font-size="14.00" fill="#000000">itemid </text>
<text text-anchor="start" x="94.2202" y="-836.9" font-family="Arial" font-size="14.00" fill="#666666">[integer]</text>
<polygon fill="none" stroke="#000000" points="46,-795.5 46,-825.5 414,-825.5 414,-795.5 46,-795.5"/>
<text text-anchor="start" x="53" y="-806.9" font-family="Arial" font-size="14.00" fill="#000000">deliverynoteqty </text>
<text text-anchor="start" x="151.0238" y="-806.9" font-family="Arial" font-size="14.00" fill="#666666">[numeric(15,3)]</text>
<polygon fill="none" stroke="#000000" points="46,-765.5 46,-795.5 414,-795.5 414,-765.5 46,-765.5"/>
<text text-anchor="start" x="53" y="-776.9" font-family="Arial" font-size="14.00" fill="#000000">boxid </text>
<text text-anchor="start" x="90.345" y="-776.9" font-family="Arial" font-size="14.00" fill="#666666">[integer]</text>
<polygon fill="none" stroke="#000000" points="46,-735.5 46,-765.5 414,-765.5 414,-735.5 46,-735.5"/>
<text text-anchor="start" x="53" y="-746.9" font-family="Arial" font-size="14.00" fill="#000000">qtyperbox </text>
<text text-anchor="start" x="118.3548" y="-746.9" font-family="Arial" font-size="14.00" fill="#666666">[numeric(15,3)]</text>
<polygon fill="none" stroke="#000000" points="46,-705.5 46,-735.5 414,-735.5 414,-705.5 46,-705.5"/>
<text text-anchor="start" x="53" y="-716.9" font-family="Arial" font-size="14.00" fill="#000000">packqty </text>
<text text-anchor="start" x="105.129" y="-716.9" font-family="Arial" font-size="14.00" fill="#666666">[numeric(15,3)]</text>
<polygon fill="none" stroke="#000000" points="46,-675.5 46,-705.5 414,-705.5 414,-675.5 46,-675.5"/>
<text text-anchor="start" x="53" y="-686.9" font-family="Arial" font-size="14.00" fill="#000000">netpackingqty </text>
<text text-anchor="start" x="143.2566" y="-686.9" font-family="Arial" font-size="14.00" fill="#666666">[numeric(15,3)]</text>
<polygon fill="none" stroke="#000000" points="46,-645.5 46,-675.5 414,-675.5 414,-645.5 46,-645.5"/>
<text text-anchor="start" x="53" y="-656.9" font-family="Arial" font-size="14.00" fill="#000000">markno </text>
<text text-anchor="start" x="103.5596" y="-656.9" font-family="Arial" font-size="14.00" fill="#666666">[varchar(50)]</text>
<polygon fill="none" stroke="#000000" points="46,-615.5 46,-645.5 414,-645.5 414,-615.5 46,-615.5"/>
<text text-anchor="start" x="53" y="-626.9" font-family="Arial" font-size="14.00" fill="#000000">materialweightperunit </text>
<text text-anchor="start" x="189.9032" y="-626.9" font-family="Arial" font-size="14.00" fill="#666666">[numeric(15,3)]</text>
<polygon fill="none" stroke="#000000" points="46,-585.5 46,-615.5 414,-615.5 414,-585.5 46,-585.5"/>
<text text-anchor="start" x="53" y="-596.9" font-family="Arial" font-size="14.00" fill="#000000">perboxweight </text>
<text text-anchor="start" x="140.1332" y="-596.9" font-family="Arial" font-size="14.00" fill="#666666">[numeric(15,3)]</text>
<polygon fill="none" stroke="#000000" points="46,-555.5 46,-585.5 414,-585.5 414,-555.5 46,-555.5"/>
<text text-anchor="start" x="53" y="-566.9" font-family="Arial" font-size="14.00" fill="#000000">additionalboxid </text>
<text text-anchor="start" x="150.251" y="-566.9" font-family="Arial" font-size="14.00" fill="#666666">[integer]</text>
<polygon fill="none" stroke="#000000" points="46,-525.5 46,-555.5 414,-555.5 414,-525.5 46,-525.5"/>
<text text-anchor="start" x="53" y="-536.9" font-family="Arial" font-size="14.00" fill="#000000">additionalweight </text>
<text text-anchor="start" x="157.2482" y="-536.9" font-family="Arial" font-size="14.00" fill="#666666">[numeric(15,3)]</text>
<polygon fill="none" stroke="#000000" points="46,-495.5 46,-525.5 414,-525.5 414,-495.5 46,-495.5"/>
<text text-anchor="start" x="53" y="-506.9" font-family="Arial" font-size="14.00" fill="#000000">netmaterialweight </text>
<text text-anchor="start" x="166.5708" y="-506.9" font-family="Arial" font-size="14.00" fill="#666666">[numeric(15,3)]</text>
<polygon fill="none" stroke="#000000" points="46,-465.5 46,-495.5 414,-495.5 414,-465.5 46,-465.5"/>
<text text-anchor="start" x="53" y="-476.9" font-family="Arial" font-size="14.00" fill="#000000">netpackweight </text>
<text text-anchor="start" x="146.3632" y="-476.9" font-family="Arial" font-size="14.00" fill="#666666">[numeric(15,3)]</text>
<polygon fill="none" stroke="#000000" points="46,-435.5 46,-465.5 414,-465.5 414,-435.5 46,-435.5"/>
<text text-anchor="start" x="53" y="-446.9" font-family="Arial" font-size="14.00" fill="#000000">grossweight </text>
<text text-anchor="start" x="131.568" y="-446.9" font-family="Arial" font-size="14.00" fill="#666666">[numeric(15,3)]</text>
<polygon fill="none" stroke="#000000" points="46,-405.5 46,-435.5 414,-435.5 414,-405.5 46,-405.5"/>
<text text-anchor="start" x="53" y="-416.9" font-family="Arial" font-size="14.00" fill="#000000">cbmvalue </text>
<text text-anchor="start" x="116.7882" y="-416.9" font-family="Arial" font-size="14.00" fill="#666666">[numeric(15,3)]</text>
<polygon fill="none" stroke="#000000" points="46,-375.5 46,-405.5 414,-405.5 414,-375.5 46,-375.5"/>
<text text-anchor="start" x="53" y="-386.9" font-family="Arial" font-size="14.00" fill="#000000">remarks </text>
<text text-anchor="start" x="107.4376" y="-386.9" font-family="Arial" font-size="14.00" fill="#666666">[varchar(50)]</text>
<polygon fill="none" stroke="#000000" points="46,-345.5 46,-375.5 414,-375.5 414,-345.5 46,-345.5"/>
<text text-anchor="start" x="53" y="-356.9" font-family="Arial" font-size="14.00" fill="#000000">pertrollyweight </text>
<text text-anchor="start" x="147.115" y="-356.9" font-family="Arial" font-size="14.00" fill="#666666">[numeric(15,3)]</text>
<polygon fill="none" stroke="#000000" points="46,-315.5 46,-345.5 414,-345.5 414,-315.5 46,-315.5"/>
<text text-anchor="start" x="53" y="-326.9" font-family="Arial" font-size="14.00" fill="#000000">trollyno </text>
<text text-anchor="start" x="102.0028" y="-326.9" font-family="Arial" font-size="14.00" fill="#666666">[varchar(50)]</text>
<polygon fill="none" stroke="#000000" points="46,-285.5 46,-315.5 414,-315.5 414,-285.5 46,-285.5"/>
<text text-anchor="start" x="53" y="-296.9" font-family="Arial" font-size="14.00" fill="#000000">netweight </text>
<text text-anchor="start" x="116.798" y="-296.9" font-family="Arial" font-size="14.00" fill="#666666">[numeric(15,3)]</text>
<polygon fill="none" stroke="#000000" points="46,-255.5 46,-285.5 414,-285.5 414,-255.5 46,-255.5"/>
<text text-anchor="start" x="53" y="-266.9" font-family="Arial" font-size="14.00" fill="#000000">sno </text>
<text text-anchor="start" x="79.4558" y="-266.9" font-family="Arial" font-size="14.00" fill="#666666">[integer]</text>
<polygon fill="none" stroke="#000000" points="46,-225.5 46,-255.5 414,-255.5 414,-225.5 46,-225.5"/>
<text text-anchor="start" x="53" y="-236.9" font-family="Arial" font-size="14.00" fill="#000000">remarks1 </text>
<text text-anchor="start" x="115.2202" y="-236.9" font-family="Arial" font-size="14.00" fill="#666666">[varchar(50)]</text>
<polygon fill="none" stroke="#000000" points="46,-195.5 46,-225.5 414,-225.5 414,-195.5 46,-195.5"/>
<text text-anchor="start" x="53" y="-206.9" font-family="Arial" font-size="14.00" fill="#000000">noofouterbox </text>
<text text-anchor="start" x="138.5932" y="-206.9" font-family="Arial" font-size="14.00" fill="#666666">[integer]</text>
<polygon fill="none" stroke="#000000" points="46,-165.5 46,-195.5 414,-195.5 414,-165.5 46,-165.5"/>
<text text-anchor="start" x="53" y="-176.9" font-family="Arial" font-size="14.00" fill="#000000">outer_from </text>
<text text-anchor="start" x="124.5666" y="-176.9" font-family="Arial" font-size="14.00" fill="#666666">[integer]</text>
<polygon fill="none" stroke="#000000" points="46,-135.5 46,-165.5 414,-165.5 414,-135.5 46,-135.5"/>
<text text-anchor="start" x="53" y="-146.9" font-family="Arial" font-size="14.00" fill="#000000">outer_to </text>
<text text-anchor="start" x="108.2454" y="-146.9" font-family="Arial" font-size="14.00" fill="#666666">[integer]</text>
<polygon fill="none" stroke="#000000" points="46,-105.5 46,-135.5 414,-135.5 414,-105.5 46,-105.5"/>
<text text-anchor="start" x="53" y="-116.9" font-family="Arial" font-size="14.00" fill="#000000">noofbales </text>
<text text-anchor="start" x="117.5834" y="-116.9" font-family="Arial" font-size="14.00" fill="#666666">[numeric(15,3)]</text>
<polygon fill="none" stroke="#000000" points="46,-75.5 46,-105.5 414,-105.5 414,-75.5 46,-75.5"/>
<text text-anchor="start" x="53" y="-86.9" font-family="Arial" font-size="14.00" fill="#000000">totalbales </text>
<text text-anchor="start" x="116.798" y="-86.9" font-family="Arial" font-size="14.00" fill="#666666">[numeric(15,3)]</text>
<polygon fill="none" stroke="#000000" points="46,-45.5 46,-75.5 414,-75.5 414,-45.5 46,-45.5"/>
<text text-anchor="start" x="53" y="-56.9" font-family="Arial" font-size="14.00" fill="#000000">totalgrosswt </text>
<text text-anchor="start" x="131.5666" y="-56.9" font-family="Arial" font-size="14.00" fill="#666666">[numeric(15,3)]</text>
<polygon fill="none" stroke="#000000" stroke-width="3" points="44.5,-44.5 44.5,-952.5 415.5,-952.5 415.5,-44.5 44.5,-44.5"/>
</g>
</g>
</svg>
