<?xml version="1.0" encoding="UTF-8" standalone="no"?>
<!DOCTYPE svg PUBLIC "-//W3C//DTD SVG 1.1//EN"
 "http://www.w3.org/Graphics/SVG/1.1/DTD/svg11.dtd">
<!-- Generated by graphviz version 2.40.1 (20161225.0304)
 -->
<!-- Title: public.act_budgetdetail Pages: 1 -->
<svg width="425pt" height="285pt"
 viewBox="0.00 0.00 425.00 285.00" xmlns="http://www.w3.org/2000/svg" xmlns:xlink="http://www.w3.org/1999/xlink">
<g id="graph0" class="graph" transform="scale(1 1) rotate(0) translate(4 281)">
<title>public.act_budgetdetail</title>
<polygon fill="#ffffff" stroke="transparent" points="-4,4 -4,-281 421,-281 421,4 -4,4"/>
<!-- public.act_budgetdetail -->
<g id="node1" class="node">
<title>public.act_budgetdetail</title>
<polygon fill="#efefef" stroke="transparent" points="46.5,-195.5 46.5,-230.5 371.5,-230.5 371.5,-195.5 46.5,-195.5"/>
<polygon fill="none" stroke="#000000" points="46.5,-195.5 46.5,-230.5 371.5,-230.5 371.5,-195.5 46.5,-195.5"/>
<text text-anchor="start" x="53.1829" y="-208.3" font-family="Arial Bold" font-size="18.00" fill="#000000">public.act_budgetdetail</text>
<text text-anchor="start" x="237.2491" y="-208.3" font-family="Arial" font-size="14.00" fill="#000000">    </text>
<text text-anchor="start" x="271.4539" y="-208.3" font-family="Arial" font-size="14.00" fill="#666666">[BASE TABLE]</text>
<polygon fill="none" stroke="#000000" points="46.5,-165.5 46.5,-195.5 371.5,-195.5 371.5,-165.5 46.5,-165.5"/>
<text text-anchor="start" x="53.5" y="-176.9" font-family="Arial" font-size="14.00" fill="#000000">detailid </text>
<text text-anchor="start" x="101.7314" y="-176.9" font-family="Arial" font-size="14.00" fill="#666666">[integer]</text>
<polygon fill="none" stroke="#000000" points="46.5,-135.5 46.5,-165.5 371.5,-165.5 371.5,-135.5 46.5,-135.5"/>
<text text-anchor="start" x="53.5" y="-146.9" font-family="Arial" font-size="14.00" fill="#000000">bfmid </text>
<text text-anchor="start" x="91.6136" y="-146.9" font-family="Arial" font-size="14.00" fill="#666666">[integer]</text>
<polygon fill="none" stroke="#000000" points="46.5,-105.5 46.5,-135.5 371.5,-135.5 371.5,-105.5 46.5,-105.5"/>
<text text-anchor="start" x="53.5" y="-116.9" font-family="Arial" font-size="14.00" fill="#000000">bfdid </text>
<text text-anchor="start" x="87.7356" y="-116.9" font-family="Arial" font-size="14.00" fill="#666666">[integer]</text>
<polygon fill="none" stroke="#000000" points="46.5,-75.5 46.5,-105.5 371.5,-105.5 371.5,-75.5 46.5,-75.5"/>
<text text-anchor="start" x="53.5" y="-86.9" font-family="Arial" font-size="14.00" fill="#000000">narration </text>
<text text-anchor="start" x="112.622" y="-86.9" font-family="Arial" font-size="14.00" fill="#666666">[varchar(50)]</text>
<polygon fill="none" stroke="#000000" points="46.5,-45.5 46.5,-75.5 371.5,-75.5 371.5,-45.5 46.5,-45.5"/>
<text text-anchor="start" x="53.5" y="-56.9" font-family="Arial" font-size="14.00" fill="#000000">amount </text>
<text text-anchor="start" x="104.0722" y="-56.9" font-family="Arial" font-size="14.00" fill="#666666">[numeric(20,5)]</text>
<polygon fill="none" stroke="#000000" stroke-width="3" points="44.5,-44.5 44.5,-232.5 372.5,-232.5 372.5,-44.5 44.5,-44.5"/>
</g>
</g>
</svg>
