<?xml version="1.0" encoding="UTF-8" standalone="no"?>
<!DOCTYPE svg PUBLIC "-//W3C//DTD SVG 1.1//EN"
 "http://www.w3.org/Graphics/SVG/1.1/DTD/svg11.dtd">
<!-- Generated by graphviz version 2.40.1 (20161225.0304)
 -->
<!-- Title: public.erpuserstore_ledger Pages: 1 -->
<svg width="454pt" height="825pt"
 viewBox="0.00 0.00 454.00 825.00" xmlns="http://www.w3.org/2000/svg" xmlns:xlink="http://www.w3.org/1999/xlink">
<g id="graph0" class="graph" transform="scale(1 1) rotate(0) translate(4 821)">
<title>public.erpuserstore_ledger</title>
<polygon fill="#ffffff" stroke="transparent" points="-4,4 -4,-821 450,-821 450,4 -4,4"/>
<!-- public.erpuserstore_ledger -->
<g id="node1" class="node">
<title>public.erpuserstore_ledger</title>
<polygon fill="#efefef" stroke="transparent" points="46,-735.5 46,-770.5 400,-770.5 400,-735.5 46,-735.5"/>
<polygon fill="none" stroke="#000000" points="46,-735.5 46,-770.5 400,-770.5 400,-735.5 46,-735.5"/>
<text text-anchor="start" x="52.6947" y="-748.3" font-family="Arial Bold" font-size="18.00" fill="#000000">public.erpuserstore_ledger</text>
<text text-anchor="start" x="265.7373" y="-748.3" font-family="Arial" font-size="14.00" fill="#000000">    </text>
<text text-anchor="start" x="299.9421" y="-748.3" font-family="Arial" font-size="14.00" fill="#666666">[BASE TABLE]</text>
<polygon fill="none" stroke="#000000" points="46,-705.5 46,-735.5 400,-735.5 400,-705.5 46,-705.5"/>
<text text-anchor="start" x="53" y="-716.9" font-family="Arial" font-size="14.00" fill="#000000">rowno </text>
<text text-anchor="start" x="95.0056" y="-716.9" font-family="Arial" font-size="14.00" fill="#666666">[bigint]</text>
<polygon fill="none" stroke="#000000" points="46,-675.5 46,-705.5 400,-705.5 400,-675.5 46,-675.5"/>
<text text-anchor="start" x="53" y="-686.9" font-family="Arial" font-size="14.00" fill="#000000">tdate </text>
<text text-anchor="start" x="88.0196" y="-686.9" font-family="Arial" font-size="14.00" fill="#666666">[timestamp without time zone]</text>
<polygon fill="none" stroke="#000000" points="46,-645.5 46,-675.5 400,-675.5 400,-645.5 46,-645.5"/>
<text text-anchor="start" x="53" y="-656.9" font-family="Arial" font-size="14.00" fill="#000000">billno </text>
<text text-anchor="start" x="89.5582" y="-656.9" font-family="Arial" font-size="14.00" fill="#666666">[text]</text>
<polygon fill="none" stroke="#000000" points="46,-615.5 46,-645.5 400,-645.5 400,-615.5 46,-615.5"/>
<text text-anchor="start" x="53" y="-626.9" font-family="Arial" font-size="14.00" fill="#000000">partyname </text>
<text text-anchor="start" x="123.0154" y="-626.9" font-family="Arial" font-size="14.00" fill="#666666">[text]</text>
<polygon fill="none" stroke="#000000" points="46,-585.5 46,-615.5 400,-615.5 400,-585.5 46,-585.5"/>
<text text-anchor="start" x="53" y="-596.9" font-family="Arial" font-size="14.00" fill="#000000">typeid </text>
<text text-anchor="start" x="94.2356" y="-596.9" font-family="Arial" font-size="14.00" fill="#666666">[integer]</text>
<polygon fill="none" stroke="#000000" points="46,-555.5 46,-585.5 400,-585.5 400,-555.5 46,-555.5"/>
<text text-anchor="start" x="53" y="-566.9" font-family="Arial" font-size="14.00" fill="#000000">transactiontype </text>
<text text-anchor="start" x="151.8078" y="-566.9" font-family="Arial" font-size="14.00" fill="#666666">[text]</text>
<polygon fill="none" stroke="#000000" points="46,-525.5 46,-555.5 400,-555.5 400,-525.5 46,-525.5"/>
<text text-anchor="start" x="53" y="-536.9" font-family="Arial" font-size="14.00" fill="#000000">itemid </text>
<text text-anchor="start" x="94.2202" y="-536.9" font-family="Arial" font-size="14.00" fill="#666666">[integer]</text>
<polygon fill="none" stroke="#000000" points="46,-495.5 46,-525.5 400,-525.5 400,-495.5 46,-495.5"/>
<text text-anchor="start" x="53" y="-506.9" font-family="Arial" font-size="14.00" fill="#000000">itemname </text>
<text text-anchor="start" x="118.3394" y="-506.9" font-family="Arial" font-size="14.00" fill="#666666">[varchar(200)]</text>
<polygon fill="none" stroke="#000000" points="46,-465.5 46,-495.5 400,-495.5 400,-465.5 46,-465.5"/>
<text text-anchor="start" x="53" y="-476.9" font-family="Arial" font-size="14.00" fill="#000000">itemcode </text>
<text text-anchor="start" x="113.6788" y="-476.9" font-family="Arial" font-size="14.00" fill="#666666">[varchar(50)]</text>
<polygon fill="none" stroke="#000000" points="46,-435.5 46,-465.5 400,-465.5 400,-435.5 46,-435.5"/>
<text text-anchor="start" x="53" y="-446.9" font-family="Arial" font-size="14.00" fill="#000000">remark </text>
<text text-anchor="start" x="100.4376" y="-446.9" font-family="Arial" font-size="14.00" fill="#666666">[varchar(1000)]</text>
<polygon fill="none" stroke="#000000" points="46,-405.5 46,-435.5 400,-435.5 400,-405.5 46,-405.5"/>
<text text-anchor="start" x="53" y="-416.9" font-family="Arial" font-size="14.00" fill="#000000">stageorstore </text>
<text text-anchor="start" x="134.6886" y="-416.9" font-family="Arial" font-size="14.00" fill="#666666">[varchar(50)]</text>
<polygon fill="none" stroke="#000000" points="46,-375.5 46,-405.5 400,-405.5 400,-375.5 46,-375.5"/>
<text text-anchor="start" x="53" y="-386.9" font-family="Arial" font-size="14.00" fill="#000000">buname </text>
<text text-anchor="start" x="107.4642" y="-386.9" font-family="Arial" font-size="14.00" fill="#666666">[varchar(10)]</text>
<polygon fill="none" stroke="#000000" points="46,-345.5 46,-375.5 400,-375.5 400,-345.5 46,-345.5"/>
<text text-anchor="start" x="53" y="-356.9" font-family="Arial" font-size="14.00" fill="#000000">altuname </text>
<text text-anchor="start" x="114.4614" y="-356.9" font-family="Arial" font-size="14.00" fill="#666666">[varchar(10)]</text>
<polygon fill="none" stroke="#000000" points="46,-315.5 46,-345.5 400,-345.5 400,-315.5 46,-315.5"/>
<text text-anchor="start" x="53" y="-326.9" font-family="Arial" font-size="14.00" fill="#000000">qty </text>
<text text-anchor="start" x="75.5638" y="-326.9" font-family="Arial" font-size="14.00" fill="#666666">[numeric]</text>
<polygon fill="none" stroke="#000000" points="46,-285.5 46,-315.5 400,-315.5 400,-285.5 46,-285.5"/>
<text text-anchor="start" x="53" y="-296.9" font-family="Arial" font-size="14.00" fill="#000000">altqty </text>
<text text-anchor="start" x="90.3436" y="-296.9" font-family="Arial" font-size="14.00" fill="#666666">[numeric]</text>
<polygon fill="none" stroke="#000000" points="46,-255.5 46,-285.5 400,-285.5 400,-255.5 46,-255.5"/>
<text text-anchor="start" x="53" y="-266.9" font-family="Arial" font-size="14.00" fill="#000000">inqty </text>
<text text-anchor="start" x="86.453" y="-266.9" font-family="Arial" font-size="14.00" fill="#666666">[numeric]</text>
<polygon fill="none" stroke="#000000" points="46,-225.5 46,-255.5 400,-255.5 400,-225.5 46,-225.5"/>
<text text-anchor="start" x="53" y="-236.9" font-family="Arial" font-size="14.00" fill="#000000">inaltqty </text>
<text text-anchor="start" x="101.2328" y="-236.9" font-family="Arial" font-size="14.00" fill="#666666">[numeric]</text>
<polygon fill="none" stroke="#000000" points="46,-195.5 46,-225.5 400,-225.5 400,-195.5 46,-195.5"/>
<text text-anchor="start" x="53" y="-206.9" font-family="Arial" font-size="14.00" fill="#000000">outqty </text>
<text text-anchor="start" x="95.0196" y="-206.9" font-family="Arial" font-size="14.00" fill="#666666">[numeric]</text>
<polygon fill="none" stroke="#000000" points="46,-165.5 46,-195.5 400,-195.5 400,-165.5 46,-165.5"/>
<text text-anchor="start" x="53" y="-176.9" font-family="Arial" font-size="14.00" fill="#000000">outaltqty </text>
<text text-anchor="start" x="109.7994" y="-176.9" font-family="Arial" font-size="14.00" fill="#666666">[numeric]</text>
<polygon fill="none" stroke="#000000" points="46,-135.5 46,-165.5 400,-165.5 400,-135.5 46,-135.5"/>
<text text-anchor="start" x="53" y="-146.9" font-family="Arial" font-size="14.00" fill="#000000">costprice </text>
<text text-anchor="start" x="112.8962" y="-146.9" font-family="Arial" font-size="14.00" fill="#666666">[numeric]</text>
<polygon fill="none" stroke="#000000" points="46,-105.5 46,-135.5 400,-135.5 400,-105.5 46,-105.5"/>
<text text-anchor="start" x="53" y="-116.9" font-family="Arial" font-size="14.00" fill="#000000">totalcostprice </text>
<text text-anchor="start" x="139.3492" y="-116.9" font-family="Arial" font-size="14.00" fill="#666666">[numeric]</text>
<polygon fill="none" stroke="#000000" points="46,-75.5 46,-105.5 400,-105.5 400,-75.5 46,-75.5"/>
<text text-anchor="start" x="53" y="-86.9" font-family="Arial" font-size="14.00" fill="#000000">sirate </text>
<text text-anchor="start" x="91.1136" y="-86.9" font-family="Arial" font-size="14.00" fill="#666666">[numeric]</text>
<polygon fill="none" stroke="#000000" points="46,-45.5 46,-75.5 400,-75.5 400,-45.5 46,-45.5"/>
<text text-anchor="start" x="53" y="-56.9" font-family="Arial" font-size="14.00" fill="#000000">sivalue </text>
<text text-anchor="start" x="100.4516" y="-56.9" font-family="Arial" font-size="14.00" fill="#666666">[numeric]</text>
<polygon fill="none" stroke="#000000" stroke-width="3" points="44.5,-44.5 44.5,-772.5 401.5,-772.5 401.5,-44.5 44.5,-44.5"/>
</g>
</g>
</svg>
