<?xml version="1.0" encoding="UTF-8" standalone="no"?>
<!DOCTYPE svg PUBLIC "-//W3C//DTD SVG 1.1//EN"
 "http://www.w3.org/Graphics/SVG/1.1/DTD/svg11.dtd">
<!-- Generated by graphviz version 2.40.1 (20161225.0304)
 -->
<!-- Title: public.fa_assetlocationtransfer_fielddetail Pages: 1 -->
<svg width="570pt" height="285pt"
 viewBox="0.00 0.00 570.00 285.00" xmlns="http://www.w3.org/2000/svg" xmlns:xlink="http://www.w3.org/1999/xlink">
<g id="graph0" class="graph" transform="scale(1 1) rotate(0) translate(4 281)">
<title>public.fa_assetlocationtransfer_fielddetail</title>
<polygon fill="#ffffff" stroke="transparent" points="-4,4 -4,-281 566,-281 566,4 -4,4"/>
<!-- public.fa_assetlocationtransfer_fielddetail -->
<g id="node1" class="node">
<title>public.fa_assetlocationtransfer_fielddetail</title>
<polygon fill="#efefef" stroke="transparent" points="46,-195.5 46,-230.5 516,-230.5 516,-195.5 46,-195.5"/>
<polygon fill="none" stroke="#000000" points="46,-195.5 46,-230.5 516,-230.5 516,-195.5 46,-195.5"/>
<text text-anchor="start" x="52.6762" y="-208.3" font-family="Arial Bold" font-size="18.00" fill="#000000">public.fa_assetlocationtransfer_fielddetail</text>
<text text-anchor="start" x="381.7558" y="-208.3" font-family="Arial" font-size="14.00" fill="#000000">    </text>
<text text-anchor="start" x="415.9606" y="-208.3" font-family="Arial" font-size="14.00" fill="#666666">[BASE TABLE]</text>
<polygon fill="none" stroke="#000000" points="46,-165.5 46,-195.5 516,-195.5 516,-165.5 46,-165.5"/>
<text text-anchor="start" x="53" y="-176.9" font-family="Arial" font-size="14.00" fill="#000000">altfielddetailid </text>
<text text-anchor="start" x="141.6802" y="-176.9" font-family="Arial" font-size="14.00" fill="#666666">[integer]</text>
<polygon fill="none" stroke="#000000" points="46,-135.5 46,-165.5 516,-165.5 516,-135.5 46,-135.5"/>
<text text-anchor="start" x="53" y="-146.9" font-family="Arial" font-size="14.00" fill="#000000">altid </text>
<text text-anchor="start" x="82.5596" y="-146.9" font-family="Arial" font-size="14.00" fill="#666666">[integer]</text>
<polygon fill="none" stroke="#000000" points="46,-105.5 46,-135.5 516,-135.5 516,-105.5 46,-105.5"/>
<text text-anchor="start" x="53" y="-116.9" font-family="Arial" font-size="14.00" fill="#000000">fieldid </text>
<text text-anchor="start" x="93.4488" y="-116.9" font-family="Arial" font-size="14.00" fill="#666666">[integer]</text>
<polygon fill="none" stroke="#000000" points="46,-75.5 46,-105.5 516,-105.5 516,-75.5 46,-75.5"/>
<text text-anchor="start" x="53" y="-86.9" font-family="Arial" font-size="14.00" fill="#000000">fieldvalue </text>
<text text-anchor="start" x="116.014" y="-86.9" font-family="Arial" font-size="14.00" fill="#666666">[text]</text>
<polygon fill="none" stroke="#000000" points="46,-45.5 46,-75.5 516,-75.5 516,-45.5 46,-45.5"/>
<text text-anchor="start" x="53" y="-56.9" font-family="Arial" font-size="14.00" fill="#000000">fieldcaption </text>
<text text-anchor="start" x="127.6872" y="-56.9" font-family="Arial" font-size="14.00" fill="#666666">[text]</text>
<polygon fill="none" stroke="#000000" stroke-width="3" points="44.5,-44.5 44.5,-232.5 517.5,-232.5 517.5,-44.5 44.5,-44.5"/>
</g>
</g>
</svg>
