<?xml version="1.0" encoding="UTF-8" standalone="no"?>
<!DOCTYPE svg PUBLIC "-//W3C//DTD SVG 1.1//EN"
 "http://www.w3.org/Graphics/SVG/1.1/DTD/svg11.dtd">
<!-- Generated by graphviz version 2.40.1 (20161225.0304)
 -->
<!-- Title: public.pur_purchaseinvoicedetail Pages: 1 -->
<svg width="502pt" height="2805pt"
 viewBox="0.00 0.00 502.00 2805.00" xmlns="http://www.w3.org/2000/svg" xmlns:xlink="http://www.w3.org/1999/xlink">
<g id="graph0" class="graph" transform="scale(1 1) rotate(0) translate(4 2801)">
<title>public.pur_purchaseinvoicedetail</title>
<polygon fill="#ffffff" stroke="transparent" points="-4,4 -4,-2801 498,-2801 498,4 -4,4"/>
<!-- public.pur_purchaseinvoicedetail -->
<g id="node1" class="node">
<title>public.pur_purchaseinvoicedetail</title>
<polygon fill="#efefef" stroke="transparent" points="46,-2715.5 46,-2750.5 448,-2750.5 448,-2715.5 46,-2715.5"/>
<polygon fill="none" stroke="#000000" points="46,-2715.5 46,-2750.5 448,-2750.5 448,-2715.5 46,-2715.5"/>
<text text-anchor="start" x="52.6863" y="-2728.3" font-family="Arial Bold" font-size="18.00" fill="#000000">public.pur_purchaseinvoicedetail</text>
<text text-anchor="start" x="313.7457" y="-2728.3" font-family="Arial" font-size="14.00" fill="#000000">    </text>
<text text-anchor="start" x="347.9505" y="-2728.3" font-family="Arial" font-size="14.00" fill="#666666">[BASE TABLE]</text>
<polygon fill="none" stroke="#000000" points="46,-2685.5 46,-2715.5 448,-2715.5 448,-2685.5 46,-2685.5"/>
<text text-anchor="start" x="53" y="-2696.9" font-family="Arial" font-size="14.00" fill="#000000">invoicedetailid </text>
<text text-anchor="start" x="144.7924" y="-2696.9" font-family="Arial" font-size="14.00" fill="#666666">[integer]</text>
<polygon fill="none" stroke="#000000" points="46,-2655.5 46,-2685.5 448,-2685.5 448,-2655.5 46,-2655.5"/>
<text text-anchor="start" x="53" y="-2666.9" font-family="Arial" font-size="14.00" fill="#000000">invoiceid </text>
<text text-anchor="start" x="111.3408" y="-2666.9" font-family="Arial" font-size="14.00" fill="#666666">[integer]</text>
<polygon fill="none" stroke="#000000" points="46,-2625.5 46,-2655.5 448,-2655.5 448,-2625.5 46,-2625.5"/>
<text text-anchor="start" x="53" y="-2636.9" font-family="Arial" font-size="14.00" fill="#000000">poid </text>
<text text-anchor="start" x="83.345" y="-2636.9" font-family="Arial" font-size="14.00" fill="#666666">[integer]</text>
<polygon fill="none" stroke="#000000" points="46,-2595.5 46,-2625.5 448,-2625.5 448,-2595.5 46,-2595.5"/>
<text text-anchor="start" x="53" y="-2606.9" font-family="Arial" font-size="14.00" fill="#000000">podetailid </text>
<text text-anchor="start" x="116.7966" y="-2606.9" font-family="Arial" font-size="14.00" fill="#666666">[integer]</text>
<polygon fill="none" stroke="#000000" points="46,-2565.5 46,-2595.5 448,-2595.5 448,-2565.5 46,-2565.5"/>
<text text-anchor="start" x="53" y="-2576.9" font-family="Arial" font-size="14.00" fill="#000000">itemid </text>
<text text-anchor="start" x="94.2202" y="-2576.9" font-family="Arial" font-size="14.00" fill="#666666">[integer]</text>
<polygon fill="none" stroke="#000000" points="46,-2535.5 46,-2565.5 448,-2565.5 448,-2535.5 46,-2535.5"/>
<text text-anchor="start" x="53" y="-2546.9" font-family="Arial" font-size="14.00" fill="#000000">rate </text>
<text text-anchor="start" x="81.007" y="-2546.9" font-family="Arial" font-size="14.00" fill="#666666">[numeric(17,5)]</text>
<polygon fill="none" stroke="#000000" points="46,-2505.5 46,-2535.5 448,-2535.5 448,-2505.5 46,-2505.5"/>
<text text-anchor="start" x="53" y="-2516.9" font-family="Arial" font-size="14.00" fill="#000000">discount </text>
<text text-anchor="start" x="109.0182" y="-2516.9" font-family="Arial" font-size="14.00" fill="#666666">[numeric(12,2)]</text>
<polygon fill="none" stroke="#000000" points="46,-2475.5 46,-2505.5 448,-2505.5 448,-2475.5 46,-2475.5"/>
<text text-anchor="start" x="53" y="-2486.9" font-family="Arial" font-size="14.00" fill="#000000">baseqty </text>
<text text-anchor="start" x="105.9116" y="-2486.9" font-family="Arial" font-size="14.00" fill="#666666">[numeric(15,5)]</text>
<polygon fill="none" stroke="#000000" points="46,-2445.5 46,-2475.5 448,-2475.5 448,-2445.5 46,-2445.5"/>
<text text-anchor="start" x="53" y="-2456.9" font-family="Arial" font-size="14.00" fill="#000000">altqty </text>
<text text-anchor="start" x="90.3436" y="-2456.9" font-family="Arial" font-size="14.00" fill="#666666">[numeric(15,5)]</text>
<polygon fill="none" stroke="#000000" points="46,-2415.5 46,-2445.5 448,-2445.5 448,-2415.5 46,-2415.5"/>
<text text-anchor="start" x="53" y="-2426.9" font-family="Arial" font-size="14.00" fill="#000000">amount </text>
<text text-anchor="start" x="103.5722" y="-2426.9" font-family="Arial" font-size="14.00" fill="#666666">[numeric(17,5)]</text>
<polygon fill="none" stroke="#000000" points="46,-2385.5 46,-2415.5 448,-2415.5 448,-2385.5 46,-2385.5"/>
<text text-anchor="start" x="53" y="-2396.9" font-family="Arial" font-size="14.00" fill="#000000">mfginvoiceno </text>
<text text-anchor="start" x="139.3506" y="-2396.9" font-family="Arial" font-size="14.00" fill="#666666">[varchar(50)]</text>
<polygon fill="none" stroke="#000000" points="46,-2355.5 46,-2385.5 448,-2385.5 448,-2355.5 46,-2355.5"/>
<text text-anchor="start" x="53" y="-2366.9" font-family="Arial" font-size="14.00" fill="#000000">mfginvoicedate </text>
<text text-anchor="start" x="151.0238" y="-2366.9" font-family="Arial" font-size="14.00" fill="#666666">[date]</text>
<polygon fill="none" stroke="#000000" points="46,-2325.5 46,-2355.5 448,-2355.5 448,-2325.5 46,-2325.5"/>
<text text-anchor="start" x="53" y="-2336.9" font-family="Arial" font-size="14.00" fill="#000000">cvdorexcise </text>
<text text-anchor="start" x="130.7882" y="-2336.9" font-family="Arial" font-size="14.00" fill="#666666">[numeric(17,5)]</text>
<polygon fill="none" stroke="#000000" points="46,-2295.5 46,-2325.5 448,-2325.5 448,-2295.5 46,-2295.5"/>
<text text-anchor="start" x="53" y="-2306.9" font-family="Arial" font-size="14.00" fill="#000000">edcessoncvd </text>
<text text-anchor="start" x="138.5862" y="-2306.9" font-family="Arial" font-size="14.00" fill="#666666">[numeric(17,5)]</text>
<polygon fill="none" stroke="#000000" points="46,-2265.5 46,-2295.5 448,-2295.5 448,-2265.5 46,-2265.5"/>
<text text-anchor="start" x="53" y="-2276.9" font-family="Arial" font-size="14.00" fill="#000000">hedcessoncvd </text>
<text text-anchor="start" x="146.3688" y="-2276.9" font-family="Arial" font-size="14.00" fill="#666666">[numeric(17,5)]</text>
<polygon fill="none" stroke="#000000" points="46,-2235.5 46,-2265.5 448,-2265.5 448,-2235.5 46,-2235.5"/>
<text text-anchor="start" x="53" y="-2246.9" font-family="Arial" font-size="14.00" fill="#000000">adc </text>
<text text-anchor="start" x="79.4558" y="-2246.9" font-family="Arial" font-size="14.00" fill="#666666">[numeric(17,5)]</text>
<polygon fill="none" stroke="#000000" points="46,-2205.5 46,-2235.5 448,-2235.5 448,-2205.5 46,-2205.5"/>
<text text-anchor="start" x="53" y="-2216.9" font-family="Arial" font-size="14.00" fill="#000000">customduty </text>
<text text-anchor="start" x="128.4628" y="-2216.9" font-family="Arial" font-size="14.00" fill="#666666">[numeric(17,5)]</text>
<polygon fill="none" stroke="#000000" points="46,-2175.5 46,-2205.5 448,-2205.5 448,-2175.5 46,-2175.5"/>
<text text-anchor="start" x="53" y="-2186.9" font-family="Arial" font-size="14.00" fill="#000000">dutyperunit </text>
<text text-anchor="start" x="126.1346" y="-2186.9" font-family="Arial" font-size="14.00" fill="#666666">[numeric(17,5)]</text>
<polygon fill="none" stroke="#000000" points="46,-2145.5 46,-2175.5 448,-2175.5 448,-2145.5 46,-2145.5"/>
<text text-anchor="start" x="53" y="-2156.9" font-family="Arial" font-size="14.00" fill="#000000">purchasedamount </text>
<text text-anchor="start" x="168.9284" y="-2156.9" font-family="Arial" font-size="14.00" fill="#666666">[numeric(17,5)]</text>
<polygon fill="none" stroke="#000000" points="46,-2115.5 46,-2145.5 448,-2145.5 448,-2115.5 46,-2115.5"/>
<text text-anchor="start" x="53" y="-2126.9" font-family="Arial" font-size="14.00" fill="#000000">cstrate </text>
<text text-anchor="start" x="98.8976" y="-2126.9" font-family="Arial" font-size="14.00" fill="#666666">[numeric(17,5)]</text>
<polygon fill="none" stroke="#000000" points="46,-2085.5 46,-2115.5 448,-2115.5 448,-2085.5 46,-2085.5"/>
<text text-anchor="start" x="53" y="-2096.9" font-family="Arial" font-size="14.00" fill="#000000">grossamount </text>
<text text-anchor="start" x="137.798" y="-2096.9" font-family="Arial" font-size="14.00" fill="#666666">[numeric(17,5)]</text>
<polygon fill="none" stroke="#000000" points="46,-2055.5 46,-2085.5 448,-2085.5 448,-2055.5 46,-2055.5"/>
<text text-anchor="start" x="53" y="-2066.9" font-family="Arial" font-size="14.00" fill="#000000">discamt </text>
<text text-anchor="start" x="105.1136" y="-2066.9" font-family="Arial" font-size="14.00" fill="#666666">[numeric(17,5)]</text>
<polygon fill="none" stroke="#000000" points="46,-2025.5 46,-2055.5 448,-2055.5 448,-2025.5 46,-2025.5"/>
<text text-anchor="start" x="53" y="-2036.9" font-family="Arial" font-size="14.00" fill="#000000">exportrate </text>
<text text-anchor="start" x="119.906" y="-2036.9" font-family="Arial" font-size="14.00" fill="#666666">[numeric(17,5)]</text>
<polygon fill="none" stroke="#000000" points="46,-1995.5 46,-2025.5 448,-2025.5 448,-1995.5 46,-1995.5"/>
<text text-anchor="start" x="53" y="-2006.9" font-family="Arial" font-size="14.00" fill="#000000">exportgrossamount </text>
<text text-anchor="start" x="176.697" y="-2006.9" font-family="Arial" font-size="14.00" fill="#666666">[numeric(17,5)]</text>
<polygon fill="none" stroke="#000000" points="46,-1965.5 46,-1995.5 448,-1995.5 448,-1965.5 46,-1965.5"/>
<text text-anchor="start" x="53" y="-1976.9" font-family="Arial" font-size="14.00" fill="#000000">exportdiscamt </text>
<text text-anchor="start" x="144.0126" y="-1976.9" font-family="Arial" font-size="14.00" fill="#666666">[numeric(17,5)]</text>
<polygon fill="none" stroke="#000000" points="46,-1935.5 46,-1965.5 448,-1965.5 448,-1935.5 46,-1935.5"/>
<text text-anchor="start" x="53" y="-1946.9" font-family="Arial" font-size="14.00" fill="#000000">exportamount </text>
<text text-anchor="start" x="142.4712" y="-1946.9" font-family="Arial" font-size="14.00" fill="#666666">[numeric(17,5)]</text>
<polygon fill="none" stroke="#000000" points="46,-1905.5 46,-1935.5 448,-1935.5 448,-1905.5 46,-1905.5"/>
<text text-anchor="start" x="53" y="-1916.9" font-family="Arial" font-size="14.00" fill="#000000">vatrate </text>
<text text-anchor="start" x="99.6802" y="-1916.9" font-family="Arial" font-size="14.00" fill="#666666">[numeric(17,5)]</text>
<polygon fill="none" stroke="#000000" points="46,-1875.5 46,-1905.5 448,-1905.5 448,-1875.5 46,-1875.5"/>
<text text-anchor="start" x="53" y="-1886.9" font-family="Arial" font-size="14.00" fill="#000000">cstamount </text>
<text text-anchor="start" x="121.4628" y="-1886.9" font-family="Arial" font-size="14.00" fill="#666666">[numeric(17,5)]</text>
<polygon fill="none" stroke="#000000" points="46,-1845.5 46,-1875.5 448,-1875.5 448,-1845.5 46,-1845.5"/>
<text text-anchor="start" x="53" y="-1856.9" font-family="Arial" font-size="14.00" fill="#000000">vatcstasseablevalue </text>
<text text-anchor="start" x="182.9284" y="-1856.9" font-family="Arial" font-size="14.00" fill="#666666">[numeric(17,5)]</text>
<polygon fill="none" stroke="#000000" points="46,-1815.5 46,-1845.5 448,-1845.5 448,-1815.5 46,-1815.5"/>
<text text-anchor="start" x="53" y="-1826.9" font-family="Arial" font-size="14.00" fill="#000000">excisableamount </text>
<text text-anchor="start" x="161.9158" y="-1826.9" font-family="Arial" font-size="14.00" fill="#666666">[numeric(17,5)]</text>
<polygon fill="none" stroke="#000000" points="46,-1785.5 46,-1815.5 448,-1815.5 448,-1785.5 46,-1785.5"/>
<text text-anchor="start" x="53" y="-1796.9" font-family="Arial" font-size="14.00" fill="#000000">cessoncustom </text>
<text text-anchor="start" x="146.3548" y="-1796.9" font-family="Arial" font-size="14.00" fill="#666666">[numeric(17,5)]</text>
<polygon fill="none" stroke="#000000" points="46,-1755.5 46,-1785.5 448,-1785.5 448,-1755.5 46,-1755.5"/>
<text text-anchor="start" x="53" y="-1766.9" font-family="Arial" font-size="14.00" fill="#000000">exportpurchasedamount </text>
<text text-anchor="start" x="207.8274" y="-1766.9" font-family="Arial" font-size="14.00" fill="#666666">[numeric(17,5)]</text>
<polygon fill="none" stroke="#000000" points="46,-1725.5 46,-1755.5 448,-1755.5 448,-1725.5 46,-1725.5"/>
<text text-anchor="start" x="53" y="-1736.9" font-family="Arial" font-size="14.00" fill="#000000">isaltrate </text>
<text text-anchor="start" x="105.8934" y="-1736.9" font-family="Arial" font-size="14.00" fill="#666666">[smallint]</text>
<polygon fill="none" stroke="#000000" points="46,-1695.5 46,-1725.5 448,-1725.5 448,-1695.5 46,-1695.5"/>
<text text-anchor="start" x="53" y="-1706.9" font-family="Arial" font-size="14.00" fill="#000000">vatamount </text>
<text text-anchor="start" x="122.2454" y="-1706.9" font-family="Arial" font-size="14.00" fill="#666666">[numeric(17,5)]</text>
<polygon fill="none" stroke="#000000" points="46,-1665.5 46,-1695.5 448,-1695.5 448,-1665.5 46,-1665.5"/>
<text text-anchor="start" x="53" y="-1676.9" font-family="Arial" font-size="14.00" fill="#000000">exciseamount </text>
<text text-anchor="start" x="143.244" y="-1676.9" font-family="Arial" font-size="14.00" fill="#666666">[numeric(17,5)]</text>
<polygon fill="none" stroke="#000000" points="46,-1635.5 46,-1665.5 448,-1665.5 448,-1635.5 46,-1635.5"/>
<text text-anchor="start" x="53" y="-1646.9" font-family="Arial" font-size="14.00" fill="#000000">landedrate </text>
<text text-anchor="start" x="123.0266" y="-1646.9" font-family="Arial" font-size="14.00" fill="#666666">[numeric(17,5)]</text>
<polygon fill="none" stroke="#000000" points="46,-1605.5 46,-1635.5 448,-1635.5 448,-1605.5 46,-1605.5"/>
<text text-anchor="start" x="53" y="-1616.9" font-family="Arial" font-size="14.00" fill="#000000">challanid </text>
<text text-anchor="start" x="112.1234" y="-1616.9" font-family="Arial" font-size="14.00" fill="#666666">[integer]</text>
<polygon fill="none" stroke="#000000" points="46,-1575.5 46,-1605.5 448,-1605.5 448,-1575.5 46,-1575.5"/>
<text text-anchor="start" x="53" y="-1586.9" font-family="Arial" font-size="14.00" fill="#000000">challandetailid </text>
<text text-anchor="start" x="145.575" y="-1586.9" font-family="Arial" font-size="14.00" fill="#666666">[integer]</text>
<polygon fill="none" stroke="#000000" points="46,-1545.5 46,-1575.5 448,-1575.5 448,-1545.5 46,-1545.5"/>
<text text-anchor="start" x="53" y="-1556.9" font-family="Arial" font-size="14.00" fill="#000000">createadjustmentvoucher </text>
<text text-anchor="start" x="214.042" y="-1556.9" font-family="Arial" font-size="14.00" fill="#666666">[boolean]</text>
<polygon fill="none" stroke="#000000" points="46,-1515.5 46,-1545.5 448,-1545.5 448,-1515.5 46,-1515.5"/>
<text text-anchor="start" x="53" y="-1526.9" font-family="Arial" font-size="14.00" fill="#000000">billbaseqty </text>
<text text-anchor="start" x="123.014" y="-1526.9" font-family="Arial" font-size="14.00" fill="#666666">[numeric(15,5)]</text>
<polygon fill="none" stroke="#000000" points="46,-1485.5 46,-1515.5 448,-1515.5 448,-1485.5 46,-1485.5"/>
<text text-anchor="start" x="53" y="-1496.9" font-family="Arial" font-size="14.00" fill="#000000">billaltqty </text>
<text text-anchor="start" x="107.446" y="-1496.9" font-family="Arial" font-size="14.00" fill="#666666">[numeric(15,5)]</text>
<polygon fill="none" stroke="#000000" points="46,-1455.5 46,-1485.5 448,-1485.5 448,-1455.5 46,-1455.5"/>
<text text-anchor="start" x="53" y="-1466.9" font-family="Arial" font-size="14.00" fill="#000000">remarks </text>
<text text-anchor="start" x="107.4376" y="-1466.9" font-family="Arial" font-size="14.00" fill="#666666">[varchar(500)]</text>
<polygon fill="none" stroke="#000000" points="46,-1425.5 46,-1455.5 448,-1455.5 448,-1425.5 46,-1425.5"/>
<text text-anchor="start" x="53" y="-1436.9" font-family="Arial" font-size="14.00" fill="#000000">porate </text>
<text text-anchor="start" x="96.5722" y="-1436.9" font-family="Arial" font-size="14.00" fill="#666666">[numeric(15,5)]</text>
<polygon fill="none" stroke="#000000" points="46,-1395.5 46,-1425.5 448,-1425.5 448,-1395.5 46,-1395.5"/>
<text text-anchor="start" x="53" y="-1406.9" font-family="Arial" font-size="14.00" fill="#000000">pirate </text>
<text text-anchor="start" x="91.8962" y="-1406.9" font-family="Arial" font-size="14.00" fill="#666666">[numeric(15,5)]</text>
<polygon fill="none" stroke="#000000" points="46,-1365.5 46,-1395.5 448,-1395.5 448,-1365.5 46,-1365.5"/>
<text text-anchor="start" x="53" y="-1376.9" font-family="Arial" font-size="14.00" fill="#000000">rg23d_entryno_old </text>
<text text-anchor="start" x="173.6002" y="-1376.9" font-family="Arial" font-size="14.00" fill="#666666">[numeric(21,9)]</text>
<polygon fill="none" stroke="#000000" points="46,-1335.5 46,-1365.5 448,-1365.5 448,-1335.5 46,-1335.5"/>
<text text-anchor="start" x="53" y="-1346.9" font-family="Arial" font-size="14.00" fill="#000000">edcess_on_custom </text>
<text text-anchor="start" x="177.4852" y="-1346.9" font-family="Arial" font-size="14.00" fill="#666666">[numeric(21,9)]</text>
<polygon fill="none" stroke="#000000" points="46,-1305.5 46,-1335.5 448,-1335.5 448,-1305.5 46,-1305.5"/>
<text text-anchor="start" x="53" y="-1316.9" font-family="Arial" font-size="14.00" fill="#000000">hedcess_on_custom </text>
<text text-anchor="start" x="185.2678" y="-1316.9" font-family="Arial" font-size="14.00" fill="#666666">[numeric(21,9)]</text>
<polygon fill="none" stroke="#000000" points="46,-1275.5 46,-1305.5 448,-1305.5 448,-1275.5 46,-1275.5"/>
<text text-anchor="start" x="53" y="-1286.9" font-family="Arial" font-size="14.00" fill="#000000">custom_duty_rate </text>
<text text-anchor="start" x="168.1444" y="-1286.9" font-family="Arial" font-size="14.00" fill="#666666">[numeric(12,2)]</text>
<polygon fill="none" stroke="#000000" points="46,-1245.5 46,-1275.5 448,-1275.5 448,-1245.5 46,-1245.5"/>
<text text-anchor="start" x="53" y="-1256.9" font-family="Arial" font-size="14.00" fill="#000000">total_excise_amount </text>
<text text-anchor="start" x="185.2622" y="-1256.9" font-family="Arial" font-size="14.00" fill="#666666">[numeric(21,9)]</text>
<polygon fill="none" stroke="#000000" points="46,-1215.5 46,-1245.5 448,-1245.5 448,-1215.5 46,-1215.5"/>
<text text-anchor="start" x="53" y="-1226.9" font-family="Arial" font-size="14.00" fill="#000000">roundoffamt </text>
<text text-anchor="start" x="131.5792" y="-1226.9" font-family="Arial" font-size="14.00" fill="#666666">[numeric(17,5)]</text>
<polygon fill="none" stroke="#000000" points="46,-1185.5 46,-1215.5 448,-1215.5 448,-1185.5 46,-1185.5"/>
<text text-anchor="start" x="53" y="-1196.9" font-family="Arial" font-size="14.00" fill="#000000">itm_boe_no </text>
<text text-anchor="start" x="130.0266" y="-1196.9" font-family="Arial" font-size="14.00" fill="#666666">[varchar(50)]</text>
<polygon fill="none" stroke="#000000" points="46,-1155.5 46,-1185.5 448,-1185.5 448,-1155.5 46,-1155.5"/>
<text text-anchor="start" x="53" y="-1166.9" font-family="Arial" font-size="14.00" fill="#000000">itm_boe_date </text>
<text text-anchor="start" x="141.6998" y="-1166.9" font-family="Arial" font-size="14.00" fill="#666666">[date]</text>
<polygon fill="none" stroke="#000000" points="46,-1125.5 46,-1155.5 448,-1155.5 448,-1125.5 46,-1125.5"/>
<text text-anchor="start" x="53" y="-1136.9" font-family="Arial" font-size="14.00" fill="#000000">teo_store_id </text>
<text text-anchor="start" x="133.9172" y="-1136.9" font-family="Arial" font-size="14.00" fill="#666666">[integer]</text>
<polygon fill="none" stroke="#000000" points="46,-1095.5 46,-1125.5 448,-1125.5 448,-1095.5 46,-1095.5"/>
<text text-anchor="start" x="53" y="-1106.9" font-family="Arial" font-size="14.00" fill="#000000">exciseclassification </text>
<text text-anchor="start" x="175.9004" y="-1106.9" font-family="Arial" font-size="14.00" fill="#666666">[varchar(500)]</text>
<polygon fill="none" stroke="#000000" points="46,-1065.5 46,-1095.5 448,-1095.5 448,-1065.5 46,-1065.5"/>
<text text-anchor="start" x="53" y="-1076.9" font-family="Arial" font-size="14.00" fill="#000000">prod_rebate </text>
<text text-anchor="start" x="132.3632" y="-1076.9" font-family="Arial" font-size="14.00" fill="#666666">[numeric(21,9)]</text>
<polygon fill="none" stroke="#000000" points="46,-1035.5 46,-1065.5 448,-1065.5 448,-1035.5 46,-1035.5"/>
<text text-anchor="start" x="53" y="-1046.9" font-family="Arial" font-size="14.00" fill="#000000">rg23d_entryno </text>
<text text-anchor="start" x="147.1458" y="-1046.9" font-family="Arial" font-size="14.00" fill="#666666">[varchar(20)]</text>
<polygon fill="none" stroke="#000000" points="46,-1005.5 46,-1035.5 448,-1035.5 448,-1005.5 46,-1005.5"/>
<text text-anchor="start" x="53" y="-1016.9" font-family="Arial" font-size="14.00" fill="#000000">mrnstoreid </text>
<text text-anchor="start" x="123" y="-1016.9" font-family="Arial" font-size="14.00" fill="#666666">[numeric(18,0)]</text>
<polygon fill="none" stroke="#000000" points="46,-975.5 46,-1005.5 448,-1005.5 448,-975.5 46,-975.5"/>
<text text-anchor="start" x="53" y="-986.9" font-family="Arial" font-size="14.00" fill="#000000">adcpasson </text>
<text text-anchor="start" x="124.5862" y="-986.9" font-family="Arial" font-size="14.00" fill="#666666">[boolean]</text>
<polygon fill="none" stroke="#000000" points="46,-945.5 46,-975.5 448,-975.5 448,-945.5 46,-945.5"/>
<text text-anchor="start" x="53" y="-956.9" font-family="Arial" font-size="14.00" fill="#000000">landedcost </text>
<text text-anchor="start" x="124.5834" y="-956.9" font-family="Arial" font-size="14.00" fill="#666666">[numeric(18,5)]</text>
<polygon fill="none" stroke="#000000" points="46,-915.5 46,-945.5 448,-945.5 448,-915.5 46,-915.5"/>
<text text-anchor="start" x="53" y="-926.9" font-family="Arial" font-size="14.00" fill="#000000">licenceid </text>
<text text-anchor="start" x="111.3408" y="-926.9" font-family="Arial" font-size="14.00" fill="#666666">[integer]</text>
<polygon fill="none" stroke="#000000" points="46,-885.5 46,-915.5 448,-915.5 448,-885.5 46,-885.5"/>
<text text-anchor="start" x="53" y="-896.9" font-family="Arial" font-size="14.00" fill="#000000">excise_rate </text>
<text text-anchor="start" x="128.4614" y="-896.9" font-family="Arial" font-size="14.00" fill="#666666">[numeric(17,5)]</text>
<polygon fill="none" stroke="#000000" points="46,-855.5 46,-885.5 448,-885.5 448,-855.5 46,-855.5"/>
<text text-anchor="start" x="53" y="-866.9" font-family="Arial" font-size="14.00" fill="#000000">excise_amount </text>
<text text-anchor="start" x="151.0266" y="-866.9" font-family="Arial" font-size="14.00" fill="#666666">[numeric(17,5)]</text>
<polygon fill="none" stroke="#000000" points="46,-825.5 46,-855.5 448,-855.5 448,-825.5 46,-825.5"/>
<text text-anchor="start" x="53" y="-836.9" font-family="Arial" font-size="14.00" fill="#000000">ratewithtax </text>
<text text-anchor="start" x="124.5666" y="-836.9" font-family="Arial" font-size="14.00" fill="#666666">[numeric(18,5)]</text>
<polygon fill="none" stroke="#000000" points="46,-795.5 46,-825.5 448,-825.5 448,-795.5 46,-795.5"/>
<text text-anchor="start" x="53" y="-806.9" font-family="Arial" font-size="14.00" fill="#000000">totalwithtax </text>
<text text-anchor="start" x="126.9032" y="-806.9" font-family="Arial" font-size="14.00" fill="#666666">[numeric(18,5)]</text>
<polygon fill="none" stroke="#000000" points="46,-765.5 46,-795.5 448,-795.5 448,-765.5 46,-765.5"/>
<text text-anchor="start" x="53" y="-776.9" font-family="Arial" font-size="14.00" fill="#000000">additionalvatrate </text>
<text text-anchor="start" x="159.5862" y="-776.9" font-family="Arial" font-size="14.00" fill="#666666">[numeric(21,9)]</text>
<polygon fill="none" stroke="#000000" points="46,-735.5 46,-765.5 448,-765.5 448,-735.5 46,-735.5"/>
<text text-anchor="start" x="53" y="-746.9" font-family="Arial" font-size="14.00" fill="#000000">additionalvatamount </text>
<text text-anchor="start" x="182.1514" y="-746.9" font-family="Arial" font-size="14.00" fill="#666666">[numeric(21,9)]</text>
<polygon fill="none" stroke="#000000" points="46,-705.5 46,-735.5 448,-735.5 448,-705.5 46,-705.5"/>
<text text-anchor="start" x="53" y="-716.9" font-family="Arial" font-size="14.00" fill="#000000">surchargeonvatrate </text>
<text text-anchor="start" x="177.4796" y="-716.9" font-family="Arial" font-size="14.00" fill="#666666">[numeric(21,9)]</text>
<polygon fill="none" stroke="#000000" points="46,-675.5 46,-705.5 448,-705.5 448,-675.5 46,-675.5"/>
<text text-anchor="start" x="53" y="-686.9" font-family="Arial" font-size="14.00" fill="#000000">surchargeonvatamount </text>
<text text-anchor="start" x="200.0448" y="-686.9" font-family="Arial" font-size="14.00" fill="#666666">[numeric(21,9)]</text>
<polygon fill="none" stroke="#000000" points="46,-645.5 46,-675.5 448,-675.5 448,-645.5 46,-645.5"/>
<text text-anchor="start" x="53" y="-656.9" font-family="Arial" font-size="14.00" fill="#000000">excisebenifit </text>
<text text-anchor="start" x="133.9046" y="-656.9" font-family="Arial" font-size="14.00" fill="#666666">[boolean]</text>
<polygon fill="none" stroke="#000000" points="46,-615.5 46,-645.5 448,-645.5 448,-615.5 46,-615.5"/>
<text text-anchor="start" x="53" y="-626.9" font-family="Arial" font-size="14.00" fill="#000000">vatbenifit </text>
<text text-anchor="start" x="112.906" y="-626.9" font-family="Arial" font-size="14.00" fill="#666666">[boolean]</text>
<polygon fill="none" stroke="#000000" points="46,-585.5 46,-615.5 448,-615.5 448,-585.5 46,-585.5"/>
<text text-anchor="start" x="53" y="-596.9" font-family="Arial" font-size="14.00" fill="#000000">exciseincludedinlanded </text>
<text text-anchor="start" x="201.5974" y="-596.9" font-family="Arial" font-size="14.00" fill="#666666">[boolean]</text>
<polygon fill="none" stroke="#000000" points="46,-555.5 46,-585.5 448,-585.5 448,-555.5 46,-555.5"/>
<text text-anchor="start" x="53" y="-566.9" font-family="Arial" font-size="14.00" fill="#000000">excisecurrentyear </text>
<text text-anchor="start" x="167.3478" y="-566.9" font-family="Arial" font-size="14.00" fill="#666666">[numeric(18,5)]</text>
<polygon fill="none" stroke="#000000" points="46,-525.5 46,-555.5 448,-555.5 448,-525.5 46,-525.5"/>
<text text-anchor="start" x="53" y="-536.9" font-family="Arial" font-size="14.00" fill="#000000">excisenextyear </text>
<text text-anchor="start" x="150.244" y="-536.9" font-family="Arial" font-size="14.00" fill="#666666">[numeric(18,5)]</text>
<polygon fill="none" stroke="#000000" points="46,-495.5 46,-525.5 448,-525.5 448,-495.5 46,-495.5"/>
<text text-anchor="start" x="53" y="-506.9" font-family="Arial" font-size="14.00" fill="#000000">gstasseablevalue </text>
<text text-anchor="start" x="165.0378" y="-506.9" font-family="Arial" font-size="14.00" fill="#666666">[numeric(21,9)]</text>
<polygon fill="none" stroke="#000000" points="46,-465.5 46,-495.5 448,-495.5 448,-465.5 46,-465.5"/>
<text text-anchor="start" x="53" y="-476.9" font-family="Arial" font-size="14.00" fill="#000000">exciseclassificationid </text>
<text text-anchor="start" x="186.7896" y="-476.9" font-family="Arial" font-size="14.00" fill="#666666">[integer]</text>
<polygon fill="none" stroke="#000000" points="46,-435.5 46,-465.5 448,-465.5 448,-435.5 46,-435.5"/>
<text text-anchor="start" x="53" y="-446.9" font-family="Arial" font-size="14.00" fill="#000000">hsnclassificationid </text>
<text text-anchor="start" x="169.683" y="-446.9" font-family="Arial" font-size="14.00" fill="#666666">[integer]</text>
<polygon fill="none" stroke="#000000" points="46,-405.5 46,-435.5 448,-435.5 448,-405.5 46,-405.5"/>
<text text-anchor="start" x="53" y="-416.9" font-family="Arial" font-size="14.00" fill="#000000">social_welfare_taxes_on_custom </text>
<text text-anchor="start" x="263.049" y="-416.9" font-family="Arial" font-size="14.00" fill="#666666">[numeric(21,3)]</text>
<polygon fill="none" stroke="#000000" points="46,-375.5 46,-405.5 448,-405.5 448,-375.5 46,-375.5"/>
<text text-anchor="start" x="53" y="-386.9" font-family="Arial" font-size="14.00" fill="#000000">isdiscountbyamount </text>
<text text-anchor="start" x="180.589" y="-386.9" font-family="Arial" font-size="14.00" fill="#666666">[boolean]</text>
<polygon fill="none" stroke="#000000" points="46,-345.5 46,-375.5 448,-375.5 448,-345.5 46,-345.5"/>
<text text-anchor="start" x="53" y="-356.9" font-family="Arial" font-size="14.00" fill="#000000">invoice_qty </text>
<text text-anchor="start" x="126.9074" y="-356.9" font-family="Arial" font-size="14.00" fill="#666666">[numeric(20,5)]</text>
<polygon fill="none" stroke="#000000" points="46,-315.5 46,-345.5 448,-345.5 448,-315.5 46,-315.5"/>
<text text-anchor="start" x="53" y="-326.9" font-family="Arial" font-size="14.00" fill="#000000">insurance_lc </text>
<text text-anchor="start" x="135.46" y="-326.9" font-family="Arial" font-size="14.00" fill="#666666">[numeric(12,5)]</text>
<polygon fill="none" stroke="#000000" points="46,-285.5 46,-315.5 448,-315.5 448,-285.5 46,-285.5"/>
<text text-anchor="start" x="53" y="-296.9" font-family="Arial" font-size="14.00" fill="#000000">duty_lc </text>
<text text-anchor="start" x="101.2356" y="-296.9" font-family="Arial" font-size="14.00" fill="#666666">[numeric(12,5)]</text>
<polygon fill="none" stroke="#000000" points="46,-255.5 46,-285.5 448,-285.5 448,-255.5 46,-255.5"/>
<text text-anchor="start" x="53" y="-266.9" font-family="Arial" font-size="14.00" fill="#000000">other_lc </text>
<text text-anchor="start" x="106.6788" y="-266.9" font-family="Arial" font-size="14.00" fill="#666666">[numeric(12,5)]</text>
<polygon fill="none" stroke="#000000" points="46,-225.5 46,-255.5 448,-255.5 448,-225.5 46,-225.5"/>
<text text-anchor="start" x="53" y="-236.9" font-family="Arial" font-size="14.00" fill="#000000">clearing_lc </text>
<text text-anchor="start" x="123.784" y="-236.9" font-family="Arial" font-size="14.00" fill="#666666">[numeric(12,5)]</text>
<polygon fill="none" stroke="#000000" points="46,-195.5 46,-225.5 448,-225.5 448,-195.5 46,-195.5"/>
<text text-anchor="start" x="53" y="-206.9" font-family="Arial" font-size="14.00" fill="#000000">other1_lc </text>
<text text-anchor="start" x="114.4614" y="-206.9" font-family="Arial" font-size="14.00" fill="#666666">[numeric(12,5)]</text>
<polygon fill="none" stroke="#000000" points="46,-165.5 46,-195.5 448,-195.5 448,-165.5 46,-165.5"/>
<text text-anchor="start" x="53" y="-176.9" font-family="Arial" font-size="14.00" fill="#000000">other2_lc </text>
<text text-anchor="start" x="114.4614" y="-176.9" font-family="Arial" font-size="14.00" fill="#666666">[numeric(12,5)]</text>
<polygon fill="none" stroke="#000000" points="46,-135.5 46,-165.5 448,-165.5 448,-135.5 46,-135.5"/>
<text text-anchor="start" x="53" y="-146.9" font-family="Arial" font-size="14.00" fill="#000000">other3_lc </text>
<text text-anchor="start" x="114.4614" y="-146.9" font-family="Arial" font-size="14.00" fill="#666666">[numeric(12,5)]</text>
<polygon fill="none" stroke="#000000" points="46,-105.5 46,-135.5 448,-135.5 448,-105.5 46,-105.5"/>
<text text-anchor="start" x="53" y="-116.9" font-family="Arial" font-size="14.00" fill="#000000">discperunit </text>
<text text-anchor="start" x="124.568" y="-116.9" font-family="Arial" font-size="14.00" fill="#666666">[numeric(15,5)]</text>
<polygon fill="none" stroke="#000000" points="46,-75.5 46,-105.5 448,-105.5 448,-75.5 46,-75.5"/>
<text text-anchor="start" x="53" y="-86.9" font-family="Arial" font-size="14.00" fill="#000000">advlicno </text>
<text text-anchor="start" x="108.2342" y="-86.9" font-family="Arial" font-size="14.00" fill="#666666">[text]</text>
<polygon fill="none" stroke="#000000" points="46,-45.5 46,-75.5 448,-75.5 448,-45.5 46,-45.5"/>
<text text-anchor="start" x="53" y="-56.9" font-family="Arial" font-size="14.00" fill="#000000">advlicvalue </text>
<text text-anchor="start" x="126.1234" y="-56.9" font-family="Arial" font-size="14.00" fill="#666666">[numeric(15,2)]</text>
<polygon fill="none" stroke="#000000" stroke-width="3" points="44.5,-44.5 44.5,-2752.5 449.5,-2752.5 449.5,-44.5 44.5,-44.5"/>
</g>
</g>
</svg>
