<?xml version="1.0" encoding="UTF-8" standalone="no"?>
<!DOCTYPE svg PUBLIC "-//W3C//DTD SVG 1.1//EN"
 "http://www.w3.org/Graphics/SVG/1.1/DTD/svg11.dtd">
<!-- Generated by graphviz version 2.40.1 (20161225.0304)
 -->
<!-- Title: public.pur_mrn_req_detail Pages: 1 -->
<svg width="449pt" height="315pt"
 viewBox="0.00 0.00 449.00 315.00" xmlns="http://www.w3.org/2000/svg" xmlns:xlink="http://www.w3.org/1999/xlink">
<g id="graph0" class="graph" transform="scale(1 1) rotate(0) translate(4 311)">
<title>public.pur_mrn_req_detail</title>
<polygon fill="#ffffff" stroke="transparent" points="-4,4 -4,-311 445,-311 445,4 -4,4"/>
<!-- public.pur_mrn_req_detail -->
<g id="node1" class="node">
<title>public.pur_mrn_req_detail</title>
<polygon fill="#efefef" stroke="transparent" points="46.5,-225.5 46.5,-260.5 395.5,-260.5 395.5,-225.5 46.5,-225.5"/>
<polygon fill="none" stroke="#000000" points="46.5,-225.5 46.5,-260.5 395.5,-260.5 395.5,-225.5 46.5,-225.5"/>
<text text-anchor="start" x="53.1976" y="-238.3" font-family="Arial Bold" font-size="18.00" fill="#000000">public.pur_mrn_req_detail</text>
<text text-anchor="start" x="261.2344" y="-238.3" font-family="Arial" font-size="14.00" fill="#000000">    </text>
<text text-anchor="start" x="295.4392" y="-238.3" font-family="Arial" font-size="14.00" fill="#666666">[BASE TABLE]</text>
<polygon fill="none" stroke="#000000" points="46.5,-195.5 46.5,-225.5 395.5,-225.5 395.5,-195.5 46.5,-195.5"/>
<text text-anchor="start" x="53.5" y="-206.9" font-family="Arial" font-size="14.00" fill="#000000">adjustmentid </text>
<text text-anchor="start" x="136.7412" y="-206.9" font-family="Arial" font-size="14.00" fill="#666666">[bigint]</text>
<polygon fill="none" stroke="#000000" points="46.5,-165.5 46.5,-195.5 395.5,-195.5 395.5,-165.5 46.5,-165.5"/>
<text text-anchor="start" x="53.5" y="-176.9" font-family="Arial" font-size="14.00" fill="#000000">requisitiondetailid </text>
<text text-anchor="start" x="165.5154" y="-176.9" font-family="Arial" font-size="14.00" fill="#666666">[integer]</text>
<polygon fill="none" stroke="#000000" points="46.5,-135.5 46.5,-165.5 395.5,-165.5 395.5,-135.5 46.5,-135.5"/>
<text text-anchor="start" x="53.5" y="-146.9" font-family="Arial" font-size="14.00" fill="#000000">mrnqty </text>
<text text-anchor="start" x="100.1676" y="-146.9" font-family="Arial" font-size="14.00" fill="#666666">[numeric(15,5)]</text>
<polygon fill="none" stroke="#000000" points="46.5,-105.5 46.5,-135.5 395.5,-135.5 395.5,-105.5 46.5,-105.5"/>
<text text-anchor="start" x="53.5" y="-116.9" font-family="Arial" font-size="14.00" fill="#000000">mrnaltqty </text>
<text text-anchor="start" x="114.9474" y="-116.9" font-family="Arial" font-size="14.00" fill="#666666">[numeric(15,5)]</text>
<polygon fill="none" stroke="#000000" points="46.5,-75.5 46.5,-105.5 395.5,-105.5 395.5,-75.5 46.5,-75.5"/>
<text text-anchor="start" x="53.5" y="-86.9" font-family="Arial" font-size="14.00" fill="#000000">inspqty </text>
<text text-anchor="start" x="101.7356" y="-86.9" font-family="Arial" font-size="14.00" fill="#666666">[numeric(15,5)]</text>
<polygon fill="none" stroke="#000000" points="46.5,-45.5 46.5,-75.5 395.5,-75.5 395.5,-45.5 46.5,-45.5"/>
<text text-anchor="start" x="53.5" y="-56.9" font-family="Arial" font-size="14.00" fill="#000000">inspaltqty </text>
<text text-anchor="start" x="116.5154" y="-56.9" font-family="Arial" font-size="14.00" fill="#666666">[numeric(15,5)]</text>
<polygon fill="none" stroke="#000000" stroke-width="3" points="44.5,-44.5 44.5,-262.5 396.5,-262.5 396.5,-44.5 44.5,-44.5"/>
</g>
</g>
</svg>
