<?xml version="1.0" encoding="UTF-8" standalone="no"?>
<!DOCTYPE svg PUBLIC "-//W3C//DTD SVG 1.1//EN"
 "http://www.w3.org/Graphics/SVG/1.1/DTD/svg11.dtd">
<!-- Generated by graphviz version 2.40.1 (20161225.0304)
 -->
<!-- Title: public.tmp_uniware_si_detail Pages: 1 -->
<svg width="472pt" height="1215pt"
 viewBox="0.00 0.00 472.00 1215.00" xmlns="http://www.w3.org/2000/svg" xmlns:xlink="http://www.w3.org/1999/xlink">
<g id="graph0" class="graph" transform="scale(1 1) rotate(0) translate(4 1211)">
<title>public.tmp_uniware_si_detail</title>
<polygon fill="#ffffff" stroke="transparent" points="-4,4 -4,-1211 468,-1211 468,4 -4,4"/>
<!-- public.tmp_uniware_si_detail -->
<g id="node1" class="node">
<title>public.tmp_uniware_si_detail</title>
<polygon fill="#efefef" stroke="transparent" points="46,-1125.5 46,-1160.5 418,-1160.5 418,-1125.5 46,-1125.5"/>
<polygon fill="none" stroke="#000000" points="46,-1125.5 46,-1160.5 418,-1160.5 418,-1125.5 46,-1125.5"/>
<text text-anchor="start" x="52.6974" y="-1138.3" font-family="Arial Bold" font-size="18.00" fill="#000000">public.tmp_uniware_si_detail</text>
<text text-anchor="start" x="283.7346" y="-1138.3" font-family="Arial" font-size="14.00" fill="#000000">    </text>
<text text-anchor="start" x="317.9394" y="-1138.3" font-family="Arial" font-size="14.00" fill="#666666">[BASE TABLE]</text>
<polygon fill="none" stroke="#000000" points="46,-1095.5 46,-1125.5 418,-1125.5 418,-1095.5 46,-1095.5"/>
<text text-anchor="start" x="53" y="-1106.9" font-family="Arial" font-size="14.00" fill="#000000">udid </text>
<text text-anchor="start" x="83.345" y="-1106.9" font-family="Arial" font-size="14.00" fill="#666666">[integer]</text>
<polygon fill="none" stroke="#000000" points="46,-1065.5 46,-1095.5 418,-1095.5 418,-1065.5 46,-1065.5"/>
<text text-anchor="start" x="53" y="-1076.9" font-family="Arial" font-size="14.00" fill="#000000">uid </text>
<text text-anchor="start" x="75.5624" y="-1076.9" font-family="Arial" font-size="14.00" fill="#666666">[integer]</text>
<polygon fill="none" stroke="#000000" points="46,-1035.5 46,-1065.5 418,-1065.5 418,-1035.5 46,-1035.5"/>
<text text-anchor="start" x="53" y="-1046.9" font-family="Arial" font-size="14.00" fill="#000000">item_sku </text>
<text text-anchor="start" x="112.8962" y="-1046.9" font-family="Arial" font-size="14.00" fill="#666666">[varchar(50)]</text>
<polygon fill="none" stroke="#000000" points="46,-1005.5 46,-1035.5 418,-1035.5 418,-1005.5 46,-1005.5"/>
<text text-anchor="start" x="53" y="-1016.9" font-family="Arial" font-size="14.00" fill="#000000">channel_sku </text>
<text text-anchor="start" x="135.4754" y="-1016.9" font-family="Arial" font-size="14.00" fill="#666666">[varchar(50)]</text>
<polygon fill="none" stroke="#000000" points="46,-975.5 46,-1005.5 418,-1005.5 418,-975.5 46,-975.5"/>
<text text-anchor="start" x="53" y="-986.9" font-family="Arial" font-size="14.00" fill="#000000">seller_sku </text>
<text text-anchor="start" x="119.8948" y="-986.9" font-family="Arial" font-size="14.00" fill="#666666">[varchar(50)]</text>
<polygon fill="none" stroke="#000000" points="46,-945.5 46,-975.5 418,-975.5 418,-945.5 46,-945.5"/>
<text text-anchor="start" x="53" y="-956.9" font-family="Arial" font-size="14.00" fill="#000000">quantity </text>
<text text-anchor="start" x="105.9088" y="-956.9" font-family="Arial" font-size="14.00" fill="#666666">[numeric(15,5)]</text>
<polygon fill="none" stroke="#000000" points="46,-915.5 46,-945.5 418,-945.5 418,-915.5 46,-915.5"/>
<text text-anchor="start" x="53" y="-926.9" font-family="Arial" font-size="14.00" fill="#000000">unit_price </text>
<text text-anchor="start" x="117.568" y="-926.9" font-family="Arial" font-size="14.00" fill="#666666">[numeric(15,5)]</text>
<polygon fill="none" stroke="#000000" points="46,-885.5 46,-915.5 418,-915.5 418,-885.5 46,-885.5"/>
<text text-anchor="start" x="53" y="-896.9" font-family="Arial" font-size="14.00" fill="#000000">selling_price </text>
<text text-anchor="start" x="134.6732" y="-896.9" font-family="Arial" font-size="14.00" fill="#666666">[numeric(15,5)]</text>
<polygon fill="none" stroke="#000000" points="46,-855.5 46,-885.5 418,-885.5 418,-855.5 46,-855.5"/>
<text text-anchor="start" x="53" y="-866.9" font-family="Arial" font-size="14.00" fill="#000000">shipping_charges </text>
<text text-anchor="start" x="166.5904" y="-866.9" font-family="Arial" font-size="14.00" fill="#666666">[numeric(15,5)]</text>
<polygon fill="none" stroke="#000000" points="46,-825.5 46,-855.5 418,-855.5 418,-825.5 46,-825.5"/>
<text text-anchor="start" x="53" y="-836.9" font-family="Arial" font-size="14.00" fill="#000000">shipping_method_charges </text>
<text text-anchor="start" x="221.0546" y="-836.9" font-family="Arial" font-size="14.00" fill="#666666">[numeric(15,5)]</text>
<polygon fill="none" stroke="#000000" points="46,-795.5 46,-825.5 418,-825.5 418,-795.5 46,-795.5"/>
<text text-anchor="start" x="53" y="-806.9" font-family="Arial" font-size="14.00" fill="#000000">cash_on_delivery_charges </text>
<text text-anchor="start" x="223.3814" y="-806.9" font-family="Arial" font-size="14.00" fill="#666666">[numeric(15,5)]</text>
<polygon fill="none" stroke="#000000" points="46,-765.5 46,-795.5 418,-795.5 418,-765.5 46,-765.5"/>
<text text-anchor="start" x="53" y="-776.9" font-family="Arial" font-size="14.00" fill="#000000">gift_wrap_charges </text>
<text text-anchor="start" x="171.2496" y="-776.9" font-family="Arial" font-size="14.00" fill="#666666">[numeric(15,5)]</text>
<polygon fill="none" stroke="#000000" points="46,-735.5 46,-765.5 418,-765.5 418,-735.5 46,-735.5"/>
<text text-anchor="start" x="53" y="-746.9" font-family="Arial" font-size="14.00" fill="#000000">prepaid_amount </text>
<text text-anchor="start" x="158.035" y="-746.9" font-family="Arial" font-size="14.00" fill="#666666">[numeric(15,5)]</text>
<polygon fill="none" stroke="#000000" points="46,-705.5 46,-735.5 418,-735.5 418,-705.5 46,-705.5"/>
<text text-anchor="start" x="53" y="-716.9" font-family="Arial" font-size="14.00" fill="#000000">voucher_value </text>
<text text-anchor="start" x="147.9186" y="-716.9" font-family="Arial" font-size="14.00" fill="#666666">[numeric(15,5)]</text>
<polygon fill="none" stroke="#000000" points="46,-675.5 46,-705.5 418,-705.5 418,-675.5 46,-675.5"/>
<text text-anchor="start" x="53" y="-686.9" font-family="Arial" font-size="14.00" fill="#000000">store_credit </text>
<text text-anchor="start" x="130.0126" y="-686.9" font-family="Arial" font-size="14.00" fill="#666666">[numeric(15,5)]</text>
<polygon fill="none" stroke="#000000" points="46,-645.5 46,-675.5 418,-675.5 418,-645.5 46,-645.5"/>
<text text-anchor="start" x="53" y="-656.9" font-family="Arial" font-size="14.00" fill="#000000">sub_total </text>
<text text-anchor="start" x="113.6914" y="-656.9" font-family="Arial" font-size="14.00" fill="#666666">[numeric(15,5)]</text>
<polygon fill="none" stroke="#000000" points="46,-615.5 46,-645.5 418,-645.5 418,-615.5 46,-615.5"/>
<text text-anchor="start" x="53" y="-626.9" font-family="Arial" font-size="14.00" fill="#000000">total </text>
<text text-anchor="start" x="83.3436" y="-626.9" font-family="Arial" font-size="14.00" fill="#666666">[numeric(15,5)]</text>
<polygon fill="none" stroke="#000000" points="46,-585.5 46,-615.5 418,-615.5 418,-585.5 46,-585.5"/>
<text text-anchor="start" x="53" y="-596.9" font-family="Arial" font-size="14.00" fill="#000000">discount </text>
<text text-anchor="start" x="109.0182" y="-596.9" font-family="Arial" font-size="14.00" fill="#666666">[numeric(15,5)]</text>
<polygon fill="none" stroke="#000000" points="46,-555.5 46,-585.5 418,-585.5 418,-555.5 46,-555.5"/>
<text text-anchor="start" x="53" y="-566.9" font-family="Arial" font-size="14.00" fill="#000000">vat </text>
<text text-anchor="start" x="75.5638" y="-566.9" font-family="Arial" font-size="14.00" fill="#666666">[numeric(15,5)]</text>
<polygon fill="none" stroke="#000000" points="46,-525.5 46,-555.5 418,-555.5 418,-525.5 46,-525.5"/>
<text text-anchor="start" x="53" y="-536.9" font-family="Arial" font-size="14.00" fill="#000000">cst </text>
<text text-anchor="start" x="74.7812" y="-536.9" font-family="Arial" font-size="14.00" fill="#666666">[numeric(15,5)]</text>
<polygon fill="none" stroke="#000000" points="46,-495.5 46,-525.5 418,-525.5 418,-495.5 46,-495.5"/>
<text text-anchor="start" x="53" y="-506.9" font-family="Arial" font-size="14.00" fill="#000000">igst </text>
<text text-anchor="start" x="78.6704" y="-506.9" font-family="Arial" font-size="14.00" fill="#666666">[numeric(15,5)]</text>
<polygon fill="none" stroke="#000000" points="46,-465.5 46,-495.5 418,-495.5 418,-465.5 46,-465.5"/>
<text text-anchor="start" x="53" y="-476.9" font-family="Arial" font-size="14.00" fill="#000000">ugst </text>
<text text-anchor="start" x="83.3464" y="-476.9" font-family="Arial" font-size="14.00" fill="#666666">[numeric(15,5)]</text>
<polygon fill="none" stroke="#000000" points="46,-435.5 46,-465.5 418,-465.5 418,-435.5 46,-435.5"/>
<text text-anchor="start" x="53" y="-446.9" font-family="Arial" font-size="14.00" fill="#000000">sgst </text>
<text text-anchor="start" x="82.5638" y="-446.9" font-family="Arial" font-size="14.00" fill="#666666">[numeric(15,5)]</text>
<polygon fill="none" stroke="#000000" points="46,-405.5 46,-435.5 418,-435.5 418,-405.5 46,-405.5"/>
<text text-anchor="start" x="53" y="-416.9" font-family="Arial" font-size="14.00" fill="#000000">cgst </text>
<text text-anchor="start" x="82.5638" y="-416.9" font-family="Arial" font-size="14.00" fill="#666666">[numeric(15,5)]</text>
<polygon fill="none" stroke="#000000" points="46,-375.5 46,-405.5 418,-405.5 418,-375.5 46,-375.5"/>
<text text-anchor="start" x="53" y="-386.9" font-family="Arial" font-size="14.00" fill="#000000">ccess </text>
<text text-anchor="start" x="92.6732" y="-386.9" font-family="Arial" font-size="14.00" fill="#666666">[numeric(15,5)]</text>
<polygon fill="none" stroke="#000000" points="46,-345.5 46,-375.5 418,-375.5 418,-345.5 46,-345.5"/>
<text text-anchor="start" x="53" y="-356.9" font-family="Arial" font-size="14.00" fill="#000000">additional_tax </text>
<text text-anchor="start" x="143.2524" y="-356.9" font-family="Arial" font-size="14.00" fill="#666666">[numeric(15,5)]</text>
<polygon fill="none" stroke="#000000" points="46,-315.5 46,-345.5 418,-345.5 418,-315.5 46,-315.5"/>
<text text-anchor="start" x="53" y="-326.9" font-family="Arial" font-size="14.00" fill="#000000">total_tax </text>
<text text-anchor="start" x="109.7994" y="-326.9" font-family="Arial" font-size="14.00" fill="#666666">[numeric(15,5)]</text>
<polygon fill="none" stroke="#000000" points="46,-285.5 46,-315.5 418,-315.5 418,-285.5 46,-285.5"/>
<text text-anchor="start" x="53" y="-296.9" font-family="Arial" font-size="14.00" fill="#000000">tax_percentage </text>
<text text-anchor="start" x="153.3758" y="-296.9" font-family="Arial" font-size="14.00" fill="#666666">[numeric(15,5)]</text>
<polygon fill="none" stroke="#000000" points="46,-255.5 46,-285.5 418,-285.5 418,-255.5 46,-255.5"/>
<text text-anchor="start" x="53" y="-266.9" font-family="Arial" font-size="14.00" fill="#000000">vat_percentage </text>
<text text-anchor="start" x="153.3758" y="-266.9" font-family="Arial" font-size="14.00" fill="#666666">[numeric(15,5)]</text>
<polygon fill="none" stroke="#000000" points="46,-225.5 46,-255.5 418,-255.5 418,-225.5 46,-225.5"/>
<text text-anchor="start" x="53" y="-236.9" font-family="Arial" font-size="14.00" fill="#000000">cst_percentage </text>
<text text-anchor="start" x="152.5932" y="-236.9" font-family="Arial" font-size="14.00" fill="#666666">[numeric(15,5)]</text>
<polygon fill="none" stroke="#000000" points="46,-195.5 46,-225.5 418,-225.5 418,-195.5 46,-195.5"/>
<text text-anchor="start" x="53" y="-206.9" font-family="Arial" font-size="14.00" fill="#000000">igst_percentage </text>
<text text-anchor="start" x="156.4824" y="-206.9" font-family="Arial" font-size="14.00" fill="#666666">[numeric(15,5)]</text>
<polygon fill="none" stroke="#000000" points="46,-165.5 46,-195.5 418,-195.5 418,-165.5 46,-165.5"/>
<text text-anchor="start" x="53" y="-176.9" font-family="Arial" font-size="14.00" fill="#000000">ugst_percentage </text>
<text text-anchor="start" x="161.1584" y="-176.9" font-family="Arial" font-size="14.00" fill="#666666">[numeric(15,5)]</text>
<polygon fill="none" stroke="#000000" points="46,-135.5 46,-165.5 418,-165.5 418,-135.5 46,-135.5"/>
<text text-anchor="start" x="53" y="-146.9" font-family="Arial" font-size="14.00" fill="#000000">sgst_percentage </text>
<text text-anchor="start" x="160.3758" y="-146.9" font-family="Arial" font-size="14.00" fill="#666666">[numeric(15,5)]</text>
<polygon fill="none" stroke="#000000" points="46,-105.5 46,-135.5 418,-135.5 418,-105.5 46,-105.5"/>
<text text-anchor="start" x="53" y="-116.9" font-family="Arial" font-size="14.00" fill="#000000">cgst_percentage </text>
<text text-anchor="start" x="160.3758" y="-116.9" font-family="Arial" font-size="14.00" fill="#666666">[numeric(15,5)]</text>
<polygon fill="none" stroke="#000000" points="46,-75.5 46,-105.5 418,-105.5 418,-75.5 46,-75.5"/>
<text text-anchor="start" x="53" y="-86.9" font-family="Arial" font-size="14.00" fill="#000000">ccess_percentage </text>
<text text-anchor="start" x="170.4852" y="-86.9" font-family="Arial" font-size="14.00" fill="#666666">[numeric(15,5)]</text>
<polygon fill="none" stroke="#000000" points="46,-45.5 46,-75.5 418,-75.5 418,-45.5 46,-45.5"/>
<text text-anchor="start" x="53" y="-56.9" font-family="Arial" font-size="14.00" fill="#000000">additional_tax_percentage </text>
<text text-anchor="start" x="221.0644" y="-56.9" font-family="Arial" font-size="14.00" fill="#666666">[numeric(15,5)]</text>
<polygon fill="none" stroke="#000000" stroke-width="3" points="44.5,-44.5 44.5,-1162.5 419.5,-1162.5 419.5,-44.5 44.5,-44.5"/>
</g>
</g>
</svg>
