<?xml version="1.0" encoding="UTF-8" standalone="no"?>
<!DOCTYPE svg PUBLIC "-//W3C//DTD SVG 1.1//EN"
 "http://www.w3.org/Graphics/SVG/1.1/DTD/svg11.dtd">
<!-- Generated by graphviz version 2.40.1 (20161225.0304)
 -->
<!-- Title: public.pay_dailyattendancedetails Pages: 1 -->
<svg width="510pt" height="2235pt"
 viewBox="0.00 0.00 510.00 2235.00" xmlns="http://www.w3.org/2000/svg" xmlns:xlink="http://www.w3.org/1999/xlink">
<g id="graph0" class="graph" transform="scale(1 1) rotate(0) translate(4 2231)">
<title>public.pay_dailyattendancedetails</title>
<polygon fill="#ffffff" stroke="transparent" points="-4,4 -4,-2231 506,-2231 506,4 -4,4"/>
<!-- public.pay_dailyattendancedetails -->
<g id="node1" class="node">
<title>public.pay_dailyattendancedetails</title>
<polygon fill="#efefef" stroke="transparent" points="46,-2145.5 46,-2180.5 456,-2180.5 456,-2145.5 46,-2145.5"/>
<polygon fill="none" stroke="#000000" points="46,-2145.5 46,-2180.5 456,-2180.5 456,-2145.5 46,-2145.5"/>
<text text-anchor="start" x="52.6732" y="-2158.3" font-family="Arial Bold" font-size="18.00" fill="#000000">public.pay_dailyattendancedetails</text>
<text text-anchor="start" x="321.7588" y="-2158.3" font-family="Arial" font-size="14.00" fill="#000000">    </text>
<text text-anchor="start" x="355.9636" y="-2158.3" font-family="Arial" font-size="14.00" fill="#666666">[BASE TABLE]</text>
<polygon fill="none" stroke="#000000" points="46,-2115.5 46,-2145.5 456,-2145.5 456,-2115.5 46,-2115.5"/>
<text text-anchor="start" x="53" y="-2126.9" font-family="Arial" font-size="14.00" fill="#000000">attendancedetailsid </text>
<text text-anchor="start" x="177.4908" y="-2126.9" font-family="Arial" font-size="14.00" fill="#666666">[integer]</text>
<polygon fill="none" stroke="#000000" points="46,-2085.5 46,-2115.5 456,-2115.5 456,-2085.5 46,-2085.5"/>
<text text-anchor="start" x="53" y="-2096.9" font-family="Arial" font-size="14.00" fill="#000000">attendanceid </text>
<text text-anchor="start" x="137.0392" y="-2096.9" font-family="Arial" font-size="14.00" fill="#666666">[integer]</text>
<polygon fill="none" stroke="#000000" points="46,-2055.5 46,-2085.5 456,-2085.5 456,-2055.5 46,-2055.5"/>
<text text-anchor="start" x="53" y="-2066.9" font-family="Arial" font-size="14.00" fill="#000000">employeeid </text>
<text text-anchor="start" x="128.46" y="-2066.9" font-family="Arial" font-size="14.00" fill="#666666">[integer]</text>
<polygon fill="none" stroke="#000000" points="46,-2025.5 46,-2055.5 456,-2055.5 456,-2025.5 46,-2025.5"/>
<text text-anchor="start" x="53" y="-2036.9" font-family="Arial" font-size="14.00" fill="#000000">_1in </text>
<text text-anchor="start" x="83.345" y="-2036.9" font-family="Arial" font-size="14.00" fill="#666666">[timestamp without time zone]</text>
<polygon fill="none" stroke="#000000" points="46,-1995.5 46,-2025.5 456,-2025.5 456,-1995.5 46,-1995.5"/>
<text text-anchor="start" x="53" y="-2006.9" font-family="Arial" font-size="14.00" fill="#000000">_1out </text>
<text text-anchor="start" x="91.9116" y="-2006.9" font-family="Arial" font-size="14.00" fill="#666666">[timestamp without time zone]</text>
<polygon fill="none" stroke="#000000" points="46,-1965.5 46,-1995.5 456,-1995.5 456,-1965.5 46,-1965.5"/>
<text text-anchor="start" x="53" y="-1976.9" font-family="Arial" font-size="14.00" fill="#000000">_2in </text>
<text text-anchor="start" x="83.345" y="-1976.9" font-family="Arial" font-size="14.00" fill="#666666">[timestamp without time zone]</text>
<polygon fill="none" stroke="#000000" points="46,-1935.5 46,-1965.5 456,-1965.5 456,-1935.5 46,-1935.5"/>
<text text-anchor="start" x="53" y="-1946.9" font-family="Arial" font-size="14.00" fill="#000000">_2out </text>
<text text-anchor="start" x="91.9116" y="-1946.9" font-family="Arial" font-size="14.00" fill="#666666">[timestamp without time zone]</text>
<polygon fill="none" stroke="#000000" points="46,-1905.5 46,-1935.5 456,-1935.5 456,-1905.5 46,-1905.5"/>
<text text-anchor="start" x="53" y="-1916.9" font-family="Arial" font-size="14.00" fill="#000000">_3in </text>
<text text-anchor="start" x="83.345" y="-1916.9" font-family="Arial" font-size="14.00" fill="#666666">[timestamp without time zone]</text>
<polygon fill="none" stroke="#000000" points="46,-1875.5 46,-1905.5 456,-1905.5 456,-1875.5 46,-1875.5"/>
<text text-anchor="start" x="53" y="-1886.9" font-family="Arial" font-size="14.00" fill="#000000">_3out </text>
<text text-anchor="start" x="91.9116" y="-1886.9" font-family="Arial" font-size="14.00" fill="#666666">[timestamp without time zone]</text>
<polygon fill="none" stroke="#000000" points="46,-1845.5 46,-1875.5 456,-1875.5 456,-1845.5 46,-1845.5"/>
<text text-anchor="start" x="53" y="-1856.9" font-family="Arial" font-size="14.00" fill="#000000">_4in </text>
<text text-anchor="start" x="83.345" y="-1856.9" font-family="Arial" font-size="14.00" fill="#666666">[timestamp without time zone]</text>
<polygon fill="none" stroke="#000000" points="46,-1815.5 46,-1845.5 456,-1845.5 456,-1815.5 46,-1815.5"/>
<text text-anchor="start" x="53" y="-1826.9" font-family="Arial" font-size="14.00" fill="#000000">_4out </text>
<text text-anchor="start" x="91.9116" y="-1826.9" font-family="Arial" font-size="14.00" fill="#666666">[timestamp without time zone]</text>
<polygon fill="none" stroke="#000000" points="46,-1785.5 46,-1815.5 456,-1815.5 456,-1785.5 46,-1785.5"/>
<text text-anchor="start" x="53" y="-1796.9" font-family="Arial" font-size="14.00" fill="#000000">_5in </text>
<text text-anchor="start" x="83.345" y="-1796.9" font-family="Arial" font-size="14.00" fill="#666666">[timestamp without time zone]</text>
<polygon fill="none" stroke="#000000" points="46,-1755.5 46,-1785.5 456,-1785.5 456,-1755.5 46,-1755.5"/>
<text text-anchor="start" x="53" y="-1766.9" font-family="Arial" font-size="14.00" fill="#000000">_5out </text>
<text text-anchor="start" x="91.9116" y="-1766.9" font-family="Arial" font-size="14.00" fill="#666666">[timestamp without time zone]</text>
<polygon fill="none" stroke="#000000" points="46,-1725.5 46,-1755.5 456,-1755.5 456,-1725.5 46,-1725.5"/>
<text text-anchor="start" x="53" y="-1736.9" font-family="Arial" font-size="14.00" fill="#000000">_6in </text>
<text text-anchor="start" x="83.345" y="-1736.9" font-family="Arial" font-size="14.00" fill="#666666">[timestamp without time zone]</text>
<polygon fill="none" stroke="#000000" points="46,-1695.5 46,-1725.5 456,-1725.5 456,-1695.5 46,-1695.5"/>
<text text-anchor="start" x="53" y="-1706.9" font-family="Arial" font-size="14.00" fill="#000000">_6out </text>
<text text-anchor="start" x="91.9116" y="-1706.9" font-family="Arial" font-size="14.00" fill="#666666">[timestamp without time zone]</text>
<polygon fill="none" stroke="#000000" points="46,-1665.5 46,-1695.5 456,-1695.5 456,-1665.5 46,-1665.5"/>
<text text-anchor="start" x="53" y="-1676.9" font-family="Arial" font-size="14.00" fill="#000000">_7in </text>
<text text-anchor="start" x="83.345" y="-1676.9" font-family="Arial" font-size="14.00" fill="#666666">[timestamp without time zone]</text>
<polygon fill="none" stroke="#000000" points="46,-1635.5 46,-1665.5 456,-1665.5 456,-1635.5 46,-1635.5"/>
<text text-anchor="start" x="53" y="-1646.9" font-family="Arial" font-size="14.00" fill="#000000">_7out </text>
<text text-anchor="start" x="91.9116" y="-1646.9" font-family="Arial" font-size="14.00" fill="#666666">[timestamp without time zone]</text>
<polygon fill="none" stroke="#000000" points="46,-1605.5 46,-1635.5 456,-1635.5 456,-1605.5 46,-1605.5"/>
<text text-anchor="start" x="53" y="-1616.9" font-family="Arial" font-size="14.00" fill="#000000">_8in </text>
<text text-anchor="start" x="83.345" y="-1616.9" font-family="Arial" font-size="14.00" fill="#666666">[timestamp without time zone]</text>
<polygon fill="none" stroke="#000000" points="46,-1575.5 46,-1605.5 456,-1605.5 456,-1575.5 46,-1575.5"/>
<text text-anchor="start" x="53" y="-1586.9" font-family="Arial" font-size="14.00" fill="#000000">_8out </text>
<text text-anchor="start" x="91.9116" y="-1586.9" font-family="Arial" font-size="14.00" fill="#666666">[timestamp without time zone]</text>
<polygon fill="none" stroke="#000000" points="46,-1545.5 46,-1575.5 456,-1575.5 456,-1545.5 46,-1545.5"/>
<text text-anchor="start" x="53" y="-1556.9" font-family="Arial" font-size="14.00" fill="#000000">_9in </text>
<text text-anchor="start" x="83.345" y="-1556.9" font-family="Arial" font-size="14.00" fill="#666666">[timestamp without time zone]</text>
<polygon fill="none" stroke="#000000" points="46,-1515.5 46,-1545.5 456,-1545.5 456,-1515.5 46,-1515.5"/>
<text text-anchor="start" x="53" y="-1526.9" font-family="Arial" font-size="14.00" fill="#000000">_9out </text>
<text text-anchor="start" x="91.9116" y="-1526.9" font-family="Arial" font-size="14.00" fill="#666666">[timestamp without time zone]</text>
<polygon fill="none" stroke="#000000" points="46,-1485.5 46,-1515.5 456,-1515.5 456,-1485.5 46,-1485.5"/>
<text text-anchor="start" x="53" y="-1496.9" font-family="Arial" font-size="14.00" fill="#000000">_10in </text>
<text text-anchor="start" x="91.1276" y="-1496.9" font-family="Arial" font-size="14.00" fill="#666666">[timestamp without time zone]</text>
<polygon fill="none" stroke="#000000" points="46,-1455.5 46,-1485.5 456,-1485.5 456,-1455.5 46,-1455.5"/>
<text text-anchor="start" x="53" y="-1466.9" font-family="Arial" font-size="14.00" fill="#000000">_10out </text>
<text text-anchor="start" x="99.6942" y="-1466.9" font-family="Arial" font-size="14.00" fill="#666666">[timestamp without time zone]</text>
<polygon fill="none" stroke="#000000" points="46,-1425.5 46,-1455.5 456,-1455.5 456,-1425.5 46,-1425.5"/>
<text text-anchor="start" x="53" y="-1436.9" font-family="Arial" font-size="14.00" fill="#000000">_11in </text>
<text text-anchor="start" x="91.1276" y="-1436.9" font-family="Arial" font-size="14.00" fill="#666666">[timestamp without time zone]</text>
<polygon fill="none" stroke="#000000" points="46,-1395.5 46,-1425.5 456,-1425.5 456,-1395.5 46,-1395.5"/>
<text text-anchor="start" x="53" y="-1406.9" font-family="Arial" font-size="14.00" fill="#000000">_11out </text>
<text text-anchor="start" x="99.6942" y="-1406.9" font-family="Arial" font-size="14.00" fill="#666666">[timestamp without time zone]</text>
<polygon fill="none" stroke="#000000" points="46,-1365.5 46,-1395.5 456,-1395.5 456,-1365.5 46,-1365.5"/>
<text text-anchor="start" x="53" y="-1376.9" font-family="Arial" font-size="14.00" fill="#000000">_12in </text>
<text text-anchor="start" x="91.1276" y="-1376.9" font-family="Arial" font-size="14.00" fill="#666666">[timestamp without time zone]</text>
<polygon fill="none" stroke="#000000" points="46,-1335.5 46,-1365.5 456,-1365.5 456,-1335.5 46,-1335.5"/>
<text text-anchor="start" x="53" y="-1346.9" font-family="Arial" font-size="14.00" fill="#000000">_12out </text>
<text text-anchor="start" x="99.6942" y="-1346.9" font-family="Arial" font-size="14.00" fill="#666666">[timestamp without time zone]</text>
<polygon fill="none" stroke="#000000" points="46,-1305.5 46,-1335.5 456,-1335.5 456,-1305.5 46,-1305.5"/>
<text text-anchor="start" x="53" y="-1316.9" font-family="Arial" font-size="14.00" fill="#000000">_13in </text>
<text text-anchor="start" x="91.1276" y="-1316.9" font-family="Arial" font-size="14.00" fill="#666666">[timestamp without time zone]</text>
<polygon fill="none" stroke="#000000" points="46,-1275.5 46,-1305.5 456,-1305.5 456,-1275.5 46,-1275.5"/>
<text text-anchor="start" x="53" y="-1286.9" font-family="Arial" font-size="14.00" fill="#000000">_13out </text>
<text text-anchor="start" x="99.6942" y="-1286.9" font-family="Arial" font-size="14.00" fill="#666666">[timestamp without time zone]</text>
<polygon fill="none" stroke="#000000" points="46,-1245.5 46,-1275.5 456,-1275.5 456,-1245.5 46,-1245.5"/>
<text text-anchor="start" x="53" y="-1256.9" font-family="Arial" font-size="14.00" fill="#000000">_14in </text>
<text text-anchor="start" x="91.1276" y="-1256.9" font-family="Arial" font-size="14.00" fill="#666666">[timestamp without time zone]</text>
<polygon fill="none" stroke="#000000" points="46,-1215.5 46,-1245.5 456,-1245.5 456,-1215.5 46,-1215.5"/>
<text text-anchor="start" x="53" y="-1226.9" font-family="Arial" font-size="14.00" fill="#000000">_14out </text>
<text text-anchor="start" x="99.6942" y="-1226.9" font-family="Arial" font-size="14.00" fill="#666666">[timestamp without time zone]</text>
<polygon fill="none" stroke="#000000" points="46,-1185.5 46,-1215.5 456,-1215.5 456,-1185.5 46,-1185.5"/>
<text text-anchor="start" x="53" y="-1196.9" font-family="Arial" font-size="14.00" fill="#000000">_15in </text>
<text text-anchor="start" x="91.1276" y="-1196.9" font-family="Arial" font-size="14.00" fill="#666666">[timestamp without time zone]</text>
<polygon fill="none" stroke="#000000" points="46,-1155.5 46,-1185.5 456,-1185.5 456,-1155.5 46,-1155.5"/>
<text text-anchor="start" x="53" y="-1166.9" font-family="Arial" font-size="14.00" fill="#000000">_15out </text>
<text text-anchor="start" x="99.6942" y="-1166.9" font-family="Arial" font-size="14.00" fill="#666666">[timestamp without time zone]</text>
<polygon fill="none" stroke="#000000" points="46,-1125.5 46,-1155.5 456,-1155.5 456,-1125.5 46,-1125.5"/>
<text text-anchor="start" x="53" y="-1136.9" font-family="Arial" font-size="14.00" fill="#000000">_16in </text>
<text text-anchor="start" x="91.1276" y="-1136.9" font-family="Arial" font-size="14.00" fill="#666666">[timestamp without time zone]</text>
<polygon fill="none" stroke="#000000" points="46,-1095.5 46,-1125.5 456,-1125.5 456,-1095.5 46,-1095.5"/>
<text text-anchor="start" x="53" y="-1106.9" font-family="Arial" font-size="14.00" fill="#000000">_16out </text>
<text text-anchor="start" x="99.6942" y="-1106.9" font-family="Arial" font-size="14.00" fill="#666666">[timestamp without time zone]</text>
<polygon fill="none" stroke="#000000" points="46,-1065.5 46,-1095.5 456,-1095.5 456,-1065.5 46,-1065.5"/>
<text text-anchor="start" x="53" y="-1076.9" font-family="Arial" font-size="14.00" fill="#000000">_17in </text>
<text text-anchor="start" x="91.1276" y="-1076.9" font-family="Arial" font-size="14.00" fill="#666666">[timestamp without time zone]</text>
<polygon fill="none" stroke="#000000" points="46,-1035.5 46,-1065.5 456,-1065.5 456,-1035.5 46,-1035.5"/>
<text text-anchor="start" x="53" y="-1046.9" font-family="Arial" font-size="14.00" fill="#000000">_17out </text>
<text text-anchor="start" x="99.6942" y="-1046.9" font-family="Arial" font-size="14.00" fill="#666666">[timestamp without time zone]</text>
<polygon fill="none" stroke="#000000" points="46,-1005.5 46,-1035.5 456,-1035.5 456,-1005.5 46,-1005.5"/>
<text text-anchor="start" x="53" y="-1016.9" font-family="Arial" font-size="14.00" fill="#000000">_18in </text>
<text text-anchor="start" x="91.1276" y="-1016.9" font-family="Arial" font-size="14.00" fill="#666666">[timestamp without time zone]</text>
<polygon fill="none" stroke="#000000" points="46,-975.5 46,-1005.5 456,-1005.5 456,-975.5 46,-975.5"/>
<text text-anchor="start" x="53" y="-986.9" font-family="Arial" font-size="14.00" fill="#000000">_18out </text>
<text text-anchor="start" x="99.6942" y="-986.9" font-family="Arial" font-size="14.00" fill="#666666">[timestamp without time zone]</text>
<polygon fill="none" stroke="#000000" points="46,-945.5 46,-975.5 456,-975.5 456,-945.5 46,-945.5"/>
<text text-anchor="start" x="53" y="-956.9" font-family="Arial" font-size="14.00" fill="#000000">_19in </text>
<text text-anchor="start" x="91.1276" y="-956.9" font-family="Arial" font-size="14.00" fill="#666666">[timestamp without time zone]</text>
<polygon fill="none" stroke="#000000" points="46,-915.5 46,-945.5 456,-945.5 456,-915.5 46,-915.5"/>
<text text-anchor="start" x="53" y="-926.9" font-family="Arial" font-size="14.00" fill="#000000">_19out </text>
<text text-anchor="start" x="99.6942" y="-926.9" font-family="Arial" font-size="14.00" fill="#666666">[timestamp without time zone]</text>
<polygon fill="none" stroke="#000000" points="46,-885.5 46,-915.5 456,-915.5 456,-885.5 46,-885.5"/>
<text text-anchor="start" x="53" y="-896.9" font-family="Arial" font-size="14.00" fill="#000000">_20in </text>
<text text-anchor="start" x="91.1276" y="-896.9" font-family="Arial" font-size="14.00" fill="#666666">[timestamp without time zone]</text>
<polygon fill="none" stroke="#000000" points="46,-855.5 46,-885.5 456,-885.5 456,-855.5 46,-855.5"/>
<text text-anchor="start" x="53" y="-866.9" font-family="Arial" font-size="14.00" fill="#000000">_20out </text>
<text text-anchor="start" x="99.6942" y="-866.9" font-family="Arial" font-size="14.00" fill="#666666">[timestamp without time zone]</text>
<polygon fill="none" stroke="#000000" points="46,-825.5 46,-855.5 456,-855.5 456,-825.5 46,-825.5"/>
<text text-anchor="start" x="53" y="-836.9" font-family="Arial" font-size="14.00" fill="#000000">_21in </text>
<text text-anchor="start" x="91.1276" y="-836.9" font-family="Arial" font-size="14.00" fill="#666666">[timestamp without time zone]</text>
<polygon fill="none" stroke="#000000" points="46,-795.5 46,-825.5 456,-825.5 456,-795.5 46,-795.5"/>
<text text-anchor="start" x="53" y="-806.9" font-family="Arial" font-size="14.00" fill="#000000">_21out </text>
<text text-anchor="start" x="99.6942" y="-806.9" font-family="Arial" font-size="14.00" fill="#666666">[timestamp without time zone]</text>
<polygon fill="none" stroke="#000000" points="46,-765.5 46,-795.5 456,-795.5 456,-765.5 46,-765.5"/>
<text text-anchor="start" x="53" y="-776.9" font-family="Arial" font-size="14.00" fill="#000000">_22in </text>
<text text-anchor="start" x="91.1276" y="-776.9" font-family="Arial" font-size="14.00" fill="#666666">[timestamp without time zone]</text>
<polygon fill="none" stroke="#000000" points="46,-735.5 46,-765.5 456,-765.5 456,-735.5 46,-735.5"/>
<text text-anchor="start" x="53" y="-746.9" font-family="Arial" font-size="14.00" fill="#000000">_22out </text>
<text text-anchor="start" x="99.6942" y="-746.9" font-family="Arial" font-size="14.00" fill="#666666">[timestamp without time zone]</text>
<polygon fill="none" stroke="#000000" points="46,-705.5 46,-735.5 456,-735.5 456,-705.5 46,-705.5"/>
<text text-anchor="start" x="53" y="-716.9" font-family="Arial" font-size="14.00" fill="#000000">_23in </text>
<text text-anchor="start" x="91.1276" y="-716.9" font-family="Arial" font-size="14.00" fill="#666666">[timestamp without time zone]</text>
<polygon fill="none" stroke="#000000" points="46,-675.5 46,-705.5 456,-705.5 456,-675.5 46,-675.5"/>
<text text-anchor="start" x="53" y="-686.9" font-family="Arial" font-size="14.00" fill="#000000">_23out </text>
<text text-anchor="start" x="99.6942" y="-686.9" font-family="Arial" font-size="14.00" fill="#666666">[timestamp without time zone]</text>
<polygon fill="none" stroke="#000000" points="46,-645.5 46,-675.5 456,-675.5 456,-645.5 46,-645.5"/>
<text text-anchor="start" x="53" y="-656.9" font-family="Arial" font-size="14.00" fill="#000000">_24in </text>
<text text-anchor="start" x="91.1276" y="-656.9" font-family="Arial" font-size="14.00" fill="#666666">[timestamp without time zone]</text>
<polygon fill="none" stroke="#000000" points="46,-615.5 46,-645.5 456,-645.5 456,-615.5 46,-615.5"/>
<text text-anchor="start" x="53" y="-626.9" font-family="Arial" font-size="14.00" fill="#000000">_24out </text>
<text text-anchor="start" x="99.6942" y="-626.9" font-family="Arial" font-size="14.00" fill="#666666">[timestamp without time zone]</text>
<polygon fill="none" stroke="#000000" points="46,-585.5 46,-615.5 456,-615.5 456,-585.5 46,-585.5"/>
<text text-anchor="start" x="53" y="-596.9" font-family="Arial" font-size="14.00" fill="#000000">_25in </text>
<text text-anchor="start" x="91.1276" y="-596.9" font-family="Arial" font-size="14.00" fill="#666666">[timestamp without time zone]</text>
<polygon fill="none" stroke="#000000" points="46,-555.5 46,-585.5 456,-585.5 456,-555.5 46,-555.5"/>
<text text-anchor="start" x="53" y="-566.9" font-family="Arial" font-size="14.00" fill="#000000">_25out </text>
<text text-anchor="start" x="99.6942" y="-566.9" font-family="Arial" font-size="14.00" fill="#666666">[timestamp without time zone]</text>
<polygon fill="none" stroke="#000000" points="46,-525.5 46,-555.5 456,-555.5 456,-525.5 46,-525.5"/>
<text text-anchor="start" x="53" y="-536.9" font-family="Arial" font-size="14.00" fill="#000000">_26in </text>
<text text-anchor="start" x="91.1276" y="-536.9" font-family="Arial" font-size="14.00" fill="#666666">[timestamp without time zone]</text>
<polygon fill="none" stroke="#000000" points="46,-495.5 46,-525.5 456,-525.5 456,-495.5 46,-495.5"/>
<text text-anchor="start" x="53" y="-506.9" font-family="Arial" font-size="14.00" fill="#000000">_26out </text>
<text text-anchor="start" x="99.6942" y="-506.9" font-family="Arial" font-size="14.00" fill="#666666">[timestamp without time zone]</text>
<polygon fill="none" stroke="#000000" points="46,-465.5 46,-495.5 456,-495.5 456,-465.5 46,-465.5"/>
<text text-anchor="start" x="53" y="-476.9" font-family="Arial" font-size="14.00" fill="#000000">_27in </text>
<text text-anchor="start" x="91.1276" y="-476.9" font-family="Arial" font-size="14.00" fill="#666666">[timestamp without time zone]</text>
<polygon fill="none" stroke="#000000" points="46,-435.5 46,-465.5 456,-465.5 456,-435.5 46,-435.5"/>
<text text-anchor="start" x="53" y="-446.9" font-family="Arial" font-size="14.00" fill="#000000">_27out </text>
<text text-anchor="start" x="99.6942" y="-446.9" font-family="Arial" font-size="14.00" fill="#666666">[timestamp without time zone]</text>
<polygon fill="none" stroke="#000000" points="46,-405.5 46,-435.5 456,-435.5 456,-405.5 46,-405.5"/>
<text text-anchor="start" x="53" y="-416.9" font-family="Arial" font-size="14.00" fill="#000000">_28in </text>
<text text-anchor="start" x="91.1276" y="-416.9" font-family="Arial" font-size="14.00" fill="#666666">[timestamp without time zone]</text>
<polygon fill="none" stroke="#000000" points="46,-375.5 46,-405.5 456,-405.5 456,-375.5 46,-375.5"/>
<text text-anchor="start" x="53" y="-386.9" font-family="Arial" font-size="14.00" fill="#000000">_28out </text>
<text text-anchor="start" x="99.6942" y="-386.9" font-family="Arial" font-size="14.00" fill="#666666">[timestamp without time zone]</text>
<polygon fill="none" stroke="#000000" points="46,-345.5 46,-375.5 456,-375.5 456,-345.5 46,-345.5"/>
<text text-anchor="start" x="53" y="-356.9" font-family="Arial" font-size="14.00" fill="#000000">_29in </text>
<text text-anchor="start" x="91.1276" y="-356.9" font-family="Arial" font-size="14.00" fill="#666666">[timestamp without time zone]</text>
<polygon fill="none" stroke="#000000" points="46,-315.5 46,-345.5 456,-345.5 456,-315.5 46,-315.5"/>
<text text-anchor="start" x="53" y="-326.9" font-family="Arial" font-size="14.00" fill="#000000">_29out </text>
<text text-anchor="start" x="99.6942" y="-326.9" font-family="Arial" font-size="14.00" fill="#666666">[timestamp without time zone]</text>
<polygon fill="none" stroke="#000000" points="46,-285.5 46,-315.5 456,-315.5 456,-285.5 46,-285.5"/>
<text text-anchor="start" x="53" y="-296.9" font-family="Arial" font-size="14.00" fill="#000000">_30in </text>
<text text-anchor="start" x="91.1276" y="-296.9" font-family="Arial" font-size="14.00" fill="#666666">[timestamp without time zone]</text>
<polygon fill="none" stroke="#000000" points="46,-255.5 46,-285.5 456,-285.5 456,-255.5 46,-255.5"/>
<text text-anchor="start" x="53" y="-266.9" font-family="Arial" font-size="14.00" fill="#000000">_30out </text>
<text text-anchor="start" x="99.6942" y="-266.9" font-family="Arial" font-size="14.00" fill="#666666">[timestamp without time zone]</text>
<polygon fill="none" stroke="#000000" points="46,-225.5 46,-255.5 456,-255.5 456,-225.5 46,-225.5"/>
<text text-anchor="start" x="53" y="-236.9" font-family="Arial" font-size="14.00" fill="#000000">_31in </text>
<text text-anchor="start" x="91.1276" y="-236.9" font-family="Arial" font-size="14.00" fill="#666666">[timestamp without time zone]</text>
<polygon fill="none" stroke="#000000" points="46,-195.5 46,-225.5 456,-225.5 456,-195.5 46,-195.5"/>
<text text-anchor="start" x="53" y="-206.9" font-family="Arial" font-size="14.00" fill="#000000">_31out </text>
<text text-anchor="start" x="99.6942" y="-206.9" font-family="Arial" font-size="14.00" fill="#666666">[timestamp without time zone]</text>
<polygon fill="none" stroke="#000000" points="46,-165.5 46,-195.5 456,-195.5 456,-165.5 46,-165.5"/>
<text text-anchor="start" x="53" y="-176.9" font-family="Arial" font-size="14.00" fill="#000000">totallwp </text>
<text text-anchor="start" x="104.3394" y="-176.9" font-family="Arial" font-size="14.00" fill="#666666">[integer]</text>
<polygon fill="none" stroke="#000000" points="46,-135.5 46,-165.5 456,-165.5 456,-135.5 46,-135.5"/>
<text text-anchor="start" x="53" y="-146.9" font-family="Arial" font-size="14.00" fill="#000000">totalpaidleave </text>
<text text-anchor="start" x="143.2524" y="-146.9" font-family="Arial" font-size="14.00" fill="#666666">[smallint]</text>
<polygon fill="none" stroke="#000000" points="46,-105.5 46,-135.5 456,-135.5 456,-105.5 46,-105.5"/>
<text text-anchor="start" x="53" y="-116.9" font-family="Arial" font-size="14.00" fill="#000000">editlog </text>
<text text-anchor="start" x="98.1248" y="-116.9" font-family="Arial" font-size="14.00" fill="#666666">[text]</text>
<polygon fill="none" stroke="#000000" points="46,-75.5 46,-105.5 456,-105.5 456,-75.5 46,-75.5"/>
<text text-anchor="start" x="53" y="-86.9" font-family="Arial" font-size="14.00" fill="#000000">updatedby </text>
<text text-anchor="start" x="122.2594" y="-86.9" font-family="Arial" font-size="14.00" fill="#666666">[integer]</text>
<polygon fill="none" stroke="#000000" points="46,-45.5 46,-75.5 456,-75.5 456,-45.5 46,-45.5"/>
<text text-anchor="start" x="53" y="-56.9" font-family="Arial" font-size="14.00" fill="#000000">updatedon </text>
<text text-anchor="start" x="123.042" y="-56.9" font-family="Arial" font-size="14.00" fill="#666666">[timestamp(6) without time zone]</text>
<polygon fill="none" stroke="#000000" stroke-width="3" points="44.5,-44.5 44.5,-2182.5 457.5,-2182.5 457.5,-44.5 44.5,-44.5"/>
</g>
</g>
</svg>
