<?xml version="1.0" encoding="UTF-8" standalone="no"?>
<!DOCTYPE svg PUBLIC "-//W3C//DTD SVG 1.1//EN"
 "http://www.w3.org/Graphics/SVG/1.1/DTD/svg11.dtd">
<!-- Generated by graphviz version 2.40.1 (20161225.0304)
 -->
<!-- Title: public.sale_dlnadditionalunitdetail Pages: 1 -->
<svg width="509pt" height="345pt"
 viewBox="0.00 0.00 509.00 345.00" xmlns="http://www.w3.org/2000/svg" xmlns:xlink="http://www.w3.org/1999/xlink">
<g id="graph0" class="graph" transform="scale(1 1) rotate(0) translate(4 341)">
<title>public.sale_dlnadditionalunitdetail</title>
<polygon fill="#ffffff" stroke="transparent" points="-4,4 -4,-341 505,-341 505,4 -4,4"/>
<!-- public.sale_dlnadditionalunitdetail -->
<g id="node1" class="node">
<title>public.sale_dlnadditionalunitdetail</title>
<polygon fill="#efefef" stroke="transparent" points="46.5,-255.5 46.5,-290.5 455.5,-290.5 455.5,-255.5 46.5,-255.5"/>
<polygon fill="none" stroke="#000000" points="46.5,-255.5 46.5,-290.5 455.5,-290.5 455.5,-255.5 46.5,-255.5"/>
<text text-anchor="start" x="53.1817" y="-268.3" font-family="Arial Bold" font-size="18.00" fill="#000000">public.sale_dlnadditionalunitdetail</text>
<text text-anchor="start" x="321.2503" y="-268.3" font-family="Arial" font-size="14.00" fill="#000000">    </text>
<text text-anchor="start" x="355.4551" y="-268.3" font-family="Arial" font-size="14.00" fill="#666666">[BASE TABLE]</text>
<polygon fill="none" stroke="#000000" points="46.5,-225.5 46.5,-255.5 455.5,-255.5 455.5,-225.5 46.5,-225.5"/>
<text text-anchor="start" x="53.5" y="-236.9" font-family="Arial" font-size="14.00" fill="#000000">dlnunitid </text>
<text text-anchor="start" x="109.514" y="-236.9" font-family="Arial" font-size="14.00" fill="#666666">[integer]</text>
<polygon fill="none" stroke="#000000" points="46.5,-195.5 46.5,-225.5 455.5,-225.5 455.5,-195.5 46.5,-195.5"/>
<text text-anchor="start" x="53.5" y="-206.9" font-family="Arial" font-size="14.00" fill="#000000">dlnnoteid </text>
<text text-anchor="start" x="114.19" y="-206.9" font-family="Arial" font-size="14.00" fill="#666666">[integer]</text>
<polygon fill="none" stroke="#000000" points="46.5,-165.5 46.5,-195.5 455.5,-195.5 455.5,-165.5 46.5,-165.5"/>
<text text-anchor="start" x="53.5" y="-176.9" font-family="Arial" font-size="14.00" fill="#000000">detailid </text>
<text text-anchor="start" x="101.7314" y="-176.9" font-family="Arial" font-size="14.00" fill="#666666">[integer]</text>
<polygon fill="none" stroke="#000000" points="46.5,-135.5 46.5,-165.5 455.5,-165.5 455.5,-135.5 46.5,-135.5"/>
<text text-anchor="start" x="53.5" y="-146.9" font-family="Arial" font-size="14.00" fill="#000000">itemid </text>
<text text-anchor="start" x="94.7202" y="-146.9" font-family="Arial" font-size="14.00" fill="#666666">[integer]</text>
<polygon fill="none" stroke="#000000" points="46.5,-105.5 46.5,-135.5 455.5,-135.5 455.5,-105.5 46.5,-105.5"/>
<text text-anchor="start" x="53.5" y="-116.9" font-family="Arial" font-size="14.00" fill="#000000">itemunitid </text>
<text text-anchor="start" x="117.2826" y="-116.9" font-family="Arial" font-size="14.00" fill="#666666">[integer]</text>
<polygon fill="none" stroke="#000000" points="46.5,-75.5 46.5,-105.5 455.5,-105.5 455.5,-75.5 46.5,-75.5"/>
<text text-anchor="start" x="53.5" y="-86.9" font-family="Arial" font-size="14.00" fill="#000000">unitqty </text>
<text text-anchor="start" x="98.6262" y="-86.9" font-family="Arial" font-size="14.00" fill="#666666">[numeric(20,5)]</text>
<polygon fill="none" stroke="#000000" points="46.5,-45.5 46.5,-75.5 455.5,-75.5 455.5,-45.5 46.5,-45.5"/>
<text text-anchor="start" x="53.5" y="-56.9" font-family="Arial" font-size="14.00" fill="#000000">isfixed </text>
<text text-anchor="start" x="97.0596" y="-56.9" font-family="Arial" font-size="14.00" fill="#666666">[boolean]</text>
<polygon fill="none" stroke="#000000" stroke-width="3" points="44.5,-44.5 44.5,-292.5 456.5,-292.5 456.5,-44.5 44.5,-44.5"/>
</g>
</g>
</svg>
