<?xml version="1.0" encoding="UTF-8" standalone="no"?>
<!DOCTYPE svg PUBLIC "-//W3C//DTD SVG 1.1//EN"
 "http://www.w3.org/Graphics/SVG/1.1/DTD/svg11.dtd">
<!-- Generated by graphviz version 2.40.1 (20161225.0304)
 -->
<!-- Title: public.pm_energymeterconsumption Pages: 1 -->
<svg width="531pt" height="1185pt"
 viewBox="0.00 0.00 531.00 1185.00" xmlns="http://www.w3.org/2000/svg" xmlns:xlink="http://www.w3.org/1999/xlink">
<g id="graph0" class="graph" transform="scale(1 1) rotate(0) translate(4 1181)">
<title>public.pm_energymeterconsumption</title>
<polygon fill="#ffffff" stroke="transparent" points="-4,4 -4,-1181 527,-1181 527,4 -4,4"/>
<!-- public.pm_energymeterconsumption -->
<g id="node1" class="node">
<title>public.pm_energymeterconsumption</title>
<polygon fill="#efefef" stroke="transparent" points="46.5,-1095.5 46.5,-1130.5 477.5,-1130.5 477.5,-1095.5 46.5,-1095.5"/>
<polygon fill="none" stroke="#000000" points="46.5,-1095.5 46.5,-1130.5 477.5,-1130.5 477.5,-1095.5 46.5,-1095.5"/>
<text text-anchor="start" x="53.1882" y="-1108.3" font-family="Arial Bold" font-size="18.00" fill="#000000">public.pm_energymeterconsumption</text>
<text text-anchor="start" x="343.2438" y="-1108.3" font-family="Arial" font-size="14.00" fill="#000000">    </text>
<text text-anchor="start" x="377.4486" y="-1108.3" font-family="Arial" font-size="14.00" fill="#666666">[BASE TABLE]</text>
<polygon fill="none" stroke="#000000" points="46.5,-1065.5 46.5,-1095.5 477.5,-1095.5 477.5,-1065.5 46.5,-1065.5"/>
<text text-anchor="start" x="53.5" y="-1076.9" font-family="Arial" font-size="14.00" fill="#000000">energyconsumptionid </text>
<text text-anchor="start" x="190.4242" y="-1076.9" font-family="Arial" font-size="14.00" fill="#666666">[integer]</text>
<polygon fill="none" stroke="#000000" points="46.5,-1035.5 46.5,-1065.5 477.5,-1065.5 477.5,-1035.5 46.5,-1035.5"/>
<text text-anchor="start" x="53.5" y="-1046.9" font-family="Arial" font-size="14.00" fill="#000000">energyconsumptionno </text>
<text text-anchor="start" x="195.1002" y="-1046.9" font-family="Arial" font-size="14.00" fill="#666666">[varchar(30)]</text>
<polygon fill="none" stroke="#000000" points="46.5,-1005.5 46.5,-1035.5 477.5,-1035.5 477.5,-1005.5 46.5,-1005.5"/>
<text text-anchor="start" x="53.5" y="-1016.9" font-family="Arial" font-size="14.00" fill="#000000">meterid </text>
<text text-anchor="start" x="104.0568" y="-1016.9" font-family="Arial" font-size="14.00" fill="#666666">[integer]</text>
<polygon fill="none" stroke="#000000" points="46.5,-975.5 46.5,-1005.5 477.5,-1005.5 477.5,-975.5 46.5,-975.5"/>
<text text-anchor="start" x="53.5" y="-986.9" font-family="Arial" font-size="14.00" fill="#000000">fromdate </text>
<text text-anchor="start" x="112.6234" y="-986.9" font-family="Arial" font-size="14.00" fill="#666666">[timestamp without time zone]</text>
<polygon fill="none" stroke="#000000" points="46.5,-945.5 46.5,-975.5 477.5,-975.5 477.5,-945.5 46.5,-945.5"/>
<text text-anchor="start" x="53.5" y="-956.9" font-family="Arial" font-size="14.00" fill="#000000">todate </text>
<text text-anchor="start" x="96.3022" y="-956.9" font-family="Arial" font-size="14.00" fill="#666666">[timestamp without time zone]</text>
<polygon fill="none" stroke="#000000" points="46.5,-915.5 46.5,-945.5 477.5,-945.5 477.5,-915.5 46.5,-915.5"/>
<text text-anchor="start" x="53.5" y="-926.9" font-family="Arial" font-size="14.00" fill="#000000">tariffrate </text>
<text text-anchor="start" x="108.7286" y="-926.9" font-family="Arial" font-size="14.00" fill="#666666">[numeric(18,2)]</text>
<polygon fill="none" stroke="#000000" points="46.5,-885.5 46.5,-915.5 477.5,-915.5 477.5,-885.5 46.5,-885.5"/>
<text text-anchor="start" x="53.5" y="-896.9" font-family="Arial" font-size="14.00" fill="#000000">powerfactor </text>
<text text-anchor="start" x="130.5126" y="-896.9" font-family="Arial" font-size="14.00" fill="#666666">[numeric(18,4)]</text>
<polygon fill="none" stroke="#000000" points="46.5,-855.5 46.5,-885.5 477.5,-885.5 477.5,-855.5 46.5,-855.5"/>
<text text-anchor="start" x="53.5" y="-866.9" font-family="Arial" font-size="14.00" fill="#000000">startingkwh </text>
<text text-anchor="start" x="128.176" y="-866.9" font-family="Arial" font-size="14.00" fill="#666666">[numeric(18,2)]</text>
<polygon fill="none" stroke="#000000" points="46.5,-825.5 46.5,-855.5 477.5,-855.5 477.5,-825.5 46.5,-825.5"/>
<text text-anchor="start" x="53.5" y="-836.9" font-family="Arial" font-size="14.00" fill="#000000">endingkwh </text>
<text text-anchor="start" x="124.2994" y="-836.9" font-family="Arial" font-size="14.00" fill="#666666">[numeric(18,2)]</text>
<polygon fill="none" stroke="#000000" points="46.5,-795.5 46.5,-825.5 477.5,-825.5 477.5,-795.5 46.5,-795.5"/>
<text text-anchor="start" x="53.5" y="-806.9" font-family="Arial" font-size="14.00" fill="#000000">startingkvah </text>
<text text-anchor="start" x="132.852" y="-806.9" font-family="Arial" font-size="14.00" fill="#666666">[numeric(18,2)]</text>
<polygon fill="none" stroke="#000000" points="46.5,-765.5 46.5,-795.5 477.5,-795.5 477.5,-765.5 46.5,-765.5"/>
<text text-anchor="start" x="53.5" y="-776.9" font-family="Arial" font-size="14.00" fill="#000000">endingkvah </text>
<text text-anchor="start" x="128.9754" y="-776.9" font-family="Arial" font-size="14.00" fill="#666666">[numeric(18,2)]</text>
<polygon fill="none" stroke="#000000" points="46.5,-735.5 46.5,-765.5 477.5,-765.5 477.5,-735.5 46.5,-735.5"/>
<text text-anchor="start" x="53.5" y="-746.9" font-family="Arial" font-size="14.00" fill="#000000">startingkvarh </text>
<text text-anchor="start" x="137.5126" y="-746.9" font-family="Arial" font-size="14.00" fill="#666666">[numeric(18,2)]</text>
<polygon fill="none" stroke="#000000" points="46.5,-705.5 46.5,-735.5 477.5,-735.5 477.5,-705.5 46.5,-705.5"/>
<text text-anchor="start" x="53.5" y="-716.9" font-family="Arial" font-size="14.00" fill="#000000">endingkvarh </text>
<text text-anchor="start" x="133.636" y="-716.9" font-family="Arial" font-size="14.00" fill="#666666">[numeric(18,2)]</text>
<polygon fill="none" stroke="#000000" points="46.5,-675.5 46.5,-705.5 477.5,-705.5 477.5,-675.5 46.5,-675.5"/>
<text text-anchor="start" x="53.5" y="-686.9" font-family="Arial" font-size="14.00" fill="#000000">startingmd </text>
<text text-anchor="start" x="122.73" y="-686.9" font-family="Arial" font-size="14.00" fill="#666666">[numeric(18,2)]</text>
<polygon fill="none" stroke="#000000" points="46.5,-645.5 46.5,-675.5 477.5,-675.5 477.5,-645.5 46.5,-645.5"/>
<text text-anchor="start" x="53.5" y="-656.9" font-family="Arial" font-size="14.00" fill="#000000">endingmd </text>
<text text-anchor="start" x="118.8534" y="-656.9" font-family="Arial" font-size="14.00" fill="#666666">[numeric(18,2)]</text>
<polygon fill="none" stroke="#000000" points="46.5,-615.5 46.5,-645.5 477.5,-645.5 477.5,-615.5 46.5,-615.5"/>
<text text-anchor="start" x="53.5" y="-626.9" font-family="Arial" font-size="14.00" fill="#000000">seriesno </text>
<text text-anchor="start" x="110.2882" y="-626.9" font-family="Arial" font-size="14.00" fill="#666666">[integer]</text>
<polygon fill="none" stroke="#000000" points="46.5,-585.5 46.5,-615.5 477.5,-615.5 477.5,-585.5 46.5,-585.5"/>
<text text-anchor="start" x="53.5" y="-596.9" font-family="Arial" font-size="14.00" fill="#000000">seriesid </text>
<text text-anchor="start" x="105.6122" y="-596.9" font-family="Arial" font-size="14.00" fill="#666666">[integer]</text>
<polygon fill="none" stroke="#000000" points="46.5,-555.5 46.5,-585.5 477.5,-585.5 477.5,-555.5 46.5,-555.5"/>
<text text-anchor="start" x="53.5" y="-566.9" font-family="Arial" font-size="14.00" fill="#000000">seriesvouchertype </text>
<text text-anchor="start" x="170.9698" y="-566.9" font-family="Arial" font-size="14.00" fill="#666666">[integer]</text>
<polygon fill="none" stroke="#000000" points="46.5,-525.5 46.5,-555.5 477.5,-555.5 477.5,-525.5 46.5,-525.5"/>
<text text-anchor="start" x="53.5" y="-536.9" font-family="Arial" font-size="14.00" fill="#000000">branchid </text>
<text text-anchor="start" x="111.0708" y="-536.9" font-family="Arial" font-size="14.00" fill="#666666">[integer]</text>
<polygon fill="none" stroke="#000000" points="46.5,-495.5 46.5,-525.5 477.5,-525.5 477.5,-495.5 46.5,-495.5"/>
<text text-anchor="start" x="53.5" y="-506.9" font-family="Arial" font-size="14.00" fill="#000000">isactive </text>
<text text-anchor="start" x="104.0596" y="-506.9" font-family="Arial" font-size="14.00" fill="#666666">[boolean]</text>
<polygon fill="none" stroke="#000000" points="46.5,-465.5 46.5,-495.5 477.5,-495.5 477.5,-465.5 46.5,-465.5"/>
<text text-anchor="start" x="53.5" y="-476.9" font-family="Arial" font-size="14.00" fill="#000000">isauthorized </text>
<text text-anchor="start" x="132.8506" y="-476.9" font-family="Arial" font-size="14.00" fill="#666666">[boolean]</text>
<polygon fill="none" stroke="#000000" points="46.5,-435.5 46.5,-465.5 477.5,-465.5 477.5,-435.5 46.5,-435.5"/>
<text text-anchor="start" x="53.5" y="-446.9" font-family="Arial" font-size="14.00" fill="#000000">authorizedby </text>
<text text-anchor="start" x="137.5266" y="-446.9" font-family="Arial" font-size="14.00" fill="#666666">[integer]</text>
<polygon fill="none" stroke="#000000" points="46.5,-405.5 46.5,-435.5 477.5,-435.5 477.5,-405.5 46.5,-405.5"/>
<text text-anchor="start" x="53.5" y="-416.9" font-family="Arial" font-size="14.00" fill="#000000">authorizedon </text>
<text text-anchor="start" x="138.3092" y="-416.9" font-family="Arial" font-size="14.00" fill="#666666">[timestamp without time zone]</text>
<polygon fill="none" stroke="#000000" points="46.5,-375.5 46.5,-405.5 477.5,-405.5 477.5,-375.5 46.5,-375.5"/>
<text text-anchor="start" x="53.5" y="-386.9" font-family="Arial" font-size="14.00" fill="#000000">editlog </text>
<text text-anchor="start" x="98.6248" y="-386.9" font-family="Arial" font-size="14.00" fill="#666666">[text]</text>
<polygon fill="none" stroke="#000000" points="46.5,-345.5 46.5,-375.5 477.5,-375.5 477.5,-345.5 46.5,-345.5"/>
<text text-anchor="start" x="53.5" y="-356.9" font-family="Arial" font-size="14.00" fill="#000000">createdby </text>
<text text-anchor="start" x="118.8548" y="-356.9" font-family="Arial" font-size="14.00" fill="#666666">[integer]</text>
<polygon fill="none" stroke="#000000" points="46.5,-315.5 46.5,-345.5 477.5,-345.5 477.5,-315.5 46.5,-315.5"/>
<text text-anchor="start" x="53.5" y="-326.9" font-family="Arial" font-size="14.00" fill="#000000">createdon </text>
<text text-anchor="start" x="119.6374" y="-326.9" font-family="Arial" font-size="14.00" fill="#666666">[timestamp without time zone]</text>
<polygon fill="none" stroke="#000000" points="46.5,-285.5 46.5,-315.5 477.5,-315.5 477.5,-285.5 46.5,-285.5"/>
<text text-anchor="start" x="53.5" y="-296.9" font-family="Arial" font-size="14.00" fill="#000000">headauthorizedby </text>
<text text-anchor="start" x="168.657" y="-296.9" font-family="Arial" font-size="14.00" fill="#666666">[integer]</text>
<polygon fill="none" stroke="#000000" points="46.5,-255.5 46.5,-285.5 477.5,-285.5 477.5,-255.5 46.5,-255.5"/>
<text text-anchor="start" x="53.5" y="-266.9" font-family="Arial" font-size="14.00" fill="#000000">headauthorizedon </text>
<text text-anchor="start" x="169.4396" y="-266.9" font-family="Arial" font-size="14.00" fill="#666666">[timestamp without time zone]</text>
<polygon fill="none" stroke="#000000" points="46.5,-225.5 46.5,-255.5 477.5,-255.5 477.5,-225.5 46.5,-225.5"/>
<text text-anchor="start" x="53.5" y="-236.9" font-family="Arial" font-size="14.00" fill="#000000">inactivedate </text>
<text text-anchor="start" x="132.0806" y="-236.9" font-family="Arial" font-size="14.00" fill="#666666">[timestamp without time zone]</text>
<polygon fill="none" stroke="#000000" points="46.5,-195.5 46.5,-225.5 477.5,-225.5 477.5,-195.5 46.5,-195.5"/>
<text text-anchor="start" x="53.5" y="-206.9" font-family="Arial" font-size="14.00" fill="#000000">updatedby </text>
<text text-anchor="start" x="122.7594" y="-206.9" font-family="Arial" font-size="14.00" fill="#666666">[integer]</text>
<polygon fill="none" stroke="#000000" points="46.5,-165.5 46.5,-195.5 477.5,-195.5 477.5,-165.5 46.5,-165.5"/>
<text text-anchor="start" x="53.5" y="-176.9" font-family="Arial" font-size="14.00" fill="#000000">updatedon </text>
<text text-anchor="start" x="123.542" y="-176.9" font-family="Arial" font-size="14.00" fill="#666666">[timestamp(6) without time zone]</text>
<polygon fill="none" stroke="#000000" points="46.5,-135.5 46.5,-165.5 477.5,-165.5 477.5,-135.5 46.5,-135.5"/>
<text text-anchor="start" x="53.5" y="-146.9" font-family="Arial" font-size="14.00" fill="#000000">startingkvarhlagg </text>
<text text-anchor="start" x="163.967" y="-146.9" font-family="Arial" font-size="14.00" fill="#666666">[numeric(18,2)]</text>
<polygon fill="none" stroke="#000000" points="46.5,-105.5 46.5,-135.5 477.5,-135.5 477.5,-105.5 46.5,-105.5"/>
<text text-anchor="start" x="53.5" y="-116.9" font-family="Arial" font-size="14.00" fill="#000000">endingkvarhlagg </text>
<text text-anchor="start" x="160.0904" y="-116.9" font-family="Arial" font-size="14.00" fill="#666666">[numeric(18,2)]</text>
<polygon fill="none" stroke="#000000" points="46.5,-75.5 46.5,-105.5 477.5,-105.5 477.5,-75.5 46.5,-75.5"/>
<text text-anchor="start" x="53.5" y="-86.9" font-family="Arial" font-size="14.00" fill="#000000">startingkvarhlead </text>
<text text-anchor="start" x="163.967" y="-86.9" font-family="Arial" font-size="14.00" fill="#666666">[numeric(18,2)]</text>
<polygon fill="none" stroke="#000000" points="46.5,-45.5 46.5,-75.5 477.5,-75.5 477.5,-45.5 46.5,-45.5"/>
<text text-anchor="start" x="53.5" y="-56.9" font-family="Arial" font-size="14.00" fill="#000000">endingkvarhlead </text>
<text text-anchor="start" x="160.0904" y="-56.9" font-family="Arial" font-size="14.00" fill="#666666">[numeric(18,2)]</text>
<polygon fill="none" stroke="#000000" stroke-width="3" points="44.5,-44.5 44.5,-1132.5 478.5,-1132.5 478.5,-44.5 44.5,-44.5"/>
</g>
</g>
</svg>
