<?xml version="1.0" encoding="UTF-8" standalone="no"?>
<!DOCTYPE svg PUBLIC "-//W3C//DTD SVG 1.1//EN"
 "http://www.w3.org/Graphics/SVG/1.1/DTD/svg11.dtd">
<!-- Generated by graphviz version 2.40.1 (20161225.0304)
 -->
<!-- Title: public.pay_attendancewithleave_details Pages: 1 -->
<svg width="558pt" height="375pt"
 viewBox="0.00 0.00 558.00 375.00" xmlns="http://www.w3.org/2000/svg" xmlns:xlink="http://www.w3.org/1999/xlink">
<g id="graph0" class="graph" transform="scale(1 1) rotate(0) translate(4 371)">
<title>public.pay_attendancewithleave_details</title>
<polygon fill="#ffffff" stroke="transparent" points="-4,4 -4,-371 554,-371 554,4 -4,4"/>
<!-- public.pay_attendancewithleave_details -->
<g id="node1" class="node">
<title>public.pay_attendancewithleave_details</title>
<polygon fill="#efefef" stroke="transparent" points="46,-285.5 46,-320.5 504,-320.5 504,-285.5 46,-285.5"/>
<polygon fill="none" stroke="#000000" points="46,-285.5 46,-320.5 504,-320.5 504,-285.5 46,-285.5"/>
<text text-anchor="start" x="52.6657" y="-298.3" font-family="Arial Bold" font-size="18.00" fill="#000000">public.pay_attendancewithleave_details</text>
<text text-anchor="start" x="369.7663" y="-298.3" font-family="Arial" font-size="14.00" fill="#000000">    </text>
<text text-anchor="start" x="403.9711" y="-298.3" font-family="Arial" font-size="14.00" fill="#666666">[BASE TABLE]</text>
<polygon fill="none" stroke="#000000" points="46,-255.5 46,-285.5 504,-285.5 504,-255.5 46,-255.5"/>
<text text-anchor="start" x="53" y="-266.9" font-family="Arial" font-size="14.00" fill="#000000">attendancewithleaveid </text>
<text text-anchor="start" x="195.38" y="-266.9" font-family="Arial" font-size="14.00" fill="#666666">[integer]</text>
<polygon fill="none" stroke="#000000" points="46,-225.5 46,-255.5 504,-255.5 504,-225.5 46,-225.5"/>
<text text-anchor="start" x="53" y="-236.9" font-family="Arial" font-size="14.00" fill="#000000">attendancemasterid </text>
<text text-anchor="start" x="179.8162" y="-236.9" font-family="Arial" font-size="14.00" fill="#666666">[integer]</text>
<polygon fill="none" stroke="#000000" points="46,-195.5 46,-225.5 504,-225.5 504,-195.5 46,-195.5"/>
<text text-anchor="start" x="53" y="-206.9" font-family="Arial" font-size="14.00" fill="#000000">leaveid </text>
<text text-anchor="start" x="101.2342" y="-206.9" font-family="Arial" font-size="14.00" fill="#666666">[integer]</text>
<polygon fill="none" stroke="#000000" points="46,-165.5 46,-195.5 504,-195.5 504,-165.5 46,-165.5"/>
<text text-anchor="start" x="53" y="-176.9" font-family="Arial" font-size="14.00" fill="#000000">noofleave </text>
<text text-anchor="start" x="117.5834" y="-176.9" font-family="Arial" font-size="14.00" fill="#666666">[numeric(18,2)]</text>
<polygon fill="none" stroke="#000000" points="46,-135.5 46,-165.5 504,-165.5 504,-135.5 46,-135.5"/>
<text text-anchor="start" x="53" y="-146.9" font-family="Arial" font-size="14.00" fill="#000000">startingdate </text>
<text text-anchor="start" x="130.0252" y="-146.9" font-family="Arial" font-size="14.00" fill="#666666">[date]</text>
<polygon fill="none" stroke="#000000" points="46,-105.5 46,-135.5 504,-135.5 504,-105.5 46,-105.5"/>
<text text-anchor="start" x="53" y="-116.9" font-family="Arial" font-size="14.00" fill="#000000">endingdate </text>
<text text-anchor="start" x="126.1486" y="-116.9" font-family="Arial" font-size="14.00" fill="#666666">[date]</text>
<polygon fill="none" stroke="#000000" points="46,-75.5 46,-105.5 504,-105.5 504,-75.5 46,-75.5"/>
<text text-anchor="start" x="53" y="-86.9" font-family="Arial" font-size="14.00" fill="#000000">balance </text>
<text text-anchor="start" x="105.9102" y="-86.9" font-family="Arial" font-size="14.00" fill="#666666">[numeric(18,2)]</text>
<polygon fill="none" stroke="#000000" points="46,-45.5 46,-75.5 504,-75.5 504,-45.5 46,-45.5"/>
<text text-anchor="start" x="53" y="-56.9" font-family="Arial" font-size="14.00" fill="#000000">remarks </text>
<text text-anchor="start" x="107.4376" y="-56.9" font-family="Arial" font-size="14.00" fill="#666666">[varchar]</text>
<polygon fill="none" stroke="#000000" stroke-width="3" points="44.5,-44.5 44.5,-322.5 505.5,-322.5 505.5,-44.5 44.5,-44.5"/>
</g>
</g>
</svg>
