<?xml version="1.0" encoding="UTF-8" standalone="no"?>
<!DOCTYPE svg PUBLIC "-//W3C//DTD SVG 1.1//EN"
 "http://www.w3.org/Graphics/SVG/1.1/DTD/svg11.dtd">
<!-- Generated by graphviz version 2.40.1 (20161225.0304)
 -->
<!-- Title: public.stor_item_lpcategory_mapping Pages: 1 -->
<svg width="539pt" height="255pt"
 viewBox="0.00 0.00 539.00 255.00" xmlns="http://www.w3.org/2000/svg" xmlns:xlink="http://www.w3.org/1999/xlink">
<g id="graph0" class="graph" transform="scale(1 1) rotate(0) translate(4 251)">
<title>public.stor_item_lpcategory_mapping</title>
<polygon fill="#ffffff" stroke="transparent" points="-4,4 -4,-251 535,-251 535,4 -4,4"/>
<!-- public.stor_item_lpcategory_mapping -->
<g id="node1" class="node">
<title>public.stor_item_lpcategory_mapping</title>
<polygon fill="#efefef" stroke="transparent" points="46.5,-165.5 46.5,-200.5 485.5,-200.5 485.5,-165.5 46.5,-165.5"/>
<polygon fill="none" stroke="#000000" points="46.5,-165.5 46.5,-200.5 485.5,-200.5 485.5,-165.5 46.5,-165.5"/>
<text text-anchor="start" x="53.1859" y="-178.3" font-family="Arial Bold" font-size="18.00" fill="#000000">public.stor_item_lpcategory_mapping</text>
<text text-anchor="start" x="351.2461" y="-178.3" font-family="Arial" font-size="14.00" fill="#000000">    </text>
<text text-anchor="start" x="385.4509" y="-178.3" font-family="Arial" font-size="14.00" fill="#666666">[BASE TABLE]</text>
<polygon fill="none" stroke="#000000" points="46.5,-135.5 46.5,-165.5 485.5,-165.5 485.5,-135.5 46.5,-135.5"/>
<text text-anchor="start" x="53.5" y="-146.9" font-family="Arial" font-size="14.00" fill="#000000">mapping_id </text>
<text text-anchor="start" x="129.7426" y="-146.9" font-family="Arial" font-size="14.00" fill="#666666">[integer]</text>
<polygon fill="none" stroke="#000000" points="46.5,-105.5 46.5,-135.5 485.5,-135.5 485.5,-105.5 46.5,-105.5"/>
<text text-anchor="start" x="53.5" y="-116.9" font-family="Arial" font-size="14.00" fill="#000000">lp_category_id </text>
<text text-anchor="start" x="148.4158" y="-116.9" font-family="Arial" font-size="14.00" fill="#666666">[integer]</text>
<polygon fill="none" stroke="#000000" points="46.5,-75.5 46.5,-105.5 485.5,-105.5 485.5,-75.5 46.5,-75.5"/>
<text text-anchor="start" x="53.5" y="-86.9" font-family="Arial" font-size="14.00" fill="#000000">item_id </text>
<text text-anchor="start" x="102.5028" y="-86.9" font-family="Arial" font-size="14.00" fill="#666666">[integer]</text>
<polygon fill="none" stroke="#000000" points="46.5,-45.5 46.5,-75.5 485.5,-75.5 485.5,-45.5 46.5,-45.5"/>
<text text-anchor="start" x="53.5" y="-56.9" font-family="Arial" font-size="14.00" fill="#000000">wef </text>
<text text-anchor="start" x="79.1704" y="-56.9" font-family="Arial" font-size="14.00" fill="#666666">[timestamp without time zone]</text>
<polygon fill="none" stroke="#000000" stroke-width="3" points="44.5,-44.5 44.5,-202.5 486.5,-202.5 486.5,-44.5 44.5,-44.5"/>
</g>
</g>
</svg>
