<?xml version="1.0" encoding="UTF-8" standalone="no"?>
<!DOCTYPE svg PUBLIC "-//W3C//DTD SVG 1.1//EN"
 "http://www.w3.org/Graphics/SVG/1.1/DTD/svg11.dtd">
<!-- Generated by graphviz version 2.40.1 (20161225.0304)
 -->
<!-- Title: public.prod_activityproductionactivitydetail Pages: 1 -->
<svg width="576pt" height="405pt"
 viewBox="0.00 0.00 576.00 405.00" xmlns="http://www.w3.org/2000/svg" xmlns:xlink="http://www.w3.org/1999/xlink">
<g id="graph0" class="graph" transform="scale(1 1) rotate(0) translate(4 401)">
<title>public.prod_activityproductionactivitydetail</title>
<polygon fill="#ffffff" stroke="transparent" points="-4,4 -4,-401 572,-401 572,4 -4,4"/>
<!-- public.prod_activityproductionactivitydetail -->
<g id="node1" class="node">
<title>public.prod_activityproductionactivitydetail</title>
<polygon fill="#efefef" stroke="transparent" points="46,-315.5 46,-350.5 522,-350.5 522,-315.5 46,-315.5"/>
<polygon fill="none" stroke="#000000" points="46,-315.5 46,-350.5 522,-350.5 522,-315.5 46,-315.5"/>
<text text-anchor="start" x="52.6864" y="-328.3" font-family="Arial Bold" font-size="18.00" fill="#000000">public.prod_activityproductionactivitydetail</text>
<text text-anchor="start" x="387.7456" y="-328.3" font-family="Arial" font-size="14.00" fill="#000000">    </text>
<text text-anchor="start" x="421.9504" y="-328.3" font-family="Arial" font-size="14.00" fill="#666666">[BASE TABLE]</text>
<polygon fill="none" stroke="#000000" points="46,-285.5 46,-315.5 522,-315.5 522,-285.5 46,-285.5"/>
<text text-anchor="start" x="53" y="-296.9" font-family="Arial" font-size="14.00" fill="#000000">activityproductionactivitydetailid </text>
<text text-anchor="start" x="252.1388" y="-296.9" font-family="Arial" font-size="14.00" fill="#666666">[integer]</text>
<polygon fill="none" stroke="#000000" points="46,-255.5 46,-285.5 522,-285.5 522,-255.5 46,-255.5"/>
<text text-anchor="start" x="53" y="-266.9" font-family="Arial" font-size="14.00" fill="#000000">activityproductionid </text>
<text text-anchor="start" x="175.9102" y="-266.9" font-family="Arial" font-size="14.00" fill="#666666">[integer]</text>
<polygon fill="none" stroke="#000000" points="46,-225.5 46,-255.5 522,-255.5 522,-225.5 46,-225.5"/>
<text text-anchor="start" x="53" y="-236.9" font-family="Arial" font-size="14.00" fill="#000000">activityid </text>
<text text-anchor="start" x="110.5568" y="-236.9" font-family="Arial" font-size="14.00" fill="#666666">[integer]</text>
<polygon fill="none" stroke="#000000" points="46,-195.5 46,-225.5 522,-225.5 522,-195.5 46,-195.5"/>
<text text-anchor="start" x="53" y="-206.9" font-family="Arial" font-size="14.00" fill="#000000">employeeid </text>
<text text-anchor="start" x="128.46" y="-206.9" font-family="Arial" font-size="14.00" fill="#666666">[integer]</text>
<polygon fill="none" stroke="#000000" points="46,-165.5 46,-195.5 522,-195.5 522,-165.5 46,-165.5"/>
<text text-anchor="start" x="53" y="-176.9" font-family="Arial" font-size="14.00" fill="#000000">quantity </text>
<text text-anchor="start" x="105.9088" y="-176.9" font-family="Arial" font-size="14.00" fill="#666666">[numeric(15,5)]</text>
<polygon fill="none" stroke="#000000" points="46,-135.5 46,-165.5 522,-165.5 522,-135.5 46,-135.5"/>
<text text-anchor="start" x="53" y="-146.9" font-family="Arial" font-size="14.00" fill="#000000">machineid </text>
<text text-anchor="start" x="120.6774" y="-146.9" font-family="Arial" font-size="14.00" fill="#666666">[integer]</text>
<polygon fill="none" stroke="#000000" points="46,-105.5 46,-135.5 522,-135.5 522,-105.5 46,-105.5"/>
<text text-anchor="start" x="53" y="-116.9" font-family="Arial" font-size="14.00" fill="#000000">shiftid </text>
<text text-anchor="start" x="93.4502" y="-116.9" font-family="Arial" font-size="14.00" fill="#666666">[integer]</text>
<polygon fill="none" stroke="#000000" points="46,-75.5 46,-105.5 522,-105.5 522,-75.5 46,-75.5"/>
<text text-anchor="start" x="53" y="-86.9" font-family="Arial" font-size="14.00" fill="#000000">producemachinedetailid </text>
<text text-anchor="start" x="204.7026" y="-86.9" font-family="Arial" font-size="14.00" fill="#666666">[integer]</text>
<polygon fill="none" stroke="#000000" points="46,-45.5 46,-75.5 522,-75.5 522,-45.5 46,-45.5"/>
<text text-anchor="start" x="53" y="-56.9" font-family="Arial" font-size="14.00" fill="#000000">productiondetailid </text>
<text text-anchor="start" x="166.5848" y="-56.9" font-family="Arial" font-size="14.00" fill="#666666">[integer]</text>
<polygon fill="none" stroke="#000000" stroke-width="3" points="44.5,-44.5 44.5,-352.5 523.5,-352.5 523.5,-44.5 44.5,-44.5"/>
</g>
</g>
</svg>
