<?xml version="1.0" encoding="UTF-8" standalone="no"?>
<!DOCTYPE svg PUBLIC "-//W3C//DTD SVG 1.1//EN"
 "http://www.w3.org/Graphics/SVG/1.1/DTD/svg11.dtd">
<!-- Generated by graphviz version 2.40.1 (20161225.0304)
 -->
<!-- Title: public.view_store_stage_pending_qty_rdi Pages: 1 -->
<svg width="521pt" height="345pt"
 viewBox="0.00 0.00 521.00 345.00" xmlns="http://www.w3.org/2000/svg" xmlns:xlink="http://www.w3.org/1999/xlink">
<g id="graph0" class="graph" transform="scale(1 1) rotate(0) translate(4 341)">
<title>public.view_store_stage_pending_qty_rdi</title>
<polygon fill="#ffffff" stroke="transparent" points="-4,4 -4,-341 517,-341 517,4 -4,4"/>
<!-- public.view_store_stage_pending_qty_rdi -->
<g id="node1" class="node">
<title>public.view_store_stage_pending_qty_rdi</title>
<polygon fill="#efefef" stroke="transparent" points="46.5,-255.5 46.5,-290.5 467.5,-290.5 467.5,-255.5 46.5,-255.5"/>
<polygon fill="none" stroke="#000000" points="46.5,-255.5 46.5,-290.5 467.5,-290.5 467.5,-255.5 46.5,-255.5"/>
<text text-anchor="start" x="53.0704" y="-268.3" font-family="Arial Bold" font-size="18.00" fill="#000000">public.view_store_stage_pending_qty_rdi</text>
<text text-anchor="start" x="383.1652" y="-268.3" font-family="Arial" font-size="14.00" fill="#000000">    </text>
<text text-anchor="start" x="417.37" y="-268.3" font-family="Arial" font-size="14.00" fill="#666666">[VIEW]</text>
<polygon fill="none" stroke="#000000" points="46.5,-225.5 46.5,-255.5 467.5,-255.5 467.5,-225.5 46.5,-225.5"/>
<text text-anchor="start" x="53.5" y="-236.9" font-family="Arial" font-size="14.00" fill="#000000">Part No </text>
<text text-anchor="start" x="104.8408" y="-236.9" font-family="Arial" font-size="14.00" fill="#666666">[varchar(50)]</text>
<polygon fill="none" stroke="#000000" points="46.5,-195.5 46.5,-225.5 467.5,-225.5 467.5,-195.5 46.5,-195.5"/>
<text text-anchor="start" x="53.5" y="-206.9" font-family="Arial" font-size="14.00" fill="#000000">Item Name </text>
<text text-anchor="start" x="125.838" y="-206.9" font-family="Arial" font-size="14.00" fill="#666666">[text]</text>
<polygon fill="none" stroke="#000000" points="46.5,-165.5 46.5,-195.5 467.5,-195.5 467.5,-165.5 46.5,-165.5"/>
<text text-anchor="start" x="53.5" y="-176.9" font-family="Arial" font-size="14.00" fill="#000000">Total Qty In Stock </text>
<text text-anchor="start" x="168.6416" y="-176.9" font-family="Arial" font-size="14.00" fill="#666666">[numeric]</text>
<polygon fill="none" stroke="#000000" points="46.5,-135.5 46.5,-165.5 467.5,-165.5 467.5,-135.5 46.5,-135.5"/>
<text text-anchor="start" x="53.5" y="-146.9" font-family="Arial" font-size="14.00" fill="#000000">Total Qty Pending on PO </text>
<text text-anchor="start" x="212.9978" y="-146.9" font-family="Arial" font-size="14.00" fill="#666666">[numeric]</text>
<polygon fill="none" stroke="#000000" points="46.5,-105.5 46.5,-135.5 467.5,-135.5 467.5,-105.5 46.5,-105.5"/>
<text text-anchor="start" x="53.5" y="-116.9" font-family="Arial" font-size="14.00" fill="#000000">Total Qty in WIP </text>
<text text-anchor="start" x="159.2896" y="-116.9" font-family="Arial" font-size="14.00" fill="#666666">[numeric]</text>
<polygon fill="none" stroke="#000000" points="46.5,-75.5 46.5,-105.5 467.5,-105.5 467.5,-75.5 46.5,-75.5"/>
<text text-anchor="start" x="53.5" y="-86.9" font-family="Arial" font-size="14.00" fill="#000000">LLP </text>
<text text-anchor="start" x="82.2924" y="-86.9" font-family="Arial" font-size="14.00" fill="#666666">[numeric]</text>
<polygon fill="none" stroke="#000000" points="46.5,-45.5 46.5,-75.5 467.5,-75.5 467.5,-45.5 46.5,-45.5"/>
<text text-anchor="start" x="53.5" y="-56.9" font-family="Arial" font-size="14.00" fill="#000000">Standard Rate </text>
<text text-anchor="start" x="147.6444" y="-56.9" font-family="Arial" font-size="14.00" fill="#666666">[numeric]</text>
<polygon fill="none" stroke="#000000" stroke-width="3" points="44.5,-44.5 44.5,-292.5 468.5,-292.5 468.5,-44.5 44.5,-44.5"/>
</g>
</g>
</svg>
