<?xml version="1.0" encoding="UTF-8" standalone="no"?>
<!DOCTYPE svg PUBLIC "-//W3C//DTD SVG 1.1//EN"
 "http://www.w3.org/Graphics/SVG/1.1/DTD/svg11.dtd">
<!-- Generated by graphviz version 2.40.1 (20161225.0304)
 -->
<!-- Title: public.view_party_print Pages: 1 -->
<svg width="374pt" height="1755pt"
 viewBox="0.00 0.00 374.00 1755.00" xmlns="http://www.w3.org/2000/svg" xmlns:xlink="http://www.w3.org/1999/xlink">
<g id="graph0" class="graph" transform="scale(1 1) rotate(0) translate(4 1751)">
<title>public.view_party_print</title>
<polygon fill="#ffffff" stroke="transparent" points="-4,4 -4,-1751 370,-1751 370,4 -4,4"/>
<!-- public.view_party_print -->
<g id="node1" class="node">
<title>public.view_party_print</title>
<polygon fill="#efefef" stroke="transparent" points="46,-1665.5 46,-1700.5 320,-1700.5 320,-1665.5 46,-1665.5"/>
<polygon fill="none" stroke="#000000" points="46,-1665.5 46,-1700.5 320,-1700.5 320,-1665.5 46,-1665.5"/>
<text text-anchor="start" x="52.6058" y="-1678.3" font-family="Arial Bold" font-size="18.00" fill="#000000">public.view_party_print</text>
<text text-anchor="start" x="235.6298" y="-1678.3" font-family="Arial" font-size="14.00" fill="#000000">    </text>
<text text-anchor="start" x="269.8346" y="-1678.3" font-family="Arial" font-size="14.00" fill="#666666">[VIEW]</text>
<polygon fill="none" stroke="#000000" points="46,-1635.5 46,-1665.5 320,-1665.5 320,-1635.5 46,-1635.5"/>
<text text-anchor="start" x="53" y="-1646.9" font-family="Arial" font-size="14.00" fill="#000000">partyid </text>
<text text-anchor="start" x="98.8962" y="-1646.9" font-family="Arial" font-size="14.00" fill="#666666">[integer]</text>
<polygon fill="none" stroke="#000000" points="46,-1605.5 46,-1635.5 320,-1635.5 320,-1605.5 46,-1605.5"/>
<text text-anchor="start" x="53" y="-1616.9" font-family="Arial" font-size="14.00" fill="#000000">partycode </text>
<text text-anchor="start" x="118.3548" y="-1616.9" font-family="Arial" font-size="14.00" fill="#666666">[varchar(300)]</text>
<polygon fill="none" stroke="#000000" points="46,-1575.5 46,-1605.5 320,-1605.5 320,-1575.5 46,-1575.5"/>
<text text-anchor="start" x="53" y="-1586.9" font-family="Arial" font-size="14.00" fill="#000000">vendorcode </text>
<text text-anchor="start" x="130.0294" y="-1586.9" font-family="Arial" font-size="14.00" fill="#666666">[varchar(50)]</text>
<polygon fill="none" stroke="#000000" points="46,-1545.5 46,-1575.5 320,-1575.5 320,-1545.5 46,-1545.5"/>
<text text-anchor="start" x="53" y="-1556.9" font-family="Arial" font-size="14.00" fill="#000000">contactpersonno </text>
<text text-anchor="start" x="160.3758" y="-1556.9" font-family="Arial" font-size="14.00" fill="#666666">[varchar(200)]</text>
<polygon fill="none" stroke="#000000" points="46,-1515.5 46,-1545.5 320,-1545.5 320,-1515.5 46,-1515.5"/>
<text text-anchor="start" x="53" y="-1526.9" font-family="Arial" font-size="14.00" fill="#000000">partyname </text>
<text text-anchor="start" x="123.0154" y="-1526.9" font-family="Arial" font-size="14.00" fill="#666666">[varchar(300)]</text>
<polygon fill="none" stroke="#000000" points="46,-1485.5 46,-1515.5 320,-1515.5 320,-1485.5 46,-1485.5"/>
<text text-anchor="start" x="53" y="-1496.9" font-family="Arial" font-size="14.00" fill="#000000">address </text>
<text text-anchor="start" x="106.6816" y="-1496.9" font-family="Arial" font-size="14.00" fill="#666666">[varchar(1000)]</text>
<polygon fill="none" stroke="#000000" points="46,-1455.5 46,-1485.5 320,-1485.5 320,-1455.5 46,-1455.5"/>
<text text-anchor="start" x="53" y="-1466.9" font-family="Arial" font-size="14.00" fill="#000000">cityname </text>
<text text-anchor="start" x="112.8962" y="-1466.9" font-family="Arial" font-size="14.00" fill="#666666">[varchar(30)]</text>
<polygon fill="none" stroke="#000000" points="46,-1425.5 46,-1455.5 320,-1455.5 320,-1425.5 46,-1425.5"/>
<text text-anchor="start" x="53" y="-1436.9" font-family="Arial" font-size="14.00" fill="#000000">statename </text>
<text text-anchor="start" x="122.2454" y="-1436.9" font-family="Arial" font-size="14.00" fill="#666666">[varchar(50)]</text>
<polygon fill="none" stroke="#000000" points="46,-1395.5 46,-1425.5 320,-1425.5 320,-1395.5 46,-1395.5"/>
<text text-anchor="start" x="53" y="-1406.9" font-family="Arial" font-size="14.00" fill="#000000">countryname </text>
<text text-anchor="start" x="137.798" y="-1406.9" font-family="Arial" font-size="14.00" fill="#666666">[varchar(30)]</text>
<polygon fill="none" stroke="#000000" points="46,-1365.5 46,-1395.5 320,-1395.5 320,-1365.5 46,-1365.5"/>
<text text-anchor="start" x="53" y="-1376.9" font-family="Arial" font-size="14.00" fill="#000000">partyaddress_detailed </text>
<text text-anchor="start" x="194.5974" y="-1376.9" font-family="Arial" font-size="14.00" fill="#666666">[text]</text>
<polygon fill="none" stroke="#000000" points="46,-1335.5 46,-1365.5 320,-1365.5 320,-1335.5 46,-1335.5"/>
<text text-anchor="start" x="53" y="-1346.9" font-family="Arial" font-size="14.00" fill="#000000">partytype </text>
<text text-anchor="start" x="114.4628" y="-1346.9" font-family="Arial" font-size="14.00" fill="#666666">[integer]</text>
<polygon fill="none" stroke="#000000" points="46,-1305.5 46,-1335.5 320,-1335.5 320,-1305.5 46,-1305.5"/>
<text text-anchor="start" x="53" y="-1316.9" font-family="Arial" font-size="14.00" fill="#000000">natureofparty </text>
<text text-anchor="start" x="139.3618" y="-1316.9" font-family="Arial" font-size="14.00" fill="#666666">[integer]</text>
<polygon fill="none" stroke="#000000" points="46,-1275.5 46,-1305.5 320,-1305.5 320,-1275.5 46,-1275.5"/>
<text text-anchor="start" x="53" y="-1286.9" font-family="Arial" font-size="14.00" fill="#000000">ismanufacturer </text>
<text text-anchor="start" x="149.4558" y="-1286.9" font-family="Arial" font-size="14.00" fill="#666666">[boolean]</text>
<polygon fill="none" stroke="#000000" points="46,-1245.5 46,-1275.5 320,-1275.5 320,-1245.5 46,-1245.5"/>
<text text-anchor="start" x="53" y="-1256.9" font-family="Arial" font-size="14.00" fill="#000000">phoneno </text>
<text text-anchor="start" x="111.3688" y="-1256.9" font-family="Arial" font-size="14.00" fill="#666666">[varchar(200)]</text>
<polygon fill="none" stroke="#000000" points="46,-1215.5 46,-1245.5 320,-1245.5 320,-1215.5 46,-1215.5"/>
<text text-anchor="start" x="53" y="-1226.9" font-family="Arial" font-size="14.00" fill="#000000">faxno </text>
<text text-anchor="start" x="91.129" y="-1226.9" font-family="Arial" font-size="14.00" fill="#666666">[varchar(50)]</text>
<polygon fill="none" stroke="#000000" points="46,-1185.5 46,-1215.5 320,-1215.5 320,-1185.5 46,-1185.5"/>
<text text-anchor="start" x="53" y="-1196.9" font-family="Arial" font-size="14.00" fill="#000000">email </text>
<text text-anchor="start" x="90.3296" y="-1196.9" font-family="Arial" font-size="14.00" fill="#666666">[varchar(200)]</text>
<polygon fill="none" stroke="#000000" points="46,-1155.5 46,-1185.5 320,-1185.5 320,-1155.5 46,-1155.5"/>
<text text-anchor="start" x="53" y="-1166.9" font-family="Arial" font-size="14.00" fill="#000000">contactperson </text>
<text text-anchor="start" x="144.8106" y="-1166.9" font-family="Arial" font-size="14.00" fill="#666666">[varchar(200)]</text>
<polygon fill="none" stroke="#000000" points="46,-1125.5 46,-1155.5 320,-1155.5 320,-1125.5 46,-1125.5"/>
<text text-anchor="start" x="53" y="-1136.9" font-family="Arial" font-size="14.00" fill="#000000">openingbalance </text>
<text text-anchor="start" x="155.7124" y="-1136.9" font-family="Arial" font-size="14.00" fill="#666666">[numeric(12,2)]</text>
<polygon fill="none" stroke="#000000" points="46,-1095.5 46,-1125.5 320,-1125.5 320,-1095.5 46,-1095.5"/>
<text text-anchor="start" x="53" y="-1106.9" font-family="Arial" font-size="14.00" fill="#000000">exregistrationno </text>
<text text-anchor="start" x="156.467" y="-1106.9" font-family="Arial" font-size="14.00" fill="#666666">[varchar(20)]</text>
<polygon fill="none" stroke="#000000" points="46,-1065.5 46,-1095.5 320,-1095.5 320,-1065.5 46,-1065.5"/>
<text text-anchor="start" x="53" y="-1076.9" font-family="Arial" font-size="14.00" fill="#000000">eccno </text>
<text text-anchor="start" x="94.2384" y="-1076.9" font-family="Arial" font-size="14.00" fill="#666666">[varchar(50)]</text>
<polygon fill="none" stroke="#000000" points="46,-1035.5 46,-1065.5 320,-1065.5 320,-1035.5 46,-1035.5"/>
<text text-anchor="start" x="53" y="-1046.9" font-family="Arial" font-size="14.00" fill="#000000">range </text>
<text text-anchor="start" x="92.6816" y="-1046.9" font-family="Arial" font-size="14.00" fill="#666666">[varchar(50)]</text>
<polygon fill="none" stroke="#000000" points="46,-1005.5 46,-1035.5 320,-1035.5 320,-1005.5 46,-1005.5"/>
<text text-anchor="start" x="53" y="-1016.9" font-family="Arial" font-size="14.00" fill="#000000">rangeaddress </text>
<text text-anchor="start" x="142.4726" y="-1016.9" font-family="Arial" font-size="14.00" fill="#666666">[varchar(500)]</text>
<polygon fill="none" stroke="#000000" points="46,-975.5 46,-1005.5 320,-1005.5 320,-975.5 46,-975.5"/>
<text text-anchor="start" x="53" y="-986.9" font-family="Arial" font-size="14.00" fill="#000000">division </text>
<text text-anchor="start" x="103.5582" y="-986.9" font-family="Arial" font-size="14.00" fill="#666666">[varchar(50)]</text>
<polygon fill="none" stroke="#000000" points="46,-945.5 46,-975.5 320,-975.5 320,-945.5 46,-945.5"/>
<text text-anchor="start" x="53" y="-956.9" font-family="Arial" font-size="14.00" fill="#000000">divisionaddress </text>
<text text-anchor="start" x="153.3492" y="-956.9" font-family="Arial" font-size="14.00" fill="#666666">[varchar(500)]</text>
<polygon fill="none" stroke="#000000" points="46,-915.5 46,-945.5 320,-945.5 320,-915.5 46,-915.5"/>
<text text-anchor="start" x="53" y="-926.9" font-family="Arial" font-size="14.00" fill="#000000">collectorate </text>
<text text-anchor="start" x="128.4586" y="-926.9" font-family="Arial" font-size="14.00" fill="#666666">[varchar(50)]</text>
<polygon fill="none" stroke="#000000" points="46,-885.5 46,-915.5 320,-915.5 320,-885.5 46,-885.5"/>
<text text-anchor="start" x="53" y="-896.9" font-family="Arial" font-size="14.00" fill="#000000">tinno </text>
<text text-anchor="start" x="87.2356" y="-896.9" font-family="Arial" font-size="14.00" fill="#666666">[varchar(50)]</text>
<polygon fill="none" stroke="#000000" points="46,-855.5 46,-885.5 320,-885.5 320,-855.5 46,-855.5"/>
<text text-anchor="start" x="53" y="-866.9" font-family="Arial" font-size="14.00" fill="#000000">panno </text>
<text text-anchor="start" x="95.8036" y="-866.9" font-family="Arial" font-size="14.00" fill="#666666">[varchar(50)]</text>
<polygon fill="none" stroke="#000000" points="46,-825.5 46,-855.5 320,-855.5 320,-825.5 46,-825.5"/>
<text text-anchor="start" x="53" y="-836.9" font-family="Arial" font-size="14.00" fill="#000000">cstno </text>
<text text-anchor="start" x="90.3464" y="-836.9" font-family="Arial" font-size="14.00" fill="#666666">[varchar(50)]</text>
<polygon fill="none" stroke="#000000" points="46,-795.5 46,-825.5 320,-825.5 320,-795.5 46,-795.5"/>
<text text-anchor="start" x="53" y="-806.9" font-family="Arial" font-size="14.00" fill="#000000">lstno </text>
<text text-anchor="start" x="86.453" y="-806.9" font-family="Arial" font-size="14.00" fill="#666666">[varchar(50)]</text>
<polygon fill="none" stroke="#000000" points="46,-765.5 46,-795.5 320,-795.5 320,-765.5 46,-765.5"/>
<text text-anchor="start" x="53" y="-776.9" font-family="Arial" font-size="14.00" fill="#000000">stregistrationno </text>
<text text-anchor="start" x="152.575" y="-776.9" font-family="Arial" font-size="14.00" fill="#666666">[varchar(50)]</text>
<polygon fill="none" stroke="#000000" points="46,-735.5 46,-765.5 320,-765.5 320,-735.5 46,-735.5"/>
<text text-anchor="start" x="53" y="-746.9" font-family="Arial" font-size="14.00" fill="#000000">isactive </text>
<text text-anchor="start" x="103.5596" y="-746.9" font-family="Arial" font-size="14.00" fill="#666666">[boolean]</text>
<polygon fill="none" stroke="#000000" points="46,-705.5 46,-735.5 320,-735.5 320,-705.5 46,-705.5"/>
<text text-anchor="start" x="53" y="-716.9" font-family="Arial" font-size="14.00" fill="#000000">pincode </text>
<text text-anchor="start" x="105.9102" y="-716.9" font-family="Arial" font-size="14.00" fill="#666666">[varchar(25)]</text>
<polygon fill="none" stroke="#000000" points="46,-675.5 46,-705.5 320,-705.5 320,-675.5 46,-675.5"/>
<text text-anchor="start" x="53" y="-686.9" font-family="Arial" font-size="14.00" fill="#000000">leadtime </text>
<text text-anchor="start" x="109.7854" y="-686.9" font-family="Arial" font-size="14.00" fill="#666666">[numeric(15,2)]</text>
<polygon fill="none" stroke="#000000" points="46,-645.5 46,-675.5 320,-675.5 320,-645.5 46,-645.5"/>
<text text-anchor="start" x="53" y="-656.9" font-family="Arial" font-size="14.00" fill="#000000">leadtimein </text>
<text text-anchor="start" x="120.6746" y="-656.9" font-family="Arial" font-size="14.00" fill="#666666">[smallint]</text>
<polygon fill="none" stroke="#000000" points="46,-615.5 46,-645.5 320,-645.5 320,-615.5 46,-615.5"/>
<text text-anchor="start" x="53" y="-626.9" font-family="Arial" font-size="14.00" fill="#000000">partynameintally </text>
<text text-anchor="start" x="158.791" y="-626.9" font-family="Arial" font-size="14.00" fill="#666666">[varchar(300)]</text>
<polygon fill="none" stroke="#000000" points="46,-585.5 46,-615.5 320,-615.5 320,-585.5 46,-585.5"/>
<text text-anchor="start" x="53" y="-596.9" font-family="Arial" font-size="14.00" fill="#000000">partyprintname </text>
<text text-anchor="start" x="150.2384" y="-596.9" font-family="Arial" font-size="14.00" fill="#666666">[varchar(300)]</text>
<polygon fill="none" stroke="#000000" points="46,-555.5 46,-585.5 320,-585.5 320,-555.5 46,-555.5"/>
<text text-anchor="start" x="53" y="-566.9" font-family="Arial" font-size="14.00" fill="#000000">isoregistrationno </text>
<text text-anchor="start" x="159.5736" y="-566.9" font-family="Arial" font-size="14.00" fill="#666666">[varchar(50)]</text>
<polygon fill="none" stroke="#000000" points="46,-525.5 46,-555.5 320,-555.5 320,-525.5 46,-525.5"/>
<text text-anchor="start" x="53" y="-536.9" font-family="Arial" font-size="14.00" fill="#000000">isoregistrationdate </text>
<text text-anchor="start" x="171.2468" y="-536.9" font-family="Arial" font-size="14.00" fill="#666666">[date]</text>
<polygon fill="none" stroke="#000000" points="46,-495.5 46,-525.5 320,-525.5 320,-495.5 46,-495.5"/>
<text text-anchor="start" x="53" y="-506.9" font-family="Arial" font-size="14.00" fill="#000000">isbillwise </text>
<text text-anchor="start" x="112.0954" y="-506.9" font-family="Arial" font-size="14.00" fill="#666666">[boolean]</text>
<polygon fill="none" stroke="#000000" points="46,-465.5 46,-495.5 320,-495.5 320,-465.5 46,-465.5"/>
<text text-anchor="start" x="53" y="-476.9" font-family="Arial" font-size="14.00" fill="#000000">usedcreditlimit </text>
<text text-anchor="start" x="146.3324" y="-476.9" font-family="Arial" font-size="14.00" fill="#666666">[numeric(12,2)]</text>
<polygon fill="none" stroke="#000000" points="46,-435.5 46,-465.5 320,-465.5 320,-435.5 46,-435.5"/>
<text text-anchor="start" x="53" y="-446.9" font-family="Arial" font-size="14.00" fill="#000000">creditdays </text>
<text text-anchor="start" x="120.6788" y="-446.9" font-family="Arial" font-size="14.00" fill="#666666">[integer]</text>
<polygon fill="none" stroke="#000000" points="46,-405.5 46,-435.5 320,-435.5 320,-405.5 46,-405.5"/>
<text text-anchor="start" x="53" y="-416.9" font-family="Arial" font-size="14.00" fill="#000000">creditlimit </text>
<text text-anchor="start" x="115.9846" y="-416.9" font-family="Arial" font-size="14.00" fill="#666666">[numeric(12,2)]</text>
<polygon fill="none" stroke="#000000" points="46,-375.5 46,-405.5 320,-405.5 320,-375.5 46,-375.5"/>
<text text-anchor="start" x="53" y="-386.9" font-family="Arial" font-size="14.00" fill="#000000">taxtemplatename </text>
<text text-anchor="start" x="164.251" y="-386.9" font-family="Arial" font-size="14.00" fill="#666666">[varchar(100)]</text>
<polygon fill="none" stroke="#000000" points="46,-345.5 46,-375.5 320,-375.5 320,-345.5 46,-345.5"/>
<text text-anchor="start" x="53" y="-356.9" font-family="Arial" font-size="14.00" fill="#000000">glid </text>
<text text-anchor="start" x="78.669" y="-356.9" font-family="Arial" font-size="14.00" fill="#666666">[integer]</text>
<polygon fill="none" stroke="#000000" points="46,-315.5 46,-345.5 320,-345.5 320,-315.5 46,-315.5"/>
<text text-anchor="start" x="53" y="-326.9" font-family="Arial" font-size="14.00" fill="#000000">partytypename </text>
<text text-anchor="start" x="149.4712" y="-326.9" font-family="Arial" font-size="14.00" fill="#666666">[varchar(100)]</text>
<polygon fill="none" stroke="#000000" points="46,-285.5 46,-315.5 320,-315.5 320,-285.5 46,-285.5"/>
<text text-anchor="start" x="53" y="-296.9" font-family="Arial" font-size="14.00" fill="#000000">sales_person_id </text>
<text text-anchor="start" x="158.8078" y="-296.9" font-family="Arial" font-size="14.00" fill="#666666">[bigint]</text>
<polygon fill="none" stroke="#000000" points="46,-255.5 46,-285.5 320,-285.5 320,-255.5 46,-255.5"/>
<text text-anchor="start" x="53" y="-266.9" font-family="Arial" font-size="14.00" fill="#000000">commisionerate </text>
<text text-anchor="start" x="155.6718" y="-266.9" font-family="Arial" font-size="14.00" fill="#666666">[varchar(50)]</text>
<polygon fill="none" stroke="#000000" points="46,-225.5 46,-255.5 320,-255.5 320,-225.5 46,-225.5"/>
<text text-anchor="start" x="53" y="-236.9" font-family="Arial" font-size="14.00" fill="#000000">gstnno </text>
<text text-anchor="start" x="98.9116" y="-236.9" font-family="Arial" font-size="14.00" fill="#666666">[varchar(255)]</text>
<polygon fill="none" stroke="#000000" points="46,-195.5 46,-225.5 320,-225.5 320,-195.5 46,-195.5"/>
<text text-anchor="start" x="53" y="-206.9" font-family="Arial" font-size="14.00" fill="#000000">gstnregdate </text>
<text text-anchor="start" x="130.8106" y="-206.9" font-family="Arial" font-size="14.00" fill="#666666">[date]</text>
<polygon fill="none" stroke="#000000" points="46,-165.5 46,-195.5 320,-195.5 320,-165.5 46,-165.5"/>
<text text-anchor="start" x="53" y="-176.9" font-family="Arial" font-size="14.00" fill="#000000">settingcode </text>
<text text-anchor="start" x="128.474" y="-176.9" font-family="Arial" font-size="14.00" fill="#666666">[varchar]</text>
<polygon fill="none" stroke="#000000" points="46,-135.5 46,-165.5 320,-165.5 320,-135.5 46,-135.5"/>
<text text-anchor="start" x="53" y="-146.9" font-family="Arial" font-size="14.00" fill="#000000">createdon </text>
<text text-anchor="start" x="119.1374" y="-146.9" font-family="Arial" font-size="14.00" fill="#666666">[timestamp without time zone]</text>
<polygon fill="none" stroke="#000000" points="46,-105.5 46,-135.5 320,-135.5 320,-105.5 46,-105.5"/>
<text text-anchor="start" x="53" y="-116.9" font-family="Arial" font-size="14.00" fill="#000000">countrycode </text>
<text text-anchor="start" x="133.1374" y="-116.9" font-family="Arial" font-size="14.00" fill="#666666">[varchar]</text>
<polygon fill="none" stroke="#000000" points="46,-75.5 46,-105.5 320,-105.5 320,-75.5 46,-75.5"/>
<text text-anchor="start" x="53" y="-86.9" font-family="Arial" font-size="14.00" fill="#000000">statecode </text>
<text text-anchor="start" x="117.5848" y="-86.9" font-family="Arial" font-size="14.00" fill="#666666">[varchar]</text>
<polygon fill="none" stroke="#000000" points="46,-45.5 46,-75.5 320,-75.5 320,-45.5 46,-45.5"/>
<text text-anchor="start" x="53" y="-56.9" font-family="Arial" font-size="14.00" fill="#000000">gststatecode </text>
<text text-anchor="start" x="136.258" y="-56.9" font-family="Arial" font-size="14.00" fill="#666666">[text]</text>
<polygon fill="none" stroke="#000000" stroke-width="3" points="44.5,-44.5 44.5,-1702.5 321.5,-1702.5 321.5,-44.5 44.5,-44.5"/>
</g>
</g>
</svg>
