<?xml version="1.0" encoding="UTF-8" standalone="no"?>
<!DOCTYPE svg PUBLIC "-//W3C//DTD SVG 1.1//EN"
 "http://www.w3.org/Graphics/SVG/1.1/DTD/svg11.dtd">
<!-- Generated by graphviz version 2.40.1 (20161225.0304)
 -->
<!-- Title: public.fa_fixedassetdepartmentwisebudgetdetail_amenddetail Pages: 1 -->
<svg width="732pt" height="435pt"
 viewBox="0.00 0.00 732.00 435.00" xmlns="http://www.w3.org/2000/svg" xmlns:xlink="http://www.w3.org/1999/xlink">
<g id="graph0" class="graph" transform="scale(1 1) rotate(0) translate(4 431)">
<title>public.fa_fixedassetdepartmentwisebudgetdetail_amenddetail</title>
<polygon fill="#ffffff" stroke="transparent" points="-4,4 -4,-431 728,-431 728,4 -4,4"/>
<!-- public.fa_fixedassetdepartmentwisebudgetdetail_amenddetail -->
<g id="node1" class="node">
<title>public.fa_fixedassetdepartmentwisebudgetdetail_amenddetail</title>
<polygon fill="#efefef" stroke="transparent" points="46,-345.5 46,-380.5 678,-380.5 678,-345.5 46,-345.5"/>
<polygon fill="none" stroke="#000000" points="46,-345.5 46,-380.5 678,-380.5 678,-345.5 46,-345.5"/>
<text text-anchor="start" x="52.6447" y="-358.3" font-family="Arial Bold" font-size="18.00" fill="#000000">public.fa_fixedassetdepartmentwisebudgetdetail_amenddetail</text>
<text text-anchor="start" x="543.7873" y="-358.3" font-family="Arial" font-size="14.00" fill="#000000">    </text>
<text text-anchor="start" x="577.9921" y="-358.3" font-family="Arial" font-size="14.00" fill="#666666">[BASE TABLE]</text>
<polygon fill="none" stroke="#000000" points="46,-315.5 46,-345.5 678,-345.5 678,-315.5 46,-315.5"/>
<text text-anchor="start" x="53" y="-326.9" font-family="Arial" font-size="14.00" fill="#000000">fixedassetbudgetamenddetailidamendid </text>
<text text-anchor="start" x="303.5244" y="-326.9" font-family="Arial" font-size="14.00" fill="#666666">[integer]</text>
<polygon fill="none" stroke="#000000" points="46,-285.5 46,-315.5 678,-315.5 678,-285.5 46,-285.5"/>
<text text-anchor="start" x="53" y="-296.9" font-family="Arial" font-size="14.00" fill="#000000">fixedassetdepartmentwisebudgetid </text>
<text text-anchor="start" x="272.3954" y="-296.9" font-family="Arial" font-size="14.00" fill="#666666">[integer]</text>
<polygon fill="none" stroke="#000000" points="46,-255.5 46,-285.5 678,-285.5 678,-255.5 46,-255.5"/>
<text text-anchor="start" x="53" y="-266.9" font-family="Arial" font-size="14.00" fill="#000000">assettypeid </text>
<text text-anchor="start" x="127.6914" y="-266.9" font-family="Arial" font-size="14.00" fill="#666666">[integer]</text>
<polygon fill="none" stroke="#000000" points="46,-225.5 46,-255.5 678,-255.5 678,-225.5 46,-225.5"/>
<text text-anchor="start" x="53" y="-236.9" font-family="Arial" font-size="14.00" fill="#000000">itemgroupid </text>
<text text-anchor="start" x="130.0112" y="-236.9" font-family="Arial" font-size="14.00" fill="#666666">[integer]</text>
<polygon fill="none" stroke="#000000" points="46,-195.5 46,-225.5 678,-225.5 678,-195.5 46,-195.5"/>
<text text-anchor="start" x="53" y="-206.9" font-family="Arial" font-size="14.00" fill="#000000">qty </text>
<text text-anchor="start" x="75.5638" y="-206.9" font-family="Arial" font-size="14.00" fill="#666666">[numeric(21,3)]</text>
<polygon fill="none" stroke="#000000" points="46,-165.5 46,-195.5 678,-195.5 678,-165.5 46,-165.5"/>
<text text-anchor="start" x="53" y="-176.9" font-family="Arial" font-size="14.00" fill="#000000">value </text>
<text text-anchor="start" x="90.345" y="-176.9" font-family="Arial" font-size="14.00" fill="#666666">[numeric(21,3)]</text>
<polygon fill="none" stroke="#000000" points="46,-135.5 46,-165.5 678,-165.5 678,-135.5 46,-135.5"/>
<text text-anchor="start" x="53" y="-146.9" font-family="Arial" font-size="14.00" fill="#000000">remarks </text>
<text text-anchor="start" x="107.4376" y="-146.9" font-family="Arial" font-size="14.00" fill="#666666">[text]</text>
<polygon fill="none" stroke="#000000" points="46,-105.5 46,-135.5 678,-135.5 678,-105.5 46,-105.5"/>
<text text-anchor="start" x="53" y="-116.9" font-family="Arial" font-size="14.00" fill="#000000">closureflag </text>
<text text-anchor="start" x="124.568" y="-116.9" font-family="Arial" font-size="14.00" fill="#666666">[boolean]</text>
<polygon fill="none" stroke="#000000" points="46,-75.5 46,-105.5 678,-105.5 678,-75.5 46,-75.5"/>
<text text-anchor="start" x="53" y="-86.9" font-family="Arial" font-size="14.00" fill="#000000">closuredate </text>
<text text-anchor="start" x="129.244" y="-86.9" font-family="Arial" font-size="14.00" fill="#666666">[date]</text>
<polygon fill="none" stroke="#000000" points="46,-45.5 46,-75.5 678,-75.5 678,-45.5 46,-45.5"/>
<text text-anchor="start" x="53" y="-56.9" font-family="Arial" font-size="14.00" fill="#000000">fixedassetdepartmentwisebudgetamendmasterid </text>
<text text-anchor="start" x="357.9634" y="-56.9" font-family="Arial" font-size="14.00" fill="#666666">[integer]</text>
<polygon fill="none" stroke="#000000" stroke-width="3" points="44.5,-44.5 44.5,-382.5 679.5,-382.5 679.5,-44.5 44.5,-44.5"/>
</g>
</g>
</svg>
