<?xml version="1.0" encoding="UTF-8" standalone="no"?>
<!DOCTYPE svg PUBLIC "-//W3C//DTD SVG 1.1//EN"
 "http://www.w3.org/Graphics/SVG/1.1/DTD/svg11.dtd">
<!-- Generated by graphviz version 2.40.1 (20161225.0304)
 -->
<!-- Title: public.sale_inspectionafterdn Pages: 1 -->
<svg width="736pt" height="2572pt"
 viewBox="0.00 0.00 735.50 2572.00" xmlns="http://www.w3.org/2000/svg" xmlns:xlink="http://www.w3.org/1999/xlink">
<g id="graph0" class="graph" transform="scale(1 1) rotate(0) translate(4 2568)">
<title>public.sale_inspectionafterdn</title>
<polygon fill="#ffffff" stroke="transparent" points="-4,4 -4,-2568 731.5,-2568 731.5,4 -4,4"/>
<!-- public.sale_inspectionafterdn -->
<g id="node1" class="node">
<title>public.sale_inspectionafterdn</title>
<polygon fill="#efefef" stroke="transparent" points="46.5,-2482.5 46.5,-2517.5 419.5,-2517.5 419.5,-2482.5 46.5,-2482.5"/>
<polygon fill="none" stroke="#000000" points="46.5,-2482.5 46.5,-2517.5 419.5,-2517.5 419.5,-2482.5 46.5,-2482.5"/>
<text text-anchor="start" x="53.1835" y="-2495.3" font-family="Arial Bold" font-size="18.00" fill="#000000">public.sale_inspectionafterdn</text>
<text text-anchor="start" x="285.2485" y="-2495.3" font-family="Arial" font-size="14.00" fill="#000000">    </text>
<text text-anchor="start" x="319.4533" y="-2495.3" font-family="Arial" font-size="14.00" fill="#666666">[BASE TABLE]</text>
<polygon fill="none" stroke="#000000" points="46.5,-2452.5 46.5,-2482.5 419.5,-2482.5 419.5,-2452.5 46.5,-2452.5"/>
<text text-anchor="start" x="53.5" y="-2463.9" font-family="Arial" font-size="14.00" fill="#000000">inspectionid </text>
<text text-anchor="start" x="131.2966" y="-2463.9" font-family="Arial" font-size="14.00" fill="#666666">[integer]</text>
<polygon fill="none" stroke="#000000" points="46.5,-2422.5 46.5,-2452.5 419.5,-2452.5 419.5,-2422.5 46.5,-2422.5"/>
<text text-anchor="start" x="53.5" y="-2433.9" font-family="Arial" font-size="14.00" fill="#000000">inspectionno </text>
<text text-anchor="start" x="135.9726" y="-2433.9" font-family="Arial" font-size="14.00" fill="#666666">[varchar(50)]</text>
<polygon fill="none" stroke="#000000" points="46.5,-2392.5 46.5,-2422.5 419.5,-2422.5 419.5,-2392.5 46.5,-2392.5"/>
<text text-anchor="start" x="53.5" y="-2403.9" font-family="Arial" font-size="14.00" fill="#000000">inspectiondate </text>
<text text-anchor="start" x="147.6458" y="-2403.9" font-family="Arial" font-size="14.00" fill="#666666">[date]</text>
<polygon fill="none" stroke="#000000" points="46.5,-2362.5 46.5,-2392.5 419.5,-2392.5 419.5,-2362.5 46.5,-2362.5"/>
<text text-anchor="start" x="53.5" y="-2373.9" font-family="Arial" font-size="14.00" fill="#000000">isinspectionoccured </text>
<text text-anchor="start" x="180.305" y="-2373.9" font-family="Arial" font-size="14.00" fill="#666666">[boolean]</text>
<polygon fill="none" stroke="#000000" points="46.5,-2332.5 46.5,-2362.5 419.5,-2362.5 419.5,-2332.5 46.5,-2332.5"/>
<text text-anchor="start" x="53.5" y="-2343.9" font-family="Arial" font-size="14.00" fill="#000000">inspectedby </text>
<text text-anchor="start" x="132.0834" y="-2343.9" font-family="Arial" font-size="14.00" fill="#666666">[integer]</text>
<polygon fill="none" stroke="#000000" points="46.5,-2302.5 46.5,-2332.5 419.5,-2332.5 419.5,-2302.5 46.5,-2302.5"/>
<text text-anchor="start" x="53.5" y="-2313.9" font-family="Arial" font-size="14.00" fill="#000000">createdby </text>
<text text-anchor="start" x="118.8548" y="-2313.9" font-family="Arial" font-size="14.00" fill="#666666">[integer]</text>
<polygon fill="none" stroke="#000000" points="46.5,-2272.5 46.5,-2302.5 419.5,-2302.5 419.5,-2272.5 46.5,-2272.5"/>
<text text-anchor="start" x="53.5" y="-2283.9" font-family="Arial" font-size="14.00" fill="#000000">isauthorized </text>
<text text-anchor="start" x="132.8506" y="-2283.9" font-family="Arial" font-size="14.00" fill="#666666">[boolean]</text>
<polygon fill="none" stroke="#000000" points="46.5,-2242.5 46.5,-2272.5 419.5,-2272.5 419.5,-2242.5 46.5,-2242.5"/>
<text text-anchor="start" x="53.5" y="-2253.9" font-family="Arial" font-size="14.00" fill="#000000">authorizedby </text>
<text text-anchor="start" x="137.5266" y="-2253.9" font-family="Arial" font-size="14.00" fill="#666666">[integer]</text>
<polygon fill="none" stroke="#000000" points="46.5,-2212.5 46.5,-2242.5 419.5,-2242.5 419.5,-2212.5 46.5,-2212.5"/>
<text text-anchor="start" x="53.5" y="-2223.9" font-family="Arial" font-size="14.00" fill="#000000">authorizedon </text>
<text text-anchor="start" x="138.3092" y="-2223.9" font-family="Arial" font-size="14.00" fill="#666666">[timestamp without time zone]</text>
<polygon fill="none" stroke="#000000" points="46.5,-2182.5 46.5,-2212.5 419.5,-2212.5 419.5,-2182.5 46.5,-2182.5"/>
<text text-anchor="start" x="53.5" y="-2193.9" font-family="Arial" font-size="14.00" fill="#000000">branchid </text>
<text text-anchor="start" x="111.0708" y="-2193.9" font-family="Arial" font-size="14.00" fill="#666666">[integer]</text>
<polygon fill="none" stroke="#000000" points="46.5,-2152.5 46.5,-2182.5 419.5,-2182.5 419.5,-2152.5 46.5,-2152.5"/>
<text text-anchor="start" x="53.5" y="-2163.9" font-family="Arial" font-size="14.00" fill="#000000">iscancelled </text>
<text text-anchor="start" x="126.6234" y="-2163.9" font-family="Arial" font-size="14.00" fill="#666666">[boolean]</text>
<polygon fill="none" stroke="#000000" points="46.5,-2122.5 46.5,-2152.5 419.5,-2152.5 419.5,-2122.5 46.5,-2122.5"/>
<text text-anchor="start" x="53.5" y="-2133.9" font-family="Arial" font-size="14.00" fill="#000000">seriescode </text>
<text text-anchor="start" x="125.0708" y="-2133.9" font-family="Arial" font-size="14.00" fill="#666666">[varchar(50)]</text>
<polygon fill="none" stroke="#000000" points="46.5,-2092.5 46.5,-2122.5 419.5,-2122.5 419.5,-2092.5 46.5,-2092.5"/>
<text text-anchor="start" x="53.5" y="-2103.9" font-family="Arial" font-size="14.00" fill="#000000">seriesno </text>
<text text-anchor="start" x="110.2882" y="-2103.9" font-family="Arial" font-size="14.00" fill="#666666">[integer]</text>
<polygon fill="none" stroke="#000000" points="46.5,-2062.5 46.5,-2092.5 419.5,-2092.5 419.5,-2062.5 46.5,-2062.5"/>
<text text-anchor="start" x="53.5" y="-2073.9" font-family="Arial" font-size="14.00" fill="#000000">partyid </text>
<text text-anchor="start" x="99.3962" y="-2073.9" font-family="Arial" font-size="14.00" fill="#666666">[integer]</text>
<polygon fill="none" stroke="#000000" points="46.5,-2032.5 46.5,-2062.5 419.5,-2062.5 419.5,-2032.5 46.5,-2032.5"/>
<text text-anchor="start" x="53.5" y="-2043.9" font-family="Arial" font-size="14.00" fill="#000000">deliverynoteid </text>
<text text-anchor="start" x="143.7398" y="-2043.9" font-family="Arial" font-size="14.00" fill="#666666">[integer]</text>
<polygon fill="none" stroke="#000000" points="46.5,-2002.5 46.5,-2032.5 419.5,-2032.5 419.5,-2002.5 46.5,-2002.5"/>
<text text-anchor="start" x="53.5" y="-2013.9" font-family="Arial" font-size="14.00" fill="#000000">editlog </text>
<text text-anchor="start" x="98.6248" y="-2013.9" font-family="Arial" font-size="14.00" fill="#666666">[text]</text>
<polygon fill="none" stroke="#000000" points="46.5,-1972.5 46.5,-2002.5 419.5,-2002.5 419.5,-1972.5 46.5,-1972.5"/>
<text text-anchor="start" x="53.5" y="-1983.9" font-family="Arial" font-size="14.00" fill="#000000">createdon </text>
<text text-anchor="start" x="119.6374" y="-1983.9" font-family="Arial" font-size="14.00" fill="#666666">[timestamp without time zone]</text>
<polygon fill="none" stroke="#000000" points="46.5,-1942.5 46.5,-1972.5 419.5,-1972.5 419.5,-1942.5 46.5,-1942.5"/>
<text text-anchor="start" x="53.5" y="-1953.9" font-family="Arial" font-size="14.00" fill="#000000">challantype </text>
<text text-anchor="start" x="128.19" y="-1953.9" font-family="Arial" font-size="14.00" fill="#666666">[smallint]</text>
<polygon fill="none" stroke="#000000" points="46.5,-1912.5 46.5,-1942.5 419.5,-1942.5 419.5,-1912.5 46.5,-1912.5"/>
<text text-anchor="start" x="53.5" y="-1923.9" font-family="Arial" font-size="14.00" fill="#000000">remarks </text>
<text text-anchor="start" x="107.9376" y="-1923.9" font-family="Arial" font-size="14.00" fill="#666666">[varchar(1000)]</text>
<polygon fill="none" stroke="#000000" points="46.5,-1882.5 46.5,-1912.5 419.5,-1912.5 419.5,-1882.5 46.5,-1882.5"/>
<text text-anchor="start" x="53.5" y="-1893.9" font-family="Arial" font-size="14.00" fill="#000000">seriesid </text>
<text text-anchor="start" x="105.6122" y="-1893.9" font-family="Arial" font-size="14.00" fill="#666666">[integer]</text>
<polygon fill="none" stroke="#000000" points="46.5,-1852.5 46.5,-1882.5 419.5,-1882.5 419.5,-1852.5 46.5,-1852.5"/>
<text text-anchor="start" x="53.5" y="-1863.9" font-family="Arial" font-size="14.00" fill="#000000">headauthorizedon </text>
<text text-anchor="start" x="169.4396" y="-1863.9" font-family="Arial" font-size="14.00" fill="#666666">[timestamp without time zone]</text>
<polygon fill="none" stroke="#000000" points="46.5,-1822.5 46.5,-1852.5 419.5,-1852.5 419.5,-1822.5 46.5,-1822.5"/>
<text text-anchor="start" x="53.5" y="-1833.9" font-family="Arial" font-size="14.00" fill="#000000">headauthorizedby </text>
<text text-anchor="start" x="168.657" y="-1833.9" font-family="Arial" font-size="14.00" fill="#666666">[integer]</text>
<polygon fill="none" stroke="#000000" points="46.5,-1792.5 46.5,-1822.5 419.5,-1822.5 419.5,-1792.5 46.5,-1792.5"/>
<text text-anchor="start" x="53.5" y="-1803.9" font-family="Arial" font-size="14.00" fill="#000000">seriesvouchertype </text>
<text text-anchor="start" x="170.9698" y="-1803.9" font-family="Arial" font-size="14.00" fill="#666666">[integer]</text>
<polygon fill="none" stroke="#000000" points="46.5,-1762.5 46.5,-1792.5 419.5,-1792.5 419.5,-1762.5 46.5,-1762.5"/>
<text text-anchor="start" x="53.5" y="-1773.9" font-family="Arial" font-size="14.00" fill="#000000">cancellationreason </text>
<text text-anchor="start" x="174.0876" y="-1773.9" font-family="Arial" font-size="14.00" fill="#666666">[text]</text>
<polygon fill="none" stroke="#000000" points="46.5,-1732.5 46.5,-1762.5 419.5,-1762.5 419.5,-1732.5 46.5,-1732.5"/>
<text text-anchor="start" x="53.5" y="-1743.9" font-family="Arial" font-size="14.00" fill="#000000">cancelledby </text>
<text text-anchor="start" x="131.2994" y="-1743.9" font-family="Arial" font-size="14.00" fill="#666666">[integer]</text>
<polygon fill="none" stroke="#000000" points="46.5,-1702.5 46.5,-1732.5 419.5,-1732.5 419.5,-1702.5 46.5,-1702.5"/>
<text text-anchor="start" x="53.5" y="-1713.9" font-family="Arial" font-size="14.00" fill="#000000">isinspected </text>
<text text-anchor="start" x="127.4074" y="-1713.9" font-family="Arial" font-size="14.00" fill="#666666">[boolean]</text>
<polygon fill="none" stroke="#000000" points="46.5,-1672.5 46.5,-1702.5 419.5,-1702.5 419.5,-1672.5 46.5,-1672.5"/>
<text text-anchor="start" x="53.5" y="-1683.9" font-family="Arial" font-size="14.00" fill="#000000">formid </text>
<text text-anchor="start" x="96.2742" y="-1683.9" font-family="Arial" font-size="14.00" fill="#666666">[integer]</text>
<polygon fill="none" stroke="#000000" points="46.5,-1642.5 46.5,-1672.5 419.5,-1672.5 419.5,-1642.5 46.5,-1642.5"/>
<text text-anchor="start" x="53.5" y="-1653.9" font-family="Arial" font-size="14.00" fill="#000000">updatedby </text>
<text text-anchor="start" x="122.7594" y="-1653.9" font-family="Arial" font-size="14.00" fill="#666666">[integer]</text>
<polygon fill="none" stroke="#000000" points="46.5,-1612.5 46.5,-1642.5 419.5,-1642.5 419.5,-1612.5 46.5,-1612.5"/>
<text text-anchor="start" x="53.5" y="-1623.9" font-family="Arial" font-size="14.00" fill="#000000">updatedon </text>
<text text-anchor="start" x="123.542" y="-1623.9" font-family="Arial" font-size="14.00" fill="#666666">[timestamp(6) without time zone]</text>
<polygon fill="none" stroke="#000000" stroke-width="3" points="44.5,-1611.5 44.5,-2519.5 420.5,-2519.5 420.5,-1611.5 44.5,-1611.5"/>
</g>
<!-- public.comn_formmaster -->
<g id="node2" class="node">
<title>public.comn_formmaster</title>
<polygon fill="#efefef" stroke="transparent" points="64.5,-1452.5 64.5,-1487.5 402.5,-1487.5 402.5,-1452.5 64.5,-1452.5"/>
<polygon fill="none" stroke="#000000" points="64.5,-1452.5 64.5,-1487.5 402.5,-1487.5 402.5,-1452.5 64.5,-1452.5"/>
<text text-anchor="start" x="71.2101" y="-1465.3" font-family="Arial Bold" font-size="18.00" fill="#000000">public.comn_formmaster</text>
<text text-anchor="start" x="268.2219" y="-1465.3" font-family="Arial" font-size="14.00" fill="#000000">    </text>
<text text-anchor="start" x="302.4267" y="-1465.3" font-family="Arial" font-size="14.00" fill="#666666">[BASE TABLE]</text>
<polygon fill="none" stroke="#000000" points="64.5,-1422.5 64.5,-1452.5 402.5,-1452.5 402.5,-1422.5 64.5,-1422.5"/>
<text text-anchor="start" x="71.5" y="-1433.9" font-family="Arial" font-size="14.00" fill="#000000">formid    </text>
<text text-anchor="start" x="144.5884" y="-1433.9" font-family="Arial" font-size="14.00" fill="#666666">[integer]</text>
<polygon fill="none" stroke="#000000" points="64.5,-1392.5 64.5,-1422.5 402.5,-1422.5 402.5,-1392.5 64.5,-1392.5"/>
<text text-anchor="start" x="71.5" y="-1403.9" font-family="Arial" font-size="14.00" fill="#000000">formname    </text>
<text text-anchor="start" x="168.7076" y="-1403.9" font-family="Arial" font-size="14.00" fill="#666666">[varchar(100)]</text>
<polygon fill="none" stroke="#000000" points="64.5,-1362.5 64.5,-1392.5 402.5,-1392.5 402.5,-1362.5 64.5,-1362.5"/>
<text text-anchor="start" x="71.5" y="-1373.9" font-family="Arial" font-size="14.00" fill="#000000">caption    </text>
<text text-anchor="start" x="150.8324" y="-1373.9" font-family="Arial" font-size="14.00" fill="#666666">[varchar(100)]</text>
<polygon fill="none" stroke="#000000" points="64.5,-1332.5 64.5,-1362.5 402.5,-1362.5 402.5,-1332.5 64.5,-1332.5"/>
<text text-anchor="start" x="71.5" y="-1343.9" font-family="Arial" font-size="14.00" fill="#000000">formtype    </text>
<text text-anchor="start" x="160.155" y="-1343.9" font-family="Arial" font-size="14.00" fill="#666666">[smallint]</text>
<polygon fill="none" stroke="#000000" points="64.5,-1302.5 64.5,-1332.5 402.5,-1332.5 402.5,-1302.5 64.5,-1302.5"/>
<text text-anchor="start" x="71.5" y="-1313.9" font-family="Arial" font-size="14.00" fill="#000000">mnunew    </text>
<text text-anchor="start" x="158.6024" y="-1313.9" font-family="Arial" font-size="14.00" fill="#666666">[boolean]</text>
<polygon fill="none" stroke="#000000" points="64.5,-1272.5 64.5,-1302.5 402.5,-1302.5 402.5,-1272.5 64.5,-1272.5"/>
<text text-anchor="start" x="71.5" y="-1283.9" font-family="Arial" font-size="14.00" fill="#000000">mnuedit    </text>
<text text-anchor="start" x="155.493" y="-1283.9" font-family="Arial" font-size="14.00" fill="#666666">[boolean]</text>
<polygon fill="none" stroke="#000000" points="64.5,-1242.5 64.5,-1272.5 402.5,-1272.5 402.5,-1242.5 64.5,-1242.5"/>
<text text-anchor="start" x="71.5" y="-1253.9" font-family="Arial" font-size="14.00" fill="#000000">mnuauthorize    </text>
<text text-anchor="start" x="190.5014" y="-1253.9" font-family="Arial" font-size="14.00" fill="#666666">[boolean]</text>
<polygon fill="none" stroke="#000000" points="64.5,-1212.5 64.5,-1242.5 402.5,-1242.5 402.5,-1212.5 64.5,-1212.5"/>
<text text-anchor="start" x="71.5" y="-1223.9" font-family="Arial" font-size="14.00" fill="#000000">mnuview    </text>
<text text-anchor="start" x="160.9264" y="-1223.9" font-family="Arial" font-size="14.00" fill="#666666">[boolean]</text>
<polygon fill="none" stroke="#000000" points="64.5,-1182.5 64.5,-1212.5 402.5,-1212.5 402.5,-1182.5 64.5,-1182.5"/>
<text text-anchor="start" x="71.5" y="-1193.9" font-family="Arial" font-size="14.00" fill="#000000">mnuprint    </text>
<text text-anchor="start" x="160.1536" y="-1193.9" font-family="Arial" font-size="14.00" fill="#666666">[boolean]</text>
<polygon fill="none" stroke="#000000" points="64.5,-1152.5 64.5,-1182.5 402.5,-1182.5 402.5,-1152.5 64.5,-1152.5"/>
<text text-anchor="start" x="71.5" y="-1163.9" font-family="Arial" font-size="14.00" fill="#000000">mnuamendment    </text>
<text text-anchor="start" x="206.838" y="-1163.9" font-family="Arial" font-size="14.00" fill="#666666">[boolean]</text>
<polygon fill="none" stroke="#000000" points="64.5,-1122.5 64.5,-1152.5 402.5,-1152.5 402.5,-1122.5 64.5,-1122.5"/>
<text text-anchor="start" x="71.5" y="-1133.9" font-family="Arial" font-size="14.00" fill="#000000">mnusendtotally    </text>
<text text-anchor="start" x="199.838" y="-1133.9" font-family="Arial" font-size="14.00" fill="#666666">[boolean]</text>
<polygon fill="none" stroke="#000000" points="64.5,-1092.5 64.5,-1122.5 402.5,-1122.5 402.5,-1092.5 64.5,-1092.5"/>
<text text-anchor="start" x="71.5" y="-1103.9" font-family="Arial" font-size="14.00" fill="#000000">mnuexporttoexcel    </text>
<text text-anchor="start" x="216.1746" y="-1103.9" font-family="Arial" font-size="14.00" fill="#666666">[boolean]</text>
<polygon fill="none" stroke="#000000" points="64.5,-1062.5 64.5,-1092.5 402.5,-1092.5 402.5,-1062.5 64.5,-1062.5"/>
<text text-anchor="start" x="71.5" y="-1073.9" font-family="Arial" font-size="14.00" fill="#000000">extravalue    </text>
<text text-anchor="start" x="170.2756" y="-1073.9" font-family="Arial" font-size="14.00" fill="#666666">[varchar(50)]</text>
<polygon fill="none" stroke="#000000" points="64.5,-1032.5 64.5,-1062.5 402.5,-1062.5 402.5,-1032.5 64.5,-1032.5"/>
<text text-anchor="start" x="71.5" y="-1043.9" font-family="Arial" font-size="14.00" fill="#000000">formval    </text>
<text text-anchor="start" x="151.5884" y="-1043.9" font-family="Arial" font-size="14.00" fill="#666666">[varchar(70)]</text>
<polygon fill="none" stroke="#000000" points="64.5,-1002.5 64.5,-1032.5 402.5,-1032.5 402.5,-1002.5 64.5,-1002.5"/>
<text text-anchor="start" x="71.5" y="-1013.9" font-family="Arial" font-size="14.00" fill="#000000">isauthorizationreq    </text>
<text text-anchor="start" x="216.1704" y="-1013.9" font-family="Arial" font-size="14.00" fill="#666666">[boolean]</text>
<polygon fill="none" stroke="#000000" points="64.5,-972.5 64.5,-1002.5 402.5,-1002.5 402.5,-972.5 64.5,-972.5"/>
<text text-anchor="start" x="71.5" y="-983.9" font-family="Arial" font-size="14.00" fill="#000000">mnuclosepending    </text>
<text text-anchor="start" x="215.4046" y="-983.9" font-family="Arial" font-size="14.00" fill="#666666">[boolean]</text>
<polygon fill="none" stroke="#000000" points="64.5,-942.5 64.5,-972.5 402.5,-972.5 402.5,-942.5 64.5,-942.5"/>
<text text-anchor="start" x="71.5" y="-953.9" font-family="Arial" font-size="14.00" fill="#000000">visible    </text>
<text text-anchor="start" x="144.5898" y="-953.9" font-family="Arial" font-size="14.00" fill="#666666">[boolean]</text>
<polygon fill="none" stroke="#000000" points="64.5,-912.5 64.5,-942.5 402.5,-942.5 402.5,-912.5 64.5,-912.5"/>
<text text-anchor="start" x="71.5" y="-923.9" font-family="Arial" font-size="14.00" fill="#000000">mnucanceltransaction    </text>
<text text-anchor="start" x="241.8464" y="-923.9" font-family="Arial" font-size="14.00" fill="#666666">[boolean]</text>
<polygon fill="none" stroke="#000000" points="64.5,-882.5 64.5,-912.5 402.5,-912.5 402.5,-882.5 64.5,-882.5"/>
<text text-anchor="start" x="71.5" y="-893.9" font-family="Arial" font-size="14.00" fill="#000000">formgroupid    </text>
<text text-anchor="start" x="180.3794" y="-893.9" font-family="Arial" font-size="14.00" fill="#666666">[integer]</text>
<polygon fill="none" stroke="#000000" points="64.5,-852.5 64.5,-882.5 402.5,-882.5 402.5,-852.5 64.5,-852.5"/>
<text text-anchor="start" x="71.5" y="-863.9" font-family="Arial" font-size="14.00" fill="#000000">allowbackdateentry    </text>
<text text-anchor="start" x="225.5098" y="-863.9" font-family="Arial" font-size="14.00" fill="#666666">[boolean]</text>
<polygon fill="none" stroke="#000000" points="64.5,-822.5 64.5,-852.5 402.5,-852.5 402.5,-822.5 64.5,-822.5"/>
<text text-anchor="start" x="71.5" y="-833.9" font-family="Arial" font-size="14.00" fill="#000000">isheadauthorizationreq    </text>
<text text-anchor="start" x="247.3008" y="-833.9" font-family="Arial" font-size="14.00" fill="#666666">[boolean]</text>
<polygon fill="none" stroke="#000000" points="64.5,-792.5 64.5,-822.5 402.5,-822.5 402.5,-792.5 64.5,-792.5"/>
<text text-anchor="start" x="71.5" y="-803.9" font-family="Arial" font-size="14.00" fill="#000000">roundoffitemlevelamt    </text>
<text text-anchor="start" x="235.6122" y="-803.9" font-family="Arial" font-size="14.00" fill="#666666">[integer]</text>
<polygon fill="none" stroke="#000000" points="64.5,-762.5 64.5,-792.5 402.5,-792.5 402.5,-762.5 64.5,-762.5"/>
<text text-anchor="start" x="71.5" y="-773.9" font-family="Arial" font-size="14.00" fill="#000000">mnuattachment    </text>
<text text-anchor="start" x="202.176" y="-773.9" font-family="Arial" font-size="14.00" fill="#666666">[boolean]</text>
<polygon fill="none" stroke="#000000" points="64.5,-732.5 64.5,-762.5 402.5,-762.5 402.5,-732.5 64.5,-732.5"/>
<text text-anchor="start" x="71.5" y="-743.9" font-family="Arial" font-size="14.00" fill="#000000">mnuviewattachment    </text>
<text text-anchor="start" x="230.1718" y="-743.9" font-family="Arial" font-size="14.00" fill="#666666">[boolean]</text>
<polygon fill="none" stroke="#000000" points="64.5,-702.5 64.5,-732.5 402.5,-732.5 402.5,-702.5 64.5,-702.5"/>
<text text-anchor="start" x="71.5" y="-713.9" font-family="Arial" font-size="14.00" fill="#000000">bamount_auth_enable    </text>
<text text-anchor="start" x="244.9922" y="-713.9" font-family="Arial" font-size="14.00" fill="#666666">[boolean]</text>
<polygon fill="none" stroke="#000000" points="64.5,-672.5 64.5,-702.5 402.5,-702.5 402.5,-672.5 64.5,-672.5"/>
<text text-anchor="start" x="71.5" y="-683.9" font-family="Arial" font-size="14.00" fill="#000000">formpath    </text>
<text text-anchor="start" x="160.9376" y="-683.9" font-family="Arial" font-size="14.00" fill="#666666">[text]</text>
<polygon fill="none" stroke="#000000" points="64.5,-642.5 64.5,-672.5 402.5,-672.5 402.5,-642.5 64.5,-642.5"/>
<text text-anchor="start" x="71.5" y="-653.9" font-family="Arial" font-size="14.00" fill="#000000">backdateenddate    </text>
<text text-anchor="start" x="213.0946" y="-653.9" font-family="Arial" font-size="14.00" fill="#666666">[date]</text>
<polygon fill="none" stroke="#000000" points="64.5,-612.5 64.5,-642.5 402.5,-642.5 402.5,-612.5 64.5,-612.5"/>
<text text-anchor="start" x="71.5" y="-623.9" font-family="Arial" font-size="14.00" fill="#000000">saveandprint    </text>
<text text-anchor="start" x="185.8408" y="-623.9" font-family="Arial" font-size="14.00" fill="#666666">[boolean]</text>
<polygon fill="none" stroke="#000000" points="64.5,-582.5 64.5,-612.5 402.5,-612.5 402.5,-582.5 64.5,-582.5"/>
<text text-anchor="start" x="71.5" y="-593.9" font-family="Arial" font-size="14.00" fill="#000000">saveandauthorize    </text>
<text text-anchor="start" x="216.1886" y="-593.9" font-family="Arial" font-size="14.00" fill="#666666">[boolean]</text>
<polygon fill="none" stroke="#000000" points="64.5,-552.5 64.5,-582.5 402.5,-582.5 402.5,-552.5 64.5,-552.5"/>
<text text-anchor="start" x="71.5" y="-563.9" font-family="Arial" font-size="14.00" fill="#000000">mnucreatestructure    </text>
<text text-anchor="start" x="226.2798" y="-563.9" font-family="Arial" font-size="14.00" fill="#666666">[boolean]</text>
<polygon fill="none" stroke="#000000" points="64.5,-522.5 64.5,-552.5 402.5,-552.5 402.5,-522.5 64.5,-522.5"/>
<text text-anchor="start" x="71.5" y="-533.9" font-family="Arial" font-size="14.00" fill="#000000">mnuimport    </text>
<text text-anchor="start" x="171.8142" y="-533.9" font-family="Arial" font-size="14.00" fill="#666666">[boolean]</text>
<polygon fill="none" stroke="#000000" points="64.5,-492.5 64.5,-522.5 402.5,-522.5 402.5,-492.5 64.5,-492.5"/>
<text text-anchor="start" x="71.5" y="-503.9" font-family="Arial" font-size="14.00" fill="#000000">tb_name    </text>
<text text-anchor="start" x="160.169" y="-503.9" font-family="Arial" font-size="14.00" fill="#666666">[varchar]</text>
<polygon fill="none" stroke="#000000" points="64.5,-462.5 64.5,-492.5 402.5,-492.5 402.5,-462.5 64.5,-462.5"/>
<text text-anchor="start" x="71.5" y="-473.9" font-family="Arial" font-size="14.00" fill="#000000">mnuprintserial    </text>
<text text-anchor="start" x="193.5926" y="-473.9" font-family="Arial" font-size="14.00" fill="#666666">[boolean]</text>
<polygon fill="none" stroke="#000000" points="64.5,-432.5 64.5,-462.5 402.5,-462.5 402.5,-432.5 64.5,-432.5"/>
<text text-anchor="start" x="71.5" y="-443.9" font-family="Arial" font-size="14.00" fill="#000000">mnuemail    </text>
<text text-anchor="start" x="166.3696" y="-443.9" font-family="Arial" font-size="14.00" fill="#666666">[boolean]</text>
<polygon fill="none" stroke="#000000" points="64.5,-402.5 64.5,-432.5 402.5,-432.5 402.5,-402.5 64.5,-402.5"/>
<text text-anchor="start" x="71.5" y="-413.9" font-family="Arial" font-size="14.00" fill="#000000">mnuunauthorize    </text>
<text text-anchor="start" x="206.0666" y="-413.9" font-family="Arial" font-size="14.00" fill="#666666">[boolean]</text>
<polygon fill="none" stroke="#000000" points="64.5,-372.5 64.5,-402.5 402.5,-402.5 402.5,-372.5 64.5,-372.5"/>
<text text-anchor="start" x="71.5" y="-383.9" font-family="Arial" font-size="14.00" fill="#000000">report_id    </text>
<text text-anchor="start" x="160.9362" y="-383.9" font-family="Arial" font-size="14.00" fill="#666666">[integer]</text>
<polygon fill="none" stroke="#000000" points="64.5,-342.5 64.5,-372.5 402.5,-372.5 402.5,-342.5 64.5,-342.5"/>
<text text-anchor="start" x="71.5" y="-353.9" font-family="Arial" font-size="14.00" fill="#000000">isautomail    </text>
<text text-anchor="start" x="168.7062" y="-353.9" font-family="Arial" font-size="14.00" fill="#666666">[boolean]</text>
<polygon fill="none" stroke="#000000" points="64.5,-312.5 64.5,-342.5 402.5,-342.5 402.5,-312.5 64.5,-312.5"/>
<text text-anchor="start" x="71.5" y="-323.9" font-family="Arial" font-size="14.00" fill="#000000">printfromdbqry    </text>
<text text-anchor="start" x="195.9306" y="-323.9" font-family="Arial" font-size="14.00" fill="#666666">[boolean]</text>
<polygon fill="none" stroke="#000000" points="64.5,-282.5 64.5,-312.5 402.5,-312.5 402.5,-282.5 64.5,-282.5"/>
<text text-anchor="start" x="71.5" y="-293.9" font-family="Arial" font-size="14.00" fill="#000000">showitemattributeonreport    </text>
<text text-anchor="start" x="267.5112" y="-293.9" font-family="Arial" font-size="14.00" fill="#666666">[boolean]</text>
<polygon fill="none" stroke="#000000" points="64.5,-252.5 64.5,-282.5 402.5,-282.5 402.5,-252.5 64.5,-252.5"/>
<text text-anchor="start" x="71.5" y="-263.9" font-family="Arial" font-size="14.00" fill="#000000">bydefaultselectallitemattribute    </text>
<text text-anchor="start" x="290.0736" y="-263.9" font-family="Arial" font-size="14.00" fill="#666666">[boolean]</text>
<polygon fill="none" stroke="#000000" points="64.5,-222.5 64.5,-252.5 402.5,-252.5 402.5,-222.5 64.5,-222.5"/>
<text text-anchor="start" x="71.5" y="-233.9" font-family="Arial" font-size="14.00" fill="#000000">helpurl    </text>
<text text-anchor="start" x="147.709" y="-233.9" font-family="Arial" font-size="14.00" fill="#666666">[text]</text>
<polygon fill="none" stroke="#000000" points="64.5,-192.5 64.5,-222.5 402.5,-222.5 402.5,-192.5 64.5,-192.5"/>
<text text-anchor="start" x="71.5" y="-203.9" font-family="Arial" font-size="14.00" fill="#000000">roundoffitemlevelgstrate    </text>
<text text-anchor="start" x="255.068" y="-203.9" font-family="Arial" font-size="14.00" fill="#666666">[integer]</text>
<polygon fill="none" stroke="#000000" points="64.5,-162.5 64.5,-192.5 402.5,-192.5 402.5,-162.5 64.5,-162.5"/>
<text text-anchor="start" x="71.5" y="-173.9" font-family="Arial" font-size="14.00" fill="#000000">isforglobalseries    </text>
<text text-anchor="start" x="206.8212" y="-173.9" font-family="Arial" font-size="14.00" fill="#666666">[boolean]</text>
<polygon fill="none" stroke="#000000" points="64.5,-132.5 64.5,-162.5 402.5,-162.5 402.5,-132.5 64.5,-132.5"/>
<text text-anchor="start" x="71.5" y="-143.9" font-family="Arial" font-size="14.00" fill="#000000">saveandprintbarcode    </text>
<text text-anchor="start" x="236.4144" y="-143.9" font-family="Arial" font-size="14.00" fill="#666666">[boolean]</text>
<polygon fill="none" stroke="#000000" points="64.5,-102.5 64.5,-132.5 402.5,-132.5 402.5,-102.5 64.5,-102.5"/>
<text text-anchor="start" x="71.5" y="-113.9" font-family="Arial" font-size="14.00" fill="#000000">discperdecimallimit    </text>
<text text-anchor="start" x="223.9124" y="-113.9" font-family="Arial" font-size="14.00" fill="#666666">[integer]</text>
<polygon fill="none" stroke="#000000" points="64.5,-72.5 64.5,-102.5 402.5,-102.5 402.5,-72.5 64.5,-72.5"/>
<text text-anchor="start" x="71.5" y="-83.9" font-family="Arial" font-size="14.00" fill="#000000">isbackdateimpact    </text>
<text text-anchor="start" x="213.838" y="-83.9" font-family="Arial" font-size="14.00" fill="#666666">[boolean]</text>
<polygon fill="none" stroke="#000000" points="64.5,-42.5 64.5,-72.5 402.5,-72.5 402.5,-42.5 64.5,-42.5"/>
<text text-anchor="start" x="71.5" y="-53.9" font-family="Arial" font-size="14.00" fill="#000000">mnuwhatsapp    </text>
<text text-anchor="start" x="192.8408" y="-53.9" font-family="Arial" font-size="14.00" fill="#666666">[boolean]</text>
</g>
<!-- public.sale_inspectionafterdn&#45;&gt;public.comn_formmaster -->
<g id="edge1" class="edge">
<title>public.sale_inspectionafterdn:formid&#45;&gt;public.comn_formmaster:formid</title>
<path fill="none" stroke="#000000" d="M429.5018,-1686.4066C470.5575,-1676.6495 452.9537,-1604.0178 419.5,-1567 366.3346,-1508.1706 117.6654,-1589.8294 64.5,-1531 36.6375,-1500.1691 22.9444,-1437.5 64.5,-1437.5"/>
<polygon fill="#000000" stroke="#000000" points="429.4408,-1686.4132 419.011,-1683.0266 424.4704,-1686.9566 419.5,-1687.5 419.5,-1687.5 419.5,-1687.5 424.4704,-1686.9566 419.989,-1691.9734 429.4408,-1686.4132 429.4408,-1686.4132"/>
<text text-anchor="start" x="426.2865" y="-1697.5" font-family="Arial" font-size="10.00" fill="#000000">FOREIGN KEY (formid) REFERENCES comn_formmaster(formid)</text>
</g>
</g>
</svg>
