<?xml version="1.0" encoding="UTF-8" standalone="no"?>
<!DOCTYPE svg PUBLIC "-//W3C//DTD SVG 1.1//EN"
 "http://www.w3.org/Graphics/SVG/1.1/DTD/svg11.dtd">
<!-- Generated by graphviz version 2.40.1 (20161225.0304)
 -->
<!-- Title: public.stor_itembranch Pages: 1 -->
<svg width="422pt" height="645pt"
 viewBox="0.00 0.00 422.00 645.00" xmlns="http://www.w3.org/2000/svg" xmlns:xlink="http://www.w3.org/1999/xlink">
<g id="graph0" class="graph" transform="scale(1 1) rotate(0) translate(4 641)">
<title>public.stor_itembranch</title>
<polygon fill="#ffffff" stroke="transparent" points="-4,4 -4,-641 418,-641 418,4 -4,4"/>
<!-- public.stor_itembranch -->
<g id="node1" class="node">
<title>public.stor_itembranch</title>
<polygon fill="#efefef" stroke="transparent" points="46,-555.5 46,-590.5 368,-590.5 368,-555.5 46,-555.5"/>
<polygon fill="none" stroke="#000000" points="46,-555.5 46,-590.5 368,-590.5 368,-555.5 46,-555.5"/>
<text text-anchor="start" x="52.7021" y="-568.3" font-family="Arial Bold" font-size="18.00" fill="#000000">public.stor_itembranch</text>
<text text-anchor="start" x="233.7299" y="-568.3" font-family="Arial" font-size="14.00" fill="#000000">    </text>
<text text-anchor="start" x="267.9347" y="-568.3" font-family="Arial" font-size="14.00" fill="#666666">[BASE TABLE]</text>
<polygon fill="none" stroke="#000000" points="46,-525.5 46,-555.5 368,-555.5 368,-525.5 46,-525.5"/>
<text text-anchor="start" x="53" y="-536.9" font-family="Arial" font-size="14.00" fill="#000000">un_id </text>
<text text-anchor="start" x="91.1276" y="-536.9" font-family="Arial" font-size="14.00" fill="#666666">[integer]</text>
<polygon fill="none" stroke="#000000" points="46,-495.5 46,-525.5 368,-525.5 368,-495.5 46,-495.5"/>
<text text-anchor="start" x="53" y="-506.9" font-family="Arial" font-size="14.00" fill="#000000">itemid </text>
<text text-anchor="start" x="94.2202" y="-506.9" font-family="Arial" font-size="14.00" fill="#666666">[integer]</text>
<polygon fill="none" stroke="#000000" points="46,-465.5 46,-495.5 368,-495.5 368,-465.5 46,-465.5"/>
<text text-anchor="start" x="53" y="-476.9" font-family="Arial" font-size="14.00" fill="#000000">branchid </text>
<text text-anchor="start" x="110.5708" y="-476.9" font-family="Arial" font-size="14.00" fill="#666666">[integer]</text>
<polygon fill="none" stroke="#000000" points="46,-435.5 46,-465.5 368,-465.5 368,-435.5 46,-435.5"/>
<text text-anchor="start" x="53" y="-446.9" font-family="Arial" font-size="14.00" fill="#000000">isactive </text>
<text text-anchor="start" x="103.5596" y="-446.9" font-family="Arial" font-size="14.00" fill="#666666">[boolean]</text>
<polygon fill="none" stroke="#000000" points="46,-405.5 46,-435.5 368,-435.5 368,-405.5 46,-405.5"/>
<text text-anchor="start" x="53" y="-416.9" font-family="Arial" font-size="14.00" fill="#000000">issendtotally </text>
<text text-anchor="start" x="133.9046" y="-416.9" font-family="Arial" font-size="14.00" fill="#666666">[boolean]</text>
<polygon fill="none" stroke="#000000" points="46,-375.5 46,-405.5 368,-405.5 368,-375.5 46,-375.5"/>
<text text-anchor="start" x="53" y="-386.9" font-family="Arial" font-size="14.00" fill="#000000">bminimumlevel </text>
<text text-anchor="start" x="150.2118" y="-386.9" font-family="Arial" font-size="14.00" fill="#666666">[numeric(14,4)]</text>
<polygon fill="none" stroke="#000000" points="46,-345.5 46,-375.5 368,-375.5 368,-345.5 46,-345.5"/>
<text text-anchor="start" x="53" y="-356.9" font-family="Arial" font-size="14.00" fill="#000000">bmaximumlevel </text>
<text text-anchor="start" x="154.1052" y="-356.9" font-family="Arial" font-size="14.00" fill="#666666">[numeric(14,4)]</text>
<polygon fill="none" stroke="#000000" points="46,-315.5 46,-345.5 368,-345.5 368,-315.5 46,-315.5"/>
<text text-anchor="start" x="53" y="-326.9" font-family="Arial" font-size="14.00" fill="#000000">bcriticallevel </text>
<text text-anchor="start" x="133.1052" y="-326.9" font-family="Arial" font-size="14.00" fill="#666666">[numeric(14,4)]</text>
<polygon fill="none" stroke="#000000" points="46,-285.5 46,-315.5 368,-315.5 368,-285.5 46,-285.5"/>
<text text-anchor="start" x="53" y="-296.9" font-family="Arial" font-size="14.00" fill="#000000">breorderlevel </text>
<text text-anchor="start" x="138.5638" y="-296.9" font-family="Arial" font-size="14.00" fill="#666666">[numeric(14,4)]</text>
<polygon fill="none" stroke="#000000" points="46,-255.5 46,-285.5 368,-285.5 368,-255.5 46,-255.5"/>
<text text-anchor="start" x="53" y="-266.9" font-family="Arial" font-size="14.00" fill="#000000">bminimumleveltime </text>
<text text-anchor="start" x="176.6522" y="-266.9" font-family="Arial" font-size="14.00" fill="#666666">[numeric(5,0)]</text>
<polygon fill="none" stroke="#000000" points="46,-225.5 46,-255.5 368,-255.5 368,-225.5 46,-225.5"/>
<text text-anchor="start" x="53" y="-236.9" font-family="Arial" font-size="14.00" fill="#000000">bmaximumleveltime </text>
<text text-anchor="start" x="180.5456" y="-236.9" font-family="Arial" font-size="14.00" fill="#666666">[numeric(5,0)]</text>
<polygon fill="none" stroke="#000000" points="46,-195.5 46,-225.5 368,-225.5 368,-195.5 46,-195.5"/>
<text text-anchor="start" x="53" y="-206.9" font-family="Arial" font-size="14.00" fill="#000000">breorderleveltime </text>
<text text-anchor="start" x="165.0042" y="-206.9" font-family="Arial" font-size="14.00" fill="#666666">[numeric(5,0)]</text>
<polygon fill="none" stroke="#000000" points="46,-165.5 46,-195.5 368,-195.5 368,-165.5 46,-165.5"/>
<text text-anchor="start" x="53" y="-176.9" font-family="Arial" font-size="14.00" fill="#000000">bvatrate </text>
<text text-anchor="start" x="107.4628" y="-176.9" font-family="Arial" font-size="14.00" fill="#666666">[numeric(15,5)]</text>
<polygon fill="none" stroke="#000000" points="46,-135.5 46,-165.5 368,-165.5 368,-135.5 46,-135.5"/>
<text text-anchor="start" x="53" y="-146.9" font-family="Arial" font-size="14.00" fill="#000000">bcstrate </text>
<text text-anchor="start" x="106.6802" y="-146.9" font-family="Arial" font-size="14.00" fill="#666666">[numeric(15,5)]</text>
<polygon fill="none" stroke="#000000" points="46,-105.5 46,-135.5 368,-135.5 368,-105.5 46,-105.5"/>
<text text-anchor="start" x="53" y="-116.9" font-family="Arial" font-size="14.00" fill="#000000">badditionalvatrate </text>
<text text-anchor="start" x="167.3688" y="-116.9" font-family="Arial" font-size="14.00" fill="#666666">[numeric(10,5)]</text>
<polygon fill="none" stroke="#000000" points="46,-75.5 46,-105.5 368,-105.5 368,-75.5 46,-75.5"/>
<text text-anchor="start" x="53" y="-86.9" font-family="Arial" font-size="14.00" fill="#000000">bsurchargeonvat </text>
<text text-anchor="start" x="161.1458" y="-86.9" font-family="Arial" font-size="14.00" fill="#666666">[numeric(10,5)]</text>
<polygon fill="none" stroke="#000000" points="46,-45.5 46,-75.5 368,-75.5 368,-45.5 46,-45.5"/>
<text text-anchor="start" x="53" y="-56.9" font-family="Arial" font-size="14.00" fill="#000000">maxorderqty </text>
<text text-anchor="start" x="134.676" y="-56.9" font-family="Arial" font-size="14.00" fill="#666666">[numeric(15,5)]</text>
<polygon fill="none" stroke="#000000" stroke-width="3" points="44.5,-44.5 44.5,-592.5 369.5,-592.5 369.5,-44.5 44.5,-44.5"/>
</g>
</g>
</svg>
