<?xml version="1.0" encoding="UTF-8" standalone="no"?>
<!DOCTYPE svg PUBLIC "-//W3C//DTD SVG 1.1//EN"
 "http://www.w3.org/Graphics/SVG/1.1/DTD/svg11.dtd">
<!-- Generated by graphviz version 2.40.1 (20161225.0304)
 -->
<!-- Title: public.pay_leaveadjustmentvoucer_emp_details Pages: 1 -->
<svg width="624pt" height="315pt"
 viewBox="0.00 0.00 624.00 315.00" xmlns="http://www.w3.org/2000/svg" xmlns:xlink="http://www.w3.org/1999/xlink">
<g id="graph0" class="graph" transform="scale(1 1) rotate(0) translate(4 311)">
<title>public.pay_leaveadjustmentvoucer_emp_details</title>
<polygon fill="#ffffff" stroke="transparent" points="-4,4 -4,-311 620,-311 620,4 -4,4"/>
<!-- public.pay_leaveadjustmentvoucer_emp_details -->
<g id="node1" class="node">
<title>public.pay_leaveadjustmentvoucer_emp_details</title>
<polygon fill="#efefef" stroke="transparent" points="46,-225.5 46,-260.5 570,-260.5 570,-225.5 46,-225.5"/>
<polygon fill="none" stroke="#000000" points="46,-225.5 46,-260.5 570,-260.5 570,-225.5 46,-225.5"/>
<text text-anchor="start" x="52.6663" y="-238.3" font-family="Arial Bold" font-size="18.00" fill="#000000">public.pay_leaveadjustmentvoucer_emp_details</text>
<text text-anchor="start" x="435.7657" y="-238.3" font-family="Arial" font-size="14.00" fill="#000000">    </text>
<text text-anchor="start" x="469.9705" y="-238.3" font-family="Arial" font-size="14.00" fill="#666666">[BASE TABLE]</text>
<polygon fill="none" stroke="#000000" points="46,-195.5 46,-225.5 570,-225.5 570,-195.5 46,-195.5"/>
<text text-anchor="start" x="53" y="-206.9" font-family="Arial" font-size="14.00" fill="#000000">leavedetailid </text>
<text text-anchor="start" x="134.6858" y="-206.9" font-family="Arial" font-size="14.00" fill="#666666">[integer]</text>
<polygon fill="none" stroke="#000000" points="46,-165.5 46,-195.5 570,-195.5 570,-165.5 46,-165.5"/>
<text text-anchor="start" x="53" y="-176.9" font-family="Arial" font-size="14.00" fill="#000000">docid </text>
<text text-anchor="start" x="90.345" y="-176.9" font-family="Arial" font-size="14.00" fill="#666666">[integer]</text>
<polygon fill="none" stroke="#000000" points="46,-135.5 46,-165.5 570,-165.5 570,-135.5 46,-135.5"/>
<text text-anchor="start" x="53" y="-146.9" font-family="Arial" font-size="14.00" fill="#000000">leave_type_id </text>
<text text-anchor="start" x="143.2552" y="-146.9" font-family="Arial" font-size="14.00" fill="#666666">[integer]</text>
<polygon fill="none" stroke="#000000" points="46,-105.5 46,-135.5 570,-135.5 570,-105.5 46,-105.5"/>
<text text-anchor="start" x="53" y="-116.9" font-family="Arial" font-size="14.00" fill="#000000">day_pos </text>
<text text-anchor="start" x="109.8036" y="-116.9" font-family="Arial" font-size="14.00" fill="#666666">[numeric(15,5)]</text>
<polygon fill="none" stroke="#000000" points="46,-75.5 46,-105.5 570,-105.5 570,-75.5 46,-75.5"/>
<text text-anchor="start" x="53" y="-86.9" font-family="Arial" font-size="14.00" fill="#000000">day_sub </text>
<text text-anchor="start" x="109.8036" y="-86.9" font-family="Arial" font-size="14.00" fill="#666666">[numeric(15,5)]</text>
<polygon fill="none" stroke="#000000" points="46,-45.5 46,-75.5 570,-75.5 570,-45.5 46,-45.5"/>
<text text-anchor="start" x="53" y="-56.9" font-family="Arial" font-size="14.00" fill="#000000">remarks </text>
<text text-anchor="start" x="107.4376" y="-56.9" font-family="Arial" font-size="14.00" fill="#666666">[varchar]</text>
<polygon fill="none" stroke="#000000" stroke-width="3" points="44.5,-44.5 44.5,-262.5 571.5,-262.5 571.5,-44.5 44.5,-44.5"/>
</g>
</g>
</svg>
