<?xml version="1.0" encoding="UTF-8" standalone="no"?>
<!DOCTYPE svg PUBLIC "-//W3C//DTD SVG 1.1//EN"
 "http://www.w3.org/Graphics/SVG/1.1/DTD/svg11.dtd">
<!-- Generated by graphviz version 2.40.1 (20161225.0304)
 -->
<!-- Title: public.view_party Pages: 1 -->
<svg width="329pt" height="495pt"
 viewBox="0.00 0.00 329.00 495.00" xmlns="http://www.w3.org/2000/svg" xmlns:xlink="http://www.w3.org/1999/xlink">
<g id="graph0" class="graph" transform="scale(1 1) rotate(0) translate(4 491)">
<title>public.view_party</title>
<polygon fill="#ffffff" stroke="transparent" points="-4,4 -4,-491 325,-491 325,4 -4,4"/>
<!-- public.view_party -->
<g id="node1" class="node">
<title>public.view_party</title>
<polygon fill="#efefef" stroke="transparent" points="46.5,-405.5 46.5,-440.5 275.5,-440.5 275.5,-405.5 46.5,-405.5"/>
<polygon fill="none" stroke="#000000" points="46.5,-405.5 46.5,-440.5 275.5,-440.5 275.5,-405.5 46.5,-405.5"/>
<text text-anchor="start" x="53.1094" y="-418.3" font-family="Arial Bold" font-size="18.00" fill="#000000">public.view_party</text>
<text text-anchor="start" x="191.1262" y="-418.3" font-family="Arial" font-size="14.00" fill="#000000">    </text>
<text text-anchor="start" x="225.331" y="-418.3" font-family="Arial" font-size="14.00" fill="#666666">[VIEW]</text>
<polygon fill="none" stroke="#000000" points="46.5,-375.5 46.5,-405.5 275.5,-405.5 275.5,-375.5 46.5,-375.5"/>
<text text-anchor="start" x="53.5" y="-386.9" font-family="Arial" font-size="14.00" fill="#000000">partyid </text>
<text text-anchor="start" x="99.3962" y="-386.9" font-family="Arial" font-size="14.00" fill="#666666">[integer]</text>
<polygon fill="none" stroke="#000000" points="46.5,-345.5 46.5,-375.5 275.5,-375.5 275.5,-345.5 46.5,-345.5"/>
<text text-anchor="start" x="53.5" y="-356.9" font-family="Arial" font-size="14.00" fill="#000000">partycode </text>
<text text-anchor="start" x="118.8548" y="-356.9" font-family="Arial" font-size="14.00" fill="#666666">[varchar(300)]</text>
<polygon fill="none" stroke="#000000" points="46.5,-315.5 46.5,-345.5 275.5,-345.5 275.5,-315.5 46.5,-315.5"/>
<text text-anchor="start" x="53.5" y="-326.9" font-family="Arial" font-size="14.00" fill="#000000">vendorcode </text>
<text text-anchor="start" x="130.5294" y="-326.9" font-family="Arial" font-size="14.00" fill="#666666">[varchar(50)]</text>
<polygon fill="none" stroke="#000000" points="46.5,-285.5 46.5,-315.5 275.5,-315.5 275.5,-285.5 46.5,-285.5"/>
<text text-anchor="start" x="53.5" y="-296.9" font-family="Arial" font-size="14.00" fill="#000000">partyname </text>
<text text-anchor="start" x="123.5154" y="-296.9" font-family="Arial" font-size="14.00" fill="#666666">[varchar(300)]</text>
<polygon fill="none" stroke="#000000" points="46.5,-255.5 46.5,-285.5 275.5,-285.5 275.5,-255.5 46.5,-255.5"/>
<text text-anchor="start" x="53.5" y="-266.9" font-family="Arial" font-size="14.00" fill="#000000">branchid </text>
<text text-anchor="start" x="111.0708" y="-266.9" font-family="Arial" font-size="14.00" fill="#666666">[integer]</text>
<polygon fill="none" stroke="#000000" points="46.5,-225.5 46.5,-255.5 275.5,-255.5 275.5,-225.5 46.5,-225.5"/>
<text text-anchor="start" x="53.5" y="-236.9" font-family="Arial" font-size="14.00" fill="#000000">ismanufacturer </text>
<text text-anchor="start" x="149.9558" y="-236.9" font-family="Arial" font-size="14.00" fill="#666666">[boolean]</text>
<polygon fill="none" stroke="#000000" points="46.5,-195.5 46.5,-225.5 275.5,-225.5 275.5,-195.5 46.5,-195.5"/>
<text text-anchor="start" x="53.5" y="-206.9" font-family="Arial" font-size="14.00" fill="#000000">partyaddress </text>
<text text-anchor="start" x="138.298" y="-206.9" font-family="Arial" font-size="14.00" fill="#666666">[text]</text>
<polygon fill="none" stroke="#000000" points="46.5,-165.5 46.5,-195.5 275.5,-195.5 275.5,-165.5 46.5,-165.5"/>
<text text-anchor="start" x="53.5" y="-176.9" font-family="Arial" font-size="14.00" fill="#000000">partytype </text>
<text text-anchor="start" x="114.9628" y="-176.9" font-family="Arial" font-size="14.00" fill="#666666">[integer]</text>
<polygon fill="none" stroke="#000000" points="46.5,-135.5 46.5,-165.5 275.5,-165.5 275.5,-135.5 46.5,-135.5"/>
<text text-anchor="start" x="53.5" y="-146.9" font-family="Arial" font-size="14.00" fill="#000000">glid </text>
<text text-anchor="start" x="79.169" y="-146.9" font-family="Arial" font-size="14.00" fill="#666666">[integer]</text>
<polygon fill="none" stroke="#000000" points="46.5,-105.5 46.5,-135.5 275.5,-135.5 275.5,-105.5 46.5,-105.5"/>
<text text-anchor="start" x="53.5" y="-116.9" font-family="Arial" font-size="14.00" fill="#000000">natureofparty </text>
<text text-anchor="start" x="139.8618" y="-116.9" font-family="Arial" font-size="14.00" fill="#666666">[integer]</text>
<polygon fill="none" stroke="#000000" points="46.5,-75.5 46.5,-105.5 275.5,-105.5 275.5,-75.5 46.5,-75.5"/>
<text text-anchor="start" x="53.5" y="-86.9" font-family="Arial" font-size="14.00" fill="#000000">prospect </text>
<text text-anchor="start" x="111.0722" y="-86.9" font-family="Arial" font-size="14.00" fill="#666666">[boolean]</text>
<polygon fill="none" stroke="#000000" points="46.5,-45.5 46.5,-75.5 275.5,-75.5 275.5,-45.5 46.5,-45.5"/>
<text text-anchor="start" x="53.5" y="-56.9" font-family="Arial" font-size="14.00" fill="#000000">gstno </text>
<text text-anchor="start" x="91.629" y="-56.9" font-family="Arial" font-size="14.00" fill="#666666">[varchar(255)]</text>
<polygon fill="none" stroke="#000000" stroke-width="3" points="44.5,-44.5 44.5,-442.5 276.5,-442.5 276.5,-44.5 44.5,-44.5"/>
</g>
</g>
</svg>
