<?xml version="1.0" encoding="UTF-8" standalone="no"?>
<!DOCTYPE svg PUBLIC "-//W3C//DTD SVG 1.1//EN"
 "http://www.w3.org/Graphics/SVG/1.1/DTD/svg11.dtd">
<!-- Generated by graphviz version 2.40.1 (20161225.0304)
 -->
<!-- Title: public.hr_employee_reimbrusement_cap_limit Pages: 1 -->
<svg width="608pt" height="315pt"
 viewBox="0.00 0.00 608.00 315.00" xmlns="http://www.w3.org/2000/svg" xmlns:xlink="http://www.w3.org/1999/xlink">
<g id="graph0" class="graph" transform="scale(1 1) rotate(0) translate(4 311)">
<title>public.hr_employee_reimbrusement_cap_limit</title>
<polygon fill="#ffffff" stroke="transparent" points="-4,4 -4,-311 604,-311 604,4 -4,4"/>
<!-- public.hr_employee_reimbrusement_cap_limit -->
<g id="node1" class="node">
<title>public.hr_employee_reimbrusement_cap_limit</title>
<polygon fill="#efefef" stroke="transparent" points="46,-225.5 46,-260.5 554,-260.5 554,-225.5 46,-225.5"/>
<polygon fill="none" stroke="#000000" points="46,-225.5 46,-260.5 554,-260.5 554,-225.5 46,-225.5"/>
<text text-anchor="start" x="52.6952" y="-238.3" font-family="Arial Bold" font-size="18.00" fill="#000000">public.hr_employee_reimbrusement_cap_limit</text>
<text text-anchor="start" x="419.7368" y="-238.3" font-family="Arial" font-size="14.00" fill="#000000">    </text>
<text text-anchor="start" x="453.9416" y="-238.3" font-family="Arial" font-size="14.00" fill="#666666">[BASE TABLE]</text>
<polygon fill="none" stroke="#000000" points="46,-195.5 46,-225.5 554,-225.5 554,-195.5 46,-195.5"/>
<text text-anchor="start" x="53" y="-206.9" font-family="Arial" font-size="14.00" fill="#000000">tableid </text>
<text text-anchor="start" x="98.1248" y="-206.9" font-family="Arial" font-size="14.00" fill="#666666">[integer]</text>
<polygon fill="none" stroke="#000000" points="46,-165.5 46,-195.5 554,-195.5 554,-165.5 46,-165.5"/>
<text text-anchor="start" x="53" y="-176.9" font-family="Arial" font-size="14.00" fill="#000000">un_id </text>
<text text-anchor="start" x="91.1276" y="-176.9" font-family="Arial" font-size="14.00" fill="#666666">[integer]</text>
<polygon fill="none" stroke="#000000" points="46,-135.5 46,-165.5 554,-165.5 554,-135.5 46,-135.5"/>
<text text-anchor="start" x="53" y="-146.9" font-family="Arial" font-size="14.00" fill="#000000">employeeid </text>
<text text-anchor="start" x="128.46" y="-146.9" font-family="Arial" font-size="14.00" fill="#666666">[integer]</text>
<polygon fill="none" stroke="#000000" points="46,-105.5 46,-135.5 554,-135.5 554,-105.5 46,-105.5"/>
<text text-anchor="start" x="53" y="-116.9" font-family="Arial" font-size="14.00" fill="#000000">settingid </text>
<text text-anchor="start" x="109.0154" y="-116.9" font-family="Arial" font-size="14.00" fill="#666666">[integer]</text>
<polygon fill="none" stroke="#000000" points="46,-75.5 46,-105.5 554,-105.5 554,-75.5 46,-75.5"/>
<text text-anchor="start" x="53" y="-86.9" font-family="Arial" font-size="14.00" fill="#000000">settingingvalueid </text>
<text text-anchor="start" x="161.1416" y="-86.9" font-family="Arial" font-size="14.00" fill="#666666">[integer]</text>
<polygon fill="none" stroke="#000000" points="46,-45.5 46,-75.5 554,-75.5 554,-45.5 46,-45.5"/>
<text text-anchor="start" x="53" y="-56.9" font-family="Arial" font-size="14.00" fill="#000000">amount </text>
<text text-anchor="start" x="103.5722" y="-56.9" font-family="Arial" font-size="14.00" fill="#666666">[numeric(15,2)]</text>
<polygon fill="none" stroke="#000000" stroke-width="3" points="44.5,-44.5 44.5,-262.5 555.5,-262.5 555.5,-44.5 44.5,-44.5"/>
</g>
</g>
</svg>
