<?xml version="1.0" encoding="UTF-8" standalone="no"?>
<!DOCTYPE svg PUBLIC "-//W3C//DTD SVG 1.1//EN"
 "http://www.w3.org/Graphics/SVG/1.1/DTD/svg11.dtd">
<!-- Generated by graphviz version 2.40.1 (20161225.0304)
 -->
<!-- Title: public.pur_inspectionaftermrnsamplebatchdetails Pages: 1 -->
<svg width="631pt" height="555pt"
 viewBox="0.00 0.00 631.00 555.00" xmlns="http://www.w3.org/2000/svg" xmlns:xlink="http://www.w3.org/1999/xlink">
<g id="graph0" class="graph" transform="scale(1 1) rotate(0) translate(4 551)">
<title>public.pur_inspectionaftermrnsamplebatchdetails</title>
<polygon fill="#ffffff" stroke="transparent" points="-4,4 -4,-551 627,-551 627,4 -4,4"/>
<!-- public.pur_inspectionaftermrnsamplebatchdetails -->
<g id="node1" class="node">
<title>public.pur_inspectionaftermrnsamplebatchdetails</title>
<polygon fill="#efefef" stroke="transparent" points="46.5,-465.5 46.5,-500.5 577.5,-500.5 577.5,-465.5 46.5,-465.5"/>
<polygon fill="none" stroke="#000000" points="46.5,-465.5 46.5,-500.5 577.5,-500.5 577.5,-465.5 46.5,-465.5"/>
<text text-anchor="start" x="53.1779" y="-478.3" font-family="Arial Bold" font-size="18.00" fill="#000000">public.pur_inspectionaftermrnsamplebatchdetails</text>
<text text-anchor="start" x="443.2541" y="-478.3" font-family="Arial" font-size="14.00" fill="#000000">    </text>
<text text-anchor="start" x="477.4589" y="-478.3" font-family="Arial" font-size="14.00" fill="#666666">[BASE TABLE]</text>
<polygon fill="none" stroke="#000000" points="46.5,-435.5 46.5,-465.5 577.5,-465.5 577.5,-435.5 46.5,-435.5"/>
<text text-anchor="start" x="53.5" y="-446.9" font-family="Arial" font-size="14.00" fill="#000000">inspectionsamplebatchdetailid </text>
<text text-anchor="start" x="244.1016" y="-446.9" font-family="Arial" font-size="14.00" fill="#666666">[integer]</text>
<polygon fill="none" stroke="#000000" points="46.5,-405.5 46.5,-435.5 577.5,-435.5 577.5,-405.5 46.5,-405.5"/>
<text text-anchor="start" x="53.5" y="-416.9" font-family="Arial" font-size="14.00" fill="#000000">inspectionid </text>
<text text-anchor="start" x="131.2966" y="-416.9" font-family="Arial" font-size="14.00" fill="#666666">[integer]</text>
<polygon fill="none" stroke="#000000" points="46.5,-375.5 46.5,-405.5 577.5,-405.5 577.5,-375.5 46.5,-375.5"/>
<text text-anchor="start" x="53.5" y="-386.9" font-family="Arial" font-size="14.00" fill="#000000">inspectionitemid </text>
<text text-anchor="start" x="157.737" y="-386.9" font-family="Arial" font-size="14.00" fill="#666666">[integer]</text>
<polygon fill="none" stroke="#000000" points="46.5,-345.5 46.5,-375.5 577.5,-375.5 577.5,-345.5 46.5,-345.5"/>
<text text-anchor="start" x="53.5" y="-356.9" font-family="Arial" font-size="14.00" fill="#000000">itemwisesamplebatchcreationid </text>
<text text-anchor="start" x="251.8576" y="-356.9" font-family="Arial" font-size="14.00" fill="#666666">[integer]</text>
<polygon fill="none" stroke="#000000" points="46.5,-315.5 46.5,-345.5 577.5,-345.5 577.5,-315.5 46.5,-315.5"/>
<text text-anchor="start" x="53.5" y="-326.9" font-family="Arial" font-size="14.00" fill="#000000">batchid </text>
<text text-anchor="start" x="102.5182" y="-326.9" font-family="Arial" font-size="14.00" fill="#666666">[integer]</text>
<polygon fill="none" stroke="#000000" points="46.5,-285.5 46.5,-315.5 577.5,-315.5 577.5,-285.5 46.5,-285.5"/>
<text text-anchor="start" x="53.5" y="-296.9" font-family="Arial" font-size="14.00" fill="#000000">samplebatchid </text>
<text text-anchor="start" x="147.6332" y="-296.9" font-family="Arial" font-size="14.00" fill="#666666">[integer]</text>
<polygon fill="none" stroke="#000000" points="46.5,-255.5 46.5,-285.5 577.5,-285.5 577.5,-255.5 46.5,-255.5"/>
<text text-anchor="start" x="53.5" y="-266.9" font-family="Arial" font-size="14.00" fill="#000000">samplebatchqty </text>
<text text-anchor="start" x="155.4172" y="-266.9" font-family="Arial" font-size="14.00" fill="#666666">[numeric(15,3)]</text>
<polygon fill="none" stroke="#000000" points="46.5,-225.5 46.5,-255.5 577.5,-255.5 577.5,-225.5 46.5,-225.5"/>
<text text-anchor="start" x="53.5" y="-236.9" font-family="Arial" font-size="14.00" fill="#000000">samplebatchaltqty </text>
<text text-anchor="start" x="170.197" y="-236.9" font-family="Arial" font-size="14.00" fill="#666666">[numeric(15,3)]</text>
<polygon fill="none" stroke="#000000" points="46.5,-195.5 46.5,-225.5 577.5,-225.5 577.5,-195.5 46.5,-195.5"/>
<text text-anchor="start" x="53.5" y="-206.9" font-family="Arial" font-size="14.00" fill="#000000">testqty </text>
<text text-anchor="start" x="98.6276" y="-206.9" font-family="Arial" font-size="14.00" fill="#666666">[numeric(15,3)]</text>
<polygon fill="none" stroke="#000000" points="46.5,-165.5 46.5,-195.5 577.5,-195.5 577.5,-165.5 46.5,-165.5"/>
<text text-anchor="start" x="53.5" y="-176.9" font-family="Arial" font-size="14.00" fill="#000000">testaltqty </text>
<text text-anchor="start" x="113.4074" y="-176.9" font-family="Arial" font-size="14.00" fill="#666666">[numeric(15,3)]</text>
<polygon fill="none" stroke="#000000" points="46.5,-135.5 46.5,-165.5 577.5,-165.5 577.5,-135.5 46.5,-135.5"/>
<text text-anchor="start" x="53.5" y="-146.9" font-family="Arial" font-size="14.00" fill="#000000">isconsumed </text>
<text text-anchor="start" x="132.0708" y="-146.9" font-family="Arial" font-size="14.00" fill="#666666">[boolean]</text>
<polygon fill="none" stroke="#000000" points="46.5,-105.5 46.5,-135.5 577.5,-135.5 577.5,-105.5 46.5,-105.5"/>
<text text-anchor="start" x="53.5" y="-116.9" font-family="Arial" font-size="14.00" fill="#000000">itemid </text>
<text text-anchor="start" x="94.7202" y="-116.9" font-family="Arial" font-size="14.00" fill="#666666">[integer]</text>
<polygon fill="none" stroke="#000000" points="46.5,-75.5 46.5,-105.5 577.5,-105.5 577.5,-75.5 46.5,-75.5"/>
<text text-anchor="start" x="53.5" y="-86.9" font-family="Arial" font-size="14.00" fill="#000000">sampledgradeitembatchid </text>
<text text-anchor="start" x="217.6472" y="-86.9" font-family="Arial" font-size="14.00" fill="#666666">[integer]</text>
<polygon fill="none" stroke="#000000" points="46.5,-45.5 46.5,-75.5 577.5,-75.5 577.5,-45.5 46.5,-45.5"/>
<text text-anchor="start" x="53.5" y="-56.9" font-family="Arial" font-size="14.00" fill="#000000">reasonid </text>
<text text-anchor="start" x="111.0708" y="-56.9" font-family="Arial" font-size="14.00" fill="#666666">[integer]</text>
<polygon fill="none" stroke="#000000" stroke-width="3" points="44.5,-44.5 44.5,-502.5 578.5,-502.5 578.5,-44.5 44.5,-44.5"/>
</g>
</g>
</svg>
