<?xml version="1.0" encoding="UTF-8" standalone="no"?>
<!DOCTYPE svg PUBLIC "-//W3C//DTD SVG 1.1//EN"
 "http://www.w3.org/Graphics/SVG/1.1/DTD/svg11.dtd">
<!-- Generated by graphviz version 2.40.1 (20161225.0304)
 -->
<!-- Title: public.acc_costcenterfuelconsumptiondetail Pages: 1 -->
<svg width="588pt" height="465pt"
 viewBox="0.00 0.00 588.00 465.00" xmlns="http://www.w3.org/2000/svg" xmlns:xlink="http://www.w3.org/1999/xlink">
<g id="graph0" class="graph" transform="scale(1 1) rotate(0) translate(4 461)">
<title>public.acc_costcenterfuelconsumptiondetail</title>
<polygon fill="#ffffff" stroke="transparent" points="-4,4 -4,-461 584,-461 584,4 -4,4"/>
<!-- public.acc_costcenterfuelconsumptiondetail -->
<g id="node1" class="node">
<title>public.acc_costcenterfuelconsumptiondetail</title>
<polygon fill="#efefef" stroke="transparent" points="46,-375.5 46,-410.5 534,-410.5 534,-375.5 46,-375.5"/>
<polygon fill="none" stroke="#000000" points="46,-375.5 46,-410.5 534,-410.5 534,-375.5 46,-375.5"/>
<text text-anchor="start" x="52.6726" y="-388.3" font-family="Arial Bold" font-size="18.00" fill="#000000">public.acc_costcenterfuelconsumptiondetail</text>
<text text-anchor="start" x="399.7594" y="-388.3" font-family="Arial" font-size="14.00" fill="#000000">    </text>
<text text-anchor="start" x="433.9642" y="-388.3" font-family="Arial" font-size="14.00" fill="#666666">[BASE TABLE]</text>
<polygon fill="none" stroke="#000000" points="46,-345.5 46,-375.5 534,-375.5 534,-345.5 46,-345.5"/>
<text text-anchor="start" x="53" y="-356.9" font-family="Arial" font-size="14.00" fill="#000000">costcenterfuelcondetailid </text>
<text text-anchor="start" x="210.9312" y="-356.9" font-family="Arial" font-size="14.00" fill="#666666">[integer]</text>
<polygon fill="none" stroke="#000000" points="46,-315.5 46,-345.5 534,-345.5 534,-315.5 46,-315.5"/>
<text text-anchor="start" x="53" y="-326.9" font-family="Arial" font-size="14.00" fill="#000000">costcenterfuelconid </text>
<text text-anchor="start" x="177.4796" y="-326.9" font-family="Arial" font-size="14.00" fill="#666666">[integer]</text>
<polygon fill="none" stroke="#000000" points="46,-285.5 46,-315.5 534,-315.5 534,-285.5 46,-285.5"/>
<text text-anchor="start" x="53" y="-296.9" font-family="Arial" font-size="14.00" fill="#000000">costcenterid </text>
<text text-anchor="start" x="132.352" y="-296.9" font-family="Arial" font-size="14.00" fill="#666666">[integer]</text>
<polygon fill="none" stroke="#000000" points="46,-255.5 46,-285.5 534,-285.5 534,-255.5 46,-255.5"/>
<text text-anchor="start" x="53" y="-266.9" font-family="Arial" font-size="14.00" fill="#000000">runningkms </text>
<text text-anchor="start" x="129.2314" y="-266.9" font-family="Arial" font-size="14.00" fill="#666666">[numeric(12,5)]</text>
<polygon fill="none" stroke="#000000" points="46,-225.5 46,-255.5 534,-255.5 534,-225.5 46,-225.5"/>
<text text-anchor="start" x="53" y="-236.9" font-family="Arial" font-size="14.00" fill="#000000">working </text>
<text text-anchor="start" x="105.1122" y="-236.9" font-family="Arial" font-size="14.00" fill="#666666">[numeric(12,5)]</text>
<polygon fill="none" stroke="#000000" points="46,-195.5 46,-225.5 534,-225.5 534,-195.5 46,-195.5"/>
<text text-anchor="start" x="53" y="-206.9" font-family="Arial" font-size="14.00" fill="#000000">preventive </text>
<text text-anchor="start" x="121.4614" y="-206.9" font-family="Arial" font-size="14.00" fill="#666666">[numeric(12,5)]</text>
<polygon fill="none" stroke="#000000" points="46,-165.5 46,-195.5 534,-195.5 534,-165.5 46,-165.5"/>
<text text-anchor="start" x="53" y="-176.9" font-family="Arial" font-size="14.00" fill="#000000">breakdown </text>
<text text-anchor="start" x="125.3534" y="-176.9" font-family="Arial" font-size="14.00" fill="#666666">[numeric(12,5)]</text>
<polygon fill="none" stroke="#000000" points="46,-135.5 46,-165.5 534,-165.5 534,-135.5 46,-135.5"/>
<text text-anchor="start" x="53" y="-146.9" font-family="Arial" font-size="14.00" fill="#000000">idle </text>
<text text-anchor="start" x="78.669" y="-146.9" font-family="Arial" font-size="14.00" fill="#666666">[numeric(12,5)]</text>
<polygon fill="none" stroke="#000000" points="46,-105.5 46,-135.5 534,-135.5 534,-105.5 46,-105.5"/>
<text text-anchor="start" x="53" y="-116.9" font-family="Arial" font-size="14.00" fill="#000000">dieselissuedltr </text>
<text text-anchor="start" x="145.5638" y="-116.9" font-family="Arial" font-size="14.00" fill="#666666">[numeric(12,5)]</text>
<polygon fill="none" stroke="#000000" points="46,-75.5 46,-105.5 534,-105.5 534,-75.5 46,-75.5"/>
<text text-anchor="start" x="53" y="-86.9" font-family="Arial" font-size="14.00" fill="#000000">breakdownremark </text>
<text text-anchor="start" x="168.9004" y="-86.9" font-family="Arial" font-size="14.00" fill="#666666">[varchar(50)]</text>
<polygon fill="none" stroke="#000000" points="46,-45.5 46,-75.5 534,-75.5 534,-45.5 46,-45.5"/>
<text text-anchor="start" x="53" y="-56.9" font-family="Arial" font-size="14.00" fill="#000000">shifthr </text>
<text text-anchor="start" x="95.0042" y="-56.9" font-family="Arial" font-size="14.00" fill="#666666">[numeric(12,5)]</text>
<polygon fill="none" stroke="#000000" stroke-width="3" points="44.5,-44.5 44.5,-412.5 535.5,-412.5 535.5,-44.5 44.5,-44.5"/>
</g>
</g>
</svg>
