<?xml version="1.0" encoding="UTF-8" standalone="no"?>
<!DOCTYPE svg PUBLIC "-//W3C//DTD SVG 1.1//EN"
 "http://www.w3.org/Graphics/SVG/1.1/DTD/svg11.dtd">
<!-- Generated by graphviz version 2.40.1 (20161225.0304)
 -->
<!-- Title: public.quotationtermcondition Pages: 1 -->
<svg width="475pt" height="255pt"
 viewBox="0.00 0.00 475.00 255.00" xmlns="http://www.w3.org/2000/svg" xmlns:xlink="http://www.w3.org/1999/xlink">
<g id="graph0" class="graph" transform="scale(1 1) rotate(0) translate(4 251)">
<title>public.quotationtermcondition</title>
<polygon fill="#ffffff" stroke="transparent" points="-4,4 -4,-251 471,-251 471,4 -4,4"/>
<!-- public.quotationtermcondition -->
<g id="node1" class="node">
<title>public.quotationtermcondition</title>
<polygon fill="#efefef" stroke="transparent" points="46.5,-165.5 46.5,-200.5 421.5,-200.5 421.5,-165.5 46.5,-165.5"/>
<polygon fill="none" stroke="#000000" points="46.5,-165.5 46.5,-200.5 421.5,-200.5 421.5,-165.5 46.5,-165.5"/>
<text text-anchor="start" x="53.1863" y="-178.3" font-family="Arial Bold" font-size="18.00" fill="#000000">public.quotationtermcondition</text>
<text text-anchor="start" x="287.2457" y="-178.3" font-family="Arial" font-size="14.00" fill="#000000">    </text>
<text text-anchor="start" x="321.4505" y="-178.3" font-family="Arial" font-size="14.00" fill="#666666">[BASE TABLE]</text>
<polygon fill="none" stroke="#000000" points="46.5,-135.5 46.5,-165.5 421.5,-165.5 421.5,-135.5 46.5,-135.5"/>
<text text-anchor="start" x="53.5" y="-146.9" font-family="Arial" font-size="14.00" fill="#000000">termconditionid </text>
<text text-anchor="start" x="152.291" y="-146.9" font-family="Arial" font-size="14.00" fill="#666666">[integer]</text>
<polygon fill="none" stroke="#000000" points="46.5,-105.5 46.5,-135.5 421.5,-135.5 421.5,-105.5 46.5,-105.5"/>
<text text-anchor="start" x="53.5" y="-116.9" font-family="Arial" font-size="14.00" fill="#000000">quotationid </text>
<text text-anchor="start" x="125.8632" y="-116.9" font-family="Arial" font-size="14.00" fill="#666666">[integer]</text>
<polygon fill="none" stroke="#000000" points="46.5,-75.5 46.5,-105.5 421.5,-105.5 421.5,-75.5 46.5,-75.5"/>
<text text-anchor="start" x="53.5" y="-86.9" font-family="Arial" font-size="14.00" fill="#000000">termconditionname </text>
<text text-anchor="start" x="176.4102" y="-86.9" font-family="Arial" font-size="14.00" fill="#666666">[varchar(300)]</text>
<polygon fill="none" stroke="#000000" points="46.5,-45.5 46.5,-75.5 421.5,-75.5 421.5,-45.5 46.5,-45.5"/>
<text text-anchor="start" x="53.5" y="-56.9" font-family="Arial" font-size="14.00" fill="#000000">description </text>
<text text-anchor="start" x="125.068" y="-56.9" font-family="Arial" font-size="14.00" fill="#666666">[text]</text>
<polygon fill="none" stroke="#000000" stroke-width="3" points="44.5,-44.5 44.5,-202.5 422.5,-202.5 422.5,-44.5 44.5,-44.5"/>
</g>
</g>
</svg>
