<?xml version="1.0" encoding="UTF-8" standalone="no"?>
<!DOCTYPE svg PUBLIC "-//W3C//DTD SVG 1.1//EN"
 "http://www.w3.org/Graphics/SVG/1.1/DTD/svg11.dtd">
<!-- Generated by graphviz version 2.40.1 (20161225.0304)
 -->
<!-- Title: public.temp_prodreasoncolumnar Pages: 1 -->
<svg width="508pt" height="195pt"
 viewBox="0.00 0.00 508.00 195.00" xmlns="http://www.w3.org/2000/svg" xmlns:xlink="http://www.w3.org/1999/xlink">
<g id="graph0" class="graph" transform="scale(1 1) rotate(0) translate(4 191)">
<title>public.temp_prodreasoncolumnar</title>
<polygon fill="#ffffff" stroke="transparent" points="-4,4 -4,-191 504,-191 504,4 -4,4"/>
<!-- public.temp_prodreasoncolumnar -->
<g id="node1" class="node">
<title>public.temp_prodreasoncolumnar</title>
<polygon fill="#efefef" stroke="transparent" points="46,-105.5 46,-140.5 454,-140.5 454,-105.5 46,-105.5"/>
<polygon fill="none" stroke="#000000" points="46,-105.5 46,-140.5 454,-140.5 454,-105.5 46,-105.5"/>
<text text-anchor="start" x="52.6893" y="-118.3" font-family="Arial Bold" font-size="18.00" fill="#000000">public.temp_prodreasoncolumnar</text>
<text text-anchor="start" x="319.7427" y="-118.3" font-family="Arial" font-size="14.00" fill="#000000">    </text>
<text text-anchor="start" x="353.9475" y="-118.3" font-family="Arial" font-size="14.00" fill="#666666">[BASE TABLE]</text>
<polygon fill="none" stroke="#000000" points="46,-75.5 46,-105.5 454,-105.5 454,-75.5 46,-75.5"/>
<text text-anchor="start" x="53" y="-86.9" font-family="Arial" font-size="14.00" fill="#000000">itemid </text>
<text text-anchor="start" x="94.2202" y="-86.9" font-family="Arial" font-size="14.00" fill="#666666">[integer]</text>
<polygon fill="none" stroke="#000000" points="46,-45.5 46,-75.5 454,-75.5 454,-45.5 46,-45.5"/>
<text text-anchor="start" x="53" y="-56.9" font-family="Arial" font-size="14.00" fill="#000000">serialid </text>
<text text-anchor="start" x="101.2188" y="-56.9" font-family="Arial" font-size="14.00" fill="#666666">[integer]</text>
<polygon fill="none" stroke="#000000" stroke-width="3" points="44.5,-44.5 44.5,-142.5 455.5,-142.5 455.5,-44.5 44.5,-44.5"/>
</g>
</g>
</svg>
