<?xml version="1.0" encoding="UTF-8" standalone="no"?>
<!DOCTYPE svg PUBLIC "-//W3C//DTD SVG 1.1//EN"
 "http://www.w3.org/Graphics/SVG/1.1/DTD/svg11.dtd">
<!-- Generated by graphviz version 2.40.1 (20161225.0304)
 -->
<!-- Title: public.sale_sipiserviceitemdetail Pages: 1 -->
<svg width="497pt" height="285pt"
 viewBox="0.00 0.00 497.00 285.00" xmlns="http://www.w3.org/2000/svg" xmlns:xlink="http://www.w3.org/1999/xlink">
<g id="graph0" class="graph" transform="scale(1 1) rotate(0) translate(4 281)">
<title>public.sale_sipiserviceitemdetail</title>
<polygon fill="#ffffff" stroke="transparent" points="-4,4 -4,-281 493,-281 493,4 -4,4"/>
<!-- public.sale_sipiserviceitemdetail -->
<g id="node1" class="node">
<title>public.sale_sipiserviceitemdetail</title>
<polygon fill="#efefef" stroke="transparent" points="46.5,-195.5 46.5,-230.5 443.5,-230.5 443.5,-195.5 46.5,-195.5"/>
<polygon fill="none" stroke="#000000" points="46.5,-195.5 46.5,-230.5 443.5,-230.5 443.5,-195.5 46.5,-195.5"/>
<text text-anchor="start" x="53.2063" y="-208.3" font-family="Arial Bold" font-size="18.00" fill="#000000">public.sale_sipiserviceitemdetail</text>
<text text-anchor="start" x="309.2257" y="-208.3" font-family="Arial" font-size="14.00" fill="#000000">    </text>
<text text-anchor="start" x="343.4305" y="-208.3" font-family="Arial" font-size="14.00" fill="#666666">[BASE TABLE]</text>
<polygon fill="none" stroke="#000000" points="46.5,-165.5 46.5,-195.5 443.5,-195.5 443.5,-165.5 46.5,-165.5"/>
<text text-anchor="start" x="53.5" y="-176.9" font-family="Arial" font-size="14.00" fill="#000000">serviceitemdetailid </text>
<text text-anchor="start" x="172.5042" y="-176.9" font-family="Arial" font-size="14.00" fill="#666666">[integer]</text>
<polygon fill="none" stroke="#000000" points="46.5,-135.5 46.5,-165.5 443.5,-165.5 443.5,-135.5 46.5,-135.5"/>
<text text-anchor="start" x="53.5" y="-146.9" font-family="Arial" font-size="14.00" fill="#000000">invoiceid </text>
<text text-anchor="start" x="111.8408" y="-146.9" font-family="Arial" font-size="14.00" fill="#666666">[integer]</text>
<polygon fill="none" stroke="#000000" points="46.5,-105.5 46.5,-135.5 443.5,-135.5 443.5,-105.5 46.5,-105.5"/>
<text text-anchor="start" x="53.5" y="-116.9" font-family="Arial" font-size="14.00" fill="#000000">itemid </text>
<text text-anchor="start" x="94.7202" y="-116.9" font-family="Arial" font-size="14.00" fill="#666666">[integer]</text>
<polygon fill="none" stroke="#000000" points="46.5,-75.5 46.5,-105.5 443.5,-105.5 443.5,-75.5 46.5,-75.5"/>
<text text-anchor="start" x="53.5" y="-86.9" font-family="Arial" font-size="14.00" fill="#000000">serviceamount </text>
<text text-anchor="start" x="148.4046" y="-86.9" font-family="Arial" font-size="14.00" fill="#666666">[numeric(18,5)]</text>
<polygon fill="none" stroke="#000000" points="46.5,-45.5 46.5,-75.5 443.5,-75.5 443.5,-45.5 46.5,-45.5"/>
<text text-anchor="start" x="53.5" y="-56.9" font-family="Arial" font-size="14.00" fill="#000000">issales </text>
<text text-anchor="start" x="100.169" y="-56.9" font-family="Arial" font-size="14.00" fill="#666666">[boolean]</text>
<polygon fill="none" stroke="#000000" stroke-width="3" points="44.5,-44.5 44.5,-232.5 444.5,-232.5 444.5,-44.5 44.5,-44.5"/>
</g>
</g>
</svg>
