<?xml version="1.0" encoding="UTF-8" standalone="no"?>
<!DOCTYPE svg PUBLIC "-//W3C//DTD SVG 1.1//EN"
 "http://www.w3.org/Graphics/SVG/1.1/DTD/svg11.dtd">
<!-- Generated by graphviz version 2.40.1 (20161225.0304)
 -->
<!-- Title: public.comn_updatecostdate Pages: 1 -->
<svg width="1054pt" height="3689pt"
 viewBox="0.00 0.00 1054.00 3689.00" xmlns="http://www.w3.org/2000/svg" xmlns:xlink="http://www.w3.org/1999/xlink">
<g id="graph0" class="graph" transform="scale(1 1) rotate(0) translate(4 3685)">
<title>public.comn_updatecostdate</title>
<polygon fill="#ffffff" stroke="transparent" points="-4,4 -4,-3685 1050,-3685 1050,4 -4,4"/>
<!-- public.comn_updatecostdate -->
<g id="node1" class="node">
<title>public.comn_updatecostdate</title>
<polygon fill="#efefef" stroke="transparent" points="310,-3172.5 310,-3207.5 680,-3207.5 680,-3172.5 310,-3172.5"/>
<polygon fill="none" stroke="#000000" points="310,-3172.5 310,-3207.5 680,-3207.5 680,-3172.5 310,-3172.5"/>
<text text-anchor="start" x="316.6748" y="-3185.3" font-family="Arial Bold" font-size="18.00" fill="#000000">public.comn_updatecostdate</text>
<text text-anchor="start" x="545.7572" y="-3185.3" font-family="Arial" font-size="14.00" fill="#000000">    </text>
<text text-anchor="start" x="579.962" y="-3185.3" font-family="Arial" font-size="14.00" fill="#666666">[BASE TABLE]</text>
<polygon fill="none" stroke="#000000" points="310,-3142.5 310,-3172.5 680,-3172.5 680,-3142.5 310,-3142.5"/>
<text text-anchor="start" x="317" y="-3153.9" font-family="Arial" font-size="14.00" fill="#000000">cuttoffid </text>
<text text-anchor="start" x="369.9074" y="-3153.9" font-family="Arial" font-size="14.00" fill="#666666">[integer]</text>
<polygon fill="none" stroke="#000000" points="310,-3112.5 310,-3142.5 680,-3142.5 680,-3112.5 310,-3112.5"/>
<text text-anchor="start" x="317" y="-3123.9" font-family="Arial" font-size="14.00" fill="#000000">branchid </text>
<text text-anchor="start" x="374.5708" y="-3123.9" font-family="Arial" font-size="14.00" fill="#666666">[integer]</text>
<polygon fill="none" stroke="#000000" points="310,-3082.5 310,-3112.5 680,-3112.5 680,-3082.5 310,-3082.5"/>
<text text-anchor="start" x="317" y="-3093.9" font-family="Arial" font-size="14.00" fill="#000000">formid </text>
<text text-anchor="start" x="359.7742" y="-3093.9" font-family="Arial" font-size="14.00" fill="#666666">[integer]</text>
<polygon fill="none" stroke="#000000" points="310,-3052.5 310,-3082.5 680,-3082.5 680,-3052.5 310,-3052.5"/>
<text text-anchor="start" x="317" y="-3063.9" font-family="Arial" font-size="14.00" fill="#000000">formname </text>
<text text-anchor="start" x="383.8934" y="-3063.9" font-family="Arial" font-size="14.00" fill="#666666">[varchar(50)]</text>
<polygon fill="none" stroke="#000000" points="310,-3022.5 310,-3052.5 680,-3052.5 680,-3022.5 310,-3022.5"/>
<text text-anchor="start" x="317" y="-3033.9" font-family="Arial" font-size="14.00" fill="#000000">transactiondate </text>
<text text-anchor="start" x="416.5904" y="-3033.9" font-family="Arial" font-size="14.00" fill="#666666">[date]</text>
<polygon fill="none" stroke="#000000" points="310,-2992.5 310,-3022.5 680,-3022.5 680,-2992.5 310,-2992.5"/>
<text text-anchor="start" x="317" y="-3003.9" font-family="Arial" font-size="14.00" fill="#000000">transactiondate2 </text>
<text text-anchor="start" x="424.373" y="-3003.9" font-family="Arial" font-size="14.00" fill="#666666">[date]</text>
<polygon fill="none" stroke="#000000" points="310,-2962.5 310,-2992.5 680,-2992.5 680,-2962.5 310,-2962.5"/>
<text text-anchor="start" x="317" y="-2973.9" font-family="Arial" font-size="14.00" fill="#000000">isbatch </text>
<text text-anchor="start" x="365.2356" y="-2973.9" font-family="Arial" font-size="14.00" fill="#666666">[boolean]</text>
<polygon fill="none" stroke="#000000" points="310,-2932.5 310,-2962.5 680,-2962.5 680,-2932.5 310,-2932.5"/>
<text text-anchor="start" x="317" y="-2943.9" font-family="Arial" font-size="14.00" fill="#000000">status </text>
<text text-anchor="start" x="358.237" y="-2943.9" font-family="Arial" font-size="14.00" fill="#666666">[boolean]</text>
<polygon fill="none" stroke="#000000" points="310,-2902.5 310,-2932.5 680,-2932.5 680,-2902.5 310,-2902.5"/>
<text text-anchor="start" x="317" y="-2913.9" font-family="Arial" font-size="14.00" fill="#000000">addtime </text>
<text text-anchor="start" x="370.6788" y="-2913.9" font-family="Arial" font-size="14.00" fill="#666666">[timestamp without time zone]</text>
<polygon fill="none" stroke="#000000" points="310,-2872.5 310,-2902.5 680,-2902.5 680,-2872.5 310,-2872.5"/>
<text text-anchor="start" x="317" y="-2883.9" font-family="Arial" font-size="14.00" fill="#000000">adduser </text>
<text text-anchor="start" x="371.4642" y="-2883.9" font-family="Arial" font-size="14.00" fill="#666666">[varchar(50)]</text>
<polygon fill="none" stroke="#000000" stroke-width="3" points="308.5,-2871.5 308.5,-3209.5 681.5,-3209.5 681.5,-2871.5 308.5,-2871.5"/>
</g>
<!-- public.branchmaster -->
<g id="node3" class="node">
<title>public.branchmaster</title>
<polygon fill="#efefef" stroke="transparent" points="322,-2712.5 322,-2747.5 667,-2747.5 667,-2712.5 322,-2712.5"/>
<polygon fill="none" stroke="#000000" points="322,-2712.5 322,-2747.5 667,-2747.5 667,-2712.5 322,-2712.5"/>
<text text-anchor="start" x="349.7034" y="-2725.3" font-family="Arial Bold" font-size="18.00" fill="#000000">public.branchmaster</text>
<text text-anchor="start" x="511.7286" y="-2725.3" font-family="Arial" font-size="14.00" fill="#000000">    </text>
<text text-anchor="start" x="545.9334" y="-2725.3" font-family="Arial" font-size="14.00" fill="#666666">[BASE TABLE]</text>
<polygon fill="none" stroke="#000000" points="322,-2682.5 322,-2712.5 667,-2712.5 667,-2682.5 322,-2682.5"/>
<text text-anchor="start" x="329" y="-2693.9" font-family="Arial" font-size="14.00" fill="#000000">branchid    </text>
<text text-anchor="start" x="416.885" y="-2693.9" font-family="Arial" font-size="14.00" fill="#666666">[integer]</text>
<polygon fill="none" stroke="#000000" points="322,-2652.5 322,-2682.5 667,-2682.5 667,-2652.5 322,-2652.5"/>
<text text-anchor="start" x="329" y="-2663.9" font-family="Arial" font-size="14.00" fill="#000000">branchname    </text>
<text text-anchor="start" x="441.0042" y="-2663.9" font-family="Arial" font-size="14.00" fill="#666666">[varchar(100)]</text>
<polygon fill="none" stroke="#000000" points="322,-2622.5 322,-2652.5 667,-2652.5 667,-2622.5 322,-2622.5"/>
<text text-anchor="start" x="329" y="-2633.9" font-family="Arial" font-size="14.00" fill="#000000">address    </text>
<text text-anchor="start" x="412.9958" y="-2633.9" font-family="Arial" font-size="14.00" fill="#666666">[varchar(200)]</text>
<polygon fill="none" stroke="#000000" points="322,-2592.5 322,-2622.5 667,-2622.5 667,-2592.5 322,-2592.5"/>
<text text-anchor="start" x="329" y="-2603.9" font-family="Arial" font-size="14.00" fill="#000000">stateid    </text>
<text text-anchor="start" x="404.4404" y="-2603.9" font-family="Arial" font-size="14.00" fill="#666666">[integer]</text>
<polygon fill="none" stroke="#000000" points="322,-2562.5 322,-2592.5 667,-2592.5 667,-2562.5 322,-2562.5"/>
<text text-anchor="start" x="329" y="-2573.9" font-family="Arial" font-size="14.00" fill="#000000">isactive    </text>
<text text-anchor="start" x="409.8738" y="-2573.9" font-family="Arial" font-size="14.00" fill="#666666">[boolean]</text>
<polygon fill="none" stroke="#000000" points="322,-2532.5 322,-2562.5 667,-2562.5 667,-2532.5 322,-2532.5"/>
<text text-anchor="start" x="329" y="-2543.9" font-family="Arial" font-size="14.00" fill="#000000">cityid    </text>
<text text-anchor="start" x="395.0912" y="-2543.9" font-family="Arial" font-size="14.00" fill="#666666">[integer]</text>
<polygon fill="none" stroke="#000000" points="322,-2502.5 322,-2532.5 667,-2532.5 667,-2502.5 322,-2502.5"/>
<text text-anchor="start" x="329" y="-2513.9" font-family="Arial" font-size="14.00" fill="#000000">pincode    </text>
<text text-anchor="start" x="412.2244" y="-2513.9" font-family="Arial" font-size="14.00" fill="#666666">[varchar(6)]</text>
<polygon fill="none" stroke="#000000" points="322,-2472.5 322,-2502.5 667,-2502.5 667,-2472.5 322,-2472.5"/>
<text text-anchor="start" x="329" y="-2483.9" font-family="Arial" font-size="14.00" fill="#000000">contactno    </text>
<text text-anchor="start" x="423.899" y="-2483.9" font-family="Arial" font-size="14.00" fill="#666666">[varchar(250)]</text>
<polygon fill="none" stroke="#000000" points="322,-2442.5 322,-2472.5 667,-2472.5 667,-2442.5 322,-2442.5"/>
<text text-anchor="start" x="329" y="-2453.9" font-family="Arial" font-size="14.00" fill="#000000">remark    </text>
<text text-anchor="start" x="406.7518" y="-2453.9" font-family="Arial" font-size="14.00" fill="#666666">[varchar(200)]</text>
<polygon fill="none" stroke="#000000" points="322,-2412.5 322,-2442.5 667,-2442.5 667,-2412.5 322,-2412.5"/>
<text text-anchor="start" x="329" y="-2423.9" font-family="Arial" font-size="14.00" fill="#000000">isauthorized    </text>
<text text-anchor="start" x="438.6648" y="-2423.9" font-family="Arial" font-size="14.00" fill="#666666">[boolean]</text>
<polygon fill="none" stroke="#000000" points="322,-2382.5 322,-2412.5 667,-2412.5 667,-2382.5 322,-2382.5"/>
<text text-anchor="start" x="329" y="-2393.9" font-family="Arial" font-size="14.00" fill="#000000">authorizedby    </text>
<text text-anchor="start" x="443.3408" y="-2393.9" font-family="Arial" font-size="14.00" fill="#666666">[integer]</text>
<polygon fill="none" stroke="#000000" points="322,-2352.5 322,-2382.5 667,-2382.5 667,-2352.5 322,-2352.5"/>
<text text-anchor="start" x="329" y="-2363.9" font-family="Arial" font-size="14.00" fill="#000000">authorizedon    </text>
<text text-anchor="start" x="444.1234" y="-2363.9" font-family="Arial" font-size="14.00" fill="#666666">[timestamp without time zone]</text>
<polygon fill="none" stroke="#000000" points="322,-2322.5 322,-2352.5 667,-2352.5 667,-2322.5 322,-2322.5"/>
<text text-anchor="start" x="329" y="-2333.9" font-family="Arial" font-size="14.00" fill="#000000">createdby    </text>
<text text-anchor="start" x="424.669" y="-2333.9" font-family="Arial" font-size="14.00" fill="#666666">[integer]</text>
<polygon fill="none" stroke="#000000" points="322,-2292.5 322,-2322.5 667,-2322.5 667,-2292.5 322,-2292.5"/>
<text text-anchor="start" x="329" y="-2303.9" font-family="Arial" font-size="14.00" fill="#000000">createdon    </text>
<text text-anchor="start" x="425.4516" y="-2303.9" font-family="Arial" font-size="14.00" fill="#666666">[timestamp without time zone]</text>
<polygon fill="none" stroke="#000000" points="322,-2262.5 322,-2292.5 667,-2292.5 667,-2262.5 322,-2262.5"/>
<text text-anchor="start" x="329" y="-2273.9" font-family="Arial" font-size="14.00" fill="#000000">editlog    </text>
<text text-anchor="start" x="404.439" y="-2273.9" font-family="Arial" font-size="14.00" fill="#666666">[text]</text>
<polygon fill="none" stroke="#000000" points="322,-2232.5 322,-2262.5 667,-2262.5 667,-2232.5 322,-2232.5"/>
<text text-anchor="start" x="329" y="-2243.9" font-family="Arial" font-size="14.00" fill="#000000">tallyipandportno    </text>
<text text-anchor="start" x="462.0098" y="-2243.9" font-family="Arial" font-size="14.00" fill="#666666">[varchar(200)]</text>
<polygon fill="none" stroke="#000000" points="322,-2202.5 322,-2232.5 667,-2232.5 667,-2202.5 322,-2202.5"/>
<text text-anchor="start" x="329" y="-2213.9" font-family="Arial" font-size="14.00" fill="#000000">tallybookname    </text>
<text text-anchor="start" x="453.4474" y="-2213.9" font-family="Arial" font-size="14.00" fill="#666666">[varchar(200)]</text>
<polygon fill="none" stroke="#000000" points="322,-2172.5 322,-2202.5 667,-2202.5 667,-2172.5 322,-2172.5"/>
<text text-anchor="start" x="329" y="-2183.9" font-family="Arial" font-size="14.00" fill="#000000">branchshortname    </text>
<text text-anchor="start" x="472.1206" y="-2183.9" font-family="Arial" font-size="14.00" fill="#666666">[varchar(5)]</text>
<polygon fill="none" stroke="#000000" points="322,-2142.5 322,-2172.5 667,-2172.5 667,-2142.5 322,-2142.5"/>
<text text-anchor="start" x="329" y="-2153.9" font-family="Arial" font-size="14.00" fill="#000000">cstno    </text>
<text text-anchor="start" x="396.6606" y="-2153.9" font-family="Arial" font-size="14.00" fill="#666666">[varchar(30)]</text>
<polygon fill="none" stroke="#000000" points="322,-2112.5 322,-2142.5 667,-2142.5 667,-2112.5 322,-2112.5"/>
<text text-anchor="start" x="329" y="-2123.9" font-family="Arial" font-size="14.00" fill="#000000">dtno    </text>
<text text-anchor="start" x="390.4432" y="-2123.9" font-family="Arial" font-size="14.00" fill="#666666">[varchar(30)]</text>
<polygon fill="none" stroke="#000000" points="322,-2082.5 322,-2112.5 667,-2112.5 667,-2082.5 322,-2082.5"/>
<text text-anchor="start" x="329" y="-2093.9" font-family="Arial" font-size="14.00" fill="#000000">tinno    </text>
<text text-anchor="start" x="393.5498" y="-2093.9" font-family="Arial" font-size="14.00" fill="#666666">[varchar(30)]</text>
<polygon fill="none" stroke="#000000" points="322,-2052.5 322,-2082.5 667,-2082.5 667,-2052.5 322,-2052.5"/>
<text text-anchor="start" x="329" y="-2063.9" font-family="Arial" font-size="14.00" fill="#000000">divison    </text>
<text text-anchor="start" x="406.7658" y="-2063.9" font-family="Arial" font-size="14.00" fill="#666666">[varchar(30)]</text>
<polygon fill="none" stroke="#000000" points="322,-2022.5 322,-2052.5 667,-2052.5 667,-2022.5 322,-2022.5"/>
<text text-anchor="start" x="329" y="-2033.9" font-family="Arial" font-size="14.00" fill="#000000">range    </text>
<text text-anchor="start" x="398.9958" y="-2033.9" font-family="Arial" font-size="14.00" fill="#666666">[varchar(30)]</text>
<polygon fill="none" stroke="#000000" points="322,-1992.5 322,-2022.5 667,-2022.5 667,-1992.5 322,-1992.5"/>
<text text-anchor="start" x="329" y="-2003.9" font-family="Arial" font-size="14.00" fill="#000000">assesseecode    </text>
<text text-anchor="start" x="452.683" y="-2003.9" font-family="Arial" font-size="14.00" fill="#666666">[varchar(30)]</text>
<polygon fill="none" stroke="#000000" points="322,-1962.5 322,-1992.5 667,-1992.5 667,-1962.5 322,-1962.5"/>
<text text-anchor="start" x="329" y="-1973.9" font-family="Arial" font-size="14.00" fill="#000000">regdoffice    </text>
<text text-anchor="start" x="424.6662" y="-1973.9" font-family="Arial" font-size="14.00" fill="#666666">[varchar(200)]</text>
<polygon fill="none" stroke="#000000" points="322,-1932.5 322,-1962.5 667,-1962.5 667,-1932.5 322,-1932.5"/>
<text text-anchor="start" x="329" y="-1943.9" font-family="Arial" font-size="14.00" fill="#000000">regphoneno    </text>
<text text-anchor="start" x="437.9088" y="-1943.9" font-family="Arial" font-size="14.00" fill="#666666">[varchar(30)]</text>
<polygon fill="none" stroke="#000000" points="322,-1902.5 322,-1932.5 667,-1932.5 667,-1902.5 322,-1902.5"/>
<text text-anchor="start" x="329" y="-1913.9" font-family="Arial" font-size="14.00" fill="#000000">faxno    </text>
<text text-anchor="start" x="397.4432" y="-1913.9" font-family="Arial" font-size="14.00" fill="#666666">[varchar(30)]</text>
<polygon fill="none" stroke="#000000" points="322,-1872.5 322,-1902.5 667,-1902.5 667,-1872.5 322,-1872.5"/>
<text text-anchor="start" x="329" y="-1883.9" font-family="Arial" font-size="14.00" fill="#000000">email    </text>
<text text-anchor="start" x="396.6438" y="-1883.9" font-family="Arial" font-size="14.00" fill="#666666">[varchar(50)]</text>
<polygon fill="none" stroke="#000000" points="322,-1842.5 322,-1872.5 667,-1872.5 667,-1842.5 322,-1842.5"/>
<text text-anchor="start" x="329" y="-1853.9" font-family="Arial" font-size="14.00" fill="#000000">headauthorizedby    </text>
<text text-anchor="start" x="474.4712" y="-1853.9" font-family="Arial" font-size="14.00" fill="#666666">[integer]</text>
<polygon fill="none" stroke="#000000" points="322,-1812.5 322,-1842.5 667,-1842.5 667,-1812.5 322,-1812.5"/>
<text text-anchor="start" x="328.803" y="-1823.9" font-family="Arial" font-size="14.00" fill="#000000">headauthorizedon    </text>
<text text-anchor="start" x="475.0568" y="-1823.9" font-family="Arial" font-size="14.00" fill="#666666">[timestamp without time zone]</text>
<polygon fill="none" stroke="#000000" points="322,-1782.5 322,-1812.5 667,-1812.5 667,-1782.5 322,-1782.5"/>
<text text-anchor="start" x="329" y="-1793.9" font-family="Arial" font-size="14.00" fill="#000000">branchtype    </text>
<text text-anchor="start" x="432.4516" y="-1793.9" font-family="Arial" font-size="14.00" fill="#666666">[integer]</text>
<polygon fill="none" stroke="#000000" points="322,-1752.5 322,-1782.5 667,-1782.5 667,-1752.5 322,-1752.5"/>
<text text-anchor="start" x="329" y="-1763.9" font-family="Arial" font-size="14.00" fill="#000000">booksbeginingfrom    </text>
<text text-anchor="start" x="481.4558" y="-1763.9" font-family="Arial" font-size="14.00" fill="#666666">[date]</text>
<polygon fill="none" stroke="#000000" points="322,-1722.5 322,-1752.5 667,-1752.5 667,-1722.5 322,-1722.5"/>
<text text-anchor="start" x="329" y="-1733.9" font-family="Arial" font-size="14.00" fill="#000000">excisebookname    </text>
<text text-anchor="start" x="468.2328" y="-1733.9" font-family="Arial" font-size="14.00" fill="#666666">[varchar]</text>
<polygon fill="none" stroke="#000000" points="322,-1692.5 322,-1722.5 667,-1722.5 667,-1692.5 322,-1692.5"/>
<text text-anchor="start" x="329" y="-1703.9" font-family="Arial" font-size="14.00" fill="#000000">autoemail    </text>
<text text-anchor="start" x="423.8822" y="-1703.9" font-family="Arial" font-size="14.00" fill="#666666">[boolean]</text>
<polygon fill="none" stroke="#000000" points="322,-1662.5 322,-1692.5 667,-1692.5 667,-1662.5 322,-1662.5"/>
<text text-anchor="start" x="329" y="-1673.9" font-family="Arial" font-size="14.00" fill="#000000">inactivedate    </text>
<text text-anchor="start" x="437.8948" y="-1673.9" font-family="Arial" font-size="14.00" fill="#666666">[timestamp without time zone]</text>
<polygon fill="none" stroke="#000000" points="322,-1632.5 322,-1662.5 667,-1662.5 667,-1632.5 322,-1632.5"/>
<text text-anchor="start" x="329" y="-1643.9" font-family="Arial" font-size="14.00" fill="#000000">branch_logo1    </text>
<text text-anchor="start" x="448.0154" y="-1643.9" font-family="Arial" font-size="14.00" fill="#666666">[bytea]</text>
<polygon fill="none" stroke="#000000" points="322,-1602.5 322,-1632.5 667,-1632.5 667,-1602.5 322,-1602.5"/>
<text text-anchor="start" x="329" y="-1613.9" font-family="Arial" font-size="14.00" fill="#000000">branch_logo2    </text>
<text text-anchor="start" x="448.0154" y="-1613.9" font-family="Arial" font-size="14.00" fill="#666666">[bytea]</text>
<polygon fill="none" stroke="#000000" points="322,-1572.5 322,-1602.5 667,-1602.5 667,-1572.5 322,-1572.5"/>
<text text-anchor="start" x="329" y="-1583.9" font-family="Arial" font-size="14.00" fill="#000000">branch_logo3    </text>
<text text-anchor="start" x="448.0154" y="-1583.9" font-family="Arial" font-size="14.00" fill="#666666">[bytea]</text>
<polygon fill="none" stroke="#000000" points="322,-1542.5 322,-1572.5 667,-1572.5 667,-1542.5 322,-1542.5"/>
<text text-anchor="start" x="329" y="-1553.9" font-family="Arial" font-size="14.00" fill="#000000">branch_logo4    </text>
<text text-anchor="start" x="448.0154" y="-1553.9" font-family="Arial" font-size="14.00" fill="#666666">[bytea]</text>
<polygon fill="none" stroke="#000000" points="322,-1512.5 322,-1542.5 667,-1542.5 667,-1512.5 322,-1512.5"/>
<text text-anchor="start" x="329" y="-1523.9" font-family="Arial" font-size="14.00" fill="#000000">branch_logo5    </text>
<text text-anchor="start" x="448.0154" y="-1523.9" font-family="Arial" font-size="14.00" fill="#666666">[bytea]</text>
<polygon fill="none" stroke="#000000" points="322,-1482.5 322,-1512.5 667,-1512.5 667,-1482.5 322,-1482.5"/>
<text text-anchor="start" x="329" y="-1493.9" font-family="Arial" font-size="14.00" fill="#000000">groupid    </text>
<text text-anchor="start" x="409.885" y="-1493.9" font-family="Arial" font-size="14.00" fill="#666666">[integer]</text>
<polygon fill="none" stroke="#000000" points="322,-1452.5 322,-1482.5 667,-1482.5 667,-1452.5 322,-1452.5"/>
<text text-anchor="start" x="329" y="-1463.9" font-family="Arial" font-size="14.00" fill="#000000">companyid    </text>
<text text-anchor="start" x="430.885" y="-1463.9" font-family="Arial" font-size="14.00" fill="#666666">[integer]</text>
<polygon fill="none" stroke="#000000" points="322,-1422.5 322,-1452.5 667,-1452.5 667,-1422.5 322,-1422.5"/>
<text text-anchor="start" x="329" y="-1433.9" font-family="Arial" font-size="14.00" fill="#000000">enablefreescheme    </text>
<text text-anchor="start" x="478.3492" y="-1433.9" font-family="Arial" font-size="14.00" fill="#666666">[boolean]</text>
<polygon fill="none" stroke="#000000" points="322,-1392.5 322,-1422.5 667,-1422.5 667,-1392.5 322,-1392.5"/>
<text text-anchor="start" x="329" y="-1403.9" font-family="Arial" font-size="14.00" fill="#000000">schemetodate    </text>
<text text-anchor="start" x="451.1248" y="-1403.9" font-family="Arial" font-size="14.00" fill="#666666">[date]</text>
<polygon fill="none" stroke="#000000" points="322,-1362.5 322,-1392.5 667,-1392.5 667,-1362.5 322,-1362.5"/>
<text text-anchor="start" x="329" y="-1373.9" font-family="Arial" font-size="14.00" fill="#000000">schemefromdate    </text>
<text text-anchor="start" x="467.446" y="-1373.9" font-family="Arial" font-size="14.00" fill="#666666">[date]</text>
<polygon fill="none" stroke="#000000" points="322,-1332.5 322,-1362.5 667,-1362.5 667,-1332.5 322,-1332.5"/>
<text text-anchor="start" x="329" y="-1343.9" font-family="Arial" font-size="14.00" fill="#000000">enablebackdateentry    </text>
<text text-anchor="start" x="493.1444" y="-1343.9" font-family="Arial" font-size="14.00" fill="#666666">[boolean]</text>
<polygon fill="none" stroke="#000000" points="322,-1302.5 322,-1332.5 667,-1332.5 667,-1302.5 322,-1302.5"/>
<text text-anchor="start" x="329" y="-1313.9" font-family="Arial" font-size="14.00" fill="#000000">backdate    </text>
<text text-anchor="start" x="420.0084" y="-1313.9" font-family="Arial" font-size="14.00" fill="#666666">[date]</text>
<polygon fill="none" stroke="#000000" points="322,-1272.5 322,-1302.5 667,-1302.5 667,-1272.5 322,-1272.5"/>
<text text-anchor="start" x="329" y="-1283.9" font-family="Arial" font-size="14.00" fill="#000000">ieccode    </text>
<text text-anchor="start" x="411.4418" y="-1283.9" font-family="Arial" font-size="14.00" fill="#666666">[varchar]</text>
<polygon fill="none" stroke="#000000" points="322,-1242.5 322,-1272.5 667,-1272.5 667,-1242.5 322,-1242.5"/>
<text text-anchor="start" x="329" y="-1253.9" font-family="Arial" font-size="14.00" fill="#000000">binno    </text>
<text text-anchor="start" x="397.4418" y="-1253.9" font-family="Arial" font-size="14.00" fill="#666666">[varchar]</text>
<polygon fill="none" stroke="#000000" points="322,-1212.5 322,-1242.5 667,-1242.5 667,-1212.5 322,-1212.5"/>
<text text-anchor="start" x="329" y="-1223.9" font-family="Arial" font-size="14.00" fill="#000000">locationcode    </text>
<text text-anchor="start" x="441.7868" y="-1223.9" font-family="Arial" font-size="14.00" fill="#666666">[varchar]</text>
<polygon fill="none" stroke="#000000" points="322,-1182.5 322,-1212.5 667,-1212.5 667,-1182.5 322,-1182.5"/>
<text text-anchor="start" x="329" y="-1193.9" font-family="Arial" font-size="14.00" fill="#000000">centralexciseposadd    </text>
<text text-anchor="start" x="490.7952" y="-1193.9" font-family="Arial" font-size="14.00" fill="#666666">[varchar]</text>
<polygon fill="none" stroke="#000000" points="322,-1152.5 322,-1182.5 667,-1182.5 667,-1152.5 322,-1152.5"/>
<text text-anchor="start" x="329" y="-1163.9" font-family="Arial" font-size="14.00" fill="#000000">portno    </text>
<text text-anchor="start" x="402.8864" y="-1163.9" font-family="Arial" font-size="14.00" fill="#666666">[integer]</text>
<polygon fill="none" stroke="#000000" points="322,-1122.5 322,-1152.5 667,-1152.5 667,-1122.5 322,-1122.5"/>
<text text-anchor="start" x="329" y="-1133.9" font-family="Arial" font-size="14.00" fill="#000000">smtpserver    </text>
<text text-anchor="start" x="432.425" y="-1133.9" font-family="Arial" font-size="14.00" fill="#666666">[varchar]</text>
<polygon fill="none" stroke="#000000" points="322,-1092.5 322,-1122.5 667,-1122.5 667,-1092.5 322,-1092.5"/>
<text text-anchor="start" x="329" y="-1103.9" font-family="Arial" font-size="14.00" fill="#000000">enablessl    </text>
<text text-anchor="start" x="422.331" y="-1103.9" font-family="Arial" font-size="14.00" fill="#666666">[boolean]</text>
<polygon fill="none" stroke="#000000" points="322,-1062.5 322,-1092.5 667,-1092.5 667,-1062.5 322,-1062.5"/>
<text text-anchor="start" x="329" y="-1073.9" font-family="Arial" font-size="14.00" fill="#000000">eccno    </text>
<text text-anchor="start" x="400.5526" y="-1073.9" font-family="Arial" font-size="14.00" fill="#666666">[varchar]</text>
<polygon fill="none" stroke="#000000" points="322,-1032.5 322,-1062.5 667,-1062.5 667,-1032.5 322,-1032.5"/>
<text text-anchor="start" x="329" y="-1043.9" font-family="Arial" font-size="14.00" fill="#000000">commision_rate    </text>
<text text-anchor="start" x="461.986" y="-1043.9" font-family="Arial" font-size="14.00" fill="#666666">[varchar(50)]</text>
<polygon fill="none" stroke="#000000" points="322,-1002.5 322,-1032.5 667,-1032.5 667,-1002.5 322,-1002.5"/>
<text text-anchor="start" x="329" y="-1013.9" font-family="Arial" font-size="14.00" fill="#000000">pfno    </text>
<text text-anchor="start" x="390.4432" y="-1013.9" font-family="Arial" font-size="14.00" fill="#666666">[varchar]</text>
<polygon fill="none" stroke="#000000" points="322,-972.5 322,-1002.5 667,-1002.5 667,-972.5 322,-972.5"/>
<text text-anchor="start" x="329" y="-983.9" font-family="Arial" font-size="14.00" fill="#000000">esino    </text>
<text text-anchor="start" x="396.6592" y="-983.9" font-family="Arial" font-size="14.00" fill="#666666">[varchar]</text>
<polygon fill="none" stroke="#000000" points="322,-942.5 322,-972.5 667,-972.5 667,-942.5 322,-942.5"/>
<text text-anchor="start" x="329" y="-953.9" font-family="Arial" font-size="14.00" fill="#000000">allow_offline_synchronization    </text>
<text text-anchor="start" x="545.2398" y="-953.9" font-family="Arial" font-size="14.00" fill="#666666">[boolean]</text>
<polygon fill="none" stroke="#000000" points="322,-912.5 322,-942.5 667,-942.5 667,-912.5 322,-912.5"/>
<text text-anchor="start" x="329" y="-923.9" font-family="Arial" font-size="14.00" fill="#000000">cinno    </text>
<text text-anchor="start" x="396.6592" y="-923.9" font-family="Arial" font-size="14.00" fill="#666666">[varchar(50)]</text>
<polygon fill="none" stroke="#000000" points="322,-882.5 322,-912.5 667,-912.5 667,-882.5 322,-882.5"/>
<text text-anchor="start" x="329" y="-893.9" font-family="Arial" font-size="14.00" fill="#000000">mail_server    </text>
<text text-anchor="start" x="435.5302" y="-893.9" font-family="Arial" font-size="14.00" fill="#666666">[integer]</text>
<polygon fill="none" stroke="#000000" points="322,-852.5 322,-882.5 667,-882.5 667,-852.5 322,-852.5"/>
<text text-anchor="start" x="329" y="-863.9" font-family="Arial" font-size="14.00" fill="#000000">is_sub_branch    </text>
<text text-anchor="start" x="454.2328" y="-863.9" font-family="Arial" font-size="14.00" fill="#666666">[boolean]</text>
<polygon fill="none" stroke="#000000" points="322,-822.5 322,-852.5 667,-852.5 667,-822.5 322,-822.5"/>
<text text-anchor="start" x="329" y="-833.9" font-family="Arial" font-size="14.00" fill="#000000">linked_branch_id    </text>
<text text-anchor="start" x="469.0112" y="-833.9" font-family="Arial" font-size="14.00" fill="#666666">[smallint]</text>
<polygon fill="none" stroke="#000000" points="322,-792.5 322,-822.5 667,-822.5 667,-792.5 322,-792.5"/>
<text text-anchor="start" x="329" y="-803.9" font-family="Arial" font-size="14.00" fill="#000000">manufacturing_or_trading    </text>
<text text-anchor="start" x="522.6886" y="-803.9" font-family="Arial" font-size="14.00" fill="#666666">[smallint]</text>
<polygon fill="none" stroke="#000000" points="322,-762.5 322,-792.5 667,-792.5 667,-762.5 322,-762.5"/>
<text text-anchor="start" x="329" y="-773.9" font-family="Arial" font-size="14.00" fill="#000000">bviewmode    </text>
<text text-anchor="start" x="433.9916" y="-773.9" font-family="Arial" font-size="14.00" fill="#666666">[boolean]</text>
<polygon fill="none" stroke="#000000" points="322,-732.5 322,-762.5 667,-762.5 667,-732.5 322,-732.5"/>
<text text-anchor="start" x="329" y="-743.9" font-family="Arial" font-size="14.00" fill="#000000">gstin    </text>
<text text-anchor="start" x="392.7672" y="-743.9" font-family="Arial" font-size="14.00" fill="#666666">[varchar(25)]</text>
<polygon fill="none" stroke="#000000" points="322,-702.5 322,-732.5 667,-732.5 667,-702.5 322,-702.5"/>
<text text-anchor="start" x="329" y="-713.9" font-family="Arial" font-size="14.00" fill="#000000">gstnregdate    </text>
<text text-anchor="start" x="437.1248" y="-713.9" font-family="Arial" font-size="14.00" fill="#666666">[date]</text>
<polygon fill="none" stroke="#000000" points="322,-672.5 322,-702.5 667,-702.5 667,-672.5 322,-672.5"/>
<text text-anchor="start" x="329" y="-683.9" font-family="Arial" font-size="14.00" fill="#000000">gstbranchtype    </text>
<text text-anchor="start" x="451.1248" y="-683.9" font-family="Arial" font-size="14.00" fill="#666666">[integer]</text>
<polygon fill="none" stroke="#000000" points="322,-642.5 322,-672.5 667,-672.5 667,-642.5 322,-642.5"/>
<text text-anchor="start" x="329" y="-653.9" font-family="Arial" font-size="14.00" fill="#000000">isavailableformrappintegration    </text>
<text text-anchor="start" x="549.8976" y="-653.9" font-family="Arial" font-size="14.00" fill="#666666">[boolean]</text>
<polygon fill="none" stroke="#000000" points="322,-612.5 322,-642.5 667,-642.5 667,-612.5 322,-612.5"/>
<text text-anchor="start" x="329" y="-623.9" font-family="Arial" font-size="14.00" fill="#000000">nicusername    </text>
<text text-anchor="start" x="443.3282" y="-623.9" font-family="Arial" font-size="14.00" fill="#666666">[varchar]</text>
<polygon fill="none" stroke="#000000" points="322,-582.5 322,-612.5 667,-612.5 667,-582.5 322,-582.5"/>
<text text-anchor="start" x="329" y="-593.9" font-family="Arial" font-size="14.00" fill="#000000">nicpassword    </text>
<text text-anchor="start" x="440.9916" y="-593.9" font-family="Arial" font-size="14.00" fill="#666666">[varchar]</text>
<polygon fill="none" stroke="#000000" points="322,-552.5 322,-582.5 667,-582.5 667,-552.5 322,-552.5"/>
<text text-anchor="start" x="329" y="-563.9" font-family="Arial" font-size="14.00" fill="#000000">ewayvalidfrom    </text>
<text text-anchor="start" x="452.6494" y="-563.9" font-family="Arial" font-size="14.00" fill="#666666">[date]</text>
<polygon fill="none" stroke="#000000" points="322,-522.5 322,-552.5 667,-552.5 667,-522.5 322,-522.5"/>
<text text-anchor="start" x="329" y="-533.9" font-family="Arial" font-size="14.00" fill="#000000">ewayvalidto    </text>
<text text-anchor="start" x="436.3282" y="-533.9" font-family="Arial" font-size="14.00" fill="#666666">[date]</text>
<polygon fill="none" stroke="#000000" points="322,-492.5 322,-522.5 667,-522.5 667,-492.5 322,-492.5"/>
<text text-anchor="start" x="329" y="-503.9" font-family="Arial" font-size="14.00" fill="#000000">website    </text>
<text text-anchor="start" x="410.6564" y="-503.9" font-family="Arial" font-size="14.00" fill="#666666">[varchar(1024)]</text>
<polygon fill="none" stroke="#000000" points="322,-462.5 322,-492.5 667,-492.5 667,-462.5 322,-462.5"/>
<text text-anchor="start" x="329" y="-473.9" font-family="Arial" font-size="14.00" fill="#000000">vendorportalurl    </text>
<text text-anchor="start" x="456.5512" y="-473.9" font-family="Arial" font-size="14.00" fill="#666666">[varchar(1024)]</text>
<polygon fill="none" stroke="#000000" points="322,-432.5 322,-462.5 667,-462.5 667,-432.5 322,-432.5"/>
<text text-anchor="start" x="329" y="-443.9" font-family="Arial" font-size="14.00" fill="#000000">apikey    </text>
<text text-anchor="start" x="403.6592" y="-443.9" font-family="Arial" font-size="14.00" fill="#666666">[varchar(1024)]</text>
<polygon fill="none" stroke="#000000" points="322,-402.5 322,-432.5 667,-432.5 667,-402.5 322,-402.5"/>
<text text-anchor="start" x="329" y="-413.9" font-family="Arial" font-size="14.00" fill="#000000">appnotificationkey    </text>
<text text-anchor="start" x="475.2398" y="-413.9" font-family="Arial" font-size="14.00" fill="#666666">[varchar(500)]</text>
<polygon fill="none" stroke="#000000" points="322,-372.5 322,-402.5 667,-402.5 667,-372.5 322,-372.5"/>
<text text-anchor="start" x="329" y="-383.9" font-family="Arial" font-size="14.00" fill="#000000">updatedby    </text>
<text text-anchor="start" x="428.5736" y="-383.9" font-family="Arial" font-size="14.00" fill="#666666">[integer]</text>
<polygon fill="none" stroke="#000000" points="322,-342.5 322,-372.5 667,-372.5 667,-342.5 322,-342.5"/>
<text text-anchor="start" x="329" y="-353.9" font-family="Arial" font-size="14.00" fill="#000000">updatedon    </text>
<text text-anchor="start" x="429.3562" y="-353.9" font-family="Arial" font-size="14.00" fill="#666666">[timestamp(6) without time zone]</text>
<polygon fill="none" stroke="#000000" points="322,-312.5 322,-342.5 667,-342.5 667,-312.5 322,-312.5"/>
<text text-anchor="start" x="329" y="-323.9" font-family="Arial" font-size="14.00" fill="#000000">isallowfortcstax    </text>
<text text-anchor="start" x="458.094" y="-323.9" font-family="Arial" font-size="14.00" fill="#666666">[boolean]</text>
<polygon fill="none" stroke="#000000" points="322,-282.5 322,-312.5 667,-312.5 667,-282.5 322,-282.5"/>
<text text-anchor="start" x="329" y="-293.9" font-family="Arial" font-size="14.00" fill="#000000">gstruname    </text>
<text text-anchor="start" x="429.3296" y="-293.9" font-family="Arial" font-size="14.00" fill="#666666">[varchar(50)]</text>
<polygon fill="none" stroke="#000000" points="322,-252.5 322,-282.5 667,-282.5 667,-252.5 322,-252.5"/>
<text text-anchor="start" x="329" y="-263.9" font-family="Arial" font-size="14.00" fill="#000000">upi_id    </text>
<text text-anchor="start" x="400.5484" y="-263.9" font-family="Arial" font-size="14.00" fill="#666666">[varchar(100)]</text>
<polygon fill="none" stroke="#000000" points="322,-222.5 322,-252.5 667,-252.5 667,-222.5 322,-222.5"/>
<text text-anchor="start" x="329" y="-233.9" font-family="Arial" font-size="14.00" fill="#000000">accountno    </text>
<text text-anchor="start" x="427.791" y="-233.9" font-family="Arial" font-size="14.00" fill="#666666">[varchar(100)]</text>
<polygon fill="none" stroke="#000000" points="322,-192.5 322,-222.5 667,-222.5 667,-192.5 322,-192.5"/>
<text text-anchor="start" x="329" y="-203.9" font-family="Arial" font-size="14.00" fill="#000000">ifsc_code    </text>
<text text-anchor="start" x="422.3324" y="-203.9" font-family="Arial" font-size="14.00" fill="#666666">[varchar(100)]</text>
<polygon fill="none" stroke="#000000" points="322,-162.5 322,-192.5 667,-192.5 667,-162.5 322,-162.5"/>
<text text-anchor="start" x="329" y="-173.9" font-family="Arial" font-size="14.00" fill="#000000">allowqrcode_b2cs    </text>
<text text-anchor="start" x="475.2286" y="-173.9" font-family="Arial" font-size="14.00" fill="#666666">[boolean]</text>
<polygon fill="none" stroke="#000000" points="322,-132.5 322,-162.5 667,-162.5 667,-132.5 322,-132.5"/>
<text text-anchor="start" x="329" y="-143.9" font-family="Arial" font-size="14.00" fill="#000000">isallowfortdstax    </text>
<text text-anchor="start" x="458.8766" y="-143.9" font-family="Arial" font-size="14.00" fill="#666666">[boolean]</text>
<polygon fill="none" stroke="#000000" points="322,-102.5 322,-132.5 667,-132.5 667,-102.5 322,-102.5"/>
<text text-anchor="start" x="329" y="-113.9" font-family="Arial" font-size="14.00" fill="#000000">fssai    </text>
<text text-anchor="start" x="391.9846" y="-113.9" font-family="Arial" font-size="14.00" fill="#666666">[varchar(20)]</text>
<polygon fill="none" stroke="#000000" points="322,-72.5 322,-102.5 667,-102.5 667,-72.5 322,-72.5"/>
<text text-anchor="start" x="329" y="-83.9" font-family="Arial" font-size="14.00" fill="#000000">fssai_expdate    </text>
<text text-anchor="start" x="449.5708" y="-83.9" font-family="Arial" font-size="14.00" fill="#666666">[date]</text>
<polygon fill="none" stroke="#000000" points="322,-42.5 322,-72.5 667,-72.5 667,-42.5 322,-42.5"/>
<text text-anchor="start" x="329" y="-53.9" font-family="Arial" font-size="14.00" fill="#000000">tally_version    </text>
<text text-anchor="start" x="440.9888" y="-53.9" font-family="Arial" font-size="14.00" fill="#666666">[numeric(10,2)]</text>
</g>
<!-- public.comn_updatecostdate&#45;&gt;public.branchmaster -->
<g id="edge2" class="edge">
<title>public.comn_updatecostdate:branchid&#45;&gt;public.branchmaster:branchid</title>
<path fill="none" stroke="#000000" d="M299.8034,-3127.0854C178.7954,-3116.9485 222.7866,-2923.4504 310,-2827 363.4785,-2767.8575 613.5215,-2850.1425 667,-2791 694.8712,-2760.1769 708.5556,-2697.5 667,-2697.5"/>
<polygon fill="#000000" stroke="#000000" points="300.0083,-3127.0937 309.8172,-3131.9963 305.0041,-3127.2968 310,-3127.5 310,-3127.5 310,-3127.5 305.0041,-3127.2968 310.1828,-3123.0037 300.0083,-3127.0937 300.0083,-3127.0937"/>
<text text-anchor="start" x="6.936" y="-3137.5" font-family="Arial" font-size="10.00" fill="#000000">FOREIGN KEY (branchid) REFERENCES branchmaster(branchid)</text>
</g>
<!-- public.comn_updatecostdate_detail -->
<g id="node2" class="node">
<title>public.comn_updatecostdate_detail</title>
<polygon fill="#efefef" stroke="transparent" points="283,-3602.5 283,-3637.5 706,-3637.5 706,-3602.5 283,-3602.5"/>
<polygon fill="none" stroke="#000000" points="283,-3602.5 283,-3637.5 706,-3637.5 706,-3602.5 283,-3602.5"/>
<text text-anchor="start" x="289.6671" y="-3615.3" font-family="Arial Bold" font-size="18.00" fill="#000000">public.comn_updatecostdate_detail</text>
<text text-anchor="start" x="571.7649" y="-3615.3" font-family="Arial" font-size="14.00" fill="#000000">    </text>
<text text-anchor="start" x="605.9697" y="-3615.3" font-family="Arial" font-size="14.00" fill="#666666">[BASE TABLE]</text>
<polygon fill="none" stroke="#000000" points="283,-3572.5 283,-3602.5 706,-3602.5 706,-3572.5 283,-3572.5"/>
<text text-anchor="start" x="290" y="-3583.9" font-family="Arial" font-size="14.00" fill="#000000">detailid    </text>
<text text-anchor="start" x="368.5456" y="-3583.9" font-family="Arial" font-size="14.00" fill="#666666">[integer]</text>
<polygon fill="none" stroke="#000000" points="283,-3542.5 283,-3572.5 706,-3572.5 706,-3542.5 283,-3542.5"/>
<text text-anchor="start" x="290" y="-3553.9" font-family="Arial" font-size="14.00" fill="#000000">cuttoffid    </text>
<text text-anchor="start" x="373.2216" y="-3553.9" font-family="Arial" font-size="14.00" fill="#666666">[integer]</text>
<polygon fill="none" stroke="#000000" points="283,-3512.5 283,-3542.5 706,-3542.5 706,-3512.5 283,-3512.5"/>
<text text-anchor="start" x="290" y="-3523.9" font-family="Arial" font-size="14.00" fill="#000000">storestageid    </text>
<text text-anchor="start" x="400.4488" y="-3523.9" font-family="Arial" font-size="14.00" fill="#666666">[integer]</text>
<polygon fill="none" stroke="#000000" points="283,-3482.5 283,-3512.5 706,-3512.5 706,-3482.5 283,-3482.5"/>
<text text-anchor="start" x="290" y="-3493.9" font-family="Arial" font-size="14.00" fill="#000000">isstore    </text>
<text text-anchor="start" x="365.4278" y="-3493.9" font-family="Arial" font-size="14.00" fill="#666666">[boolean]</text>
<polygon fill="none" stroke="#000000" points="283,-3452.5 283,-3482.5 706,-3482.5 706,-3452.5 283,-3452.5"/>
<text text-anchor="start" x="290" y="-3463.9" font-family="Arial" font-size="14.00" fill="#000000">itemid    </text>
<text text-anchor="start" x="361.5344" y="-3463.9" font-family="Arial" font-size="14.00" fill="#666666">[integer]</text>
<polygon fill="none" stroke="#000000" points="283,-3422.5 283,-3452.5 706,-3452.5 706,-3422.5 283,-3422.5"/>
<text text-anchor="start" x="290" y="-3433.9" font-family="Arial" font-size="14.00" fill="#000000">baseqty    </text>
<text text-anchor="start" x="373.2258" y="-3433.9" font-family="Arial" font-size="14.00" fill="#666666">[numeric(18,3)]</text>
<polygon fill="none" stroke="#000000" points="283,-3392.5 283,-3422.5 706,-3422.5 706,-3392.5 283,-3392.5"/>
<text text-anchor="start" x="290" y="-3403.9" font-family="Arial" font-size="14.00" fill="#000000">cost    </text>
<text text-anchor="start" x="349.878" y="-3403.9" font-family="Arial" font-size="14.00" fill="#666666">[numeric(18,5)]</text>
<polygon fill="none" stroke="#000000" points="283,-3362.5 283,-3392.5 706,-3392.5 706,-3362.5 283,-3362.5"/>
<text text-anchor="start" x="290" y="-3373.9" font-family="Arial" font-size="14.00" fill="#000000">totalcost    </text>
<text text-anchor="start" x="376.331" y="-3373.9" font-family="Arial" font-size="14.00" fill="#666666">[numeric(18,5)]</text>
<polygon fill="none" stroke="#000000" points="283,-3332.5 283,-3362.5 706,-3362.5 706,-3332.5 283,-3332.5"/>
<text text-anchor="start" x="290" y="-3343.9" font-family="Arial" font-size="14.00" fill="#000000">status    </text>
<text text-anchor="start" x="361.5512" y="-3343.9" font-family="Arial" font-size="14.00" fill="#666666">[boolean]</text>
</g>
<!-- public.comn_updatecostdate_detail&#45;&gt;public.comn_updatecostdate -->
<g id="edge1" class="edge">
<title>public.comn_updatecostdate_detail:cuttoffid&#45;&gt;public.comn_updatecostdate:cuttoffid</title>
<path fill="none" stroke="#000000" d="M716.0463,-3557.0441C822.5847,-3547.049 783.8226,-3375.2183 706,-3290 646.4135,-3224.7509 369.5865,-3319.2491 310,-3254 281.0784,-3222.3299 267.1111,-3157.5 310,-3157.5"/>
<polygon fill="#000000" stroke="#000000" points="715.9897,-3557.0466 705.796,-3553.0046 710.9949,-3557.2733 706,-3557.5 706,-3557.5 706,-3557.5 710.9949,-3557.2733 706.204,-3561.9954 715.9897,-3557.0466 715.9897,-3557.0466"/>
<text text-anchor="start" x="712.64" y="-3567.5" font-family="Arial" font-size="10.00" fill="#000000">FOREIGN KEY (cuttoffid) REFERENCES comn_updatecostdate(cuttoffid)</text>
</g>
</g>
</svg>
