<?xml version="1.0" encoding="UTF-8" standalone="no"?>
<!DOCTYPE svg PUBLIC "-//W3C//DTD SVG 1.1//EN"
 "http://www.w3.org/Graphics/SVG/1.1/DTD/svg11.dtd">
<!-- Generated by graphviz version 2.40.1 (20161225.0304)
 -->
<!-- Title: public.temp_final_salary_view_305 Pages: 1 -->
<svg width="520pt" height="285pt"
 viewBox="0.00 0.00 520.00 285.00" xmlns="http://www.w3.org/2000/svg" xmlns:xlink="http://www.w3.org/1999/xlink">
<g id="graph0" class="graph" transform="scale(1 1) rotate(0) translate(4 281)">
<title>public.temp_final_salary_view_305</title>
<polygon fill="#ffffff" stroke="transparent" points="-4,4 -4,-281 516,-281 516,4 -4,4"/>
<!-- public.temp_final_salary_view_305 -->
<g id="node1" class="node">
<title>public.temp_final_salary_view_305</title>
<polygon fill="#efefef" stroke="transparent" points="46,-195.5 46,-230.5 466,-230.5 466,-195.5 46,-195.5"/>
<polygon fill="none" stroke="#000000" points="46,-195.5 46,-230.5 466,-230.5 466,-195.5 46,-195.5"/>
<text text-anchor="start" x="52.6881" y="-208.3" font-family="Arial Bold" font-size="18.00" fill="#000000">public.temp_final_salary_view_305</text>
<text text-anchor="start" x="331.7439" y="-208.3" font-family="Arial" font-size="14.00" fill="#000000">    </text>
<text text-anchor="start" x="365.9487" y="-208.3" font-family="Arial" font-size="14.00" fill="#666666">[BASE TABLE]</text>
<polygon fill="none" stroke="#000000" points="46,-165.5 46,-195.5 466,-195.5 466,-165.5 46,-165.5"/>
<text text-anchor="start" x="53" y="-176.9" font-family="Arial" font-size="14.00" fill="#000000">srno </text>
<text text-anchor="start" x="84.1164" y="-176.9" font-family="Arial" font-size="14.00" fill="#666666">[integer]</text>
<polygon fill="none" stroke="#000000" points="46,-135.5 46,-165.5 466,-165.5 466,-135.5 46,-135.5"/>
<text text-anchor="start" x="53" y="-146.9" font-family="Arial" font-size="14.00" fill="#000000">headname </text>
<text text-anchor="start" x="123.0294" y="-146.9" font-family="Arial" font-size="14.00" fill="#666666">[varchar(200)]</text>
<polygon fill="none" stroke="#000000" points="46,-105.5 46,-135.5 466,-135.5 466,-105.5 46,-105.5"/>
<text text-anchor="start" x="53" y="-116.9" font-family="Arial" font-size="14.00" fill="#000000">isearning </text>
<text text-anchor="start" x="113.6774" y="-116.9" font-family="Arial" font-size="14.00" fill="#666666">[varchar(1)]</text>
<polygon fill="none" stroke="#000000" points="46,-75.5 46,-105.5 466,-105.5 466,-75.5 46,-75.5"/>
<text text-anchor="start" x="53" y="-86.9" font-family="Arial" font-size="14.00" fill="#000000">amount </text>
<text text-anchor="start" x="103.5722" y="-86.9" font-family="Arial" font-size="14.00" fill="#666666">[numeric(10,2)]</text>
<polygon fill="none" stroke="#000000" points="46,-45.5 46,-75.5 466,-75.5 466,-45.5 46,-45.5"/>
<text text-anchor="start" x="53" y="-56.9" font-family="Arial" font-size="14.00" fill="#000000">presentdays </text>
<text text-anchor="start" x="133.1374" y="-56.9" font-family="Arial" font-size="14.00" fill="#666666">[numeric(10,2)]</text>
<polygon fill="none" stroke="#000000" stroke-width="3" points="44.5,-44.5 44.5,-232.5 467.5,-232.5 467.5,-44.5 44.5,-44.5"/>
</g>
</g>
</svg>
