<?xml version="1.0" encoding="UTF-8" standalone="no"?>
<!DOCTYPE svg PUBLIC "-//W3C//DTD SVG 1.1//EN"
 "http://www.w3.org/Graphics/SVG/1.1/DTD/svg11.dtd">
<!-- Generated by graphviz version 2.40.1 (20161225.0304)
 -->
<!-- Title: public.pay_allowancededuction_combined_table_amendment Pages: 1 -->
<svg width="732pt" height="435pt"
 viewBox="0.00 0.00 732.00 435.00" xmlns="http://www.w3.org/2000/svg" xmlns:xlink="http://www.w3.org/1999/xlink">
<g id="graph0" class="graph" transform="scale(1 1) rotate(0) translate(4 431)">
<title>public.pay_allowancededuction_combined_table_amendment</title>
<polygon fill="#ffffff" stroke="transparent" points="-4,4 -4,-431 728,-431 728,4 -4,4"/>
<!-- public.pay_allowancededuction_combined_table_amendment -->
<g id="node1" class="node">
<title>public.pay_allowancededuction_combined_table_amendment</title>
<polygon fill="#efefef" stroke="transparent" points="46,-345.5 46,-380.5 678,-380.5 678,-345.5 46,-345.5"/>
<polygon fill="none" stroke="#000000" points="46,-345.5 46,-380.5 678,-380.5 678,-345.5 46,-345.5"/>
<text text-anchor="start" x="52.6411" y="-358.3" font-family="Arial Bold" font-size="18.00" fill="#000000">public.pay_allowancededuction_combined_table_amendment</text>
<text text-anchor="start" x="543.7909" y="-358.3" font-family="Arial" font-size="14.00" fill="#000000">    </text>
<text text-anchor="start" x="577.9957" y="-358.3" font-family="Arial" font-size="14.00" fill="#666666">[BASE TABLE]</text>
<polygon fill="none" stroke="#000000" points="46,-315.5 46,-345.5 678,-345.5 678,-315.5 46,-315.5"/>
<text text-anchor="start" x="53" y="-326.9" font-family="Arial" font-size="14.00" fill="#000000">headid </text>
<text text-anchor="start" x="98.9102" y="-326.9" font-family="Arial" font-size="14.00" fill="#666666">[integer]</text>
<polygon fill="none" stroke="#000000" points="46,-285.5 46,-315.5 678,-315.5 678,-285.5 46,-285.5"/>
<text text-anchor="start" x="53" y="-296.9" font-family="Arial" font-size="14.00" fill="#000000">monthid </text>
<text text-anchor="start" x="106.6788" y="-296.9" font-family="Arial" font-size="14.00" fill="#666666">[integer]</text>
<polygon fill="none" stroke="#000000" points="46,-255.5 46,-285.5 678,-285.5 678,-255.5 46,-255.5"/>
<text text-anchor="start" x="53" y="-266.9" font-family="Arial" font-size="14.00" fill="#000000">yearid </text>
<text text-anchor="start" x="95.0056" y="-266.9" font-family="Arial" font-size="14.00" fill="#666666">[integer]</text>
<polygon fill="none" stroke="#000000" points="46,-225.5 46,-255.5 678,-255.5 678,-225.5 46,-225.5"/>
<text text-anchor="start" x="53" y="-236.9" font-family="Arial" font-size="14.00" fill="#000000">payperiodid </text>
<text text-anchor="start" x="129.2426" y="-236.9" font-family="Arial" font-size="14.00" fill="#666666">[integer]</text>
<polygon fill="none" stroke="#000000" points="46,-195.5 46,-225.5 678,-225.5 678,-195.5 46,-195.5"/>
<text text-anchor="start" x="53" y="-206.9" font-family="Arial" font-size="14.00" fill="#000000">employeeid </text>
<text text-anchor="start" x="128.46" y="-206.9" font-family="Arial" font-size="14.00" fill="#666666">[integer]</text>
<polygon fill="none" stroke="#000000" points="46,-165.5 46,-195.5 678,-195.5 678,-165.5 46,-165.5"/>
<text text-anchor="start" x="53" y="-176.9" font-family="Arial" font-size="14.00" fill="#000000">pay_headid </text>
<text text-anchor="start" x="129.258" y="-176.9" font-family="Arial" font-size="14.00" fill="#666666">[integer]</text>
<polygon fill="none" stroke="#000000" points="46,-135.5 46,-165.5 678,-165.5 678,-135.5 46,-135.5"/>
<text text-anchor="start" x="53" y="-146.9" font-family="Arial" font-size="14.00" fill="#000000">amount </text>
<text text-anchor="start" x="103.5722" y="-146.9" font-family="Arial" font-size="14.00" fill="#666666">[numeric(18,2)]</text>
<polygon fill="none" stroke="#000000" points="46,-105.5 46,-135.5 678,-135.5 678,-105.5 46,-105.5"/>
<text text-anchor="start" x="53" y="-116.9" font-family="Arial" font-size="14.00" fill="#000000">createdby </text>
<text text-anchor="start" x="118.3548" y="-116.9" font-family="Arial" font-size="14.00" fill="#666666">[integer]</text>
<polygon fill="none" stroke="#000000" points="46,-75.5 46,-105.5 678,-105.5 678,-75.5 46,-75.5"/>
<text text-anchor="start" x="53" y="-86.9" font-family="Arial" font-size="14.00" fill="#000000">createdon </text>
<text text-anchor="start" x="119.1374" y="-86.9" font-family="Arial" font-size="14.00" fill="#666666">[timestamp without time zone]</text>
<polygon fill="none" stroke="#000000" points="46,-45.5 46,-75.5 678,-75.5 678,-45.5 46,-45.5"/>
<text text-anchor="start" x="53" y="-56.9" font-family="Arial" font-size="14.00" fill="#000000">branchid </text>
<text text-anchor="start" x="110.5708" y="-56.9" font-family="Arial" font-size="14.00" fill="#666666">[integer]</text>
<polygon fill="none" stroke="#000000" stroke-width="3" points="44.5,-44.5 44.5,-382.5 679.5,-382.5 679.5,-44.5 44.5,-44.5"/>
</g>
</g>
</svg>
