<?xml version="1.0" encoding="UTF-8" standalone="no"?>
<!DOCTYPE svg PUBLIC "-//W3C//DTD SVG 1.1//EN"
 "http://www.w3.org/Graphics/SVG/1.1/DTD/svg11.dtd">
<!-- Generated by graphviz version 2.40.1 (20161225.0304)
 -->
<!-- Title: public.temp1704cfbff5f232442fb9ab6d5930a503b0d_bom_stagestock Pages: 1 -->
<svg width="798pt" height="225pt"
 viewBox="0.00 0.00 798.00 225.00" xmlns="http://www.w3.org/2000/svg" xmlns:xlink="http://www.w3.org/1999/xlink">
<g id="graph0" class="graph" transform="scale(1 1) rotate(0) translate(4 221)">
<title>public.temp1704cfbff5f232442fb9ab6d5930a503b0d_bom_stagestock</title>
<polygon fill="#ffffff" stroke="transparent" points="-4,4 -4,-221 794,-221 794,4 -4,4"/>
<!-- public.temp1704cfbff5f232442fb9ab6d5930a503b0d_bom_stagestock -->
<g id="node1" class="node">
<title>public.temp1704cfbff5f232442fb9ab6d5930a503b0d_bom_stagestock</title>
<polygon fill="#efefef" stroke="transparent" points="46,-135.5 46,-170.5 744,-170.5 744,-135.5 46,-135.5"/>
<polygon fill="none" stroke="#000000" points="46,-135.5 46,-170.5 744,-170.5 744,-135.5 46,-135.5"/>
<text text-anchor="start" x="52.5895" y="-148.3" font-family="Arial Bold" font-size="18.00" fill="#000000">public.temp1704cfbff5f232442fb9ab6d5930a503b0d_bom_stagestock</text>
<text text-anchor="start" x="609.8425" y="-148.3" font-family="Arial" font-size="14.00" fill="#000000">    </text>
<text text-anchor="start" x="644.0473" y="-148.3" font-family="Arial" font-size="14.00" fill="#666666">[BASE TABLE]</text>
<polygon fill="none" stroke="#000000" points="46,-105.5 46,-135.5 744,-135.5 744,-105.5 46,-105.5"/>
<text text-anchor="start" x="53" y="-116.9" font-family="Arial" font-size="14.00" fill="#000000">itemid </text>
<text text-anchor="start" x="94.2202" y="-116.9" font-family="Arial" font-size="14.00" fill="#666666">[integer]</text>
<polygon fill="none" stroke="#000000" points="46,-75.5 46,-105.5 744,-105.5 744,-75.5 46,-75.5"/>
<text text-anchor="start" x="53" y="-86.9" font-family="Arial" font-size="14.00" fill="#000000">baseqty </text>
<text text-anchor="start" x="105.9116" y="-86.9" font-family="Arial" font-size="14.00" fill="#666666">[numeric(15,5)]</text>
<polygon fill="none" stroke="#000000" points="46,-45.5 46,-75.5 744,-75.5 744,-45.5 46,-45.5"/>
<text text-anchor="start" x="53" y="-56.9" font-family="Arial" font-size="14.00" fill="#000000">altqty </text>
<text text-anchor="start" x="90.3436" y="-56.9" font-family="Arial" font-size="14.00" fill="#666666">[numeric(15,5)]</text>
<polygon fill="none" stroke="#000000" stroke-width="3" points="44.5,-44.5 44.5,-172.5 745.5,-172.5 745.5,-44.5 44.5,-44.5"/>
</g>
</g>
</svg>
