<?xml version="1.0" encoding="UTF-8" standalone="no"?>
<!DOCTYPE svg PUBLIC "-//W3C//DTD SVG 1.1//EN"
 "http://www.w3.org/Graphics/SVG/1.1/DTD/svg11.dtd">
<!-- Generated by graphviz version 2.40.1 (20161225.0304)
 -->
<!-- Title: public.pur_inspectionbeforemrn Pages: 1 -->
<svg width="754pt" height="2602pt"
 viewBox="0.00 0.00 754.00 2602.00" xmlns="http://www.w3.org/2000/svg" xmlns:xlink="http://www.w3.org/1999/xlink">
<g id="graph0" class="graph" transform="scale(1 1) rotate(0) translate(4 2598)">
<title>public.pur_inspectionbeforemrn</title>
<polygon fill="#ffffff" stroke="transparent" points="-4,4 -4,-2598 750,-2598 750,4 -4,4"/>
<!-- public.pur_inspectionbeforemrn -->
<g id="node1" class="node">
<title>public.pur_inspectionbeforemrn</title>
<polygon fill="#efefef" stroke="transparent" points="46,-2512.5 46,-2547.5 438,-2547.5 438,-2512.5 46,-2512.5"/>
<polygon fill="none" stroke="#000000" points="46,-2512.5 46,-2547.5 438,-2547.5 438,-2512.5 46,-2512.5"/>
<text text-anchor="start" x="52.6903" y="-2525.3" font-family="Arial Bold" font-size="18.00" fill="#000000">public.pur_inspectionbeforemrn</text>
<text text-anchor="start" x="303.7417" y="-2525.3" font-family="Arial" font-size="14.00" fill="#000000">    </text>
<text text-anchor="start" x="337.9465" y="-2525.3" font-family="Arial" font-size="14.00" fill="#666666">[BASE TABLE]</text>
<polygon fill="none" stroke="#000000" points="46,-2482.5 46,-2512.5 438,-2512.5 438,-2482.5 46,-2482.5"/>
<text text-anchor="start" x="53" y="-2493.9" font-family="Arial" font-size="14.00" fill="#000000">inspectionid </text>
<text text-anchor="start" x="130.7966" y="-2493.9" font-family="Arial" font-size="14.00" fill="#666666">[integer]</text>
<polygon fill="none" stroke="#000000" points="46,-2452.5 46,-2482.5 438,-2482.5 438,-2452.5 46,-2452.5"/>
<text text-anchor="start" x="53" y="-2463.9" font-family="Arial" font-size="14.00" fill="#000000">inspectiondate </text>
<text text-anchor="start" x="147.1458" y="-2463.9" font-family="Arial" font-size="14.00" fill="#666666">[date]</text>
<polygon fill="none" stroke="#000000" points="46,-2422.5 46,-2452.5 438,-2452.5 438,-2422.5 46,-2422.5"/>
<text text-anchor="start" x="53" y="-2433.9" font-family="Arial" font-size="14.00" fill="#000000">inwardchallanid </text>
<text text-anchor="start" x="153.345" y="-2433.9" font-family="Arial" font-size="14.00" fill="#666666">[integer]</text>
<polygon fill="none" stroke="#000000" points="46,-2392.5 46,-2422.5 438,-2422.5 438,-2392.5 46,-2392.5"/>
<text text-anchor="start" x="53" y="-2403.9" font-family="Arial" font-size="14.00" fill="#000000">isinspectionoccured </text>
<text text-anchor="start" x="179.805" y="-2403.9" font-family="Arial" font-size="14.00" fill="#666666">[boolean]</text>
<polygon fill="none" stroke="#000000" points="46,-2362.5 46,-2392.5 438,-2392.5 438,-2362.5 46,-2362.5"/>
<text text-anchor="start" x="53" y="-2373.9" font-family="Arial" font-size="14.00" fill="#000000">ismrncreated </text>
<text text-anchor="start" x="137.7826" y="-2373.9" font-family="Arial" font-size="14.00" fill="#666666">[boolean]</text>
<polygon fill="none" stroke="#000000" points="46,-2332.5 46,-2362.5 438,-2362.5 438,-2332.5 46,-2332.5"/>
<text text-anchor="start" x="53" y="-2343.9" font-family="Arial" font-size="14.00" fill="#000000">createdby </text>
<text text-anchor="start" x="118.3548" y="-2343.9" font-family="Arial" font-size="14.00" fill="#666666">[integer]</text>
<polygon fill="none" stroke="#000000" points="46,-2302.5 46,-2332.5 438,-2332.5 438,-2302.5 46,-2302.5"/>
<text text-anchor="start" x="53" y="-2313.9" font-family="Arial" font-size="14.00" fill="#000000">createdon </text>
<text text-anchor="start" x="119.1374" y="-2313.9" font-family="Arial" font-size="14.00" fill="#666666">[timestamp without time zone]</text>
<polygon fill="none" stroke="#000000" points="46,-2272.5 46,-2302.5 438,-2302.5 438,-2272.5 46,-2272.5"/>
<text text-anchor="start" x="53" y="-2283.9" font-family="Arial" font-size="14.00" fill="#000000">inspectedby </text>
<text text-anchor="start" x="131.5834" y="-2283.9" font-family="Arial" font-size="14.00" fill="#666666">[integer]</text>
<polygon fill="none" stroke="#000000" points="46,-2242.5 46,-2272.5 438,-2272.5 438,-2242.5 46,-2242.5"/>
<text text-anchor="start" x="53" y="-2253.9" font-family="Arial" font-size="14.00" fill="#000000">branchid </text>
<text text-anchor="start" x="110.5708" y="-2253.9" font-family="Arial" font-size="14.00" fill="#666666">[integer]</text>
<polygon fill="none" stroke="#000000" points="46,-2212.5 46,-2242.5 438,-2242.5 438,-2212.5 46,-2212.5"/>
<text text-anchor="start" x="53" y="-2223.9" font-family="Arial" font-size="14.00" fill="#000000">iscancelled </text>
<text text-anchor="start" x="126.1234" y="-2223.9" font-family="Arial" font-size="14.00" fill="#666666">[boolean]</text>
<polygon fill="none" stroke="#000000" points="46,-2182.5 46,-2212.5 438,-2212.5 438,-2182.5 46,-2182.5"/>
<text text-anchor="start" x="53" y="-2193.9" font-family="Arial" font-size="14.00" fill="#000000">inspectionno </text>
<text text-anchor="start" x="135.4726" y="-2193.9" font-family="Arial" font-size="14.00" fill="#666666">[varchar(50)]</text>
<polygon fill="none" stroke="#000000" points="46,-2152.5 46,-2182.5 438,-2182.5 438,-2152.5 46,-2152.5"/>
<text text-anchor="start" x="53" y="-2163.9" font-family="Arial" font-size="14.00" fill="#000000">isauthorized </text>
<text text-anchor="start" x="132.3506" y="-2163.9" font-family="Arial" font-size="14.00" fill="#666666">[boolean]</text>
<polygon fill="none" stroke="#000000" points="46,-2122.5 46,-2152.5 438,-2152.5 438,-2122.5 46,-2122.5"/>
<text text-anchor="start" x="53" y="-2133.9" font-family="Arial" font-size="14.00" fill="#000000">authorizedby </text>
<text text-anchor="start" x="137.0266" y="-2133.9" font-family="Arial" font-size="14.00" fill="#666666">[integer]</text>
<polygon fill="none" stroke="#000000" points="46,-2092.5 46,-2122.5 438,-2122.5 438,-2092.5 46,-2092.5"/>
<text text-anchor="start" x="53" y="-2103.9" font-family="Arial" font-size="14.00" fill="#000000">authorizedon </text>
<text text-anchor="start" x="137.8092" y="-2103.9" font-family="Arial" font-size="14.00" fill="#666666">[timestamp without time zone]</text>
<polygon fill="none" stroke="#000000" points="46,-2062.5 46,-2092.5 438,-2092.5 438,-2062.5 46,-2062.5"/>
<text text-anchor="start" x="53" y="-2073.9" font-family="Arial" font-size="14.00" fill="#000000">seriesno </text>
<text text-anchor="start" x="109.7882" y="-2073.9" font-family="Arial" font-size="14.00" fill="#666666">[integer]</text>
<polygon fill="none" stroke="#000000" points="46,-2032.5 46,-2062.5 438,-2062.5 438,-2032.5 46,-2032.5"/>
<text text-anchor="start" x="53" y="-2043.9" font-family="Arial" font-size="14.00" fill="#000000">seriescode </text>
<text text-anchor="start" x="124.5708" y="-2043.9" font-family="Arial" font-size="14.00" fill="#666666">[varchar(50)]</text>
<polygon fill="none" stroke="#000000" points="46,-2002.5 46,-2032.5 438,-2032.5 438,-2002.5 46,-2002.5"/>
<text text-anchor="start" x="53" y="-2013.9" font-family="Arial" font-size="14.00" fill="#000000">editlog </text>
<text text-anchor="start" x="98.1248" y="-2013.9" font-family="Arial" font-size="14.00" fill="#666666">[text]</text>
<polygon fill="none" stroke="#000000" points="46,-1972.5 46,-2002.5 438,-2002.5 438,-1972.5 46,-1972.5"/>
<text text-anchor="start" x="53" y="-1983.9" font-family="Arial" font-size="14.00" fill="#000000">remarks </text>
<text text-anchor="start" x="107.4376" y="-1983.9" font-family="Arial" font-size="14.00" fill="#666666">[varchar(1000)]</text>
<polygon fill="none" stroke="#000000" points="46,-1942.5 46,-1972.5 438,-1972.5 438,-1942.5 46,-1942.5"/>
<text text-anchor="start" x="53" y="-1953.9" font-family="Arial" font-size="14.00" fill="#000000">seriesid </text>
<text text-anchor="start" x="105.1122" y="-1953.9" font-family="Arial" font-size="14.00" fill="#666666">[integer]</text>
<polygon fill="none" stroke="#000000" points="46,-1912.5 46,-1942.5 438,-1942.5 438,-1912.5 46,-1912.5"/>
<text text-anchor="start" x="53" y="-1923.9" font-family="Arial" font-size="14.00" fill="#000000">headauthorizedon </text>
<text text-anchor="start" x="168.9396" y="-1923.9" font-family="Arial" font-size="14.00" fill="#666666">[timestamp without time zone]</text>
<polygon fill="none" stroke="#000000" points="46,-1882.5 46,-1912.5 438,-1912.5 438,-1882.5 46,-1882.5"/>
<text text-anchor="start" x="53" y="-1893.9" font-family="Arial" font-size="14.00" fill="#000000">headauthorizedby </text>
<text text-anchor="start" x="168.157" y="-1893.9" font-family="Arial" font-size="14.00" fill="#666666">[integer]</text>
<polygon fill="none" stroke="#000000" points="46,-1852.5 46,-1882.5 438,-1882.5 438,-1852.5 46,-1852.5"/>
<text text-anchor="start" x="53" y="-1863.9" font-family="Arial" font-size="14.00" fill="#000000">seriesvouchertype </text>
<text text-anchor="start" x="170.4698" y="-1863.9" font-family="Arial" font-size="14.00" fill="#666666">[integer]</text>
<polygon fill="none" stroke="#000000" points="46,-1822.5 46,-1852.5 438,-1852.5 438,-1822.5 46,-1822.5"/>
<text text-anchor="start" x="53" y="-1833.9" font-family="Arial" font-size="14.00" fill="#000000">cancellationreason </text>
<text text-anchor="start" x="173.5876" y="-1833.9" font-family="Arial" font-size="14.00" fill="#666666">[text]</text>
<polygon fill="none" stroke="#000000" points="46,-1792.5 46,-1822.5 438,-1822.5 438,-1792.5 46,-1792.5"/>
<text text-anchor="start" x="53" y="-1803.9" font-family="Arial" font-size="14.00" fill="#000000">cancelledby </text>
<text text-anchor="start" x="130.7994" y="-1803.9" font-family="Arial" font-size="14.00" fill="#666666">[integer]</text>
<polygon fill="none" stroke="#000000" points="46,-1762.5 46,-1792.5 438,-1792.5 438,-1762.5 46,-1762.5"/>
<text text-anchor="start" x="53" y="-1773.9" font-family="Arial" font-size="14.00" fill="#000000">isinspected </text>
<text text-anchor="start" x="126.9074" y="-1773.9" font-family="Arial" font-size="14.00" fill="#666666">[boolean]</text>
<polygon fill="none" stroke="#000000" points="46,-1732.5 46,-1762.5 438,-1762.5 438,-1732.5 46,-1732.5"/>
<text text-anchor="start" x="53" y="-1743.9" font-family="Arial" font-size="14.00" fill="#000000">cancellation </text>
<text text-anchor="start" x="130.7966" y="-1743.9" font-family="Arial" font-size="14.00" fill="#666666">[smallint]</text>
<polygon fill="none" stroke="#000000" points="46,-1702.5 46,-1732.5 438,-1732.5 438,-1702.5 46,-1702.5"/>
<text text-anchor="start" x="53" y="-1713.9" font-family="Arial" font-size="14.00" fill="#000000">is_transaction_holded </text>
<text text-anchor="start" x="193.0434" y="-1713.9" font-family="Arial" font-size="14.00" fill="#666666">[boolean]</text>
<polygon fill="none" stroke="#000000" points="46,-1672.5 46,-1702.5 438,-1702.5 438,-1672.5 46,-1672.5"/>
<text text-anchor="start" x="53" y="-1683.9" font-family="Arial" font-size="14.00" fill="#000000">formid </text>
<text text-anchor="start" x="95.7742" y="-1683.9" font-family="Arial" font-size="14.00" fill="#666666">[integer]</text>
<polygon fill="none" stroke="#000000" points="46,-1642.5 46,-1672.5 438,-1672.5 438,-1642.5 46,-1642.5"/>
<text text-anchor="start" x="53" y="-1653.9" font-family="Arial" font-size="14.00" fill="#000000">updatedby </text>
<text text-anchor="start" x="122.2594" y="-1653.9" font-family="Arial" font-size="14.00" fill="#666666">[integer]</text>
<polygon fill="none" stroke="#000000" points="46,-1612.5 46,-1642.5 438,-1642.5 438,-1612.5 46,-1612.5"/>
<text text-anchor="start" x="53" y="-1623.9" font-family="Arial" font-size="14.00" fill="#000000">updatedon </text>
<text text-anchor="start" x="123.042" y="-1623.9" font-family="Arial" font-size="14.00" fill="#666666">[timestamp(6) without time zone]</text>
<polygon fill="none" stroke="#000000" stroke-width="3" points="44.5,-1611.5 44.5,-2549.5 439.5,-2549.5 439.5,-1611.5 44.5,-1611.5"/>
</g>
<!-- public.comn_formmaster -->
<g id="node2" class="node">
<title>public.comn_formmaster</title>
<polygon fill="#efefef" stroke="transparent" points="73,-1452.5 73,-1487.5 411,-1487.5 411,-1452.5 73,-1452.5"/>
<polygon fill="none" stroke="#000000" points="73,-1452.5 73,-1487.5 411,-1487.5 411,-1452.5 73,-1452.5"/>
<text text-anchor="start" x="79.7101" y="-1465.3" font-family="Arial Bold" font-size="18.00" fill="#000000">public.comn_formmaster</text>
<text text-anchor="start" x="276.7219" y="-1465.3" font-family="Arial" font-size="14.00" fill="#000000">    </text>
<text text-anchor="start" x="310.9267" y="-1465.3" font-family="Arial" font-size="14.00" fill="#666666">[BASE TABLE]</text>
<polygon fill="none" stroke="#000000" points="73,-1422.5 73,-1452.5 411,-1452.5 411,-1422.5 73,-1422.5"/>
<text text-anchor="start" x="80" y="-1433.9" font-family="Arial" font-size="14.00" fill="#000000">formid    </text>
<text text-anchor="start" x="153.0884" y="-1433.9" font-family="Arial" font-size="14.00" fill="#666666">[integer]</text>
<polygon fill="none" stroke="#000000" points="73,-1392.5 73,-1422.5 411,-1422.5 411,-1392.5 73,-1392.5"/>
<text text-anchor="start" x="80" y="-1403.9" font-family="Arial" font-size="14.00" fill="#000000">formname    </text>
<text text-anchor="start" x="177.2076" y="-1403.9" font-family="Arial" font-size="14.00" fill="#666666">[varchar(100)]</text>
<polygon fill="none" stroke="#000000" points="73,-1362.5 73,-1392.5 411,-1392.5 411,-1362.5 73,-1362.5"/>
<text text-anchor="start" x="80" y="-1373.9" font-family="Arial" font-size="14.00" fill="#000000">caption    </text>
<text text-anchor="start" x="159.3324" y="-1373.9" font-family="Arial" font-size="14.00" fill="#666666">[varchar(100)]</text>
<polygon fill="none" stroke="#000000" points="73,-1332.5 73,-1362.5 411,-1362.5 411,-1332.5 73,-1332.5"/>
<text text-anchor="start" x="80" y="-1343.9" font-family="Arial" font-size="14.00" fill="#000000">formtype    </text>
<text text-anchor="start" x="168.655" y="-1343.9" font-family="Arial" font-size="14.00" fill="#666666">[smallint]</text>
<polygon fill="none" stroke="#000000" points="73,-1302.5 73,-1332.5 411,-1332.5 411,-1302.5 73,-1302.5"/>
<text text-anchor="start" x="80" y="-1313.9" font-family="Arial" font-size="14.00" fill="#000000">mnunew    </text>
<text text-anchor="start" x="167.1024" y="-1313.9" font-family="Arial" font-size="14.00" fill="#666666">[boolean]</text>
<polygon fill="none" stroke="#000000" points="73,-1272.5 73,-1302.5 411,-1302.5 411,-1272.5 73,-1272.5"/>
<text text-anchor="start" x="80" y="-1283.9" font-family="Arial" font-size="14.00" fill="#000000">mnuedit    </text>
<text text-anchor="start" x="163.993" y="-1283.9" font-family="Arial" font-size="14.00" fill="#666666">[boolean]</text>
<polygon fill="none" stroke="#000000" points="73,-1242.5 73,-1272.5 411,-1272.5 411,-1242.5 73,-1242.5"/>
<text text-anchor="start" x="80" y="-1253.9" font-family="Arial" font-size="14.00" fill="#000000">mnuauthorize    </text>
<text text-anchor="start" x="199.0014" y="-1253.9" font-family="Arial" font-size="14.00" fill="#666666">[boolean]</text>
<polygon fill="none" stroke="#000000" points="73,-1212.5 73,-1242.5 411,-1242.5 411,-1212.5 73,-1212.5"/>
<text text-anchor="start" x="80" y="-1223.9" font-family="Arial" font-size="14.00" fill="#000000">mnuview    </text>
<text text-anchor="start" x="169.4264" y="-1223.9" font-family="Arial" font-size="14.00" fill="#666666">[boolean]</text>
<polygon fill="none" stroke="#000000" points="73,-1182.5 73,-1212.5 411,-1212.5 411,-1182.5 73,-1182.5"/>
<text text-anchor="start" x="80" y="-1193.9" font-family="Arial" font-size="14.00" fill="#000000">mnuprint    </text>
<text text-anchor="start" x="168.6536" y="-1193.9" font-family="Arial" font-size="14.00" fill="#666666">[boolean]</text>
<polygon fill="none" stroke="#000000" points="73,-1152.5 73,-1182.5 411,-1182.5 411,-1152.5 73,-1152.5"/>
<text text-anchor="start" x="80" y="-1163.9" font-family="Arial" font-size="14.00" fill="#000000">mnuamendment    </text>
<text text-anchor="start" x="215.338" y="-1163.9" font-family="Arial" font-size="14.00" fill="#666666">[boolean]</text>
<polygon fill="none" stroke="#000000" points="73,-1122.5 73,-1152.5 411,-1152.5 411,-1122.5 73,-1122.5"/>
<text text-anchor="start" x="80" y="-1133.9" font-family="Arial" font-size="14.00" fill="#000000">mnusendtotally    </text>
<text text-anchor="start" x="208.338" y="-1133.9" font-family="Arial" font-size="14.00" fill="#666666">[boolean]</text>
<polygon fill="none" stroke="#000000" points="73,-1092.5 73,-1122.5 411,-1122.5 411,-1092.5 73,-1092.5"/>
<text text-anchor="start" x="80" y="-1103.9" font-family="Arial" font-size="14.00" fill="#000000">mnuexporttoexcel    </text>
<text text-anchor="start" x="224.6746" y="-1103.9" font-family="Arial" font-size="14.00" fill="#666666">[boolean]</text>
<polygon fill="none" stroke="#000000" points="73,-1062.5 73,-1092.5 411,-1092.5 411,-1062.5 73,-1062.5"/>
<text text-anchor="start" x="80" y="-1073.9" font-family="Arial" font-size="14.00" fill="#000000">extravalue    </text>
<text text-anchor="start" x="178.7756" y="-1073.9" font-family="Arial" font-size="14.00" fill="#666666">[varchar(50)]</text>
<polygon fill="none" stroke="#000000" points="73,-1032.5 73,-1062.5 411,-1062.5 411,-1032.5 73,-1032.5"/>
<text text-anchor="start" x="80" y="-1043.9" font-family="Arial" font-size="14.00" fill="#000000">formval    </text>
<text text-anchor="start" x="160.0884" y="-1043.9" font-family="Arial" font-size="14.00" fill="#666666">[varchar(70)]</text>
<polygon fill="none" stroke="#000000" points="73,-1002.5 73,-1032.5 411,-1032.5 411,-1002.5 73,-1002.5"/>
<text text-anchor="start" x="80" y="-1013.9" font-family="Arial" font-size="14.00" fill="#000000">isauthorizationreq    </text>
<text text-anchor="start" x="224.6704" y="-1013.9" font-family="Arial" font-size="14.00" fill="#666666">[boolean]</text>
<polygon fill="none" stroke="#000000" points="73,-972.5 73,-1002.5 411,-1002.5 411,-972.5 73,-972.5"/>
<text text-anchor="start" x="80" y="-983.9" font-family="Arial" font-size="14.00" fill="#000000">mnuclosepending    </text>
<text text-anchor="start" x="223.9046" y="-983.9" font-family="Arial" font-size="14.00" fill="#666666">[boolean]</text>
<polygon fill="none" stroke="#000000" points="73,-942.5 73,-972.5 411,-972.5 411,-942.5 73,-942.5"/>
<text text-anchor="start" x="80" y="-953.9" font-family="Arial" font-size="14.00" fill="#000000">visible    </text>
<text text-anchor="start" x="153.0898" y="-953.9" font-family="Arial" font-size="14.00" fill="#666666">[boolean]</text>
<polygon fill="none" stroke="#000000" points="73,-912.5 73,-942.5 411,-942.5 411,-912.5 73,-912.5"/>
<text text-anchor="start" x="80" y="-923.9" font-family="Arial" font-size="14.00" fill="#000000">mnucanceltransaction    </text>
<text text-anchor="start" x="250.3464" y="-923.9" font-family="Arial" font-size="14.00" fill="#666666">[boolean]</text>
<polygon fill="none" stroke="#000000" points="73,-882.5 73,-912.5 411,-912.5 411,-882.5 73,-882.5"/>
<text text-anchor="start" x="80" y="-893.9" font-family="Arial" font-size="14.00" fill="#000000">formgroupid    </text>
<text text-anchor="start" x="188.8794" y="-893.9" font-family="Arial" font-size="14.00" fill="#666666">[integer]</text>
<polygon fill="none" stroke="#000000" points="73,-852.5 73,-882.5 411,-882.5 411,-852.5 73,-852.5"/>
<text text-anchor="start" x="80" y="-863.9" font-family="Arial" font-size="14.00" fill="#000000">allowbackdateentry    </text>
<text text-anchor="start" x="234.0098" y="-863.9" font-family="Arial" font-size="14.00" fill="#666666">[boolean]</text>
<polygon fill="none" stroke="#000000" points="73,-822.5 73,-852.5 411,-852.5 411,-822.5 73,-822.5"/>
<text text-anchor="start" x="80" y="-833.9" font-family="Arial" font-size="14.00" fill="#000000">isheadauthorizationreq    </text>
<text text-anchor="start" x="255.8008" y="-833.9" font-family="Arial" font-size="14.00" fill="#666666">[boolean]</text>
<polygon fill="none" stroke="#000000" points="73,-792.5 73,-822.5 411,-822.5 411,-792.5 73,-792.5"/>
<text text-anchor="start" x="80" y="-803.9" font-family="Arial" font-size="14.00" fill="#000000">roundoffitemlevelamt    </text>
<text text-anchor="start" x="244.1122" y="-803.9" font-family="Arial" font-size="14.00" fill="#666666">[integer]</text>
<polygon fill="none" stroke="#000000" points="73,-762.5 73,-792.5 411,-792.5 411,-762.5 73,-762.5"/>
<text text-anchor="start" x="80" y="-773.9" font-family="Arial" font-size="14.00" fill="#000000">mnuattachment    </text>
<text text-anchor="start" x="210.676" y="-773.9" font-family="Arial" font-size="14.00" fill="#666666">[boolean]</text>
<polygon fill="none" stroke="#000000" points="73,-732.5 73,-762.5 411,-762.5 411,-732.5 73,-732.5"/>
<text text-anchor="start" x="80" y="-743.9" font-family="Arial" font-size="14.00" fill="#000000">mnuviewattachment    </text>
<text text-anchor="start" x="238.6718" y="-743.9" font-family="Arial" font-size="14.00" fill="#666666">[boolean]</text>
<polygon fill="none" stroke="#000000" points="73,-702.5 73,-732.5 411,-732.5 411,-702.5 73,-702.5"/>
<text text-anchor="start" x="80" y="-713.9" font-family="Arial" font-size="14.00" fill="#000000">bamount_auth_enable    </text>
<text text-anchor="start" x="253.4922" y="-713.9" font-family="Arial" font-size="14.00" fill="#666666">[boolean]</text>
<polygon fill="none" stroke="#000000" points="73,-672.5 73,-702.5 411,-702.5 411,-672.5 73,-672.5"/>
<text text-anchor="start" x="80" y="-683.9" font-family="Arial" font-size="14.00" fill="#000000">formpath    </text>
<text text-anchor="start" x="169.4376" y="-683.9" font-family="Arial" font-size="14.00" fill="#666666">[text]</text>
<polygon fill="none" stroke="#000000" points="73,-642.5 73,-672.5 411,-672.5 411,-642.5 73,-642.5"/>
<text text-anchor="start" x="80" y="-653.9" font-family="Arial" font-size="14.00" fill="#000000">backdateenddate    </text>
<text text-anchor="start" x="221.5946" y="-653.9" font-family="Arial" font-size="14.00" fill="#666666">[date]</text>
<polygon fill="none" stroke="#000000" points="73,-612.5 73,-642.5 411,-642.5 411,-612.5 73,-612.5"/>
<text text-anchor="start" x="80" y="-623.9" font-family="Arial" font-size="14.00" fill="#000000">saveandprint    </text>
<text text-anchor="start" x="194.3408" y="-623.9" font-family="Arial" font-size="14.00" fill="#666666">[boolean]</text>
<polygon fill="none" stroke="#000000" points="73,-582.5 73,-612.5 411,-612.5 411,-582.5 73,-582.5"/>
<text text-anchor="start" x="80" y="-593.9" font-family="Arial" font-size="14.00" fill="#000000">saveandauthorize    </text>
<text text-anchor="start" x="224.6886" y="-593.9" font-family="Arial" font-size="14.00" fill="#666666">[boolean]</text>
<polygon fill="none" stroke="#000000" points="73,-552.5 73,-582.5 411,-582.5 411,-552.5 73,-552.5"/>
<text text-anchor="start" x="80" y="-563.9" font-family="Arial" font-size="14.00" fill="#000000">mnucreatestructure    </text>
<text text-anchor="start" x="234.7798" y="-563.9" font-family="Arial" font-size="14.00" fill="#666666">[boolean]</text>
<polygon fill="none" stroke="#000000" points="73,-522.5 73,-552.5 411,-552.5 411,-522.5 73,-522.5"/>
<text text-anchor="start" x="80" y="-533.9" font-family="Arial" font-size="14.00" fill="#000000">mnuimport    </text>
<text text-anchor="start" x="180.3142" y="-533.9" font-family="Arial" font-size="14.00" fill="#666666">[boolean]</text>
<polygon fill="none" stroke="#000000" points="73,-492.5 73,-522.5 411,-522.5 411,-492.5 73,-492.5"/>
<text text-anchor="start" x="80" y="-503.9" font-family="Arial" font-size="14.00" fill="#000000">tb_name    </text>
<text text-anchor="start" x="168.669" y="-503.9" font-family="Arial" font-size="14.00" fill="#666666">[varchar]</text>
<polygon fill="none" stroke="#000000" points="73,-462.5 73,-492.5 411,-492.5 411,-462.5 73,-462.5"/>
<text text-anchor="start" x="80" y="-473.9" font-family="Arial" font-size="14.00" fill="#000000">mnuprintserial    </text>
<text text-anchor="start" x="202.0926" y="-473.9" font-family="Arial" font-size="14.00" fill="#666666">[boolean]</text>
<polygon fill="none" stroke="#000000" points="73,-432.5 73,-462.5 411,-462.5 411,-432.5 73,-432.5"/>
<text text-anchor="start" x="80" y="-443.9" font-family="Arial" font-size="14.00" fill="#000000">mnuemail    </text>
<text text-anchor="start" x="174.8696" y="-443.9" font-family="Arial" font-size="14.00" fill="#666666">[boolean]</text>
<polygon fill="none" stroke="#000000" points="73,-402.5 73,-432.5 411,-432.5 411,-402.5 73,-402.5"/>
<text text-anchor="start" x="80" y="-413.9" font-family="Arial" font-size="14.00" fill="#000000">mnuunauthorize    </text>
<text text-anchor="start" x="214.5666" y="-413.9" font-family="Arial" font-size="14.00" fill="#666666">[boolean]</text>
<polygon fill="none" stroke="#000000" points="73,-372.5 73,-402.5 411,-402.5 411,-372.5 73,-372.5"/>
<text text-anchor="start" x="80" y="-383.9" font-family="Arial" font-size="14.00" fill="#000000">report_id    </text>
<text text-anchor="start" x="169.4362" y="-383.9" font-family="Arial" font-size="14.00" fill="#666666">[integer]</text>
<polygon fill="none" stroke="#000000" points="73,-342.5 73,-372.5 411,-372.5 411,-342.5 73,-342.5"/>
<text text-anchor="start" x="80" y="-353.9" font-family="Arial" font-size="14.00" fill="#000000">isautomail    </text>
<text text-anchor="start" x="177.2062" y="-353.9" font-family="Arial" font-size="14.00" fill="#666666">[boolean]</text>
<polygon fill="none" stroke="#000000" points="73,-312.5 73,-342.5 411,-342.5 411,-312.5 73,-312.5"/>
<text text-anchor="start" x="80" y="-323.9" font-family="Arial" font-size="14.00" fill="#000000">printfromdbqry    </text>
<text text-anchor="start" x="204.4306" y="-323.9" font-family="Arial" font-size="14.00" fill="#666666">[boolean]</text>
<polygon fill="none" stroke="#000000" points="73,-282.5 73,-312.5 411,-312.5 411,-282.5 73,-282.5"/>
<text text-anchor="start" x="80" y="-293.9" font-family="Arial" font-size="14.00" fill="#000000">showitemattributeonreport    </text>
<text text-anchor="start" x="276.0112" y="-293.9" font-family="Arial" font-size="14.00" fill="#666666">[boolean]</text>
<polygon fill="none" stroke="#000000" points="73,-252.5 73,-282.5 411,-282.5 411,-252.5 73,-252.5"/>
<text text-anchor="start" x="80" y="-263.9" font-family="Arial" font-size="14.00" fill="#000000">bydefaultselectallitemattribute    </text>
<text text-anchor="start" x="298.5736" y="-263.9" font-family="Arial" font-size="14.00" fill="#666666">[boolean]</text>
<polygon fill="none" stroke="#000000" points="73,-222.5 73,-252.5 411,-252.5 411,-222.5 73,-222.5"/>
<text text-anchor="start" x="80" y="-233.9" font-family="Arial" font-size="14.00" fill="#000000">helpurl    </text>
<text text-anchor="start" x="156.209" y="-233.9" font-family="Arial" font-size="14.00" fill="#666666">[text]</text>
<polygon fill="none" stroke="#000000" points="73,-192.5 73,-222.5 411,-222.5 411,-192.5 73,-192.5"/>
<text text-anchor="start" x="80" y="-203.9" font-family="Arial" font-size="14.00" fill="#000000">roundoffitemlevelgstrate    </text>
<text text-anchor="start" x="263.568" y="-203.9" font-family="Arial" font-size="14.00" fill="#666666">[integer]</text>
<polygon fill="none" stroke="#000000" points="73,-162.5 73,-192.5 411,-192.5 411,-162.5 73,-162.5"/>
<text text-anchor="start" x="80" y="-173.9" font-family="Arial" font-size="14.00" fill="#000000">isforglobalseries    </text>
<text text-anchor="start" x="215.3212" y="-173.9" font-family="Arial" font-size="14.00" fill="#666666">[boolean]</text>
<polygon fill="none" stroke="#000000" points="73,-132.5 73,-162.5 411,-162.5 411,-132.5 73,-132.5"/>
<text text-anchor="start" x="80" y="-143.9" font-family="Arial" font-size="14.00" fill="#000000">saveandprintbarcode    </text>
<text text-anchor="start" x="244.9144" y="-143.9" font-family="Arial" font-size="14.00" fill="#666666">[boolean]</text>
<polygon fill="none" stroke="#000000" points="73,-102.5 73,-132.5 411,-132.5 411,-102.5 73,-102.5"/>
<text text-anchor="start" x="80" y="-113.9" font-family="Arial" font-size="14.00" fill="#000000">discperdecimallimit    </text>
<text text-anchor="start" x="232.4124" y="-113.9" font-family="Arial" font-size="14.00" fill="#666666">[integer]</text>
<polygon fill="none" stroke="#000000" points="73,-72.5 73,-102.5 411,-102.5 411,-72.5 73,-72.5"/>
<text text-anchor="start" x="80" y="-83.9" font-family="Arial" font-size="14.00" fill="#000000">isbackdateimpact    </text>
<text text-anchor="start" x="222.338" y="-83.9" font-family="Arial" font-size="14.00" fill="#666666">[boolean]</text>
<polygon fill="none" stroke="#000000" points="73,-42.5 73,-72.5 411,-72.5 411,-42.5 73,-42.5"/>
<text text-anchor="start" x="80" y="-53.9" font-family="Arial" font-size="14.00" fill="#000000">mnuwhatsapp    </text>
<text text-anchor="start" x="201.3408" y="-53.9" font-family="Arial" font-size="14.00" fill="#666666">[boolean]</text>
</g>
<!-- public.pur_inspectionbeforemrn&#45;&gt;public.comn_formmaster -->
<g id="edge1" class="edge">
<title>public.pur_inspectionbeforemrn:formid&#45;&gt;public.comn_formmaster:formid</title>
<path fill="none" stroke="#000000" d="M448.0724,-1686.7828C547.987,-1672.1191 519.2648,-1437.5 411,-1437.5"/>
<polygon fill="#000000" stroke="#000000" points="447.9747,-1686.7897 437.6804,-1683.0114 442.9874,-1687.1448 438,-1687.5 438,-1687.5 438,-1687.5 442.9874,-1687.1448 438.3196,-1691.9886 447.9747,-1686.7897 447.9747,-1686.7897"/>
<text text-anchor="start" x="444.7865" y="-1697.5" font-family="Arial" font-size="10.00" fill="#000000">FOREIGN KEY (formid) REFERENCES comn_formmaster(formid)</text>
</g>
</g>
</svg>
