<?xml version="1.0" encoding="UTF-8" standalone="no"?>
<!DOCTYPE svg PUBLIC "-//W3C//DTD SVG 1.1//EN"
 "http://www.w3.org/Graphics/SVG/1.1/DTD/svg11.dtd">
<!-- Generated by graphviz version 2.40.1 (20161225.0304)
 -->
<!-- Title: public.fa_companyact Pages: 1 -->
<svg width="415pt" height="495pt"
 viewBox="0.00 0.00 415.00 495.00" xmlns="http://www.w3.org/2000/svg" xmlns:xlink="http://www.w3.org/1999/xlink">
<g id="graph0" class="graph" transform="scale(1 1) rotate(0) translate(4 491)">
<title>public.fa_companyact</title>
<polygon fill="#ffffff" stroke="transparent" points="-4,4 -4,-491 411,-491 411,4 -4,4"/>
<!-- public.fa_companyact -->
<g id="node1" class="node">
<title>public.fa_companyact</title>
<polygon fill="#efefef" stroke="transparent" points="46.5,-405.5 46.5,-440.5 361.5,-440.5 361.5,-405.5 46.5,-405.5"/>
<polygon fill="none" stroke="#000000" points="46.5,-405.5 46.5,-440.5 361.5,-440.5 361.5,-405.5 46.5,-405.5"/>
<text text-anchor="start" x="53.1914" y="-418.3" font-family="Arial Bold" font-size="18.00" fill="#000000">public.fa_companyact</text>
<text text-anchor="start" x="227.2406" y="-418.3" font-family="Arial" font-size="14.00" fill="#000000">    </text>
<text text-anchor="start" x="261.4454" y="-418.3" font-family="Arial" font-size="14.00" fill="#666666">[BASE TABLE]</text>
<polygon fill="none" stroke="#000000" points="46.5,-375.5 46.5,-405.5 361.5,-405.5 361.5,-375.5 46.5,-375.5"/>
<text text-anchor="start" x="53.5" y="-386.9" font-family="Arial" font-size="14.00" fill="#000000">acttypeid </text>
<text text-anchor="start" x="113.4088" y="-386.9" font-family="Arial" font-size="14.00" fill="#666666">[integer]</text>
<polygon fill="none" stroke="#000000" points="46.5,-345.5 46.5,-375.5 361.5,-375.5 361.5,-345.5 46.5,-345.5"/>
<text text-anchor="start" x="53.5" y="-356.9" font-family="Arial" font-size="14.00" fill="#000000">acttype </text>
<text text-anchor="start" x="102.5196" y="-356.9" font-family="Arial" font-size="14.00" fill="#666666">[varchar(250)]</text>
<polygon fill="none" stroke="#000000" points="46.5,-315.5 46.5,-345.5 361.5,-345.5 361.5,-315.5 46.5,-315.5"/>
<text text-anchor="start" x="53.5" y="-326.9" font-family="Arial" font-size="14.00" fill="#000000">description </text>
<text text-anchor="start" x="125.068" y="-326.9" font-family="Arial" font-size="14.00" fill="#666666">[varchar]</text>
<polygon fill="none" stroke="#000000" points="46.5,-285.5 46.5,-315.5 361.5,-315.5 361.5,-285.5 46.5,-285.5"/>
<text text-anchor="start" x="53.5" y="-296.9" font-family="Arial" font-size="14.00" fill="#000000">yearwef </text>
<text text-anchor="start" x="106.3962" y="-296.9" font-family="Arial" font-size="14.00" fill="#666666">[numeric(4,0)]</text>
<polygon fill="none" stroke="#000000" points="46.5,-255.5 46.5,-285.5 361.5,-285.5 361.5,-255.5 46.5,-255.5"/>
<text text-anchor="start" x="53.5" y="-266.9" font-family="Arial" font-size="14.00" fill="#000000">slmrate </text>
<text text-anchor="start" x="103.2742" y="-266.9" font-family="Arial" font-size="14.00" fill="#666666">[numeric(5,2)]</text>
<polygon fill="none" stroke="#000000" points="46.5,-225.5 46.5,-255.5 361.5,-255.5 361.5,-225.5 46.5,-225.5"/>
<text text-anchor="start" x="53.5" y="-236.9" font-family="Arial" font-size="14.00" fill="#000000">wdvrate </text>
<text text-anchor="start" x="106.3962" y="-236.9" font-family="Arial" font-size="14.00" fill="#666666">[numeric(5,2)]</text>
<polygon fill="none" stroke="#000000" points="46.5,-195.5 46.5,-225.5 361.5,-225.5 361.5,-195.5 46.5,-195.5"/>
<text text-anchor="start" x="53.5" y="-206.9" font-family="Arial" font-size="14.00" fill="#000000">alias </text>
<text text-anchor="start" x="86.169" y="-206.9" font-family="Arial" font-size="14.00" fill="#666666">[varchar(200)]</text>
<polygon fill="none" stroke="#000000" points="46.5,-165.5 46.5,-195.5 361.5,-195.5 361.5,-165.5 46.5,-165.5"/>
<text text-anchor="start" x="53.5" y="-176.9" font-family="Arial" font-size="14.00" fill="#000000">double_shift_slmrate </text>
<text text-anchor="start" x="186.5294" y="-176.9" font-family="Arial" font-size="14.00" fill="#666666">[numeric(5,2)]</text>
<polygon fill="none" stroke="#000000" points="46.5,-135.5 46.5,-165.5 361.5,-165.5 361.5,-135.5 46.5,-135.5"/>
<text text-anchor="start" x="53.5" y="-146.9" font-family="Arial" font-size="14.00" fill="#000000">double_shift_wdvrate </text>
<text text-anchor="start" x="189.6514" y="-146.9" font-family="Arial" font-size="14.00" fill="#666666">[numeric(5,2)]</text>
<polygon fill="none" stroke="#000000" points="46.5,-105.5 46.5,-135.5 361.5,-135.5 361.5,-105.5 46.5,-105.5"/>
<text text-anchor="start" x="53.5" y="-116.9" font-family="Arial" font-size="14.00" fill="#000000">triple_shift_slmrate </text>
<text text-anchor="start" x="174.8394" y="-116.9" font-family="Arial" font-size="14.00" fill="#666666">[numeric(5,2)]</text>
<polygon fill="none" stroke="#000000" points="46.5,-75.5 46.5,-105.5 361.5,-105.5 361.5,-75.5 46.5,-75.5"/>
<text text-anchor="start" x="53.5" y="-86.9" font-family="Arial" font-size="14.00" fill="#000000">triple_shift_wdvrate </text>
<text text-anchor="start" x="177.9614" y="-86.9" font-family="Arial" font-size="14.00" fill="#666666">[numeric(5,2)]</text>
<polygon fill="none" stroke="#000000" points="46.5,-45.5 46.5,-75.5 361.5,-75.5 361.5,-45.5 46.5,-45.5"/>
<text text-anchor="start" x="53.5" y="-56.9" font-family="Arial" font-size="14.00" fill="#000000">compact_lifeofasset </text>
<text text-anchor="start" x="181.0876" y="-56.9" font-family="Arial" font-size="14.00" fill="#666666">[numeric(15,2)]</text>
<polygon fill="none" stroke="#000000" stroke-width="3" points="44.5,-44.5 44.5,-442.5 362.5,-442.5 362.5,-44.5 44.5,-44.5"/>
</g>
</g>
</svg>
