<?xml version="1.0" encoding="UTF-8" standalone="no"?>
<!DOCTYPE svg PUBLIC "-//W3C//DTD SVG 1.1//EN"
 "http://www.w3.org/Graphics/SVG/1.1/DTD/svg11.dtd">
<!-- Generated by graphviz version 2.40.1 (20161225.0304)
 -->
<!-- Title: public.partymaster Pages: 1 -->
<svg width="404pt" height="435pt"
 viewBox="0.00 0.00 404.00 435.00" xmlns="http://www.w3.org/2000/svg" xmlns:xlink="http://www.w3.org/1999/xlink">
<g id="graph0" class="graph" transform="scale(1 1) rotate(0) translate(4 431)">
<title>public.partymaster</title>
<polygon fill="#ffffff" stroke="transparent" points="-4,4 -4,-431 400,-431 400,4 -4,4"/>
<!-- public.partymaster -->
<g id="node1" class="node">
<title>public.partymaster</title>
<polygon fill="#efefef" stroke="transparent" points="46,-345.5 46,-380.5 350,-380.5 350,-345.5 46,-345.5"/>
<polygon fill="none" stroke="#000000" points="46,-345.5 46,-380.5 350,-380.5 350,-345.5 46,-345.5"/>
<text text-anchor="start" x="60.7085" y="-358.3" font-family="Arial Bold" font-size="18.00" fill="#000000">public.partymaster</text>
<text text-anchor="start" x="207.7235" y="-358.3" font-family="Arial" font-size="14.00" fill="#000000">    </text>
<text text-anchor="start" x="241.9283" y="-358.3" font-family="Arial" font-size="14.00" fill="#666666">[BASE TABLE]</text>
<polygon fill="none" stroke="#000000" points="46,-315.5 46,-345.5 350,-345.5 350,-315.5 46,-315.5"/>
<text text-anchor="start" x="53" y="-326.9" font-family="Arial" font-size="14.00" fill="#000000">party_id </text>
<text text-anchor="start" x="106.6788" y="-326.9" font-family="Arial" font-size="14.00" fill="#666666">[integer]</text>
<polygon fill="none" stroke="#000000" points="46,-285.5 46,-315.5 350,-315.5 350,-285.5 46,-285.5"/>
<text text-anchor="start" x="53" y="-296.9" font-family="Arial" font-size="14.00" fill="#000000">party_code </text>
<text text-anchor="start" x="126.1374" y="-296.9" font-family="Arial" font-size="14.00" fill="#666666">[varchar(50)]</text>
<polygon fill="none" stroke="#000000" points="46,-255.5 46,-285.5 350,-285.5 350,-255.5 46,-255.5"/>
<text text-anchor="start" x="53" y="-266.9" font-family="Arial" font-size="14.00" fill="#000000">party_name </text>
<text text-anchor="start" x="130.798" y="-266.9" font-family="Arial" font-size="14.00" fill="#666666">[varchar(200)]</text>
<polygon fill="none" stroke="#000000" points="46,-225.5 46,-255.5 350,-255.5 350,-225.5 46,-225.5"/>
<text text-anchor="start" x="53" y="-236.9" font-family="Arial" font-size="14.00" fill="#000000">credit_limit </text>
<text text-anchor="start" x="123.7672" y="-236.9" font-family="Arial" font-size="14.00" fill="#666666">[numeric(18,2)]</text>
<polygon fill="none" stroke="#000000" points="46,-195.5 46,-225.5 350,-225.5 350,-195.5 46,-195.5"/>
<text text-anchor="start" x="53" y="-206.9" font-family="Arial" font-size="14.00" fill="#000000">used_limit </text>
<text text-anchor="start" x="119.892" y="-206.9" font-family="Arial" font-size="14.00" fill="#666666">[numeric(18,2)]</text>
<polygon fill="none" stroke="#000000" points="46,-165.5 46,-195.5 350,-195.5 350,-165.5 46,-165.5"/>
<text text-anchor="start" x="53" y="-176.9" font-family="Arial" font-size="14.00" fill="#000000">branch_id </text>
<text text-anchor="start" x="118.3534" y="-176.9" font-family="Arial" font-size="14.00" fill="#666666">[integer]</text>
<polygon fill="none" stroke="#000000" points="46,-135.5 46,-165.5 350,-165.5 350,-135.5 46,-135.5"/>
<text text-anchor="start" x="53" y="-146.9" font-family="Arial" font-size="14.00" fill="#000000">overduedays </text>
<text text-anchor="start" x="137.0294" y="-146.9" font-family="Arial" font-size="14.00" fill="#666666">[integer]</text>
<polygon fill="none" stroke="#000000" points="46,-105.5 46,-135.5 350,-135.5 350,-105.5 46,-105.5"/>
<text text-anchor="start" x="53" y="-116.9" font-family="Arial" font-size="14.00" fill="#000000">pending_bills </text>
<text text-anchor="start" x="138.5778" y="-116.9" font-family="Arial" font-size="14.00" fill="#666666">[integer]</text>
<polygon fill="none" stroke="#000000" points="46,-75.5 46,-105.5 350,-105.5 350,-75.5 46,-75.5"/>
<text text-anchor="start" x="53" y="-86.9" font-family="Arial" font-size="14.00" fill="#000000">closingbalance </text>
<text text-anchor="start" x="149.4712" y="-86.9" font-family="Arial" font-size="14.00" fill="#666666">[numeric(18,2)]</text>
<polygon fill="none" stroke="#000000" points="46,-45.5 46,-75.5 350,-75.5 350,-45.5 46,-45.5"/>
<text text-anchor="start" x="52.5281" y="-56.9" font-family="Arial" font-size="14.00" fill="#000000">creditenddate </text>
<text text-anchor="start" x="141.2279" y="-56.9" font-family="Arial" font-size="14.00" fill="#666666">[timestamp(6) without time zone]</text>
<polygon fill="none" stroke="#000000" stroke-width="3" points="44.5,-44.5 44.5,-382.5 351.5,-382.5 351.5,-44.5 44.5,-44.5"/>
</g>
</g>
</svg>
