<?xml version="1.0" encoding="UTF-8" standalone="no"?>
<!DOCTYPE svg PUBLIC "-//W3C//DTD SVG 1.1//EN"
 "http://www.w3.org/Graphics/SVG/1.1/DTD/svg11.dtd">
<!-- Generated by graphviz version 2.40.1 (20161225.0304)
 -->
<!-- Title: public.pay_salaryslipprintdetails Pages: 1 -->
<svg width="494pt" height="1755pt"
 viewBox="0.00 0.00 494.00 1755.00" xmlns="http://www.w3.org/2000/svg" xmlns:xlink="http://www.w3.org/1999/xlink">
<g id="graph0" class="graph" transform="scale(1 1) rotate(0) translate(4 1751)">
<title>public.pay_salaryslipprintdetails</title>
<polygon fill="#ffffff" stroke="transparent" points="-4,4 -4,-1751 490,-1751 490,4 -4,4"/>
<!-- public.pay_salaryslipprintdetails -->
<g id="node1" class="node">
<title>public.pay_salaryslipprintdetails</title>
<polygon fill="#efefef" stroke="transparent" points="46,-1665.5 46,-1700.5 440,-1700.5 440,-1665.5 46,-1665.5"/>
<polygon fill="none" stroke="#000000" points="46,-1665.5 46,-1700.5 440,-1700.5 440,-1665.5 46,-1665.5"/>
<text text-anchor="start" x="52.7003" y="-1678.3" font-family="Arial Bold" font-size="18.00" fill="#000000">public.pay_salaryslipprintdetails</text>
<text text-anchor="start" x="305.7317" y="-1678.3" font-family="Arial" font-size="14.00" fill="#000000">    </text>
<text text-anchor="start" x="339.9365" y="-1678.3" font-family="Arial" font-size="14.00" fill="#666666">[BASE TABLE]</text>
<polygon fill="none" stroke="#000000" points="46,-1635.5 46,-1665.5 440,-1665.5 440,-1635.5 46,-1635.5"/>
<text text-anchor="start" x="53" y="-1646.9" font-family="Arial" font-size="14.00" fill="#000000">EMPLOYEE_NAME </text>
<text text-anchor="start" x="182.1304" y="-1646.9" font-family="Arial" font-size="14.00" fill="#666666">[varchar]</text>
<polygon fill="none" stroke="#000000" points="46,-1605.5 46,-1635.5 440,-1635.5 440,-1605.5 46,-1605.5"/>
<text text-anchor="start" x="53" y="-1616.9" font-family="Arial" font-size="14.00" fill="#000000">salarydetailsid </text>
<text text-anchor="start" x="145.5638" y="-1616.9" font-family="Arial" font-size="14.00" fill="#666666">[integer]</text>
<polygon fill="none" stroke="#000000" points="46,-1575.5 46,-1605.5 440,-1605.5 440,-1575.5 46,-1575.5"/>
<text text-anchor="start" x="53" y="-1586.9" font-family="Arial" font-size="14.00" fill="#000000">salarymasterid </text>
<text text-anchor="start" x="147.8892" y="-1586.9" font-family="Arial" font-size="14.00" fill="#666666">[integer]</text>
<polygon fill="none" stroke="#000000" points="46,-1545.5 46,-1575.5 440,-1575.5 440,-1545.5 46,-1545.5"/>
<text text-anchor="start" x="53" y="-1556.9" font-family="Arial" font-size="14.00" fill="#000000">EMPLOYEE_ID </text>
<text text-anchor="start" x="155.6872" y="-1556.9" font-family="Arial" font-size="14.00" fill="#666666">[integer]</text>
<polygon fill="none" stroke="#000000" points="46,-1515.5 46,-1545.5 440,-1545.5 440,-1515.5 46,-1515.5"/>
<text text-anchor="start" x="53" y="-1526.9" font-family="Arial" font-size="14.00" fill="#000000">TOTAL_ALLOWANCE </text>
<text text-anchor="start" x="197.6816" y="-1526.9" font-family="Arial" font-size="14.00" fill="#666666">[numeric(18,2)]</text>
<polygon fill="none" stroke="#000000" points="46,-1485.5 46,-1515.5 440,-1515.5 440,-1485.5 46,-1485.5"/>
<text text-anchor="start" x="53" y="-1496.9" font-family="Arial" font-size="14.00" fill="#000000">TOTAL_DEDUCTION </text>
<text text-anchor="start" x="192.9916" y="-1496.9" font-family="Arial" font-size="14.00" fill="#666666">[numeric(18,2)]</text>
<polygon fill="none" stroke="#000000" points="46,-1455.5 46,-1485.5 440,-1485.5 440,-1455.5 46,-1455.5"/>
<text text-anchor="start" x="53" y="-1466.9" font-family="Arial" font-size="14.00" fill="#000000">NET_SALARY </text>
<text text-anchor="start" x="147.9046" y="-1466.9" font-family="Arial" font-size="14.00" fill="#666666">[numeric(18,2)]</text>
<polygon fill="none" stroke="#000000" points="46,-1425.5 46,-1455.5 440,-1455.5 440,-1425.5 46,-1425.5"/>
<text text-anchor="start" x="53" y="-1436.9" font-family="Arial" font-size="14.00" fill="#000000">ADVANCE </text>
<text text-anchor="start" x="124.5568" y="-1436.9" font-family="Arial" font-size="14.00" fill="#666666">[numeric(18,2)]</text>
<polygon fill="none" stroke="#000000" points="46,-1395.5 46,-1425.5 440,-1425.5 440,-1395.5 46,-1395.5"/>
<text text-anchor="start" x="53" y="-1406.9" font-family="Arial" font-size="14.00" fill="#000000">PAID </text>
<text text-anchor="start" x="89.561" y="-1406.9" font-family="Arial" font-size="14.00" fill="#666666">[numeric(18,2)]</text>
<polygon fill="none" stroke="#000000" points="46,-1365.5 46,-1395.5 440,-1395.5 440,-1365.5 46,-1365.5"/>
<text text-anchor="start" x="53" y="-1376.9" font-family="Arial" font-size="14.00" fill="#000000">OVERTIME </text>
<text text-anchor="start" x="130.0014" y="-1376.9" font-family="Arial" font-size="14.00" fill="#666666">[numeric(18,2)]</text>
<polygon fill="none" stroke="#000000" points="46,-1335.5 46,-1365.5 440,-1365.5 440,-1335.5 46,-1335.5"/>
<text text-anchor="start" x="53" y="-1346.9" font-family="Arial" font-size="14.00" fill="#000000">ARREAR </text>
<text text-anchor="start" x="115.2202" y="-1346.9" font-family="Arial" font-size="14.00" fill="#666666">[numeric(18,2)]</text>
<polygon fill="none" stroke="#000000" points="46,-1305.5 46,-1335.5 440,-1335.5 440,-1305.5 46,-1305.5"/>
<text text-anchor="start" x="53" y="-1316.9" font-family="Arial" font-size="14.00" fill="#000000">EMPLOYEE_PF </text>
<text text-anchor="start" x="159.5792" y="-1316.9" font-family="Arial" font-size="14.00" fill="#666666">[numeric(8,2)]</text>
<polygon fill="none" stroke="#000000" points="46,-1275.5 46,-1305.5 440,-1305.5 440,-1275.5 46,-1275.5"/>
<text text-anchor="start" x="53" y="-1286.9" font-family="Arial" font-size="14.00" fill="#000000">HRA </text>
<text text-anchor="start" x="86.4404" y="-1286.9" font-family="Arial" font-size="14.00" fill="#666666">[numeric(8,2)]</text>
<polygon fill="none" stroke="#000000" points="46,-1245.5 46,-1275.5 440,-1275.5 440,-1245.5 46,-1245.5"/>
<text text-anchor="start" x="53" y="-1256.9" font-family="Arial" font-size="14.00" fill="#000000">CONVENIENCE </text>
<text text-anchor="start" x="159.5512" y="-1256.9" font-family="Arial" font-size="14.00" fill="#666666">[numeric(8,2)]</text>
<polygon fill="none" stroke="#000000" points="46,-1215.5 46,-1245.5 440,-1245.5 440,-1215.5 46,-1215.5"/>
<text text-anchor="start" x="53" y="-1226.9" font-family="Arial" font-size="14.00" fill="#000000">COMPANY_PF </text>
<text text-anchor="start" x="153.3366" y="-1226.9" font-family="Arial" font-size="14.00" fill="#666666">[numeric(8,2)]</text>
<polygon fill="none" stroke="#000000" points="46,-1185.5 46,-1215.5 440,-1215.5 440,-1185.5 46,-1185.5"/>
<text text-anchor="start" x="53" y="-1196.9" font-family="Arial" font-size="14.00" fill="#000000">LTA </text>
<text text-anchor="start" x="82.5624" y="-1196.9" font-family="Arial" font-size="14.00" fill="#666666">[numeric(8,2)]</text>
<polygon fill="none" stroke="#000000" points="46,-1155.5 46,-1185.5 440,-1185.5 440,-1155.5 46,-1155.5"/>
<text text-anchor="start" x="53" y="-1166.9" font-family="Arial" font-size="14.00" fill="#000000">FURNITURE </text>
<text text-anchor="start" x="137.756" y="-1166.9" font-family="Arial" font-size="14.00" fill="#666666">[numeric(8,2)]</text>
<polygon fill="none" stroke="#000000" points="46,-1125.5 46,-1155.5 440,-1155.5 440,-1125.5 46,-1125.5"/>
<text text-anchor="start" x="53" y="-1136.9" font-family="Arial" font-size="14.00" fill="#000000">LUNCH </text>
<text text-anchor="start" x="105.0996" y="-1136.9" font-family="Arial" font-size="14.00" fill="#666666">[numeric(8,2)]</text>
<polygon fill="none" stroke="#000000" points="46,-1095.5 46,-1125.5 440,-1125.5 440,-1095.5 46,-1095.5"/>
<text text-anchor="start" x="53" y="-1106.9" font-family="Arial" font-size="14.00" fill="#000000">SS </text>
<text text-anchor="start" x="75.5638" y="-1106.9" font-family="Arial" font-size="14.00" fill="#666666">[numeric(8,2)]</text>
<polygon fill="none" stroke="#000000" points="46,-1065.5 46,-1095.5 440,-1095.5 440,-1065.5 46,-1065.5"/>
<text text-anchor="start" x="53" y="-1076.9" font-family="Arial" font-size="14.00" fill="#000000">LO </text>
<text text-anchor="start" x="75.5638" y="-1076.9" font-family="Arial" font-size="14.00" fill="#666666">[numeric(8,2)]</text>
<polygon fill="none" stroke="#000000" points="46,-1035.5 46,-1065.5 440,-1065.5 440,-1035.5 46,-1035.5"/>
<text text-anchor="start" x="53" y="-1046.9" font-family="Arial" font-size="14.00" fill="#000000">DA </text>
<text text-anchor="start" x="76.3338" y="-1046.9" font-family="Arial" font-size="14.00" fill="#666666">[numeric(8,2)]</text>
<polygon fill="none" stroke="#000000" points="46,-1005.5 46,-1035.5 440,-1035.5 440,-1005.5 46,-1005.5"/>
<text text-anchor="start" x="53" y="-1016.9" font-family="Arial" font-size="14.00" fill="#000000">BONUS </text>
<text text-anchor="start" x="106.6676" y="-1016.9" font-family="Arial" font-size="14.00" fill="#666666">[numeric(8,2)]</text>
<polygon fill="none" stroke="#000000" points="46,-975.5 46,-1005.5 440,-1005.5 440,-975.5 46,-975.5"/>
<text text-anchor="start" x="53" y="-986.9" font-family="Arial" font-size="14.00" fill="#000000">ADV </text>
<text text-anchor="start" x="85.6704" y="-986.9" font-family="Arial" font-size="14.00" fill="#666666">[numeric(8,2)]</text>
<polygon fill="none" stroke="#000000" points="46,-945.5 46,-975.5 440,-975.5 440,-945.5 46,-945.5"/>
<text text-anchor="start" x="53" y="-956.9" font-family="Arial" font-size="14.00" fill="#000000">MOBILE </text>
<text text-anchor="start" x="109.7882" y="-956.9" font-family="Arial" font-size="14.00" fill="#666666">[numeric(8,2)]</text>
<polygon fill="none" stroke="#000000" points="46,-915.5 46,-945.5 440,-945.5 440,-915.5 46,-915.5"/>
<text text-anchor="start" x="53" y="-926.9" font-family="Arial" font-size="14.00" fill="#000000">CL </text>
<text text-anchor="start" x="74.7798" y="-926.9" font-family="Arial" font-size="14.00" fill="#666666">[numeric(8,2)]</text>
<polygon fill="none" stroke="#000000" points="46,-885.5 46,-915.5 440,-915.5 440,-885.5 46,-885.5"/>
<text text-anchor="start" x="53" y="-896.9" font-family="Arial" font-size="14.00" fill="#000000">NN </text>
<text text-anchor="start" x="77.1038" y="-896.9" font-family="Arial" font-size="14.00" fill="#666666">[numeric(8,2)]</text>
<polygon fill="none" stroke="#000000" points="46,-855.5 46,-885.5 440,-885.5 440,-855.5 46,-855.5"/>
<text text-anchor="start" x="53" y="-866.9" font-family="Arial" font-size="14.00" fill="#000000">SPECIAL </text>
<text text-anchor="start" x="116.0168" y="-866.9" font-family="Arial" font-size="14.00" fill="#666666">[numeric(8,2)]</text>
<polygon fill="none" stroke="#000000" points="46,-825.5 46,-855.5 440,-855.5 440,-825.5 46,-825.5"/>
<text text-anchor="start" x="53" y="-836.9" font-family="Arial" font-size="14.00" fill="#000000">BASIC </text>
<text text-anchor="start" x="98.8976" y="-836.9" font-family="Arial" font-size="14.00" fill="#666666">[numeric(8,2)]</text>
<polygon fill="none" stroke="#000000" points="46,-795.5 46,-825.5 440,-825.5 440,-795.5 46,-795.5"/>
<text text-anchor="start" x="53" y="-806.9" font-family="Arial" font-size="14.00" fill="#000000">CITY </text>
<text text-anchor="start" x="88.777" y="-806.9" font-family="Arial" font-size="14.00" fill="#666666">[numeric(8,2)]</text>
<polygon fill="none" stroke="#000000" points="46,-765.5 46,-795.5 440,-795.5 440,-765.5 46,-765.5"/>
<text text-anchor="start" x="53" y="-776.9" font-family="Arial" font-size="14.00" fill="#000000">CPF </text>
<text text-anchor="start" x="84.8864" y="-776.9" font-family="Arial" font-size="14.00" fill="#666666">[numeric(8,2)]</text>
<polygon fill="none" stroke="#000000" points="46,-735.5 46,-765.5 440,-765.5 440,-735.5 46,-735.5"/>
<text text-anchor="start" x="53" y="-746.9" font-family="Arial" font-size="14.00" fill="#000000">EMPLOYEE_ESI </text>
<text text-anchor="start" x="164.2538" y="-746.9" font-family="Arial" font-size="14.00" fill="#666666">[numeric(8,2)]</text>
<polygon fill="none" stroke="#000000" points="46,-705.5 46,-735.5 440,-735.5 440,-705.5 46,-705.5"/>
<text text-anchor="start" x="53" y="-716.9" font-family="Arial" font-size="14.00" fill="#000000">LOAN </text>
<text text-anchor="start" x="95.007" y="-716.9" font-family="Arial" font-size="14.00" fill="#666666">[numeric(8,2)]</text>
<polygon fill="none" stroke="#000000" points="46,-675.5 46,-705.5 440,-705.5 440,-675.5 46,-675.5"/>
<text text-anchor="start" x="53" y="-686.9" font-family="Arial" font-size="14.00" fill="#000000">MS </text>
<text text-anchor="start" x="77.8878" y="-686.9" font-family="Arial" font-size="14.00" fill="#666666">[numeric(8,2)]</text>
<polygon fill="none" stroke="#000000" points="46,-645.5 46,-675.5 440,-675.5 440,-645.5 46,-645.5"/>
<text text-anchor="start" x="53" y="-656.9" font-family="Arial" font-size="14.00" fill="#000000">EPS </text>
<text text-anchor="start" x="84.9004" y="-656.9" font-family="Arial" font-size="14.00" fill="#666666">[numeric(8,2)]</text>
<polygon fill="none" stroke="#000000" points="46,-615.5 46,-645.5 440,-645.5 440,-615.5 46,-615.5"/>
<text text-anchor="start" x="53" y="-626.9" font-family="Arial" font-size="14.00" fill="#000000">COMP_ESI </text>
<text text-anchor="start" x="129.2314" y="-626.9" font-family="Arial" font-size="14.00" fill="#666666">[numeric(8,2)]</text>
<polygon fill="none" stroke="#000000" points="46,-585.5 46,-615.5 440,-615.5 440,-585.5 46,-585.5"/>
<text text-anchor="start" x="53" y="-596.9" font-family="Arial" font-size="14.00" fill="#000000">TEA </text>
<text text-anchor="start" x="84.1164" y="-596.9" font-family="Arial" font-size="14.00" fill="#666666">[numeric(8,2)]</text>
<polygon fill="none" stroke="#000000" points="46,-555.5 46,-585.5 440,-585.5 440,-555.5 46,-555.5"/>
<text text-anchor="start" x="53" y="-566.9" font-family="Arial" font-size="14.00" fill="#000000">FOODING </text>
<text text-anchor="start" x="122.2188" y="-566.9" font-family="Arial" font-size="14.00" fill="#666666">[numeric(8,2)]</text>
<polygon fill="none" stroke="#000000" points="46,-525.5 46,-555.5 440,-555.5 440,-525.5 46,-525.5"/>
<text text-anchor="start" x="53" y="-536.9" font-family="Arial" font-size="14.00" fill="#000000">PH </text>
<text text-anchor="start" x="76.3338" y="-536.9" font-family="Arial" font-size="14.00" fill="#666666">[numeric(8,2)]</text>
<polygon fill="none" stroke="#000000" points="46,-495.5 46,-525.5 440,-525.5 440,-495.5 46,-495.5"/>
<text text-anchor="start" x="53" y="-506.9" font-family="Arial" font-size="14.00" fill="#000000">BPH </text>
<text text-anchor="start" x="85.6704" y="-506.9" font-family="Arial" font-size="14.00" fill="#666666">[numeric(8,2)]</text>
<polygon fill="none" stroke="#000000" points="46,-465.5 46,-495.5 440,-495.5 440,-465.5 46,-465.5"/>
<text text-anchor="start" x="53" y="-476.9" font-family="Arial" font-size="14.00" fill="#000000">MED </text>
<text text-anchor="start" x="87.9944" y="-476.9" font-family="Arial" font-size="14.00" fill="#666666">[numeric(8,2)]</text>
<polygon fill="none" stroke="#000000" points="46,-435.5 46,-465.5 440,-465.5 440,-435.5 46,-435.5"/>
<text text-anchor="start" x="53" y="-446.9" font-family="Arial" font-size="14.00" fill="#000000">UF </text>
<text text-anchor="start" x="75.5498" y="-446.9" font-family="Arial" font-size="14.00" fill="#666666">[numeric(8,2)]</text>
<polygon fill="none" stroke="#000000" points="46,-405.5 46,-435.5 440,-435.5 440,-405.5 46,-405.5"/>
<text text-anchor="start" x="53" y="-416.9" font-family="Arial" font-size="14.00" fill="#000000">H </text>
<text text-anchor="start" x="66.9972" y="-416.9" font-family="Arial" font-size="14.00" fill="#666666">[numeric(8,2)]</text>
<polygon fill="none" stroke="#000000" points="46,-375.5 46,-405.5 440,-405.5 440,-375.5 46,-375.5"/>
<text text-anchor="start" x="53" y="-386.9" font-family="Arial" font-size="14.00" fill="#000000">PET_AND_MAINT </text>
<text text-anchor="start" x="172.7784" y="-386.9" font-family="Arial" font-size="14.00" fill="#666666">[numeric(8,2)]</text>
<polygon fill="none" stroke="#000000" points="46,-345.5 46,-375.5 440,-375.5 440,-345.5 46,-345.5"/>
<text text-anchor="start" x="53" y="-356.9" font-family="Arial" font-size="14.00" fill="#000000">SA </text>
<text text-anchor="start" x="75.5638" y="-356.9" font-family="Arial" font-size="14.00" fill="#666666">[numeric(8,2)]</text>
<polygon fill="none" stroke="#000000" points="46,-315.5 46,-345.5 440,-345.5 440,-315.5 46,-315.5"/>
<text text-anchor="start" x="53" y="-326.9" font-family="Arial" font-size="14.00" fill="#000000">BNS </text>
<text text-anchor="start" x="85.6704" y="-326.9" font-family="Arial" font-size="14.00" fill="#666666">[numeric(8,2)]</text>
<polygon fill="none" stroke="#000000" points="46,-285.5 46,-315.5 440,-315.5 440,-285.5 46,-285.5"/>
<text text-anchor="start" x="53" y="-296.9" font-family="Arial" font-size="14.00" fill="#000000">PEN </text>
<text text-anchor="start" x="85.6704" y="-296.9" font-family="Arial" font-size="14.00" fill="#666666">[numeric(8,2)]</text>
<polygon fill="none" stroke="#000000" points="46,-255.5 46,-285.5 440,-285.5 440,-255.5 46,-255.5"/>
<text text-anchor="start" x="53" y="-266.9" font-family="Arial" font-size="14.00" fill="#000000">FD </text>
<text text-anchor="start" x="75.5498" y="-266.9" font-family="Arial" font-size="14.00" fill="#666666">[numeric(8,2)]</text>
<polygon fill="none" stroke="#000000" points="46,-225.5 46,-255.5 440,-255.5 440,-225.5 46,-225.5"/>
<text text-anchor="start" x="53" y="-236.9" font-family="Arial" font-size="14.00" fill="#000000">CONV </text>
<text text-anchor="start" x="97.331" y="-236.9" font-family="Arial" font-size="14.00" fill="#666666">[numeric(8,2)]</text>
<polygon fill="none" stroke="#000000" points="46,-195.5 46,-225.5 440,-225.5 440,-195.5 46,-195.5"/>
<text text-anchor="start" x="53" y="-206.9" font-family="Arial" font-size="14.00" fill="#000000">ESI </text>
<text text-anchor="start" x="79.4544" y="-206.9" font-family="Arial" font-size="14.00" fill="#666666">[numeric(8,2)]</text>
<polygon fill="none" stroke="#000000" points="46,-165.5 46,-195.5 440,-195.5 440,-165.5 46,-165.5"/>
<text text-anchor="start" x="53" y="-176.9" font-family="Arial" font-size="14.00" fill="#000000">COMPESI </text>
<text text-anchor="start" x="121.4488" y="-176.9" font-family="Arial" font-size="14.00" fill="#666666">[numeric(8,2)]</text>
<polygon fill="none" stroke="#000000" points="46,-135.5 46,-165.5 440,-165.5 440,-135.5 46,-135.5"/>
<text text-anchor="start" x="53" y="-146.9" font-family="Arial" font-size="14.00" fill="#000000">EPF </text>
<text text-anchor="start" x="84.1164" y="-146.9" font-family="Arial" font-size="14.00" fill="#666666">[numeric(8,2)]</text>
<polygon fill="none" stroke="#000000" points="46,-105.5 46,-135.5 440,-135.5 440,-105.5 46,-105.5"/>
<text text-anchor="start" x="53" y="-116.9" font-family="Arial" font-size="14.00" fill="#000000">COMPEPF </text>
<text text-anchor="start" x="126.1108" y="-116.9" font-family="Arial" font-size="14.00" fill="#666666">[numeric(8,2)]</text>
<polygon fill="none" stroke="#000000" points="46,-75.5 46,-105.5 440,-105.5 440,-75.5 46,-75.5"/>
<text text-anchor="start" x="53" y="-86.9" font-family="Arial" font-size="14.00" fill="#000000">WALFARE_FUND </text>
<text text-anchor="start" x="171.2118" y="-86.9" font-family="Arial" font-size="14.00" fill="#666666">[numeric(8,2)]</text>
<polygon fill="none" stroke="#000000" points="46,-45.5 46,-75.5 440,-75.5 440,-45.5 46,-45.5"/>
<text text-anchor="start" x="53" y="-56.9" font-family="Arial" font-size="14.00" fill="#000000">BA </text>
<text text-anchor="start" x="75.5638" y="-56.9" font-family="Arial" font-size="14.00" fill="#666666">[numeric(8,2)]</text>
<polygon fill="none" stroke="#000000" stroke-width="3" points="44.5,-44.5 44.5,-1702.5 441.5,-1702.5 441.5,-44.5 44.5,-44.5"/>
</g>
</g>
</svg>
