<?xml version="1.0" encoding="UTF-8" standalone="no"?>
<!DOCTYPE svg PUBLIC "-//W3C//DTD SVG 1.1//EN"
 "http://www.w3.org/Graphics/SVG/1.1/DTD/svg11.dtd">
<!-- Generated by graphviz version 2.40.1 (20161225.0304)
 -->
<!-- Title: public.familymaster Pages: 1 -->
<svg width="395pt" height="345pt"
 viewBox="0.00 0.00 395.00 345.00" xmlns="http://www.w3.org/2000/svg" xmlns:xlink="http://www.w3.org/1999/xlink">
<g id="graph0" class="graph" transform="scale(1 1) rotate(0) translate(4 341)">
<title>public.familymaster</title>
<polygon fill="#ffffff" stroke="transparent" points="-4,4 -4,-341 391,-341 391,4 -4,4"/>
<!-- public.familymaster -->
<g id="node1" class="node">
<title>public.familymaster</title>
<polygon fill="#efefef" stroke="transparent" points="46.5,-255.5 46.5,-290.5 341.5,-290.5 341.5,-255.5 46.5,-255.5"/>
<polygon fill="none" stroke="#000000" points="46.5,-255.5 46.5,-290.5 341.5,-290.5 341.5,-255.5 46.5,-255.5"/>
<text text-anchor="start" x="53.2174" y="-268.3" font-family="Arial Bold" font-size="18.00" fill="#000000">public.familymaster</text>
<text text-anchor="start" x="207.2146" y="-268.3" font-family="Arial" font-size="14.00" fill="#000000">    </text>
<text text-anchor="start" x="241.4194" y="-268.3" font-family="Arial" font-size="14.00" fill="#666666">[BASE TABLE]</text>
<polygon fill="none" stroke="#000000" points="46.5,-225.5 46.5,-255.5 341.5,-255.5 341.5,-225.5 46.5,-225.5"/>
<text text-anchor="start" x="53.5" y="-236.9" font-family="Arial" font-size="14.00" fill="#000000">familyid </text>
<text text-anchor="start" x="104.8268" y="-236.9" font-family="Arial" font-size="14.00" fill="#666666">[integer]</text>
<polygon fill="none" stroke="#000000" points="46.5,-195.5 46.5,-225.5 341.5,-225.5 341.5,-195.5 46.5,-195.5"/>
<text text-anchor="start" x="53.5" y="-206.9" font-family="Arial" font-size="14.00" fill="#000000">empid </text>
<text text-anchor="start" x="95.5056" y="-206.9" font-family="Arial" font-size="14.00" fill="#666666">[integer]</text>
<polygon fill="none" stroke="#000000" points="46.5,-165.5 46.5,-195.5 341.5,-195.5 341.5,-165.5 46.5,-165.5"/>
<text text-anchor="start" x="53.5" y="-176.9" font-family="Arial" font-size="14.00" fill="#000000">name </text>
<text text-anchor="start" x="92.399" y="-176.9" font-family="Arial" font-size="14.00" fill="#666666">[varchar]</text>
<polygon fill="none" stroke="#000000" points="46.5,-135.5 46.5,-165.5 341.5,-165.5 341.5,-135.5 46.5,-135.5"/>
<text text-anchor="start" x="53.5" y="-146.9" font-family="Arial" font-size="14.00" fill="#000000">dateofbirth </text>
<text text-anchor="start" x="123.5252" y="-146.9" font-family="Arial" font-size="14.00" fill="#666666">[date]</text>
<polygon fill="none" stroke="#000000" points="46.5,-105.5 46.5,-135.5 341.5,-135.5 341.5,-105.5 46.5,-105.5"/>
<text text-anchor="start" x="53.5" y="-116.9" font-family="Arial" font-size="14.00" fill="#000000">relationship </text>
<text text-anchor="start" x="128.9572" y="-116.9" font-family="Arial" font-size="14.00" fill="#666666">[varchar]</text>
<polygon fill="none" stroke="#000000" points="46.5,-75.5 46.5,-105.5 341.5,-105.5 341.5,-75.5 46.5,-75.5"/>
<text text-anchor="start" x="53.5" y="-86.9" font-family="Arial" font-size="14.00" fill="#000000">gardianname </text>
<text text-anchor="start" x="139.0792" y="-86.9" font-family="Arial" font-size="14.00" fill="#666666">[varchar]</text>
<polygon fill="none" stroke="#000000" points="46.5,-45.5 46.5,-75.5 341.5,-75.5 341.5,-45.5 46.5,-45.5"/>
<text text-anchor="start" x="53.5" y="-56.9" font-family="Arial" font-size="14.00" fill="#000000">gardianrelationship </text>
<text text-anchor="start" x="175.6374" y="-56.9" font-family="Arial" font-size="14.00" fill="#666666">[varchar]</text>
<polygon fill="none" stroke="#000000" stroke-width="3" points="44.5,-44.5 44.5,-292.5 342.5,-292.5 342.5,-44.5 44.5,-44.5"/>
</g>
</g>
</svg>
