<?xml version="1.0" encoding="UTF-8" standalone="no"?>
<!DOCTYPE svg PUBLIC "-//W3C//DTD SVG 1.1//EN"
 "http://www.w3.org/Graphics/SVG/1.1/DTD/svg11.dtd">
<!-- Generated by graphviz version 2.40.1 (20161225.0304)
 -->
<!-- Title: public.stor_physicalvaluedetail Pages: 1 -->
<svg width="484pt" height="645pt"
 viewBox="0.00 0.00 484.00 645.00" xmlns="http://www.w3.org/2000/svg" xmlns:xlink="http://www.w3.org/1999/xlink">
<g id="graph0" class="graph" transform="scale(1 1) rotate(0) translate(4 641)">
<title>public.stor_physicalvaluedetail</title>
<polygon fill="#ffffff" stroke="transparent" points="-4,4 -4,-641 480,-641 480,4 -4,4"/>
<!-- public.stor_physicalvaluedetail -->
<g id="node1" class="node">
<title>public.stor_physicalvaluedetail</title>
<polygon fill="#efefef" stroke="transparent" points="46,-555.5 46,-590.5 430,-590.5 430,-555.5 46,-555.5"/>
<polygon fill="none" stroke="#000000" points="46,-555.5 46,-590.5 430,-590.5 430,-555.5 46,-555.5"/>
<text text-anchor="start" x="52.6935" y="-568.3" font-family="Arial Bold" font-size="18.00" fill="#000000">public.stor_physicalvaluedetail</text>
<text text-anchor="start" x="295.7385" y="-568.3" font-family="Arial" font-size="14.00" fill="#000000">    </text>
<text text-anchor="start" x="329.9433" y="-568.3" font-family="Arial" font-size="14.00" fill="#666666">[BASE TABLE]</text>
<polygon fill="none" stroke="#000000" points="46,-525.5 46,-555.5 430,-555.5 430,-525.5 46,-525.5"/>
<text text-anchor="start" x="53" y="-536.9" font-family="Arial" font-size="14.00" fill="#000000">physicalvaluedetailid </text>
<text text-anchor="start" x="185.2468" y="-536.9" font-family="Arial" font-size="14.00" fill="#666666">[bigint]</text>
<polygon fill="none" stroke="#000000" points="46,-495.5 46,-525.5 430,-525.5 430,-495.5 46,-495.5"/>
<text text-anchor="start" x="53" y="-506.9" font-family="Arial" font-size="14.00" fill="#000000">physicalvalueid </text>
<text text-anchor="start" x="151.7952" y="-506.9" font-family="Arial" font-size="14.00" fill="#666666">[bigint]</text>
<polygon fill="none" stroke="#000000" points="46,-465.5 46,-495.5 430,-495.5 430,-465.5 46,-465.5"/>
<text text-anchor="start" x="53" y="-476.9" font-family="Arial" font-size="14.00" fill="#000000">itemid </text>
<text text-anchor="start" x="94.2202" y="-476.9" font-family="Arial" font-size="14.00" fill="#666666">[integer]</text>
<polygon fill="none" stroke="#000000" points="46,-435.5 46,-465.5 430,-465.5 430,-435.5 46,-435.5"/>
<text text-anchor="start" x="53" y="-446.9" font-family="Arial" font-size="14.00" fill="#000000">storeid </text>
<text text-anchor="start" x="98.8962" y="-446.9" font-family="Arial" font-size="14.00" fill="#666666">[integer]</text>
<polygon fill="none" stroke="#000000" points="46,-405.5 46,-435.5 430,-435.5 430,-405.5 46,-405.5"/>
<text text-anchor="start" x="53" y="-416.9" font-family="Arial" font-size="14.00" fill="#000000">stageid </text>
<text text-anchor="start" x="102.0182" y="-416.9" font-family="Arial" font-size="14.00" fill="#666666">[integer]</text>
<polygon fill="none" stroke="#000000" points="46,-375.5 46,-405.5 430,-405.5 430,-375.5 46,-375.5"/>
<text text-anchor="start" x="53" y="-386.9" font-family="Arial" font-size="14.00" fill="#000000">producedbaseqty </text>
<text text-anchor="start" x="164.2678" y="-386.9" font-family="Arial" font-size="14.00" fill="#666666">[numeric(15,5)]</text>
<polygon fill="none" stroke="#000000" points="46,-345.5 46,-375.5 430,-375.5 430,-345.5 46,-345.5"/>
<text text-anchor="start" x="53" y="-356.9" font-family="Arial" font-size="14.00" fill="#000000">producedaltqty </text>
<text text-anchor="start" x="148.6998" y="-356.9" font-family="Arial" font-size="14.00" fill="#666666">[numeric(15,5)]</text>
<polygon fill="none" stroke="#000000" points="46,-315.5 46,-345.5 430,-345.5 430,-315.5 46,-315.5"/>
<text text-anchor="start" x="53" y="-326.9" font-family="Arial" font-size="14.00" fill="#000000">consumedbaseqty </text>
<text text-anchor="start" x="170.4852" y="-326.9" font-family="Arial" font-size="14.00" fill="#666666">[numeric(15,5)]</text>
<polygon fill="none" stroke="#000000" points="46,-285.5 46,-315.5 430,-315.5 430,-285.5 46,-285.5"/>
<text text-anchor="start" x="53" y="-296.9" font-family="Arial" font-size="14.00" fill="#000000">consumedaltqty </text>
<text text-anchor="start" x="154.9172" y="-296.9" font-family="Arial" font-size="14.00" fill="#666666">[numeric(15,5)]</text>
<polygon fill="none" stroke="#000000" points="46,-255.5 46,-285.5 430,-285.5 430,-255.5 46,-255.5"/>
<text text-anchor="start" x="53" y="-266.9" font-family="Arial" font-size="14.00" fill="#000000">remarks </text>
<text text-anchor="start" x="107.4376" y="-266.9" font-family="Arial" font-size="14.00" fill="#666666">[text]</text>
<polygon fill="none" stroke="#000000" points="46,-225.5 46,-255.5 430,-255.5 430,-225.5 46,-225.5"/>
<text text-anchor="start" x="53" y="-236.9" font-family="Arial" font-size="14.00" fill="#000000">costprice </text>
<text text-anchor="start" x="112.8962" y="-236.9" font-family="Arial" font-size="14.00" fill="#666666">[numeric(17,5)]</text>
<polygon fill="none" stroke="#000000" points="46,-195.5 46,-225.5 430,-225.5 430,-195.5 46,-195.5"/>
<text text-anchor="start" x="53" y="-206.9" font-family="Arial" font-size="14.00" fill="#000000">totalcostprice </text>
<text text-anchor="start" x="139.3492" y="-206.9" font-family="Arial" font-size="14.00" fill="#666666">[numeric(17,5)]</text>
<polygon fill="none" stroke="#000000" points="46,-165.5 46,-195.5 430,-195.5 430,-165.5 46,-165.5"/>
<text text-anchor="start" x="53" y="-176.9" font-family="Arial" font-size="14.00" fill="#000000">is_cost_updated </text>
<text text-anchor="start" x="158.8218" y="-176.9" font-family="Arial" font-size="14.00" fill="#666666">[boolean]</text>
<polygon fill="none" stroke="#000000" points="46,-135.5 46,-165.5 430,-165.5 430,-135.5 46,-135.5"/>
<text text-anchor="start" x="53" y="-146.9" font-family="Arial" font-size="14.00" fill="#000000">stockbaseqty </text>
<text text-anchor="start" x="138.5848" y="-146.9" font-family="Arial" font-size="14.00" fill="#666666">[numeric(18,5)]</text>
<polygon fill="none" stroke="#000000" points="46,-105.5 46,-135.5 430,-135.5 430,-105.5 46,-105.5"/>
<text text-anchor="start" x="53" y="-116.9" font-family="Arial" font-size="14.00" fill="#000000">stockaltqty </text>
<text text-anchor="start" x="123.0168" y="-116.9" font-family="Arial" font-size="14.00" fill="#666666">[numeric(18,5)]</text>
<polygon fill="none" stroke="#000000" points="46,-75.5 46,-105.5 430,-105.5 430,-75.5 46,-75.5"/>
<text text-anchor="start" x="53" y="-86.9" font-family="Arial" font-size="14.00" fill="#000000">isvalueupdatedinconsumption </text>
<text text-anchor="start" x="241.2804" y="-86.9" font-family="Arial" font-size="14.00" fill="#666666">[boolean]</text>
<polygon fill="none" stroke="#000000" points="46,-45.5 46,-75.5 430,-75.5 430,-45.5 46,-45.5"/>
<text text-anchor="start" x="53" y="-56.9" font-family="Arial" font-size="14.00" fill="#000000">isactive </text>
<text text-anchor="start" x="103.5596" y="-56.9" font-family="Arial" font-size="14.00" fill="#666666">[boolean]</text>
<polygon fill="none" stroke="#000000" stroke-width="3" points="44.5,-44.5 44.5,-592.5 431.5,-592.5 431.5,-44.5 44.5,-44.5"/>
</g>
</g>
</svg>
