<?xml version="1.0" encoding="UTF-8" standalone="no"?>
<!DOCTYPE svg PUBLIC "-//W3C//DTD SVG 1.1//EN"
 "http://www.w3.org/Graphics/SVG/1.1/DTD/svg11.dtd">
<!-- Generated by graphviz version 2.40.1 (20161225.0304)
 -->
<!-- Title: public.sale_siserial Pages: 1 -->
<svg width="392pt" height="315pt"
 viewBox="0.00 0.00 392.00 315.00" xmlns="http://www.w3.org/2000/svg" xmlns:xlink="http://www.w3.org/1999/xlink">
<g id="graph0" class="graph" transform="scale(1 1) rotate(0) translate(4 311)">
<title>public.sale_siserial</title>
<polygon fill="#ffffff" stroke="transparent" points="-4,4 -4,-311 388,-311 388,4 -4,4"/>
<!-- public.sale_siserial -->
<g id="node1" class="node">
<title>public.sale_siserial</title>
<polygon fill="#efefef" stroke="transparent" points="46,-225.5 46,-260.5 338,-260.5 338,-225.5 46,-225.5"/>
<polygon fill="none" stroke="#000000" points="46,-225.5 46,-260.5 338,-260.5 338,-225.5 46,-225.5"/>
<text text-anchor="start" x="52.7114" y="-238.3" font-family="Arial Bold" font-size="18.00" fill="#000000">public.sale_siserial</text>
<text text-anchor="start" x="203.7206" y="-238.3" font-family="Arial" font-size="14.00" fill="#000000">    </text>
<text text-anchor="start" x="237.9254" y="-238.3" font-family="Arial" font-size="14.00" fill="#666666">[BASE TABLE]</text>
<polygon fill="none" stroke="#000000" points="46,-195.5 46,-225.5 338,-225.5 338,-195.5 46,-195.5"/>
<text text-anchor="start" x="53" y="-206.9" font-family="Arial" font-size="14.00" fill="#000000">invserialid </text>
<text text-anchor="start" x="119.108" y="-206.9" font-family="Arial" font-size="14.00" fill="#666666">[integer]</text>
<polygon fill="none" stroke="#000000" points="46,-165.5 46,-195.5 338,-195.5 338,-165.5 46,-165.5"/>
<text text-anchor="start" x="53" y="-176.9" font-family="Arial" font-size="14.00" fill="#000000">invoiceid </text>
<text text-anchor="start" x="111.3408" y="-176.9" font-family="Arial" font-size="14.00" fill="#666666">[integer]</text>
<polygon fill="none" stroke="#000000" points="46,-135.5 46,-165.5 338,-165.5 338,-135.5 46,-135.5"/>
<text text-anchor="start" x="53" y="-146.9" font-family="Arial" font-size="14.00" fill="#000000">invoicedetailid </text>
<text text-anchor="start" x="144.7924" y="-146.9" font-family="Arial" font-size="14.00" fill="#666666">[integer]</text>
<polygon fill="none" stroke="#000000" points="46,-105.5 46,-135.5 338,-135.5 338,-105.5 46,-105.5"/>
<text text-anchor="start" x="53" y="-116.9" font-family="Arial" font-size="14.00" fill="#000000">deliverynotedetailid </text>
<text text-anchor="start" x="176.6914" y="-116.9" font-family="Arial" font-size="14.00" fill="#666666">[integer]</text>
<polygon fill="none" stroke="#000000" points="46,-75.5 46,-105.5 338,-105.5 338,-75.5 46,-75.5"/>
<text text-anchor="start" x="53" y="-86.9" font-family="Arial" font-size="14.00" fill="#000000">batchid </text>
<text text-anchor="start" x="102.0182" y="-86.9" font-family="Arial" font-size="14.00" fill="#666666">[integer]</text>
<polygon fill="none" stroke="#000000" points="46,-45.5 46,-75.5 338,-75.5 338,-45.5 46,-45.5"/>
<text text-anchor="start" x="53" y="-56.9" font-family="Arial" font-size="14.00" fill="#000000">serialid </text>
<text text-anchor="start" x="101.2188" y="-56.9" font-family="Arial" font-size="14.00" fill="#666666">[integer]</text>
<polygon fill="none" stroke="#000000" stroke-width="3" points="44.5,-44.5 44.5,-262.5 339.5,-262.5 339.5,-44.5 44.5,-44.5"/>
</g>
</g>
</svg>
