<?xml version="1.0" encoding="UTF-8" standalone="no"?>
<!DOCTYPE svg PUBLIC "-//W3C//DTD SVG 1.1//EN"
 "http://www.w3.org/Graphics/SVG/1.1/DTD/svg11.dtd">
<!-- Generated by graphviz version 2.40.1 (20161225.0304)
 -->
<!-- Title: public.temp_pendingordervalue Pages: 1 -->
<svg width="492pt" height="165pt"
 viewBox="0.00 0.00 492.00 165.00" xmlns="http://www.w3.org/2000/svg" xmlns:xlink="http://www.w3.org/1999/xlink">
<g id="graph0" class="graph" transform="scale(1 1) rotate(0) translate(4 161)">
<title>public.temp_pendingordervalue</title>
<polygon fill="#ffffff" stroke="transparent" points="-4,4 -4,-161 488,-161 488,4 -4,4"/>
<!-- public.temp_pendingordervalue -->
<g id="node1" class="node">
<title>public.temp_pendingordervalue</title>
<polygon fill="#efefef" stroke="transparent" points="46,-75.5 46,-110.5 438,-110.5 438,-75.5 46,-75.5"/>
<polygon fill="none" stroke="#000000" points="46,-75.5 46,-110.5 438,-110.5 438,-75.5 46,-75.5"/>
<text text-anchor="start" x="52.6813" y="-88.3" font-family="Arial Bold" font-size="18.00" fill="#000000">public.temp_pendingordervalue</text>
<text text-anchor="start" x="303.7507" y="-88.3" font-family="Arial" font-size="14.00" fill="#000000">    </text>
<text text-anchor="start" x="337.9555" y="-88.3" font-family="Arial" font-size="14.00" fill="#666666">[BASE TABLE]</text>
<polygon fill="none" stroke="#000000" points="46,-45.5 46,-75.5 438,-75.5 438,-45.5 46,-45.5"/>
<text text-anchor="start" x="53" y="-56.9" font-family="Arial" font-size="14.00" fill="#000000">totalvalue </text>
<text text-anchor="start" x="116.798" y="-56.9" font-family="Arial" font-size="14.00" fill="#666666">[numeric]</text>
<polygon fill="none" stroke="#000000" stroke-width="3" points="44.5,-44.5 44.5,-112.5 439.5,-112.5 439.5,-44.5 44.5,-44.5"/>
</g>
</g>
</svg>
