<?xml version="1.0" encoding="UTF-8" standalone="no"?>
<!DOCTYPE svg PUBLIC "-//W3C//DTD SVG 1.1//EN"
 "http://www.w3.org/Graphics/SVG/1.1/DTD/svg11.dtd">
<!-- Generated by graphviz version 2.40.1 (20161225.0304)
 -->
<!-- Title: public.fa_amcmaster Pages: 1 -->
<svg width="407pt" height="855pt"
 viewBox="0.00 0.00 407.00 855.00" xmlns="http://www.w3.org/2000/svg" xmlns:xlink="http://www.w3.org/1999/xlink">
<g id="graph0" class="graph" transform="scale(1 1) rotate(0) translate(4 851)">
<title>public.fa_amcmaster</title>
<polygon fill="#ffffff" stroke="transparent" points="-4,4 -4,-851 403,-851 403,4 -4,4"/>
<!-- public.fa_amcmaster -->
<g id="node1" class="node">
<title>public.fa_amcmaster</title>
<polygon fill="#efefef" stroke="transparent" points="46.5,-765.5 46.5,-800.5 353.5,-800.5 353.5,-765.5 46.5,-765.5"/>
<polygon fill="none" stroke="#000000" points="46.5,-765.5 46.5,-800.5 353.5,-800.5 353.5,-765.5 46.5,-765.5"/>
<text text-anchor="start" x="53.2054" y="-778.3" font-family="Arial Bold" font-size="18.00" fill="#000000">public.fa_amcmaster</text>
<text text-anchor="start" x="219.2266" y="-778.3" font-family="Arial" font-size="14.00" fill="#000000">    </text>
<text text-anchor="start" x="253.4314" y="-778.3" font-family="Arial" font-size="14.00" fill="#666666">[BASE TABLE]</text>
<polygon fill="none" stroke="#000000" points="46.5,-735.5 46.5,-765.5 353.5,-765.5 353.5,-735.5 46.5,-735.5"/>
<text text-anchor="start" x="53.5" y="-746.9" font-family="Arial" font-size="14.00" fill="#000000">amcid </text>
<text text-anchor="start" x="94.723" y="-746.9" font-family="Arial" font-size="14.00" fill="#666666">[integer]</text>
<polygon fill="none" stroke="#000000" points="46.5,-705.5 46.5,-735.5 353.5,-735.5 353.5,-705.5 46.5,-705.5"/>
<text text-anchor="start" x="53.5" y="-716.9" font-family="Arial" font-size="14.00" fill="#000000">amcno </text>
<text text-anchor="start" x="99.399" y="-716.9" font-family="Arial" font-size="14.00" fill="#666666">[varchar(50)]</text>
<polygon fill="none" stroke="#000000" points="46.5,-675.5 46.5,-705.5 353.5,-705.5 353.5,-675.5 46.5,-675.5"/>
<text text-anchor="start" x="53.5" y="-686.9" font-family="Arial" font-size="14.00" fill="#000000">vendorid </text>
<text text-anchor="start" x="111.0708" y="-686.9" font-family="Arial" font-size="14.00" fill="#666666">[integer]</text>
<polygon fill="none" stroke="#000000" points="46.5,-645.5 46.5,-675.5 353.5,-675.5 353.5,-645.5 46.5,-645.5"/>
<text text-anchor="start" x="53.5" y="-656.9" font-family="Arial" font-size="14.00" fill="#000000">warrantydate </text>
<text text-anchor="start" x="138.2952" y="-656.9" font-family="Arial" font-size="14.00" fill="#666666">[date]</text>
<polygon fill="none" stroke="#000000" points="46.5,-615.5 46.5,-645.5 353.5,-645.5 353.5,-615.5 46.5,-615.5"/>
<text text-anchor="start" x="53.5" y="-626.9" font-family="Arial" font-size="14.00" fill="#000000">amccost </text>
<text text-anchor="start" x="109.507" y="-626.9" font-family="Arial" font-size="14.00" fill="#666666">[numeric(14,4)]</text>
<polygon fill="none" stroke="#000000" points="46.5,-585.5 46.5,-615.5 353.5,-615.5 353.5,-585.5 46.5,-585.5"/>
<text text-anchor="start" x="53.5" y="-596.9" font-family="Arial" font-size="14.00" fill="#000000">dateofpurchase </text>
<text text-anchor="start" x="153.8758" y="-596.9" font-family="Arial" font-size="14.00" fill="#666666">[date]</text>
<polygon fill="none" stroke="#000000" points="46.5,-555.5 46.5,-585.5 353.5,-585.5 353.5,-555.5 46.5,-555.5"/>
<text text-anchor="start" x="53.5" y="-566.9" font-family="Arial" font-size="14.00" fill="#000000">startdate </text>
<text text-anchor="start" x="111.8534" y="-566.9" font-family="Arial" font-size="14.00" fill="#666666">[date]</text>
<polygon fill="none" stroke="#000000" points="46.5,-525.5 46.5,-555.5 353.5,-555.5 353.5,-525.5 46.5,-525.5"/>
<text text-anchor="start" x="53.5" y="-536.9" font-family="Arial" font-size="14.00" fill="#000000">enddate </text>
<text text-anchor="start" x="107.9768" y="-536.9" font-family="Arial" font-size="14.00" fill="#666666">[date]</text>
<polygon fill="none" stroke="#000000" points="46.5,-495.5 46.5,-525.5 353.5,-525.5 353.5,-495.5 46.5,-495.5"/>
<text text-anchor="start" x="53.5" y="-506.9" font-family="Arial" font-size="14.00" fill="#000000">servicefrequency </text>
<text text-anchor="start" x="163.1872" y="-506.9" font-family="Arial" font-size="14.00" fill="#666666">[integer]</text>
<polygon fill="none" stroke="#000000" points="46.5,-465.5 46.5,-495.5 353.5,-495.5 353.5,-465.5 46.5,-465.5"/>
<text text-anchor="start" x="53.5" y="-476.9" font-family="Arial" font-size="14.00" fill="#000000">frequencyunit </text>
<text text-anchor="start" x="141.4172" y="-476.9" font-family="Arial" font-size="14.00" fill="#666666">[smallint]</text>
<polygon fill="none" stroke="#000000" points="46.5,-435.5 46.5,-465.5 353.5,-465.5 353.5,-435.5 46.5,-435.5"/>
<text text-anchor="start" x="53.5" y="-446.9" font-family="Arial" font-size="14.00" fill="#000000">branchid </text>
<text text-anchor="start" x="111.0708" y="-446.9" font-family="Arial" font-size="14.00" fill="#666666">[integer]</text>
<polygon fill="none" stroke="#000000" points="46.5,-405.5 46.5,-435.5 353.5,-435.5 353.5,-405.5 46.5,-405.5"/>
<text text-anchor="start" x="53.5" y="-416.9" font-family="Arial" font-size="14.00" fill="#000000">createdby </text>
<text text-anchor="start" x="118.8548" y="-416.9" font-family="Arial" font-size="14.00" fill="#666666">[integer]</text>
<polygon fill="none" stroke="#000000" points="46.5,-375.5 46.5,-405.5 353.5,-405.5 353.5,-375.5 46.5,-375.5"/>
<text text-anchor="start" x="53.5" y="-386.9" font-family="Arial" font-size="14.00" fill="#000000">createdon </text>
<text text-anchor="start" x="119.6374" y="-386.9" font-family="Arial" font-size="14.00" fill="#666666">[timestamp without time zone]</text>
<polygon fill="none" stroke="#000000" points="46.5,-345.5 46.5,-375.5 353.5,-375.5 353.5,-345.5 46.5,-345.5"/>
<text text-anchor="start" x="53.5" y="-356.9" font-family="Arial" font-size="14.00" fill="#000000">isauthorized </text>
<text text-anchor="start" x="132.8506" y="-356.9" font-family="Arial" font-size="14.00" fill="#666666">[boolean]</text>
<polygon fill="none" stroke="#000000" points="46.5,-315.5 46.5,-345.5 353.5,-345.5 353.5,-315.5 46.5,-315.5"/>
<text text-anchor="start" x="53.5" y="-326.9" font-family="Arial" font-size="14.00" fill="#000000">authorizedby </text>
<text text-anchor="start" x="137.5266" y="-326.9" font-family="Arial" font-size="14.00" fill="#666666">[integer]</text>
<polygon fill="none" stroke="#000000" points="46.5,-285.5 46.5,-315.5 353.5,-315.5 353.5,-285.5 46.5,-285.5"/>
<text text-anchor="start" x="53.5" y="-296.9" font-family="Arial" font-size="14.00" fill="#000000">authorizedon </text>
<text text-anchor="start" x="138.3092" y="-296.9" font-family="Arial" font-size="14.00" fill="#666666">[timestamp without time zone]</text>
<polygon fill="none" stroke="#000000" points="46.5,-255.5 46.5,-285.5 353.5,-285.5 353.5,-255.5 46.5,-255.5"/>
<text text-anchor="start" x="53.5" y="-266.9" font-family="Arial" font-size="14.00" fill="#000000">iscancelled </text>
<text text-anchor="start" x="126.6234" y="-266.9" font-family="Arial" font-size="14.00" fill="#666666">[boolean]</text>
<polygon fill="none" stroke="#000000" points="46.5,-225.5 46.5,-255.5 353.5,-255.5 353.5,-225.5 46.5,-225.5"/>
<text text-anchor="start" x="53.5" y="-236.9" font-family="Arial" font-size="14.00" fill="#000000">seriesno </text>
<text text-anchor="start" x="110.2882" y="-236.9" font-family="Arial" font-size="14.00" fill="#666666">[integer]</text>
<polygon fill="none" stroke="#000000" points="46.5,-195.5 46.5,-225.5 353.5,-225.5 353.5,-195.5 46.5,-195.5"/>
<text text-anchor="start" x="53.5" y="-206.9" font-family="Arial" font-size="14.00" fill="#000000">seriescode </text>
<text text-anchor="start" x="125.0708" y="-206.9" font-family="Arial" font-size="14.00" fill="#666666">[varchar(50)]</text>
<polygon fill="none" stroke="#000000" points="46.5,-165.5 46.5,-195.5 353.5,-195.5 353.5,-165.5 46.5,-165.5"/>
<text text-anchor="start" x="53.5" y="-176.9" font-family="Arial" font-size="14.00" fill="#000000">seriesid </text>
<text text-anchor="start" x="105.6122" y="-176.9" font-family="Arial" font-size="14.00" fill="#666666">[integer]</text>
<polygon fill="none" stroke="#000000" points="46.5,-135.5 46.5,-165.5 353.5,-165.5 353.5,-135.5 46.5,-135.5"/>
<text text-anchor="start" x="53.5" y="-146.9" font-family="Arial" font-size="14.00" fill="#000000">editlog </text>
<text text-anchor="start" x="98.6248" y="-146.9" font-family="Arial" font-size="14.00" fill="#666666">[text]</text>
<polygon fill="none" stroke="#000000" points="46.5,-105.5 46.5,-135.5 353.5,-135.5 353.5,-105.5 46.5,-105.5"/>
<text text-anchor="start" x="53.5" y="-116.9" font-family="Arial" font-size="14.00" fill="#000000">glid </text>
<text text-anchor="start" x="79.169" y="-116.9" font-family="Arial" font-size="14.00" fill="#666666">[integer]</text>
<polygon fill="none" stroke="#000000" points="46.5,-75.5 46.5,-105.5 353.5,-105.5 353.5,-75.5 46.5,-75.5"/>
<text text-anchor="start" x="53.5" y="-86.9" font-family="Arial" font-size="14.00" fill="#000000">updatedby </text>
<text text-anchor="start" x="122.7594" y="-86.9" font-family="Arial" font-size="14.00" fill="#666666">[integer]</text>
<polygon fill="none" stroke="#000000" points="46.5,-45.5 46.5,-75.5 353.5,-75.5 353.5,-45.5 46.5,-45.5"/>
<text text-anchor="start" x="53.5" y="-56.9" font-family="Arial" font-size="14.00" fill="#000000">updatedon </text>
<text text-anchor="start" x="123.542" y="-56.9" font-family="Arial" font-size="14.00" fill="#666666">[timestamp(6) without time zone]</text>
<polygon fill="none" stroke="#000000" stroke-width="3" points="44.5,-44.5 44.5,-802.5 354.5,-802.5 354.5,-44.5 44.5,-44.5"/>
</g>
</g>
</svg>
