<?xml version="1.0" encoding="UTF-8" standalone="no"?>
<!DOCTYPE svg PUBLIC "-//W3C//DTD SVG 1.1//EN"
 "http://www.w3.org/Graphics/SVG/1.1/DTD/svg11.dtd">
<!-- Generated by graphviz version 2.40.1 (20161225.0304)
 -->
<!-- Title: public.prod_ijwtermcondition_amendlog Pages: 1 -->
<svg width="557pt" height="315pt"
 viewBox="0.00 0.00 557.00 315.00" xmlns="http://www.w3.org/2000/svg" xmlns:xlink="http://www.w3.org/1999/xlink">
<g id="graph0" class="graph" transform="scale(1 1) rotate(0) translate(4 311)">
<title>public.prod_ijwtermcondition_amendlog</title>
<polygon fill="#ffffff" stroke="transparent" points="-4,4 -4,-311 553,-311 553,4 -4,4"/>
<!-- public.prod_ijwtermcondition_amendlog -->
<g id="node1" class="node">
<title>public.prod_ijwtermcondition_amendlog</title>
<polygon fill="#efefef" stroke="transparent" points="46.5,-225.5 46.5,-260.5 503.5,-260.5 503.5,-225.5 46.5,-225.5"/>
<polygon fill="none" stroke="#000000" points="46.5,-225.5 46.5,-260.5 503.5,-260.5 503.5,-225.5 46.5,-225.5"/>
<text text-anchor="start" x="53.1895" y="-238.3" font-family="Arial Bold" font-size="18.00" fill="#000000">public.prod_ijwtermcondition_amendlog</text>
<text text-anchor="start" x="369.2425" y="-238.3" font-family="Arial" font-size="14.00" fill="#000000">    </text>
<text text-anchor="start" x="403.4473" y="-238.3" font-family="Arial" font-size="14.00" fill="#666666">[BASE TABLE]</text>
<polygon fill="none" stroke="#000000" points="46.5,-195.5 46.5,-225.5 503.5,-225.5 503.5,-195.5 46.5,-195.5"/>
<text text-anchor="start" x="53.5" y="-206.9" font-family="Arial" font-size="14.00" fill="#000000">termconditionamendid </text>
<text text-anchor="start" x="195.082" y="-206.9" font-family="Arial" font-size="14.00" fill="#666666">[integer]</text>
<polygon fill="none" stroke="#000000" points="46.5,-165.5 46.5,-195.5 503.5,-195.5 503.5,-165.5 46.5,-165.5"/>
<text text-anchor="start" x="53.5" y="-176.9" font-family="Arial" font-size="14.00" fill="#000000">termconditionid </text>
<text text-anchor="start" x="152.291" y="-176.9" font-family="Arial" font-size="14.00" fill="#666666">[integer]</text>
<polygon fill="none" stroke="#000000" points="46.5,-135.5 46.5,-165.5 503.5,-165.5 503.5,-135.5 46.5,-135.5"/>
<text text-anchor="start" x="53.5" y="-146.9" font-family="Arial" font-size="14.00" fill="#000000">jobworkamendid </text>
<text text-anchor="start" x="159.2924" y="-146.9" font-family="Arial" font-size="14.00" fill="#666666">[integer]</text>
<polygon fill="none" stroke="#000000" points="46.5,-105.5 46.5,-135.5 503.5,-135.5 503.5,-105.5 46.5,-105.5"/>
<text text-anchor="start" x="53.5" y="-116.9" font-family="Arial" font-size="14.00" fill="#000000">jobworkid </text>
<text text-anchor="start" x="116.5014" y="-116.9" font-family="Arial" font-size="14.00" fill="#666666">[integer]</text>
<polygon fill="none" stroke="#000000" points="46.5,-75.5 46.5,-105.5 503.5,-105.5 503.5,-75.5 46.5,-75.5"/>
<text text-anchor="start" x="53.5" y="-86.9" font-family="Arial" font-size="14.00" fill="#000000">termconditionname </text>
<text text-anchor="start" x="176.4102" y="-86.9" font-family="Arial" font-size="14.00" fill="#666666">[varchar(300)]</text>
<polygon fill="none" stroke="#000000" points="46.5,-45.5 46.5,-75.5 503.5,-75.5 503.5,-45.5 46.5,-45.5"/>
<text text-anchor="start" x="53.5" y="-56.9" font-family="Arial" font-size="14.00" fill="#000000">description </text>
<text text-anchor="start" x="125.068" y="-56.9" font-family="Arial" font-size="14.00" fill="#666666">[varchar(400)]</text>
<polygon fill="none" stroke="#000000" stroke-width="3" points="44.5,-44.5 44.5,-262.5 504.5,-262.5 504.5,-44.5 44.5,-44.5"/>
</g>
</g>
</svg>
