<?xml version="1.0" encoding="UTF-8" standalone="no"?>
<!DOCTYPE svg PUBLIC "-//W3C//DTD SVG 1.1//EN"
 "http://www.w3.org/Graphics/SVG/1.1/DTD/svg11.dtd">
<!-- Generated by graphviz version 2.40.1 (20161225.0304)
 -->
<!-- Title: public.fa_physicalassetverificationmappingdetail Pages: 1 -->
<svg width="624pt" height="315pt"
 viewBox="0.00 0.00 624.00 315.00" xmlns="http://www.w3.org/2000/svg" xmlns:xlink="http://www.w3.org/1999/xlink">
<g id="graph0" class="graph" transform="scale(1 1) rotate(0) translate(4 311)">
<title>public.fa_physicalassetverificationmappingdetail</title>
<polygon fill="#ffffff" stroke="transparent" points="-4,4 -4,-311 620,-311 620,4 -4,4"/>
<!-- public.fa_physicalassetverificationmappingdetail -->
<g id="node1" class="node">
<title>public.fa_physicalassetverificationmappingdetail</title>
<polygon fill="#efefef" stroke="transparent" points="46,-225.5 46,-260.5 570,-260.5 570,-225.5 46,-225.5"/>
<polygon fill="none" stroke="#000000" points="46,-225.5 46,-260.5 570,-260.5 570,-225.5 46,-225.5"/>
<text text-anchor="start" x="52.678" y="-238.3" font-family="Arial Bold" font-size="18.00" fill="#000000">public.fa_physicalassetverificationmappingdetail</text>
<text text-anchor="start" x="435.754" y="-238.3" font-family="Arial" font-size="14.00" fill="#000000">    </text>
<text text-anchor="start" x="469.9588" y="-238.3" font-family="Arial" font-size="14.00" fill="#666666">[BASE TABLE]</text>
<polygon fill="none" stroke="#000000" points="46,-195.5 46,-225.5 570,-225.5 570,-195.5 46,-195.5"/>
<text text-anchor="start" x="53" y="-206.9" font-family="Arial" font-size="14.00" fill="#000000">physicalassetverificationmappingdetailid </text>
<text text-anchor="start" x="305.8204" y="-206.9" font-family="Arial" font-size="14.00" fill="#666666">[integer]</text>
<polygon fill="none" stroke="#000000" points="46,-165.5 46,-195.5 570,-195.5 570,-165.5 46,-165.5"/>
<text text-anchor="start" x="53" y="-176.9" font-family="Arial" font-size="14.00" fill="#000000">physicalassetverificationmappingmasterid </text>
<text text-anchor="start" x="315.1458" y="-176.9" font-family="Arial" font-size="14.00" fill="#666666">[integer]</text>
<polygon fill="none" stroke="#000000" points="46,-135.5 46,-165.5 570,-165.5 570,-135.5 46,-135.5"/>
<text text-anchor="start" x="53" y="-146.9" font-family="Arial" font-size="14.00" fill="#000000">erpassetserialno </text>
<text text-anchor="start" x="159.5764" y="-146.9" font-family="Arial" font-size="14.00" fill="#666666">[varchar(50)]</text>
<polygon fill="none" stroke="#000000" points="46,-105.5 46,-135.5 570,-135.5 570,-105.5 46,-105.5"/>
<text text-anchor="start" x="53" y="-116.9" font-family="Arial" font-size="14.00" fill="#000000">erpassetid </text>
<text text-anchor="start" x="121.4614" y="-116.9" font-family="Arial" font-size="14.00" fill="#666666">[integer]</text>
<polygon fill="none" stroke="#000000" points="46,-75.5 46,-105.5 570,-105.5 570,-75.5 46,-75.5"/>
<text text-anchor="start" x="53" y="-86.9" font-family="Arial" font-size="14.00" fill="#000000">physicalassetserialno </text>
<text text-anchor="start" x="189.9116" y="-86.9" font-family="Arial" font-size="14.00" fill="#666666">[varchar(50)]</text>
<polygon fill="none" stroke="#000000" points="46,-45.5 46,-75.5 570,-75.5 570,-45.5 46,-45.5"/>
<text text-anchor="start" x="53" y="-56.9" font-family="Arial" font-size="14.00" fill="#000000">manual_asset_tag </text>
<text text-anchor="start" x="171.265" y="-56.9" font-family="Arial" font-size="14.00" fill="#666666">[varchar(100)]</text>
<polygon fill="none" stroke="#000000" stroke-width="3" points="44.5,-44.5 44.5,-262.5 571.5,-262.5 571.5,-44.5 44.5,-44.5"/>
</g>
</g>
</svg>
