<?xml version="1.0" encoding="UTF-8" standalone="no"?>
<!DOCTYPE svg PUBLIC "-//W3C//DTD SVG 1.1//EN"
 "http://www.w3.org/Graphics/SVG/1.1/DTD/svg11.dtd">
<!-- Generated by graphviz version 2.40.1 (20161225.0304)
 -->
<!-- Title: public.pay_workingday Pages: 1 -->
<svg width="423pt" height="315pt"
 viewBox="0.00 0.00 423.00 315.00" xmlns="http://www.w3.org/2000/svg" xmlns:xlink="http://www.w3.org/1999/xlink">
<g id="graph0" class="graph" transform="scale(1 1) rotate(0) translate(4 311)">
<title>public.pay_workingday</title>
<polygon fill="#ffffff" stroke="transparent" points="-4,4 -4,-311 419,-311 419,4 -4,4"/>
<!-- public.pay_workingday -->
<g id="node1" class="node">
<title>public.pay_workingday</title>
<polygon fill="#efefef" stroke="transparent" points="46.5,-225.5 46.5,-260.5 369.5,-260.5 369.5,-225.5 46.5,-225.5"/>
<polygon fill="none" stroke="#000000" points="46.5,-225.5 46.5,-260.5 369.5,-260.5 369.5,-225.5 46.5,-225.5"/>
<text text-anchor="start" x="53.1963" y="-238.3" font-family="Arial Bold" font-size="18.00" fill="#000000">public.pay_workingday</text>
<text text-anchor="start" x="235.2357" y="-238.3" font-family="Arial" font-size="14.00" fill="#000000">    </text>
<text text-anchor="start" x="269.4405" y="-238.3" font-family="Arial" font-size="14.00" fill="#666666">[BASE TABLE]</text>
<polygon fill="none" stroke="#000000" points="46.5,-195.5 46.5,-225.5 369.5,-225.5 369.5,-195.5 46.5,-195.5"/>
<text text-anchor="start" x="53.5" y="-206.9" font-family="Arial" font-size="14.00" fill="#000000">dayid </text>
<text text-anchor="start" x="90.845" y="-206.9" font-family="Arial" font-size="14.00" fill="#666666">[integer]</text>
<polygon fill="none" stroke="#000000" points="46.5,-165.5 46.5,-195.5 369.5,-195.5 369.5,-165.5 46.5,-165.5"/>
<text text-anchor="start" x="53.5" y="-176.9" font-family="Arial" font-size="14.00" fill="#000000">day_description </text>
<text text-anchor="start" x="155.4158" y="-176.9" font-family="Arial" font-size="14.00" fill="#666666">[varchar]</text>
<polygon fill="none" stroke="#000000" points="46.5,-135.5 46.5,-165.5 369.5,-165.5 369.5,-135.5 46.5,-135.5"/>
<text text-anchor="start" x="53.5" y="-146.9" font-family="Arial" font-size="14.00" fill="#000000">isworkday </text>
<text text-anchor="start" x="119.6122" y="-146.9" font-family="Arial" font-size="14.00" fill="#666666">[boolean]</text>
<polygon fill="none" stroke="#000000" points="46.5,-105.5 46.5,-135.5 369.5,-135.5 369.5,-105.5 46.5,-105.5"/>
<text text-anchor="start" x="53.5" y="-116.9" font-family="Arial" font-size="14.00" fill="#000000">isholiday </text>
<text text-anchor="start" x="111.8408" y="-116.9" font-family="Arial" font-size="14.00" fill="#666666">[boolean]</text>
<polygon fill="none" stroke="#000000" points="46.5,-75.5 46.5,-105.5 369.5,-105.5 369.5,-75.5 46.5,-75.5"/>
<text text-anchor="start" x="53.5" y="-86.9" font-family="Arial" font-size="14.00" fill="#000000">ishalfday </text>
<text text-anchor="start" x="112.6248" y="-86.9" font-family="Arial" font-size="14.00" fill="#666666">[boolean]</text>
<polygon fill="none" stroke="#000000" points="46.5,-45.5 46.5,-75.5 369.5,-75.5 369.5,-45.5 46.5,-45.5"/>
<text text-anchor="start" x="53.5" y="-56.9" font-family="Arial" font-size="14.00" fill="#000000">isalternateday </text>
<text text-anchor="start" x="144.5238" y="-56.9" font-family="Arial" font-size="14.00" fill="#666666">[boolean]</text>
<polygon fill="none" stroke="#000000" stroke-width="3" points="44.5,-44.5 44.5,-262.5 370.5,-262.5 370.5,-44.5 44.5,-44.5"/>
</g>
</g>
</svg>
