<?xml version="1.0" encoding="UTF-8" standalone="no"?>
<!DOCTYPE svg PUBLIC "-//W3C//DTD SVG 1.1//EN"
 "http://www.w3.org/Graphics/SVG/1.1/DTD/svg11.dtd">
<!-- Generated by graphviz version 2.40.1 (20161225.0304)
 -->
<!-- Title: public.budget_calculation Pages: 1 -->
<svg width="443pt" height="315pt"
 viewBox="0.00 0.00 443.00 315.00" xmlns="http://www.w3.org/2000/svg" xmlns:xlink="http://www.w3.org/1999/xlink">
<g id="graph0" class="graph" transform="scale(1 1) rotate(0) translate(4 311)">
<title>public.budget_calculation</title>
<polygon fill="#ffffff" stroke="transparent" points="-4,4 -4,-311 439,-311 439,4 -4,4"/>
<!-- public.budget_calculation -->
<g id="node1" class="node">
<title>public.budget_calculation</title>
<polygon fill="#efefef" stroke="transparent" points="46.5,-225.5 46.5,-260.5 389.5,-260.5 389.5,-225.5 46.5,-225.5"/>
<polygon fill="none" stroke="#000000" points="46.5,-225.5 46.5,-260.5 389.5,-260.5 389.5,-225.5 46.5,-225.5"/>
<text text-anchor="start" x="53.1838" y="-238.3" font-family="Arial Bold" font-size="18.00" fill="#000000">public.budget_calculation</text>
<text text-anchor="start" x="255.2482" y="-238.3" font-family="Arial" font-size="14.00" fill="#000000">    </text>
<text text-anchor="start" x="289.453" y="-238.3" font-family="Arial" font-size="14.00" fill="#666666">[BASE TABLE]</text>
<polygon fill="none" stroke="#000000" points="46.5,-195.5 46.5,-225.5 389.5,-225.5 389.5,-195.5 46.5,-195.5"/>
<text text-anchor="start" x="53.5" y="-206.9" font-family="Arial" font-size="14.00" fill="#000000">branch_id </text>
<text text-anchor="start" x="118.8534" y="-206.9" font-family="Arial" font-size="14.00" fill="#666666">[smallint]</text>
<polygon fill="none" stroke="#000000" points="46.5,-165.5 46.5,-195.5 389.5,-195.5 389.5,-165.5 46.5,-165.5"/>
<text text-anchor="start" x="53.5" y="-176.9" font-family="Arial" font-size="14.00" fill="#000000">scheme_id </text>
<text text-anchor="start" x="125.0708" y="-176.9" font-family="Arial" font-size="14.00" fill="#666666">[integer]</text>
<polygon fill="none" stroke="#000000" points="46.5,-135.5 46.5,-165.5 389.5,-165.5 389.5,-135.5 46.5,-135.5"/>
<text text-anchor="start" x="53.5" y="-146.9" font-family="Arial" font-size="14.00" fill="#000000">itemgroup </text>
<text text-anchor="start" x="119.622" y="-146.9" font-family="Arial" font-size="14.00" fill="#666666">[varchar(100)]</text>
<polygon fill="none" stroke="#000000" points="46.5,-105.5 46.5,-135.5 389.5,-135.5 389.5,-105.5 46.5,-105.5"/>
<text text-anchor="start" x="53.5" y="-116.9" font-family="Arial" font-size="14.00" fill="#000000">budget_period </text>
<text text-anchor="start" x="146.8744" y="-116.9" font-family="Arial" font-size="14.00" fill="#666666">[date]</text>
<polygon fill="none" stroke="#000000" points="46.5,-75.5 46.5,-105.5 389.5,-105.5 389.5,-75.5 46.5,-75.5"/>
<text text-anchor="start" x="53.5" y="-86.9" font-family="Arial" font-size="14.00" fill="#000000">budget_amount </text>
<text text-anchor="start" x="154.6584" y="-86.9" font-family="Arial" font-size="14.00" fill="#666666">[numeric(15,2)]</text>
<polygon fill="none" stroke="#000000" points="46.5,-45.5 46.5,-75.5 389.5,-75.5 389.5,-45.5 46.5,-45.5"/>
<text text-anchor="start" x="53.5" y="-56.9" font-family="Arial" font-size="14.00" fill="#000000">item_group_id </text>
<text text-anchor="start" x="146.0764" y="-56.9" font-family="Arial" font-size="14.00" fill="#666666">[integer]</text>
<polygon fill="none" stroke="#000000" stroke-width="3" points="44.5,-44.5 44.5,-262.5 390.5,-262.5 390.5,-44.5 44.5,-44.5"/>
</g>
</g>
</svg>
