<?xml version="1.0" encoding="UTF-8" standalone="no"?>
<!DOCTYPE svg PUBLIC "-//W3C//DTD SVG 1.1//EN"
 "http://www.w3.org/Graphics/SVG/1.1/DTD/svg11.dtd">
<!-- Generated by graphviz version 2.40.1 (20161225.0304)
 -->
<!-- Title: public.comn_emailformat_config Pages: 1 -->
<svg width="499pt" height="1185pt"
 viewBox="0.00 0.00 499.00 1185.00" xmlns="http://www.w3.org/2000/svg" xmlns:xlink="http://www.w3.org/1999/xlink">
<g id="graph0" class="graph" transform="scale(1 1) rotate(0) translate(4 1181)">
<title>public.comn_emailformat_config</title>
<polygon fill="#ffffff" stroke="transparent" points="-4,4 -4,-1181 495,-1181 495,4 -4,4"/>
<!-- public.comn_emailformat_config -->
<g id="node1" class="node">
<title>public.comn_emailformat_config</title>
<polygon fill="#efefef" stroke="transparent" points="46.5,-1095.5 46.5,-1130.5 445.5,-1130.5 445.5,-1095.5 46.5,-1095.5"/>
<polygon fill="none" stroke="#000000" points="46.5,-1095.5 46.5,-1130.5 445.5,-1130.5 445.5,-1095.5 46.5,-1095.5"/>
<text text-anchor="start" x="53.1983" y="-1108.3" font-family="Arial Bold" font-size="18.00" fill="#000000">public.comn_emailformat_config</text>
<text text-anchor="start" x="311.2337" y="-1108.3" font-family="Arial" font-size="14.00" fill="#000000">    </text>
<text text-anchor="start" x="345.4385" y="-1108.3" font-family="Arial" font-size="14.00" fill="#666666">[BASE TABLE]</text>
<polygon fill="none" stroke="#000000" points="46.5,-1065.5 46.5,-1095.5 445.5,-1095.5 445.5,-1065.5 46.5,-1065.5"/>
<text text-anchor="start" x="53.5" y="-1076.9" font-family="Arial" font-size="14.00" fill="#000000">formatid </text>
<text text-anchor="start" x="107.9474" y="-1076.9" font-family="Arial" font-size="14.00" fill="#666666">[integer]</text>
<polygon fill="none" stroke="#000000" points="46.5,-1035.5 46.5,-1065.5 445.5,-1065.5 445.5,-1035.5 46.5,-1035.5"/>
<text text-anchor="start" x="53.5" y="-1046.9" font-family="Arial" font-size="14.00" fill="#000000">clientid </text>
<text text-anchor="start" x="100.9488" y="-1046.9" font-family="Arial" font-size="14.00" fill="#666666">[integer]</text>
<polygon fill="none" stroke="#000000" points="46.5,-1005.5 46.5,-1035.5 445.5,-1035.5 445.5,-1005.5 46.5,-1005.5"/>
<text text-anchor="start" x="53.5" y="-1016.9" font-family="Arial" font-size="14.00" fill="#000000">branchid </text>
<text text-anchor="start" x="111.0708" y="-1016.9" font-family="Arial" font-size="14.00" fill="#666666">[integer]</text>
<polygon fill="none" stroke="#000000" points="46.5,-975.5 46.5,-1005.5 445.5,-1005.5 445.5,-975.5 46.5,-975.5"/>
<text text-anchor="start" x="53.5" y="-986.9" font-family="Arial" font-size="14.00" fill="#000000">formid </text>
<text text-anchor="start" x="96.2742" y="-986.9" font-family="Arial" font-size="14.00" fill="#666666">[integer]</text>
<polygon fill="none" stroke="#000000" points="46.5,-945.5 46.5,-975.5 445.5,-975.5 445.5,-945.5 46.5,-945.5"/>
<text text-anchor="start" x="53.5" y="-956.9" font-family="Arial" font-size="14.00" fill="#000000">mailfrom </text>
<text text-anchor="start" x="111.0414" y="-956.9" font-family="Arial" font-size="14.00" fill="#666666">[varchar(200)]</text>
<polygon fill="none" stroke="#000000" points="46.5,-915.5 46.5,-945.5 445.5,-945.5 445.5,-915.5 46.5,-915.5"/>
<text text-anchor="start" x="53.5" y="-926.9" font-family="Arial" font-size="14.00" fill="#000000">mailpassword </text>
<text text-anchor="start" x="142.9446" y="-926.9" font-family="Arial" font-size="14.00" fill="#666666">[varchar(200)]</text>
<polygon fill="none" stroke="#000000" points="46.5,-885.5 46.5,-915.5 445.5,-915.5 445.5,-885.5 46.5,-885.5"/>
<text text-anchor="start" x="53.5" y="-896.9" font-family="Arial" font-size="14.00" fill="#000000">mailto </text>
<text text-anchor="start" x="94.7202" y="-896.9" font-family="Arial" font-size="14.00" fill="#666666">[varchar(200)]</text>
<polygon fill="none" stroke="#000000" points="46.5,-855.5 46.5,-885.5 445.5,-885.5 445.5,-855.5 46.5,-855.5"/>
<text text-anchor="start" x="53.5" y="-866.9" font-family="Arial" font-size="14.00" fill="#000000">mailcc </text>
<text text-anchor="start" x="97.047" y="-866.9" font-family="Arial" font-size="14.00" fill="#666666">[text]</text>
<polygon fill="none" stroke="#000000" points="46.5,-825.5 46.5,-855.5 445.5,-855.5 445.5,-825.5 46.5,-825.5"/>
<text text-anchor="start" x="53.5" y="-836.9" font-family="Arial" font-size="14.00" fill="#000000">mailbcc </text>
<text text-anchor="start" x="104.8296" y="-836.9" font-family="Arial" font-size="14.00" fill="#666666">[text]</text>
<polygon fill="none" stroke="#000000" points="46.5,-795.5 46.5,-825.5 445.5,-825.5 445.5,-795.5 46.5,-795.5"/>
<text text-anchor="start" x="53.5" y="-806.9" font-family="Arial" font-size="14.00" fill="#000000">subject </text>
<text text-anchor="start" x="101.7356" y="-806.9" font-family="Arial" font-size="14.00" fill="#666666">[text]</text>
<polygon fill="none" stroke="#000000" points="46.5,-765.5 46.5,-795.5 445.5,-795.5 445.5,-765.5 46.5,-765.5"/>
<text text-anchor="start" x="53.5" y="-776.9" font-family="Arial" font-size="14.00" fill="#000000">mailbody </text>
<text text-anchor="start" x="113.3948" y="-776.9" font-family="Arial" font-size="14.00" fill="#666666">[text]</text>
<polygon fill="none" stroke="#000000" points="46.5,-735.5 46.5,-765.5 445.5,-765.5 445.5,-735.5 46.5,-735.5"/>
<text text-anchor="start" x="53.5" y="-746.9" font-family="Arial" font-size="14.00" fill="#000000">squery </text>
<text text-anchor="start" x="99.399" y="-746.9" font-family="Arial" font-size="14.00" fill="#666666">[text]</text>
<polygon fill="none" stroke="#000000" points="46.5,-705.5 46.5,-735.5 445.5,-735.5 445.5,-705.5 46.5,-705.5"/>
<text text-anchor="start" x="53.5" y="-716.9" font-family="Arial" font-size="14.00" fill="#000000">formatfor </text>
<text text-anchor="start" x="113.392" y="-716.9" font-family="Arial" font-size="14.00" fill="#666666">[integer]</text>
<polygon fill="none" stroke="#000000" points="46.5,-675.5 46.5,-705.5 445.5,-705.5 445.5,-675.5 46.5,-675.5"/>
<text text-anchor="start" x="53.5" y="-686.9" font-family="Arial" font-size="14.00" fill="#000000">templatename </text>
<text text-anchor="start" x="146.0778" y="-686.9" font-family="Arial" font-size="14.00" fill="#666666">[varchar(50)]</text>
<polygon fill="none" stroke="#000000" points="46.5,-645.5 46.5,-675.5 445.5,-675.5 445.5,-645.5 46.5,-645.5"/>
<text text-anchor="start" x="53.5" y="-656.9" font-family="Arial" font-size="14.00" fill="#000000">templatedate </text>
<text text-anchor="start" x="138.3078" y="-656.9" font-family="Arial" font-size="14.00" fill="#666666">[date]</text>
<polygon fill="none" stroke="#000000" points="46.5,-615.5 46.5,-645.5 445.5,-645.5 445.5,-615.5 46.5,-615.5"/>
<text text-anchor="start" x="53.5" y="-626.9" font-family="Arial" font-size="14.00" fill="#000000">isactive </text>
<text text-anchor="start" x="104.0596" y="-626.9" font-family="Arial" font-size="14.00" fill="#666666">[boolean]</text>
<polygon fill="none" stroke="#000000" points="46.5,-585.5 46.5,-615.5 445.5,-615.5 445.5,-585.5 46.5,-585.5"/>
<text text-anchor="start" x="53.5" y="-596.9" font-family="Arial" font-size="14.00" fill="#000000">smsmobileno </text>
<text text-anchor="start" x="139.838" y="-596.9" font-family="Arial" font-size="14.00" fill="#666666">[varchar(20)]</text>
<polygon fill="none" stroke="#000000" points="46.5,-555.5 46.5,-585.5 445.5,-585.5 445.5,-555.5 46.5,-555.5"/>
<text text-anchor="start" x="53.5" y="-566.9" font-family="Arial" font-size="14.00" fill="#000000">smsbody </text>
<text text-anchor="start" x="113.399" y="-566.9" font-family="Arial" font-size="14.00" fill="#666666">[text]</text>
<polygon fill="none" stroke="#000000" points="46.5,-525.5 46.5,-555.5 445.5,-555.5 445.5,-525.5 46.5,-525.5"/>
<text text-anchor="start" x="53.5" y="-536.9" font-family="Arial" font-size="14.00" fill="#000000">smsapi </text>
<text text-anchor="start" x="101.723" y="-536.9" font-family="Arial" font-size="14.00" fill="#666666">[text]</text>
<polygon fill="none" stroke="#000000" points="46.5,-495.5 46.5,-525.5 445.5,-525.5 445.5,-495.5 46.5,-495.5"/>
<text text-anchor="start" x="53.5" y="-506.9" font-family="Arial" font-size="14.00" fill="#000000">whatsappmobileno </text>
<text text-anchor="start" x="174.0876" y="-506.9" font-family="Arial" font-size="14.00" fill="#666666">[varchar(20)]</text>
<polygon fill="none" stroke="#000000" points="46.5,-465.5 46.5,-495.5 445.5,-495.5 445.5,-465.5 46.5,-465.5"/>
<text text-anchor="start" x="53.5" y="-476.9" font-family="Arial" font-size="14.00" fill="#000000">whatsappbody </text>
<text text-anchor="start" x="147.6486" y="-476.9" font-family="Arial" font-size="14.00" fill="#666666">[text]</text>
<polygon fill="none" stroke="#000000" points="46.5,-435.5 46.5,-465.5 445.5,-465.5 445.5,-435.5 46.5,-435.5"/>
<text text-anchor="start" x="53.5" y="-446.9" font-family="Arial" font-size="14.00" fill="#000000">whatsappapi </text>
<text text-anchor="start" x="135.9726" y="-446.9" font-family="Arial" font-size="14.00" fill="#666666">[text]</text>
<polygon fill="none" stroke="#000000" points="46.5,-405.5 46.5,-435.5 445.5,-435.5 445.5,-405.5 46.5,-405.5"/>
<text text-anchor="start" x="53.5" y="-416.9" font-family="Arial" font-size="14.00" fill="#000000">smtphost </text>
<text text-anchor="start" x="114.1802" y="-416.9" font-family="Arial" font-size="14.00" fill="#666666">[varchar(100)]</text>
<polygon fill="none" stroke="#000000" points="46.5,-375.5 46.5,-405.5 445.5,-405.5 445.5,-375.5 46.5,-375.5"/>
<text text-anchor="start" x="53.5" y="-386.9" font-family="Arial" font-size="14.00" fill="#000000">smtpport </text>
<text text-anchor="start" x="111.8408" y="-386.9" font-family="Arial" font-size="14.00" fill="#666666">[varchar(100)]</text>
<polygon fill="none" stroke="#000000" points="46.5,-345.5 46.5,-375.5 445.5,-375.5 445.5,-345.5 46.5,-345.5"/>
<text text-anchor="start" x="53.5" y="-356.9" font-family="Arial" font-size="14.00" fill="#000000">is_sslenabled </text>
<text text-anchor="start" x="142.1886" y="-356.9" font-family="Arial" font-size="14.00" fill="#666666">[boolean]</text>
<polygon fill="none" stroke="#000000" points="46.5,-315.5 46.5,-345.5 445.5,-345.5 445.5,-315.5 46.5,-315.5"/>
<text text-anchor="start" x="53.5" y="-326.9" font-family="Arial" font-size="14.00" fill="#000000">editlog </text>
<text text-anchor="start" x="98.6248" y="-326.9" font-family="Arial" font-size="14.00" fill="#666666">[text]</text>
<polygon fill="none" stroke="#000000" points="46.5,-285.5 46.5,-315.5 445.5,-315.5 445.5,-285.5 46.5,-285.5"/>
<text text-anchor="start" x="53.5" y="-296.9" font-family="Arial" font-size="14.00" fill="#000000">smsapikey </text>
<text text-anchor="start" x="123.5056" y="-296.9" font-family="Arial" font-size="14.00" fill="#666666">[varchar(1000)]</text>
<polygon fill="none" stroke="#000000" points="46.5,-255.5 46.5,-285.5 445.5,-285.5 445.5,-255.5 46.5,-255.5"/>
<text text-anchor="start" x="53.5" y="-266.9" font-family="Arial" font-size="14.00" fill="#000000">smsapisender </text>
<text text-anchor="start" x="144.514" y="-266.9" font-family="Arial" font-size="14.00" fill="#666666">[varchar(100)]</text>
<polygon fill="none" stroke="#000000" points="46.5,-225.5 46.5,-255.5 445.5,-255.5 445.5,-225.5 46.5,-225.5"/>
<text text-anchor="start" x="53.5" y="-236.9" font-family="Arial" font-size="14.00" fill="#000000">isattachformat </text>
<text text-anchor="start" x="145.2938" y="-236.9" font-family="Arial" font-size="14.00" fill="#666666">[boolean]</text>
<polygon fill="none" stroke="#000000" points="46.5,-195.5 46.5,-225.5 445.5,-225.5 445.5,-195.5 46.5,-195.5"/>
<text text-anchor="start" x="53.5" y="-206.9" font-family="Arial" font-size="14.00" fill="#000000">is_usecustomurl_sms </text>
<text text-anchor="start" x="191.9544" y="-206.9" font-family="Arial" font-size="14.00" fill="#666666">[boolean]</text>
<polygon fill="none" stroke="#000000" points="46.5,-165.5 46.5,-195.5 445.5,-195.5 445.5,-165.5 46.5,-165.5"/>
<text text-anchor="start" x="53.5" y="-176.9" font-family="Arial" font-size="14.00" fill="#000000">wa_templatename </text>
<text text-anchor="start" x="171.7496" y="-176.9" font-family="Arial" font-size="14.00" fill="#666666">[varchar(200)]</text>
<polygon fill="none" stroke="#000000" points="46.5,-135.5 46.5,-165.5 445.5,-165.5 445.5,-135.5 46.5,-135.5"/>
<text text-anchor="start" x="53.5" y="-146.9" font-family="Arial" font-size="14.00" fill="#000000">wa_userid </text>
<text text-anchor="start" x="121.1774" y="-146.9" font-family="Arial" font-size="14.00" fill="#666666">[varchar(200)]</text>
<polygon fill="none" stroke="#000000" points="46.5,-105.5 46.5,-135.5 445.5,-135.5 445.5,-105.5 46.5,-105.5"/>
<text text-anchor="start" x="53.5" y="-116.9" font-family="Arial" font-size="14.00" fill="#000000">wa_userpassword </text>
<text text-anchor="start" x="170.1858" y="-116.9" font-family="Arial" font-size="14.00" fill="#666666">[varchar(200)]</text>
<polygon fill="none" stroke="#000000" points="46.5,-75.5 46.5,-105.5 445.5,-105.5 445.5,-75.5 46.5,-75.5"/>
<text text-anchor="start" x="53.5" y="-86.9" font-family="Arial" font-size="14.00" fill="#000000">wa_printformat </text>
<text text-anchor="start" x="149.953" y="-86.9" font-family="Arial" font-size="14.00" fill="#666666">[integer]</text>
<polygon fill="none" stroke="#000000" points="46.5,-45.5 46.5,-75.5 445.5,-75.5 445.5,-45.5 46.5,-45.5"/>
<text text-anchor="start" x="53.5" y="-56.9" font-family="Arial" font-size="14.00" fill="#000000">wa_isattachfile </text>
<text text-anchor="start" x="149.1844" y="-56.9" font-family="Arial" font-size="14.00" fill="#666666">[boolean]</text>
<polygon fill="none" stroke="#000000" stroke-width="3" points="44.5,-44.5 44.5,-1132.5 446.5,-1132.5 446.5,-44.5 44.5,-44.5"/>
</g>
</g>
</svg>
