<?xml version="1.0" encoding="UTF-8" standalone="no"?>
<!DOCTYPE svg PUBLIC "-//W3C//DTD SVG 1.1//EN"
 "http://www.w3.org/Graphics/SVG/1.1/DTD/svg11.dtd">
<!-- Generated by graphviz version 2.40.1 (20161225.0304)
 -->
<!-- Title: public.tmp_stagestockvalue Pages: 1 -->
<svg width="462pt" height="285pt"
 viewBox="0.00 0.00 462.00 285.00" xmlns="http://www.w3.org/2000/svg" xmlns:xlink="http://www.w3.org/1999/xlink">
<g id="graph0" class="graph" transform="scale(1 1) rotate(0) translate(4 281)">
<title>public.tmp_stagestockvalue</title>
<polygon fill="#ffffff" stroke="transparent" points="-4,4 -4,-281 458,-281 458,4 -4,4"/>
<!-- public.tmp_stagestockvalue -->
<g id="node1" class="node">
<title>public.tmp_stagestockvalue</title>
<polygon fill="#efefef" stroke="transparent" points="46,-195.5 46,-230.5 408,-230.5 408,-195.5 46,-195.5"/>
<polygon fill="none" stroke="#000000" points="46,-195.5 46,-230.5 408,-230.5 408,-195.5 46,-195.5"/>
<text text-anchor="start" x="52.687" y="-208.3" font-family="Arial Bold" font-size="18.00" fill="#000000">public.tmp_stagestockvalue</text>
<text text-anchor="start" x="273.745" y="-208.3" font-family="Arial" font-size="14.00" fill="#000000">    </text>
<text text-anchor="start" x="307.9498" y="-208.3" font-family="Arial" font-size="14.00" fill="#666666">[BASE TABLE]</text>
<polygon fill="none" stroke="#000000" points="46,-165.5 46,-195.5 408,-195.5 408,-165.5 46,-165.5"/>
<text text-anchor="start" x="53" y="-176.9" font-family="Arial" font-size="14.00" fill="#000000">itemid </text>
<text text-anchor="start" x="94.2202" y="-176.9" font-family="Arial" font-size="14.00" fill="#666666">[integer]</text>
<polygon fill="none" stroke="#000000" points="46,-135.5 46,-165.5 408,-165.5 408,-135.5 46,-135.5"/>
<text text-anchor="start" x="53" y="-146.9" font-family="Arial" font-size="14.00" fill="#000000">stageid </text>
<text text-anchor="start" x="102.0182" y="-146.9" font-family="Arial" font-size="14.00" fill="#666666">[integer]</text>
<polygon fill="none" stroke="#000000" points="46,-105.5 46,-135.5 408,-135.5 408,-105.5 46,-105.5"/>
<text text-anchor="start" x="53" y="-116.9" font-family="Arial" font-size="14.00" fill="#000000">baseqty </text>
<text text-anchor="start" x="105.9116" y="-116.9" font-family="Arial" font-size="14.00" fill="#666666">[numeric(15,5)]</text>
<polygon fill="none" stroke="#000000" points="46,-75.5 46,-105.5 408,-105.5 408,-75.5 46,-75.5"/>
<text text-anchor="start" x="53" y="-86.9" font-family="Arial" font-size="14.00" fill="#000000">altqty </text>
<text text-anchor="start" x="90.3436" y="-86.9" font-family="Arial" font-size="14.00" fill="#666666">[numeric(15,5)]</text>
<polygon fill="none" stroke="#000000" points="46,-45.5 46,-75.5 408,-75.5 408,-45.5 46,-45.5"/>
<text text-anchor="start" x="53" y="-56.9" font-family="Arial" font-size="14.00" fill="#000000">stockvalue </text>
<text text-anchor="start" x="123.0182" y="-56.9" font-family="Arial" font-size="14.00" fill="#666666">[numeric(15,5)]</text>
<polygon fill="none" stroke="#000000" stroke-width="3" points="44.5,-44.5 44.5,-232.5 409.5,-232.5 409.5,-44.5 44.5,-44.5"/>
</g>
</g>
</svg>
