<?xml version="1.0" encoding="UTF-8" standalone="no"?>
<!DOCTYPE svg PUBLIC "-//W3C//DTD SVG 1.1//EN"
 "http://www.w3.org/Graphics/SVG/1.1/DTD/svg11.dtd">
<!-- Generated by graphviz version 2.40.1 (20161225.0304)
 -->
<!-- Title: public.csp_advancepaymentdetails Pages: 1 -->
<svg width="520pt" height="285pt"
 viewBox="0.00 0.00 520.00 285.00" xmlns="http://www.w3.org/2000/svg" xmlns:xlink="http://www.w3.org/1999/xlink">
<g id="graph0" class="graph" transform="scale(1 1) rotate(0) translate(4 281)">
<title>public.csp_advancepaymentdetails</title>
<polygon fill="#ffffff" stroke="transparent" points="-4,4 -4,-281 516,-281 516,4 -4,4"/>
<!-- public.csp_advancepaymentdetails -->
<g id="node1" class="node">
<title>public.csp_advancepaymentdetails</title>
<polygon fill="#efefef" stroke="transparent" points="46,-195.5 46,-230.5 466,-230.5 466,-195.5 46,-195.5"/>
<polygon fill="none" stroke="#000000" points="46,-195.5 46,-230.5 466,-230.5 466,-195.5 46,-195.5"/>
<text text-anchor="start" x="52.6755" y="-208.3" font-family="Arial Bold" font-size="18.00" fill="#000000">public.csp_advancepaymentdetails</text>
<text text-anchor="start" x="331.7565" y="-208.3" font-family="Arial" font-size="14.00" fill="#000000">    </text>
<text text-anchor="start" x="365.9613" y="-208.3" font-family="Arial" font-size="14.00" fill="#666666">[BASE TABLE]</text>
<polygon fill="none" stroke="#000000" points="46,-165.5 46,-195.5 466,-195.5 466,-165.5 46,-165.5"/>
<text text-anchor="start" x="53" y="-176.9" font-family="Arial" font-size="14.00" fill="#000000">transactionid </text>
<text text-anchor="start" x="136.2412" y="-176.9" font-family="Arial" font-size="14.00" fill="#666666">[integer]</text>
<polygon fill="none" stroke="#000000" points="46,-135.5 46,-165.5 466,-165.5 466,-135.5 46,-135.5"/>
<text text-anchor="start" x="53" y="-146.9" font-family="Arial" font-size="14.00" fill="#000000">invoiceid </text>
<text text-anchor="start" x="111.3408" y="-146.9" font-family="Arial" font-size="14.00" fill="#666666">[integer]</text>
<polygon fill="none" stroke="#000000" points="46,-105.5 46,-135.5 466,-135.5 466,-105.5 46,-105.5"/>
<text text-anchor="start" x="53" y="-116.9" font-family="Arial" font-size="14.00" fill="#000000">awbno </text>
<text text-anchor="start" x="98.1276" y="-116.9" font-family="Arial" font-size="14.00" fill="#666666">[varchar(100)]</text>
<polygon fill="none" stroke="#000000" points="46,-75.5 46,-105.5 466,-105.5 466,-75.5 46,-75.5"/>
<text text-anchor="start" x="53" y="-86.9" font-family="Arial" font-size="14.00" fill="#000000">transactiondetailid </text>
<text text-anchor="start" x="169.6928" y="-86.9" font-family="Arial" font-size="14.00" fill="#666666">[integer]</text>
<polygon fill="none" stroke="#000000" points="46,-45.5 46,-75.5 466,-75.5 466,-45.5 46,-45.5"/>
<text text-anchor="start" x="53" y="-56.9" font-family="Arial" font-size="14.00" fill="#000000">freightamounttotal </text>
<text text-anchor="start" x="168.9214" y="-56.9" font-family="Arial" font-size="14.00" fill="#666666">[numeric(18,2)]</text>
<polygon fill="none" stroke="#000000" stroke-width="3" points="44.5,-44.5 44.5,-232.5 467.5,-232.5 467.5,-44.5 44.5,-44.5"/>
</g>
</g>
</svg>
