<?xml version="1.0" encoding="UTF-8" standalone="no"?>
<!DOCTYPE svg PUBLIC "-//W3C//DTD SVG 1.1//EN"
 "http://www.w3.org/Graphics/SVG/1.1/DTD/svg11.dtd">
<!-- Generated by graphviz version 2.40.1 (20161225.0304)
 -->
<!-- Title: public.fa_itact_dep_detail Pages: 1 -->
<svg width="444pt" height="615pt"
 viewBox="0.00 0.00 444.00 615.00" xmlns="http://www.w3.org/2000/svg" xmlns:xlink="http://www.w3.org/1999/xlink">
<g id="graph0" class="graph" transform="scale(1 1) rotate(0) translate(4 611)">
<title>public.fa_itact_dep_detail</title>
<polygon fill="#ffffff" stroke="transparent" points="-4,4 -4,-611 440,-611 440,4 -4,4"/>
<!-- public.fa_itact_dep_detail -->
<g id="node1" class="node">
<title>public.fa_itact_dep_detail</title>
<polygon fill="#efefef" stroke="transparent" points="46,-525.5 46,-560.5 390,-560.5 390,-525.5 46,-525.5"/>
<polygon fill="none" stroke="#000000" points="46,-525.5 46,-560.5 390,-560.5 390,-525.5 46,-525.5"/>
<text text-anchor="start" x="52.6816" y="-538.3" font-family="Arial Bold" font-size="18.00" fill="#000000">public.fa_itact_dep_detail</text>
<text text-anchor="start" x="255.7504" y="-538.3" font-family="Arial" font-size="14.00" fill="#000000">    </text>
<text text-anchor="start" x="289.9552" y="-538.3" font-family="Arial" font-size="14.00" fill="#666666">[BASE TABLE]</text>
<polygon fill="none" stroke="#000000" points="46,-495.5 46,-525.5 390,-525.5 390,-495.5 46,-495.5"/>
<text text-anchor="start" x="53" y="-506.9" font-family="Arial" font-size="14.00" fill="#000000">calid </text>
<text text-anchor="start" x="85.669" y="-506.9" font-family="Arial" font-size="14.00" fill="#666666">[integer]</text>
<polygon fill="none" stroke="#000000" points="46,-465.5 46,-495.5 390,-495.5 390,-465.5 46,-465.5"/>
<text text-anchor="start" x="53" y="-476.9" font-family="Arial" font-size="14.00" fill="#000000">blockid </text>
<text text-anchor="start" x="100.4516" y="-476.9" font-family="Arial" font-size="14.00" fill="#666666">[integer]</text>
<polygon fill="none" stroke="#000000" points="46,-435.5 46,-465.5 390,-465.5 390,-435.5 46,-435.5"/>
<text text-anchor="start" x="53" y="-446.9" font-family="Arial" font-size="14.00" fill="#000000">less180 </text>
<text text-anchor="start" x="105.1276" y="-446.9" font-family="Arial" font-size="14.00" fill="#666666">[numeric(15,2)]</text>
<polygon fill="none" stroke="#000000" points="46,-405.5 46,-435.5 390,-435.5 390,-405.5 46,-405.5"/>
<text text-anchor="start" x="53" y="-416.9" font-family="Arial" font-size="14.00" fill="#000000">more180 </text>
<text text-anchor="start" x="112.1248" y="-416.9" font-family="Arial" font-size="14.00" fill="#666666">[numeric(15,2)]</text>
<polygon fill="none" stroke="#000000" points="46,-375.5 46,-405.5 390,-405.5 390,-375.5 46,-375.5"/>
<text text-anchor="start" x="53" y="-386.9" font-family="Arial" font-size="14.00" fill="#000000">totalcost </text>
<text text-anchor="start" x="109.0168" y="-386.9" font-family="Arial" font-size="14.00" fill="#666666">[numeric(15,2)]</text>
<polygon fill="none" stroke="#000000" points="46,-345.5 46,-375.5 390,-375.5 390,-345.5 46,-345.5"/>
<text text-anchor="start" x="53" y="-356.9" font-family="Arial" font-size="14.00" fill="#000000">rate </text>
<text text-anchor="start" x="81.007" y="-356.9" font-family="Arial" font-size="14.00" fill="#666666">[numeric(8,2)]</text>
<polygon fill="none" stroke="#000000" points="46,-315.5 46,-345.5 390,-345.5 390,-315.5 46,-315.5"/>
<text text-anchor="start" x="53" y="-326.9" font-family="Arial" font-size="14.00" fill="#000000">openingwdv </text>
<text text-anchor="start" x="131.582" y="-326.9" font-family="Arial" font-size="14.00" fill="#666666">[numeric(15,2)]</text>
<polygon fill="none" stroke="#000000" points="46,-285.5 46,-315.5 390,-315.5 390,-285.5 46,-285.5"/>
<text text-anchor="start" x="53" y="-296.9" font-family="Arial" font-size="14.00" fill="#000000">saledeductions </text>
<text text-anchor="start" x="150.2552" y="-296.9" font-family="Arial" font-size="14.00" fill="#666666">[numeric(15,2)]</text>
<polygon fill="none" stroke="#000000" points="46,-255.5 46,-285.5 390,-285.5 390,-255.5 46,-255.5"/>
<text text-anchor="start" x="53" y="-266.9" font-family="Arial" font-size="14.00" fill="#000000">wdvcostsale </text>
<text text-anchor="start" x="133.1248" y="-266.9" font-family="Arial" font-size="14.00" fill="#666666">[numeric(15,2)]</text>
<polygon fill="none" stroke="#000000" points="46,-225.5 46,-255.5 390,-255.5 390,-225.5 46,-225.5"/>
<text text-anchor="start" x="53" y="-236.9" font-family="Arial" font-size="14.00" fill="#000000">depfullyear </text>
<text text-anchor="start" x="125.3506" y="-236.9" font-family="Arial" font-size="14.00" fill="#666666">[numeric(15,2)]</text>
<polygon fill="none" stroke="#000000" points="46,-195.5 46,-225.5 390,-225.5 390,-195.5 46,-195.5"/>
<text text-anchor="start" x="53" y="-206.9" font-family="Arial" font-size="14.00" fill="#000000">dephalfyear </text>
<text text-anchor="start" x="130.0266" y="-206.9" font-family="Arial" font-size="14.00" fill="#666666">[numeric(15,2)]</text>
<polygon fill="none" stroke="#000000" points="46,-165.5 46,-195.5 390,-195.5 390,-165.5 46,-165.5"/>
<text text-anchor="start" x="53" y="-176.9" font-family="Arial" font-size="14.00" fill="#000000">additionaldep </text>
<text text-anchor="start" x="140.1444" y="-176.9" font-family="Arial" font-size="14.00" fill="#666666">[numeric(15,2)]</text>
<polygon fill="none" stroke="#000000" points="46,-135.5 46,-165.5 390,-165.5 390,-135.5 46,-135.5"/>
<text text-anchor="start" x="53" y="-146.9" font-family="Arial" font-size="14.00" fill="#000000">totaldep </text>
<text text-anchor="start" x="106.6914" y="-146.9" font-family="Arial" font-size="14.00" fill="#666666">[numeric(15,2)]</text>
<polygon fill="none" stroke="#000000" points="46,-105.5 46,-135.5 390,-135.5 390,-105.5 46,-105.5"/>
<text text-anchor="start" x="53" y="-116.9" font-family="Arial" font-size="14.00" fill="#000000">closingwdv </text>
<text text-anchor="start" x="125.3408" y="-116.9" font-family="Arial" font-size="14.00" fill="#666666">[numeric(15,2)]</text>
<polygon fill="none" stroke="#000000" points="46,-75.5 46,-105.5 390,-105.5 390,-75.5 46,-75.5"/>
<text text-anchor="start" x="53" y="-86.9" font-family="Arial" font-size="14.00" fill="#000000">yearinfo </text>
<text text-anchor="start" x="106.6788" y="-86.9" font-family="Arial" font-size="14.00" fill="#666666">[integer]</text>
<polygon fill="none" stroke="#000000" points="46,-45.5 46,-75.5 390,-75.5 390,-45.5 46,-45.5"/>
<text text-anchor="start" x="53" y="-56.9" font-family="Arial" font-size="14.00" fill="#000000">depreciationid </text>
<text text-anchor="start" x="144.0224" y="-56.9" font-family="Arial" font-size="14.00" fill="#666666">[integer]</text>
<polygon fill="none" stroke="#000000" stroke-width="3" points="44.5,-44.5 44.5,-562.5 391.5,-562.5 391.5,-44.5 44.5,-44.5"/>
</g>
</g>
</svg>
