<?xml version="1.0" encoding="UTF-8" standalone="no"?>
<!DOCTYPE svg PUBLIC "-//W3C//DTD SVG 1.1//EN"
 "http://www.w3.org/Graphics/SVG/1.1/DTD/svg11.dtd">
<!-- Generated by graphviz version 2.40.1 (20161225.0304)
 -->
<!-- Title: public.stor_storemaster Pages: 1 -->
<svg width="697pt" height="3772pt"
 viewBox="0.00 0.00 696.50 3772.00" xmlns="http://www.w3.org/2000/svg" xmlns:xlink="http://www.w3.org/1999/xlink">
<g id="graph0" class="graph" transform="scale(1 1) rotate(0) translate(4 3768)">
<title>public.stor_storemaster</title>
<polygon fill="#ffffff" stroke="transparent" points="-4,4 -4,-3768 692.5,-3768 692.5,4 -4,4"/>
<!-- public.stor_storemaster -->
<g id="node1" class="node">
<title>public.stor_storemaster</title>
<polygon fill="#efefef" stroke="transparent" points="310,-3682.5 310,-3717.5 638,-3717.5 638,-3682.5 310,-3682.5"/>
<polygon fill="none" stroke="#000000" points="310,-3682.5 310,-3717.5 638,-3717.5 638,-3682.5 310,-3682.5"/>
<text text-anchor="start" x="316.7051" y="-3695.3" font-family="Arial Bold" font-size="18.00" fill="#000000">public.stor_storemaster</text>
<text text-anchor="start" x="503.7269" y="-3695.3" font-family="Arial" font-size="14.00" fill="#000000">    </text>
<text text-anchor="start" x="537.9317" y="-3695.3" font-family="Arial" font-size="14.00" fill="#666666">[BASE TABLE]</text>
<polygon fill="none" stroke="#000000" points="310,-3652.5 310,-3682.5 638,-3682.5 638,-3652.5 310,-3652.5"/>
<text text-anchor="start" x="317" y="-3663.9" font-family="Arial" font-size="14.00" fill="#000000">storeid </text>
<text text-anchor="start" x="362.8962" y="-3663.9" font-family="Arial" font-size="14.00" fill="#666666">[integer]</text>
<polygon fill="none" stroke="#000000" points="310,-3622.5 310,-3652.5 638,-3652.5 638,-3622.5 310,-3622.5"/>
<text text-anchor="start" x="317" y="-3633.9" font-family="Arial" font-size="14.00" fill="#000000">storename </text>
<text text-anchor="start" x="387.0154" y="-3633.9" font-family="Arial" font-size="14.00" fill="#666666">[varchar(50)]</text>
<polygon fill="none" stroke="#000000" points="310,-3592.5 310,-3622.5 638,-3622.5 638,-3592.5 310,-3592.5"/>
<text text-anchor="start" x="317" y="-3603.9" font-family="Arial" font-size="14.00" fill="#000000">storecode </text>
<text text-anchor="start" x="382.3548" y="-3603.9" font-family="Arial" font-size="14.00" fill="#666666">[varchar(10)]</text>
<polygon fill="none" stroke="#000000" points="310,-3562.5 310,-3592.5 638,-3592.5 638,-3562.5 310,-3562.5"/>
<text text-anchor="start" x="317" y="-3573.9" font-family="Arial" font-size="14.00" fill="#000000">branchid </text>
<text text-anchor="start" x="374.5708" y="-3573.9" font-family="Arial" font-size="14.00" fill="#666666">[integer]</text>
<polygon fill="none" stroke="#000000" points="310,-3532.5 310,-3562.5 638,-3562.5 638,-3532.5 310,-3532.5"/>
<text text-anchor="start" x="317" y="-3543.9" font-family="Arial" font-size="14.00" fill="#000000">isactive </text>
<text text-anchor="start" x="367.5596" y="-3543.9" font-family="Arial" font-size="14.00" fill="#666666">[boolean]</text>
<polygon fill="none" stroke="#000000" points="310,-3502.5 310,-3532.5 638,-3532.5 638,-3502.5 310,-3502.5"/>
<text text-anchor="start" x="317" y="-3513.9" font-family="Arial" font-size="14.00" fill="#000000">storetype </text>
<text text-anchor="start" x="378.4628" y="-3513.9" font-family="Arial" font-size="14.00" fill="#666666">[integer]</text>
<polygon fill="none" stroke="#000000" points="310,-3472.5 310,-3502.5 638,-3502.5 638,-3472.5 310,-3472.5"/>
<text text-anchor="start" x="317" y="-3483.9" font-family="Arial" font-size="14.00" fill="#000000">description </text>
<text text-anchor="start" x="388.568" y="-3483.9" font-family="Arial" font-size="14.00" fill="#666666">[varchar(200)]</text>
<polygon fill="none" stroke="#000000" points="310,-3442.5 310,-3472.5 638,-3472.5 638,-3442.5 310,-3442.5"/>
<text text-anchor="start" x="317" y="-3453.9" font-family="Arial" font-size="14.00" fill="#000000">isauthorized </text>
<text text-anchor="start" x="396.3506" y="-3453.9" font-family="Arial" font-size="14.00" fill="#666666">[boolean]</text>
<polygon fill="none" stroke="#000000" points="310,-3412.5 310,-3442.5 638,-3442.5 638,-3412.5 310,-3412.5"/>
<text text-anchor="start" x="317" y="-3423.9" font-family="Arial" font-size="14.00" fill="#000000">authorizedon </text>
<text text-anchor="start" x="401.8092" y="-3423.9" font-family="Arial" font-size="14.00" fill="#666666">[timestamp without time zone]</text>
<polygon fill="none" stroke="#000000" points="310,-3382.5 310,-3412.5 638,-3412.5 638,-3382.5 310,-3382.5"/>
<text text-anchor="start" x="317" y="-3393.9" font-family="Arial" font-size="14.00" fill="#000000">authorizedby </text>
<text text-anchor="start" x="401.0266" y="-3393.9" font-family="Arial" font-size="14.00" fill="#666666">[integer]</text>
<polygon fill="none" stroke="#000000" points="310,-3352.5 310,-3382.5 638,-3382.5 638,-3352.5 310,-3352.5"/>
<text text-anchor="start" x="317" y="-3363.9" font-family="Arial" font-size="14.00" fill="#000000">createdby </text>
<text text-anchor="start" x="382.3548" y="-3363.9" font-family="Arial" font-size="14.00" fill="#666666">[integer]</text>
<polygon fill="none" stroke="#000000" points="310,-3322.5 310,-3352.5 638,-3352.5 638,-3322.5 310,-3322.5"/>
<text text-anchor="start" x="317" y="-3333.9" font-family="Arial" font-size="14.00" fill="#000000">createdon </text>
<text text-anchor="start" x="383.1374" y="-3333.9" font-family="Arial" font-size="14.00" fill="#666666">[timestamp without time zone]</text>
<polygon fill="none" stroke="#000000" points="310,-3292.5 310,-3322.5 638,-3322.5 638,-3292.5 310,-3292.5"/>
<text text-anchor="start" x="317" y="-3303.9" font-family="Arial" font-size="14.00" fill="#000000">editlog </text>
<text text-anchor="start" x="362.1248" y="-3303.9" font-family="Arial" font-size="14.00" fill="#666666">[text]</text>
<polygon fill="none" stroke="#000000" points="310,-3262.5 310,-3292.5 638,-3292.5 638,-3262.5 310,-3262.5"/>
<text text-anchor="start" x="317" y="-3273.9" font-family="Arial" font-size="14.00" fill="#000000">headauthorizedon </text>
<text text-anchor="start" x="432.9396" y="-3273.9" font-family="Arial" font-size="14.00" fill="#666666">[timestamp without time zone]</text>
<polygon fill="none" stroke="#000000" points="310,-3232.5 310,-3262.5 638,-3262.5 638,-3232.5 310,-3232.5"/>
<text text-anchor="start" x="317" y="-3243.9" font-family="Arial" font-size="14.00" fill="#000000">headauthorizedby </text>
<text text-anchor="start" x="432.157" y="-3243.9" font-family="Arial" font-size="14.00" fill="#666666">[integer]</text>
<polygon fill="none" stroke="#000000" points="310,-3202.5 310,-3232.5 638,-3232.5 638,-3202.5 310,-3202.5"/>
<text text-anchor="start" x="317" y="-3213.9" font-family="Arial" font-size="14.00" fill="#000000">inactivedate </text>
<text text-anchor="start" x="395.5806" y="-3213.9" font-family="Arial" font-size="14.00" fill="#666666">[timestamp without time zone]</text>
<polygon fill="none" stroke="#000000" points="310,-3172.5 310,-3202.5 638,-3202.5 638,-3172.5 310,-3172.5"/>
<text text-anchor="start" x="317" y="-3183.9" font-family="Arial" font-size="14.00" fill="#000000">excisablestoreid </text>
<text text-anchor="start" x="421.2398" y="-3183.9" font-family="Arial" font-size="14.00" fill="#666666">[integer]</text>
<polygon fill="none" stroke="#000000" points="310,-3142.5 310,-3172.5 638,-3172.5 638,-3142.5 310,-3142.5"/>
<text text-anchor="start" x="317" y="-3153.9" font-family="Arial" font-size="14.00" fill="#000000">isusedforrg1 </text>
<text text-anchor="start" x="397.9046" y="-3153.9" font-family="Arial" font-size="14.00" fill="#666666">[boolean]</text>
<polygon fill="none" stroke="#000000" points="310,-3112.5 310,-3142.5 638,-3142.5 638,-3112.5 310,-3112.5"/>
<text text-anchor="start" x="317" y="-3123.9" font-family="Arial" font-size="14.00" fill="#000000">importstoreid </text>
<text text-anchor="start" x="401.7798" y="-3123.9" font-family="Arial" font-size="14.00" fill="#666666">[numeric(18,0)]</text>
<polygon fill="none" stroke="#000000" points="310,-3082.5 310,-3112.5 638,-3112.5 638,-3082.5 310,-3082.5"/>
<text text-anchor="start" x="317" y="-3093.9" font-family="Arial" font-size="14.00" fill="#000000">importexciseregno </text>
<text text-anchor="start" x="435.237" y="-3093.9" font-family="Arial" font-size="14.00" fill="#666666">[varchar(50)]</text>
<polygon fill="none" stroke="#000000" points="310,-3052.5 310,-3082.5 638,-3082.5 638,-3052.5 310,-3052.5"/>
<text text-anchor="start" x="317" y="-3063.9" font-family="Arial" font-size="14.00" fill="#000000">division </text>
<text text-anchor="start" x="367.5582" y="-3063.9" font-family="Arial" font-size="14.00" fill="#666666">[varchar(100)]</text>
<polygon fill="none" stroke="#000000" points="310,-3022.5 310,-3052.5 638,-3052.5 638,-3022.5 310,-3022.5"/>
<text text-anchor="start" x="317" y="-3033.9" font-family="Arial" font-size="14.00" fill="#000000">range </text>
<text text-anchor="start" x="356.6816" y="-3033.9" font-family="Arial" font-size="14.00" fill="#666666">[varchar(100)]</text>
<polygon fill="none" stroke="#000000" points="310,-2992.5 310,-3022.5 638,-3022.5 638,-2992.5 310,-2992.5"/>
<text text-anchor="start" x="317" y="-3003.9" font-family="Arial" font-size="14.00" fill="#000000">commissionerate </text>
<text text-anchor="start" x="426.6718" y="-3003.9" font-family="Arial" font-size="14.00" fill="#666666">[varchar(100)]</text>
<polygon fill="none" stroke="#000000" points="310,-2962.5 310,-2992.5 638,-2992.5 638,-2962.5 310,-2962.5"/>
<text text-anchor="start" x="317" y="-2973.9" font-family="Arial" font-size="14.00" fill="#000000">storefor </text>
<text text-anchor="start" x="368.3408" y="-2973.9" font-family="Arial" font-size="14.00" fill="#666666">[integer]</text>
<polygon fill="none" stroke="#000000" points="310,-2932.5 310,-2962.5 638,-2962.5 638,-2932.5 310,-2932.5"/>
<text text-anchor="start" x="317" y="-2943.9" font-family="Arial" font-size="14.00" fill="#000000">storestageid </text>
<text text-anchor="start" x="397.1346" y="-2943.9" font-family="Arial" font-size="14.00" fill="#666666">[integer]</text>
<polygon fill="none" stroke="#000000" points="310,-2902.5 310,-2932.5 638,-2932.5 638,-2902.5 310,-2902.5"/>
<text text-anchor="start" x="317" y="-2913.9" font-family="Arial" font-size="14.00" fill="#000000">updatedby </text>
<text text-anchor="start" x="386.2594" y="-2913.9" font-family="Arial" font-size="14.00" fill="#666666">[integer]</text>
<polygon fill="none" stroke="#000000" points="310,-2872.5 310,-2902.5 638,-2902.5 638,-2872.5 310,-2872.5"/>
<text text-anchor="start" x="317" y="-2883.9" font-family="Arial" font-size="14.00" fill="#000000">updatedon </text>
<text text-anchor="start" x="387.042" y="-2883.9" font-family="Arial" font-size="14.00" fill="#666666">[timestamp(6) without time zone]</text>
<polygon fill="none" stroke="#000000" stroke-width="3" points="308.5,-2871.5 308.5,-3719.5 639.5,-3719.5 639.5,-2871.5 308.5,-2871.5"/>
</g>
<!-- public.branchmaster -->
<g id="node2" class="node">
<title>public.branchmaster</title>
<polygon fill="#efefef" stroke="transparent" points="301,-2712.5 301,-2747.5 646,-2747.5 646,-2712.5 301,-2712.5"/>
<polygon fill="none" stroke="#000000" points="301,-2712.5 301,-2747.5 646,-2747.5 646,-2712.5 301,-2712.5"/>
<text text-anchor="start" x="328.7034" y="-2725.3" font-family="Arial Bold" font-size="18.00" fill="#000000">public.branchmaster</text>
<text text-anchor="start" x="490.7286" y="-2725.3" font-family="Arial" font-size="14.00" fill="#000000">    </text>
<text text-anchor="start" x="524.9334" y="-2725.3" font-family="Arial" font-size="14.00" fill="#666666">[BASE TABLE]</text>
<polygon fill="none" stroke="#000000" points="301,-2682.5 301,-2712.5 646,-2712.5 646,-2682.5 301,-2682.5"/>
<text text-anchor="start" x="308" y="-2693.9" font-family="Arial" font-size="14.00" fill="#000000">branchid    </text>
<text text-anchor="start" x="395.885" y="-2693.9" font-family="Arial" font-size="14.00" fill="#666666">[integer]</text>
<polygon fill="none" stroke="#000000" points="301,-2652.5 301,-2682.5 646,-2682.5 646,-2652.5 301,-2652.5"/>
<text text-anchor="start" x="308" y="-2663.9" font-family="Arial" font-size="14.00" fill="#000000">branchname    </text>
<text text-anchor="start" x="420.0042" y="-2663.9" font-family="Arial" font-size="14.00" fill="#666666">[varchar(100)]</text>
<polygon fill="none" stroke="#000000" points="301,-2622.5 301,-2652.5 646,-2652.5 646,-2622.5 301,-2622.5"/>
<text text-anchor="start" x="308" y="-2633.9" font-family="Arial" font-size="14.00" fill="#000000">address    </text>
<text text-anchor="start" x="391.9958" y="-2633.9" font-family="Arial" font-size="14.00" fill="#666666">[varchar(200)]</text>
<polygon fill="none" stroke="#000000" points="301,-2592.5 301,-2622.5 646,-2622.5 646,-2592.5 301,-2592.5"/>
<text text-anchor="start" x="308" y="-2603.9" font-family="Arial" font-size="14.00" fill="#000000">stateid    </text>
<text text-anchor="start" x="383.4404" y="-2603.9" font-family="Arial" font-size="14.00" fill="#666666">[integer]</text>
<polygon fill="none" stroke="#000000" points="301,-2562.5 301,-2592.5 646,-2592.5 646,-2562.5 301,-2562.5"/>
<text text-anchor="start" x="308" y="-2573.9" font-family="Arial" font-size="14.00" fill="#000000">isactive    </text>
<text text-anchor="start" x="388.8738" y="-2573.9" font-family="Arial" font-size="14.00" fill="#666666">[boolean]</text>
<polygon fill="none" stroke="#000000" points="301,-2532.5 301,-2562.5 646,-2562.5 646,-2532.5 301,-2532.5"/>
<text text-anchor="start" x="308" y="-2543.9" font-family="Arial" font-size="14.00" fill="#000000">cityid    </text>
<text text-anchor="start" x="374.0912" y="-2543.9" font-family="Arial" font-size="14.00" fill="#666666">[integer]</text>
<polygon fill="none" stroke="#000000" points="301,-2502.5 301,-2532.5 646,-2532.5 646,-2502.5 301,-2502.5"/>
<text text-anchor="start" x="308" y="-2513.9" font-family="Arial" font-size="14.00" fill="#000000">pincode    </text>
<text text-anchor="start" x="391.2244" y="-2513.9" font-family="Arial" font-size="14.00" fill="#666666">[varchar(6)]</text>
<polygon fill="none" stroke="#000000" points="301,-2472.5 301,-2502.5 646,-2502.5 646,-2472.5 301,-2472.5"/>
<text text-anchor="start" x="308" y="-2483.9" font-family="Arial" font-size="14.00" fill="#000000">contactno    </text>
<text text-anchor="start" x="402.899" y="-2483.9" font-family="Arial" font-size="14.00" fill="#666666">[varchar(250)]</text>
<polygon fill="none" stroke="#000000" points="301,-2442.5 301,-2472.5 646,-2472.5 646,-2442.5 301,-2442.5"/>
<text text-anchor="start" x="308" y="-2453.9" font-family="Arial" font-size="14.00" fill="#000000">remark    </text>
<text text-anchor="start" x="385.7518" y="-2453.9" font-family="Arial" font-size="14.00" fill="#666666">[varchar(200)]</text>
<polygon fill="none" stroke="#000000" points="301,-2412.5 301,-2442.5 646,-2442.5 646,-2412.5 301,-2412.5"/>
<text text-anchor="start" x="308" y="-2423.9" font-family="Arial" font-size="14.00" fill="#000000">isauthorized    </text>
<text text-anchor="start" x="417.6648" y="-2423.9" font-family="Arial" font-size="14.00" fill="#666666">[boolean]</text>
<polygon fill="none" stroke="#000000" points="301,-2382.5 301,-2412.5 646,-2412.5 646,-2382.5 301,-2382.5"/>
<text text-anchor="start" x="308" y="-2393.9" font-family="Arial" font-size="14.00" fill="#000000">authorizedby    </text>
<text text-anchor="start" x="422.3408" y="-2393.9" font-family="Arial" font-size="14.00" fill="#666666">[integer]</text>
<polygon fill="none" stroke="#000000" points="301,-2352.5 301,-2382.5 646,-2382.5 646,-2352.5 301,-2352.5"/>
<text text-anchor="start" x="308" y="-2363.9" font-family="Arial" font-size="14.00" fill="#000000">authorizedon    </text>
<text text-anchor="start" x="423.1234" y="-2363.9" font-family="Arial" font-size="14.00" fill="#666666">[timestamp without time zone]</text>
<polygon fill="none" stroke="#000000" points="301,-2322.5 301,-2352.5 646,-2352.5 646,-2322.5 301,-2322.5"/>
<text text-anchor="start" x="308" y="-2333.9" font-family="Arial" font-size="14.00" fill="#000000">createdby    </text>
<text text-anchor="start" x="403.669" y="-2333.9" font-family="Arial" font-size="14.00" fill="#666666">[integer]</text>
<polygon fill="none" stroke="#000000" points="301,-2292.5 301,-2322.5 646,-2322.5 646,-2292.5 301,-2292.5"/>
<text text-anchor="start" x="308" y="-2303.9" font-family="Arial" font-size="14.00" fill="#000000">createdon    </text>
<text text-anchor="start" x="404.4516" y="-2303.9" font-family="Arial" font-size="14.00" fill="#666666">[timestamp without time zone]</text>
<polygon fill="none" stroke="#000000" points="301,-2262.5 301,-2292.5 646,-2292.5 646,-2262.5 301,-2262.5"/>
<text text-anchor="start" x="308" y="-2273.9" font-family="Arial" font-size="14.00" fill="#000000">editlog    </text>
<text text-anchor="start" x="383.439" y="-2273.9" font-family="Arial" font-size="14.00" fill="#666666">[text]</text>
<polygon fill="none" stroke="#000000" points="301,-2232.5 301,-2262.5 646,-2262.5 646,-2232.5 301,-2232.5"/>
<text text-anchor="start" x="308" y="-2243.9" font-family="Arial" font-size="14.00" fill="#000000">tallyipandportno    </text>
<text text-anchor="start" x="441.0098" y="-2243.9" font-family="Arial" font-size="14.00" fill="#666666">[varchar(200)]</text>
<polygon fill="none" stroke="#000000" points="301,-2202.5 301,-2232.5 646,-2232.5 646,-2202.5 301,-2202.5"/>
<text text-anchor="start" x="308" y="-2213.9" font-family="Arial" font-size="14.00" fill="#000000">tallybookname    </text>
<text text-anchor="start" x="432.4474" y="-2213.9" font-family="Arial" font-size="14.00" fill="#666666">[varchar(200)]</text>
<polygon fill="none" stroke="#000000" points="301,-2172.5 301,-2202.5 646,-2202.5 646,-2172.5 301,-2172.5"/>
<text text-anchor="start" x="308" y="-2183.9" font-family="Arial" font-size="14.00" fill="#000000">branchshortname    </text>
<text text-anchor="start" x="451.1206" y="-2183.9" font-family="Arial" font-size="14.00" fill="#666666">[varchar(5)]</text>
<polygon fill="none" stroke="#000000" points="301,-2142.5 301,-2172.5 646,-2172.5 646,-2142.5 301,-2142.5"/>
<text text-anchor="start" x="308" y="-2153.9" font-family="Arial" font-size="14.00" fill="#000000">cstno    </text>
<text text-anchor="start" x="375.6606" y="-2153.9" font-family="Arial" font-size="14.00" fill="#666666">[varchar(30)]</text>
<polygon fill="none" stroke="#000000" points="301,-2112.5 301,-2142.5 646,-2142.5 646,-2112.5 301,-2112.5"/>
<text text-anchor="start" x="308" y="-2123.9" font-family="Arial" font-size="14.00" fill="#000000">dtno    </text>
<text text-anchor="start" x="369.4432" y="-2123.9" font-family="Arial" font-size="14.00" fill="#666666">[varchar(30)]</text>
<polygon fill="none" stroke="#000000" points="301,-2082.5 301,-2112.5 646,-2112.5 646,-2082.5 301,-2082.5"/>
<text text-anchor="start" x="308" y="-2093.9" font-family="Arial" font-size="14.00" fill="#000000">tinno    </text>
<text text-anchor="start" x="372.5498" y="-2093.9" font-family="Arial" font-size="14.00" fill="#666666">[varchar(30)]</text>
<polygon fill="none" stroke="#000000" points="301,-2052.5 301,-2082.5 646,-2082.5 646,-2052.5 301,-2052.5"/>
<text text-anchor="start" x="308" y="-2063.9" font-family="Arial" font-size="14.00" fill="#000000">divison    </text>
<text text-anchor="start" x="385.7658" y="-2063.9" font-family="Arial" font-size="14.00" fill="#666666">[varchar(30)]</text>
<polygon fill="none" stroke="#000000" points="301,-2022.5 301,-2052.5 646,-2052.5 646,-2022.5 301,-2022.5"/>
<text text-anchor="start" x="308" y="-2033.9" font-family="Arial" font-size="14.00" fill="#000000">range    </text>
<text text-anchor="start" x="377.9958" y="-2033.9" font-family="Arial" font-size="14.00" fill="#666666">[varchar(30)]</text>
<polygon fill="none" stroke="#000000" points="301,-1992.5 301,-2022.5 646,-2022.5 646,-1992.5 301,-1992.5"/>
<text text-anchor="start" x="308" y="-2003.9" font-family="Arial" font-size="14.00" fill="#000000">assesseecode    </text>
<text text-anchor="start" x="431.683" y="-2003.9" font-family="Arial" font-size="14.00" fill="#666666">[varchar(30)]</text>
<polygon fill="none" stroke="#000000" points="301,-1962.5 301,-1992.5 646,-1992.5 646,-1962.5 301,-1962.5"/>
<text text-anchor="start" x="308" y="-1973.9" font-family="Arial" font-size="14.00" fill="#000000">regdoffice    </text>
<text text-anchor="start" x="403.6662" y="-1973.9" font-family="Arial" font-size="14.00" fill="#666666">[varchar(200)]</text>
<polygon fill="none" stroke="#000000" points="301,-1932.5 301,-1962.5 646,-1962.5 646,-1932.5 301,-1932.5"/>
<text text-anchor="start" x="308" y="-1943.9" font-family="Arial" font-size="14.00" fill="#000000">regphoneno    </text>
<text text-anchor="start" x="416.9088" y="-1943.9" font-family="Arial" font-size="14.00" fill="#666666">[varchar(30)]</text>
<polygon fill="none" stroke="#000000" points="301,-1902.5 301,-1932.5 646,-1932.5 646,-1902.5 301,-1902.5"/>
<text text-anchor="start" x="308" y="-1913.9" font-family="Arial" font-size="14.00" fill="#000000">faxno    </text>
<text text-anchor="start" x="376.4432" y="-1913.9" font-family="Arial" font-size="14.00" fill="#666666">[varchar(30)]</text>
<polygon fill="none" stroke="#000000" points="301,-1872.5 301,-1902.5 646,-1902.5 646,-1872.5 301,-1872.5"/>
<text text-anchor="start" x="308" y="-1883.9" font-family="Arial" font-size="14.00" fill="#000000">email    </text>
<text text-anchor="start" x="375.6438" y="-1883.9" font-family="Arial" font-size="14.00" fill="#666666">[varchar(50)]</text>
<polygon fill="none" stroke="#000000" points="301,-1842.5 301,-1872.5 646,-1872.5 646,-1842.5 301,-1842.5"/>
<text text-anchor="start" x="308" y="-1853.9" font-family="Arial" font-size="14.00" fill="#000000">headauthorizedby    </text>
<text text-anchor="start" x="453.4712" y="-1853.9" font-family="Arial" font-size="14.00" fill="#666666">[integer]</text>
<polygon fill="none" stroke="#000000" points="301,-1812.5 301,-1842.5 646,-1842.5 646,-1812.5 301,-1812.5"/>
<text text-anchor="start" x="307.803" y="-1823.9" font-family="Arial" font-size="14.00" fill="#000000">headauthorizedon    </text>
<text text-anchor="start" x="454.0568" y="-1823.9" font-family="Arial" font-size="14.00" fill="#666666">[timestamp without time zone]</text>
<polygon fill="none" stroke="#000000" points="301,-1782.5 301,-1812.5 646,-1812.5 646,-1782.5 301,-1782.5"/>
<text text-anchor="start" x="308" y="-1793.9" font-family="Arial" font-size="14.00" fill="#000000">branchtype    </text>
<text text-anchor="start" x="411.4516" y="-1793.9" font-family="Arial" font-size="14.00" fill="#666666">[integer]</text>
<polygon fill="none" stroke="#000000" points="301,-1752.5 301,-1782.5 646,-1782.5 646,-1752.5 301,-1752.5"/>
<text text-anchor="start" x="308" y="-1763.9" font-family="Arial" font-size="14.00" fill="#000000">booksbeginingfrom    </text>
<text text-anchor="start" x="460.4558" y="-1763.9" font-family="Arial" font-size="14.00" fill="#666666">[date]</text>
<polygon fill="none" stroke="#000000" points="301,-1722.5 301,-1752.5 646,-1752.5 646,-1722.5 301,-1722.5"/>
<text text-anchor="start" x="308" y="-1733.9" font-family="Arial" font-size="14.00" fill="#000000">excisebookname    </text>
<text text-anchor="start" x="447.2328" y="-1733.9" font-family="Arial" font-size="14.00" fill="#666666">[varchar]</text>
<polygon fill="none" stroke="#000000" points="301,-1692.5 301,-1722.5 646,-1722.5 646,-1692.5 301,-1692.5"/>
<text text-anchor="start" x="308" y="-1703.9" font-family="Arial" font-size="14.00" fill="#000000">autoemail    </text>
<text text-anchor="start" x="402.8822" y="-1703.9" font-family="Arial" font-size="14.00" fill="#666666">[boolean]</text>
<polygon fill="none" stroke="#000000" points="301,-1662.5 301,-1692.5 646,-1692.5 646,-1662.5 301,-1662.5"/>
<text text-anchor="start" x="308" y="-1673.9" font-family="Arial" font-size="14.00" fill="#000000">inactivedate    </text>
<text text-anchor="start" x="416.8948" y="-1673.9" font-family="Arial" font-size="14.00" fill="#666666">[timestamp without time zone]</text>
<polygon fill="none" stroke="#000000" points="301,-1632.5 301,-1662.5 646,-1662.5 646,-1632.5 301,-1632.5"/>
<text text-anchor="start" x="308" y="-1643.9" font-family="Arial" font-size="14.00" fill="#000000">branch_logo1    </text>
<text text-anchor="start" x="427.0154" y="-1643.9" font-family="Arial" font-size="14.00" fill="#666666">[bytea]</text>
<polygon fill="none" stroke="#000000" points="301,-1602.5 301,-1632.5 646,-1632.5 646,-1602.5 301,-1602.5"/>
<text text-anchor="start" x="308" y="-1613.9" font-family="Arial" font-size="14.00" fill="#000000">branch_logo2    </text>
<text text-anchor="start" x="427.0154" y="-1613.9" font-family="Arial" font-size="14.00" fill="#666666">[bytea]</text>
<polygon fill="none" stroke="#000000" points="301,-1572.5 301,-1602.5 646,-1602.5 646,-1572.5 301,-1572.5"/>
<text text-anchor="start" x="308" y="-1583.9" font-family="Arial" font-size="14.00" fill="#000000">branch_logo3    </text>
<text text-anchor="start" x="427.0154" y="-1583.9" font-family="Arial" font-size="14.00" fill="#666666">[bytea]</text>
<polygon fill="none" stroke="#000000" points="301,-1542.5 301,-1572.5 646,-1572.5 646,-1542.5 301,-1542.5"/>
<text text-anchor="start" x="308" y="-1553.9" font-family="Arial" font-size="14.00" fill="#000000">branch_logo4    </text>
<text text-anchor="start" x="427.0154" y="-1553.9" font-family="Arial" font-size="14.00" fill="#666666">[bytea]</text>
<polygon fill="none" stroke="#000000" points="301,-1512.5 301,-1542.5 646,-1542.5 646,-1512.5 301,-1512.5"/>
<text text-anchor="start" x="308" y="-1523.9" font-family="Arial" font-size="14.00" fill="#000000">branch_logo5    </text>
<text text-anchor="start" x="427.0154" y="-1523.9" font-family="Arial" font-size="14.00" fill="#666666">[bytea]</text>
<polygon fill="none" stroke="#000000" points="301,-1482.5 301,-1512.5 646,-1512.5 646,-1482.5 301,-1482.5"/>
<text text-anchor="start" x="308" y="-1493.9" font-family="Arial" font-size="14.00" fill="#000000">groupid    </text>
<text text-anchor="start" x="388.885" y="-1493.9" font-family="Arial" font-size="14.00" fill="#666666">[integer]</text>
<polygon fill="none" stroke="#000000" points="301,-1452.5 301,-1482.5 646,-1482.5 646,-1452.5 301,-1452.5"/>
<text text-anchor="start" x="308" y="-1463.9" font-family="Arial" font-size="14.00" fill="#000000">companyid    </text>
<text text-anchor="start" x="409.885" y="-1463.9" font-family="Arial" font-size="14.00" fill="#666666">[integer]</text>
<polygon fill="none" stroke="#000000" points="301,-1422.5 301,-1452.5 646,-1452.5 646,-1422.5 301,-1422.5"/>
<text text-anchor="start" x="308" y="-1433.9" font-family="Arial" font-size="14.00" fill="#000000">enablefreescheme    </text>
<text text-anchor="start" x="457.3492" y="-1433.9" font-family="Arial" font-size="14.00" fill="#666666">[boolean]</text>
<polygon fill="none" stroke="#000000" points="301,-1392.5 301,-1422.5 646,-1422.5 646,-1392.5 301,-1392.5"/>
<text text-anchor="start" x="308" y="-1403.9" font-family="Arial" font-size="14.00" fill="#000000">schemetodate    </text>
<text text-anchor="start" x="430.1248" y="-1403.9" font-family="Arial" font-size="14.00" fill="#666666">[date]</text>
<polygon fill="none" stroke="#000000" points="301,-1362.5 301,-1392.5 646,-1392.5 646,-1362.5 301,-1362.5"/>
<text text-anchor="start" x="308" y="-1373.9" font-family="Arial" font-size="14.00" fill="#000000">schemefromdate    </text>
<text text-anchor="start" x="446.446" y="-1373.9" font-family="Arial" font-size="14.00" fill="#666666">[date]</text>
<polygon fill="none" stroke="#000000" points="301,-1332.5 301,-1362.5 646,-1362.5 646,-1332.5 301,-1332.5"/>
<text text-anchor="start" x="308" y="-1343.9" font-family="Arial" font-size="14.00" fill="#000000">enablebackdateentry    </text>
<text text-anchor="start" x="472.1444" y="-1343.9" font-family="Arial" font-size="14.00" fill="#666666">[boolean]</text>
<polygon fill="none" stroke="#000000" points="301,-1302.5 301,-1332.5 646,-1332.5 646,-1302.5 301,-1302.5"/>
<text text-anchor="start" x="308" y="-1313.9" font-family="Arial" font-size="14.00" fill="#000000">backdate    </text>
<text text-anchor="start" x="399.0084" y="-1313.9" font-family="Arial" font-size="14.00" fill="#666666">[date]</text>
<polygon fill="none" stroke="#000000" points="301,-1272.5 301,-1302.5 646,-1302.5 646,-1272.5 301,-1272.5"/>
<text text-anchor="start" x="308" y="-1283.9" font-family="Arial" font-size="14.00" fill="#000000">ieccode    </text>
<text text-anchor="start" x="390.4418" y="-1283.9" font-family="Arial" font-size="14.00" fill="#666666">[varchar]</text>
<polygon fill="none" stroke="#000000" points="301,-1242.5 301,-1272.5 646,-1272.5 646,-1242.5 301,-1242.5"/>
<text text-anchor="start" x="308" y="-1253.9" font-family="Arial" font-size="14.00" fill="#000000">binno    </text>
<text text-anchor="start" x="376.4418" y="-1253.9" font-family="Arial" font-size="14.00" fill="#666666">[varchar]</text>
<polygon fill="none" stroke="#000000" points="301,-1212.5 301,-1242.5 646,-1242.5 646,-1212.5 301,-1212.5"/>
<text text-anchor="start" x="308" y="-1223.9" font-family="Arial" font-size="14.00" fill="#000000">locationcode    </text>
<text text-anchor="start" x="420.7868" y="-1223.9" font-family="Arial" font-size="14.00" fill="#666666">[varchar]</text>
<polygon fill="none" stroke="#000000" points="301,-1182.5 301,-1212.5 646,-1212.5 646,-1182.5 301,-1182.5"/>
<text text-anchor="start" x="308" y="-1193.9" font-family="Arial" font-size="14.00" fill="#000000">centralexciseposadd    </text>
<text text-anchor="start" x="469.7952" y="-1193.9" font-family="Arial" font-size="14.00" fill="#666666">[varchar]</text>
<polygon fill="none" stroke="#000000" points="301,-1152.5 301,-1182.5 646,-1182.5 646,-1152.5 301,-1152.5"/>
<text text-anchor="start" x="308" y="-1163.9" font-family="Arial" font-size="14.00" fill="#000000">portno    </text>
<text text-anchor="start" x="381.8864" y="-1163.9" font-family="Arial" font-size="14.00" fill="#666666">[integer]</text>
<polygon fill="none" stroke="#000000" points="301,-1122.5 301,-1152.5 646,-1152.5 646,-1122.5 301,-1122.5"/>
<text text-anchor="start" x="308" y="-1133.9" font-family="Arial" font-size="14.00" fill="#000000">smtpserver    </text>
<text text-anchor="start" x="411.425" y="-1133.9" font-family="Arial" font-size="14.00" fill="#666666">[varchar]</text>
<polygon fill="none" stroke="#000000" points="301,-1092.5 301,-1122.5 646,-1122.5 646,-1092.5 301,-1092.5"/>
<text text-anchor="start" x="308" y="-1103.9" font-family="Arial" font-size="14.00" fill="#000000">enablessl    </text>
<text text-anchor="start" x="401.331" y="-1103.9" font-family="Arial" font-size="14.00" fill="#666666">[boolean]</text>
<polygon fill="none" stroke="#000000" points="301,-1062.5 301,-1092.5 646,-1092.5 646,-1062.5 301,-1062.5"/>
<text text-anchor="start" x="308" y="-1073.9" font-family="Arial" font-size="14.00" fill="#000000">eccno    </text>
<text text-anchor="start" x="379.5526" y="-1073.9" font-family="Arial" font-size="14.00" fill="#666666">[varchar]</text>
<polygon fill="none" stroke="#000000" points="301,-1032.5 301,-1062.5 646,-1062.5 646,-1032.5 301,-1032.5"/>
<text text-anchor="start" x="308" y="-1043.9" font-family="Arial" font-size="14.00" fill="#000000">commision_rate    </text>
<text text-anchor="start" x="440.986" y="-1043.9" font-family="Arial" font-size="14.00" fill="#666666">[varchar(50)]</text>
<polygon fill="none" stroke="#000000" points="301,-1002.5 301,-1032.5 646,-1032.5 646,-1002.5 301,-1002.5"/>
<text text-anchor="start" x="308" y="-1013.9" font-family="Arial" font-size="14.00" fill="#000000">pfno    </text>
<text text-anchor="start" x="369.4432" y="-1013.9" font-family="Arial" font-size="14.00" fill="#666666">[varchar]</text>
<polygon fill="none" stroke="#000000" points="301,-972.5 301,-1002.5 646,-1002.5 646,-972.5 301,-972.5"/>
<text text-anchor="start" x="308" y="-983.9" font-family="Arial" font-size="14.00" fill="#000000">esino    </text>
<text text-anchor="start" x="375.6592" y="-983.9" font-family="Arial" font-size="14.00" fill="#666666">[varchar]</text>
<polygon fill="none" stroke="#000000" points="301,-942.5 301,-972.5 646,-972.5 646,-942.5 301,-942.5"/>
<text text-anchor="start" x="308" y="-953.9" font-family="Arial" font-size="14.00" fill="#000000">allow_offline_synchronization    </text>
<text text-anchor="start" x="524.2398" y="-953.9" font-family="Arial" font-size="14.00" fill="#666666">[boolean]</text>
<polygon fill="none" stroke="#000000" points="301,-912.5 301,-942.5 646,-942.5 646,-912.5 301,-912.5"/>
<text text-anchor="start" x="308" y="-923.9" font-family="Arial" font-size="14.00" fill="#000000">cinno    </text>
<text text-anchor="start" x="375.6592" y="-923.9" font-family="Arial" font-size="14.00" fill="#666666">[varchar(50)]</text>
<polygon fill="none" stroke="#000000" points="301,-882.5 301,-912.5 646,-912.5 646,-882.5 301,-882.5"/>
<text text-anchor="start" x="308" y="-893.9" font-family="Arial" font-size="14.00" fill="#000000">mail_server    </text>
<text text-anchor="start" x="414.5302" y="-893.9" font-family="Arial" font-size="14.00" fill="#666666">[integer]</text>
<polygon fill="none" stroke="#000000" points="301,-852.5 301,-882.5 646,-882.5 646,-852.5 301,-852.5"/>
<text text-anchor="start" x="308" y="-863.9" font-family="Arial" font-size="14.00" fill="#000000">is_sub_branch    </text>
<text text-anchor="start" x="433.2328" y="-863.9" font-family="Arial" font-size="14.00" fill="#666666">[boolean]</text>
<polygon fill="none" stroke="#000000" points="301,-822.5 301,-852.5 646,-852.5 646,-822.5 301,-822.5"/>
<text text-anchor="start" x="308" y="-833.9" font-family="Arial" font-size="14.00" fill="#000000">linked_branch_id    </text>
<text text-anchor="start" x="448.0112" y="-833.9" font-family="Arial" font-size="14.00" fill="#666666">[smallint]</text>
<polygon fill="none" stroke="#000000" points="301,-792.5 301,-822.5 646,-822.5 646,-792.5 301,-792.5"/>
<text text-anchor="start" x="308" y="-803.9" font-family="Arial" font-size="14.00" fill="#000000">manufacturing_or_trading    </text>
<text text-anchor="start" x="501.6886" y="-803.9" font-family="Arial" font-size="14.00" fill="#666666">[smallint]</text>
<polygon fill="none" stroke="#000000" points="301,-762.5 301,-792.5 646,-792.5 646,-762.5 301,-762.5"/>
<text text-anchor="start" x="308" y="-773.9" font-family="Arial" font-size="14.00" fill="#000000">bviewmode    </text>
<text text-anchor="start" x="412.9916" y="-773.9" font-family="Arial" font-size="14.00" fill="#666666">[boolean]</text>
<polygon fill="none" stroke="#000000" points="301,-732.5 301,-762.5 646,-762.5 646,-732.5 301,-732.5"/>
<text text-anchor="start" x="308" y="-743.9" font-family="Arial" font-size="14.00" fill="#000000">gstin    </text>
<text text-anchor="start" x="371.7672" y="-743.9" font-family="Arial" font-size="14.00" fill="#666666">[varchar(25)]</text>
<polygon fill="none" stroke="#000000" points="301,-702.5 301,-732.5 646,-732.5 646,-702.5 301,-702.5"/>
<text text-anchor="start" x="308" y="-713.9" font-family="Arial" font-size="14.00" fill="#000000">gstnregdate    </text>
<text text-anchor="start" x="416.1248" y="-713.9" font-family="Arial" font-size="14.00" fill="#666666">[date]</text>
<polygon fill="none" stroke="#000000" points="301,-672.5 301,-702.5 646,-702.5 646,-672.5 301,-672.5"/>
<text text-anchor="start" x="308" y="-683.9" font-family="Arial" font-size="14.00" fill="#000000">gstbranchtype    </text>
<text text-anchor="start" x="430.1248" y="-683.9" font-family="Arial" font-size="14.00" fill="#666666">[integer]</text>
<polygon fill="none" stroke="#000000" points="301,-642.5 301,-672.5 646,-672.5 646,-642.5 301,-642.5"/>
<text text-anchor="start" x="308" y="-653.9" font-family="Arial" font-size="14.00" fill="#000000">isavailableformrappintegration    </text>
<text text-anchor="start" x="528.8976" y="-653.9" font-family="Arial" font-size="14.00" fill="#666666">[boolean]</text>
<polygon fill="none" stroke="#000000" points="301,-612.5 301,-642.5 646,-642.5 646,-612.5 301,-612.5"/>
<text text-anchor="start" x="308" y="-623.9" font-family="Arial" font-size="14.00" fill="#000000">nicusername    </text>
<text text-anchor="start" x="422.3282" y="-623.9" font-family="Arial" font-size="14.00" fill="#666666">[varchar]</text>
<polygon fill="none" stroke="#000000" points="301,-582.5 301,-612.5 646,-612.5 646,-582.5 301,-582.5"/>
<text text-anchor="start" x="308" y="-593.9" font-family="Arial" font-size="14.00" fill="#000000">nicpassword    </text>
<text text-anchor="start" x="419.9916" y="-593.9" font-family="Arial" font-size="14.00" fill="#666666">[varchar]</text>
<polygon fill="none" stroke="#000000" points="301,-552.5 301,-582.5 646,-582.5 646,-552.5 301,-552.5"/>
<text text-anchor="start" x="308" y="-563.9" font-family="Arial" font-size="14.00" fill="#000000">ewayvalidfrom    </text>
<text text-anchor="start" x="431.6494" y="-563.9" font-family="Arial" font-size="14.00" fill="#666666">[date]</text>
<polygon fill="none" stroke="#000000" points="301,-522.5 301,-552.5 646,-552.5 646,-522.5 301,-522.5"/>
<text text-anchor="start" x="308" y="-533.9" font-family="Arial" font-size="14.00" fill="#000000">ewayvalidto    </text>
<text text-anchor="start" x="415.3282" y="-533.9" font-family="Arial" font-size="14.00" fill="#666666">[date]</text>
<polygon fill="none" stroke="#000000" points="301,-492.5 301,-522.5 646,-522.5 646,-492.5 301,-492.5"/>
<text text-anchor="start" x="308" y="-503.9" font-family="Arial" font-size="14.00" fill="#000000">website    </text>
<text text-anchor="start" x="389.6564" y="-503.9" font-family="Arial" font-size="14.00" fill="#666666">[varchar(1024)]</text>
<polygon fill="none" stroke="#000000" points="301,-462.5 301,-492.5 646,-492.5 646,-462.5 301,-462.5"/>
<text text-anchor="start" x="308" y="-473.9" font-family="Arial" font-size="14.00" fill="#000000">vendorportalurl    </text>
<text text-anchor="start" x="435.5512" y="-473.9" font-family="Arial" font-size="14.00" fill="#666666">[varchar(1024)]</text>
<polygon fill="none" stroke="#000000" points="301,-432.5 301,-462.5 646,-462.5 646,-432.5 301,-432.5"/>
<text text-anchor="start" x="308" y="-443.9" font-family="Arial" font-size="14.00" fill="#000000">apikey    </text>
<text text-anchor="start" x="382.6592" y="-443.9" font-family="Arial" font-size="14.00" fill="#666666">[varchar(1024)]</text>
<polygon fill="none" stroke="#000000" points="301,-402.5 301,-432.5 646,-432.5 646,-402.5 301,-402.5"/>
<text text-anchor="start" x="308" y="-413.9" font-family="Arial" font-size="14.00" fill="#000000">appnotificationkey    </text>
<text text-anchor="start" x="454.2398" y="-413.9" font-family="Arial" font-size="14.00" fill="#666666">[varchar(500)]</text>
<polygon fill="none" stroke="#000000" points="301,-372.5 301,-402.5 646,-402.5 646,-372.5 301,-372.5"/>
<text text-anchor="start" x="308" y="-383.9" font-family="Arial" font-size="14.00" fill="#000000">updatedby    </text>
<text text-anchor="start" x="407.5736" y="-383.9" font-family="Arial" font-size="14.00" fill="#666666">[integer]</text>
<polygon fill="none" stroke="#000000" points="301,-342.5 301,-372.5 646,-372.5 646,-342.5 301,-342.5"/>
<text text-anchor="start" x="308" y="-353.9" font-family="Arial" font-size="14.00" fill="#000000">updatedon    </text>
<text text-anchor="start" x="408.3562" y="-353.9" font-family="Arial" font-size="14.00" fill="#666666">[timestamp(6) without time zone]</text>
<polygon fill="none" stroke="#000000" points="301,-312.5 301,-342.5 646,-342.5 646,-312.5 301,-312.5"/>
<text text-anchor="start" x="308" y="-323.9" font-family="Arial" font-size="14.00" fill="#000000">isallowfortcstax    </text>
<text text-anchor="start" x="437.094" y="-323.9" font-family="Arial" font-size="14.00" fill="#666666">[boolean]</text>
<polygon fill="none" stroke="#000000" points="301,-282.5 301,-312.5 646,-312.5 646,-282.5 301,-282.5"/>
<text text-anchor="start" x="308" y="-293.9" font-family="Arial" font-size="14.00" fill="#000000">gstruname    </text>
<text text-anchor="start" x="408.3296" y="-293.9" font-family="Arial" font-size="14.00" fill="#666666">[varchar(50)]</text>
<polygon fill="none" stroke="#000000" points="301,-252.5 301,-282.5 646,-282.5 646,-252.5 301,-252.5"/>
<text text-anchor="start" x="308" y="-263.9" font-family="Arial" font-size="14.00" fill="#000000">upi_id    </text>
<text text-anchor="start" x="379.5484" y="-263.9" font-family="Arial" font-size="14.00" fill="#666666">[varchar(100)]</text>
<polygon fill="none" stroke="#000000" points="301,-222.5 301,-252.5 646,-252.5 646,-222.5 301,-222.5"/>
<text text-anchor="start" x="308" y="-233.9" font-family="Arial" font-size="14.00" fill="#000000">accountno    </text>
<text text-anchor="start" x="406.791" y="-233.9" font-family="Arial" font-size="14.00" fill="#666666">[varchar(100)]</text>
<polygon fill="none" stroke="#000000" points="301,-192.5 301,-222.5 646,-222.5 646,-192.5 301,-192.5"/>
<text text-anchor="start" x="308" y="-203.9" font-family="Arial" font-size="14.00" fill="#000000">ifsc_code    </text>
<text text-anchor="start" x="401.3324" y="-203.9" font-family="Arial" font-size="14.00" fill="#666666">[varchar(100)]</text>
<polygon fill="none" stroke="#000000" points="301,-162.5 301,-192.5 646,-192.5 646,-162.5 301,-162.5"/>
<text text-anchor="start" x="308" y="-173.9" font-family="Arial" font-size="14.00" fill="#000000">allowqrcode_b2cs    </text>
<text text-anchor="start" x="454.2286" y="-173.9" font-family="Arial" font-size="14.00" fill="#666666">[boolean]</text>
<polygon fill="none" stroke="#000000" points="301,-132.5 301,-162.5 646,-162.5 646,-132.5 301,-132.5"/>
<text text-anchor="start" x="308" y="-143.9" font-family="Arial" font-size="14.00" fill="#000000">isallowfortdstax    </text>
<text text-anchor="start" x="437.8766" y="-143.9" font-family="Arial" font-size="14.00" fill="#666666">[boolean]</text>
<polygon fill="none" stroke="#000000" points="301,-102.5 301,-132.5 646,-132.5 646,-102.5 301,-102.5"/>
<text text-anchor="start" x="308" y="-113.9" font-family="Arial" font-size="14.00" fill="#000000">fssai    </text>
<text text-anchor="start" x="370.9846" y="-113.9" font-family="Arial" font-size="14.00" fill="#666666">[varchar(20)]</text>
<polygon fill="none" stroke="#000000" points="301,-72.5 301,-102.5 646,-102.5 646,-72.5 301,-72.5"/>
<text text-anchor="start" x="308" y="-83.9" font-family="Arial" font-size="14.00" fill="#000000">fssai_expdate    </text>
<text text-anchor="start" x="428.5708" y="-83.9" font-family="Arial" font-size="14.00" fill="#666666">[date]</text>
<polygon fill="none" stroke="#000000" points="301,-42.5 301,-72.5 646,-72.5 646,-42.5 301,-42.5"/>
<text text-anchor="start" x="308" y="-53.9" font-family="Arial" font-size="14.00" fill="#000000">tally_version    </text>
<text text-anchor="start" x="419.9888" y="-53.9" font-family="Arial" font-size="14.00" fill="#666666">[numeric(10,2)]</text>
</g>
<!-- public.stor_storemaster&#45;&gt;public.branchmaster -->
<g id="edge1" class="edge">
<title>public.stor_storemaster:branchid&#45;&gt;public.branchmaster:branchid</title>
<path fill="none" stroke="#000000" d="M300.2939,-3574.1161C228.9268,-3522.0775 256.5505,-2886.4822 310,-2827 360.1914,-2771.1437 595.8086,-2846.8563 646,-2791 673.775,-2760.0902 687.5556,-2697.5 646,-2697.5"/>
<polygon fill="#000000" stroke="#000000" points="300.5574,-3574.2079 308.5186,-3581.7492 305.2787,-3575.8539 310,-3577.5 310,-3577.5 310,-3577.5 305.2787,-3575.8539 311.4814,-3573.2508 300.5574,-3574.2079 300.5574,-3574.2079"/>
<text text-anchor="start" x="6.936" y="-3587.5" font-family="Arial" font-size="10.00" fill="#000000">FOREIGN KEY (branchid) REFERENCES branchmaster(branchid)</text>
</g>
</g>
</svg>
