<?xml version="1.0" encoding="UTF-8" standalone="no"?>
<!DOCTYPE svg PUBLIC "-//W3C//DTD SVG 1.1//EN"
 "http://www.w3.org/Graphics/SVG/1.1/DTD/svg11.dtd">
<!-- Generated by graphviz version 2.40.1 (20161225.0304)
 -->
<!-- Title: public.pur_inwardchallansubstituteqtydetail Pages: 1 -->
<svg width="583pt" height="315pt"
 viewBox="0.00 0.00 583.00 315.00" xmlns="http://www.w3.org/2000/svg" xmlns:xlink="http://www.w3.org/1999/xlink">
<g id="graph0" class="graph" transform="scale(1 1) rotate(0) translate(4 311)">
<title>public.pur_inwardchallansubstituteqtydetail</title>
<polygon fill="#ffffff" stroke="transparent" points="-4,4 -4,-311 579,-311 579,4 -4,4"/>
<!-- public.pur_inwardchallansubstituteqtydetail -->
<g id="node1" class="node">
<title>public.pur_inwardchallansubstituteqtydetail</title>
<polygon fill="#efefef" stroke="transparent" points="46.5,-225.5 46.5,-260.5 529.5,-260.5 529.5,-225.5 46.5,-225.5"/>
<polygon fill="none" stroke="#000000" points="46.5,-225.5 46.5,-260.5 529.5,-260.5 529.5,-225.5 46.5,-225.5"/>
<text text-anchor="start" x="53.1782" y="-238.3" font-family="Arial Bold" font-size="18.00" fill="#000000">public.pur_inwardchallansubstituteqtydetail</text>
<text text-anchor="start" x="395.2538" y="-238.3" font-family="Arial" font-size="14.00" fill="#000000">    </text>
<text text-anchor="start" x="429.4586" y="-238.3" font-family="Arial" font-size="14.00" fill="#666666">[BASE TABLE]</text>
<polygon fill="none" stroke="#000000" points="46.5,-195.5 46.5,-225.5 529.5,-225.5 529.5,-195.5 46.5,-195.5"/>
<text text-anchor="start" x="53.5" y="-206.9" font-family="Arial" font-size="14.00" fill="#000000">substituteqtyid </text>
<text text-anchor="start" x="146.8618" y="-206.9" font-family="Arial" font-size="14.00" fill="#666666">[integer]</text>
<polygon fill="none" stroke="#000000" points="46.5,-165.5 46.5,-195.5 529.5,-195.5 529.5,-165.5 46.5,-165.5"/>
<text text-anchor="start" x="53.5" y="-176.9" font-family="Arial" font-size="14.00" fill="#000000">inwardchallanid </text>
<text text-anchor="start" x="153.845" y="-176.9" font-family="Arial" font-size="14.00" fill="#666666">[integer]</text>
<polygon fill="none" stroke="#000000" points="46.5,-135.5 46.5,-165.5 529.5,-165.5 529.5,-135.5 46.5,-135.5"/>
<text text-anchor="start" x="53.5" y="-146.9" font-family="Arial" font-size="14.00" fill="#000000">inwardchallandetailid </text>
<text text-anchor="start" x="187.2966" y="-146.9" font-family="Arial" font-size="14.00" fill="#666666">[integer]</text>
<polygon fill="none" stroke="#000000" points="46.5,-105.5 46.5,-135.5 529.5,-135.5 529.5,-105.5 46.5,-105.5"/>
<text text-anchor="start" x="53.5" y="-116.9" font-family="Arial" font-size="14.00" fill="#000000">consumeditemid </text>
<text text-anchor="start" x="159.2938" y="-116.9" font-family="Arial" font-size="14.00" fill="#666666">[integer]</text>
<polygon fill="none" stroke="#000000" points="46.5,-75.5 46.5,-105.5 529.5,-105.5 529.5,-75.5 46.5,-75.5"/>
<text text-anchor="start" x="53.5" y="-86.9" font-family="Arial" font-size="14.00" fill="#000000">consumeditemqty </text>
<text text-anchor="start" x="167.0778" y="-86.9" font-family="Arial" font-size="14.00" fill="#666666">[numeric(18,5)]</text>
<polygon fill="none" stroke="#000000" points="46.5,-45.5 46.5,-75.5 529.5,-75.5 529.5,-45.5 46.5,-45.5"/>
<text text-anchor="start" x="53.5" y="-56.9" font-family="Arial" font-size="14.00" fill="#000000">returnitemqty </text>
<text text-anchor="start" x="139.0638" y="-56.9" font-family="Arial" font-size="14.00" fill="#666666">[numeric(18,5)]</text>
<polygon fill="none" stroke="#000000" stroke-width="3" points="44.5,-44.5 44.5,-262.5 530.5,-262.5 530.5,-44.5 44.5,-44.5"/>
</g>
</g>
</svg>
