<?xml version="1.0" encoding="UTF-8" standalone="no"?>
<!DOCTYPE svg PUBLIC "-//W3C//DTD SVG 1.1//EN"
 "http://www.w3.org/Graphics/SVG/1.1/DTD/svg11.dtd">
<!-- Generated by graphviz version 2.40.1 (20161225.0304)
 -->
<!-- Title: public.prod_bomitemdetail Pages: 1 -->
<svg width="914pt" height="1942pt"
 viewBox="0.00 0.00 913.50 1942.00" xmlns="http://www.w3.org/2000/svg" xmlns:xlink="http://www.w3.org/1999/xlink">
<g id="graph0" class="graph" transform="scale(1 1) rotate(0) translate(4 1938)">
<title>public.prod_bomitemdetail</title>
<polygon fill="#ffffff" stroke="transparent" points="-4,4 -4,-1938 909.5,-1938 909.5,4 -4,4"/>
<!-- public.prod_bomitemdetail -->
<g id="node1" class="node">
<title>public.prod_bomitemdetail</title>
<polygon fill="#efefef" stroke="transparent" points="492,-975.5 492,-1010.5 843,-1010.5 843,-975.5 492,-975.5"/>
<polygon fill="none" stroke="#000000" points="492,-975.5 492,-1010.5 843,-1010.5 843,-975.5 492,-975.5"/>
<text text-anchor="start" x="498.6986" y="-988.3" font-family="Arial Bold" font-size="18.00" fill="#000000">public.prod_bomitemdetail</text>
<text text-anchor="start" x="708.7334" y="-988.3" font-family="Arial" font-size="14.00" fill="#000000">    </text>
<text text-anchor="start" x="742.9382" y="-988.3" font-family="Arial" font-size="14.00" fill="#666666">[BASE TABLE]</text>
<polygon fill="none" stroke="#000000" points="492,-945.5 492,-975.5 843,-975.5 843,-945.5 492,-945.5"/>
<text text-anchor="start" x="499" y="-956.9" font-family="Arial" font-size="14.00" fill="#000000">bomdetailid </text>
<text text-anchor="start" x="574.4572" y="-956.9" font-family="Arial" font-size="14.00" fill="#666666">[integer]</text>
<polygon fill="none" stroke="#000000" points="492,-915.5 492,-945.5 843,-945.5 843,-915.5 492,-915.5"/>
<text text-anchor="start" x="499" y="-926.9" font-family="Arial" font-size="14.00" fill="#000000">bomid </text>
<text text-anchor="start" x="541.0056" y="-926.9" font-family="Arial" font-size="14.00" fill="#666666">[integer]</text>
<polygon fill="none" stroke="#000000" points="492,-885.5 492,-915.5 843,-915.5 843,-885.5 492,-885.5"/>
<text text-anchor="start" x="499" y="-896.9" font-family="Arial" font-size="14.00" fill="#000000">itemid </text>
<text text-anchor="start" x="540.2202" y="-896.9" font-family="Arial" font-size="14.00" fill="#666666">[integer]</text>
<polygon fill="none" stroke="#000000" points="492,-855.5 492,-885.5 843,-885.5 843,-855.5 492,-855.5"/>
<text text-anchor="start" x="499" y="-866.9" font-family="Arial" font-size="14.00" fill="#000000">baseqty </text>
<text text-anchor="start" x="551.9116" y="-866.9" font-family="Arial" font-size="14.00" fill="#666666">[numeric(15,5)]</text>
<polygon fill="none" stroke="#000000" points="492,-825.5 492,-855.5 843,-855.5 843,-825.5 492,-825.5"/>
<text text-anchor="start" x="499" y="-836.9" font-family="Arial" font-size="14.00" fill="#000000">altqty </text>
<text text-anchor="start" x="536.3436" y="-836.9" font-family="Arial" font-size="14.00" fill="#666666">[numeric(15,5)]</text>
<polygon fill="none" stroke="#000000" points="492,-795.5 492,-825.5 843,-825.5 843,-795.5 492,-795.5"/>
<text text-anchor="start" x="499" y="-806.9" font-family="Arial" font-size="14.00" fill="#000000">toleranceplus </text>
<text text-anchor="start" x="586.1332" y="-806.9" font-family="Arial" font-size="14.00" fill="#666666">[numeric(10,2)]</text>
<polygon fill="none" stroke="#000000" points="492,-765.5 492,-795.5 843,-795.5 843,-765.5 492,-765.5"/>
<text text-anchor="start" x="499" y="-776.9" font-family="Arial" font-size="14.00" fill="#000000">toleranceminus </text>
<text text-anchor="start" x="597.7938" y="-776.9" font-family="Arial" font-size="14.00" fill="#666666">[numeric(10,2)]</text>
<polygon fill="none" stroke="#000000" points="492,-735.5 492,-765.5 843,-765.5 843,-735.5 492,-735.5"/>
<text text-anchor="start" x="499" y="-746.9" font-family="Arial" font-size="14.00" fill="#000000">itembomid </text>
<text text-anchor="start" x="567.446" y="-746.9" font-family="Arial" font-size="14.00" fill="#666666">[integer]</text>
<polygon fill="none" stroke="#000000" points="492,-705.5 492,-735.5 843,-735.5 843,-705.5 492,-705.5"/>
<text text-anchor="start" x="499" y="-716.9" font-family="Arial" font-size="14.00" fill="#000000">scrapitemid </text>
<text text-anchor="start" x="574.446" y="-716.9" font-family="Arial" font-size="14.00" fill="#666666">[integer]</text>
<polygon fill="none" stroke="#000000" points="492,-675.5 492,-705.5 843,-705.5 843,-675.5 492,-675.5"/>
<text text-anchor="start" x="499" y="-686.9" font-family="Arial" font-size="14.00" fill="#000000">scrappercentage </text>
<text text-anchor="start" x="607.1458" y="-686.9" font-family="Arial" font-size="14.00" fill="#666666">[numeric(5,2)]</text>
<polygon fill="none" stroke="#000000" points="492,-645.5 492,-675.5 843,-675.5 843,-645.5 492,-645.5"/>
<text text-anchor="start" x="499" y="-656.9" font-family="Arial" font-size="14.00" fill="#000000">scrapbaseqty </text>
<text text-anchor="start" x="586.1374" y="-656.9" font-family="Arial" font-size="14.00" fill="#666666">[numeric(15,5)]</text>
<polygon fill="none" stroke="#000000" points="492,-615.5 492,-645.5 843,-645.5 843,-615.5 492,-615.5"/>
<text text-anchor="start" x="499" y="-626.9" font-family="Arial" font-size="14.00" fill="#000000">scrapaltqty </text>
<text text-anchor="start" x="570.5694" y="-626.9" font-family="Arial" font-size="14.00" fill="#666666">[numeric(15,5)]</text>
<polygon fill="none" stroke="#000000" points="492,-585.5 492,-615.5 843,-615.5 843,-585.5 492,-585.5"/>
<text text-anchor="start" x="499" y="-596.9" font-family="Arial" font-size="14.00" fill="#000000">burninglosspercentage </text>
<text text-anchor="start" x="644.4894" y="-596.9" font-family="Arial" font-size="14.00" fill="#666666">[numeric(5,2)]</text>
<polygon fill="none" stroke="#000000" points="492,-555.5 492,-585.5 843,-585.5 843,-555.5 492,-555.5"/>
<text text-anchor="start" x="499" y="-566.9" font-family="Arial" font-size="14.00" fill="#000000">burninglossaltqty </text>
<text text-anchor="start" x="607.913" y="-566.9" font-family="Arial" font-size="14.00" fill="#666666">[numeric(15,5)]</text>
<polygon fill="none" stroke="#000000" points="492,-525.5 492,-555.5 843,-555.5 843,-525.5 492,-525.5"/>
<text text-anchor="start" x="499" y="-536.9" font-family="Arial" font-size="14.00" fill="#000000">burninglossbaseqty </text>
<text text-anchor="start" x="623.481" y="-536.9" font-family="Arial" font-size="14.00" fill="#666666">[numeric(15,5)]</text>
<polygon fill="none" stroke="#000000" points="492,-495.5 492,-525.5 843,-525.5 843,-495.5 492,-495.5"/>
<text text-anchor="start" x="499" y="-506.9" font-family="Arial" font-size="14.00" fill="#000000">calculationbasedonaltunit </text>
<text text-anchor="start" x="660.0518" y="-506.9" font-family="Arial" font-size="14.00" fill="#666666">[smallint]</text>
<polygon fill="none" stroke="#000000" points="492,-465.5 492,-495.5 843,-495.5 843,-465.5 492,-465.5"/>
<text text-anchor="start" x="499" y="-476.9" font-family="Arial" font-size="14.00" fill="#000000">isusedinbsgeneration </text>
<text text-anchor="start" x="635.1528" y="-476.9" font-family="Arial" font-size="14.00" fill="#666666">[boolean]</text>
<polygon fill="none" stroke="#000000" points="492,-435.5 492,-465.5 843,-465.5 843,-435.5 492,-435.5"/>
<text text-anchor="start" x="499" y="-446.9" font-family="Arial" font-size="14.00" fill="#000000">grossqty </text>
<text text-anchor="start" x="555.7896" y="-446.9" font-family="Arial" font-size="14.00" fill="#666666">[numeric(15,5)]</text>
<polygon fill="none" stroke="#000000" points="492,-405.5 492,-435.5 843,-435.5 843,-405.5 492,-405.5"/>
<text text-anchor="start" x="499" y="-416.9" font-family="Arial" font-size="14.00" fill="#000000">grossaltqty </text>
<text text-anchor="start" x="570.5694" y="-416.9" font-family="Arial" font-size="14.00" fill="#666666">[numeric(15,5)]</text>
<polygon fill="none" stroke="#000000" points="492,-375.5 492,-405.5 843,-405.5 843,-375.5 492,-375.5"/>
<text text-anchor="start" x="499" y="-386.9" font-family="Arial" font-size="14.00" fill="#000000">labelclaim </text>
<text text-anchor="start" x="565.108" y="-386.9" font-family="Arial" font-size="14.00" fill="#666666">[numeric(10,2)]</text>
<polygon fill="none" stroke="#000000" points="492,-345.5 492,-375.5 843,-375.5 843,-345.5 492,-345.5"/>
<text text-anchor="start" x="499" y="-356.9" font-family="Arial" font-size="14.00" fill="#000000">overage </text>
<text text-anchor="start" x="553.4642" y="-356.9" font-family="Arial" font-size="14.00" fill="#666666">[numeric(10,2)]</text>
<polygon fill="none" stroke="#000000" points="492,-315.5 492,-345.5 843,-345.5 843,-315.5 492,-315.5"/>
<text text-anchor="start" x="499" y="-326.9" font-family="Arial" font-size="14.00" fill="#000000">composition </text>
<text text-anchor="start" x="577.568" y="-326.9" font-family="Arial" font-size="14.00" fill="#666666">[boolean]</text>
<polygon fill="none" stroke="#000000" points="492,-285.5 492,-315.5 843,-315.5 843,-285.5 492,-285.5"/>
<text text-anchor="start" x="499" y="-296.9" font-family="Arial" font-size="14.00" fill="#000000">factor </text>
<text text-anchor="start" x="537.8976" y="-296.9" font-family="Arial" font-size="14.00" fill="#666666">[numeric(10,5)]</text>
<polygon fill="none" stroke="#000000" points="492,-255.5 492,-285.5 843,-285.5 843,-255.5 492,-255.5"/>
<text text-anchor="start" x="499" y="-266.9" font-family="Arial" font-size="14.00" fill="#000000">labelclaimuom </text>
<text text-anchor="start" x="592.3338" y="-266.9" font-family="Arial" font-size="14.00" fill="#666666">[integer]</text>
<polygon fill="none" stroke="#000000" points="492,-225.5 492,-255.5 843,-255.5 843,-225.5 492,-225.5"/>
<text text-anchor="start" x="499" y="-236.9" font-family="Arial" font-size="14.00" fill="#000000">bomactualqty </text>
<text text-anchor="start" x="586.1346" y="-236.9" font-family="Arial" font-size="14.00" fill="#666666">[numeric(17,5)]</text>
<polygon fill="none" stroke="#000000" points="492,-195.5 492,-225.5 843,-225.5 843,-195.5 492,-195.5"/>
<text text-anchor="start" x="499" y="-206.9" font-family="Arial" font-size="14.00" fill="#000000">claimincontent </text>
<text text-anchor="start" x="592.3478" y="-206.9" font-family="Arial" font-size="14.00" fill="#666666">[numeric(10,2)]</text>
<polygon fill="none" stroke="#000000" points="492,-165.5 492,-195.5 843,-195.5 843,-165.5 492,-165.5"/>
<text text-anchor="start" x="499" y="-176.9" font-family="Arial" font-size="14.00" fill="#000000">claimincontentuom </text>
<text text-anchor="start" x="619.5736" y="-176.9" font-family="Arial" font-size="14.00" fill="#666666">[integer]</text>
<polygon fill="none" stroke="#000000" points="492,-135.5 492,-165.5 843,-165.5 843,-135.5 492,-135.5"/>
<text text-anchor="start" x="499" y="-146.9" font-family="Arial" font-size="14.00" fill="#000000">calculationformula </text>
<text text-anchor="start" x="615.6802" y="-146.9" font-family="Arial" font-size="14.00" fill="#666666">[text]</text>
<polygon fill="none" stroke="#000000" points="492,-105.5 492,-135.5 843,-135.5 843,-105.5 492,-105.5"/>
<text text-anchor="start" x="499" y="-116.9" font-family="Arial" font-size="14.00" fill="#000000">rejbaseqty </text>
<text text-anchor="start" x="567.4614" y="-116.9" font-family="Arial" font-size="14.00" fill="#666666">[numeric(15,5)]</text>
<polygon fill="none" stroke="#000000" points="492,-75.5 492,-105.5 843,-105.5 843,-75.5 492,-75.5"/>
<text text-anchor="start" x="499" y="-86.9" font-family="Arial" font-size="14.00" fill="#000000">rejaltqty </text>
<text text-anchor="start" x="551.8934" y="-86.9" font-family="Arial" font-size="14.00" fill="#666666">[numeric(15,5)]</text>
<polygon fill="none" stroke="#000000" points="492,-45.5 492,-75.5 843,-75.5 843,-45.5 492,-45.5"/>
<text text-anchor="start" x="499" y="-56.9" font-family="Arial" font-size="14.00" fill="#000000">description </text>
<text text-anchor="start" x="570.568" y="-56.9" font-family="Arial" font-size="14.00" fill="#666666">[varchar(500)]</text>
<polygon fill="none" stroke="#000000" stroke-width="3" points="490,-44.5 490,-1012.5 844,-1012.5 844,-44.5 490,-44.5"/>
</g>
<!-- public.prod_bomalternativeitem -->
<g id="node2" class="node">
<title>public.prod_bomalternativeitem</title>
<polygon fill="#efefef" stroke="transparent" points="472,-1855.5 472,-1890.5 863,-1890.5 863,-1855.5 472,-1855.5"/>
<polygon fill="none" stroke="#000000" points="472,-1855.5 472,-1890.5 863,-1890.5 863,-1855.5 472,-1855.5"/>
<text text-anchor="start" x="478.6952" y="-1868.3" font-family="Arial Bold" font-size="18.00" fill="#000000">public.prod_bomalternativeitem</text>
<text text-anchor="start" x="728.7368" y="-1868.3" font-family="Arial" font-size="14.00" fill="#000000">    </text>
<text text-anchor="start" x="762.9416" y="-1868.3" font-family="Arial" font-size="14.00" fill="#666666">[BASE TABLE]</text>
<polygon fill="none" stroke="#000000" points="472,-1825.5 472,-1855.5 863,-1855.5 863,-1825.5 472,-1825.5"/>
<text text-anchor="start" x="479" y="-1836.9" font-family="Arial" font-size="14.00" fill="#000000">bomalternativedetailid    </text>
<text text-anchor="start" x="649.3394" y="-1836.9" font-family="Arial" font-size="14.00" fill="#666666">[integer]</text>
<polygon fill="none" stroke="#000000" points="472,-1795.5 472,-1825.5 863,-1825.5 863,-1795.5 472,-1795.5"/>
<text text-anchor="start" x="479" y="-1806.9" font-family="Arial" font-size="14.00" fill="#000000">itemid    </text>
<text text-anchor="start" x="550.5344" y="-1806.9" font-family="Arial" font-size="14.00" fill="#666666">[integer]</text>
<polygon fill="none" stroke="#000000" points="472,-1765.5 472,-1795.5 863,-1795.5 863,-1765.5 472,-1765.5"/>
<text text-anchor="start" x="479" y="-1776.9" font-family="Arial" font-size="14.00" fill="#000000">bomdetailid    </text>
<text text-anchor="start" x="584.7714" y="-1776.9" font-family="Arial" font-size="14.00" fill="#666666">[integer]</text>
<polygon fill="none" stroke="#000000" points="472,-1735.5 472,-1765.5 863,-1765.5 863,-1735.5 472,-1735.5"/>
<text text-anchor="start" x="479" y="-1746.9" font-family="Arial" font-size="14.00" fill="#000000">baseqty    </text>
<text text-anchor="start" x="562.2258" y="-1746.9" font-family="Arial" font-size="14.00" fill="#666666">[numeric(15,5)]</text>
<polygon fill="none" stroke="#000000" points="472,-1705.5 472,-1735.5 863,-1735.5 863,-1705.5 472,-1705.5"/>
<text text-anchor="start" x="479" y="-1716.9" font-family="Arial" font-size="14.00" fill="#000000">priority    </text>
<text text-anchor="start" x="555.195" y="-1716.9" font-family="Arial" font-size="14.00" fill="#666666">[integer]</text>
<polygon fill="none" stroke="#000000" points="472,-1675.5 472,-1705.5 863,-1705.5 863,-1675.5 472,-1675.5"/>
<text text-anchor="start" x="479" y="-1686.9" font-family="Arial" font-size="14.00" fill="#000000">altqty    </text>
<text text-anchor="start" x="546.6578" y="-1686.9" font-family="Arial" font-size="14.00" fill="#666666">[numeric(15,5)]</text>
<polygon fill="none" stroke="#000000" points="472,-1645.5 472,-1675.5 863,-1675.5 863,-1645.5 472,-1645.5"/>
<text text-anchor="start" x="479" y="-1656.9" font-family="Arial" font-size="14.00" fill="#000000">scrapitemid    </text>
<text text-anchor="start" x="584.7602" y="-1656.9" font-family="Arial" font-size="14.00" fill="#666666">[integer]</text>
<polygon fill="none" stroke="#000000" points="472,-1615.5 472,-1645.5 863,-1645.5 863,-1615.5 472,-1615.5"/>
<text text-anchor="start" x="479" y="-1626.9" font-family="Arial" font-size="14.00" fill="#000000">scrappercentage    </text>
<text text-anchor="start" x="617.46" y="-1626.9" font-family="Arial" font-size="14.00" fill="#666666">[numeric(5,2)]</text>
<polygon fill="none" stroke="#000000" points="472,-1585.5 472,-1615.5 863,-1615.5 863,-1585.5 472,-1585.5"/>
<text text-anchor="start" x="479" y="-1596.9" font-family="Arial" font-size="14.00" fill="#000000">scrapbaseqty    </text>
<text text-anchor="start" x="596.4516" y="-1596.9" font-family="Arial" font-size="14.00" fill="#666666">[numeric(15,5)]</text>
<polygon fill="none" stroke="#000000" points="472,-1555.5 472,-1585.5 863,-1585.5 863,-1555.5 472,-1555.5"/>
<text text-anchor="start" x="479" y="-1566.9" font-family="Arial" font-size="14.00" fill="#000000">scrapaltqty    </text>
<text text-anchor="start" x="580.8836" y="-1566.9" font-family="Arial" font-size="14.00" fill="#666666">[numeric(15,5)]</text>
<polygon fill="none" stroke="#000000" points="472,-1525.5 472,-1555.5 863,-1555.5 863,-1525.5 472,-1525.5"/>
<text text-anchor="start" x="479" y="-1536.9" font-family="Arial" font-size="14.00" fill="#000000">toleranceplus    </text>
<text text-anchor="start" x="596.4474" y="-1536.9" font-family="Arial" font-size="14.00" fill="#666666">[numeric(5,2)]</text>
<polygon fill="none" stroke="#000000" points="472,-1495.5 472,-1525.5 863,-1525.5 863,-1495.5 472,-1495.5"/>
<text text-anchor="start" x="479" y="-1506.9" font-family="Arial" font-size="14.00" fill="#000000">toleranceminus    </text>
<text text-anchor="start" x="608.108" y="-1506.9" font-family="Arial" font-size="14.00" fill="#666666">[numeric(5,2)]</text>
<polygon fill="none" stroke="#000000" points="472,-1465.5 472,-1495.5 863,-1495.5 863,-1465.5 472,-1465.5"/>
<text text-anchor="start" x="479" y="-1476.9" font-family="Arial" font-size="14.00" fill="#000000">itembomid    </text>
<text text-anchor="start" x="577.7602" y="-1476.9" font-family="Arial" font-size="14.00" fill="#666666">[integer]</text>
<polygon fill="none" stroke="#000000" points="472,-1435.5 472,-1465.5 863,-1465.5 863,-1435.5 472,-1435.5"/>
<text text-anchor="start" x="479" y="-1446.9" font-family="Arial" font-size="14.00" fill="#000000">burninglosspercentage    </text>
<text text-anchor="start" x="654.8036" y="-1446.9" font-family="Arial" font-size="14.00" fill="#666666">[numeric(5,2)]</text>
<polygon fill="none" stroke="#000000" points="472,-1405.5 472,-1435.5 863,-1435.5 863,-1405.5 472,-1405.5"/>
<text text-anchor="start" x="479" y="-1416.9" font-family="Arial" font-size="14.00" fill="#000000">burninglossbaseqty    </text>
<text text-anchor="start" x="633.7952" y="-1416.9" font-family="Arial" font-size="14.00" fill="#666666">[numeric(15,5)]</text>
<polygon fill="none" stroke="#000000" points="472,-1375.5 472,-1405.5 863,-1405.5 863,-1375.5 472,-1375.5"/>
<text text-anchor="start" x="479" y="-1386.9" font-family="Arial" font-size="14.00" fill="#000000">burninglossaltqty    </text>
<text text-anchor="start" x="618.2272" y="-1386.9" font-family="Arial" font-size="14.00" fill="#666666">[numeric(15,5)]</text>
<polygon fill="none" stroke="#000000" points="472,-1345.5 472,-1375.5 863,-1375.5 863,-1345.5 472,-1345.5"/>
<text text-anchor="start" x="479" y="-1356.9" font-family="Arial" font-size="14.00" fill="#000000">calculationbasedonaltunit    </text>
<text text-anchor="start" x="670.366" y="-1356.9" font-family="Arial" font-size="14.00" fill="#666666">[smallint]</text>
<polygon fill="none" stroke="#000000" points="472,-1315.5 472,-1345.5 863,-1345.5 863,-1315.5 472,-1315.5"/>
<text text-anchor="start" x="479" y="-1326.9" font-family="Arial" font-size="14.00" fill="#000000">isusedinbsgeneration    </text>
<text text-anchor="start" x="645.467" y="-1326.9" font-family="Arial" font-size="14.00" fill="#666666">[boolean]</text>
<polygon fill="none" stroke="#000000" points="472,-1285.5 472,-1315.5 863,-1315.5 863,-1285.5 472,-1285.5"/>
<text text-anchor="start" x="479" y="-1296.9" font-family="Arial" font-size="14.00" fill="#000000">labelclaim    </text>
<text text-anchor="start" x="575.4222" y="-1296.9" font-family="Arial" font-size="14.00" fill="#666666">[numeric(10,2)]</text>
<polygon fill="none" stroke="#000000" points="472,-1255.5 472,-1285.5 863,-1285.5 863,-1255.5 472,-1255.5"/>
<text text-anchor="start" x="479" y="-1266.9" font-family="Arial" font-size="14.00" fill="#000000">overage    </text>
<text text-anchor="start" x="563.7784" y="-1266.9" font-family="Arial" font-size="14.00" fill="#666666">[numeric(10,2)]</text>
<polygon fill="none" stroke="#000000" points="472,-1225.5 472,-1255.5 863,-1255.5 863,-1225.5 472,-1225.5"/>
<text text-anchor="start" x="479" y="-1236.9" font-family="Arial" font-size="14.00" fill="#000000">composition    </text>
<text text-anchor="start" x="587.8822" y="-1236.9" font-family="Arial" font-size="14.00" fill="#666666">[boolean]</text>
<polygon fill="none" stroke="#000000" points="472,-1195.5 472,-1225.5 863,-1225.5 863,-1195.5 472,-1195.5"/>
<text text-anchor="start" x="479" y="-1206.9" font-family="Arial" font-size="14.00" fill="#000000">factor    </text>
<text text-anchor="start" x="548.2118" y="-1206.9" font-family="Arial" font-size="14.00" fill="#666666">[numeric(10,5)]</text>
<polygon fill="none" stroke="#000000" points="472,-1165.5 472,-1195.5 863,-1195.5 863,-1165.5 472,-1165.5"/>
<text text-anchor="start" x="479" y="-1176.9" font-family="Arial" font-size="14.00" fill="#000000">labelclaimuom    </text>
<text text-anchor="start" x="602.648" y="-1176.9" font-family="Arial" font-size="14.00" fill="#666666">[integer]</text>
<polygon fill="none" stroke="#000000" points="472,-1135.5 472,-1165.5 863,-1165.5 863,-1135.5 472,-1135.5"/>
<text text-anchor="start" x="479" y="-1146.9" font-family="Arial" font-size="14.00" fill="#000000">description    </text>
<text text-anchor="start" x="580.8822" y="-1146.9" font-family="Arial" font-size="14.00" fill="#666666">[varchar(500)]</text>
</g>
<!-- public.prod_bomalternativeitem&#45;&gt;public.prod_bomitemdetail -->
<g id="edge1" class="edge">
<title>public.prod_bomalternativeitem:bomdetailid&#45;&gt;public.prod_bomitemdetail:bomdetailid</title>
<path fill="none" stroke="#000000" d="M462.3109,-1777.1961C382.4441,-1720.7699 404.2439,-960.5 492,-960.5"/>
<polygon fill="#000000" stroke="#000000" points="462.5351,-1777.2725 470.5476,-1784.7592 467.2676,-1778.8863 472,-1780.5 472,-1780.5 472,-1780.5 467.2676,-1778.8863 473.4524,-1776.2408 462.5351,-1777.2725 462.5351,-1777.2725"/>
<text text-anchor="start" x="6.543" y="-1790.5" font-family="Arial" font-size="10.00" fill="#000000">FOREIGN KEY (bomdetailid) REFERENCES prod_bomitemdetail(bomdetailid) ON DELETE CASCADE</text>
</g>
</g>
</svg>
