<?xml version="1.0" encoding="UTF-8" standalone="no"?>
<!DOCTYPE svg PUBLIC "-//W3C//DTD SVG 1.1//EN"
 "http://www.w3.org/Graphics/SVG/1.1/DTD/svg11.dtd">
<!-- Generated by graphviz version 2.40.1 (20161225.0304)
 -->
<!-- Title: public.qlty_deviationdetail Pages: 1 -->
<svg width="446pt" height="345pt"
 viewBox="0.00 0.00 446.00 345.00" xmlns="http://www.w3.org/2000/svg" xmlns:xlink="http://www.w3.org/1999/xlink">
<g id="graph0" class="graph" transform="scale(1 1) rotate(0) translate(4 341)">
<title>public.qlty_deviationdetail</title>
<polygon fill="#ffffff" stroke="transparent" points="-4,4 -4,-341 442,-341 442,4 -4,4"/>
<!-- public.qlty_deviationdetail -->
<g id="node1" class="node">
<title>public.qlty_deviationdetail</title>
<polygon fill="#efefef" stroke="transparent" points="46,-255.5 46,-290.5 392,-290.5 392,-255.5 46,-255.5"/>
<polygon fill="none" stroke="#000000" points="46,-255.5 46,-290.5 392,-290.5 392,-255.5 46,-255.5"/>
<text text-anchor="start" x="52.6916" y="-268.3" font-family="Arial Bold" font-size="18.00" fill="#000000">public.qlty_deviationdetail</text>
<text text-anchor="start" x="257.7404" y="-268.3" font-family="Arial" font-size="14.00" fill="#000000">    </text>
<text text-anchor="start" x="291.9452" y="-268.3" font-family="Arial" font-size="14.00" fill="#666666">[BASE TABLE]</text>
<polygon fill="none" stroke="#000000" points="46,-225.5 46,-255.5 392,-255.5 392,-225.5 46,-225.5"/>
<text text-anchor="start" x="53" y="-236.9" font-family="Arial" font-size="14.00" fill="#000000">deviationdetailid </text>
<text text-anchor="start" x="157.2482" y="-236.9" font-family="Arial" font-size="14.00" fill="#666666">[integer]</text>
<polygon fill="none" stroke="#000000" points="46,-195.5 46,-225.5 392,-225.5 392,-195.5 46,-195.5"/>
<text text-anchor="start" x="53" y="-206.9" font-family="Arial" font-size="14.00" fill="#000000">deviationid </text>
<text text-anchor="start" x="123.7966" y="-206.9" font-family="Arial" font-size="14.00" fill="#666666">[integer]</text>
<polygon fill="none" stroke="#000000" points="46,-165.5 46,-195.5 392,-195.5 392,-165.5 46,-165.5"/>
<text text-anchor="start" x="53" y="-176.9" font-family="Arial" font-size="14.00" fill="#000000">mainitemid </text>
<text text-anchor="start" x="124.5526" y="-176.9" font-family="Arial" font-size="14.00" fill="#666666">[integer]</text>
<polygon fill="none" stroke="#000000" points="46,-135.5 46,-165.5 392,-165.5 392,-135.5 46,-135.5"/>
<text text-anchor="start" x="53" y="-146.9" font-family="Arial" font-size="14.00" fill="#000000">degradeitemid </text>
<text text-anchor="start" x="145.5764" y="-146.9" font-family="Arial" font-size="14.00" fill="#666666">[integer]</text>
<polygon fill="none" stroke="#000000" points="46,-105.5 46,-135.5 392,-135.5 392,-105.5 46,-105.5"/>
<text text-anchor="start" x="53" y="-116.9" font-family="Arial" font-size="14.00" fill="#000000">degradeqty </text>
<text text-anchor="start" x="126.92" y="-116.9" font-family="Arial" font-size="14.00" fill="#666666">[numeric(15,7)]</text>
<polygon fill="none" stroke="#000000" points="46,-75.5 46,-105.5 392,-105.5 392,-75.5 46,-75.5"/>
<text text-anchor="start" x="53" y="-86.9" font-family="Arial" font-size="14.00" fill="#000000">degradealtqty </text>
<text text-anchor="start" x="141.6998" y="-86.9" font-family="Arial" font-size="14.00" fill="#666666">[numeric(15,7)]</text>
<polygon fill="none" stroke="#000000" points="46,-45.5 46,-75.5 392,-75.5 392,-45.5 46,-45.5"/>
<text text-anchor="start" x="53" y="-56.9" font-family="Arial" font-size="14.00" fill="#000000">reason </text>
<text text-anchor="start" x="99.6816" y="-56.9" font-family="Arial" font-size="14.00" fill="#666666">[varchar(100)]</text>
<polygon fill="none" stroke="#000000" stroke-width="3" points="44.5,-44.5 44.5,-292.5 393.5,-292.5 393.5,-44.5 44.5,-44.5"/>
</g>
</g>
</svg>
