<?xml version="1.0" encoding="UTF-8" standalone="no"?>
<!DOCTYPE svg PUBLIC "-//W3C//DTD SVG 1.1//EN"
 "http://www.w3.org/Graphics/SVG/1.1/DTD/svg11.dtd">
<!-- Generated by graphviz version 2.40.1 (20161225.0304)
 -->
<!-- Title: public.acc_exciseclassificationsgst_cgst_ammend_log Pages: 1 -->
<svg width="674pt" height="525pt"
 viewBox="0.00 0.00 674.00 525.00" xmlns="http://www.w3.org/2000/svg" xmlns:xlink="http://www.w3.org/1999/xlink">
<g id="graph0" class="graph" transform="scale(1 1) rotate(0) translate(4 521)">
<title>public.acc_exciseclassificationsgst_cgst_ammend_log</title>
<polygon fill="#ffffff" stroke="transparent" points="-4,4 -4,-521 670,-521 670,4 -4,4"/>
<!-- public.acc_exciseclassificationsgst_cgst_ammend_log -->
<g id="node1" class="node">
<title>public.acc_exciseclassificationsgst_cgst_ammend_log</title>
<polygon fill="#efefef" stroke="transparent" points="46,-435.5 46,-470.5 620,-470.5 620,-435.5 46,-435.5"/>
<polygon fill="none" stroke="#000000" points="46,-435.5 46,-470.5 620,-470.5 620,-435.5 46,-435.5"/>
<text text-anchor="start" x="52.6733" y="-448.3" font-family="Arial Bold" font-size="18.00" fill="#000000">public.acc_exciseclassificationsgst_cgst_ammend_log</text>
<text text-anchor="start" x="485.7587" y="-448.3" font-family="Arial" font-size="14.00" fill="#000000">    </text>
<text text-anchor="start" x="519.9635" y="-448.3" font-family="Arial" font-size="14.00" fill="#666666">[BASE TABLE]</text>
<polygon fill="none" stroke="#000000" points="46,-405.5 46,-435.5 620,-435.5 620,-405.5 46,-405.5"/>
<text text-anchor="start" x="53" y="-416.9" font-family="Arial" font-size="14.00" fill="#000000">amendid </text>
<text text-anchor="start" x="110.5708" y="-416.9" font-family="Arial" font-size="14.00" fill="#666666">[integer]</text>
<polygon fill="none" stroke="#000000" points="46,-375.5 46,-405.5 620,-405.5 620,-375.5 46,-375.5"/>
<text text-anchor="start" x="53" y="-386.9" font-family="Arial" font-size="14.00" fill="#000000">amendno </text>
<text text-anchor="start" x="115.2468" y="-386.9" font-family="Arial" font-size="14.00" fill="#666666">[integer]</text>
<polygon fill="none" stroke="#000000" points="46,-345.5 46,-375.5 620,-375.5 620,-345.5 46,-345.5"/>
<text text-anchor="start" x="53" y="-356.9" font-family="Arial" font-size="14.00" fill="#000000">exciseclassificationsgst_cgstid </text>
<text text-anchor="start" x="245.9186" y="-356.9" font-family="Arial" font-size="14.00" fill="#666666">[integer]</text>
<polygon fill="none" stroke="#000000" points="46,-315.5 46,-345.5 620,-345.5 620,-315.5 46,-315.5"/>
<text text-anchor="start" x="53" y="-326.9" font-family="Arial" font-size="14.00" fill="#000000">exciseclassificationid </text>
<text text-anchor="start" x="186.7896" y="-326.9" font-family="Arial" font-size="14.00" fill="#666666">[integer]</text>
<polygon fill="none" stroke="#000000" points="46,-285.5 46,-315.5 620,-315.5 620,-285.5 46,-285.5"/>
<text text-anchor="start" x="53" y="-296.9" font-family="Arial" font-size="14.00" fill="#000000">applicabledate </text>
<text text-anchor="start" x="147.1444" y="-296.9" font-family="Arial" font-size="14.00" fill="#666666">[date]</text>
<polygon fill="none" stroke="#000000" points="46,-255.5 46,-285.5 620,-285.5 620,-255.5 46,-255.5"/>
<text text-anchor="start" x="53" y="-266.9" font-family="Arial" font-size="14.00" fill="#000000">sgstrate </text>
<text text-anchor="start" x="106.6802" y="-266.9" font-family="Arial" font-size="14.00" fill="#666666">[numeric]</text>
<polygon fill="none" stroke="#000000" points="46,-225.5 46,-255.5 620,-255.5 620,-225.5 46,-225.5"/>
<text text-anchor="start" x="53" y="-236.9" font-family="Arial" font-size="14.00" fill="#000000">stateid </text>
<text text-anchor="start" x="98.1262" y="-236.9" font-family="Arial" font-size="14.00" fill="#666666">[integer]</text>
<polygon fill="none" stroke="#000000" points="46,-195.5 46,-225.5 620,-225.5 620,-195.5 46,-195.5"/>
<text text-anchor="start" x="53" y="-206.9" font-family="Arial" font-size="14.00" fill="#000000">createdby </text>
<text text-anchor="start" x="118.3548" y="-206.9" font-family="Arial" font-size="14.00" fill="#666666">[integer]</text>
<polygon fill="none" stroke="#000000" points="46,-165.5 46,-195.5 620,-195.5 620,-165.5 46,-165.5"/>
<text text-anchor="start" x="53" y="-176.9" font-family="Arial" font-size="14.00" fill="#000000">createdon </text>
<text text-anchor="start" x="119.1374" y="-176.9" font-family="Arial" font-size="14.00" fill="#666666">[timestamp(6) without time zone]</text>
<polygon fill="none" stroke="#000000" points="46,-135.5 46,-165.5 620,-165.5 620,-135.5 46,-135.5"/>
<text text-anchor="start" x="53" y="-146.9" font-family="Arial" font-size="14.00" fill="#000000">cgstrate </text>
<text text-anchor="start" x="106.6802" y="-146.9" font-family="Arial" font-size="14.00" fill="#666666">[numeric]</text>
<polygon fill="none" stroke="#000000" points="46,-105.5 46,-135.5 620,-135.5 620,-105.5 46,-105.5"/>
<text text-anchor="start" x="53" y="-116.9" font-family="Arial" font-size="14.00" fill="#000000">exciseclassificationigstid </text>
<text text-anchor="start" x="208.5694" y="-116.9" font-family="Arial" font-size="14.00" fill="#666666">[integer]</text>
<polygon fill="none" stroke="#000000" points="46,-75.5 46,-105.5 620,-105.5 620,-75.5 46,-75.5"/>
<text text-anchor="start" x="53" y="-86.9" font-family="Arial" font-size="14.00" fill="#000000">cessrate </text>
<text text-anchor="start" x="109.7896" y="-86.9" font-family="Arial" font-size="14.00" fill="#666666">[numeric(15,2)]</text>
<polygon fill="none" stroke="#000000" points="46,-45.5 46,-75.5 620,-75.5 620,-45.5 46,-45.5"/>
<text text-anchor="start" x="53" y="-56.9" font-family="Arial" font-size="14.00" fill="#000000">sno </text>
<text text-anchor="start" x="79.4558" y="-56.9" font-family="Arial" font-size="14.00" fill="#666666">[integer]</text>
<polygon fill="none" stroke="#000000" stroke-width="3" points="44.5,-44.5 44.5,-472.5 621.5,-472.5 621.5,-44.5 44.5,-44.5"/>
</g>
</g>
</svg>
