<?xml version="1.0" encoding="UTF-8" standalone="no"?>
<!DOCTYPE svg PUBLIC "-//W3C//DTD SVG 1.1//EN"
 "http://www.w3.org/Graphics/SVG/1.1/DTD/svg11.dtd">
<!-- Generated by graphviz version 2.40.1 (20161225.0304)
 -->
<!-- Title: public.comn_reportsettingtemplatedetail Pages: 1 -->
<svg width="559pt" height="285pt"
 viewBox="0.00 0.00 559.00 285.00" xmlns="http://www.w3.org/2000/svg" xmlns:xlink="http://www.w3.org/1999/xlink">
<g id="graph0" class="graph" transform="scale(1 1) rotate(0) translate(4 281)">
<title>public.comn_reportsettingtemplatedetail</title>
<polygon fill="#ffffff" stroke="transparent" points="-4,4 -4,-281 555,-281 555,4 -4,4"/>
<!-- public.comn_reportsettingtemplatedetail -->
<g id="node1" class="node">
<title>public.comn_reportsettingtemplatedetail</title>
<polygon fill="#efefef" stroke="transparent" points="46.5,-195.5 46.5,-230.5 505.5,-230.5 505.5,-195.5 46.5,-195.5"/>
<polygon fill="none" stroke="#000000" points="46.5,-195.5 46.5,-230.5 505.5,-230.5 505.5,-195.5 46.5,-195.5"/>
<text text-anchor="start" x="53.1824" y="-208.3" font-family="Arial Bold" font-size="18.00" fill="#000000">public.comn_reportsettingtemplatedetail</text>
<text text-anchor="start" x="371.2496" y="-208.3" font-family="Arial" font-size="14.00" fill="#000000">    </text>
<text text-anchor="start" x="405.4544" y="-208.3" font-family="Arial" font-size="14.00" fill="#666666">[BASE TABLE]</text>
<polygon fill="none" stroke="#000000" points="46.5,-165.5 46.5,-195.5 505.5,-195.5 505.5,-165.5 46.5,-165.5"/>
<text text-anchor="start" x="53.5" y="-176.9" font-family="Arial" font-size="14.00" fill="#000000">templatedetailid </text>
<text text-anchor="start" x="155.4102" y="-176.9" font-family="Arial" font-size="14.00" fill="#666666">[integer]</text>
<polygon fill="none" stroke="#000000" points="46.5,-135.5 46.5,-165.5 505.5,-165.5 505.5,-135.5 46.5,-135.5"/>
<text text-anchor="start" x="53.5" y="-146.9" font-family="Arial" font-size="14.00" fill="#000000">templateid </text>
<text text-anchor="start" x="121.9586" y="-146.9" font-family="Arial" font-size="14.00" fill="#666666">[integer]</text>
<polygon fill="none" stroke="#000000" points="46.5,-105.5 46.5,-135.5 505.5,-135.5 505.5,-105.5 46.5,-105.5"/>
<text text-anchor="start" x="53.5" y="-116.9" font-family="Arial" font-size="14.00" fill="#000000">parameterid </text>
<text text-anchor="start" x="132.0652" y="-116.9" font-family="Arial" font-size="14.00" fill="#666666">[integer]</text>
<polygon fill="none" stroke="#000000" points="46.5,-75.5 46.5,-105.5 505.5,-105.5 505.5,-75.5 46.5,-75.5"/>
<text text-anchor="start" x="53.5" y="-86.9" font-family="Arial" font-size="14.00" fill="#000000">parameter_value </text>
<text text-anchor="start" x="162.413" y="-86.9" font-family="Arial" font-size="14.00" fill="#666666">[varchar(200)]</text>
<polygon fill="none" stroke="#000000" points="46.5,-45.5 46.5,-75.5 505.5,-75.5 505.5,-45.5 46.5,-45.5"/>
<text text-anchor="start" x="53.5" y="-56.9" font-family="Arial" font-size="14.00" fill="#000000">parameter_default_value </text>
<text text-anchor="start" x="212.2138" y="-56.9" font-family="Arial" font-size="14.00" fill="#666666">[varchar(200)]</text>
<polygon fill="none" stroke="#000000" stroke-width="3" points="44.5,-44.5 44.5,-232.5 506.5,-232.5 506.5,-44.5 44.5,-44.5"/>
</g>
</g>
</svg>
