<?xml version="1.0" encoding="UTF-8" standalone="no"?>
<!DOCTYPE svg PUBLIC "-//W3C//DTD SVG 1.1//EN"
 "http://www.w3.org/Graphics/SVG/1.1/DTD/svg11.dtd">
<!-- Generated by graphviz version 2.40.1 (20161225.0304)
 -->
<!-- Title: public.pay_salaryslipdetails Pages: 1 -->
<svg width="459pt" height="465pt"
 viewBox="0.00 0.00 459.00 465.00" xmlns="http://www.w3.org/2000/svg" xmlns:xlink="http://www.w3.org/1999/xlink">
<g id="graph0" class="graph" transform="scale(1 1) rotate(0) translate(4 461)">
<title>public.pay_salaryslipdetails</title>
<polygon fill="#ffffff" stroke="transparent" points="-4,4 -4,-461 455,-461 455,4 -4,4"/>
<!-- public.pay_salaryslipdetails -->
<g id="node1" class="node">
<title>public.pay_salaryslipdetails</title>
<polygon fill="#efefef" stroke="transparent" points="46.5,-375.5 46.5,-410.5 405.5,-410.5 405.5,-375.5 46.5,-375.5"/>
<polygon fill="none" stroke="#000000" points="46.5,-375.5 46.5,-410.5 405.5,-410.5 405.5,-375.5 46.5,-375.5"/>
<text text-anchor="start" x="53.2008" y="-388.3" font-family="Arial Bold" font-size="18.00" fill="#000000">public.pay_salaryslipdetails</text>
<text text-anchor="start" x="271.2312" y="-388.3" font-family="Arial" font-size="14.00" fill="#000000">    </text>
<text text-anchor="start" x="305.436" y="-388.3" font-family="Arial" font-size="14.00" fill="#666666">[BASE TABLE]</text>
<polygon fill="none" stroke="#000000" points="46.5,-345.5 46.5,-375.5 405.5,-375.5 405.5,-345.5 46.5,-345.5"/>
<text text-anchor="start" x="53.5" y="-356.9" font-family="Arial" font-size="14.00" fill="#000000">salarydetailsid </text>
<text text-anchor="start" x="146.0638" y="-356.9" font-family="Arial" font-size="14.00" fill="#666666">[integer]</text>
<polygon fill="none" stroke="#000000" points="46.5,-315.5 46.5,-345.5 405.5,-345.5 405.5,-315.5 46.5,-315.5"/>
<text text-anchor="start" x="53.5" y="-326.9" font-family="Arial" font-size="14.00" fill="#000000">salarymasterid </text>
<text text-anchor="start" x="148.3892" y="-326.9" font-family="Arial" font-size="14.00" fill="#666666">[integer]</text>
<polygon fill="none" stroke="#000000" points="46.5,-285.5 46.5,-315.5 405.5,-315.5 405.5,-285.5 46.5,-285.5"/>
<text text-anchor="start" x="53.5" y="-296.9" font-family="Arial" font-size="14.00" fill="#000000">employeeid </text>
<text text-anchor="start" x="128.96" y="-296.9" font-family="Arial" font-size="14.00" fill="#666666">[integer]</text>
<polygon fill="none" stroke="#000000" points="46.5,-255.5 46.5,-285.5 405.5,-285.5 405.5,-255.5 46.5,-255.5"/>
<text text-anchor="start" x="53.5" y="-266.9" font-family="Arial" font-size="14.00" fill="#000000">tea </text>
<text text-anchor="start" x="76.8464" y="-266.9" font-family="Arial" font-size="14.00" fill="#666666">[numeric(8,2)]</text>
<polygon fill="none" stroke="#000000" points="46.5,-225.5 46.5,-255.5 405.5,-255.5 405.5,-225.5 46.5,-225.5"/>
<text text-anchor="start" x="53.5" y="-236.9" font-family="Arial" font-size="14.00" fill="#000000">total_allowance </text>
<text text-anchor="start" x="153.859" y="-236.9" font-family="Arial" font-size="14.00" fill="#666666">[numeric(18,2)]</text>
<polygon fill="none" stroke="#000000" points="46.5,-195.5 46.5,-225.5 405.5,-225.5 405.5,-195.5 46.5,-195.5"/>
<text text-anchor="start" x="53.5" y="-206.9" font-family="Arial" font-size="14.00" fill="#000000">total_deduction </text>
<text text-anchor="start" x="152.319" y="-206.9" font-family="Arial" font-size="14.00" fill="#666666">[numeric(18,2)]</text>
<polygon fill="none" stroke="#000000" points="46.5,-165.5 46.5,-195.5 405.5,-195.5 405.5,-165.5 46.5,-165.5"/>
<text text-anchor="start" x="53.5" y="-176.9" font-family="Arial" font-size="14.00" fill="#000000">net_salary </text>
<text text-anchor="start" x="121.9614" y="-176.9" font-family="Arial" font-size="14.00" fill="#666666">[numeric(18,2)]</text>
<polygon fill="none" stroke="#000000" points="46.5,-135.5 46.5,-165.5 405.5,-165.5 405.5,-135.5 46.5,-135.5"/>
<text text-anchor="start" x="53.5" y="-146.9" font-family="Arial" font-size="14.00" fill="#000000">advance </text>
<text text-anchor="start" x="110.3036" y="-146.9" font-family="Arial" font-size="14.00" fill="#666666">[numeric(8,2)]</text>
<polygon fill="none" stroke="#000000" points="46.5,-105.5 46.5,-135.5 405.5,-135.5 405.5,-105.5 46.5,-105.5"/>
<text text-anchor="start" x="53.5" y="-116.9" font-family="Arial" font-size="14.00" fill="#000000">paid </text>
<text text-anchor="start" x="83.845" y="-116.9" font-family="Arial" font-size="14.00" fill="#666666">[numeric(18,2)]</text>
<polygon fill="none" stroke="#000000" points="46.5,-75.5 46.5,-105.5 405.5,-105.5 405.5,-75.5 46.5,-75.5"/>
<text text-anchor="start" x="53.5" y="-86.9" font-family="Arial" font-size="14.00" fill="#000000">overtime </text>
<text text-anchor="start" x="111.0568" y="-86.9" font-family="Arial" font-size="14.00" fill="#666666">[numeric(18,2)]</text>
<polygon fill="none" stroke="#000000" points="46.5,-45.5 46.5,-75.5 405.5,-75.5 405.5,-45.5 46.5,-45.5"/>
<text text-anchor="start" x="53.5" y="-56.9" font-family="Arial" font-size="14.00" fill="#000000">arrear </text>
<text text-anchor="start" x="94.7202" y="-56.9" font-family="Arial" font-size="14.00" fill="#666666">[numeric(18,2)]</text>
<polygon fill="none" stroke="#000000" stroke-width="3" points="44.5,-44.5 44.5,-412.5 406.5,-412.5 406.5,-44.5 44.5,-44.5"/>
</g>
</g>
</svg>
