<?xml version="1.0" encoding="UTF-8" standalone="no"?>
<!DOCTYPE svg PUBLIC "-//W3C//DTD SVG 1.1//EN"
 "http://www.w3.org/Graphics/SVG/1.1/DTD/svg11.dtd">
<!-- Generated by graphviz version 2.40.1 (20161225.0304)
 -->
<!-- Title: public.meghali_svc Pages: 1 -->
<svg width="393pt" height="315pt"
 viewBox="0.00 0.00 393.00 315.00" xmlns="http://www.w3.org/2000/svg" xmlns:xlink="http://www.w3.org/1999/xlink">
<g id="graph0" class="graph" transform="scale(1 1) rotate(0) translate(4 311)">
<title>public.meghali_svc</title>
<polygon fill="#ffffff" stroke="transparent" points="-4,4 -4,-311 389,-311 389,4 -4,4"/>
<!-- public.meghali_svc -->
<g id="node1" class="node">
<title>public.meghali_svc</title>
<polygon fill="#efefef" stroke="transparent" points="46.5,-225.5 46.5,-260.5 339.5,-260.5 339.5,-225.5 46.5,-225.5"/>
<polygon fill="none" stroke="#000000" points="46.5,-225.5 46.5,-260.5 339.5,-260.5 339.5,-225.5 46.5,-225.5"/>
<text text-anchor="start" x="53.2056" y="-238.3" font-family="Arial Bold" font-size="18.00" fill="#000000">public.meghali_svc</text>
<text text-anchor="start" x="205.2264" y="-238.3" font-family="Arial" font-size="14.00" fill="#000000">    </text>
<text text-anchor="start" x="239.4312" y="-238.3" font-family="Arial" font-size="14.00" fill="#666666">[BASE TABLE]</text>
<polygon fill="none" stroke="#000000" points="46.5,-195.5 46.5,-225.5 339.5,-225.5 339.5,-195.5 46.5,-195.5"/>
<text text-anchor="start" x="53.5" y="-206.9" font-family="Arial" font-size="14.00" fill="#000000">poid </text>
<text text-anchor="start" x="83.845" y="-206.9" font-family="Arial" font-size="14.00" fill="#666666">[integer]</text>
<polygon fill="none" stroke="#000000" points="46.5,-165.5 46.5,-195.5 339.5,-195.5 339.5,-165.5 46.5,-165.5"/>
<text text-anchor="start" x="53.5" y="-176.9" font-family="Arial" font-size="14.00" fill="#000000">serviceitemid </text>
<text text-anchor="start" x="139.0526" y="-176.9" font-family="Arial" font-size="14.00" fill="#666666">[integer]</text>
<polygon fill="none" stroke="#000000" points="46.5,-135.5 46.5,-165.5 339.5,-165.5 339.5,-135.5 46.5,-135.5"/>
<text text-anchor="start" x="53.5" y="-146.9" font-family="Arial" font-size="14.00" fill="#000000">serviceqty </text>
<text text-anchor="start" x="120.3962" y="-146.9" font-family="Arial" font-size="14.00" fill="#666666">[numeric(15,5)]</text>
<polygon fill="none" stroke="#000000" points="46.5,-105.5 46.5,-135.5 339.5,-135.5 339.5,-105.5 46.5,-105.5"/>
<text text-anchor="start" x="53.5" y="-116.9" font-family="Arial" font-size="14.00" fill="#000000">servicerate </text>
<text text-anchor="start" x="125.8394" y="-116.9" font-family="Arial" font-size="14.00" fill="#666666">[numeric(15,5)]</text>
<polygon fill="none" stroke="#000000" points="46.5,-75.5 46.5,-105.5 339.5,-105.5 339.5,-75.5 46.5,-75.5"/>
<text text-anchor="start" x="53.5" y="-86.9" font-family="Arial" font-size="14.00" fill="#000000">servicetotal </text>
<text text-anchor="start" x="128.176" y="-86.9" font-family="Arial" font-size="14.00" fill="#666666">[numeric]</text>
<polygon fill="none" stroke="#000000" points="46.5,-45.5 46.5,-75.5 339.5,-75.5 339.5,-45.5 46.5,-45.5"/>
<text text-anchor="start" x="53.5" y="-56.9" font-family="Arial" font-size="14.00" fill="#000000">rowno </text>
<text text-anchor="start" x="95.5056" y="-56.9" font-family="Arial" font-size="14.00" fill="#666666">[bigint]</text>
<polygon fill="none" stroke="#000000" stroke-width="3" points="44.5,-44.5 44.5,-262.5 340.5,-262.5 340.5,-44.5 44.5,-44.5"/>
</g>
</g>
</svg>
