<?xml version="1.0" encoding="UTF-8" standalone="no"?>
<!DOCTYPE svg PUBLIC "-//W3C//DTD SVG 1.1//EN"
 "http://www.w3.org/Graphics/SVG/1.1/DTD/svg11.dtd">
<!-- Generated by graphviz version 2.40.1 (20161225.0304)
 -->
<!-- Title: public.stor_materalapprovaldetail_amendlog Pages: 1 -->
<svg width="594pt" height="615pt"
 viewBox="0.00 0.00 594.00 615.00" xmlns="http://www.w3.org/2000/svg" xmlns:xlink="http://www.w3.org/1999/xlink">
<g id="graph0" class="graph" transform="scale(1 1) rotate(0) translate(4 611)">
<title>public.stor_materalapprovaldetail_amendlog</title>
<polygon fill="#ffffff" stroke="transparent" points="-4,4 -4,-611 590,-611 590,4 -4,4"/>
<!-- public.stor_materalapprovaldetail_amendlog -->
<g id="node1" class="node">
<title>public.stor_materalapprovaldetail_amendlog</title>
<polygon fill="#efefef" stroke="transparent" points="46,-525.5 46,-560.5 540,-560.5 540,-525.5 46,-525.5"/>
<polygon fill="none" stroke="#000000" points="46,-525.5 46,-560.5 540,-560.5 540,-525.5 46,-525.5"/>
<text text-anchor="start" x="52.6801" y="-538.3" font-family="Arial Bold" font-size="18.00" fill="#000000">public.stor_materalapprovaldetail_amendlog</text>
<text text-anchor="start" x="405.7519" y="-538.3" font-family="Arial" font-size="14.00" fill="#000000">    </text>
<text text-anchor="start" x="439.9567" y="-538.3" font-family="Arial" font-size="14.00" fill="#666666">[BASE TABLE]</text>
<polygon fill="none" stroke="#000000" points="46,-495.5 46,-525.5 540,-525.5 540,-495.5 46,-495.5"/>
<text text-anchor="start" x="53" y="-506.9" font-family="Arial" font-size="14.00" fill="#000000">amendlogid </text>
<text text-anchor="start" x="129.2426" y="-506.9" font-family="Arial" font-size="14.00" fill="#666666">[integer]</text>
<polygon fill="none" stroke="#000000" points="46,-465.5 46,-495.5 540,-495.5 540,-465.5 46,-465.5"/>
<text text-anchor="start" x="53" y="-476.9" font-family="Arial" font-size="14.00" fill="#000000">mafdetailid </text>
<text text-anchor="start" x="124.5652" y="-476.9" font-family="Arial" font-size="14.00" fill="#666666">[integer]</text>
<polygon fill="none" stroke="#000000" points="46,-435.5 46,-465.5 540,-465.5 540,-435.5 46,-435.5"/>
<text text-anchor="start" x="53" y="-446.9" font-family="Arial" font-size="14.00" fill="#000000">mafid </text>
<text text-anchor="start" x="91.1136" y="-446.9" font-family="Arial" font-size="14.00" fill="#666666">[integer]</text>
<polygon fill="none" stroke="#000000" points="46,-405.5 46,-435.5 540,-435.5 540,-405.5 46,-405.5"/>
<text text-anchor="start" x="53" y="-416.9" font-family="Arial" font-size="14.00" fill="#000000">requisitiondetailid </text>
<text text-anchor="start" x="165.0154" y="-416.9" font-family="Arial" font-size="14.00" fill="#666666">[integer]</text>
<polygon fill="none" stroke="#000000" points="46,-375.5 46,-405.5 540,-405.5 540,-375.5 46,-375.5"/>
<text text-anchor="start" x="53" y="-386.9" font-family="Arial" font-size="14.00" fill="#000000">requisitionid </text>
<text text-anchor="start" x="131.5638" y="-386.9" font-family="Arial" font-size="14.00" fill="#666666">[integer]</text>
<polygon fill="none" stroke="#000000" points="46,-345.5 46,-375.5 540,-375.5 540,-345.5 46,-345.5"/>
<text text-anchor="start" x="53" y="-356.9" font-family="Arial" font-size="14.00" fill="#000000">itemid </text>
<text text-anchor="start" x="94.2202" y="-356.9" font-family="Arial" font-size="14.00" fill="#666666">[integer]</text>
<polygon fill="none" stroke="#000000" points="46,-315.5 46,-345.5 540,-345.5 540,-315.5 46,-315.5"/>
<text text-anchor="start" x="53" y="-326.9" font-family="Arial" font-size="14.00" fill="#000000">storeid </text>
<text text-anchor="start" x="98.8962" y="-326.9" font-family="Arial" font-size="14.00" fill="#666666">[integer]</text>
<polygon fill="none" stroke="#000000" points="46,-285.5 46,-315.5 540,-315.5 540,-285.5 46,-285.5"/>
<text text-anchor="start" x="53" y="-296.9" font-family="Arial" font-size="14.00" fill="#000000">requiredqty </text>
<text text-anchor="start" x="126.9046" y="-296.9" font-family="Arial" font-size="14.00" fill="#666666">[numeric(15,5)]</text>
<polygon fill="none" stroke="#000000" points="46,-255.5 46,-285.5 540,-285.5 540,-255.5 46,-255.5"/>
<text text-anchor="start" x="53" y="-266.9" font-family="Arial" font-size="14.00" fill="#000000">totaldeliveredqty </text>
<text text-anchor="start" x="158.8036" y="-266.9" font-family="Arial" font-size="14.00" fill="#666666">[numeric(15,5)]</text>
<polygon fill="none" stroke="#000000" points="46,-225.5 46,-255.5 540,-255.5 540,-225.5 46,-225.5"/>
<text text-anchor="start" x="53" y="-236.9" font-family="Arial" font-size="14.00" fill="#000000">sitestock </text>
<text text-anchor="start" x="111.3436" y="-236.9" font-family="Arial" font-size="14.00" fill="#666666">[numeric(15,5)]</text>
<polygon fill="none" stroke="#000000" points="46,-195.5 46,-225.5 540,-225.5 540,-195.5 46,-195.5"/>
<text text-anchor="start" x="53" y="-206.9" font-family="Arial" font-size="14.00" fill="#000000">centerstock </text>
<text text-anchor="start" x="128.4628" y="-206.9" font-family="Arial" font-size="14.00" fill="#666666">[numeric(15,5)]</text>
<polygon fill="none" stroke="#000000" points="46,-165.5 46,-195.5 540,-195.5 540,-165.5 46,-165.5"/>
<text text-anchor="start" x="53" y="-176.9" font-family="Arial" font-size="14.00" fill="#000000">rate </text>
<text text-anchor="start" x="81.007" y="-176.9" font-family="Arial" font-size="14.00" fill="#666666">[numeric(15,5)]</text>
<polygon fill="none" stroke="#000000" points="46,-135.5 46,-165.5 540,-165.5 540,-135.5 46,-135.5"/>
<text text-anchor="start" x="53" y="-146.9" font-family="Arial" font-size="14.00" fill="#000000">materialvalue </text>
<text text-anchor="start" x="140.1178" y="-146.9" font-family="Arial" font-size="14.00" fill="#666666">[numeric(15,5)]</text>
<polygon fill="none" stroke="#000000" points="46,-105.5 46,-135.5 540,-135.5 540,-105.5 46,-105.5"/>
<text text-anchor="start" x="53" y="-116.9" font-family="Arial" font-size="14.00" fill="#000000">balreqqty </text>
<text text-anchor="start" x="114.4614" y="-116.9" font-family="Arial" font-size="14.00" fill="#666666">[numeric(15,5)]</text>
<polygon fill="none" stroke="#000000" points="46,-75.5 46,-105.5 540,-105.5 540,-75.5 46,-75.5"/>
<text text-anchor="start" x="53" y="-86.9" font-family="Arial" font-size="14.00" fill="#000000">totalvalue </text>
<text text-anchor="start" x="116.798" y="-86.9" font-family="Arial" font-size="14.00" fill="#666666">[numeric(15,5)]</text>
<polygon fill="none" stroke="#000000" points="46,-45.5 46,-75.5 540,-75.5 540,-45.5 46,-45.5"/>
<text text-anchor="start" x="53" y="-56.9" font-family="Arial" font-size="14.00" fill="#000000">remarks </text>
<text text-anchor="start" x="107.4376" y="-56.9" font-family="Arial" font-size="14.00" fill="#666666">[text]</text>
<polygon fill="none" stroke="#000000" stroke-width="3" points="44.5,-44.5 44.5,-562.5 541.5,-562.5 541.5,-44.5 44.5,-44.5"/>
</g>
</g>
</svg>
