<?xml version="1.0" encoding="UTF-8" standalone="no"?>
<!DOCTYPE svg PUBLIC "-//W3C//DTD SVG 1.1//EN"
 "http://www.w3.org/Graphics/SVG/1.1/DTD/svg11.dtd">
<!-- Generated by graphviz version 2.40.1 (20161225.0304)
 -->
<!-- Title: public.pur_vendorattributemaster Pages: 1 -->
<svg width="1041pt" height="922pt"
 viewBox="0.00 0.00 1041.00 922.00" xmlns="http://www.w3.org/2000/svg" xmlns:xlink="http://www.w3.org/1999/xlink">
<g id="graph0" class="graph" transform="scale(1 1) rotate(0) translate(4 918)">
<title>public.pur_vendorattributemaster</title>
<polygon fill="#ffffff" stroke="transparent" points="-4,4 -4,-918 1037,-918 1037,4 -4,4"/>
<!-- public.pur_vendorattributemaster -->
<g id="node1" class="node">
<title>public.pur_vendorattributemaster</title>
<polygon fill="#efefef" stroke="transparent" points="61,-525.5 61,-560.5 465,-560.5 465,-525.5 61,-525.5"/>
<polygon fill="none" stroke="#000000" points="61,-525.5 61,-560.5 465,-560.5 465,-525.5 61,-525.5"/>
<text text-anchor="start" x="67.6891" y="-538.3" font-family="Arial Bold" font-size="18.00" fill="#000000">public.pur_vendorattributemaster</text>
<text text-anchor="start" x="330.7429" y="-538.3" font-family="Arial" font-size="14.00" fill="#000000">    </text>
<text text-anchor="start" x="364.9477" y="-538.3" font-family="Arial" font-size="14.00" fill="#666666">[BASE TABLE]</text>
<polygon fill="none" stroke="#000000" points="61,-495.5 61,-525.5 465,-525.5 465,-495.5 61,-495.5"/>
<text text-anchor="start" x="68" y="-506.9" font-family="Arial" font-size="14.00" fill="#000000">vendorattributeid </text>
<text text-anchor="start" x="176.1402" y="-506.9" font-family="Arial" font-size="14.00" fill="#666666">[integer]</text>
<polygon fill="none" stroke="#000000" points="61,-465.5 61,-495.5 465,-495.5 465,-465.5 61,-465.5"/>
<text text-anchor="start" x="68" y="-476.9" font-family="Arial" font-size="14.00" fill="#000000">criteria </text>
<text text-anchor="start" x="113.8808" y="-476.9" font-family="Arial" font-size="14.00" fill="#666666">[varchar(30)]</text>
<polygon fill="none" stroke="#000000" points="61,-435.5 61,-465.5 465,-465.5 465,-435.5 61,-435.5"/>
<text text-anchor="start" x="68" y="-446.9" font-family="Arial" font-size="14.00" fill="#000000">weightage </text>
<text text-anchor="start" x="135.69" y="-446.9" font-family="Arial" font-size="14.00" fill="#666666">[integer]</text>
<polygon fill="none" stroke="#000000" points="61,-405.5 61,-435.5 465,-435.5 465,-405.5 61,-405.5"/>
<text text-anchor="start" x="68" y="-416.9" font-family="Arial" font-size="14.00" fill="#000000">description </text>
<text text-anchor="start" x="139.568" y="-416.9" font-family="Arial" font-size="14.00" fill="#666666">[varchar(50)]</text>
<polygon fill="none" stroke="#000000" points="61,-375.5 61,-405.5 465,-405.5 465,-375.5 61,-375.5"/>
<text text-anchor="start" x="68" y="-386.9" font-family="Arial" font-size="14.00" fill="#000000">isactive </text>
<text text-anchor="start" x="118.5596" y="-386.9" font-family="Arial" font-size="14.00" fill="#666666">[boolean]</text>
<polygon fill="none" stroke="#000000" points="61,-345.5 61,-375.5 465,-375.5 465,-345.5 61,-345.5"/>
<text text-anchor="start" x="68" y="-356.9" font-family="Arial" font-size="14.00" fill="#000000">isauthorized </text>
<text text-anchor="start" x="147.3506" y="-356.9" font-family="Arial" font-size="14.00" fill="#666666">[boolean]</text>
<polygon fill="none" stroke="#000000" points="61,-315.5 61,-345.5 465,-345.5 465,-315.5 61,-315.5"/>
<text text-anchor="start" x="68" y="-326.9" font-family="Arial" font-size="14.00" fill="#000000">authorizedon </text>
<text text-anchor="start" x="152.8092" y="-326.9" font-family="Arial" font-size="14.00" fill="#666666">[timestamp without time zone]</text>
<polygon fill="none" stroke="#000000" points="61,-285.5 61,-315.5 465,-315.5 465,-285.5 61,-285.5"/>
<text text-anchor="start" x="68" y="-296.9" font-family="Arial" font-size="14.00" fill="#000000">authorizedby </text>
<text text-anchor="start" x="152.0266" y="-296.9" font-family="Arial" font-size="14.00" fill="#666666">[integer]</text>
<polygon fill="none" stroke="#000000" points="61,-255.5 61,-285.5 465,-285.5 465,-255.5 61,-255.5"/>
<text text-anchor="start" x="68" y="-266.9" font-family="Arial" font-size="14.00" fill="#000000">createdby </text>
<text text-anchor="start" x="133.3548" y="-266.9" font-family="Arial" font-size="14.00" fill="#666666">[integer]</text>
<polygon fill="none" stroke="#000000" points="61,-225.5 61,-255.5 465,-255.5 465,-225.5 61,-225.5"/>
<text text-anchor="start" x="68" y="-236.9" font-family="Arial" font-size="14.00" fill="#000000">createdon </text>
<text text-anchor="start" x="134.1374" y="-236.9" font-family="Arial" font-size="14.00" fill="#666666">[timestamp without time zone]</text>
<polygon fill="none" stroke="#000000" points="61,-195.5 61,-225.5 465,-225.5 465,-195.5 61,-195.5"/>
<text text-anchor="start" x="68" y="-206.9" font-family="Arial" font-size="14.00" fill="#000000">editlog </text>
<text text-anchor="start" x="113.1248" y="-206.9" font-family="Arial" font-size="14.00" fill="#666666">[text]</text>
<polygon fill="none" stroke="#000000" points="61,-165.5 61,-195.5 465,-195.5 465,-165.5 61,-165.5"/>
<text text-anchor="start" x="68" y="-176.9" font-family="Arial" font-size="14.00" fill="#000000">headauthorizedon </text>
<text text-anchor="start" x="183.9396" y="-176.9" font-family="Arial" font-size="14.00" fill="#666666">[timestamp without time zone]</text>
<polygon fill="none" stroke="#000000" points="61,-135.5 61,-165.5 465,-165.5 465,-135.5 61,-135.5"/>
<text text-anchor="start" x="68" y="-146.9" font-family="Arial" font-size="14.00" fill="#000000">headauthorizedby </text>
<text text-anchor="start" x="183.157" y="-146.9" font-family="Arial" font-size="14.00" fill="#666666">[integer]</text>
<polygon fill="none" stroke="#000000" points="61,-105.5 61,-135.5 465,-135.5 465,-105.5 61,-105.5"/>
<text text-anchor="start" x="68" y="-116.9" font-family="Arial" font-size="14.00" fill="#000000">inactivedate </text>
<text text-anchor="start" x="146.5806" y="-116.9" font-family="Arial" font-size="14.00" fill="#666666">[timestamp without time zone]</text>
<polygon fill="none" stroke="#000000" points="61,-75.5 61,-105.5 465,-105.5 465,-75.5 61,-75.5"/>
<text text-anchor="start" x="68" y="-86.9" font-family="Arial" font-size="14.00" fill="#000000">updatedby </text>
<text text-anchor="start" x="137.2594" y="-86.9" font-family="Arial" font-size="14.00" fill="#666666">[integer]</text>
<polygon fill="none" stroke="#000000" points="61,-45.5 61,-75.5 465,-75.5 465,-45.5 61,-45.5"/>
<text text-anchor="start" x="68" y="-56.9" font-family="Arial" font-size="14.00" fill="#000000">updatedon </text>
<text text-anchor="start" x="138.042" y="-56.9" font-family="Arial" font-size="14.00" fill="#666666">[timestamp(6) without time zone]</text>
<polygon fill="none" stroke="#000000" stroke-width="3" points="59.5,-44.5 59.5,-562.5 466.5,-562.5 466.5,-44.5 59.5,-44.5"/>
</g>
<!-- public.stor_itemsupplierattributerating -->
<g id="node2" class="node">
<title>public.stor_itemsupplierattributerating</title>
<polygon fill="#efefef" stroke="transparent" points="43,-835.5 43,-870.5 483,-870.5 483,-835.5 43,-835.5"/>
<polygon fill="none" stroke="#000000" points="43,-835.5 43,-870.5 483,-870.5 483,-835.5 43,-835.5"/>
<text text-anchor="start" x="49.6954" y="-848.3" font-family="Arial Bold" font-size="18.00" fill="#000000">public.stor_itemsupplierattributerating</text>
<text text-anchor="start" x="348.7366" y="-848.3" font-family="Arial" font-size="14.00" fill="#000000">    </text>
<text text-anchor="start" x="382.9414" y="-848.3" font-family="Arial" font-size="14.00" fill="#666666">[BASE TABLE]</text>
<polygon fill="none" stroke="#000000" points="43,-805.5 43,-835.5 483,-835.5 483,-805.5 43,-805.5"/>
<text text-anchor="start" x="50" y="-816.9" font-family="Arial" font-size="14.00" fill="#000000">itmsuppatbutrattingid    </text>
<text text-anchor="start" x="214.1248" y="-816.9" font-family="Arial" font-size="14.00" fill="#666666">[integer]</text>
<polygon fill="none" stroke="#000000" points="43,-775.5 43,-805.5 483,-805.5 483,-775.5 43,-775.5"/>
<text text-anchor="start" x="50" y="-786.9" font-family="Arial" font-size="14.00" fill="#000000">itemid    </text>
<text text-anchor="start" x="121.5344" y="-786.9" font-family="Arial" font-size="14.00" fill="#666666">[integer]</text>
<polygon fill="none" stroke="#000000" points="43,-745.5 43,-775.5 483,-775.5 483,-745.5 43,-745.5"/>
<text text-anchor="start" x="50" y="-756.9" font-family="Arial" font-size="14.00" fill="#000000">partyid    </text>
<text text-anchor="start" x="126.2104" y="-756.9" font-family="Arial" font-size="14.00" fill="#666666">[integer]</text>
<polygon fill="none" stroke="#000000" points="43,-715.5 43,-745.5 483,-745.5 483,-715.5 43,-715.5"/>
<text text-anchor="start" x="50" y="-726.9" font-family="Arial" font-size="14.00" fill="#000000">vendorattributeid    </text>
<text text-anchor="start" x="188.4544" y="-726.9" font-family="Arial" font-size="14.00" fill="#666666">[integer]</text>
<polygon fill="none" stroke="#000000" points="43,-685.5 43,-715.5 483,-715.5 483,-685.5 43,-685.5"/>
<text text-anchor="start" x="50" y="-696.9" font-family="Arial" font-size="14.00" fill="#000000">ratting    </text>
<text text-anchor="start" x="123.101" y="-696.9" font-family="Arial" font-size="14.00" fill="#666666">[integer]</text>
</g>
<!-- public.stor_itemsupplierattributerating&#45;&gt;public.pur_vendorattributemaster -->
<g id="edge1" class="edge">
<title>public.stor_itemsupplierattributerating:vendorattributeid&#45;&gt;public.pur_vendorattributemaster:vendorattributeid</title>
<path fill="none" stroke="#000000" d="M493.1813,-729.6591C579.6991,-714.8888 559.5597,-510.5 465,-510.5"/>
<polygon fill="#000000" stroke="#000000" points="492.9661,-729.6768 482.6295,-726.0153 487.983,-730.0884 483,-730.5 483,-730.5 483,-730.5 487.983,-730.0884 483.3705,-734.9847 492.9661,-729.6768 492.9661,-729.6768"/>
<text text-anchor="start" x="489.6405" y="-740.5" font-family="Arial" font-size="10.00" fill="#000000">FOREIGN KEY (vendorattributeid) REFERENCES pur_vendorattributemaster(vendorattributeid) ON UPDATE CASCADE</text>
</g>
</g>
</svg>
