<?xml version="1.0" encoding="UTF-8" standalone="no"?>
<!DOCTYPE svg PUBLIC "-//W3C//DTD SVG 1.1//EN"
 "http://www.w3.org/Graphics/SVG/1.1/DTD/svg11.dtd">
<!-- Generated by graphviz version 2.40.1 (20161225.0304)
 -->
<!-- Title: public.comn_reportmaster Pages: 1 -->
<svg width="449pt" height="1875pt"
 viewBox="0.00 0.00 449.00 1875.00" xmlns="http://www.w3.org/2000/svg" xmlns:xlink="http://www.w3.org/1999/xlink">
<g id="graph0" class="graph" transform="scale(1 1) rotate(0) translate(4 1871)">
<title>public.comn_reportmaster</title>
<polygon fill="#ffffff" stroke="transparent" points="-4,4 -4,-1871 445,-1871 445,4 -4,4"/>
<!-- public.comn_reportmaster -->
<g id="node1" class="node">
<title>public.comn_reportmaster</title>
<polygon fill="#efefef" stroke="transparent" points="46.5,-1785.5 46.5,-1820.5 395.5,-1820.5 395.5,-1785.5 46.5,-1785.5"/>
<polygon fill="none" stroke="#000000" points="46.5,-1785.5 46.5,-1820.5 395.5,-1820.5 395.5,-1785.5 46.5,-1785.5"/>
<text text-anchor="start" x="53.2039" y="-1798.3" font-family="Arial Bold" font-size="18.00" fill="#000000">public.comn_reportmaster</text>
<text text-anchor="start" x="261.2281" y="-1798.3" font-family="Arial" font-size="14.00" fill="#000000">    </text>
<text text-anchor="start" x="295.4329" y="-1798.3" font-family="Arial" font-size="14.00" fill="#666666">[BASE TABLE]</text>
<polygon fill="none" stroke="#000000" points="46.5,-1755.5 46.5,-1785.5 395.5,-1785.5 395.5,-1755.5 46.5,-1755.5"/>
<text text-anchor="start" x="53.5" y="-1766.9" font-family="Arial" font-size="14.00" fill="#000000">reportid </text>
<text text-anchor="start" x="104.8394" y="-1766.9" font-family="Arial" font-size="14.00" fill="#666666">[integer]</text>
<polygon fill="none" stroke="#000000" points="46.5,-1725.5 46.5,-1755.5 395.5,-1755.5 395.5,-1725.5 46.5,-1725.5"/>
<text text-anchor="start" x="53.5" y="-1736.9" font-family="Arial" font-size="14.00" fill="#000000">reportname </text>
<text text-anchor="start" x="128.9586" y="-1736.9" font-family="Arial" font-size="14.00" fill="#666666">[varchar(200)]</text>
<polygon fill="none" stroke="#000000" points="46.5,-1695.5 46.5,-1725.5 395.5,-1725.5 395.5,-1695.5 46.5,-1695.5"/>
<text text-anchor="start" x="53.5" y="-1706.9" font-family="Arial" font-size="14.00" fill="#000000">reportheader </text>
<text text-anchor="start" x="137.5238" y="-1706.9" font-family="Arial" font-size="14.00" fill="#666666">[varchar(1000)]</text>
<polygon fill="none" stroke="#000000" points="46.5,-1665.5 46.5,-1695.5 395.5,-1695.5 395.5,-1665.5 46.5,-1665.5"/>
<text text-anchor="start" x="53.5" y="-1676.9" font-family="Arial" font-size="14.00" fill="#000000">filter </text>
<text text-anchor="start" x="83.8282" y="-1676.9" font-family="Arial" font-size="14.00" fill="#666666">[varchar(200)]</text>
<polygon fill="none" stroke="#000000" points="46.5,-1635.5 46.5,-1665.5 395.5,-1665.5 395.5,-1635.5 46.5,-1635.5"/>
<text text-anchor="start" x="53.5" y="-1646.9" font-family="Arial" font-size="14.00" fill="#000000">isactive </text>
<text text-anchor="start" x="104.0596" y="-1646.9" font-family="Arial" font-size="14.00" fill="#666666">[boolean]</text>
<polygon fill="none" stroke="#000000" points="46.5,-1605.5 46.5,-1635.5 395.5,-1635.5 395.5,-1605.5 46.5,-1605.5"/>
<text text-anchor="start" x="53.5" y="-1616.9" font-family="Arial" font-size="14.00" fill="#000000">isshowdate </text>
<text text-anchor="start" x="127.4074" y="-1616.9" font-family="Arial" font-size="14.00" fill="#666666">[boolean]</text>
<polygon fill="none" stroke="#000000" points="46.5,-1575.5 46.5,-1605.5 395.5,-1605.5 395.5,-1575.5 46.5,-1575.5"/>
<text text-anchor="start" x="53.5" y="-1586.9" font-family="Arial" font-size="14.00" fill="#000000">isshowsearchpanel </text>
<text text-anchor="start" x="176.4144" y="-1586.9" font-family="Arial" font-size="14.00" fill="#666666">[boolean]</text>
<polygon fill="none" stroke="#000000" points="46.5,-1545.5 46.5,-1575.5 395.5,-1575.5 395.5,-1545.5 46.5,-1545.5"/>
<text text-anchor="start" x="53.5" y="-1556.9" font-family="Arial" font-size="14.00" fill="#000000">searchquery </text>
<text text-anchor="start" x="134.4074" y="-1556.9" font-family="Arial" font-size="14.00" fill="#666666">[varchar(3000)]</text>
<polygon fill="none" stroke="#000000" points="46.5,-1515.5 46.5,-1545.5 395.5,-1545.5 395.5,-1515.5 46.5,-1515.5"/>
<text text-anchor="start" x="53.5" y="-1526.9" font-family="Arial" font-size="14.00" fill="#000000">createdby </text>
<text text-anchor="start" x="118.8548" y="-1526.9" font-family="Arial" font-size="14.00" fill="#666666">[integer]</text>
<polygon fill="none" stroke="#000000" points="46.5,-1485.5 46.5,-1515.5 395.5,-1515.5 395.5,-1485.5 46.5,-1485.5"/>
<text text-anchor="start" x="53.5" y="-1496.9" font-family="Arial" font-size="14.00" fill="#000000">createdon </text>
<text text-anchor="start" x="119.6374" y="-1496.9" font-family="Arial" font-size="14.00" fill="#666666">[timestamp without time zone]</text>
<polygon fill="none" stroke="#000000" points="46.5,-1455.5 46.5,-1485.5 395.5,-1485.5 395.5,-1455.5 46.5,-1455.5"/>
<text text-anchor="start" x="53.5" y="-1466.9" font-family="Arial" font-size="14.00" fill="#000000">editlog </text>
<text text-anchor="start" x="98.6248" y="-1466.9" font-family="Arial" font-size="14.00" fill="#666666">[text]</text>
<polygon fill="none" stroke="#000000" points="46.5,-1425.5 46.5,-1455.5 395.5,-1455.5 395.5,-1425.5 46.5,-1425.5"/>
<text text-anchor="start" x="53.5" y="-1436.9" font-family="Arial" font-size="14.00" fill="#000000">blandscape </text>
<text text-anchor="start" x="128.9754" y="-1436.9" font-family="Arial" font-size="14.00" fill="#666666">[boolean]</text>
<polygon fill="none" stroke="#000000" points="46.5,-1395.5 46.5,-1425.5 395.5,-1425.5 395.5,-1395.5 46.5,-1395.5"/>
<text text-anchor="start" x="53.5" y="-1406.9" font-family="Arial" font-size="14.00" fill="#000000">bcompany_logo </text>
<text text-anchor="start" x="156.2012" y="-1406.9" font-family="Arial" font-size="14.00" fill="#666666">[boolean]</text>
<polygon fill="none" stroke="#000000" points="46.5,-1365.5 46.5,-1395.5 395.5,-1395.5 395.5,-1365.5 46.5,-1365.5"/>
<text text-anchor="start" x="53.5" y="-1376.9" font-family="Arial" font-size="14.00" fill="#000000">bcompany_name </text>
<text text-anchor="start" x="164.7552" y="-1376.9" font-family="Arial" font-size="14.00" fill="#666666">[boolean]</text>
<polygon fill="none" stroke="#000000" points="46.5,-1335.5 46.5,-1365.5 395.5,-1365.5 395.5,-1335.5 46.5,-1335.5"/>
<text text-anchor="start" x="53.5" y="-1346.9" font-family="Arial" font-size="14.00" fill="#000000">bcompany_address </text>
<text text-anchor="start" x="179.5378" y="-1346.9" font-family="Arial" font-size="14.00" fill="#666666">[boolean]</text>
<polygon fill="none" stroke="#000000" points="46.5,-1305.5 46.5,-1335.5 395.5,-1335.5 395.5,-1305.5 46.5,-1305.5"/>
<text text-anchor="start" x="53.5" y="-1316.9" font-family="Arial" font-size="14.00" fill="#000000">bpage_no </text>
<text text-anchor="start" x="119.6514" y="-1316.9" font-family="Arial" font-size="14.00" fill="#666666">[boolean]</text>
<polygon fill="none" stroke="#000000" points="46.5,-1275.5 46.5,-1305.5 395.5,-1305.5 395.5,-1275.5 46.5,-1275.5"/>
<text text-anchor="start" x="53.5" y="-1286.9" font-family="Arial" font-size="14.00" fill="#000000">bprinted_on </text>
<text text-anchor="start" x="131.3092" y="-1286.9" font-family="Arial" font-size="14.00" fill="#666666">[boolean]</text>
<polygon fill="none" stroke="#000000" points="46.5,-1245.5 46.5,-1275.5 395.5,-1275.5 395.5,-1245.5 46.5,-1245.5"/>
<text text-anchor="start" x="53.5" y="-1256.9" font-family="Arial" font-size="14.00" fill="#000000">bprinted_by </text>
<text text-anchor="start" x="130.5266" y="-1256.9" font-family="Arial" font-size="14.00" fill="#666666">[boolean]</text>
<polygon fill="none" stroke="#000000" points="46.5,-1215.5 46.5,-1245.5 395.5,-1245.5 395.5,-1215.5 46.5,-1215.5"/>
<text text-anchor="start" x="53.5" y="-1226.9" font-family="Arial" font-size="14.00" fill="#000000">breportname </text>
<text text-anchor="start" x="136.7412" y="-1226.9" font-family="Arial" font-size="14.00" fill="#666666">[boolean]</text>
<polygon fill="none" stroke="#000000" points="46.5,-1185.5 46.5,-1215.5 395.5,-1215.5 395.5,-1185.5 46.5,-1185.5"/>
<text text-anchor="start" x="53.5" y="-1196.9" font-family="Arial" font-size="14.00" fill="#000000">bbranch_name </text>
<text text-anchor="start" x="150.7552" y="-1196.9" font-family="Arial" font-size="14.00" fill="#666666">[boolean]</text>
<polygon fill="none" stroke="#000000" points="46.5,-1155.5 46.5,-1185.5 395.5,-1185.5 395.5,-1155.5 46.5,-1155.5"/>
<text text-anchor="start" x="53.5" y="-1166.9" font-family="Arial" font-size="14.00" fill="#000000">iso_number </text>
<text text-anchor="start" x="130.514" y="-1166.9" font-family="Arial" font-size="14.00" fill="#666666">[varchar(20)]</text>
<polygon fill="none" stroke="#000000" points="46.5,-1125.5 46.5,-1155.5 395.5,-1155.5 395.5,-1125.5 46.5,-1125.5"/>
<text text-anchor="start" x="53.5" y="-1136.9" font-family="Arial" font-size="14.00" fill="#000000">format_no </text>
<text text-anchor="start" x="120.406" y="-1136.9" font-family="Arial" font-size="14.00" fill="#666666">[varchar(20)]</text>
<polygon fill="none" stroke="#000000" points="46.5,-1095.5 46.5,-1125.5 395.5,-1125.5 395.5,-1095.5 46.5,-1095.5"/>
<text text-anchor="start" x="53.5" y="-1106.9" font-family="Arial" font-size="14.00" fill="#000000">bauthorize </text>
<text text-anchor="start" x="122.744" y="-1106.9" font-family="Arial" font-size="14.00" fill="#666666">[boolean]</text>
<polygon fill="none" stroke="#000000" points="46.5,-1065.5 46.5,-1095.5 395.5,-1095.5 395.5,-1065.5 46.5,-1065.5"/>
<text text-anchor="start" x="53.5" y="-1076.9" font-family="Arial" font-size="14.00" fill="#000000">brepeatheader </text>
<text text-anchor="start" x="148.4284" y="-1076.9" font-family="Arial" font-size="14.00" fill="#666666">[boolean]</text>
<polygon fill="none" stroke="#000000" points="46.5,-1035.5 46.5,-1065.5 395.5,-1065.5 395.5,-1035.5 46.5,-1035.5"/>
<text text-anchor="start" x="53.5" y="-1046.9" font-family="Arial" font-size="14.00" fill="#000000">hideenddate </text>
<text text-anchor="start" x="134.4312" y="-1046.9" font-family="Arial" font-size="14.00" fill="#666666">[boolean]</text>
<polygon fill="none" stroke="#000000" points="46.5,-1005.5 46.5,-1035.5 395.5,-1035.5 395.5,-1005.5 46.5,-1005.5"/>
<text text-anchor="start" x="53.5" y="-1016.9" font-family="Arial" font-size="14.00" fill="#000000">showclosing </text>
<text text-anchor="start" x="133.6234" y="-1016.9" font-family="Arial" font-size="14.00" fill="#666666">[boolean]</text>
<polygon fill="none" stroke="#000000" points="46.5,-975.5 46.5,-1005.5 395.5,-1005.5 395.5,-975.5 46.5,-975.5"/>
<text text-anchor="start" x="53.5" y="-986.9" font-family="Arial" font-size="14.00" fill="#000000">showmonthyear </text>
<text text-anchor="start" x="156.1872" y="-986.9" font-family="Arial" font-size="14.00" fill="#666666">[boolean]</text>
<polygon fill="none" stroke="#000000" points="46.5,-945.5 46.5,-975.5 395.5,-975.5 395.5,-945.5 46.5,-945.5"/>
<text text-anchor="start" x="53.5" y="-956.9" font-family="Arial" font-size="14.00" fill="#000000">excellikefilter </text>
<text text-anchor="start" x="137.4958" y="-956.9" font-family="Arial" font-size="14.00" fill="#666666">[boolean]</text>
<polygon fill="none" stroke="#000000" points="46.5,-915.5 46.5,-945.5 395.5,-945.5 395.5,-915.5 46.5,-915.5"/>
<text text-anchor="start" x="53.5" y="-926.9" font-family="Arial" font-size="14.00" fill="#000000">formfieldname </text>
<text text-anchor="start" x="146.0624" y="-926.9" font-family="Arial" font-size="14.00" fill="#666666">[varchar(20)]</text>
<polygon fill="none" stroke="#000000" points="46.5,-885.5 46.5,-915.5 395.5,-915.5 395.5,-885.5 46.5,-885.5"/>
<text text-anchor="start" x="53.5" y="-896.9" font-family="Arial" font-size="14.00" fill="#000000">reff_fieldname </text>
<text text-anchor="start" x="146.075" y="-896.9" font-family="Arial" font-size="14.00" fill="#666666">[varchar(30)]</text>
<polygon fill="none" stroke="#000000" points="46.5,-855.5 46.5,-885.5 395.5,-885.5 395.5,-855.5 46.5,-855.5"/>
<text text-anchor="start" x="53.5" y="-866.9" font-family="Arial" font-size="14.00" fill="#000000">ecc_no </text>
<text text-anchor="start" x="102.521" y="-866.9" font-family="Arial" font-size="14.00" fill="#666666">[boolean]</text>
<polygon fill="none" stroke="#000000" points="46.5,-825.5 46.5,-855.5 395.5,-855.5 395.5,-825.5 46.5,-825.5"/>
<text text-anchor="start" x="53.5" y="-836.9" font-family="Arial" font-size="14.00" fill="#000000">range </text>
<text text-anchor="start" x="93.1816" y="-836.9" font-family="Arial" font-size="14.00" fill="#666666">[boolean]</text>
<polygon fill="none" stroke="#000000" points="46.5,-795.5 46.5,-825.5 395.5,-825.5 395.5,-795.5 46.5,-795.5"/>
<text text-anchor="start" x="53.5" y="-806.9" font-family="Arial" font-size="14.00" fill="#000000">division </text>
<text text-anchor="start" x="104.0582" y="-806.9" font-family="Arial" font-size="14.00" fill="#666666">[boolean]</text>
<polygon fill="none" stroke="#000000" points="46.5,-765.5 46.5,-795.5 395.5,-795.5 395.5,-765.5 46.5,-765.5"/>
<text text-anchor="start" x="53.5" y="-776.9" font-family="Arial" font-size="14.00" fill="#000000">commission_rate </text>
<text text-anchor="start" x="163.1718" y="-776.9" font-family="Arial" font-size="14.00" fill="#666666">[boolean]</text>
<polygon fill="none" stroke="#000000" points="46.5,-735.5 46.5,-765.5 395.5,-765.5 395.5,-735.5 46.5,-735.5"/>
<text text-anchor="start" x="53.5" y="-746.9" font-family="Arial" font-size="14.00" fill="#000000">show_online </text>
<text text-anchor="start" x="135.1886" y="-746.9" font-family="Arial" font-size="14.00" fill="#666666">[boolean]</text>
<polygon fill="none" stroke="#000000" points="46.5,-705.5 46.5,-735.5 395.5,-735.5 395.5,-705.5 46.5,-705.5"/>
<text text-anchor="start" x="53.5" y="-716.9" font-family="Arial" font-size="14.00" fill="#000000">inactivedate </text>
<text text-anchor="start" x="132.0806" y="-716.9" font-family="Arial" font-size="14.00" fill="#666666">[timestamp without time zone]</text>
<polygon fill="none" stroke="#000000" points="46.5,-675.5 46.5,-705.5 395.5,-705.5 395.5,-675.5 46.5,-675.5"/>
<text text-anchor="start" x="53.5" y="-686.9" font-family="Arial" font-size="14.00" fill="#000000">pfno </text>
<text text-anchor="start" x="84.629" y="-686.9" font-family="Arial" font-size="14.00" fill="#666666">[boolean]</text>
<polygon fill="none" stroke="#000000" points="46.5,-645.5 46.5,-675.5 395.5,-675.5 395.5,-645.5 46.5,-645.5"/>
<text text-anchor="start" x="53.5" y="-656.9" font-family="Arial" font-size="14.00" fill="#000000">esino </text>
<text text-anchor="start" x="90.845" y="-656.9" font-family="Arial" font-size="14.00" fill="#666666">[boolean]</text>
<polygon fill="none" stroke="#000000" points="46.5,-615.5 46.5,-645.5 395.5,-645.5 395.5,-615.5 46.5,-615.5"/>
<text text-anchor="start" x="53.5" y="-626.9" font-family="Arial" font-size="14.00" fill="#000000">branch_address </text>
<text text-anchor="start" x="157.7552" y="-626.9" font-family="Arial" font-size="14.00" fill="#666666">[boolean]</text>
<polygon fill="none" stroke="#000000" points="46.5,-585.5 46.5,-615.5 395.5,-615.5 395.5,-585.5 46.5,-585.5"/>
<text text-anchor="start" x="53.5" y="-596.9" font-family="Arial" font-size="14.00" fill="#000000">schedule_for_mail </text>
<text text-anchor="start" x="170.9656" y="-596.9" font-family="Arial" font-size="14.00" fill="#666666">[boolean]</text>
<polygon fill="none" stroke="#000000" points="46.5,-555.5 46.5,-585.5 395.5,-585.5 395.5,-555.5 46.5,-555.5"/>
<text text-anchor="start" x="53.5" y="-566.9" font-family="Arial" font-size="14.00" fill="#000000">is_show_branch_popup </text>
<text text-anchor="start" x="205.2208" y="-566.9" font-family="Arial" font-size="14.00" fill="#666666">[boolean]</text>
<polygon fill="none" stroke="#000000" points="46.5,-525.5 46.5,-555.5 395.5,-555.5 395.5,-525.5 46.5,-525.5"/>
<text text-anchor="start" x="53.5" y="-536.9" font-family="Arial" font-size="14.00" fill="#000000">is_show_view_attachment </text>
<text text-anchor="start" x="220.758" y="-536.9" font-family="Arial" font-size="14.00" fill="#666666">[boolean]</text>
<polygon fill="none" stroke="#000000" points="46.5,-495.5 46.5,-525.5 395.5,-525.5 395.5,-495.5 46.5,-495.5"/>
<text text-anchor="start" x="53.5" y="-506.9" font-family="Arial" font-size="14.00" fill="#000000">fromdatelabelcaption </text>
<text text-anchor="start" x="187.312" y="-506.9" font-family="Arial" font-size="14.00" fill="#666666">[varchar(50)]</text>
<polygon fill="none" stroke="#000000" points="46.5,-465.5 46.5,-495.5 395.5,-495.5 395.5,-465.5 46.5,-465.5"/>
<text text-anchor="start" x="53.5" y="-476.9" font-family="Arial" font-size="14.00" fill="#000000">enableauthorization </text>
<text text-anchor="start" x="179.5434" y="-476.9" font-family="Arial" font-size="14.00" fill="#666666">[boolean]</text>
<polygon fill="none" stroke="#000000" points="46.5,-435.5 46.5,-465.5 395.5,-465.5 395.5,-435.5 46.5,-435.5"/>
<text text-anchor="start" x="53.5" y="-446.9" font-family="Arial" font-size="14.00" fill="#000000">transactionidcolumnname </text>
<text text-anchor="start" x="216.8646" y="-446.9" font-family="Arial" font-size="14.00" fill="#666666">[varchar(100)]</text>
<polygon fill="none" stroke="#000000" points="46.5,-405.5 46.5,-435.5 395.5,-435.5 395.5,-405.5 46.5,-405.5"/>
<text text-anchor="start" x="53.5" y="-416.9" font-family="Arial" font-size="14.00" fill="#000000">transactionidmappingcolumn </text>
<text text-anchor="start" x="235.5364" y="-416.9" font-family="Arial" font-size="14.00" fill="#666666">[varchar(100)]</text>
<polygon fill="none" stroke="#000000" points="46.5,-375.5 46.5,-405.5 395.5,-405.5 395.5,-375.5 46.5,-375.5"/>
<text text-anchor="start" x="53.5" y="-386.9" font-family="Arial" font-size="14.00" fill="#000000">tranactionformid </text>
<text text-anchor="start" x="157.7356" y="-386.9" font-family="Arial" font-size="14.00" fill="#666666">[integer]</text>
<polygon fill="none" stroke="#000000" points="46.5,-345.5 46.5,-375.5 395.5,-375.5 395.5,-345.5 46.5,-345.5"/>
<text text-anchor="start" x="53.5" y="-356.9" font-family="Arial" font-size="14.00" fill="#000000">authorizetransactionname </text>
<text text-anchor="start" x="218.4312" y="-356.9" font-family="Arial" font-size="14.00" fill="#666666">[varchar(200)]</text>
<polygon fill="none" stroke="#000000" points="46.5,-315.5 46.5,-345.5 395.5,-345.5 395.5,-315.5 46.5,-315.5"/>
<text text-anchor="start" x="53.5" y="-326.9" font-family="Arial" font-size="14.00" fill="#000000">amountfieldinreport </text>
<text text-anchor="start" x="177.19" y="-326.9" font-family="Arial" font-size="14.00" fill="#666666">[varchar(50)]</text>
<polygon fill="none" stroke="#000000" points="46.5,-285.5 46.5,-315.5 395.5,-315.5 395.5,-285.5 46.5,-285.5"/>
<text text-anchor="start" x="53.5" y="-296.9" font-family="Arial" font-size="14.00" fill="#000000">bshowsummaryingrouping </text>
<text text-anchor="start" x="220.744" y="-296.9" font-family="Arial" font-size="14.00" fill="#666666">[boolean]</text>
<polygon fill="none" stroke="#000000" points="46.5,-255.5 46.5,-285.5 395.5,-285.5 395.5,-255.5 46.5,-255.5"/>
<text text-anchor="start" x="53.5" y="-266.9" font-family="Arial" font-size="14.00" fill="#000000">description </text>
<text text-anchor="start" x="125.068" y="-266.9" font-family="Arial" font-size="14.00" fill="#666666">[text]</text>
<polygon fill="none" stroke="#000000" points="46.5,-225.5 46.5,-255.5 395.5,-255.5 395.5,-225.5 46.5,-225.5"/>
<text text-anchor="start" x="53.5" y="-236.9" font-family="Arial" font-size="14.00" fill="#000000">iswebshow </text>
<text text-anchor="start" x="125.8408" y="-236.9" font-family="Arial" font-size="14.00" fill="#666666">[boolean]</text>
<polygon fill="none" stroke="#000000" points="46.5,-195.5 46.5,-225.5 395.5,-225.5 395.5,-195.5 46.5,-195.5"/>
<text text-anchor="start" x="53.5" y="-206.9" font-family="Arial" font-size="14.00" fill="#000000">auto_refresh </text>
<text text-anchor="start" x="135.9712" y="-206.9" font-family="Arial" font-size="14.00" fill="#666666">[boolean]</text>
<polygon fill="none" stroke="#000000" points="46.5,-165.5 46.5,-195.5 395.5,-195.5 395.5,-165.5 46.5,-165.5"/>
<text text-anchor="start" x="53.5" y="-176.9" font-family="Arial" font-size="14.00" fill="#000000">updatedby </text>
<text text-anchor="start" x="122.7594" y="-176.9" font-family="Arial" font-size="14.00" fill="#666666">[integer]</text>
<polygon fill="none" stroke="#000000" points="46.5,-135.5 46.5,-165.5 395.5,-165.5 395.5,-135.5 46.5,-135.5"/>
<text text-anchor="start" x="53.5" y="-146.9" font-family="Arial" font-size="14.00" fill="#000000">updatedon </text>
<text text-anchor="start" x="123.542" y="-146.9" font-family="Arial" font-size="14.00" fill="#666666">[timestamp(6) without time zone]</text>
<polygon fill="none" stroke="#000000" points="46.5,-105.5 46.5,-135.5 395.5,-135.5 395.5,-105.5 46.5,-105.5"/>
<text text-anchor="start" x="53.5" y="-116.9" font-family="Arial" font-size="14.00" fill="#000000">isstockfreze </text>
<text text-anchor="start" x="131.2868" y="-116.9" font-family="Arial" font-size="14.00" fill="#666666">[boolean]</text>
<polygon fill="none" stroke="#000000" points="46.5,-75.5 46.5,-105.5 395.5,-105.5 395.5,-75.5 46.5,-75.5"/>
<text text-anchor="start" x="53.5" y="-86.9" font-family="Arial" font-size="14.00" fill="#000000">isexist_server </text>
<text text-anchor="start" x="142.946" y="-86.9" font-family="Arial" font-size="14.00" fill="#666666">[boolean]</text>
<polygon fill="none" stroke="#000000" points="46.5,-45.5 46.5,-75.5 395.5,-75.5 395.5,-45.5 46.5,-45.5"/>
<text text-anchor="start" x="53.5" y="-56.9" font-family="Arial" font-size="14.00" fill="#000000">newconn_string </text>
<text text-anchor="start" x="155.4158" y="-56.9" font-family="Arial" font-size="14.00" fill="#666666">[text]</text>
<polygon fill="none" stroke="#000000" stroke-width="3" points="44.5,-44.5 44.5,-1822.5 396.5,-1822.5 396.5,-44.5 44.5,-44.5"/>
</g>
</g>
</svg>
