<?xml version="1.0" encoding="UTF-8" standalone="no"?>
<!DOCTYPE svg PUBLIC "-//W3C//DTD SVG 1.1//EN"
 "http://www.w3.org/Graphics/SVG/1.1/DTD/svg11.dtd">
<!-- Generated by graphviz version 2.40.1 (20161225.0304)
 -->
<!-- Title: public.pur_profitabilitysettingdetailamendlog Pages: 1 -->
<svg width="1278pt" height="1162pt"
 viewBox="0.00 0.00 1278.00 1162.00" xmlns="http://www.w3.org/2000/svg" xmlns:xlink="http://www.w3.org/1999/xlink">
<g id="graph0" class="graph" transform="scale(1 1) rotate(0) translate(4 1158)">
<title>public.pur_profitabilitysettingdetailamendlog</title>
<polygon fill="#ffffff" stroke="transparent" points="-4,4 -4,-1158 1274,-1158 1274,4 -4,4"/>
<!-- public.pur_profitabilitysettingdetailamendlog -->
<g id="node1" class="node">
<title>public.pur_profitabilitysettingdetailamendlog</title>
<polygon fill="#efefef" stroke="transparent" points="734,-1072.5 734,-1107.5 1224,-1107.5 1224,-1072.5 734,-1072.5"/>
<polygon fill="none" stroke="#000000" points="734,-1072.5 734,-1107.5 1224,-1107.5 1224,-1072.5 734,-1072.5"/>
<text text-anchor="start" x="740.6808" y="-1085.3" font-family="Arial Bold" font-size="18.00" fill="#000000">public.pur_profitabilitysettingdetailamendlog</text>
<text text-anchor="start" x="1089.7512" y="-1085.3" font-family="Arial" font-size="14.00" fill="#000000">    </text>
<text text-anchor="start" x="1123.956" y="-1085.3" font-family="Arial" font-size="14.00" fill="#666666">[BASE TABLE]</text>
<polygon fill="none" stroke="#000000" points="734,-1042.5 734,-1072.5 1224,-1072.5 1224,-1042.5 734,-1042.5"/>
<text text-anchor="start" x="741" y="-1053.9" font-family="Arial" font-size="14.00" fill="#000000">amenddetailid </text>
<text text-anchor="start" x="832.0224" y="-1053.9" font-family="Arial" font-size="14.00" fill="#666666">[integer]</text>
<polygon fill="none" stroke="#000000" points="734,-1012.5 734,-1042.5 1224,-1042.5 1224,-1012.5 734,-1012.5"/>
<text text-anchor="start" x="741" y="-1023.9" font-family="Arial" font-size="14.00" fill="#000000">settingmasteramendid </text>
<text text-anchor="start" x="882.5834" y="-1023.9" font-family="Arial" font-size="14.00" fill="#666666">[integer]</text>
<polygon fill="none" stroke="#000000" points="734,-982.5 734,-1012.5 1224,-1012.5 1224,-982.5 734,-982.5"/>
<text text-anchor="start" x="741" y="-993.9" font-family="Arial" font-size="14.00" fill="#000000">detailid </text>
<text text-anchor="start" x="789.2314" y="-993.9" font-family="Arial" font-size="14.00" fill="#666666">[integer]</text>
<polygon fill="none" stroke="#000000" points="734,-952.5 734,-982.5 1224,-982.5 1224,-952.5 734,-952.5"/>
<text text-anchor="start" x="741" y="-963.9" font-family="Arial" font-size="14.00" fill="#000000">settingid </text>
<text text-anchor="start" x="797.0154" y="-963.9" font-family="Arial" font-size="14.00" fill="#666666">[integer]</text>
<polygon fill="none" stroke="#000000" points="734,-922.5 734,-952.5 1224,-952.5 1224,-922.5 734,-922.5"/>
<text text-anchor="start" x="741" y="-933.9" font-family="Arial" font-size="14.00" fill="#000000">itemid </text>
<text text-anchor="start" x="782.2202" y="-933.9" font-family="Arial" font-size="14.00" fill="#666666">[integer]</text>
<polygon fill="none" stroke="#000000" points="734,-892.5 734,-922.5 1224,-922.5 1224,-892.5 734,-892.5"/>
<text text-anchor="start" x="741" y="-903.9" font-family="Arial" font-size="14.00" fill="#000000">brandid </text>
<text text-anchor="start" x="791.5708" y="-903.9" font-family="Arial" font-size="14.00" fill="#666666">[integer]</text>
<polygon fill="none" stroke="#000000" points="734,-862.5 734,-892.5 1224,-892.5 1224,-862.5 734,-862.5"/>
<text text-anchor="start" x="741" y="-873.9" font-family="Arial" font-size="14.00" fill="#000000">rate </text>
<text text-anchor="start" x="769.007" y="-873.9" font-family="Arial" font-size="14.00" fill="#666666">[double precision]</text>
<polygon fill="none" stroke="#000000" points="734,-832.5 734,-862.5 1224,-862.5 1224,-832.5 734,-832.5"/>
<text text-anchor="start" x="741" y="-843.9" font-family="Arial" font-size="14.00" fill="#000000">amount </text>
<text text-anchor="start" x="791.5722" y="-843.9" font-family="Arial" font-size="14.00" fill="#666666">[double precision]</text>
<polygon fill="none" stroke="#000000" points="734,-802.5 734,-832.5 1224,-832.5 1224,-802.5 734,-802.5"/>
<text text-anchor="start" x="741" y="-813.9" font-family="Arial" font-size="14.00" fill="#000000">amendby </text>
<text text-anchor="start" x="802.4642" y="-813.9" font-family="Arial" font-size="14.00" fill="#666666">[integer]</text>
<polygon fill="none" stroke="#000000" points="734,-772.5 734,-802.5 1224,-802.5 1224,-772.5 734,-772.5"/>
<text text-anchor="start" x="741" y="-783.9" font-family="Arial" font-size="14.00" fill="#000000">amendon </text>
<text text-anchor="start" x="803.2468" y="-783.9" font-family="Arial" font-size="14.00" fill="#666666">[timestamp without time zone]</text>
<polygon fill="none" stroke="#000000" points="734,-742.5 734,-772.5 1224,-772.5 1224,-742.5 734,-742.5"/>
<text text-anchor="start" x="741" y="-753.9" font-family="Arial" font-size="14.00" fill="#000000">amendno </text>
<text text-anchor="start" x="803.2468" y="-753.9" font-family="Arial" font-size="14.00" fill="#666666">[integer]</text>
<polygon fill="none" stroke="#000000" points="734,-712.5 734,-742.5 1224,-742.5 1224,-712.5 734,-712.5"/>
<text text-anchor="start" x="741" y="-723.9" font-family="Arial" font-size="14.00" fill="#000000">amendreason </text>
<text text-anchor="start" x="830.4726" y="-723.9" font-family="Arial" font-size="14.00" fill="#666666">[text]</text>
<polygon fill="none" stroke="#000000" stroke-width="3" points="732.5,-711.5 732.5,-1109.5 1225.5,-1109.5 1225.5,-711.5 732.5,-711.5"/>
</g>
<!-- public.pur_profitabilitysettingamendlog -->
<g id="node2" class="node">
<title>public.pur_profitabilitysettingamendlog</title>
<polygon fill="#efefef" stroke="transparent" points="755,-552.5 755,-587.5 1202,-587.5 1202,-552.5 755,-552.5"/>
<polygon fill="none" stroke="#000000" points="755,-552.5 755,-587.5 1202,-587.5 1202,-552.5 755,-552.5"/>
<text text-anchor="start" x="761.6854" y="-565.3" font-family="Arial Bold" font-size="18.00" fill="#000000">public.pur_profitabilitysettingamendlog</text>
<text text-anchor="start" x="1067.7466" y="-565.3" font-family="Arial" font-size="14.00" fill="#000000">    </text>
<text text-anchor="start" x="1101.9514" y="-565.3" font-family="Arial" font-size="14.00" fill="#666666">[BASE TABLE]</text>
<polygon fill="none" stroke="#000000" points="755,-522.5 755,-552.5 1202,-552.5 1202,-522.5 755,-522.5"/>
<text text-anchor="start" x="762" y="-533.9" font-family="Arial" font-size="14.00" fill="#000000">settingmasteramendid    </text>
<text text-anchor="start" x="933.8976" y="-533.9" font-family="Arial" font-size="14.00" fill="#666666">[integer]</text>
<polygon fill="none" stroke="#000000" points="755,-492.5 755,-522.5 1202,-522.5 1202,-492.5 755,-492.5"/>
<text text-anchor="start" x="762" y="-503.9" font-family="Arial" font-size="14.00" fill="#000000">settingid    </text>
<text text-anchor="start" x="848.3296" y="-503.9" font-family="Arial" font-size="14.00" fill="#666666">[integer]</text>
<polygon fill="none" stroke="#000000" points="755,-462.5 755,-492.5 1202,-492.5 1202,-462.5 755,-462.5"/>
<text text-anchor="start" x="762" y="-473.9" font-family="Arial" font-size="14.00" fill="#000000">branchid    </text>
<text text-anchor="start" x="849.885" y="-473.9" font-family="Arial" font-size="14.00" fill="#666666">[integer]</text>
<polygon fill="none" stroke="#000000" points="755,-432.5 755,-462.5 1202,-462.5 1202,-432.5 755,-432.5"/>
<text text-anchor="start" x="762" y="-443.9" font-family="Arial" font-size="14.00" fill="#000000">period    </text>
<text text-anchor="start" x="835.1024" y="-443.9" font-family="Arial" font-size="14.00" fill="#666666">[date]</text>
<polygon fill="none" stroke="#000000" points="755,-402.5 755,-432.5 1202,-432.5 1202,-402.5 755,-402.5"/>
<text text-anchor="start" x="762" y="-413.9" font-family="Arial" font-size="14.00" fill="#000000">settingvalueid    </text>
<text text-anchor="start" x="881.784" y="-413.9" font-family="Arial" font-size="14.00" fill="#666666">[integer]</text>
<polygon fill="none" stroke="#000000" points="755,-372.5 755,-402.5 1202,-402.5 1202,-372.5 755,-372.5"/>
<text text-anchor="start" x="762" y="-383.9" font-family="Arial" font-size="14.00" fill="#000000">settingvalueagainst    </text>
<text text-anchor="start" x="916.0224" y="-383.9" font-family="Arial" font-size="14.00" fill="#666666">[integer]</text>
<polygon fill="none" stroke="#000000" points="755,-342.5 755,-372.5 1202,-372.5 1202,-342.5 755,-342.5"/>
<text text-anchor="start" x="762" y="-353.9" font-family="Arial" font-size="14.00" fill="#000000">valuein    </text>
<text text-anchor="start" x="840.5484" y="-353.9" font-family="Arial" font-size="14.00" fill="#666666">[integer]</text>
<polygon fill="none" stroke="#000000" points="755,-312.5 755,-342.5 1202,-342.5 1202,-312.5 755,-312.5"/>
<text text-anchor="start" x="762" y="-323.9" font-family="Arial" font-size="14.00" fill="#000000">value_amount    </text>
<text text-anchor="start" x="884.1234" y="-323.9" font-family="Arial" font-size="14.00" fill="#666666">[double precision]</text>
<polygon fill="none" stroke="#000000" points="755,-282.5 755,-312.5 1202,-312.5 1202,-282.5 755,-282.5"/>
<text text-anchor="start" x="762" y="-293.9" font-family="Arial" font-size="14.00" fill="#000000">createdon    </text>
<text text-anchor="start" x="858.4516" y="-293.9" font-family="Arial" font-size="14.00" fill="#666666">[date]</text>
<polygon fill="none" stroke="#000000" points="755,-252.5 755,-282.5 1202,-282.5 1202,-252.5 755,-252.5"/>
<text text-anchor="start" x="762" y="-263.9" font-family="Arial" font-size="14.00" fill="#000000">createdby    </text>
<text text-anchor="start" x="857.669" y="-263.9" font-family="Arial" font-size="14.00" fill="#666666">[smallint]</text>
<polygon fill="none" stroke="#000000" points="755,-222.5 755,-252.5 1202,-252.5 1202,-222.5 755,-222.5"/>
<text text-anchor="start" x="762" y="-233.9" font-family="Arial" font-size="14.00" fill="#000000">authorizedon    </text>
<text text-anchor="start" x="877.1234" y="-233.9" font-family="Arial" font-size="14.00" fill="#666666">[date]</text>
<polygon fill="none" stroke="#000000" points="755,-192.5 755,-222.5 1202,-222.5 1202,-192.5 755,-192.5"/>
<text text-anchor="start" x="762" y="-203.9" font-family="Arial" font-size="14.00" fill="#000000">authorizedby    </text>
<text text-anchor="start" x="876.3408" y="-203.9" font-family="Arial" font-size="14.00" fill="#666666">[smallint]</text>
<polygon fill="none" stroke="#000000" points="755,-162.5 755,-192.5 1202,-192.5 1202,-162.5 755,-162.5"/>
<text text-anchor="start" x="762" y="-173.9" font-family="Arial" font-size="14.00" fill="#000000">isauthorized    </text>
<text text-anchor="start" x="871.6648" y="-173.9" font-family="Arial" font-size="14.00" fill="#666666">[boolean]</text>
<polygon fill="none" stroke="#000000" points="755,-132.5 755,-162.5 1202,-162.5 1202,-132.5 755,-132.5"/>
<text text-anchor="start" x="762" y="-143.9" font-family="Arial" font-size="14.00" fill="#000000">amendby    </text>
<text text-anchor="start" x="853.7784" y="-143.9" font-family="Arial" font-size="14.00" fill="#666666">[integer]</text>
<polygon fill="none" stroke="#000000" points="755,-102.5 755,-132.5 1202,-132.5 1202,-102.5 755,-102.5"/>
<text text-anchor="start" x="762" y="-113.9" font-family="Arial" font-size="14.00" fill="#000000">amendon    </text>
<text text-anchor="start" x="854.561" y="-113.9" font-family="Arial" font-size="14.00" fill="#666666">[timestamp without time zone]</text>
<polygon fill="none" stroke="#000000" points="755,-72.5 755,-102.5 1202,-102.5 1202,-72.5 755,-72.5"/>
<text text-anchor="start" x="762" y="-83.9" font-family="Arial" font-size="14.00" fill="#000000">amendno    </text>
<text text-anchor="start" x="854.561" y="-83.9" font-family="Arial" font-size="14.00" fill="#666666">[integer]</text>
<polygon fill="none" stroke="#000000" points="755,-42.5 755,-72.5 1202,-72.5 1202,-42.5 755,-42.5"/>
<text text-anchor="start" x="762" y="-53.9" font-family="Arial" font-size="14.00" fill="#000000">amendreason    </text>
<text text-anchor="start" x="881.7868" y="-53.9" font-family="Arial" font-size="14.00" fill="#666666">[text]</text>
</g>
<!-- public.pur_profitabilitysettingdetailamendlog&#45;&gt;public.pur_profitabilitysettingamendlog -->
<g id="edge1" class="edge">
<title>public.pur_profitabilitysettingdetailamendlog:settingmasteramendid&#45;&gt;public.pur_profitabilitysettingamendlog:settingmasteramendid</title>
<path fill="none" stroke="#000000" d="M723.8372,-1025.7228C656.2541,-1000.8825 682.0137,-723.1388 734,-667 804.8715,-590.4675 1131.1285,-707.5325 1202,-631 1230.2349,-600.5098 1243.5556,-537.5 1202,-537.5"/>
<polygon fill="#000000" stroke="#000000" points="724.1495,-1025.7773 733.2248,-1031.9327 729.0747,-1026.6387 734,-1027.5 734,-1027.5 734,-1027.5 729.0747,-1026.6387 734.7752,-1023.0673 724.1495,-1025.7773 724.1495,-1025.7773"/>
<text text-anchor="start" x="6.6955" y="-1037.5" font-family="Arial" font-size="10.00" fill="#000000">FOREIGN KEY (settingmasteramendid) REFERENCES pur_profitabilitysettingamendlog(settingmasteramendid) ON UPDATE CASCADE ON DELETE RESTRICT</text>
</g>
</g>
</svg>
