<?xml version="1.0" encoding="UTF-8" standalone="no"?>
<!DOCTYPE svg PUBLIC "-//W3C//DTD SVG 1.1//EN"
 "http://www.w3.org/Graphics/SVG/1.1/DTD/svg11.dtd">
<!-- Generated by graphviz version 2.40.1 (20161225.0304)
 -->
<!-- Title: public.sale_tokenreceivedetails Pages: 1 -->
<svg width="490pt" height="225pt"
 viewBox="0.00 0.00 490.00 225.00" xmlns="http://www.w3.org/2000/svg" xmlns:xlink="http://www.w3.org/1999/xlink">
<g id="graph0" class="graph" transform="scale(1 1) rotate(0) translate(4 221)">
<title>public.sale_tokenreceivedetails</title>
<polygon fill="#ffffff" stroke="transparent" points="-4,4 -4,-221 486,-221 486,4 -4,4"/>
<!-- public.sale_tokenreceivedetails -->
<g id="node1" class="node">
<title>public.sale_tokenreceivedetails</title>
<polygon fill="#efefef" stroke="transparent" points="46,-135.5 46,-170.5 436,-170.5 436,-135.5 46,-135.5"/>
<polygon fill="none" stroke="#000000" points="46,-135.5 46,-170.5 436,-170.5 436,-135.5 46,-135.5"/>
<text text-anchor="start" x="52.6875" y="-148.3" font-family="Arial Bold" font-size="18.00" fill="#000000">public.sale_tokenreceivedetails</text>
<text text-anchor="start" x="301.7445" y="-148.3" font-family="Arial" font-size="14.00" fill="#000000">    </text>
<text text-anchor="start" x="335.9493" y="-148.3" font-family="Arial" font-size="14.00" fill="#666666">[BASE TABLE]</text>
<polygon fill="none" stroke="#000000" points="46,-105.5 46,-135.5 436,-135.5 436,-105.5 46,-105.5"/>
<text text-anchor="start" x="53" y="-116.9" font-family="Arial" font-size="14.00" fill="#000000">tokenrecdetailid </text>
<text text-anchor="start" x="154.913" y="-116.9" font-family="Arial" font-size="14.00" fill="#666666">[integer]</text>
<polygon fill="none" stroke="#000000" points="46,-75.5 46,-105.5 436,-105.5 436,-75.5 46,-75.5"/>
<text text-anchor="start" x="53" y="-86.9" font-family="Arial" font-size="14.00" fill="#000000">tokenrecid </text>
<text text-anchor="start" x="121.4614" y="-86.9" font-family="Arial" font-size="14.00" fill="#666666">[integer]</text>
<polygon fill="none" stroke="#000000" points="46,-45.5 46,-75.5 436,-75.5 436,-45.5 46,-45.5"/>
<text text-anchor="start" x="53" y="-56.9" font-family="Arial" font-size="14.00" fill="#000000">partyid </text>
<text text-anchor="start" x="98.8962" y="-56.9" font-family="Arial" font-size="14.00" fill="#666666">[integer]</text>
<polygon fill="none" stroke="#000000" stroke-width="3" points="44.5,-44.5 44.5,-172.5 437.5,-172.5 437.5,-44.5 44.5,-44.5"/>
</g>
</g>
</svg>
