<?xml version="1.0" encoding="UTF-8" standalone="no"?>
<!DOCTYPE svg PUBLIC "-//W3C//DTD SVG 1.1//EN"
 "http://www.w3.org/Graphics/SVG/1.1/DTD/svg11.dtd">
<!-- Generated by graphviz version 2.40.1 (20161225.0304)
 -->
<!-- Title: public.qlty_inspection Pages: 1 -->
<svg width="685pt" height="2542pt"
 viewBox="0.00 0.00 685.00 2542.00" xmlns="http://www.w3.org/2000/svg" xmlns:xlink="http://www.w3.org/1999/xlink">
<g id="graph0" class="graph" transform="scale(1 1) rotate(0) translate(4 2538)">
<title>public.qlty_inspection</title>
<polygon fill="#ffffff" stroke="transparent" points="-4,4 -4,-2538 681,-2538 681,4 -4,4"/>
<!-- public.qlty_inspection -->
<g id="node1" class="node">
<title>public.qlty_inspection</title>
<polygon fill="#efefef" stroke="transparent" points="54,-2452.5 54,-2487.5 369,-2487.5 369,-2452.5 54,-2452.5"/>
<polygon fill="none" stroke="#000000" points="54,-2452.5 54,-2487.5 369,-2487.5 369,-2452.5 54,-2452.5"/>
<text text-anchor="start" x="62.1962" y="-2465.3" font-family="Arial Bold" font-size="18.00" fill="#000000">public.qlty_inspection</text>
<text text-anchor="start" x="233.2358" y="-2465.3" font-family="Arial" font-size="14.00" fill="#000000">    </text>
<text text-anchor="start" x="267.4406" y="-2465.3" font-family="Arial" font-size="14.00" fill="#666666">[BASE TABLE]</text>
<polygon fill="none" stroke="#000000" points="54,-2422.5 54,-2452.5 369,-2452.5 369,-2422.5 54,-2422.5"/>
<text text-anchor="start" x="61" y="-2433.9" font-family="Arial" font-size="14.00" fill="#000000">inspectionid </text>
<text text-anchor="start" x="138.7966" y="-2433.9" font-family="Arial" font-size="14.00" fill="#666666">[integer]</text>
<polygon fill="none" stroke="#000000" points="54,-2392.5 54,-2422.5 369,-2422.5 369,-2392.5 54,-2392.5"/>
<text text-anchor="start" x="61" y="-2403.9" font-family="Arial" font-size="14.00" fill="#000000">inspectionno </text>
<text text-anchor="start" x="143.4726" y="-2403.9" font-family="Arial" font-size="14.00" fill="#666666">[varchar(30)]</text>
<polygon fill="none" stroke="#000000" points="54,-2362.5 54,-2392.5 369,-2392.5 369,-2362.5 54,-2362.5"/>
<text text-anchor="start" x="61" y="-2373.9" font-family="Arial" font-size="14.00" fill="#000000">branchid </text>
<text text-anchor="start" x="118.5708" y="-2373.9" font-family="Arial" font-size="14.00" fill="#666666">[integer]</text>
<polygon fill="none" stroke="#000000" points="54,-2332.5 54,-2362.5 369,-2362.5 369,-2332.5 54,-2332.5"/>
<text text-anchor="start" x="61" y="-2343.9" font-family="Arial" font-size="14.00" fill="#000000">inspectiondate </text>
<text text-anchor="start" x="155.1458" y="-2343.9" font-family="Arial" font-size="14.00" fill="#666666">[date]</text>
<polygon fill="none" stroke="#000000" points="54,-2302.5 54,-2332.5 369,-2332.5 369,-2302.5 54,-2302.5"/>
<text text-anchor="start" x="61" y="-2313.9" font-family="Arial" font-size="14.00" fill="#000000">productionid </text>
<text text-anchor="start" x="141.1332" y="-2313.9" font-family="Arial" font-size="14.00" fill="#666666">[integer]</text>
<polygon fill="none" stroke="#000000" points="54,-2272.5 54,-2302.5 369,-2302.5 369,-2272.5 54,-2272.5"/>
<text text-anchor="start" x="61" y="-2283.9" font-family="Arial" font-size="14.00" fill="#000000">inspectedby </text>
<text text-anchor="start" x="139.5834" y="-2283.9" font-family="Arial" font-size="14.00" fill="#666666">[integer]</text>
<polygon fill="none" stroke="#000000" points="54,-2242.5 54,-2272.5 369,-2272.5 369,-2242.5 54,-2242.5"/>
<text text-anchor="start" x="61" y="-2253.9" font-family="Arial" font-size="14.00" fill="#000000">createdby </text>
<text text-anchor="start" x="126.3548" y="-2253.9" font-family="Arial" font-size="14.00" fill="#666666">[integer]</text>
<polygon fill="none" stroke="#000000" points="54,-2212.5 54,-2242.5 369,-2242.5 369,-2212.5 54,-2212.5"/>
<text text-anchor="start" x="61" y="-2223.9" font-family="Arial" font-size="14.00" fill="#000000">createdon </text>
<text text-anchor="start" x="127.1374" y="-2223.9" font-family="Arial" font-size="14.00" fill="#666666">[timestamp without time zone]</text>
<polygon fill="none" stroke="#000000" points="54,-2182.5 54,-2212.5 369,-2212.5 369,-2182.5 54,-2182.5"/>
<text text-anchor="start" x="61" y="-2193.9" font-family="Arial" font-size="14.00" fill="#000000">authorizedby </text>
<text text-anchor="start" x="145.0266" y="-2193.9" font-family="Arial" font-size="14.00" fill="#666666">[integer]</text>
<polygon fill="none" stroke="#000000" points="54,-2152.5 54,-2182.5 369,-2182.5 369,-2152.5 54,-2152.5"/>
<text text-anchor="start" x="61" y="-2163.9" font-family="Arial" font-size="14.00" fill="#000000">authorizedon </text>
<text text-anchor="start" x="145.8092" y="-2163.9" font-family="Arial" font-size="14.00" fill="#666666">[timestamp without time zone]</text>
<polygon fill="none" stroke="#000000" points="54,-2122.5 54,-2152.5 369,-2152.5 369,-2122.5 54,-2122.5"/>
<text text-anchor="start" x="61" y="-2133.9" font-family="Arial" font-size="14.00" fill="#000000">iscancelled </text>
<text text-anchor="start" x="134.1234" y="-2133.9" font-family="Arial" font-size="14.00" fill="#666666">[boolean]</text>
<polygon fill="none" stroke="#000000" points="54,-2092.5 54,-2122.5 369,-2122.5 369,-2092.5 54,-2092.5"/>
<text text-anchor="start" x="61" y="-2103.9" font-family="Arial" font-size="14.00" fill="#000000">isauthorized </text>
<text text-anchor="start" x="140.3506" y="-2103.9" font-family="Arial" font-size="14.00" fill="#666666">[boolean]</text>
<polygon fill="none" stroke="#000000" points="54,-2062.5 54,-2092.5 369,-2092.5 369,-2062.5 54,-2062.5"/>
<text text-anchor="start" x="61" y="-2073.9" font-family="Arial" font-size="14.00" fill="#000000">editlog </text>
<text text-anchor="start" x="106.1248" y="-2073.9" font-family="Arial" font-size="14.00" fill="#666666">[text]</text>
<polygon fill="none" stroke="#000000" points="54,-2032.5 54,-2062.5 369,-2062.5 369,-2032.5 54,-2032.5"/>
<text text-anchor="start" x="61" y="-2043.9" font-family="Arial" font-size="14.00" fill="#000000">seriesno </text>
<text text-anchor="start" x="117.7882" y="-2043.9" font-family="Arial" font-size="14.00" fill="#666666">[integer]</text>
<polygon fill="none" stroke="#000000" points="54,-2002.5 54,-2032.5 369,-2032.5 369,-2002.5 54,-2002.5"/>
<text text-anchor="start" x="61" y="-2013.9" font-family="Arial" font-size="14.00" fill="#000000">seriescode </text>
<text text-anchor="start" x="132.5708" y="-2013.9" font-family="Arial" font-size="14.00" fill="#666666">[varchar(20)]</text>
<polygon fill="none" stroke="#000000" points="54,-1972.5 54,-2002.5 369,-2002.5 369,-1972.5 54,-1972.5"/>
<text text-anchor="start" x="61" y="-1983.9" font-family="Arial" font-size="14.00" fill="#000000">headauthorizedby </text>
<text text-anchor="start" x="176.157" y="-1983.9" font-family="Arial" font-size="14.00" fill="#666666">[integer]</text>
<polygon fill="none" stroke="#000000" points="54,-1942.5 54,-1972.5 369,-1972.5 369,-1942.5 54,-1942.5"/>
<text text-anchor="start" x="60.9601" y="-1953.9" font-family="Arial" font-size="14.00" fill="#000000">headauthorizedon </text>
<text text-anchor="start" x="176.8997" y="-1953.9" font-family="Arial" font-size="14.00" fill="#666666">[timestamp without time zone]</text>
<polygon fill="none" stroke="#000000" points="54,-1912.5 54,-1942.5 369,-1942.5 369,-1912.5 54,-1912.5"/>
<text text-anchor="start" x="61" y="-1923.9" font-family="Arial" font-size="14.00" fill="#000000">isagainstrequisition </text>
<text text-anchor="start" x="183.9088" y="-1923.9" font-family="Arial" font-size="14.00" fill="#666666">[boolean]</text>
<polygon fill="none" stroke="#000000" points="54,-1882.5 54,-1912.5 369,-1912.5 369,-1882.5 54,-1882.5"/>
<text text-anchor="start" x="61" y="-1893.9" font-family="Arial" font-size="14.00" fill="#000000">isagainstrequsition </text>
<text text-anchor="start" x="180.8022" y="-1893.9" font-family="Arial" font-size="14.00" fill="#666666">[boolean]</text>
<polygon fill="none" stroke="#000000" points="54,-1852.5 54,-1882.5 369,-1882.5 369,-1852.5 54,-1852.5"/>
<text text-anchor="start" x="61" y="-1863.9" font-family="Arial" font-size="14.00" fill="#000000">seriesid </text>
<text text-anchor="start" x="113.1122" y="-1863.9" font-family="Arial" font-size="14.00" fill="#666666">[integer]</text>
<polygon fill="none" stroke="#000000" points="54,-1822.5 54,-1852.5 369,-1852.5 369,-1822.5 54,-1822.5"/>
<text text-anchor="start" x="61" y="-1833.9" font-family="Arial" font-size="14.00" fill="#000000">seriesvouchertype </text>
<text text-anchor="start" x="178.4698" y="-1833.9" font-family="Arial" font-size="14.00" fill="#666666">[integer]</text>
<polygon fill="none" stroke="#000000" points="54,-1792.5 54,-1822.5 369,-1822.5 369,-1792.5 54,-1792.5"/>
<text text-anchor="start" x="61" y="-1803.9" font-family="Arial" font-size="14.00" fill="#000000">isinspectionoccured </text>
<text text-anchor="start" x="187.805" y="-1803.9" font-family="Arial" font-size="14.00" fill="#666666">[boolean]</text>
<polygon fill="none" stroke="#000000" points="54,-1762.5 54,-1792.5 369,-1792.5 369,-1762.5 54,-1762.5"/>
<text text-anchor="start" x="61" y="-1773.9" font-family="Arial" font-size="14.00" fill="#000000">remarks </text>
<text text-anchor="start" x="115.4376" y="-1773.9" font-family="Arial" font-size="14.00" fill="#666666">[text]</text>
<polygon fill="none" stroke="#000000" points="54,-1732.5 54,-1762.5 369,-1762.5 369,-1732.5 54,-1732.5"/>
<text text-anchor="start" x="61" y="-1743.9" font-family="Arial" font-size="14.00" fill="#000000">qctypeid </text>
<text text-anchor="start" x="117.0182" y="-1743.9" font-family="Arial" font-size="14.00" fill="#666666">[integer]</text>
<polygon fill="none" stroke="#000000" points="54,-1702.5 54,-1732.5 369,-1732.5 369,-1702.5 54,-1702.5"/>
<text text-anchor="start" x="61" y="-1713.9" font-family="Arial" font-size="14.00" fill="#000000">isfileattached </text>
<text text-anchor="start" x="146.5778" y="-1713.9" font-family="Arial" font-size="14.00" fill="#666666">[boolean]</text>
<polygon fill="none" stroke="#000000" points="54,-1672.5 54,-1702.5 369,-1702.5 369,-1672.5 54,-1672.5"/>
<text text-anchor="start" x="61" y="-1683.9" font-family="Arial" font-size="14.00" fill="#000000">formid </text>
<text text-anchor="start" x="103.7742" y="-1683.9" font-family="Arial" font-size="14.00" fill="#666666">[integer]</text>
<polygon fill="none" stroke="#000000" points="54,-1642.5 54,-1672.5 369,-1672.5 369,-1642.5 54,-1642.5"/>
<text text-anchor="start" x="61" y="-1653.9" font-family="Arial" font-size="14.00" fill="#000000">updatedby </text>
<text text-anchor="start" x="130.2594" y="-1653.9" font-family="Arial" font-size="14.00" fill="#666666">[integer]</text>
<polygon fill="none" stroke="#000000" points="54,-1612.5 54,-1642.5 369,-1642.5 369,-1612.5 54,-1612.5"/>
<text text-anchor="start" x="61" y="-1623.9" font-family="Arial" font-size="14.00" fill="#000000">updatedon </text>
<text text-anchor="start" x="131.042" y="-1623.9" font-family="Arial" font-size="14.00" fill="#666666">[timestamp(6) without time zone]</text>
<polygon fill="none" stroke="#000000" stroke-width="3" points="52,-1611.5 52,-2489.5 370,-2489.5 370,-1611.5 52,-1611.5"/>
</g>
<!-- public.comn_formmaster -->
<g id="node2" class="node">
<title>public.comn_formmaster</title>
<polygon fill="#efefef" stroke="transparent" points="43,-1452.5 43,-1487.5 381,-1487.5 381,-1452.5 43,-1452.5"/>
<polygon fill="none" stroke="#000000" points="43,-1452.5 43,-1487.5 381,-1487.5 381,-1452.5 43,-1452.5"/>
<text text-anchor="start" x="49.7101" y="-1465.3" font-family="Arial Bold" font-size="18.00" fill="#000000">public.comn_formmaster</text>
<text text-anchor="start" x="246.7219" y="-1465.3" font-family="Arial" font-size="14.00" fill="#000000">    </text>
<text text-anchor="start" x="280.9267" y="-1465.3" font-family="Arial" font-size="14.00" fill="#666666">[BASE TABLE]</text>
<polygon fill="none" stroke="#000000" points="43,-1422.5 43,-1452.5 381,-1452.5 381,-1422.5 43,-1422.5"/>
<text text-anchor="start" x="50" y="-1433.9" font-family="Arial" font-size="14.00" fill="#000000">formid    </text>
<text text-anchor="start" x="123.0884" y="-1433.9" font-family="Arial" font-size="14.00" fill="#666666">[integer]</text>
<polygon fill="none" stroke="#000000" points="43,-1392.5 43,-1422.5 381,-1422.5 381,-1392.5 43,-1392.5"/>
<text text-anchor="start" x="50" y="-1403.9" font-family="Arial" font-size="14.00" fill="#000000">formname    </text>
<text text-anchor="start" x="147.2076" y="-1403.9" font-family="Arial" font-size="14.00" fill="#666666">[varchar(100)]</text>
<polygon fill="none" stroke="#000000" points="43,-1362.5 43,-1392.5 381,-1392.5 381,-1362.5 43,-1362.5"/>
<text text-anchor="start" x="50" y="-1373.9" font-family="Arial" font-size="14.00" fill="#000000">caption    </text>
<text text-anchor="start" x="129.3324" y="-1373.9" font-family="Arial" font-size="14.00" fill="#666666">[varchar(100)]</text>
<polygon fill="none" stroke="#000000" points="43,-1332.5 43,-1362.5 381,-1362.5 381,-1332.5 43,-1332.5"/>
<text text-anchor="start" x="50" y="-1343.9" font-family="Arial" font-size="14.00" fill="#000000">formtype    </text>
<text text-anchor="start" x="138.655" y="-1343.9" font-family="Arial" font-size="14.00" fill="#666666">[smallint]</text>
<polygon fill="none" stroke="#000000" points="43,-1302.5 43,-1332.5 381,-1332.5 381,-1302.5 43,-1302.5"/>
<text text-anchor="start" x="50" y="-1313.9" font-family="Arial" font-size="14.00" fill="#000000">mnunew    </text>
<text text-anchor="start" x="137.1024" y="-1313.9" font-family="Arial" font-size="14.00" fill="#666666">[boolean]</text>
<polygon fill="none" stroke="#000000" points="43,-1272.5 43,-1302.5 381,-1302.5 381,-1272.5 43,-1272.5"/>
<text text-anchor="start" x="50" y="-1283.9" font-family="Arial" font-size="14.00" fill="#000000">mnuedit    </text>
<text text-anchor="start" x="133.993" y="-1283.9" font-family="Arial" font-size="14.00" fill="#666666">[boolean]</text>
<polygon fill="none" stroke="#000000" points="43,-1242.5 43,-1272.5 381,-1272.5 381,-1242.5 43,-1242.5"/>
<text text-anchor="start" x="50" y="-1253.9" font-family="Arial" font-size="14.00" fill="#000000">mnuauthorize    </text>
<text text-anchor="start" x="169.0014" y="-1253.9" font-family="Arial" font-size="14.00" fill="#666666">[boolean]</text>
<polygon fill="none" stroke="#000000" points="43,-1212.5 43,-1242.5 381,-1242.5 381,-1212.5 43,-1212.5"/>
<text text-anchor="start" x="50" y="-1223.9" font-family="Arial" font-size="14.00" fill="#000000">mnuview    </text>
<text text-anchor="start" x="139.4264" y="-1223.9" font-family="Arial" font-size="14.00" fill="#666666">[boolean]</text>
<polygon fill="none" stroke="#000000" points="43,-1182.5 43,-1212.5 381,-1212.5 381,-1182.5 43,-1182.5"/>
<text text-anchor="start" x="50" y="-1193.9" font-family="Arial" font-size="14.00" fill="#000000">mnuprint    </text>
<text text-anchor="start" x="138.6536" y="-1193.9" font-family="Arial" font-size="14.00" fill="#666666">[boolean]</text>
<polygon fill="none" stroke="#000000" points="43,-1152.5 43,-1182.5 381,-1182.5 381,-1152.5 43,-1152.5"/>
<text text-anchor="start" x="50" y="-1163.9" font-family="Arial" font-size="14.00" fill="#000000">mnuamendment    </text>
<text text-anchor="start" x="185.338" y="-1163.9" font-family="Arial" font-size="14.00" fill="#666666">[boolean]</text>
<polygon fill="none" stroke="#000000" points="43,-1122.5 43,-1152.5 381,-1152.5 381,-1122.5 43,-1122.5"/>
<text text-anchor="start" x="50" y="-1133.9" font-family="Arial" font-size="14.00" fill="#000000">mnusendtotally    </text>
<text text-anchor="start" x="178.338" y="-1133.9" font-family="Arial" font-size="14.00" fill="#666666">[boolean]</text>
<polygon fill="none" stroke="#000000" points="43,-1092.5 43,-1122.5 381,-1122.5 381,-1092.5 43,-1092.5"/>
<text text-anchor="start" x="50" y="-1103.9" font-family="Arial" font-size="14.00" fill="#000000">mnuexporttoexcel    </text>
<text text-anchor="start" x="194.6746" y="-1103.9" font-family="Arial" font-size="14.00" fill="#666666">[boolean]</text>
<polygon fill="none" stroke="#000000" points="43,-1062.5 43,-1092.5 381,-1092.5 381,-1062.5 43,-1062.5"/>
<text text-anchor="start" x="50" y="-1073.9" font-family="Arial" font-size="14.00" fill="#000000">extravalue    </text>
<text text-anchor="start" x="148.7756" y="-1073.9" font-family="Arial" font-size="14.00" fill="#666666">[varchar(50)]</text>
<polygon fill="none" stroke="#000000" points="43,-1032.5 43,-1062.5 381,-1062.5 381,-1032.5 43,-1032.5"/>
<text text-anchor="start" x="50" y="-1043.9" font-family="Arial" font-size="14.00" fill="#000000">formval    </text>
<text text-anchor="start" x="130.0884" y="-1043.9" font-family="Arial" font-size="14.00" fill="#666666">[varchar(70)]</text>
<polygon fill="none" stroke="#000000" points="43,-1002.5 43,-1032.5 381,-1032.5 381,-1002.5 43,-1002.5"/>
<text text-anchor="start" x="50" y="-1013.9" font-family="Arial" font-size="14.00" fill="#000000">isauthorizationreq    </text>
<text text-anchor="start" x="194.6704" y="-1013.9" font-family="Arial" font-size="14.00" fill="#666666">[boolean]</text>
<polygon fill="none" stroke="#000000" points="43,-972.5 43,-1002.5 381,-1002.5 381,-972.5 43,-972.5"/>
<text text-anchor="start" x="50" y="-983.9" font-family="Arial" font-size="14.00" fill="#000000">mnuclosepending    </text>
<text text-anchor="start" x="193.9046" y="-983.9" font-family="Arial" font-size="14.00" fill="#666666">[boolean]</text>
<polygon fill="none" stroke="#000000" points="43,-942.5 43,-972.5 381,-972.5 381,-942.5 43,-942.5"/>
<text text-anchor="start" x="50" y="-953.9" font-family="Arial" font-size="14.00" fill="#000000">visible    </text>
<text text-anchor="start" x="123.0898" y="-953.9" font-family="Arial" font-size="14.00" fill="#666666">[boolean]</text>
<polygon fill="none" stroke="#000000" points="43,-912.5 43,-942.5 381,-942.5 381,-912.5 43,-912.5"/>
<text text-anchor="start" x="50" y="-923.9" font-family="Arial" font-size="14.00" fill="#000000">mnucanceltransaction    </text>
<text text-anchor="start" x="220.3464" y="-923.9" font-family="Arial" font-size="14.00" fill="#666666">[boolean]</text>
<polygon fill="none" stroke="#000000" points="43,-882.5 43,-912.5 381,-912.5 381,-882.5 43,-882.5"/>
<text text-anchor="start" x="50" y="-893.9" font-family="Arial" font-size="14.00" fill="#000000">formgroupid    </text>
<text text-anchor="start" x="158.8794" y="-893.9" font-family="Arial" font-size="14.00" fill="#666666">[integer]</text>
<polygon fill="none" stroke="#000000" points="43,-852.5 43,-882.5 381,-882.5 381,-852.5 43,-852.5"/>
<text text-anchor="start" x="50" y="-863.9" font-family="Arial" font-size="14.00" fill="#000000">allowbackdateentry    </text>
<text text-anchor="start" x="204.0098" y="-863.9" font-family="Arial" font-size="14.00" fill="#666666">[boolean]</text>
<polygon fill="none" stroke="#000000" points="43,-822.5 43,-852.5 381,-852.5 381,-822.5 43,-822.5"/>
<text text-anchor="start" x="50" y="-833.9" font-family="Arial" font-size="14.00" fill="#000000">isheadauthorizationreq    </text>
<text text-anchor="start" x="225.8008" y="-833.9" font-family="Arial" font-size="14.00" fill="#666666">[boolean]</text>
<polygon fill="none" stroke="#000000" points="43,-792.5 43,-822.5 381,-822.5 381,-792.5 43,-792.5"/>
<text text-anchor="start" x="50" y="-803.9" font-family="Arial" font-size="14.00" fill="#000000">roundoffitemlevelamt    </text>
<text text-anchor="start" x="214.1122" y="-803.9" font-family="Arial" font-size="14.00" fill="#666666">[integer]</text>
<polygon fill="none" stroke="#000000" points="43,-762.5 43,-792.5 381,-792.5 381,-762.5 43,-762.5"/>
<text text-anchor="start" x="50" y="-773.9" font-family="Arial" font-size="14.00" fill="#000000">mnuattachment    </text>
<text text-anchor="start" x="180.676" y="-773.9" font-family="Arial" font-size="14.00" fill="#666666">[boolean]</text>
<polygon fill="none" stroke="#000000" points="43,-732.5 43,-762.5 381,-762.5 381,-732.5 43,-732.5"/>
<text text-anchor="start" x="50" y="-743.9" font-family="Arial" font-size="14.00" fill="#000000">mnuviewattachment    </text>
<text text-anchor="start" x="208.6718" y="-743.9" font-family="Arial" font-size="14.00" fill="#666666">[boolean]</text>
<polygon fill="none" stroke="#000000" points="43,-702.5 43,-732.5 381,-732.5 381,-702.5 43,-702.5"/>
<text text-anchor="start" x="50" y="-713.9" font-family="Arial" font-size="14.00" fill="#000000">bamount_auth_enable    </text>
<text text-anchor="start" x="223.4922" y="-713.9" font-family="Arial" font-size="14.00" fill="#666666">[boolean]</text>
<polygon fill="none" stroke="#000000" points="43,-672.5 43,-702.5 381,-702.5 381,-672.5 43,-672.5"/>
<text text-anchor="start" x="50" y="-683.9" font-family="Arial" font-size="14.00" fill="#000000">formpath    </text>
<text text-anchor="start" x="139.4376" y="-683.9" font-family="Arial" font-size="14.00" fill="#666666">[text]</text>
<polygon fill="none" stroke="#000000" points="43,-642.5 43,-672.5 381,-672.5 381,-642.5 43,-642.5"/>
<text text-anchor="start" x="50" y="-653.9" font-family="Arial" font-size="14.00" fill="#000000">backdateenddate    </text>
<text text-anchor="start" x="191.5946" y="-653.9" font-family="Arial" font-size="14.00" fill="#666666">[date]</text>
<polygon fill="none" stroke="#000000" points="43,-612.5 43,-642.5 381,-642.5 381,-612.5 43,-612.5"/>
<text text-anchor="start" x="50" y="-623.9" font-family="Arial" font-size="14.00" fill="#000000">saveandprint    </text>
<text text-anchor="start" x="164.3408" y="-623.9" font-family="Arial" font-size="14.00" fill="#666666">[boolean]</text>
<polygon fill="none" stroke="#000000" points="43,-582.5 43,-612.5 381,-612.5 381,-582.5 43,-582.5"/>
<text text-anchor="start" x="50" y="-593.9" font-family="Arial" font-size="14.00" fill="#000000">saveandauthorize    </text>
<text text-anchor="start" x="194.6886" y="-593.9" font-family="Arial" font-size="14.00" fill="#666666">[boolean]</text>
<polygon fill="none" stroke="#000000" points="43,-552.5 43,-582.5 381,-582.5 381,-552.5 43,-552.5"/>
<text text-anchor="start" x="50" y="-563.9" font-family="Arial" font-size="14.00" fill="#000000">mnucreatestructure    </text>
<text text-anchor="start" x="204.7798" y="-563.9" font-family="Arial" font-size="14.00" fill="#666666">[boolean]</text>
<polygon fill="none" stroke="#000000" points="43,-522.5 43,-552.5 381,-552.5 381,-522.5 43,-522.5"/>
<text text-anchor="start" x="50" y="-533.9" font-family="Arial" font-size="14.00" fill="#000000">mnuimport    </text>
<text text-anchor="start" x="150.3142" y="-533.9" font-family="Arial" font-size="14.00" fill="#666666">[boolean]</text>
<polygon fill="none" stroke="#000000" points="43,-492.5 43,-522.5 381,-522.5 381,-492.5 43,-492.5"/>
<text text-anchor="start" x="50" y="-503.9" font-family="Arial" font-size="14.00" fill="#000000">tb_name    </text>
<text text-anchor="start" x="138.669" y="-503.9" font-family="Arial" font-size="14.00" fill="#666666">[varchar]</text>
<polygon fill="none" stroke="#000000" points="43,-462.5 43,-492.5 381,-492.5 381,-462.5 43,-462.5"/>
<text text-anchor="start" x="50" y="-473.9" font-family="Arial" font-size="14.00" fill="#000000">mnuprintserial    </text>
<text text-anchor="start" x="172.0926" y="-473.9" font-family="Arial" font-size="14.00" fill="#666666">[boolean]</text>
<polygon fill="none" stroke="#000000" points="43,-432.5 43,-462.5 381,-462.5 381,-432.5 43,-432.5"/>
<text text-anchor="start" x="50" y="-443.9" font-family="Arial" font-size="14.00" fill="#000000">mnuemail    </text>
<text text-anchor="start" x="144.8696" y="-443.9" font-family="Arial" font-size="14.00" fill="#666666">[boolean]</text>
<polygon fill="none" stroke="#000000" points="43,-402.5 43,-432.5 381,-432.5 381,-402.5 43,-402.5"/>
<text text-anchor="start" x="50" y="-413.9" font-family="Arial" font-size="14.00" fill="#000000">mnuunauthorize    </text>
<text text-anchor="start" x="184.5666" y="-413.9" font-family="Arial" font-size="14.00" fill="#666666">[boolean]</text>
<polygon fill="none" stroke="#000000" points="43,-372.5 43,-402.5 381,-402.5 381,-372.5 43,-372.5"/>
<text text-anchor="start" x="50" y="-383.9" font-family="Arial" font-size="14.00" fill="#000000">report_id    </text>
<text text-anchor="start" x="139.4362" y="-383.9" font-family="Arial" font-size="14.00" fill="#666666">[integer]</text>
<polygon fill="none" stroke="#000000" points="43,-342.5 43,-372.5 381,-372.5 381,-342.5 43,-342.5"/>
<text text-anchor="start" x="50" y="-353.9" font-family="Arial" font-size="14.00" fill="#000000">isautomail    </text>
<text text-anchor="start" x="147.2062" y="-353.9" font-family="Arial" font-size="14.00" fill="#666666">[boolean]</text>
<polygon fill="none" stroke="#000000" points="43,-312.5 43,-342.5 381,-342.5 381,-312.5 43,-312.5"/>
<text text-anchor="start" x="50" y="-323.9" font-family="Arial" font-size="14.00" fill="#000000">printfromdbqry    </text>
<text text-anchor="start" x="174.4306" y="-323.9" font-family="Arial" font-size="14.00" fill="#666666">[boolean]</text>
<polygon fill="none" stroke="#000000" points="43,-282.5 43,-312.5 381,-312.5 381,-282.5 43,-282.5"/>
<text text-anchor="start" x="50" y="-293.9" font-family="Arial" font-size="14.00" fill="#000000">showitemattributeonreport    </text>
<text text-anchor="start" x="246.0112" y="-293.9" font-family="Arial" font-size="14.00" fill="#666666">[boolean]</text>
<polygon fill="none" stroke="#000000" points="43,-252.5 43,-282.5 381,-282.5 381,-252.5 43,-252.5"/>
<text text-anchor="start" x="50" y="-263.9" font-family="Arial" font-size="14.00" fill="#000000">bydefaultselectallitemattribute    </text>
<text text-anchor="start" x="268.5736" y="-263.9" font-family="Arial" font-size="14.00" fill="#666666">[boolean]</text>
<polygon fill="none" stroke="#000000" points="43,-222.5 43,-252.5 381,-252.5 381,-222.5 43,-222.5"/>
<text text-anchor="start" x="50" y="-233.9" font-family="Arial" font-size="14.00" fill="#000000">helpurl    </text>
<text text-anchor="start" x="126.209" y="-233.9" font-family="Arial" font-size="14.00" fill="#666666">[text]</text>
<polygon fill="none" stroke="#000000" points="43,-192.5 43,-222.5 381,-222.5 381,-192.5 43,-192.5"/>
<text text-anchor="start" x="50" y="-203.9" font-family="Arial" font-size="14.00" fill="#000000">roundoffitemlevelgstrate    </text>
<text text-anchor="start" x="233.568" y="-203.9" font-family="Arial" font-size="14.00" fill="#666666">[integer]</text>
<polygon fill="none" stroke="#000000" points="43,-162.5 43,-192.5 381,-192.5 381,-162.5 43,-162.5"/>
<text text-anchor="start" x="50" y="-173.9" font-family="Arial" font-size="14.00" fill="#000000">isforglobalseries    </text>
<text text-anchor="start" x="185.3212" y="-173.9" font-family="Arial" font-size="14.00" fill="#666666">[boolean]</text>
<polygon fill="none" stroke="#000000" points="43,-132.5 43,-162.5 381,-162.5 381,-132.5 43,-132.5"/>
<text text-anchor="start" x="50" y="-143.9" font-family="Arial" font-size="14.00" fill="#000000">saveandprintbarcode    </text>
<text text-anchor="start" x="214.9144" y="-143.9" font-family="Arial" font-size="14.00" fill="#666666">[boolean]</text>
<polygon fill="none" stroke="#000000" points="43,-102.5 43,-132.5 381,-132.5 381,-102.5 43,-102.5"/>
<text text-anchor="start" x="50" y="-113.9" font-family="Arial" font-size="14.00" fill="#000000">discperdecimallimit    </text>
<text text-anchor="start" x="202.4124" y="-113.9" font-family="Arial" font-size="14.00" fill="#666666">[integer]</text>
<polygon fill="none" stroke="#000000" points="43,-72.5 43,-102.5 381,-102.5 381,-72.5 43,-72.5"/>
<text text-anchor="start" x="50" y="-83.9" font-family="Arial" font-size="14.00" fill="#000000">isbackdateimpact    </text>
<text text-anchor="start" x="192.338" y="-83.9" font-family="Arial" font-size="14.00" fill="#666666">[boolean]</text>
<polygon fill="none" stroke="#000000" points="43,-42.5 43,-72.5 381,-72.5 381,-42.5 43,-42.5"/>
<text text-anchor="start" x="50" y="-53.9" font-family="Arial" font-size="14.00" fill="#000000">mnuwhatsapp    </text>
<text text-anchor="start" x="171.3408" y="-53.9" font-family="Arial" font-size="14.00" fill="#666666">[boolean]</text>
</g>
<!-- public.qlty_inspection&#45;&gt;public.comn_formmaster -->
<g id="edge1" class="edge">
<title>public.qlty_inspection:formid&#45;&gt;public.comn_formmaster:formid</title>
<path fill="none" stroke="#000000" d="M378.9995,-1686.4087C420.0349,-1676.6699 402.2882,-1604.1666 369,-1567 320.3733,-1512.7078 91.6267,-1585.2922 43,-1531 15.2753,-1500.0451 1.4444,-1437.5 43,-1437.5"/>
<polygon fill="#000000" stroke="#000000" points="378.941,-1686.415 368.5118,-1683.0266 373.9705,-1686.9575 369,-1687.5 369,-1687.5 369,-1687.5 373.9705,-1686.9575 369.4882,-1691.9734 378.941,-1686.415 378.941,-1686.415"/>
<text text-anchor="start" x="375.7865" y="-1697.5" font-family="Arial" font-size="10.00" fill="#000000">FOREIGN KEY (formid) REFERENCES comn_formmaster(formid)</text>
</g>
</g>
</svg>
