<?xml version="1.0" encoding="UTF-8" standalone="no"?>
<!DOCTYPE svg PUBLIC "-//W3C//DTD SVG 1.1//EN"
 "http://www.w3.org/Graphics/SVG/1.1/DTD/svg11.dtd">
<!-- Generated by graphviz version 2.40.1 (20161225.0304)
 -->
<!-- Title: public.hr_recruitment_budgetdetail Pages: 1 -->
<svg width="517pt" height="285pt"
 viewBox="0.00 0.00 517.00 285.00" xmlns="http://www.w3.org/2000/svg" xmlns:xlink="http://www.w3.org/1999/xlink">
<g id="graph0" class="graph" transform="scale(1 1) rotate(0) translate(4 281)">
<title>public.hr_recruitment_budgetdetail</title>
<polygon fill="#ffffff" stroke="transparent" points="-4,4 -4,-281 513,-281 513,4 -4,4"/>
<!-- public.hr_recruitment_budgetdetail -->
<g id="node1" class="node">
<title>public.hr_recruitment_budgetdetail</title>
<polygon fill="#efefef" stroke="transparent" points="46.5,-195.5 46.5,-230.5 463.5,-230.5 463.5,-195.5 46.5,-195.5"/>
<polygon fill="none" stroke="#000000" points="46.5,-195.5 46.5,-230.5 463.5,-230.5 463.5,-195.5 46.5,-195.5"/>
<text text-anchor="start" x="53.1848" y="-208.3" font-family="Arial Bold" font-size="18.00" fill="#000000">public.hr_recruitment_budgetdetail</text>
<text text-anchor="start" x="329.2472" y="-208.3" font-family="Arial" font-size="14.00" fill="#000000">    </text>
<text text-anchor="start" x="363.452" y="-208.3" font-family="Arial" font-size="14.00" fill="#666666">[BASE TABLE]</text>
<polygon fill="none" stroke="#000000" points="46.5,-165.5 46.5,-195.5 463.5,-195.5 463.5,-165.5 46.5,-165.5"/>
<text text-anchor="start" x="53.5" y="-176.9" font-family="Arial" font-size="14.00" fill="#000000">rbdetailid </text>
<text text-anchor="start" x="114.1746" y="-176.9" font-family="Arial" font-size="14.00" fill="#666666">[integer]</text>
<polygon fill="none" stroke="#000000" points="46.5,-135.5 46.5,-165.5 463.5,-165.5 463.5,-135.5 46.5,-135.5"/>
<text text-anchor="start" x="53.5" y="-146.9" font-family="Arial" font-size="14.00" fill="#000000">rbid </text>
<text text-anchor="start" x="80.723" y="-146.9" font-family="Arial" font-size="14.00" fill="#666666">[integer]</text>
<polygon fill="none" stroke="#000000" points="46.5,-105.5 46.5,-135.5 463.5,-135.5 463.5,-105.5 46.5,-105.5"/>
<text text-anchor="start" x="53.5" y="-116.9" font-family="Arial" font-size="14.00" fill="#000000">budget_amount </text>
<text text-anchor="start" x="154.6584" y="-116.9" font-family="Arial" font-size="14.00" fill="#666666">[numeric(15,2)]</text>
<polygon fill="none" stroke="#000000" points="46.5,-75.5 46.5,-105.5 463.5,-105.5 463.5,-75.5 46.5,-75.5"/>
<text text-anchor="start" x="53.5" y="-86.9" font-family="Arial" font-size="14.00" fill="#000000">remarks </text>
<text text-anchor="start" x="107.9376" y="-86.9" font-family="Arial" font-size="14.00" fill="#666666">[varchar]</text>
<polygon fill="none" stroke="#000000" points="46.5,-45.5 46.5,-75.5 463.5,-75.5 463.5,-45.5 46.5,-45.5"/>
<text text-anchor="start" x="53.5" y="-56.9" font-family="Arial" font-size="14.00" fill="#000000">cmpfdetailid </text>
<text text-anchor="start" x="132.0652" y="-56.9" font-family="Arial" font-size="14.00" fill="#666666">[integer]</text>
<polygon fill="none" stroke="#000000" stroke-width="3" points="44.5,-44.5 44.5,-232.5 464.5,-232.5 464.5,-44.5 44.5,-44.5"/>
</g>
</g>
</svg>
