<?xml version="1.0" encoding="UTF-8" standalone="no"?>
<!DOCTYPE svg PUBLIC "-//W3C//DTD SVG 1.1//EN"
 "http://www.w3.org/Graphics/SVG/1.1/DTD/svg11.dtd">
<!-- Generated by graphviz version 2.40.1 (20161225.0304)
 -->
<!-- Title: public.ohemendrast_value_final Pages: 1 -->
<svg width="494pt" height="285pt"
 viewBox="0.00 0.00 494.00 285.00" xmlns="http://www.w3.org/2000/svg" xmlns:xlink="http://www.w3.org/1999/xlink">
<g id="graph0" class="graph" transform="scale(1 1) rotate(0) translate(4 281)">
<title>public.ohemendrast_value_final</title>
<polygon fill="#ffffff" stroke="transparent" points="-4,4 -4,-281 490,-281 490,4 -4,4"/>
<!-- public.ohemendrast_value_final -->
<g id="node1" class="node">
<title>public.ohemendrast_value_final</title>
<polygon fill="#efefef" stroke="transparent" points="46,-195.5 46,-230.5 440,-230.5 440,-195.5 46,-195.5"/>
<polygon fill="none" stroke="#000000" points="46,-195.5 46,-230.5 440,-230.5 440,-195.5 46,-195.5"/>
<text text-anchor="start" x="52.6823" y="-208.3" font-family="Arial Bold" font-size="18.00" fill="#000000">public.ohemendrast_value_final</text>
<text text-anchor="start" x="305.7497" y="-208.3" font-family="Arial" font-size="14.00" fill="#000000">    </text>
<text text-anchor="start" x="339.9545" y="-208.3" font-family="Arial" font-size="14.00" fill="#666666">[BASE TABLE]</text>
<polygon fill="none" stroke="#000000" points="46,-165.5 46,-195.5 440,-195.5 440,-165.5 46,-165.5"/>
<text text-anchor="start" x="53" y="-176.9" font-family="Arial" font-size="14.00" fill="#000000">storeid </text>
<text text-anchor="start" x="98.8962" y="-176.9" font-family="Arial" font-size="14.00" fill="#666666">[integer]</text>
<polygon fill="none" stroke="#000000" points="46,-135.5 46,-165.5 440,-165.5 440,-135.5 46,-135.5"/>
<text text-anchor="start" x="53" y="-146.9" font-family="Arial" font-size="14.00" fill="#000000">itemid </text>
<text text-anchor="start" x="94.2202" y="-146.9" font-family="Arial" font-size="14.00" fill="#666666">[integer]</text>
<polygon fill="none" stroke="#000000" points="46,-105.5 46,-135.5 440,-135.5 440,-105.5 46,-105.5"/>
<text text-anchor="start" x="53" y="-116.9" font-family="Arial" font-size="14.00" fill="#000000">opbaseqty </text>
<text text-anchor="start" x="121.4768" y="-116.9" font-family="Arial" font-size="14.00" fill="#666666">[numeric]</text>
<polygon fill="none" stroke="#000000" points="46,-75.5 46,-105.5 440,-105.5 440,-75.5 46,-75.5"/>
<text text-anchor="start" x="53" y="-86.9" font-family="Arial" font-size="14.00" fill="#000000">opaltqty </text>
<text text-anchor="start" x="105.9088" y="-86.9" font-family="Arial" font-size="14.00" fill="#666666">[numeric]</text>
<polygon fill="none" stroke="#000000" points="46,-45.5 46,-75.5 440,-75.5 440,-45.5 46,-45.5"/>
<text text-anchor="start" x="53" y="-56.9" font-family="Arial" font-size="14.00" fill="#000000">item_value </text>
<text text-anchor="start" x="124.568" y="-56.9" font-family="Arial" font-size="14.00" fill="#666666">[numeric]</text>
<polygon fill="none" stroke="#000000" stroke-width="3" points="44.5,-44.5 44.5,-232.5 441.5,-232.5 441.5,-44.5 44.5,-44.5"/>
</g>
</g>
</svg>
