<?xml version="1.0" encoding="UTF-8" standalone="no"?>
<!DOCTYPE svg PUBLIC "-//W3C//DTD SVG 1.1//EN"
 "http://www.w3.org/Graphics/SVG/1.1/DTD/svg11.dtd">
<!-- Generated by graphviz version 2.40.1 (20161225.0304)
 -->
<!-- Title: public.tmp_pendingpoqty1 Pages: 1 -->
<svg width="451pt" height="705pt"
 viewBox="0.00 0.00 451.00 705.00" xmlns="http://www.w3.org/2000/svg" xmlns:xlink="http://www.w3.org/1999/xlink">
<g id="graph0" class="graph" transform="scale(1 1) rotate(0) translate(4 701)">
<title>public.tmp_pendingpoqty1</title>
<polygon fill="#ffffff" stroke="transparent" points="-4,4 -4,-701 447,-701 447,4 -4,4"/>
<!-- public.tmp_pendingpoqty1 -->
<g id="node1" class="node">
<title>public.tmp_pendingpoqty1</title>
<polygon fill="#efefef" stroke="transparent" points="46.5,-615.5 46.5,-650.5 397.5,-650.5 397.5,-615.5 46.5,-615.5"/>
<polygon fill="none" stroke="#000000" points="46.5,-615.5 46.5,-650.5 397.5,-650.5 397.5,-615.5 46.5,-615.5"/>
<text text-anchor="start" x="53.1788" y="-628.3" font-family="Arial Bold" font-size="18.00" fill="#000000">public.tmp_pendingpoqty1</text>
<text text-anchor="start" x="263.2532" y="-628.3" font-family="Arial" font-size="14.00" fill="#000000">    </text>
<text text-anchor="start" x="297.458" y="-628.3" font-family="Arial" font-size="14.00" fill="#666666">[BASE TABLE]</text>
<polygon fill="none" stroke="#000000" points="46.5,-585.5 46.5,-615.5 397.5,-615.5 397.5,-585.5 46.5,-585.5"/>
<text text-anchor="start" x="53.5" y="-596.9" font-family="Arial" font-size="14.00" fill="#000000">poid </text>
<text text-anchor="start" x="83.845" y="-596.9" font-family="Arial" font-size="14.00" fill="#666666">[integer]</text>
<polygon fill="none" stroke="#000000" points="46.5,-555.5 46.5,-585.5 397.5,-585.5 397.5,-555.5 46.5,-555.5"/>
<text text-anchor="start" x="53.5" y="-566.9" font-family="Arial" font-size="14.00" fill="#000000">ponumber </text>
<text text-anchor="start" x="120.4074" y="-566.9" font-family="Arial" font-size="14.00" fill="#666666">[varchar(200)]</text>
<polygon fill="none" stroke="#000000" points="46.5,-525.5 46.5,-555.5 397.5,-555.5 397.5,-525.5 46.5,-525.5"/>
<text text-anchor="start" x="53.5" y="-536.9" font-family="Arial" font-size="14.00" fill="#000000">podetailid </text>
<text text-anchor="start" x="117.2966" y="-536.9" font-family="Arial" font-size="14.00" fill="#666666">[integer]</text>
<polygon fill="none" stroke="#000000" points="46.5,-495.5 46.5,-525.5 397.5,-525.5 397.5,-495.5 46.5,-495.5"/>
<text text-anchor="start" x="53.5" y="-506.9" font-family="Arial" font-size="14.00" fill="#000000">itemid </text>
<text text-anchor="start" x="94.7202" y="-506.9" font-family="Arial" font-size="14.00" fill="#666666">[integer]</text>
<polygon fill="none" stroke="#000000" points="46.5,-465.5 46.5,-495.5 397.5,-495.5 397.5,-465.5 46.5,-465.5"/>
<text text-anchor="start" x="53.5" y="-476.9" font-family="Arial" font-size="14.00" fill="#000000">itemname </text>
<text text-anchor="start" x="118.8394" y="-476.9" font-family="Arial" font-size="14.00" fill="#666666">[varchar(200)]</text>
<polygon fill="none" stroke="#000000" points="46.5,-435.5 46.5,-465.5 397.5,-465.5 397.5,-435.5 46.5,-435.5"/>
<text text-anchor="start" x="53.5" y="-446.9" font-family="Arial" font-size="14.00" fill="#000000">pobaseqty </text>
<text text-anchor="start" x="121.9768" y="-446.9" font-family="Arial" font-size="14.00" fill="#666666">[numeric(15,5)]</text>
<polygon fill="none" stroke="#000000" points="46.5,-405.5 46.5,-435.5 397.5,-435.5 397.5,-405.5 46.5,-405.5"/>
<text text-anchor="start" x="53.5" y="-416.9" font-family="Arial" font-size="14.00" fill="#000000">poaltqty </text>
<text text-anchor="start" x="106.4088" y="-416.9" font-family="Arial" font-size="14.00" fill="#666666">[numeric(15,5)]</text>
<polygon fill="none" stroke="#000000" points="46.5,-375.5 46.5,-405.5 397.5,-405.5 397.5,-375.5 46.5,-375.5"/>
<text text-anchor="start" x="53.5" y="-386.9" font-family="Arial" font-size="14.00" fill="#000000">porate </text>
<text text-anchor="start" x="97.0722" y="-386.9" font-family="Arial" font-size="14.00" fill="#666666">[numeric(15,5)]</text>
<polygon fill="none" stroke="#000000" points="46.5,-345.5 46.5,-375.5 397.5,-375.5 397.5,-345.5 46.5,-345.5"/>
<text text-anchor="start" x="53.5" y="-356.9" font-family="Arial" font-size="14.00" fill="#000000">discount </text>
<text text-anchor="start" x="109.5182" y="-356.9" font-family="Arial" font-size="14.00" fill="#666666">[numeric(8,5)]</text>
<polygon fill="none" stroke="#000000" points="46.5,-315.5 46.5,-345.5 397.5,-345.5 397.5,-315.5 46.5,-315.5"/>
<text text-anchor="start" x="53.5" y="-326.9" font-family="Arial" font-size="14.00" fill="#000000">challanbaseqty </text>
<text text-anchor="start" x="150.7552" y="-326.9" font-family="Arial" font-size="14.00" fill="#666666">[numeric(15,5)]</text>
<polygon fill="none" stroke="#000000" points="46.5,-285.5 46.5,-315.5 397.5,-315.5 397.5,-285.5 46.5,-285.5"/>
<text text-anchor="start" x="53.5" y="-296.9" font-family="Arial" font-size="14.00" fill="#000000">challanaltqty </text>
<text text-anchor="start" x="135.1872" y="-296.9" font-family="Arial" font-size="14.00" fill="#666666">[numeric(15,5)]</text>
<polygon fill="none" stroke="#000000" points="46.5,-255.5 46.5,-285.5 397.5,-285.5 397.5,-255.5 46.5,-255.5"/>
<text text-anchor="start" x="53.5" y="-266.9" font-family="Arial" font-size="14.00" fill="#000000">ibmbaseqty </text>
<text text-anchor="start" x="128.9614" y="-266.9" font-family="Arial" font-size="14.00" fill="#666666">[numeric(15,5)]</text>
<polygon fill="none" stroke="#000000" points="46.5,-225.5 46.5,-255.5 397.5,-255.5 397.5,-225.5 46.5,-225.5"/>
<text text-anchor="start" x="53.5" y="-236.9" font-family="Arial" font-size="14.00" fill="#000000">ibmaltqty </text>
<text text-anchor="start" x="113.3934" y="-236.9" font-family="Arial" font-size="14.00" fill="#666666">[numeric(15,5)]</text>
<polygon fill="none" stroke="#000000" points="46.5,-195.5 46.5,-225.5 397.5,-225.5 397.5,-195.5 46.5,-195.5"/>
<text text-anchor="start" x="53.5" y="-206.9" font-family="Arial" font-size="14.00" fill="#000000">mrnbaseqty </text>
<text text-anchor="start" x="130.5154" y="-206.9" font-family="Arial" font-size="14.00" fill="#666666">[numeric(15,5)]</text>
<polygon fill="none" stroke="#000000" points="46.5,-165.5 46.5,-195.5 397.5,-195.5 397.5,-165.5 46.5,-165.5"/>
<text text-anchor="start" x="53.5" y="-176.9" font-family="Arial" font-size="14.00" fill="#000000">mrnaltqty </text>
<text text-anchor="start" x="114.9474" y="-176.9" font-family="Arial" font-size="14.00" fill="#666666">[numeric(15,5)]</text>
<polygon fill="none" stroke="#000000" points="46.5,-135.5 46.5,-165.5 397.5,-165.5 397.5,-135.5 46.5,-135.5"/>
<text text-anchor="start" x="53.5" y="-146.9" font-family="Arial" font-size="14.00" fill="#000000">iambaseqty </text>
<text text-anchor="start" x="128.9614" y="-146.9" font-family="Arial" font-size="14.00" fill="#666666">[numeric(15,5)]</text>
<polygon fill="none" stroke="#000000" points="46.5,-105.5 46.5,-135.5 397.5,-135.5 397.5,-105.5 46.5,-105.5"/>
<text text-anchor="start" x="53.5" y="-116.9" font-family="Arial" font-size="14.00" fill="#000000">iamaltqty </text>
<text text-anchor="start" x="113.3934" y="-116.9" font-family="Arial" font-size="14.00" fill="#666666">[numeric(15,5)]</text>
<polygon fill="none" stroke="#000000" points="46.5,-75.5 46.5,-105.5 397.5,-105.5 397.5,-75.5 46.5,-75.5"/>
<text text-anchor="start" x="53.5" y="-86.9" font-family="Arial" font-size="14.00" fill="#000000">isinspectionrequired </text>
<text text-anchor="start" x="181.8548" y="-86.9" font-family="Arial" font-size="14.00" fill="#666666">[boolean]</text>
<polygon fill="none" stroke="#000000" points="46.5,-45.5 46.5,-75.5 397.5,-75.5 397.5,-45.5 46.5,-45.5"/>
<text text-anchor="start" x="53.5" y="-56.9" font-family="Arial" font-size="14.00" fill="#000000">remark </text>
<text text-anchor="start" x="100.9376" y="-56.9" font-family="Arial" font-size="14.00" fill="#666666">[varchar(200)]</text>
<polygon fill="none" stroke="#000000" stroke-width="3" points="44.5,-44.5 44.5,-652.5 398.5,-652.5 398.5,-44.5 44.5,-44.5"/>
</g>
</g>
</svg>
