<?xml version="1.0" encoding="UTF-8" standalone="no"?>
<!DOCTYPE svg PUBLIC "-//W3C//DTD SVG 1.1//EN"
 "http://www.w3.org/Graphics/SVG/1.1/DTD/svg11.dtd">
<!-- Generated by graphviz version 2.40.1 (20161225.0304)
 -->
<!-- Title: public.pay_depositamount_details Pages: 1 -->
<svg width="512pt" height="255pt"
 viewBox="0.00 0.00 512.00 255.00" xmlns="http://www.w3.org/2000/svg" xmlns:xlink="http://www.w3.org/1999/xlink">
<g id="graph0" class="graph" transform="scale(1 1) rotate(0) translate(4 251)">
<title>public.pay_depositamount_details</title>
<polygon fill="#ffffff" stroke="transparent" points="-4,4 -4,-251 508,-251 508,4 -4,4"/>
<!-- public.pay_depositamount_details -->
<g id="node1" class="node">
<title>public.pay_depositamount_details</title>
<polygon fill="#efefef" stroke="transparent" points="46,-165.5 46,-200.5 458,-200.5 458,-165.5 46,-165.5"/>
<polygon fill="none" stroke="#000000" points="46,-165.5 46,-200.5 458,-200.5 458,-165.5 46,-165.5"/>
<text text-anchor="start" x="52.6742" y="-178.3" font-family="Arial Bold" font-size="18.00" fill="#000000">public.pay_depositamount_details</text>
<text text-anchor="start" x="323.7578" y="-178.3" font-family="Arial" font-size="14.00" fill="#000000">    </text>
<text text-anchor="start" x="357.9626" y="-178.3" font-family="Arial" font-size="14.00" fill="#666666">[BASE TABLE]</text>
<polygon fill="none" stroke="#000000" points="46,-135.5 46,-165.5 458,-165.5 458,-135.5 46,-135.5"/>
<text text-anchor="start" x="53" y="-146.9" font-family="Arial" font-size="14.00" fill="#000000">advanceid </text>
<text text-anchor="start" x="120.6928" y="-146.9" font-family="Arial" font-size="14.00" fill="#666666">[integer]</text>
<polygon fill="none" stroke="#000000" points="46,-105.5 46,-135.5 458,-135.5 458,-105.5 46,-105.5"/>
<text text-anchor="start" x="53" y="-116.9" font-family="Arial" font-size="14.00" fill="#000000">depositid </text>
<text text-anchor="start" x="112.9074" y="-116.9" font-family="Arial" font-size="14.00" fill="#666666">[integer]</text>
<polygon fill="none" stroke="#000000" points="46,-75.5 46,-105.5 458,-105.5 458,-75.5 46,-75.5"/>
<text text-anchor="start" x="53" y="-86.9" font-family="Arial" font-size="14.00" fill="#000000">depositdetailid </text>
<text text-anchor="start" x="146.359" y="-86.9" font-family="Arial" font-size="14.00" fill="#666666">[integer]</text>
<polygon fill="none" stroke="#000000" points="46,-45.5 46,-75.5 458,-75.5 458,-45.5 46,-45.5"/>
<text text-anchor="start" x="53" y="-56.9" font-family="Arial" font-size="14.00" fill="#000000">deposit </text>
<text text-anchor="start" x="102.0182" y="-56.9" font-family="Arial" font-size="14.00" fill="#666666">[numeric(18,2)]</text>
<polygon fill="none" stroke="#000000" stroke-width="3" points="44.5,-44.5 44.5,-202.5 459.5,-202.5 459.5,-44.5 44.5,-44.5"/>
</g>
</g>
</svg>
