<?xml version="1.0" encoding="UTF-8" standalone="no"?>
<!DOCTYPE svg PUBLIC "-//W3C//DTD SVG 1.1//EN"
 "http://www.w3.org/Graphics/SVG/1.1/DTD/svg11.dtd">
<!-- Generated by graphviz version 2.40.1 (20161225.0304)
 -->
<!-- Title: public.vch_rec Pages: 1 -->
<svg width="356pt" height="315pt"
 viewBox="0.00 0.00 356.00 315.00" xmlns="http://www.w3.org/2000/svg" xmlns:xlink="http://www.w3.org/1999/xlink">
<g id="graph0" class="graph" transform="scale(1 1) rotate(0) translate(4 311)">
<title>public.vch_rec</title>
<polygon fill="#ffffff" stroke="transparent" points="-4,4 -4,-311 352,-311 352,4 -4,4"/>
<!-- public.vch_rec -->
<g id="node1" class="node">
<title>public.vch_rec</title>
<polygon fill="#efefef" stroke="transparent" points="46,-225.5 46,-260.5 302,-260.5 302,-225.5 46,-225.5"/>
<polygon fill="none" stroke="#000000" points="46,-225.5 46,-260.5 302,-260.5 302,-225.5 46,-225.5"/>
<text text-anchor="start" x="52.706" y="-238.3" font-family="Arial Bold" font-size="18.00" fill="#000000">public.vch_rec</text>
<text text-anchor="start" x="167.726" y="-238.3" font-family="Arial" font-size="14.00" fill="#000000">    </text>
<text text-anchor="start" x="201.9308" y="-238.3" font-family="Arial" font-size="14.00" fill="#666666">[BASE TABLE]</text>
<polygon fill="none" stroke="#000000" points="46,-195.5 46,-225.5 302,-225.5 302,-195.5 46,-195.5"/>
<text text-anchor="start" x="53" y="-206.9" font-family="Arial" font-size="14.00" fill="#000000">Voucher_No </text>
<text text-anchor="start" x="134.69" y="-206.9" font-family="Arial" font-size="14.00" fill="#666666">[varchar(50)]</text>
<polygon fill="none" stroke="#000000" points="46,-165.5 46,-195.5 302,-195.5 302,-165.5 46,-165.5"/>
<text text-anchor="start" x="53" y="-176.9" font-family="Arial" font-size="14.00" fill="#000000">Voucher_Date </text>
<text text-anchor="start" x="146.3632" y="-176.9" font-family="Arial" font-size="14.00" fill="#666666">[date]</text>
<polygon fill="none" stroke="#000000" points="46,-135.5 46,-165.5 302,-165.5 302,-135.5 46,-135.5"/>
<text text-anchor="start" x="53" y="-146.9" font-family="Arial" font-size="14.00" fill="#000000">Trans_Type </text>
<text text-anchor="start" x="131.5694" y="-146.9" font-family="Arial" font-size="14.00" fill="#666666">[varchar(50)]</text>
<polygon fill="none" stroke="#000000" points="46,-105.5 46,-135.5 302,-135.5 302,-105.5 46,-105.5"/>
<text text-anchor="start" x="53" y="-116.9" font-family="Arial" font-size="14.00" fill="#000000">Amount(Dr) </text>
<text text-anchor="start" x="129.2146" y="-116.9" font-family="Arial" font-size="14.00" fill="#666666">[numeric(15,4)]</text>
<polygon fill="none" stroke="#000000" points="46,-75.5 46,-105.5 302,-105.5 302,-75.5 46,-75.5"/>
<text text-anchor="start" x="53" y="-86.9" font-family="Arial" font-size="14.00" fill="#000000">Amount(Cr) </text>
<text text-anchor="start" x="129.2146" y="-86.9" font-family="Arial" font-size="14.00" fill="#666666">[numeric(15,4)]</text>
<polygon fill="none" stroke="#000000" points="46,-45.5 46,-75.5 302,-75.5 302,-45.5 46,-45.5"/>
<text text-anchor="start" x="53" y="-56.9" font-family="Arial" font-size="14.00" fill="#000000">Remarks </text>
<text text-anchor="start" x="112.8836" y="-56.9" font-family="Arial" font-size="14.00" fill="#666666">[text]</text>
<polygon fill="none" stroke="#000000" stroke-width="3" points="44.5,-44.5 44.5,-262.5 303.5,-262.5 303.5,-44.5 44.5,-44.5"/>
</g>
</g>
</svg>
