<?xml version="1.0" encoding="UTF-8" standalone="no"?>
<!DOCTYPE svg PUBLIC "-//W3C//DTD SVG 1.1//EN"
 "http://www.w3.org/Graphics/SVG/1.1/DTD/svg11.dtd">
<!-- Generated by graphviz version 2.40.1 (20161225.0304)
 -->
<!-- Title: public.stor_rackmaster Pages: 1 -->
<svg width="680pt" height="1492pt"
 viewBox="0.00 0.00 680.00 1492.00" xmlns="http://www.w3.org/2000/svg" xmlns:xlink="http://www.w3.org/1999/xlink">
<g id="graph0" class="graph" transform="scale(1 1) rotate(0) translate(4 1488)">
<title>public.stor_rackmaster</title>
<polygon fill="#ffffff" stroke="transparent" points="-4,4 -4,-1488 676,-1488 676,4 -4,4"/>
<!-- public.stor_rackmaster -->
<g id="node1" class="node">
<title>public.stor_rackmaster</title>
<polygon fill="#efefef" stroke="transparent" points="48,-675.5 48,-710.5 370,-710.5 370,-675.5 48,-675.5"/>
<polygon fill="none" stroke="#000000" points="48,-675.5 48,-710.5 370,-710.5 370,-675.5 48,-675.5"/>
<text text-anchor="start" x="54.7093" y="-688.3" font-family="Arial Bold" font-size="18.00" fill="#000000">public.stor_rackmaster</text>
<text text-anchor="start" x="235.7227" y="-688.3" font-family="Arial" font-size="14.00" fill="#000000">    </text>
<text text-anchor="start" x="269.9275" y="-688.3" font-family="Arial" font-size="14.00" fill="#666666">[BASE TABLE]</text>
<polygon fill="none" stroke="#000000" points="48,-645.5 48,-675.5 370,-675.5 370,-645.5 48,-645.5"/>
<text text-anchor="start" x="55" y="-656.9" font-family="Arial" font-size="14.00" fill="#000000">rackid </text>
<text text-anchor="start" x="96.223" y="-656.9" font-family="Arial" font-size="14.00" fill="#666666">[integer]</text>
<polygon fill="none" stroke="#000000" points="48,-615.5 48,-645.5 370,-645.5 370,-615.5 48,-615.5"/>
<text text-anchor="start" x="55" y="-626.9" font-family="Arial" font-size="14.00" fill="#000000">rackcode </text>
<text text-anchor="start" x="115.6816" y="-626.9" font-family="Arial" font-size="14.00" fill="#666666">[varchar(50)]</text>
<polygon fill="none" stroke="#000000" points="48,-585.5 48,-615.5 370,-615.5 370,-585.5 48,-585.5"/>
<text text-anchor="start" x="55" y="-596.9" font-family="Arial" font-size="14.00" fill="#000000">storeid </text>
<text text-anchor="start" x="100.8962" y="-596.9" font-family="Arial" font-size="14.00" fill="#666666">[integer]</text>
<polygon fill="none" stroke="#000000" points="48,-555.5 48,-585.5 370,-585.5 370,-555.5 48,-555.5"/>
<text text-anchor="start" x="55" y="-566.9" font-family="Arial" font-size="14.00" fill="#000000">isauthorized </text>
<text text-anchor="start" x="134.3506" y="-566.9" font-family="Arial" font-size="14.00" fill="#666666">[boolean]</text>
<polygon fill="none" stroke="#000000" points="48,-525.5 48,-555.5 370,-555.5 370,-525.5 48,-525.5"/>
<text text-anchor="start" x="55" y="-536.9" font-family="Arial" font-size="14.00" fill="#000000">authorizedon </text>
<text text-anchor="start" x="139.8092" y="-536.9" font-family="Arial" font-size="14.00" fill="#666666">[timestamp without time zone]</text>
<polygon fill="none" stroke="#000000" points="48,-495.5 48,-525.5 370,-525.5 370,-495.5 48,-495.5"/>
<text text-anchor="start" x="55" y="-506.9" font-family="Arial" font-size="14.00" fill="#000000">authorizedby </text>
<text text-anchor="start" x="139.0266" y="-506.9" font-family="Arial" font-size="14.00" fill="#666666">[integer]</text>
<polygon fill="none" stroke="#000000" points="48,-465.5 48,-495.5 370,-495.5 370,-465.5 48,-465.5"/>
<text text-anchor="start" x="55" y="-476.9" font-family="Arial" font-size="14.00" fill="#000000">parentid </text>
<text text-anchor="start" x="109.4614" y="-476.9" font-family="Arial" font-size="14.00" fill="#666666">[integer]</text>
<polygon fill="none" stroke="#000000" points="48,-435.5 48,-465.5 370,-465.5 370,-435.5 48,-435.5"/>
<text text-anchor="start" x="55" y="-446.9" font-family="Arial" font-size="14.00" fill="#000000">haschild </text>
<text text-anchor="start" x="110.2342" y="-446.9" font-family="Arial" font-size="14.00" fill="#666666">[boolean]</text>
<polygon fill="none" stroke="#000000" points="48,-405.5 48,-435.5 370,-435.5 370,-405.5 48,-405.5"/>
<text text-anchor="start" x="55" y="-416.9" font-family="Arial" font-size="14.00" fill="#000000">itemid </text>
<text text-anchor="start" x="96.2202" y="-416.9" font-family="Arial" font-size="14.00" fill="#666666">[integer]</text>
<polygon fill="none" stroke="#000000" points="48,-375.5 48,-405.5 370,-405.5 370,-375.5 48,-375.5"/>
<text text-anchor="start" x="55" y="-386.9" font-family="Arial" font-size="14.00" fill="#000000">isactive </text>
<text text-anchor="start" x="105.5596" y="-386.9" font-family="Arial" font-size="14.00" fill="#666666">[boolean]</text>
<polygon fill="none" stroke="#000000" points="48,-345.5 48,-375.5 370,-375.5 370,-345.5 48,-345.5"/>
<text text-anchor="start" x="55" y="-356.9" font-family="Arial" font-size="14.00" fill="#000000">isdefaultlocation </text>
<text text-anchor="start" x="159.2496" y="-356.9" font-family="Arial" font-size="14.00" fill="#666666">[boolean]</text>
<polygon fill="none" stroke="#000000" points="48,-315.5 48,-345.5 370,-345.5 370,-315.5 48,-315.5"/>
<text text-anchor="start" x="55" y="-326.9" font-family="Arial" font-size="14.00" fill="#000000">createdby </text>
<text text-anchor="start" x="120.3548" y="-326.9" font-family="Arial" font-size="14.00" fill="#666666">[integer]</text>
<polygon fill="none" stroke="#000000" points="48,-285.5 48,-315.5 370,-315.5 370,-285.5 48,-285.5"/>
<text text-anchor="start" x="55" y="-296.9" font-family="Arial" font-size="14.00" fill="#000000">createdon </text>
<text text-anchor="start" x="121.1374" y="-296.9" font-family="Arial" font-size="14.00" fill="#666666">[timestamp without time zone]</text>
<polygon fill="none" stroke="#000000" points="48,-255.5 48,-285.5 370,-285.5 370,-255.5 48,-255.5"/>
<text text-anchor="start" x="55" y="-266.9" font-family="Arial" font-size="14.00" fill="#000000">editlog </text>
<text text-anchor="start" x="100.1248" y="-266.9" font-family="Arial" font-size="14.00" fill="#666666">[text]</text>
<polygon fill="none" stroke="#000000" points="48,-225.5 48,-255.5 370,-255.5 370,-225.5 48,-225.5"/>
<text text-anchor="start" x="55" y="-236.9" font-family="Arial" font-size="14.00" fill="#000000">headauthorizedon </text>
<text text-anchor="start" x="170.9396" y="-236.9" font-family="Arial" font-size="14.00" fill="#666666">[timestamp without time zone]</text>
<polygon fill="none" stroke="#000000" points="48,-195.5 48,-225.5 370,-225.5 370,-195.5 48,-195.5"/>
<text text-anchor="start" x="55" y="-206.9" font-family="Arial" font-size="14.00" fill="#000000">headauthorizedby </text>
<text text-anchor="start" x="170.157" y="-206.9" font-family="Arial" font-size="14.00" fill="#666666">[integer]</text>
<polygon fill="none" stroke="#000000" points="48,-165.5 48,-195.5 370,-195.5 370,-165.5 48,-165.5"/>
<text text-anchor="start" x="55" y="-176.9" font-family="Arial" font-size="14.00" fill="#000000">inactivedate </text>
<text text-anchor="start" x="133.5806" y="-176.9" font-family="Arial" font-size="14.00" fill="#666666">[timestamp without time zone]</text>
<polygon fill="none" stroke="#000000" points="48,-135.5 48,-165.5 370,-165.5 370,-135.5 48,-135.5"/>
<text text-anchor="start" x="55" y="-146.9" font-family="Arial" font-size="14.00" fill="#000000">isstore </text>
<text text-anchor="start" x="100.1136" y="-146.9" font-family="Arial" font-size="14.00" fill="#666666">[boolean]</text>
<polygon fill="none" stroke="#000000" points="48,-105.5 48,-135.5 370,-135.5 370,-105.5 48,-105.5"/>
<text text-anchor="start" x="55" y="-116.9" font-family="Arial" font-size="14.00" fill="#000000">isdefaultrack </text>
<text text-anchor="start" x="137.4586" y="-116.9" font-family="Arial" font-size="14.00" fill="#666666">[boolean]</text>
<polygon fill="none" stroke="#000000" points="48,-75.5 48,-105.5 370,-105.5 370,-75.5 48,-75.5"/>
<text text-anchor="start" x="55" y="-86.9" font-family="Arial" font-size="14.00" fill="#000000">updatedby </text>
<text text-anchor="start" x="124.2594" y="-86.9" font-family="Arial" font-size="14.00" fill="#666666">[integer]</text>
<polygon fill="none" stroke="#000000" points="48,-45.5 48,-75.5 370,-75.5 370,-45.5 48,-45.5"/>
<text text-anchor="start" x="55" y="-56.9" font-family="Arial" font-size="14.00" fill="#000000">updatedon </text>
<text text-anchor="start" x="125.042" y="-56.9" font-family="Arial" font-size="14.00" fill="#666666">[timestamp(6) without time zone]</text>
<polygon fill="none" stroke="#000000" stroke-width="3" points="46.5,-44.5 46.5,-712.5 371.5,-712.5 371.5,-44.5 46.5,-44.5"/>
</g>
<!-- public.comn_stockdetail -->
<g id="node2" class="node">
<title>public.comn_stockdetail</title>
<polygon fill="#efefef" stroke="transparent" points="43,-1405.5 43,-1440.5 375,-1440.5 375,-1405.5 43,-1405.5"/>
<polygon fill="none" stroke="#000000" points="43,-1405.5 43,-1440.5 375,-1440.5 375,-1405.5 43,-1405.5"/>
<text text-anchor="start" x="49.6972" y="-1418.3" font-family="Arial Bold" font-size="18.00" fill="#000000">public.comn_stockdetail</text>
<text text-anchor="start" x="240.7348" y="-1418.3" font-family="Arial" font-size="14.00" fill="#000000">    </text>
<text text-anchor="start" x="274.9396" y="-1418.3" font-family="Arial" font-size="14.00" fill="#666666">[BASE TABLE]</text>
<polygon fill="none" stroke="#000000" points="43,-1375.5 43,-1405.5 375,-1405.5 375,-1375.5 43,-1375.5"/>
<text text-anchor="start" x="50" y="-1386.9" font-family="Arial" font-size="14.00" fill="#000000">stockdetailid    </text>
<text text-anchor="start" x="161.2188" y="-1386.9" font-family="Arial" font-size="14.00" fill="#666666">[integer]</text>
<polygon fill="none" stroke="#000000" points="43,-1345.5 43,-1375.5 375,-1375.5 375,-1345.5 43,-1345.5"/>
<text text-anchor="start" x="50" y="-1356.9" font-family="Arial" font-size="14.00" fill="#000000">cuttoffid    </text>
<text text-anchor="start" x="133.2216" y="-1356.9" font-family="Arial" font-size="14.00" fill="#666666">[integer]</text>
<polygon fill="none" stroke="#000000" points="43,-1315.5 43,-1345.5 375,-1345.5 375,-1315.5 43,-1315.5"/>
<text text-anchor="start" x="50" y="-1326.9" font-family="Arial" font-size="14.00" fill="#000000">branchid    </text>
<text text-anchor="start" x="137.885" y="-1326.9" font-family="Arial" font-size="14.00" fill="#666666">[integer]</text>
<polygon fill="none" stroke="#000000" points="43,-1285.5 43,-1315.5 375,-1315.5 375,-1285.5 43,-1285.5"/>
<text text-anchor="start" x="50" y="-1296.9" font-family="Arial" font-size="14.00" fill="#000000">formid    </text>
<text text-anchor="start" x="123.0884" y="-1296.9" font-family="Arial" font-size="14.00" fill="#666666">[integer]</text>
<polygon fill="none" stroke="#000000" points="43,-1255.5 43,-1285.5 375,-1285.5 375,-1255.5 43,-1255.5"/>
<text text-anchor="start" x="50" y="-1266.9" font-family="Arial" font-size="14.00" fill="#000000">docdate    </text>
<text text-anchor="start" x="134.0084" y="-1266.9" font-family="Arial" font-size="14.00" fill="#666666">[date]</text>
<polygon fill="none" stroke="#000000" points="43,-1225.5 43,-1255.5 375,-1255.5 375,-1225.5 43,-1225.5"/>
<text text-anchor="start" x="50" y="-1236.9" font-family="Arial" font-size="14.00" fill="#000000">docid    </text>
<text text-anchor="start" x="117.6592" y="-1236.9" font-family="Arial" font-size="14.00" fill="#666666">[integer]</text>
<polygon fill="none" stroke="#000000" points="43,-1195.5 43,-1225.5 375,-1225.5 375,-1195.5 43,-1195.5"/>
<text text-anchor="start" x="50" y="-1206.9" font-family="Arial" font-size="14.00" fill="#000000">docdetailid    </text>
<text text-anchor="start" x="151.1108" y="-1206.9" font-family="Arial" font-size="14.00" fill="#666666">[integer]</text>
<polygon fill="none" stroke="#000000" points="43,-1165.5 43,-1195.5 375,-1195.5 375,-1165.5 43,-1165.5"/>
<text text-anchor="start" x="50" y="-1176.9" font-family="Arial" font-size="14.00" fill="#000000">storestageid    </text>
<text text-anchor="start" x="160.4488" y="-1176.9" font-family="Arial" font-size="14.00" fill="#666666">[integer]</text>
<polygon fill="none" stroke="#000000" points="43,-1135.5 43,-1165.5 375,-1165.5 375,-1135.5 43,-1135.5"/>
<text text-anchor="start" x="50" y="-1146.9" font-family="Arial" font-size="14.00" fill="#000000">isstore    </text>
<text text-anchor="start" x="125.4278" y="-1146.9" font-family="Arial" font-size="14.00" fill="#666666">[boolean]</text>
<polygon fill="none" stroke="#000000" points="43,-1105.5 43,-1135.5 375,-1135.5 375,-1105.5 43,-1105.5"/>
<text text-anchor="start" x="50" y="-1116.9" font-family="Arial" font-size="14.00" fill="#000000">rackid    </text>
<text text-anchor="start" x="121.5372" y="-1116.9" font-family="Arial" font-size="14.00" fill="#666666">[integer]</text>
<polygon fill="none" stroke="#000000" points="43,-1075.5 43,-1105.5 375,-1105.5 375,-1075.5 43,-1075.5"/>
<text text-anchor="start" x="50" y="-1086.9" font-family="Arial" font-size="14.00" fill="#000000">itemid    </text>
<text text-anchor="start" x="121.5344" y="-1086.9" font-family="Arial" font-size="14.00" fill="#666666">[integer]</text>
<polygon fill="none" stroke="#000000" points="43,-1045.5 43,-1075.5 375,-1075.5 375,-1045.5 43,-1045.5"/>
<text text-anchor="start" x="50" y="-1056.9" font-family="Arial" font-size="14.00" fill="#000000">batchid    </text>
<text text-anchor="start" x="129.3324" y="-1056.9" font-family="Arial" font-size="14.00" fill="#666666">[integer]</text>
<polygon fill="none" stroke="#000000" points="43,-1015.5 43,-1045.5 375,-1045.5 375,-1015.5 43,-1015.5"/>
<text text-anchor="start" x="50" y="-1026.9" font-family="Arial" font-size="14.00" fill="#000000">inqty    </text>
<text text-anchor="start" x="113.7672" y="-1026.9" font-family="Arial" font-size="14.00" fill="#666666">[numeric(18,5)]</text>
<polygon fill="none" stroke="#000000" points="43,-985.5 43,-1015.5 375,-1015.5 375,-985.5 43,-985.5"/>
<text text-anchor="start" x="50" y="-996.9" font-family="Arial" font-size="14.00" fill="#000000">outqty    </text>
<text text-anchor="start" x="122.3338" y="-996.9" font-family="Arial" font-size="14.00" fill="#666666">[numeric(18,5)]</text>
<polygon fill="none" stroke="#000000" points="43,-955.5 43,-985.5 375,-985.5 375,-955.5 43,-955.5"/>
<text text-anchor="start" x="50" y="-966.9" font-family="Arial" font-size="14.00" fill="#000000">costprice    </text>
<text text-anchor="start" x="140.2104" y="-966.9" font-family="Arial" font-size="14.00" fill="#666666">[numeric(18,5)]</text>
<polygon fill="none" stroke="#000000" points="43,-925.5 43,-955.5 375,-955.5 375,-925.5 43,-925.5"/>
<text text-anchor="start" x="50" y="-936.9" font-family="Arial" font-size="14.00" fill="#000000">isactive    </text>
<text text-anchor="start" x="130.8738" y="-936.9" font-family="Arial" font-size="14.00" fill="#666666">[boolean]</text>
<polygon fill="none" stroke="#000000" points="43,-895.5 43,-925.5 375,-925.5 375,-895.5 43,-895.5"/>
<text text-anchor="start" x="50" y="-906.9" font-family="Arial" font-size="14.00" fill="#000000">isauthorized    </text>
<text text-anchor="start" x="159.6648" y="-906.9" font-family="Arial" font-size="14.00" fill="#666666">[boolean]</text>
<polygon fill="none" stroke="#000000" points="43,-865.5 43,-895.5 375,-895.5 375,-865.5 43,-865.5"/>
<text text-anchor="start" x="50" y="-876.9" font-family="Arial" font-size="14.00" fill="#000000">createdon    </text>
<text text-anchor="start" x="146.4516" y="-876.9" font-family="Arial" font-size="14.00" fill="#666666">[timestamp without time zone]</text>
<polygon fill="none" stroke="#000000" points="43,-835.5 43,-865.5 375,-865.5 375,-835.5 43,-835.5"/>
<text text-anchor="start" x="50" y="-846.9" font-family="Arial" font-size="14.00" fill="#000000">userid    </text>
<text text-anchor="start" x="122.3198" y="-846.9" font-family="Arial" font-size="14.00" fill="#666666">[integer]</text>
</g>
<!-- public.comn_stockdetail&#45;&gt;public.stor_rackmaster -->
<g id="edge1" class="edge">
<title>public.comn_stockdetail:rackid&#45;&gt;public.stor_rackmaster:rackid</title>
<path fill="none" stroke="#000000" d="M385.107,-1118.9245C476.7729,-1089.5921 468.7341,-660.5 370,-660.5"/>
<polygon fill="#000000" stroke="#000000" points="384.8807,-1118.9597 374.3069,-1116.0537 379.9403,-1119.7299 375,-1120.5 375,-1120.5 375,-1120.5 379.9403,-1119.7299 375.6931,-1124.9463 384.8807,-1118.9597 384.8807,-1118.9597"/>
<text text-anchor="start" x="382.3385" y="-1130.5" font-family="Arial" font-size="10.00" fill="#000000">FOREIGN KEY (rackid) REFERENCES stor_rackmaster(rackid)</text>
</g>
</g>
</svg>
