<?xml version="1.0" encoding="UTF-8" standalone="no"?>
<!DOCTYPE svg PUBLIC "-//W3C//DTD SVG 1.1//EN"
 "http://www.w3.org/Graphics/SVG/1.1/DTD/svg11.dtd">
<!-- Generated by graphviz version 2.40.1 (20161225.0304)
 -->
<!-- Title: public.sale_slabwisediscountdetail Pages: 1 -->
<svg width="515pt" height="375pt"
 viewBox="0.00 0.00 515.00 375.00" xmlns="http://www.w3.org/2000/svg" xmlns:xlink="http://www.w3.org/1999/xlink">
<g id="graph0" class="graph" transform="scale(1 1) rotate(0) translate(4 371)">
<title>public.sale_slabwisediscountdetail</title>
<polygon fill="#ffffff" stroke="transparent" points="-4,4 -4,-371 511,-371 511,4 -4,4"/>
<!-- public.sale_slabwisediscountdetail -->
<g id="node1" class="node">
<title>public.sale_slabwisediscountdetail</title>
<polygon fill="#efefef" stroke="transparent" points="46.5,-285.5 46.5,-320.5 461.5,-320.5 461.5,-285.5 46.5,-285.5"/>
<polygon fill="none" stroke="#000000" points="46.5,-285.5 46.5,-320.5 461.5,-320.5 461.5,-285.5 46.5,-285.5"/>
<text text-anchor="start" x="53.1892" y="-298.3" font-family="Arial Bold" font-size="18.00" fill="#000000">public.sale_slabwisediscountdetail</text>
<text text-anchor="start" x="327.2428" y="-298.3" font-family="Arial" font-size="14.00" fill="#000000">    </text>
<text text-anchor="start" x="361.4476" y="-298.3" font-family="Arial" font-size="14.00" fill="#666666">[BASE TABLE]</text>
<polygon fill="none" stroke="#000000" points="46.5,-255.5 46.5,-285.5 461.5,-285.5 461.5,-255.5 46.5,-255.5"/>
<text text-anchor="start" x="53.5" y="-266.9" font-family="Arial" font-size="14.00" fill="#000000">detail_id </text>
<text text-anchor="start" x="109.514" y="-266.9" font-family="Arial" font-size="14.00" fill="#666666">[integer]</text>
<polygon fill="none" stroke="#000000" points="46.5,-225.5 46.5,-255.5 461.5,-255.5 461.5,-225.5 46.5,-225.5"/>
<text text-anchor="start" x="53.5" y="-236.9" font-family="Arial" font-size="14.00" fill="#000000">slab_id </text>
<text text-anchor="start" x="101.7342" y="-236.9" font-family="Arial" font-size="14.00" fill="#666666">[integer]</text>
<polygon fill="none" stroke="#000000" points="46.5,-195.5 46.5,-225.5 461.5,-225.5 461.5,-195.5 46.5,-195.5"/>
<text text-anchor="start" x="53.5" y="-206.9" font-family="Arial" font-size="14.00" fill="#000000">qty_from </text>
<text text-anchor="start" x="111.8408" y="-206.9" font-family="Arial" font-size="14.00" fill="#666666">[numeric(18,9)]</text>
<polygon fill="none" stroke="#000000" points="46.5,-165.5 46.5,-195.5 461.5,-195.5 461.5,-165.5 46.5,-165.5"/>
<text text-anchor="start" x="53.5" y="-176.9" font-family="Arial" font-size="14.00" fill="#000000">qty_to </text>
<text text-anchor="start" x="95.5196" y="-176.9" font-family="Arial" font-size="14.00" fill="#666666">[numeric(18,9)]</text>
<polygon fill="none" stroke="#000000" points="46.5,-135.5 46.5,-165.5 461.5,-165.5 461.5,-135.5 46.5,-135.5"/>
<text text-anchor="start" x="53.5" y="-146.9" font-family="Arial" font-size="14.00" fill="#000000">discount_value </text>
<text text-anchor="start" x="150.7552" y="-146.9" font-family="Arial" font-size="14.00" fill="#666666">[numeric(18,2)]</text>
<polygon fill="none" stroke="#000000" points="46.5,-105.5 46.5,-135.5 461.5,-135.5 461.5,-105.5 46.5,-105.5"/>
<text text-anchor="start" x="53.5" y="-116.9" font-family="Arial" font-size="14.00" fill="#000000">applicable_from </text>
<text text-anchor="start" x="156.183" y="-116.9" font-family="Arial" font-size="14.00" fill="#666666">[date]</text>
<polygon fill="none" stroke="#000000" points="46.5,-75.5 46.5,-105.5 461.5,-105.5 461.5,-75.5 46.5,-75.5"/>
<text text-anchor="start" x="53.5" y="-86.9" font-family="Arial" font-size="14.00" fill="#000000">is_log </text>
<text text-anchor="start" x="93.9516" y="-86.9" font-family="Arial" font-size="14.00" fill="#666666">[boolean]</text>
<polygon fill="none" stroke="#000000" points="46.5,-45.5 46.5,-75.5 461.5,-75.5 461.5,-45.5 46.5,-45.5"/>
<text text-anchor="start" x="53.5" y="-56.9" font-family="Arial" font-size="14.00" fill="#000000">discount_type </text>
<text text-anchor="start" x="143.7566" y="-56.9" font-family="Arial" font-size="14.00" fill="#666666">[integer]</text>
<polygon fill="none" stroke="#000000" stroke-width="3" points="44.5,-44.5 44.5,-322.5 462.5,-322.5 462.5,-44.5 44.5,-44.5"/>
</g>
</g>
</svg>
