<?xml version="1.0" encoding="UTF-8" standalone="no"?>
<!DOCTYPE svg PUBLIC "-//W3C//DTD SVG 1.1//EN"
 "http://www.w3.org/Graphics/SVG/1.1/DTD/svg11.dtd">
<!-- Generated by graphviz version 2.40.1 (20161225.0304)
 -->
<!-- Title: public.uniware_so Pages: 1 -->
<svg width="402pt" height="825pt"
 viewBox="0.00 0.00 402.00 825.00" xmlns="http://www.w3.org/2000/svg" xmlns:xlink="http://www.w3.org/1999/xlink">
<g id="graph0" class="graph" transform="scale(1 1) rotate(0) translate(4 821)">
<title>public.uniware_so</title>
<polygon fill="#ffffff" stroke="transparent" points="-4,4 -4,-821 398,-821 398,4 -4,4"/>
<!-- public.uniware_so -->
<g id="node1" class="node">
<title>public.uniware_so</title>
<polygon fill="#efefef" stroke="transparent" points="46,-735.5 46,-770.5 348,-770.5 348,-735.5 46,-735.5"/>
<polygon fill="none" stroke="#000000" points="46,-735.5 46,-770.5 348,-770.5 348,-735.5 46,-735.5"/>
<text text-anchor="start" x="61.2025" y="-748.3" font-family="Arial Bold" font-size="18.00" fill="#000000">public.uniware_so</text>
<text text-anchor="start" x="205.2295" y="-748.3" font-family="Arial" font-size="14.00" fill="#000000">    </text>
<text text-anchor="start" x="239.4343" y="-748.3" font-family="Arial" font-size="14.00" fill="#666666">[BASE TABLE]</text>
<polygon fill="none" stroke="#000000" points="46,-705.5 46,-735.5 348,-735.5 348,-705.5 46,-705.5"/>
<text text-anchor="start" x="53" y="-716.9" font-family="Arial" font-size="14.00" fill="#000000">uid </text>
<text text-anchor="start" x="75.5624" y="-716.9" font-family="Arial" font-size="14.00" fill="#666666">[integer]</text>
<polygon fill="none" stroke="#000000" points="46,-675.5 46,-705.5 348,-705.5 348,-675.5 46,-675.5"/>
<text text-anchor="start" x="53" y="-686.9" font-family="Arial" font-size="14.00" fill="#000000">sale_order_item_code </text>
<text text-anchor="start" x="195.3674" y="-686.9" font-family="Arial" font-size="14.00" fill="#666666">[varchar(50)]</text>
<polygon fill="none" stroke="#000000" points="46,-645.5 46,-675.5 348,-675.5 348,-645.5 46,-645.5"/>
<text text-anchor="start" x="53" y="-656.9" font-family="Arial" font-size="14.00" fill="#000000">display_code </text>
<text text-anchor="start" x="138.582" y="-656.9" font-family="Arial" font-size="14.00" fill="#666666">[varchar(50)]</text>
<polygon fill="none" stroke="#000000" points="46,-615.5 46,-645.5 348,-645.5 348,-615.5 46,-615.5"/>
<text text-anchor="start" x="53" y="-626.9" font-family="Arial" font-size="14.00" fill="#000000">category </text>
<text text-anchor="start" x="110.5722" y="-626.9" font-family="Arial" font-size="14.00" fill="#666666">[varchar(50)]</text>
<polygon fill="none" stroke="#000000" points="46,-585.5 46,-615.5 348,-615.5 348,-585.5 46,-585.5"/>
<text text-anchor="start" x="53" y="-596.9" font-family="Arial" font-size="14.00" fill="#000000">invoice_code </text>
<text text-anchor="start" x="138.582" y="-596.9" font-family="Arial" font-size="14.00" fill="#666666">[varchar(50)]</text>
<polygon fill="none" stroke="#000000" points="46,-555.5 46,-585.5 348,-585.5 348,-555.5 46,-555.5"/>
<text text-anchor="start" x="53" y="-566.9" font-family="Arial" font-size="14.00" fill="#000000">invoice_created </text>
<text text-anchor="start" x="154.9158" y="-566.9" font-family="Arial" font-size="14.00" fill="#666666">[varchar(50)]</text>
<polygon fill="none" stroke="#000000" points="46,-525.5 46,-555.5 348,-555.5 348,-525.5 46,-525.5"/>
<text text-anchor="start" x="53" y="-536.9" font-family="Arial" font-size="14.00" fill="#000000">shipping_address_name </text>
<text text-anchor="start" x="209.3814" y="-536.9" font-family="Arial" font-size="14.00" fill="#666666">[varchar(500)]</text>
<polygon fill="none" stroke="#000000" points="46,-495.5 46,-525.5 348,-525.5 348,-495.5 46,-495.5"/>
<text text-anchor="start" x="53" y="-506.9" font-family="Arial" font-size="14.00" fill="#000000">shipping_method </text>
<text text-anchor="start" x="163.481" y="-506.9" font-family="Arial" font-size="14.00" fill="#666666">[varchar(50)]</text>
<polygon fill="none" stroke="#000000" points="46,-465.5 46,-495.5 348,-495.5 348,-465.5 46,-465.5"/>
<text text-anchor="start" x="53" y="-476.9" font-family="Arial" font-size="14.00" fill="#000000">channel_name </text>
<text text-anchor="start" x="148.7012" y="-476.9" font-family="Arial" font-size="14.00" fill="#666666">[varchar(50)]</text>
<polygon fill="none" stroke="#000000" points="46,-435.5 46,-465.5 348,-465.5 348,-435.5 46,-435.5"/>
<text text-anchor="start" x="53" y="-446.9" font-family="Arial" font-size="14.00" fill="#000000">cost_price </text>
<text text-anchor="start" x="120.6788" y="-446.9" font-family="Arial" font-size="14.00" fill="#666666">[varchar(50)]</text>
<polygon fill="none" stroke="#000000" points="46,-405.5 46,-435.5 348,-435.5 348,-405.5 46,-405.5"/>
<text text-anchor="start" x="53" y="-416.9" font-family="Arial" font-size="14.00" fill="#000000">sub_total </text>
<text text-anchor="start" x="113.6914" y="-416.9" font-family="Arial" font-size="14.00" fill="#666666">[varchar(20)]</text>
<polygon fill="none" stroke="#000000" points="46,-375.5 46,-405.5 348,-405.5 348,-375.5 46,-375.5"/>
<text text-anchor="start" x="53" y="-386.9" font-family="Arial" font-size="14.00" fill="#000000">packet_number </text>
<text text-anchor="start" x="153.3632" y="-386.9" font-family="Arial" font-size="14.00" fill="#666666">[varchar(20)]</text>
<polygon fill="none" stroke="#000000" points="46,-345.5 46,-375.5 348,-375.5 348,-345.5 46,-345.5"/>
<text text-anchor="start" x="53" y="-356.9" font-family="Arial" font-size="14.00" fill="#000000">sale_order_code </text>
<text text-anchor="start" x="161.1444" y="-356.9" font-family="Arial" font-size="14.00" fill="#666666">[varchar(50)]</text>
<polygon fill="none" stroke="#000000" points="46,-315.5 46,-345.5 348,-345.5 348,-315.5 46,-315.5"/>
<text text-anchor="start" x="53" y="-326.9" font-family="Arial" font-size="14.00" fill="#000000">sale_order_status </text>
<text text-anchor="start" x="168.143" y="-326.9" font-family="Arial" font-size="14.00" fill="#666666">[varchar(50)]</text>
<polygon fill="none" stroke="#000000" points="46,-285.5 46,-315.5 348,-315.5 348,-285.5 46,-285.5"/>
<text text-anchor="start" x="53" y="-296.9" font-family="Arial" font-size="14.00" fill="#000000">shipping_provider </text>
<text text-anchor="start" x="167.3576" y="-296.9" font-family="Arial" font-size="14.00" fill="#666666">[varchar(50)]</text>
<polygon fill="none" stroke="#000000" points="46,-255.5 46,-285.5 348,-285.5 348,-255.5 46,-255.5"/>
<text text-anchor="start" x="53" y="-266.9" font-family="Arial" font-size="14.00" fill="#000000">shipping_package_code </text>
<text text-anchor="start" x="207.8428" y="-266.9" font-family="Arial" font-size="14.00" fill="#666666">[varchar(50)]</text>
<polygon fill="none" stroke="#000000" points="46,-225.5 46,-255.5 348,-255.5 348,-225.5 46,-225.5"/>
<text text-anchor="start" x="52.6796" y="-236.9" font-family="Arial" font-size="14.00" fill="#000000">shipping_package_creation_date </text>
<text text-anchor="start" x="261.9838" y="-236.9" font-family="Arial" font-size="14.00" fill="#666666">[varchar(50)]</text>
<polygon fill="none" stroke="#000000" points="46,-195.5 46,-225.5 348,-225.5 348,-195.5 46,-195.5"/>
<text text-anchor="start" x="53" y="-206.9" font-family="Arial" font-size="14.00" fill="#000000">tracking_number </text>
<text text-anchor="start" x="161.1304" y="-206.9" font-family="Arial" font-size="14.00" fill="#666666">[varchar(50)]</text>
<polygon fill="none" stroke="#000000" points="46,-165.5 46,-195.5 348,-195.5 348,-165.5 46,-165.5"/>
<text text-anchor="start" x="53" y="-176.9" font-family="Arial" font-size="14.00" fill="#000000">facility </text>
<text text-anchor="start" x="95.7742" y="-176.9" font-family="Arial" font-size="14.00" fill="#666666">[varchar(50)]</text>
<polygon fill="none" stroke="#000000" points="46,-135.5 46,-165.5 348,-165.5 348,-135.5 46,-135.5"/>
<text text-anchor="start" x="53" y="-146.9" font-family="Arial" font-size="14.00" fill="#000000">item_code </text>
<text text-anchor="start" x="121.4614" y="-146.9" font-family="Arial" font-size="14.00" fill="#666666">[varchar(50)]</text>
<polygon fill="none" stroke="#000000" points="46,-105.5 46,-135.5 348,-135.5 348,-105.5 46,-105.5"/>
<text text-anchor="start" x="53" y="-116.9" font-family="Arial" font-size="14.00" fill="#000000">channel_shipping </text>
<text text-anchor="start" x="165.819" y="-116.9" font-family="Arial" font-size="14.00" fill="#666666">[boolean]</text>
<polygon fill="none" stroke="#000000" points="46,-75.5 46,-105.5 348,-105.5 348,-75.5 46,-75.5"/>
<text text-anchor="start" x="53" y="-86.9" font-family="Arial" font-size="14.00" fill="#000000">item_details </text>
<text text-anchor="start" x="131.5652" y="-86.9" font-family="Arial" font-size="14.00" fill="#666666">[varchar(50)]</text>
<polygon fill="none" stroke="#000000" points="46,-45.5 46,-75.5 348,-75.5 348,-45.5 46,-45.5"/>
<text text-anchor="start" x="53" y="-56.9" font-family="Arial" font-size="14.00" fill="#000000">invoice_received </text>
<text text-anchor="start" x="161.1318" y="-56.9" font-family="Arial" font-size="14.00" fill="#666666">[boolean]</text>
<polygon fill="none" stroke="#000000" stroke-width="3" points="44.5,-44.5 44.5,-772.5 349.5,-772.5 349.5,-44.5 44.5,-44.5"/>
</g>
</g>
</svg>
