<?xml version="1.0" encoding="UTF-8" standalone="no"?>
<!DOCTYPE svg PUBLIC "-//W3C//DTD SVG 1.1//EN"
 "http://www.w3.org/Graphics/SVG/1.1/DTD/svg11.dtd">
<!-- Generated by graphviz version 2.40.1 (20161225.0304)
 -->
<!-- Title: public.stor_requisition Pages: 1 -->
<svg width="978pt" height="2482pt"
 viewBox="0.00 0.00 978.00 2482.00" xmlns="http://www.w3.org/2000/svg" xmlns:xlink="http://www.w3.org/1999/xlink">
<g id="graph0" class="graph" transform="scale(1 1) rotate(0) translate(4 2478)">
<title>public.stor_requisition</title>
<polygon fill="#ffffff" stroke="transparent" points="-4,4 -4,-2478 974,-2478 974,4 -4,4"/>
<!-- public.stor_requisition -->
<g id="node1" class="node">
<title>public.stor_requisition</title>
<polygon fill="#efefef" stroke="transparent" points="590,-1545.5 590,-1580.5 905,-1580.5 905,-1545.5 590,-1545.5"/>
<polygon fill="none" stroke="#000000" points="590,-1545.5 590,-1580.5 905,-1580.5 905,-1545.5 590,-1545.5"/>
<text text-anchor="start" x="596.704" y="-1558.3" font-family="Arial Bold" font-size="18.00" fill="#000000">public.stor_requisition</text>
<text text-anchor="start" x="770.728" y="-1558.3" font-family="Arial" font-size="14.00" fill="#000000">    </text>
<text text-anchor="start" x="804.9328" y="-1558.3" font-family="Arial" font-size="14.00" fill="#666666">[BASE TABLE]</text>
<polygon fill="none" stroke="#000000" points="590,-1515.5 590,-1545.5 905,-1545.5 905,-1515.5 590,-1515.5"/>
<text text-anchor="start" x="597" y="-1526.9" font-family="Arial" font-size="14.00" fill="#000000">requisitionid </text>
<text text-anchor="start" x="675.5638" y="-1526.9" font-family="Arial" font-size="14.00" fill="#666666">[integer]</text>
<polygon fill="none" stroke="#000000" points="590,-1485.5 590,-1515.5 905,-1515.5 905,-1485.5 590,-1485.5"/>
<text text-anchor="start" x="597" y="-1496.9" font-family="Arial" font-size="14.00" fill="#000000">requisitionno </text>
<text text-anchor="start" x="680.2398" y="-1496.9" font-family="Arial" font-size="14.00" fill="#666666">[varchar(30)]</text>
<polygon fill="none" stroke="#000000" points="590,-1455.5 590,-1485.5 905,-1485.5 905,-1455.5 590,-1455.5"/>
<text text-anchor="start" x="597" y="-1466.9" font-family="Arial" font-size="14.00" fill="#000000">requisitiondate </text>
<text text-anchor="start" x="691.913" y="-1466.9" font-family="Arial" font-size="14.00" fill="#666666">[date]</text>
<polygon fill="none" stroke="#000000" points="590,-1425.5 590,-1455.5 905,-1455.5 905,-1425.5 590,-1425.5"/>
<text text-anchor="start" x="597" y="-1436.9" font-family="Arial" font-size="14.00" fill="#000000">shiftid </text>
<text text-anchor="start" x="637.4502" y="-1436.9" font-family="Arial" font-size="14.00" fill="#666666">[integer]</text>
<polygon fill="none" stroke="#000000" points="590,-1395.5 590,-1425.5 905,-1425.5 905,-1395.5 590,-1395.5"/>
<text text-anchor="start" x="597" y="-1406.9" font-family="Arial" font-size="14.00" fill="#000000">stageid </text>
<text text-anchor="start" x="646.0182" y="-1406.9" font-family="Arial" font-size="14.00" fill="#666666">[integer]</text>
<polygon fill="none" stroke="#000000" points="590,-1365.5 590,-1395.5 905,-1395.5 905,-1365.5 590,-1365.5"/>
<text text-anchor="start" x="597" y="-1376.9" font-family="Arial" font-size="14.00" fill="#000000">requisitionby </text>
<text text-anchor="start" x="679.4572" y="-1376.9" font-family="Arial" font-size="14.00" fill="#666666">[integer]</text>
<polygon fill="none" stroke="#000000" points="590,-1335.5 590,-1365.5 905,-1365.5 905,-1335.5 590,-1335.5"/>
<text text-anchor="start" x="597" y="-1346.9" font-family="Arial" font-size="14.00" fill="#000000">itemid </text>
<text text-anchor="start" x="638.2202" y="-1346.9" font-family="Arial" font-size="14.00" fill="#666666">[integer]</text>
<polygon fill="none" stroke="#000000" points="590,-1305.5 590,-1335.5 905,-1335.5 905,-1305.5 590,-1305.5"/>
<text text-anchor="start" x="597" y="-1316.9" font-family="Arial" font-size="14.00" fill="#000000">bomid </text>
<text text-anchor="start" x="639.0056" y="-1316.9" font-family="Arial" font-size="14.00" fill="#666666">[integer]</text>
<polygon fill="none" stroke="#000000" points="590,-1275.5 590,-1305.5 905,-1305.5 905,-1275.5 590,-1275.5"/>
<text text-anchor="start" x="597" y="-1286.9" font-family="Arial" font-size="14.00" fill="#000000">baseqty </text>
<text text-anchor="start" x="649.9116" y="-1286.9" font-family="Arial" font-size="14.00" fill="#666666">[numeric(15,5)]</text>
<polygon fill="none" stroke="#000000" points="590,-1245.5 590,-1275.5 905,-1275.5 905,-1245.5 590,-1245.5"/>
<text text-anchor="start" x="597" y="-1256.9" font-family="Arial" font-size="14.00" fill="#000000">altqty </text>
<text text-anchor="start" x="634.3436" y="-1256.9" font-family="Arial" font-size="14.00" fill="#666666">[numeric(15,5)]</text>
<polygon fill="none" stroke="#000000" points="590,-1215.5 590,-1245.5 905,-1245.5 905,-1215.5 590,-1215.5"/>
<text text-anchor="start" x="597" y="-1226.9" font-family="Arial" font-size="14.00" fill="#000000">branchid </text>
<text text-anchor="start" x="654.5708" y="-1226.9" font-family="Arial" font-size="14.00" fill="#666666">[integer]</text>
<polygon fill="none" stroke="#000000" points="590,-1185.5 590,-1215.5 905,-1215.5 905,-1185.5 590,-1185.5"/>
<text text-anchor="start" x="597" y="-1196.9" font-family="Arial" font-size="14.00" fill="#000000">createdby </text>
<text text-anchor="start" x="662.3548" y="-1196.9" font-family="Arial" font-size="14.00" fill="#666666">[integer]</text>
<polygon fill="none" stroke="#000000" points="590,-1155.5 590,-1185.5 905,-1185.5 905,-1155.5 590,-1155.5"/>
<text text-anchor="start" x="597" y="-1166.9" font-family="Arial" font-size="14.00" fill="#000000">machineid </text>
<text text-anchor="start" x="664.6774" y="-1166.9" font-family="Arial" font-size="14.00" fill="#666666">[integer]</text>
<polygon fill="none" stroke="#000000" points="590,-1125.5 590,-1155.5 905,-1155.5 905,-1125.5 590,-1125.5"/>
<text text-anchor="start" x="597" y="-1136.9" font-family="Arial" font-size="14.00" fill="#000000">isclosed </text>
<text text-anchor="start" x="651.4516" y="-1136.9" font-family="Arial" font-size="14.00" fill="#666666">[boolean]</text>
<polygon fill="none" stroke="#000000" points="590,-1095.5 590,-1125.5 905,-1125.5 905,-1095.5 590,-1095.5"/>
<text text-anchor="start" x="597" y="-1106.9" font-family="Arial" font-size="14.00" fill="#000000">description </text>
<text text-anchor="start" x="668.568" y="-1106.9" font-family="Arial" font-size="14.00" fill="#666666">[varchar(150)]</text>
<polygon fill="none" stroke="#000000" points="590,-1065.5 590,-1095.5 905,-1095.5 905,-1065.5 590,-1065.5"/>
<text text-anchor="start" x="597" y="-1076.9" font-family="Arial" font-size="14.00" fill="#000000">authorizedon </text>
<text text-anchor="start" x="681.8092" y="-1076.9" font-family="Arial" font-size="14.00" fill="#666666">[timestamp without time zone]</text>
<polygon fill="none" stroke="#000000" points="590,-1035.5 590,-1065.5 905,-1065.5 905,-1035.5 590,-1035.5"/>
<text text-anchor="start" x="597" y="-1046.9" font-family="Arial" font-size="14.00" fill="#000000">isauthorized </text>
<text text-anchor="start" x="676.3506" y="-1046.9" font-family="Arial" font-size="14.00" fill="#666666">[boolean]</text>
<polygon fill="none" stroke="#000000" points="590,-1005.5 590,-1035.5 905,-1035.5 905,-1005.5 590,-1005.5"/>
<text text-anchor="start" x="597" y="-1016.9" font-family="Arial" font-size="14.00" fill="#000000">authorizedby </text>
<text text-anchor="start" x="681.0266" y="-1016.9" font-family="Arial" font-size="14.00" fill="#666666">[integer]</text>
<polygon fill="none" stroke="#000000" points="590,-975.5 590,-1005.5 905,-1005.5 905,-975.5 590,-975.5"/>
<text text-anchor="start" x="597" y="-986.9" font-family="Arial" font-size="14.00" fill="#000000">seriescode </text>
<text text-anchor="start" x="668.5708" y="-986.9" font-family="Arial" font-size="14.00" fill="#666666">[varchar(50)]</text>
<polygon fill="none" stroke="#000000" points="590,-945.5 590,-975.5 905,-975.5 905,-945.5 590,-945.5"/>
<text text-anchor="start" x="597" y="-956.9" font-family="Arial" font-size="14.00" fill="#000000">seriesno </text>
<text text-anchor="start" x="653.7882" y="-956.9" font-family="Arial" font-size="14.00" fill="#666666">[integer]</text>
<polygon fill="none" stroke="#000000" points="590,-915.5 590,-945.5 905,-945.5 905,-915.5 590,-915.5"/>
<text text-anchor="start" x="597" y="-926.9" font-family="Arial" font-size="14.00" fill="#000000">createdon </text>
<text text-anchor="start" x="663.1374" y="-926.9" font-family="Arial" font-size="14.00" fill="#666666">[timestamp without time zone]</text>
<polygon fill="none" stroke="#000000" points="590,-885.5 590,-915.5 905,-915.5 905,-885.5 590,-885.5"/>
<text text-anchor="start" x="597" y="-896.9" font-family="Arial" font-size="14.00" fill="#000000">editlog </text>
<text text-anchor="start" x="642.1248" y="-896.9" font-family="Arial" font-size="14.00" fill="#666666">[text]</text>
<polygon fill="none" stroke="#000000" points="590,-855.5 590,-885.5 905,-885.5 905,-855.5 590,-855.5"/>
<text text-anchor="start" x="597" y="-866.9" font-family="Arial" font-size="14.00" fill="#000000">isreqforfa </text>
<text text-anchor="start" x="659.23" y="-866.9" font-family="Arial" font-size="14.00" fill="#666666">[boolean]</text>
<polygon fill="none" stroke="#000000" points="590,-825.5 590,-855.5 905,-855.5 905,-825.5 590,-825.5"/>
<text text-anchor="start" x="597" y="-836.9" font-family="Arial" font-size="14.00" fill="#000000">assettypeid </text>
<text text-anchor="start" x="671.6914" y="-836.9" font-family="Arial" font-size="14.00" fill="#666666">[integer]</text>
<polygon fill="none" stroke="#000000" points="590,-795.5 590,-825.5 905,-825.5 905,-795.5 590,-795.5"/>
<text text-anchor="start" x="597" y="-806.9" font-family="Arial" font-size="14.00" fill="#000000">assetid </text>
<text text-anchor="start" x="645.2356" y="-806.9" font-family="Arial" font-size="14.00" fill="#666666">[integer]</text>
<polygon fill="none" stroke="#000000" points="590,-765.5 590,-795.5 905,-795.5 905,-765.5 590,-765.5"/>
<text text-anchor="start" x="597" y="-776.9" font-family="Arial" font-size="14.00" fill="#000000">seriesid </text>
<text text-anchor="start" x="649.1122" y="-776.9" font-family="Arial" font-size="14.00" fill="#666666">[integer]</text>
<polygon fill="none" stroke="#000000" points="590,-735.5 590,-765.5 905,-765.5 905,-735.5 590,-735.5"/>
<text text-anchor="start" x="597" y="-746.9" font-family="Arial" font-size="14.00" fill="#000000">headauthorizedby </text>
<text text-anchor="start" x="712.157" y="-746.9" font-family="Arial" font-size="14.00" fill="#666666">[integer]</text>
<polygon fill="none" stroke="#000000" points="590,-705.5 590,-735.5 905,-735.5 905,-705.5 590,-705.5"/>
<text text-anchor="start" x="596.9601" y="-716.9" font-family="Arial" font-size="14.00" fill="#000000">headauthorizedon </text>
<text text-anchor="start" x="712.8997" y="-716.9" font-family="Arial" font-size="14.00" fill="#666666">[timestamp without time zone]</text>
<polygon fill="none" stroke="#000000" points="590,-675.5 590,-705.5 905,-705.5 905,-675.5 590,-675.5"/>
<text text-anchor="start" x="597" y="-686.9" font-family="Arial" font-size="14.00" fill="#000000">iscancelled </text>
<text text-anchor="start" x="670.1234" y="-686.9" font-family="Arial" font-size="14.00" fill="#666666">[boolean]</text>
<polygon fill="none" stroke="#000000" points="590,-645.5 590,-675.5 905,-675.5 905,-645.5 590,-645.5"/>
<text text-anchor="start" x="597" y="-656.9" font-family="Arial" font-size="14.00" fill="#000000">cancellationreason </text>
<text text-anchor="start" x="717.5876" y="-656.9" font-family="Arial" font-size="14.00" fill="#666666">[text]</text>
<polygon fill="none" stroke="#000000" points="590,-615.5 590,-645.5 905,-645.5 905,-615.5 590,-615.5"/>
<text text-anchor="start" x="597" y="-626.9" font-family="Arial" font-size="14.00" fill="#000000">seriesvouchertype </text>
<text text-anchor="start" x="714.4698" y="-626.9" font-family="Arial" font-size="14.00" fill="#666666">[smallint]</text>
<polygon fill="none" stroke="#000000" points="590,-585.5 590,-615.5 905,-615.5 905,-585.5 590,-585.5"/>
<text text-anchor="start" x="597" y="-596.9" font-family="Arial" font-size="14.00" fill="#000000">reqitemstoreid </text>
<text text-anchor="start" x="689.5624" y="-596.9" font-family="Arial" font-size="14.00" fill="#666666">[integer]</text>
<polygon fill="none" stroke="#000000" points="590,-555.5 590,-585.5 905,-585.5 905,-555.5 590,-555.5"/>
<text text-anchor="start" x="597" y="-566.9" font-family="Arial" font-size="14.00" fill="#000000">requisitiontype </text>
<text text-anchor="start" x="691.1304" y="-566.9" font-family="Arial" font-size="14.00" fill="#666666">[smallint]</text>
<polygon fill="none" stroke="#000000" points="590,-525.5 590,-555.5 905,-555.5 905,-525.5 590,-525.5"/>
<text text-anchor="start" x="597" y="-536.9" font-family="Arial" font-size="14.00" fill="#000000">batchno </text>
<text text-anchor="start" x="650.6942" y="-536.9" font-family="Arial" font-size="14.00" fill="#666666">[varchar(50)]</text>
<polygon fill="none" stroke="#000000" points="590,-495.5 590,-525.5 905,-525.5 905,-495.5 590,-495.5"/>
<text text-anchor="start" x="597" y="-506.9" font-family="Arial" font-size="14.00" fill="#000000">closingreason </text>
<text text-anchor="start" x="687.2426" y="-506.9" font-family="Arial" font-size="14.00" fill="#666666">[text]</text>
<polygon fill="none" stroke="#000000" points="590,-465.5 590,-495.5 905,-495.5 905,-465.5 590,-465.5"/>
<text text-anchor="start" x="597" y="-476.9" font-family="Arial" font-size="14.00" fill="#000000">closingdate </text>
<text text-anchor="start" x="671.69" y="-476.9" font-family="Arial" font-size="14.00" fill="#666666">[timestamp without time zone]</text>
<polygon fill="none" stroke="#000000" points="590,-435.5 590,-465.5 905,-465.5 905,-435.5 590,-435.5"/>
<text text-anchor="start" x="597" y="-446.9" font-family="Arial" font-size="14.00" fill="#000000">cancelledby </text>
<text text-anchor="start" x="674.7994" y="-446.9" font-family="Arial" font-size="14.00" fill="#666666">[integer]</text>
<polygon fill="none" stroke="#000000" points="590,-405.5 590,-435.5 905,-435.5 905,-405.5 590,-405.5"/>
<text text-anchor="start" x="597" y="-416.9" font-family="Arial" font-size="14.00" fill="#000000">workorderid </text>
<text text-anchor="start" x="673.9986" y="-416.9" font-family="Arial" font-size="14.00" fill="#666666">[integer]</text>
<polygon fill="none" stroke="#000000" points="590,-375.5 590,-405.5 905,-405.5 905,-375.5 590,-375.5"/>
<text text-anchor="start" x="597" y="-386.9" font-family="Arial" font-size="14.00" fill="#000000">isprojectbasedpurchase </text>
<text text-anchor="start" x="748.7068" y="-386.9" font-family="Arial" font-size="14.00" fill="#666666">[boolean]</text>
<polygon fill="none" stroke="#000000" points="590,-345.5 590,-375.5 905,-375.5 905,-345.5 590,-345.5"/>
<text text-anchor="start" x="597" y="-356.9" font-family="Arial" font-size="14.00" fill="#000000">locationid </text>
<text text-anchor="start" x="660.014" y="-356.9" font-family="Arial" font-size="14.00" fill="#666666">[integer]</text>
<polygon fill="none" stroke="#000000" points="590,-315.5 590,-345.5 905,-345.5 905,-315.5 590,-315.5"/>
<text text-anchor="start" x="597" y="-326.9" font-family="Arial" font-size="14.00" fill="#000000">fixedassetdepartmentwisebudgetid </text>
<text text-anchor="start" x="816.3954" y="-326.9" font-family="Arial" font-size="14.00" fill="#666666">[integer]</text>
<polygon fill="none" stroke="#000000" points="590,-285.5 590,-315.5 905,-315.5 905,-285.5 590,-285.5"/>
<text text-anchor="start" x="597" y="-296.9" font-family="Arial" font-size="14.00" fill="#000000">sorefid </text>
<text text-anchor="start" x="642.8962" y="-296.9" font-family="Arial" font-size="14.00" fill="#666666">[integer]</text>
<polygon fill="none" stroke="#000000" points="590,-255.5 590,-285.5 905,-285.5 905,-255.5 590,-255.5"/>
<text text-anchor="start" x="597" y="-266.9" font-family="Arial" font-size="14.00" fill="#000000">lastedittime </text>
<text text-anchor="start" x="671.6732" y="-266.9" font-family="Arial" font-size="14.00" fill="#666666">[timestamp without time zone]</text>
<polygon fill="none" stroke="#000000" points="590,-225.5 590,-255.5 905,-255.5 905,-225.5 590,-225.5"/>
<text text-anchor="start" x="597" y="-236.9" font-family="Arial" font-size="14.00" fill="#000000">iscreatedfromcrm </text>
<text text-anchor="start" x="708.9944" y="-236.9" font-family="Arial" font-size="14.00" fill="#666666">[boolean]</text>
<polygon fill="none" stroke="#000000" points="590,-195.5 590,-225.5 905,-225.5 905,-195.5 590,-195.5"/>
<text text-anchor="start" x="597" y="-206.9" font-family="Arial" font-size="14.00" fill="#000000">crmcomplainid </text>
<text text-anchor="start" x="691.1052" y="-206.9" font-family="Arial" font-size="14.00" fill="#666666">[bigint]</text>
<polygon fill="none" stroke="#000000" points="590,-165.5 590,-195.5 905,-195.5 905,-165.5 590,-165.5"/>
<text text-anchor="start" x="597" y="-176.9" font-family="Arial" font-size="14.00" fill="#000000">crmcomplainno </text>
<text text-anchor="start" x="695.7812" y="-176.9" font-family="Arial" font-size="14.00" fill="#666666">[text]</text>
<polygon fill="none" stroke="#000000" points="590,-135.5 590,-165.5 905,-165.5 905,-135.5 590,-135.5"/>
<text text-anchor="start" x="597" y="-146.9" font-family="Arial" font-size="14.00" fill="#000000">crmcomplaindate </text>
<text text-anchor="start" x="707.4544" y="-146.9" font-family="Arial" font-size="14.00" fill="#666666">[timestamp without time zone]</text>
<polygon fill="none" stroke="#000000" points="590,-105.5 590,-135.5 905,-135.5 905,-105.5 590,-105.5"/>
<text text-anchor="start" x="597" y="-116.9" font-family="Arial" font-size="14.00" fill="#000000">updatedby </text>
<text text-anchor="start" x="666.2594" y="-116.9" font-family="Arial" font-size="14.00" fill="#666666">[integer]</text>
<polygon fill="none" stroke="#000000" points="590,-75.5 590,-105.5 905,-105.5 905,-75.5 590,-75.5"/>
<text text-anchor="start" x="597" y="-86.9" font-family="Arial" font-size="14.00" fill="#000000">updatedon </text>
<text text-anchor="start" x="667.042" y="-86.9" font-family="Arial" font-size="14.00" fill="#666666">[timestamp(6) without time zone]</text>
<polygon fill="none" stroke="#000000" points="590,-45.5 590,-75.5 905,-75.5 905,-45.5 590,-45.5"/>
<text text-anchor="start" x="597" y="-56.9" font-family="Arial" font-size="14.00" fill="#000000">closedby </text>
<text text-anchor="start" x="656.1276" y="-56.9" font-family="Arial" font-size="14.00" fill="#666666">[integer]</text>
<polygon fill="none" stroke="#000000" stroke-width="3" points="588,-44.5 588,-1582.5 906,-1582.5 906,-44.5 588,-44.5"/>
</g>
<!-- public.stor_requisitiondetail -->
<g id="node2" class="node">
<title>public.stor_requisitiondetail</title>
<polygon fill="#efefef" stroke="transparent" points="569,-2395.5 569,-2430.5 927,-2430.5 927,-2395.5 569,-2395.5"/>
<polygon fill="none" stroke="#000000" points="569,-2395.5 569,-2430.5 927,-2430.5 927,-2395.5 569,-2395.5"/>
<text text-anchor="start" x="575.6994" y="-2408.3" font-family="Arial Bold" font-size="18.00" fill="#000000">public.stor_requisitiondetail</text>
<text text-anchor="start" x="792.7326" y="-2408.3" font-family="Arial" font-size="14.00" fill="#000000">    </text>
<text text-anchor="start" x="826.9374" y="-2408.3" font-family="Arial" font-size="14.00" fill="#666666">[BASE TABLE]</text>
<polygon fill="none" stroke="#000000" points="569,-2365.5 569,-2395.5 927,-2395.5 927,-2365.5 569,-2365.5"/>
<text text-anchor="start" x="576" y="-2376.9" font-family="Arial" font-size="14.00" fill="#000000">requisitiondetailid    </text>
<text text-anchor="start" x="718.3296" y="-2376.9" font-family="Arial" font-size="14.00" fill="#666666">[integer]</text>
<polygon fill="none" stroke="#000000" points="569,-2335.5 569,-2365.5 927,-2365.5 927,-2335.5 569,-2335.5"/>
<text text-anchor="start" x="576" y="-2346.9" font-family="Arial" font-size="14.00" fill="#000000">requisitionid    </text>
<text text-anchor="start" x="684.878" y="-2346.9" font-family="Arial" font-size="14.00" fill="#666666">[integer]</text>
<polygon fill="none" stroke="#000000" points="569,-2305.5 569,-2335.5 927,-2335.5 927,-2305.5 569,-2305.5"/>
<text text-anchor="start" x="576" y="-2316.9" font-family="Arial" font-size="14.00" fill="#000000">itemid    </text>
<text text-anchor="start" x="647.5344" y="-2316.9" font-family="Arial" font-size="14.00" fill="#666666">[integer]</text>
<polygon fill="none" stroke="#000000" points="569,-2275.5 569,-2305.5 927,-2305.5 927,-2275.5 569,-2275.5"/>
<text text-anchor="start" x="576" y="-2286.9" font-family="Arial" font-size="14.00" fill="#000000">baseqty    </text>
<text text-anchor="start" x="659.2258" y="-2286.9" font-family="Arial" font-size="14.00" fill="#666666">[numeric(15,5)]</text>
<polygon fill="none" stroke="#000000" points="569,-2245.5 569,-2275.5 927,-2275.5 927,-2245.5 569,-2245.5"/>
<text text-anchor="start" x="576" y="-2256.9" font-family="Arial" font-size="14.00" fill="#000000">altqty    </text>
<text text-anchor="start" x="643.6578" y="-2256.9" font-family="Arial" font-size="14.00" fill="#666666">[numeric(15,5)]</text>
<polygon fill="none" stroke="#000000" points="569,-2215.5 569,-2245.5 927,-2245.5 927,-2215.5 569,-2215.5"/>
<text text-anchor="start" x="576" y="-2226.9" font-family="Arial" font-size="14.00" fill="#000000">stageid    </text>
<text text-anchor="start" x="655.3324" y="-2226.9" font-family="Arial" font-size="14.00" fill="#666666">[integer]</text>
<polygon fill="none" stroke="#000000" points="569,-2185.5 569,-2215.5 927,-2215.5 927,-2185.5 569,-2185.5"/>
<text text-anchor="start" x="576" y="-2196.9" font-family="Arial" font-size="14.00" fill="#000000">pendingbaseqty    </text>
<text text-anchor="start" x="709.028" y="-2196.9" font-family="Arial" font-size="14.00" fill="#666666">[numeric(15,5)]</text>
<polygon fill="none" stroke="#000000" points="569,-2155.5 569,-2185.5 927,-2185.5 927,-2155.5 569,-2155.5"/>
<text text-anchor="start" x="576" y="-2166.9" font-family="Arial" font-size="14.00" fill="#000000">pendingaltqty    </text>
<text text-anchor="start" x="693.46" y="-2166.9" font-family="Arial" font-size="14.00" fill="#666666">[numeric(15,5)]</text>
<polygon fill="none" stroke="#000000" points="569,-2125.5 569,-2155.5 927,-2155.5 927,-2125.5 569,-2125.5"/>
<text text-anchor="start" x="576" y="-2136.9" font-family="Arial" font-size="14.00" fill="#000000">prqty    </text>
<text text-anchor="start" x="641.3212" y="-2136.9" font-family="Arial" font-size="14.00" fill="#666666">[numeric(15,5)]</text>
<polygon fill="none" stroke="#000000" points="569,-2095.5 569,-2125.5 927,-2125.5 927,-2095.5 569,-2095.5"/>
<text text-anchor="start" x="576" y="-2106.9" font-family="Arial" font-size="14.00" fill="#000000">praltqty    </text>
<text text-anchor="start" x="656.101" y="-2106.9" font-family="Arial" font-size="14.00" fill="#666666">[numeric(15,5)]</text>
<polygon fill="none" stroke="#000000" points="569,-2065.5 569,-2095.5 927,-2095.5 927,-2065.5 569,-2065.5"/>
<text text-anchor="start" x="576" y="-2076.9" font-family="Arial" font-size="14.00" fill="#000000">remarks    </text>
<text text-anchor="start" x="660.7518" y="-2076.9" font-family="Arial" font-size="14.00" fill="#666666">[text]</text>
<polygon fill="none" stroke="#000000" points="569,-2035.5 569,-2065.5 927,-2065.5 927,-2035.5 569,-2035.5"/>
<text text-anchor="start" x="576" y="-2046.9" font-family="Arial" font-size="14.00" fill="#000000">requireddate    </text>
<text text-anchor="start" x="688.784" y="-2046.9" font-family="Arial" font-size="14.00" fill="#666666">[date]</text>
<polygon fill="none" stroke="#000000" points="569,-2005.5 569,-2035.5 927,-2035.5 927,-2005.5 569,-2005.5"/>
<text text-anchor="start" x="576" y="-2016.9" font-family="Arial" font-size="14.00" fill="#000000">batchcarddetailid    </text>
<text text-anchor="start" x="716.0098" y="-2016.9" font-family="Arial" font-size="14.00" fill="#666666">[integer]</text>
<polygon fill="none" stroke="#000000" points="569,-1975.5 569,-2005.5 927,-2005.5 927,-1975.5 569,-1975.5"/>
<text text-anchor="start" x="576" y="-1986.9" font-family="Arial" font-size="14.00" fill="#000000">reqstoreid    </text>
<text text-anchor="start" x="672.4362" y="-1986.9" font-family="Arial" font-size="14.00" fill="#666666">[integer]</text>
<polygon fill="none" stroke="#000000" points="569,-1945.5 569,-1975.5 927,-1975.5 927,-1945.5 569,-1945.5"/>
<text text-anchor="start" x="576" y="-1956.9" font-family="Arial" font-size="14.00" fill="#000000">soid    </text>
<text text-anchor="start" x="635.8766" y="-1956.9" font-family="Arial" font-size="14.00" fill="#666666">[integer]</text>
<polygon fill="none" stroke="#000000" points="569,-1915.5 569,-1945.5 927,-1945.5 927,-1915.5 569,-1915.5"/>
<text text-anchor="start" x="576" y="-1926.9" font-family="Arial" font-size="14.00" fill="#000000">priority    </text>
<text text-anchor="start" x="652.195" y="-1926.9" font-family="Arial" font-size="14.00" fill="#666666">[smallint]</text>
<polygon fill="none" stroke="#000000" points="569,-1885.5 569,-1915.5 927,-1915.5 927,-1885.5 569,-1885.5"/>
<text text-anchor="start" x="576" y="-1896.9" font-family="Arial" font-size="14.00" fill="#000000">sodetailrefid    </text>
<text text-anchor="start" x="685.662" y="-1896.9" font-family="Arial" font-size="14.00" fill="#666666">[integer]</text>
<polygon fill="none" stroke="#000000" points="569,-1855.5 569,-1885.5 927,-1885.5 927,-1855.5 569,-1855.5"/>
<text text-anchor="start" x="576" y="-1866.9" font-family="Arial" font-size="14.00" fill="#000000">hsnclassificationid    </text>
<text text-anchor="start" x="722.9972" y="-1866.9" font-family="Arial" font-size="14.00" fill="#666666">[integer]</text>
<polygon fill="none" stroke="#000000" points="569,-1825.5 569,-1855.5 927,-1855.5 927,-1825.5 569,-1825.5"/>
<text text-anchor="start" x="576" y="-1836.9" font-family="Arial" font-size="14.00" fill="#000000">oldbaseqty    </text>
<text text-anchor="start" x="677.8976" y="-1836.9" font-family="Arial" font-size="14.00" fill="#666666">[numeric(15,5)]</text>
<polygon fill="none" stroke="#000000" points="569,-1795.5 569,-1825.5 927,-1825.5 927,-1795.5 569,-1795.5"/>
<text text-anchor="start" x="576" y="-1806.9" font-family="Arial" font-size="14.00" fill="#000000">oldaltqty    </text>
<text text-anchor="start" x="662.3296" y="-1806.9" font-family="Arial" font-size="14.00" fill="#666666">[numeric(15,5)]</text>
<polygon fill="none" stroke="#000000" points="569,-1765.5 569,-1795.5 927,-1795.5 927,-1765.5 569,-1765.5"/>
<text text-anchor="start" x="576" y="-1776.9" font-family="Arial" font-size="14.00" fill="#000000">p_id    </text>
<text text-anchor="start" x="636.6592" y="-1776.9" font-family="Arial" font-size="14.00" fill="#666666">[integer]</text>
<polygon fill="none" stroke="#000000" points="569,-1735.5 569,-1765.5 927,-1765.5 927,-1735.5 569,-1735.5"/>
<text text-anchor="start" x="576" y="-1746.9" font-family="Arial" font-size="14.00" fill="#000000">c_id    </text>
<text text-anchor="start" x="635.8766" y="-1746.9" font-family="Arial" font-size="14.00" fill="#666666">[integer]</text>
<polygon fill="none" stroke="#000000" points="569,-1705.5 569,-1735.5 927,-1735.5 927,-1705.5 569,-1705.5"/>
<text text-anchor="start" x="576" y="-1716.9" font-family="Arial" font-size="14.00" fill="#000000">costcenterid    </text>
<text text-anchor="start" x="685.6662" y="-1716.9" font-family="Arial" font-size="14.00" fill="#666666">[integer]</text>
</g>
<!-- public.stor_requisitiondetail&#45;&gt;public.stor_requisition -->
<g id="edge1" class="edge">
<title>public.stor_requisitiondetail:requisitionid&#45;&gt;public.stor_requisition:requisitionid</title>
<path fill="none" stroke="#000000" d="M559.3143,-2346.7911C494.9389,-2294.9953 520.2367,-1717.2671 569,-1663 619.1914,-1607.1437 854.8086,-1682.8563 905,-1627 933.6661,-1595.0984 947.8889,-1530.5 905,-1530.5"/>
<polygon fill="#000000" stroke="#000000" points="559.6613,-2346.9239 567.3908,-2354.7024 564.3306,-2348.7119 569,-2350.5 569,-2350.5 569,-2350.5 564.3306,-2348.7119 570.6092,-2346.2976 559.6613,-2346.9239 559.6613,-2346.9239"/>
<text text-anchor="start" x="7.216" y="-2360.5" font-family="Arial" font-size="10.00" fill="#000000">FOREIGN KEY (requisitionid) REFERENCES stor_requisition(requisitionid) ON UPDATE CASCADE ON DELETE CASCADE</text>
</g>
</g>
</svg>
