<?xml version="1.0" encoding="UTF-8" standalone="no"?>
<!DOCTYPE svg PUBLIC "-//W3C//DTD SVG 1.1//EN"
 "http://www.w3.org/Graphics/SVG/1.1/DTD/svg11.dtd">
<!-- Generated by graphviz version 2.40.1 (20161225.0304)
 -->
<!-- Title: public.qlty_inspectionsamplebatchdetail Pages: 1 -->
<svg width="557pt" height="495pt"
 viewBox="0.00 0.00 557.00 495.00" xmlns="http://www.w3.org/2000/svg" xmlns:xlink="http://www.w3.org/1999/xlink">
<g id="graph0" class="graph" transform="scale(1 1) rotate(0) translate(4 491)">
<title>public.qlty_inspectionsamplebatchdetail</title>
<polygon fill="#ffffff" stroke="transparent" points="-4,4 -4,-491 553,-491 553,4 -4,4"/>
<!-- public.qlty_inspectionsamplebatchdetail -->
<g id="node1" class="node">
<title>public.qlty_inspectionsamplebatchdetail</title>
<polygon fill="#efefef" stroke="transparent" points="46.5,-405.5 46.5,-440.5 503.5,-440.5 503.5,-405.5 46.5,-405.5"/>
<polygon fill="none" stroke="#000000" points="46.5,-405.5 46.5,-440.5 503.5,-440.5 503.5,-405.5 46.5,-405.5"/>
<text text-anchor="start" x="53.1787" y="-418.3" font-family="Arial Bold" font-size="18.00" fill="#000000">public.qlty_inspectionsamplebatchdetail</text>
<text text-anchor="start" x="369.2533" y="-418.3" font-family="Arial" font-size="14.00" fill="#000000">    </text>
<text text-anchor="start" x="403.4581" y="-418.3" font-family="Arial" font-size="14.00" fill="#666666">[BASE TABLE]</text>
<polygon fill="none" stroke="#000000" points="46.5,-375.5 46.5,-405.5 503.5,-405.5 503.5,-375.5 46.5,-375.5"/>
<text text-anchor="start" x="53.5" y="-386.9" font-family="Arial" font-size="14.00" fill="#000000">inspectionsamplebatchdetailid </text>
<text text-anchor="start" x="244.1016" y="-386.9" font-family="Arial" font-size="14.00" fill="#666666">[integer]</text>
<polygon fill="none" stroke="#000000" points="46.5,-345.5 46.5,-375.5 503.5,-375.5 503.5,-345.5 46.5,-345.5"/>
<text text-anchor="start" x="53.5" y="-356.9" font-family="Arial" font-size="14.00" fill="#000000">inspectionid </text>
<text text-anchor="start" x="131.2966" y="-356.9" font-family="Arial" font-size="14.00" fill="#666666">[integer]</text>
<polygon fill="none" stroke="#000000" points="46.5,-315.5 46.5,-345.5 503.5,-345.5 503.5,-315.5 46.5,-315.5"/>
<text text-anchor="start" x="53.5" y="-326.9" font-family="Arial" font-size="14.00" fill="#000000">inspectionitemid </text>
<text text-anchor="start" x="157.737" y="-326.9" font-family="Arial" font-size="14.00" fill="#666666">[integer]</text>
<polygon fill="none" stroke="#000000" points="46.5,-285.5 46.5,-315.5 503.5,-315.5 503.5,-285.5 46.5,-285.5"/>
<text text-anchor="start" x="53.5" y="-296.9" font-family="Arial" font-size="14.00" fill="#000000">itemwisesamplebatchcreationid </text>
<text text-anchor="start" x="251.8576" y="-296.9" font-family="Arial" font-size="14.00" fill="#666666">[integer]</text>
<polygon fill="none" stroke="#000000" points="46.5,-255.5 46.5,-285.5 503.5,-285.5 503.5,-255.5 46.5,-255.5"/>
<text text-anchor="start" x="53.5" y="-266.9" font-family="Arial" font-size="14.00" fill="#000000">batchid </text>
<text text-anchor="start" x="102.5182" y="-266.9" font-family="Arial" font-size="14.00" fill="#666666">[integer]</text>
<polygon fill="none" stroke="#000000" points="46.5,-225.5 46.5,-255.5 503.5,-255.5 503.5,-225.5 46.5,-225.5"/>
<text text-anchor="start" x="53.5" y="-236.9" font-family="Arial" font-size="14.00" fill="#000000">samplebatchid </text>
<text text-anchor="start" x="147.6332" y="-236.9" font-family="Arial" font-size="14.00" fill="#666666">[integer]</text>
<polygon fill="none" stroke="#000000" points="46.5,-195.5 46.5,-225.5 503.5,-225.5 503.5,-195.5 46.5,-195.5"/>
<text text-anchor="start" x="53.5" y="-206.9" font-family="Arial" font-size="14.00" fill="#000000">samplebatchqty </text>
<text text-anchor="start" x="155.4172" y="-206.9" font-family="Arial" font-size="14.00" fill="#666666">[numeric(15,3)]</text>
<polygon fill="none" stroke="#000000" points="46.5,-165.5 46.5,-195.5 503.5,-195.5 503.5,-165.5 46.5,-165.5"/>
<text text-anchor="start" x="53.5" y="-176.9" font-family="Arial" font-size="14.00" fill="#000000">samplebatchaltqty </text>
<text text-anchor="start" x="170.197" y="-176.9" font-family="Arial" font-size="14.00" fill="#666666">[numeric(15,3)]</text>
<polygon fill="none" stroke="#000000" points="46.5,-135.5 46.5,-165.5 503.5,-165.5 503.5,-135.5 46.5,-135.5"/>
<text text-anchor="start" x="53.5" y="-146.9" font-family="Arial" font-size="14.00" fill="#000000">testqty </text>
<text text-anchor="start" x="98.6276" y="-146.9" font-family="Arial" font-size="14.00" fill="#666666">[numeric(15,3)]</text>
<polygon fill="none" stroke="#000000" points="46.5,-105.5 46.5,-135.5 503.5,-135.5 503.5,-105.5 46.5,-105.5"/>
<text text-anchor="start" x="53.5" y="-116.9" font-family="Arial" font-size="14.00" fill="#000000">testaltqty </text>
<text text-anchor="start" x="113.4074" y="-116.9" font-family="Arial" font-size="14.00" fill="#666666">[numeric(15,3)]</text>
<polygon fill="none" stroke="#000000" points="46.5,-75.5 46.5,-105.5 503.5,-105.5 503.5,-75.5 46.5,-75.5"/>
<text text-anchor="start" x="53.5" y="-86.9" font-family="Arial" font-size="14.00" fill="#000000">isconsumed </text>
<text text-anchor="start" x="132.0708" y="-86.9" font-family="Arial" font-size="14.00" fill="#666666">[boolean]</text>
<polygon fill="none" stroke="#000000" points="46.5,-45.5 46.5,-75.5 503.5,-75.5 503.5,-45.5 46.5,-45.5"/>
<text text-anchor="start" x="53.5" y="-56.9" font-family="Arial" font-size="14.00" fill="#000000">itemid </text>
<text text-anchor="start" x="94.7202" y="-56.9" font-family="Arial" font-size="14.00" fill="#666666">[integer]</text>
<polygon fill="none" stroke="#000000" stroke-width="3" points="44.5,-44.5 44.5,-442.5 504.5,-442.5 504.5,-44.5 44.5,-44.5"/>
</g>
</g>
</svg>
