<?xml version="1.0" encoding="UTF-8" standalone="no"?>
<!DOCTYPE svg PUBLIC "-//W3C//DTD SVG 1.1//EN"
 "http://www.w3.org/Graphics/SVG/1.1/DTD/svg11.dtd">
<!-- Generated by graphviz version 2.40.1 (20161225.0304)
 -->
<!-- Title: public.sale_sipost_taxdetail Pages: 1 -->
<svg width="460pt" height="255pt"
 viewBox="0.00 0.00 460.00 255.00" xmlns="http://www.w3.org/2000/svg" xmlns:xlink="http://www.w3.org/1999/xlink">
<g id="graph0" class="graph" transform="scale(1 1) rotate(0) translate(4 251)">
<title>public.sale_sipost_taxdetail</title>
<polygon fill="#ffffff" stroke="transparent" points="-4,4 -4,-251 456,-251 456,4 -4,4"/>
<!-- public.sale_sipost_taxdetail -->
<g id="node1" class="node">
<title>public.sale_sipost_taxdetail</title>
<polygon fill="#efefef" stroke="transparent" points="46,-165.5 46,-200.5 406,-200.5 406,-165.5 46,-165.5"/>
<polygon fill="none" stroke="#000000" points="46,-165.5 46,-200.5 406,-200.5 406,-165.5 46,-165.5"/>
<text text-anchor="start" x="52.6887" y="-178.3" font-family="Arial Bold" font-size="18.00" fill="#000000">public.sale_sipost_taxdetail</text>
<text text-anchor="start" x="271.7433" y="-178.3" font-family="Arial" font-size="14.00" fill="#000000">    </text>
<text text-anchor="start" x="305.9481" y="-178.3" font-family="Arial" font-size="14.00" fill="#666666">[BASE TABLE]</text>
<polygon fill="none" stroke="#000000" points="46,-135.5 46,-165.5 406,-165.5 406,-135.5 46,-135.5"/>
<text text-anchor="start" x="53" y="-146.9" font-family="Arial" font-size="14.00" fill="#000000">sale_taxdetailid </text>
<text text-anchor="start" x="153.359" y="-146.9" font-family="Arial" font-size="14.00" fill="#666666">[integer]</text>
<polygon fill="none" stroke="#000000" points="46,-105.5 46,-135.5 406,-135.5 406,-105.5 46,-105.5"/>
<text text-anchor="start" x="53" y="-116.9" font-family="Arial" font-size="14.00" fill="#000000">invoiceid </text>
<text text-anchor="start" x="111.3408" y="-116.9" font-family="Arial" font-size="14.00" fill="#666666">[integer]</text>
<polygon fill="none" stroke="#000000" points="46,-75.5 46,-105.5 406,-105.5 406,-75.5 46,-75.5"/>
<text text-anchor="start" x="53" y="-86.9" font-family="Arial" font-size="14.00" fill="#000000">taxid </text>
<text text-anchor="start" x="86.453" y="-86.9" font-family="Arial" font-size="14.00" fill="#666666">[integer]</text>
<polygon fill="none" stroke="#000000" points="46,-45.5 46,-75.5 406,-75.5 406,-45.5 46,-45.5"/>
<text text-anchor="start" x="53" y="-56.9" font-family="Arial" font-size="14.00" fill="#000000">taxamount </text>
<text text-anchor="start" x="122.2454" y="-56.9" font-family="Arial" font-size="14.00" fill="#666666">[numeric(21,9)]</text>
<polygon fill="none" stroke="#000000" stroke-width="3" points="44.5,-44.5 44.5,-202.5 407.5,-202.5 407.5,-44.5 44.5,-44.5"/>
</g>
</g>
</svg>
