<?xml version="1.0" encoding="UTF-8" standalone="no"?>
<!DOCTYPE svg PUBLIC "-//W3C//DTD SVG 1.1//EN"
 "http://www.w3.org/Graphics/SVG/1.1/DTD/svg11.dtd">
<!-- Generated by graphviz version 2.40.1 (20161225.0304)
 -->
<!-- Title: public.intable Pages: 1 -->
<svg width="346pt" height="435pt"
 viewBox="0.00 0.00 346.00 435.00" xmlns="http://www.w3.org/2000/svg" xmlns:xlink="http://www.w3.org/1999/xlink">
<g id="graph0" class="graph" transform="scale(1 1) rotate(0) translate(4 431)">
<title>public.intable</title>
<polygon fill="#ffffff" stroke="transparent" points="-4,4 -4,-431 342,-431 342,4 -4,4"/>
<!-- public.intable -->
<g id="node1" class="node">
<title>public.intable</title>
<polygon fill="#efefef" stroke="transparent" points="46,-345.5 46,-380.5 292,-380.5 292,-345.5 46,-345.5"/>
<polygon fill="none" stroke="#000000" points="46,-345.5 46,-380.5 292,-380.5 292,-345.5 46,-345.5"/>
<text text-anchor="start" x="52.7037" y="-358.3" font-family="Arial Bold" font-size="18.00" fill="#000000">public.intable</text>
<text text-anchor="start" x="157.7283" y="-358.3" font-family="Arial" font-size="14.00" fill="#000000">    </text>
<text text-anchor="start" x="191.9331" y="-358.3" font-family="Arial" font-size="14.00" fill="#666666">[BASE TABLE]</text>
<polygon fill="none" stroke="#000000" points="46,-315.5 46,-345.5 292,-345.5 292,-315.5 46,-315.5"/>
<text text-anchor="start" x="53" y="-326.9" font-family="Arial" font-size="14.00" fill="#000000">tableid </text>
<text text-anchor="start" x="98.1248" y="-326.9" font-family="Arial" font-size="14.00" fill="#666666">[bigint]</text>
<polygon fill="none" stroke="#000000" points="46,-285.5 46,-315.5 292,-315.5 292,-285.5 46,-285.5"/>
<text text-anchor="start" x="53" y="-296.9" font-family="Arial" font-size="14.00" fill="#000000">entrydetailid </text>
<text text-anchor="start" x="132.3478" y="-296.9" font-family="Arial" font-size="14.00" fill="#666666">[integer]</text>
<polygon fill="none" stroke="#000000" points="46,-255.5 46,-285.5 292,-285.5 292,-255.5 46,-255.5"/>
<text text-anchor="start" x="53" y="-266.9" font-family="Arial" font-size="14.00" fill="#000000">stageid </text>
<text text-anchor="start" x="102.0182" y="-266.9" font-family="Arial" font-size="14.00" fill="#666666">[integer]</text>
<polygon fill="none" stroke="#000000" points="46,-225.5 46,-255.5 292,-255.5 292,-225.5 46,-225.5"/>
<text text-anchor="start" x="53" y="-236.9" font-family="Arial" font-size="14.00" fill="#000000">itemid </text>
<text text-anchor="start" x="94.2202" y="-236.9" font-family="Arial" font-size="14.00" fill="#666666">[integer]</text>
<polygon fill="none" stroke="#000000" points="46,-195.5 46,-225.5 292,-225.5 292,-195.5 46,-195.5"/>
<text text-anchor="start" x="53" y="-206.9" font-family="Arial" font-size="14.00" fill="#000000">type </text>
<text text-anchor="start" x="83.3464" y="-206.9" font-family="Arial" font-size="14.00" fill="#666666">[varchar(5)]</text>
<polygon fill="none" stroke="#000000" points="46,-165.5 46,-195.5 292,-195.5 292,-165.5 46,-165.5"/>
<text text-anchor="start" x="53" y="-176.9" font-family="Arial" font-size="14.00" fill="#000000">baseqty </text>
<text text-anchor="start" x="105.9116" y="-176.9" font-family="Arial" font-size="14.00" fill="#666666">[numeric(17,5)]</text>
<polygon fill="none" stroke="#000000" points="46,-135.5 46,-165.5 292,-165.5 292,-135.5 46,-135.5"/>
<text text-anchor="start" x="53" y="-146.9" font-family="Arial" font-size="14.00" fill="#000000">rate </text>
<text text-anchor="start" x="81.007" y="-146.9" font-family="Arial" font-size="14.00" fill="#666666">[numeric(17,5)]</text>
<polygon fill="none" stroke="#000000" points="46,-105.5 46,-135.5 292,-135.5 292,-105.5 46,-105.5"/>
<text text-anchor="start" x="53" y="-116.9" font-family="Arial" font-size="14.00" fill="#000000">tbname </text>
<text text-anchor="start" x="103.5722" y="-116.9" font-family="Arial" font-size="14.00" fill="#666666">[varchar(250)]</text>
<polygon fill="none" stroke="#000000" points="46,-75.5 46,-105.5 292,-105.5 292,-75.5 46,-75.5"/>
<text text-anchor="start" x="53" y="-86.9" font-family="Arial" font-size="14.00" fill="#000000">colname </text>
<text text-anchor="start" x="109.7882" y="-86.9" font-family="Arial" font-size="14.00" fill="#666666">[varchar(250)]</text>
<polygon fill="none" stroke="#000000" points="46,-45.5 46,-75.5 292,-75.5 292,-45.5 46,-45.5"/>
<text text-anchor="start" x="53" y="-56.9" font-family="Arial" font-size="14.00" fill="#000000">outqty </text>
<text text-anchor="start" x="95.0196" y="-56.9" font-family="Arial" font-size="14.00" fill="#666666">[numeric(17,5)]</text>
<polygon fill="none" stroke="#000000" stroke-width="3" points="44.5,-44.5 44.5,-382.5 293.5,-382.5 293.5,-44.5 44.5,-44.5"/>
</g>
</g>
</svg>
