<?xml version="1.0" encoding="UTF-8" standalone="no"?>
<!DOCTYPE svg PUBLIC "-//W3C//DTD SVG 1.1//EN"
 "http://www.w3.org/Graphics/SVG/1.1/DTD/svg11.dtd">
<!-- Generated by graphviz version 2.40.1 (20161225.0304)
 -->
<!-- Title: public.sale_secondarytransportationdetail Pages: 1 -->
<svg width="572pt" height="1065pt"
 viewBox="0.00 0.00 572.00 1065.00" xmlns="http://www.w3.org/2000/svg" xmlns:xlink="http://www.w3.org/1999/xlink">
<g id="graph0" class="graph" transform="scale(1 1) rotate(0) translate(4 1061)">
<title>public.sale_secondarytransportationdetail</title>
<polygon fill="#ffffff" stroke="transparent" points="-4,4 -4,-1061 568,-1061 568,4 -4,4"/>
<!-- public.sale_secondarytransportationdetail -->
<g id="node1" class="node">
<title>public.sale_secondarytransportationdetail</title>
<polygon fill="#efefef" stroke="transparent" points="46,-975.5 46,-1010.5 518,-1010.5 518,-975.5 46,-975.5"/>
<polygon fill="none" stroke="#000000" points="46,-975.5 46,-1010.5 518,-1010.5 518,-975.5 46,-975.5"/>
<text text-anchor="start" x="52.6745" y="-988.3" font-family="Arial Bold" font-size="18.00" fill="#000000">public.sale_secondarytransportationdetail</text>
<text text-anchor="start" x="383.7575" y="-988.3" font-family="Arial" font-size="14.00" fill="#000000">    </text>
<text text-anchor="start" x="417.9623" y="-988.3" font-family="Arial" font-size="14.00" fill="#666666">[BASE TABLE]</text>
<polygon fill="none" stroke="#000000" points="46,-945.5 46,-975.5 518,-975.5 518,-945.5 46,-945.5"/>
<text text-anchor="start" x="53" y="-956.9" font-family="Arial" font-size="14.00" fill="#000000">sectransid </text>
<text text-anchor="start" x="120.6788" y="-956.9" font-family="Arial" font-size="14.00" fill="#666666">[integer]</text>
<polygon fill="none" stroke="#000000" points="46,-915.5 46,-945.5 518,-945.5 518,-915.5 46,-915.5"/>
<text text-anchor="start" x="53" y="-926.9" font-family="Arial" font-size="14.00" fill="#000000">invoiceid </text>
<text text-anchor="start" x="111.3408" y="-926.9" font-family="Arial" font-size="14.00" fill="#666666">[integer]</text>
<polygon fill="none" stroke="#000000" points="46,-885.5 46,-915.5 518,-915.5 518,-885.5 46,-885.5"/>
<text text-anchor="start" x="53" y="-896.9" font-family="Arial" font-size="14.00" fill="#000000">voucherdate </text>
<text text-anchor="start" x="133.92" y="-896.9" font-family="Arial" font-size="14.00" fill="#666666">[date]</text>
<polygon fill="none" stroke="#000000" points="46,-855.5 46,-885.5 518,-885.5 518,-855.5 46,-855.5"/>
<text text-anchor="start" x="53" y="-866.9" font-family="Arial" font-size="14.00" fill="#000000">invoicedate </text>
<text text-anchor="start" x="127.69" y="-866.9" font-family="Arial" font-size="14.00" fill="#666666">[date]</text>
<polygon fill="none" stroke="#000000" points="46,-825.5 46,-855.5 518,-855.5 518,-825.5 46,-825.5"/>
<text text-anchor="start" x="53" y="-836.9" font-family="Arial" font-size="14.00" fill="#000000">vehicletype </text>
<text text-anchor="start" x="126.9074" y="-836.9" font-family="Arial" font-size="14.00" fill="#666666">[integer]</text>
<polygon fill="none" stroke="#000000" points="46,-795.5 46,-825.5 518,-825.5 518,-795.5 46,-795.5"/>
<text text-anchor="start" x="53" y="-806.9" font-family="Arial" font-size="14.00" fill="#000000">transportername </text>
<text text-anchor="start" x="159.575" y="-806.9" font-family="Arial" font-size="14.00" fill="#666666">[text]</text>
<polygon fill="none" stroke="#000000" points="46,-765.5 46,-795.5 518,-795.5 518,-765.5 46,-765.5"/>
<text text-anchor="start" x="53" y="-776.9" font-family="Arial" font-size="14.00" fill="#000000">vehicleno </text>
<text text-anchor="start" x="116.0168" y="-776.9" font-family="Arial" font-size="14.00" fill="#666666">[text]</text>
<polygon fill="none" stroke="#000000" points="46,-735.5 46,-765.5 518,-765.5 518,-735.5 46,-735.5"/>
<text text-anchor="start" x="53" y="-746.9" font-family="Arial" font-size="14.00" fill="#000000">dealername </text>
<text text-anchor="start" x="130.7966" y="-746.9" font-family="Arial" font-size="14.00" fill="#666666">[text]</text>
<polygon fill="none" stroke="#000000" points="46,-705.5 46,-735.5 518,-735.5 518,-705.5 46,-705.5"/>
<text text-anchor="start" x="53" y="-716.9" font-family="Arial" font-size="14.00" fill="#000000">invoiceno </text>
<text text-anchor="start" x="116.0168" y="-716.9" font-family="Arial" font-size="14.00" fill="#666666">[text]</text>
<polygon fill="none" stroke="#000000" points="46,-675.5 46,-705.5 518,-705.5 518,-675.5 46,-675.5"/>
<text text-anchor="start" x="53" y="-686.9" font-family="Arial" font-size="14.00" fill="#000000">dispatchdate </text>
<text text-anchor="start" x="136.2566" y="-686.9" font-family="Arial" font-size="14.00" fill="#666666">[date]</text>
<polygon fill="none" stroke="#000000" points="46,-645.5 46,-675.5 518,-675.5 518,-645.5 46,-645.5"/>
<text text-anchor="start" x="53" y="-656.9" font-family="Arial" font-size="14.00" fill="#000000">dispatchlocation </text>
<text text-anchor="start" x="157.2524" y="-656.9" font-family="Arial" font-size="14.00" fill="#666666">[text]</text>
<polygon fill="none" stroke="#000000" points="46,-615.5 46,-645.5 518,-645.5 518,-615.5 46,-615.5"/>
<text text-anchor="start" x="53" y="-626.9" font-family="Arial" font-size="14.00" fill="#000000">dispatchpin </text>
<text text-anchor="start" x="127.69" y="-626.9" font-family="Arial" font-size="14.00" fill="#666666">[text]</text>
<polygon fill="none" stroke="#000000" points="46,-585.5 46,-615.5 518,-615.5 518,-585.5 46,-585.5"/>
<text text-anchor="start" x="53" y="-596.9" font-family="Arial" font-size="14.00" fill="#000000">approxkm </text>
<text text-anchor="start" x="118.3422" y="-596.9" font-family="Arial" font-size="14.00" fill="#666666">[numeric(15,5)]</text>
<polygon fill="none" stroke="#000000" points="46,-555.5 46,-585.5 518,-585.5 518,-555.5 46,-555.5"/>
<text text-anchor="start" x="53" y="-566.9" font-family="Arial" font-size="14.00" fill="#000000">invoiceqty </text>
<text text-anchor="start" x="119.1248" y="-566.9" font-family="Arial" font-size="14.00" fill="#666666">[numeric(15,5)]</text>
<polygon fill="none" stroke="#000000" points="46,-525.5 46,-555.5 518,-555.5 518,-525.5 46,-525.5"/>
<text text-anchor="start" x="53" y="-536.9" font-family="Arial" font-size="14.00" fill="#000000">invoicevolinltr </text>
<text text-anchor="start" x="140.8878" y="-536.9" font-family="Arial" font-size="14.00" fill="#666666">[numeric(15,5)]</text>
<polygon fill="none" stroke="#000000" points="46,-495.5 46,-525.5 518,-525.5 518,-495.5 46,-495.5"/>
<text text-anchor="start" x="53" y="-506.9" font-family="Arial" font-size="14.00" fill="#000000">invoicevolinkg </text>
<text text-anchor="start" x="144.0126" y="-506.9" font-family="Arial" font-size="14.00" fill="#666666">[numeric(15,5)]</text>
<polygon fill="none" stroke="#000000" points="46,-465.5 46,-495.5 518,-495.5 518,-465.5 46,-465.5"/>
<text text-anchor="start" x="53" y="-476.9" font-family="Arial" font-size="14.00" fill="#000000">invoicevoltotal </text>
<text text-anchor="start" x="144.7938" y="-476.9" font-family="Arial" font-size="14.00" fill="#666666">[numeric(15,5)]</text>
<polygon fill="none" stroke="#000000" points="46,-435.5 46,-465.5 518,-465.5 518,-435.5 46,-435.5"/>
<text text-anchor="start" x="53" y="-446.9" font-family="Arial" font-size="14.00" fill="#000000">freightamount </text>
<text text-anchor="start" x="142.4684" y="-446.9" font-family="Arial" font-size="14.00" fill="#666666">[numeric(15,5)]</text>
<polygon fill="none" stroke="#000000" points="46,-405.5 46,-435.5 518,-435.5 518,-405.5 46,-405.5"/>
<text text-anchor="start" x="53" y="-416.9" font-family="Arial" font-size="14.00" fill="#000000">perkgfreight </text>
<text text-anchor="start" x="130.7952" y="-416.9" font-family="Arial" font-size="14.00" fill="#666666">[numeric(15,5)]</text>
<polygon fill="none" stroke="#000000" points="46,-375.5 46,-405.5 518,-405.5 518,-375.5 46,-375.5"/>
<text text-anchor="start" x="53" y="-386.9" font-family="Arial" font-size="14.00" fill="#000000">localupcountry </text>
<text text-anchor="start" x="147.1332" y="-386.9" font-family="Arial" font-size="14.00" fill="#666666">[integer]</text>
<polygon fill="none" stroke="#000000" points="46,-345.5 46,-375.5 518,-375.5 518,-345.5 46,-345.5"/>
<text text-anchor="start" x="53" y="-356.9" font-family="Arial" font-size="14.00" fill="#000000">podonkccl </text>
<text text-anchor="start" x="119.9102" y="-356.9" font-family="Arial" font-size="14.00" fill="#666666">[boolean]</text>
<polygon fill="none" stroke="#000000" points="46,-315.5 46,-345.5 518,-345.5 518,-315.5 46,-315.5"/>
<text text-anchor="start" x="53" y="-326.9" font-family="Arial" font-size="14.00" fill="#000000">remarks </text>
<text text-anchor="start" x="107.4376" y="-326.9" font-family="Arial" font-size="14.00" fill="#666666">[text]</text>
<polygon fill="none" stroke="#000000" points="46,-285.5 46,-315.5 518,-315.5 518,-285.5 46,-285.5"/>
<text text-anchor="start" x="53" y="-296.9" font-family="Arial" font-size="14.00" fill="#000000">branchid </text>
<text text-anchor="start" x="110.5708" y="-296.9" font-family="Arial" font-size="14.00" fill="#666666">[integer]</text>
<polygon fill="none" stroke="#000000" points="46,-255.5 46,-285.5 518,-285.5 518,-255.5 46,-255.5"/>
<text text-anchor="start" x="53" y="-266.9" font-family="Arial" font-size="14.00" fill="#000000">lrno </text>
<text text-anchor="start" x="80.223" y="-266.9" font-family="Arial" font-size="14.00" fill="#666666">[text]</text>
<polygon fill="none" stroke="#000000" points="46,-225.5 46,-255.5 518,-255.5 518,-225.5 46,-225.5"/>
<text text-anchor="start" x="53" y="-236.9" font-family="Arial" font-size="14.00" fill="#000000">lrdate </text>
<text text-anchor="start" x="91.8962" y="-236.9" font-family="Arial" font-size="14.00" fill="#666666">[date]</text>
<polygon fill="none" stroke="#000000" points="46,-195.5 46,-225.5 518,-225.5 518,-195.5 46,-195.5"/>
<text text-anchor="start" x="53" y="-206.9" font-family="Arial" font-size="14.00" fill="#000000">extransportername </text>
<text text-anchor="start" x="174.3576" y="-206.9" font-family="Arial" font-size="14.00" fill="#666666">[text]</text>
<polygon fill="none" stroke="#000000" points="46,-165.5 46,-195.5 518,-195.5 518,-165.5 46,-165.5"/>
<text text-anchor="start" x="53" y="-176.9" font-family="Arial" font-size="14.00" fill="#000000">exportfreightamount </text>
<text text-anchor="start" x="181.3674" y="-176.9" font-family="Arial" font-size="14.00" fill="#666666">[numeric(15,5)]</text>
<polygon fill="none" stroke="#000000" points="46,-135.5 46,-165.5 518,-165.5 518,-135.5 46,-135.5"/>
<text text-anchor="start" x="53" y="-146.9" font-family="Arial" font-size="14.00" fill="#000000">exporttotalfreightamount </text>
<text text-anchor="start" x="207.8204" y="-146.9" font-family="Arial" font-size="14.00" fill="#666666">[numeric(15,5)]</text>
<polygon fill="none" stroke="#000000" points="46,-105.5 46,-135.5 518,-135.5 518,-105.5 46,-105.5"/>
<text text-anchor="start" x="53" y="-116.9" font-family="Arial" font-size="14.00" fill="#000000">ewaybillno </text>
<text text-anchor="start" x="122.23" y="-116.9" font-family="Arial" font-size="14.00" fill="#666666">[text]</text>
<polygon fill="none" stroke="#000000" points="46,-75.5 46,-105.5 518,-105.5 518,-75.5 46,-75.5"/>
<text text-anchor="start" x="53" y="-86.9" font-family="Arial" font-size="14.00" fill="#000000">ewaybilldate </text>
<text text-anchor="start" x="133.9032" y="-86.9" font-family="Arial" font-size="14.00" fill="#666666">[date]</text>
<polygon fill="none" stroke="#000000" points="46,-45.5 46,-75.5 518,-75.5 518,-45.5 46,-45.5"/>
<text text-anchor="start" x="53" y="-56.9" font-family="Arial" font-size="14.00" fill="#000000">convertedltrinkg </text>
<text text-anchor="start" x="155.6844" y="-56.9" font-family="Arial" font-size="14.00" fill="#666666">[text]</text>
<polygon fill="none" stroke="#000000" stroke-width="3" points="44.5,-44.5 44.5,-1012.5 519.5,-1012.5 519.5,-44.5 44.5,-44.5"/>
</g>
</g>
</svg>
