<?xml version="1.0" encoding="UTF-8" standalone="no"?>
<!DOCTYPE svg PUBLIC "-//W3C//DTD SVG 1.1//EN"
 "http://www.w3.org/Graphics/SVG/1.1/DTD/svg11.dtd">
<!-- Generated by graphviz version 2.40.1 (20161225.0304)
 -->
<!-- Title: public.tmp_item_stock_branch_all Pages: 1 -->
<svg width="512pt" height="315pt"
 viewBox="0.00 0.00 512.00 315.00" xmlns="http://www.w3.org/2000/svg" xmlns:xlink="http://www.w3.org/1999/xlink">
<g id="graph0" class="graph" transform="scale(1 1) rotate(0) translate(4 311)">
<title>public.tmp_item_stock_branch_all</title>
<polygon fill="#ffffff" stroke="transparent" points="-4,4 -4,-311 508,-311 508,4 -4,4"/>
<!-- public.tmp_item_stock_branch_all -->
<g id="node1" class="node">
<title>public.tmp_item_stock_branch_all</title>
<polygon fill="#efefef" stroke="transparent" points="46,-225.5 46,-260.5 458,-260.5 458,-225.5 46,-225.5"/>
<polygon fill="none" stroke="#000000" points="46,-225.5 46,-260.5 458,-260.5 458,-225.5 46,-225.5"/>
<text text-anchor="start" x="52.6913" y="-238.3" font-family="Arial Bold" font-size="18.00" fill="#000000">public.tmp_item_stock_branch_all</text>
<text text-anchor="start" x="323.7407" y="-238.3" font-family="Arial" font-size="14.00" fill="#000000">    </text>
<text text-anchor="start" x="357.9455" y="-238.3" font-family="Arial" font-size="14.00" fill="#666666">[BASE TABLE]</text>
<polygon fill="none" stroke="#000000" points="46,-195.5 46,-225.5 458,-225.5 458,-195.5 46,-195.5"/>
<text text-anchor="start" x="53" y="-206.9" font-family="Arial" font-size="14.00" fill="#000000">storeid </text>
<text text-anchor="start" x="98.8962" y="-206.9" font-family="Arial" font-size="14.00" fill="#666666">[integer]</text>
<polygon fill="none" stroke="#000000" points="46,-165.5 46,-195.5 458,-195.5 458,-165.5 46,-165.5"/>
<text text-anchor="start" x="53" y="-176.9" font-family="Arial" font-size="14.00" fill="#000000">itemid </text>
<text text-anchor="start" x="94.2202" y="-176.9" font-family="Arial" font-size="14.00" fill="#666666">[integer]</text>
<polygon fill="none" stroke="#000000" points="46,-135.5 46,-165.5 458,-165.5 458,-135.5 46,-135.5"/>
<text text-anchor="start" x="53" y="-146.9" font-family="Arial" font-size="14.00" fill="#000000">storebaseqty </text>
<text text-anchor="start" x="137.028" y="-146.9" font-family="Arial" font-size="14.00" fill="#666666">[numeric(15,5)]</text>
<polygon fill="none" stroke="#000000" points="46,-105.5 46,-135.5 458,-135.5 458,-105.5 46,-105.5"/>
<text text-anchor="start" x="53" y="-116.9" font-family="Arial" font-size="14.00" fill="#000000">storealtqty </text>
<text text-anchor="start" x="121.46" y="-116.9" font-family="Arial" font-size="14.00" fill="#666666">[numeric(15,5)]</text>
<polygon fill="none" stroke="#000000" points="46,-75.5 46,-105.5 458,-105.5 458,-75.5 46,-75.5"/>
<text text-anchor="start" x="53" y="-86.9" font-family="Arial" font-size="14.00" fill="#000000">storename </text>
<text text-anchor="start" x="123.0154" y="-86.9" font-family="Arial" font-size="14.00" fill="#666666">[varchar(50)]</text>
<polygon fill="none" stroke="#000000" points="46,-45.5 46,-75.5 458,-75.5 458,-45.5 46,-45.5"/>
<text text-anchor="start" x="53" y="-56.9" font-family="Arial" font-size="14.00" fill="#000000">branchid </text>
<text text-anchor="start" x="110.5708" y="-56.9" font-family="Arial" font-size="14.00" fill="#666666">[integer]</text>
<polygon fill="none" stroke="#000000" stroke-width="3" points="44.5,-44.5 44.5,-262.5 459.5,-262.5 459.5,-44.5 44.5,-44.5"/>
</g>
</g>
</svg>
