<?xml version="1.0" encoding="UTF-8" standalone="no"?>
<!DOCTYPE svg PUBLIC "-//W3C//DTD SVG 1.1//EN"
 "http://www.w3.org/Graphics/SVG/1.1/DTD/svg11.dtd">
<!-- Generated by graphviz version 2.40.1 (20161225.0304)
 -->
<!-- Title: public.prod_productionmaster Pages: 1 -->
<svg width="740pt" height="3112pt"
 viewBox="0.00 0.00 740.00 3112.00" xmlns="http://www.w3.org/2000/svg" xmlns:xlink="http://www.w3.org/1999/xlink">
<g id="graph0" class="graph" transform="scale(1 1) rotate(0) translate(4 3108)">
<title>public.prod_productionmaster</title>
<polygon fill="#ffffff" stroke="transparent" points="-4,4 -4,-3108 736,-3108 736,4 -4,4"/>
<!-- public.prod_productionmaster -->
<g id="node1" class="node">
<title>public.prod_productionmaster</title>
<polygon fill="#efefef" stroke="transparent" points="46,-3022.5 46,-3057.5 424,-3057.5 424,-3022.5 46,-3022.5"/>
<polygon fill="none" stroke="#000000" points="46,-3022.5 46,-3057.5 424,-3057.5 424,-3022.5 46,-3022.5"/>
<text text-anchor="start" x="52.6905" y="-3035.3" font-family="Arial Bold" font-size="18.00" fill="#000000">public.prod_productionmaster</text>
<text text-anchor="start" x="289.7415" y="-3035.3" font-family="Arial" font-size="14.00" fill="#000000">    </text>
<text text-anchor="start" x="323.9463" y="-3035.3" font-family="Arial" font-size="14.00" fill="#666666">[BASE TABLE]</text>
<polygon fill="none" stroke="#000000" points="46,-2992.5 46,-3022.5 424,-3022.5 424,-2992.5 46,-2992.5"/>
<text text-anchor="start" x="53" y="-3003.9" font-family="Arial" font-size="14.00" fill="#000000">productionid </text>
<text text-anchor="start" x="133.1332" y="-3003.9" font-family="Arial" font-size="14.00" fill="#666666">[integer]</text>
<polygon fill="none" stroke="#000000" points="46,-2962.5 46,-2992.5 424,-2992.5 424,-2962.5 46,-2962.5"/>
<text text-anchor="start" x="53" y="-2973.9" font-family="Arial" font-size="14.00" fill="#000000">productiondate </text>
<text text-anchor="start" x="149.4824" y="-2973.9" font-family="Arial" font-size="14.00" fill="#666666">[date]</text>
<polygon fill="none" stroke="#000000" points="46,-2932.5 46,-2962.5 424,-2962.5 424,-2932.5 46,-2932.5"/>
<text text-anchor="start" x="53" y="-2943.9" font-family="Arial" font-size="14.00" fill="#000000">branchid </text>
<text text-anchor="start" x="110.5708" y="-2943.9" font-family="Arial" font-size="14.00" fill="#666666">[integer]</text>
<polygon fill="none" stroke="#000000" points="46,-2902.5 46,-2932.5 424,-2932.5 424,-2902.5 46,-2902.5"/>
<text text-anchor="start" x="53" y="-2913.9" font-family="Arial" font-size="14.00" fill="#000000">stageid </text>
<text text-anchor="start" x="102.0182" y="-2913.9" font-family="Arial" font-size="14.00" fill="#666666">[integer]</text>
<polygon fill="none" stroke="#000000" points="46,-2872.5 46,-2902.5 424,-2902.5 424,-2872.5 46,-2872.5"/>
<text text-anchor="start" x="53" y="-2883.9" font-family="Arial" font-size="14.00" fill="#000000">requisitionid </text>
<text text-anchor="start" x="131.5638" y="-2883.9" font-family="Arial" font-size="14.00" fill="#666666">[integer]</text>
<polygon fill="none" stroke="#000000" points="46,-2842.5 46,-2872.5 424,-2872.5 424,-2842.5 46,-2842.5"/>
<text text-anchor="start" x="53" y="-2853.9" font-family="Arial" font-size="14.00" fill="#000000">createdby </text>
<text text-anchor="start" x="118.3548" y="-2853.9" font-family="Arial" font-size="14.00" fill="#666666">[integer]</text>
<polygon fill="none" stroke="#000000" points="46,-2812.5 46,-2842.5 424,-2842.5 424,-2812.5 46,-2812.5"/>
<text text-anchor="start" x="53" y="-2823.9" font-family="Arial" font-size="14.00" fill="#000000">shiftid </text>
<text text-anchor="start" x="93.4502" y="-2823.9" font-family="Arial" font-size="14.00" fill="#666666">[integer]</text>
<polygon fill="none" stroke="#000000" points="46,-2782.5 46,-2812.5 424,-2812.5 424,-2782.5 46,-2782.5"/>
<text text-anchor="start" x="53" y="-2793.9" font-family="Arial" font-size="14.00" fill="#000000">productionno </text>
<text text-anchor="start" x="137.8092" y="-2793.9" font-family="Arial" font-size="14.00" fill="#666666">[varchar(50)]</text>
<polygon fill="none" stroke="#000000" points="46,-2752.5 46,-2782.5 424,-2782.5 424,-2752.5 46,-2752.5"/>
<text text-anchor="start" x="53" y="-2763.9" font-family="Arial" font-size="14.00" fill="#000000">machineid </text>
<text text-anchor="start" x="120.6774" y="-2763.9" font-family="Arial" font-size="14.00" fill="#666666">[integer]</text>
<polygon fill="none" stroke="#000000" points="46,-2722.5 46,-2752.5 424,-2752.5 424,-2722.5 46,-2722.5"/>
<text text-anchor="start" x="53" y="-2733.9" font-family="Arial" font-size="14.00" fill="#000000">producedby </text>
<text text-anchor="start" x="130.0294" y="-2733.9" font-family="Arial" font-size="14.00" fill="#666666">[integer]</text>
<polygon fill="none" stroke="#000000" points="46,-2692.5 46,-2722.5 424,-2722.5 424,-2692.5 46,-2692.5"/>
<text text-anchor="start" x="53" y="-2703.9" font-family="Arial" font-size="14.00" fill="#000000">seriesno </text>
<text text-anchor="start" x="109.7882" y="-2703.9" font-family="Arial" font-size="14.00" fill="#666666">[integer]</text>
<polygon fill="none" stroke="#000000" points="46,-2662.5 46,-2692.5 424,-2692.5 424,-2662.5 46,-2662.5"/>
<text text-anchor="start" x="53" y="-2673.9" font-family="Arial" font-size="14.00" fill="#000000">seriescode </text>
<text text-anchor="start" x="124.5708" y="-2673.9" font-family="Arial" font-size="14.00" fill="#666666">[varchar(50)]</text>
<polygon fill="none" stroke="#000000" points="46,-2632.5 46,-2662.5 424,-2662.5 424,-2632.5 46,-2632.5"/>
<text text-anchor="start" x="53" y="-2643.9" font-family="Arial" font-size="14.00" fill="#000000">createdon </text>
<text text-anchor="start" x="119.1374" y="-2643.9" font-family="Arial" font-size="14.00" fill="#666666">[timestamp(6) without time zone]</text>
<polygon fill="none" stroke="#000000" points="46,-2602.5 46,-2632.5 424,-2632.5 424,-2602.5 46,-2602.5"/>
<text text-anchor="start" x="53" y="-2613.9" font-family="Arial" font-size="14.00" fill="#000000">destinationstageid </text>
<text text-anchor="start" x="169.7082" y="-2613.9" font-family="Arial" font-size="14.00" fill="#666666">[integer]</text>
<polygon fill="none" stroke="#000000" points="46,-2572.5 46,-2602.5 424,-2602.5 424,-2572.5 46,-2572.5"/>
<text text-anchor="start" x="53" y="-2583.9" font-family="Arial" font-size="14.00" fill="#000000">nextstep </text>
<text text-anchor="start" x="109.8022" y="-2583.9" font-family="Arial" font-size="14.00" fill="#666666">[smallint]</text>
<polygon fill="none" stroke="#000000" points="46,-2542.5 46,-2572.5 424,-2572.5 424,-2542.5 46,-2542.5"/>
<text text-anchor="start" x="53" y="-2553.9" font-family="Arial" font-size="14.00" fill="#000000">isauthorized </text>
<text text-anchor="start" x="132.3506" y="-2553.9" font-family="Arial" font-size="14.00" fill="#666666">[boolean]</text>
<polygon fill="none" stroke="#000000" points="46,-2512.5 46,-2542.5 424,-2542.5 424,-2512.5 46,-2512.5"/>
<text text-anchor="start" x="53" y="-2523.9" font-family="Arial" font-size="14.00" fill="#000000">authorizedby </text>
<text text-anchor="start" x="137.0266" y="-2523.9" font-family="Arial" font-size="14.00" fill="#666666">[integer]</text>
<polygon fill="none" stroke="#000000" points="46,-2482.5 46,-2512.5 424,-2512.5 424,-2482.5 46,-2482.5"/>
<text text-anchor="start" x="53" y="-2493.9" font-family="Arial" font-size="14.00" fill="#000000">authorizedon </text>
<text text-anchor="start" x="137.8092" y="-2493.9" font-family="Arial" font-size="14.00" fill="#666666">[timestamp without time zone]</text>
<polygon fill="none" stroke="#000000" points="46,-2452.5 46,-2482.5 424,-2482.5 424,-2452.5 46,-2452.5"/>
<text text-anchor="start" x="53" y="-2463.9" font-family="Arial" font-size="14.00" fill="#000000">iscancelled </text>
<text text-anchor="start" x="126.1234" y="-2463.9" font-family="Arial" font-size="14.00" fill="#666666">[boolean]</text>
<polygon fill="none" stroke="#000000" points="46,-2422.5 46,-2452.5 424,-2452.5 424,-2422.5 46,-2422.5"/>
<text text-anchor="start" x="53" y="-2433.9" font-family="Arial" font-size="14.00" fill="#000000">ismovetostore </text>
<text text-anchor="start" x="144.0126" y="-2433.9" font-family="Arial" font-size="14.00" fill="#666666">[boolean]</text>
<polygon fill="none" stroke="#000000" points="46,-2392.5 46,-2422.5 424,-2422.5 424,-2392.5 46,-2392.5"/>
<text text-anchor="start" x="53" y="-2403.9" font-family="Arial" font-size="14.00" fill="#000000">editlog </text>
<text text-anchor="start" x="98.1248" y="-2403.9" font-family="Arial" font-size="14.00" fill="#666666">[text]</text>
<polygon fill="none" stroke="#000000" points="46,-2362.5 46,-2392.5 424,-2392.5 424,-2362.5 46,-2362.5"/>
<text text-anchor="start" x="53" y="-2373.9" font-family="Arial" font-size="14.00" fill="#000000">seriesid </text>
<text text-anchor="start" x="105.1122" y="-2373.9" font-family="Arial" font-size="14.00" fill="#666666">[integer]</text>
<polygon fill="none" stroke="#000000" points="46,-2332.5 46,-2362.5 424,-2362.5 424,-2332.5 46,-2332.5"/>
<text text-anchor="start" x="53" y="-2343.9" font-family="Arial" font-size="14.00" fill="#000000">headauthorizedby </text>
<text text-anchor="start" x="168.157" y="-2343.9" font-family="Arial" font-size="14.00" fill="#666666">[integer]</text>
<polygon fill="none" stroke="#000000" points="46,-2302.5 46,-2332.5 424,-2332.5 424,-2302.5 46,-2302.5"/>
<text text-anchor="start" x="53" y="-2313.9" font-family="Arial" font-size="14.00" fill="#000000">headauthorizedon </text>
<text text-anchor="start" x="168.9396" y="-2313.9" font-family="Arial" font-size="14.00" fill="#666666">[timestamp without time zone]</text>
<polygon fill="none" stroke="#000000" points="46,-2272.5 46,-2302.5 424,-2302.5 424,-2272.5 46,-2272.5"/>
<text text-anchor="start" x="53" y="-2283.9" font-family="Arial" font-size="14.00" fill="#000000">cancellationreason </text>
<text text-anchor="start" x="173.5876" y="-2283.9" font-family="Arial" font-size="14.00" fill="#666666">[text]</text>
<polygon fill="none" stroke="#000000" points="46,-2242.5 46,-2272.5 424,-2272.5 424,-2242.5 46,-2242.5"/>
<text text-anchor="start" x="53" y="-2253.9" font-family="Arial" font-size="14.00" fill="#000000">batchcardid </text>
<text text-anchor="start" x="129.244" y="-2253.9" font-family="Arial" font-size="14.00" fill="#666666">[integer]</text>
<polygon fill="none" stroke="#000000" points="46,-2212.5 46,-2242.5 424,-2242.5 424,-2212.5 46,-2212.5"/>
<text text-anchor="start" x="53" y="-2223.9" font-family="Arial" font-size="14.00" fill="#000000">seriesvouchertype </text>
<text text-anchor="start" x="170.4698" y="-2223.9" font-family="Arial" font-size="14.00" fill="#666666">[integer]</text>
<polygon fill="none" stroke="#000000" points="46,-2182.5 46,-2212.5 424,-2212.5 424,-2182.5 46,-2182.5"/>
<text text-anchor="start" x="53" y="-2193.9" font-family="Arial" font-size="14.00" fill="#000000">cancelledby </text>
<text text-anchor="start" x="130.7994" y="-2193.9" font-family="Arial" font-size="14.00" fill="#666666">[integer]</text>
<polygon fill="none" stroke="#000000" points="46,-2152.5 46,-2182.5 424,-2182.5 424,-2152.5 46,-2152.5"/>
<text text-anchor="start" x="53" y="-2163.9" font-family="Arial" font-size="14.00" fill="#000000">workorderid </text>
<text text-anchor="start" x="129.9986" y="-2163.9" font-family="Arial" font-size="14.00" fill="#666666">[integer]</text>
<polygon fill="none" stroke="#000000" points="46,-2122.5 46,-2152.5 424,-2152.5 424,-2122.5 46,-2122.5"/>
<text text-anchor="start" x="53" y="-2133.9" font-family="Arial" font-size="14.00" fill="#000000">productiontype </text>
<text text-anchor="start" x="148.6998" y="-2133.9" font-family="Arial" font-size="14.00" fill="#666666">[integer]</text>
<polygon fill="none" stroke="#000000" points="46,-2092.5 46,-2122.5 424,-2122.5 424,-2092.5 46,-2092.5"/>
<text text-anchor="start" x="53" y="-2103.9" font-family="Arial" font-size="14.00" fill="#000000">isdisallowinspectionatqi </text>
<text text-anchor="start" x="202.3506" y="-2103.9" font-family="Arial" font-size="14.00" fill="#666666">[boolean]</text>
<polygon fill="none" stroke="#000000" points="46,-2062.5 46,-2092.5 424,-2092.5 424,-2062.5 46,-2062.5"/>
<text text-anchor="start" x="53" y="-2073.9" font-family="Arial" font-size="14.00" fill="#000000">isinspectioncompleted </text>
<text text-anchor="start" x="194.5848" y="-2073.9" font-family="Arial" font-size="14.00" fill="#666666">[boolean]</text>
<polygon fill="none" stroke="#000000" points="46,-2032.5 46,-2062.5 424,-2062.5 424,-2032.5 46,-2032.5"/>
<text text-anchor="start" x="53" y="-2043.9" font-family="Arial" font-size="14.00" fill="#000000">before_qi_ismovetostore </text>
<text text-anchor="start" x="210.1486" y="-2043.9" font-family="Arial" font-size="14.00" fill="#666666">[boolean]</text>
<polygon fill="none" stroke="#000000" points="46,-2002.5 46,-2032.5 424,-2032.5 424,-2002.5 46,-2002.5"/>
<text text-anchor="start" x="53" y="-2013.9" font-family="Arial" font-size="14.00" fill="#000000">before_qi_destinationstageid </text>
<text text-anchor="start" x="235.8442" y="-2013.9" font-family="Arial" font-size="14.00" fill="#666666">[integer]</text>
<polygon fill="none" stroke="#000000" points="46,-1972.5 46,-2002.5 424,-2002.5 424,-1972.5 46,-1972.5"/>
<text text-anchor="start" x="53" y="-1983.9" font-family="Arial" font-size="14.00" fill="#000000">isautofromnthlevel </text>
<text text-anchor="start" x="170.4642" y="-1983.9" font-family="Arial" font-size="14.00" fill="#666666">[boolean]</text>
<polygon fill="none" stroke="#000000" points="46,-1942.5 46,-1972.5 424,-1972.5 424,-1942.5 46,-1942.5"/>
<text text-anchor="start" x="53" y="-1953.9" font-family="Arial" font-size="14.00" fill="#000000">againstfgproductionid </text>
<text text-anchor="start" x="189.934" y="-1953.9" font-family="Arial" font-size="14.00" fill="#666666">[integer]</text>
<polygon fill="none" stroke="#000000" points="46,-1912.5 46,-1942.5 424,-1942.5 424,-1912.5 46,-1912.5"/>
<text text-anchor="start" x="53" y="-1923.9" font-family="Arial" font-size="14.00" fill="#000000">isauthorizedfromactivity </text>
<text text-anchor="start" x="203.122" y="-1923.9" font-family="Arial" font-size="14.00" fill="#666666">[boolean]</text>
<polygon fill="none" stroke="#000000" points="46,-1882.5 46,-1912.5 424,-1912.5 424,-1882.5 46,-1882.5"/>
<text text-anchor="start" x="53" y="-1893.9" font-family="Arial" font-size="14.00" fill="#000000">remarks </text>
<text text-anchor="start" x="107.4376" y="-1893.9" font-family="Arial" font-size="14.00" fill="#666666">[text]</text>
<polygon fill="none" stroke="#000000" points="46,-1852.5 46,-1882.5 424,-1882.5 424,-1852.5 46,-1852.5"/>
<text text-anchor="start" x="53" y="-1863.9" font-family="Arial" font-size="14.00" fill="#000000">sorefid </text>
<text text-anchor="start" x="98.8962" y="-1863.9" font-family="Arial" font-size="14.00" fill="#666666">[integer]</text>
<polygon fill="none" stroke="#000000" points="46,-1822.5 46,-1852.5 424,-1852.5 424,-1822.5 46,-1822.5"/>
<text text-anchor="start" x="53" y="-1833.9" font-family="Arial" font-size="14.00" fill="#000000">lastedittime </text>
<text text-anchor="start" x="127.6732" y="-1833.9" font-family="Arial" font-size="14.00" fill="#666666">[timestamp without time zone]</text>
<polygon fill="none" stroke="#000000" points="46,-1792.5 46,-1822.5 424,-1822.5 424,-1792.5 46,-1792.5"/>
<text text-anchor="start" x="53" y="-1803.9" font-family="Arial" font-size="14.00" fill="#000000">starttime </text>
<text text-anchor="start" x="110.5554" y="-1803.9" font-family="Arial" font-size="14.00" fill="#666666">[timestamp without time zone]</text>
<polygon fill="none" stroke="#000000" points="46,-1762.5 46,-1792.5 424,-1792.5 424,-1762.5 46,-1762.5"/>
<text text-anchor="start" x="53" y="-1773.9" font-family="Arial" font-size="14.00" fill="#000000">endtime </text>
<text text-anchor="start" x="106.6788" y="-1773.9" font-family="Arial" font-size="14.00" fill="#666666">[timestamp without time zone]</text>
<polygon fill="none" stroke="#000000" points="46,-1732.5 46,-1762.5 424,-1762.5 424,-1732.5 46,-1732.5"/>
<text text-anchor="start" x="53" y="-1743.9" font-family="Arial" font-size="14.00" fill="#000000">formid </text>
<text text-anchor="start" x="95.7742" y="-1743.9" font-family="Arial" font-size="14.00" fill="#666666">[integer]</text>
<polygon fill="none" stroke="#000000" points="46,-1702.5 46,-1732.5 424,-1732.5 424,-1702.5 46,-1702.5"/>
<text text-anchor="start" x="53" y="-1713.9" font-family="Arial" font-size="14.00" fill="#000000">tailorid </text>
<text text-anchor="start" x="98.1094" y="-1713.9" font-family="Arial" font-size="14.00" fill="#666666">[integer]</text>
<polygon fill="none" stroke="#000000" points="46,-1672.5 46,-1702.5 424,-1702.5 424,-1672.5 46,-1672.5"/>
<text text-anchor="start" x="53" y="-1683.9" font-family="Arial" font-size="14.00" fill="#000000">isincludedinbcstock </text>
<text text-anchor="start" x="177.4684" y="-1683.9" font-family="Arial" font-size="14.00" fill="#666666">[boolean]</text>
<polygon fill="none" stroke="#000000" points="46,-1642.5 46,-1672.5 424,-1672.5 424,-1642.5 46,-1642.5"/>
<text text-anchor="start" x="53" y="-1653.9" font-family="Arial" font-size="14.00" fill="#000000">updatedby </text>
<text text-anchor="start" x="122.2594" y="-1653.9" font-family="Arial" font-size="14.00" fill="#666666">[integer]</text>
<polygon fill="none" stroke="#000000" points="46,-1612.5 46,-1642.5 424,-1642.5 424,-1612.5 46,-1612.5"/>
<text text-anchor="start" x="53" y="-1623.9" font-family="Arial" font-size="14.00" fill="#000000">updatedon </text>
<text text-anchor="start" x="123.042" y="-1623.9" font-family="Arial" font-size="14.00" fill="#666666">[timestamp(6) without time zone]</text>
<polygon fill="none" stroke="#000000" stroke-width="3" points="44.5,-1611.5 44.5,-3059.5 425.5,-3059.5 425.5,-1611.5 44.5,-1611.5"/>
</g>
<!-- public.comn_formmaster -->
<g id="node2" class="node">
<title>public.comn_formmaster</title>
<polygon fill="#efefef" stroke="transparent" points="66,-1452.5 66,-1487.5 404,-1487.5 404,-1452.5 66,-1452.5"/>
<polygon fill="none" stroke="#000000" points="66,-1452.5 66,-1487.5 404,-1487.5 404,-1452.5 66,-1452.5"/>
<text text-anchor="start" x="72.7101" y="-1465.3" font-family="Arial Bold" font-size="18.00" fill="#000000">public.comn_formmaster</text>
<text text-anchor="start" x="269.7219" y="-1465.3" font-family="Arial" font-size="14.00" fill="#000000">    </text>
<text text-anchor="start" x="303.9267" y="-1465.3" font-family="Arial" font-size="14.00" fill="#666666">[BASE TABLE]</text>
<polygon fill="none" stroke="#000000" points="66,-1422.5 66,-1452.5 404,-1452.5 404,-1422.5 66,-1422.5"/>
<text text-anchor="start" x="73" y="-1433.9" font-family="Arial" font-size="14.00" fill="#000000">formid    </text>
<text text-anchor="start" x="146.0884" y="-1433.9" font-family="Arial" font-size="14.00" fill="#666666">[integer]</text>
<polygon fill="none" stroke="#000000" points="66,-1392.5 66,-1422.5 404,-1422.5 404,-1392.5 66,-1392.5"/>
<text text-anchor="start" x="73" y="-1403.9" font-family="Arial" font-size="14.00" fill="#000000">formname    </text>
<text text-anchor="start" x="170.2076" y="-1403.9" font-family="Arial" font-size="14.00" fill="#666666">[varchar(100)]</text>
<polygon fill="none" stroke="#000000" points="66,-1362.5 66,-1392.5 404,-1392.5 404,-1362.5 66,-1362.5"/>
<text text-anchor="start" x="73" y="-1373.9" font-family="Arial" font-size="14.00" fill="#000000">caption    </text>
<text text-anchor="start" x="152.3324" y="-1373.9" font-family="Arial" font-size="14.00" fill="#666666">[varchar(100)]</text>
<polygon fill="none" stroke="#000000" points="66,-1332.5 66,-1362.5 404,-1362.5 404,-1332.5 66,-1332.5"/>
<text text-anchor="start" x="73" y="-1343.9" font-family="Arial" font-size="14.00" fill="#000000">formtype    </text>
<text text-anchor="start" x="161.655" y="-1343.9" font-family="Arial" font-size="14.00" fill="#666666">[smallint]</text>
<polygon fill="none" stroke="#000000" points="66,-1302.5 66,-1332.5 404,-1332.5 404,-1302.5 66,-1302.5"/>
<text text-anchor="start" x="73" y="-1313.9" font-family="Arial" font-size="14.00" fill="#000000">mnunew    </text>
<text text-anchor="start" x="160.1024" y="-1313.9" font-family="Arial" font-size="14.00" fill="#666666">[boolean]</text>
<polygon fill="none" stroke="#000000" points="66,-1272.5 66,-1302.5 404,-1302.5 404,-1272.5 66,-1272.5"/>
<text text-anchor="start" x="73" y="-1283.9" font-family="Arial" font-size="14.00" fill="#000000">mnuedit    </text>
<text text-anchor="start" x="156.993" y="-1283.9" font-family="Arial" font-size="14.00" fill="#666666">[boolean]</text>
<polygon fill="none" stroke="#000000" points="66,-1242.5 66,-1272.5 404,-1272.5 404,-1242.5 66,-1242.5"/>
<text text-anchor="start" x="73" y="-1253.9" font-family="Arial" font-size="14.00" fill="#000000">mnuauthorize    </text>
<text text-anchor="start" x="192.0014" y="-1253.9" font-family="Arial" font-size="14.00" fill="#666666">[boolean]</text>
<polygon fill="none" stroke="#000000" points="66,-1212.5 66,-1242.5 404,-1242.5 404,-1212.5 66,-1212.5"/>
<text text-anchor="start" x="73" y="-1223.9" font-family="Arial" font-size="14.00" fill="#000000">mnuview    </text>
<text text-anchor="start" x="162.4264" y="-1223.9" font-family="Arial" font-size="14.00" fill="#666666">[boolean]</text>
<polygon fill="none" stroke="#000000" points="66,-1182.5 66,-1212.5 404,-1212.5 404,-1182.5 66,-1182.5"/>
<text text-anchor="start" x="73" y="-1193.9" font-family="Arial" font-size="14.00" fill="#000000">mnuprint    </text>
<text text-anchor="start" x="161.6536" y="-1193.9" font-family="Arial" font-size="14.00" fill="#666666">[boolean]</text>
<polygon fill="none" stroke="#000000" points="66,-1152.5 66,-1182.5 404,-1182.5 404,-1152.5 66,-1152.5"/>
<text text-anchor="start" x="73" y="-1163.9" font-family="Arial" font-size="14.00" fill="#000000">mnuamendment    </text>
<text text-anchor="start" x="208.338" y="-1163.9" font-family="Arial" font-size="14.00" fill="#666666">[boolean]</text>
<polygon fill="none" stroke="#000000" points="66,-1122.5 66,-1152.5 404,-1152.5 404,-1122.5 66,-1122.5"/>
<text text-anchor="start" x="73" y="-1133.9" font-family="Arial" font-size="14.00" fill="#000000">mnusendtotally    </text>
<text text-anchor="start" x="201.338" y="-1133.9" font-family="Arial" font-size="14.00" fill="#666666">[boolean]</text>
<polygon fill="none" stroke="#000000" points="66,-1092.5 66,-1122.5 404,-1122.5 404,-1092.5 66,-1092.5"/>
<text text-anchor="start" x="73" y="-1103.9" font-family="Arial" font-size="14.00" fill="#000000">mnuexporttoexcel    </text>
<text text-anchor="start" x="217.6746" y="-1103.9" font-family="Arial" font-size="14.00" fill="#666666">[boolean]</text>
<polygon fill="none" stroke="#000000" points="66,-1062.5 66,-1092.5 404,-1092.5 404,-1062.5 66,-1062.5"/>
<text text-anchor="start" x="73" y="-1073.9" font-family="Arial" font-size="14.00" fill="#000000">extravalue    </text>
<text text-anchor="start" x="171.7756" y="-1073.9" font-family="Arial" font-size="14.00" fill="#666666">[varchar(50)]</text>
<polygon fill="none" stroke="#000000" points="66,-1032.5 66,-1062.5 404,-1062.5 404,-1032.5 66,-1032.5"/>
<text text-anchor="start" x="73" y="-1043.9" font-family="Arial" font-size="14.00" fill="#000000">formval    </text>
<text text-anchor="start" x="153.0884" y="-1043.9" font-family="Arial" font-size="14.00" fill="#666666">[varchar(70)]</text>
<polygon fill="none" stroke="#000000" points="66,-1002.5 66,-1032.5 404,-1032.5 404,-1002.5 66,-1002.5"/>
<text text-anchor="start" x="73" y="-1013.9" font-family="Arial" font-size="14.00" fill="#000000">isauthorizationreq    </text>
<text text-anchor="start" x="217.6704" y="-1013.9" font-family="Arial" font-size="14.00" fill="#666666">[boolean]</text>
<polygon fill="none" stroke="#000000" points="66,-972.5 66,-1002.5 404,-1002.5 404,-972.5 66,-972.5"/>
<text text-anchor="start" x="73" y="-983.9" font-family="Arial" font-size="14.00" fill="#000000">mnuclosepending    </text>
<text text-anchor="start" x="216.9046" y="-983.9" font-family="Arial" font-size="14.00" fill="#666666">[boolean]</text>
<polygon fill="none" stroke="#000000" points="66,-942.5 66,-972.5 404,-972.5 404,-942.5 66,-942.5"/>
<text text-anchor="start" x="73" y="-953.9" font-family="Arial" font-size="14.00" fill="#000000">visible    </text>
<text text-anchor="start" x="146.0898" y="-953.9" font-family="Arial" font-size="14.00" fill="#666666">[boolean]</text>
<polygon fill="none" stroke="#000000" points="66,-912.5 66,-942.5 404,-942.5 404,-912.5 66,-912.5"/>
<text text-anchor="start" x="73" y="-923.9" font-family="Arial" font-size="14.00" fill="#000000">mnucanceltransaction    </text>
<text text-anchor="start" x="243.3464" y="-923.9" font-family="Arial" font-size="14.00" fill="#666666">[boolean]</text>
<polygon fill="none" stroke="#000000" points="66,-882.5 66,-912.5 404,-912.5 404,-882.5 66,-882.5"/>
<text text-anchor="start" x="73" y="-893.9" font-family="Arial" font-size="14.00" fill="#000000">formgroupid    </text>
<text text-anchor="start" x="181.8794" y="-893.9" font-family="Arial" font-size="14.00" fill="#666666">[integer]</text>
<polygon fill="none" stroke="#000000" points="66,-852.5 66,-882.5 404,-882.5 404,-852.5 66,-852.5"/>
<text text-anchor="start" x="73" y="-863.9" font-family="Arial" font-size="14.00" fill="#000000">allowbackdateentry    </text>
<text text-anchor="start" x="227.0098" y="-863.9" font-family="Arial" font-size="14.00" fill="#666666">[boolean]</text>
<polygon fill="none" stroke="#000000" points="66,-822.5 66,-852.5 404,-852.5 404,-822.5 66,-822.5"/>
<text text-anchor="start" x="73" y="-833.9" font-family="Arial" font-size="14.00" fill="#000000">isheadauthorizationreq    </text>
<text text-anchor="start" x="248.8008" y="-833.9" font-family="Arial" font-size="14.00" fill="#666666">[boolean]</text>
<polygon fill="none" stroke="#000000" points="66,-792.5 66,-822.5 404,-822.5 404,-792.5 66,-792.5"/>
<text text-anchor="start" x="73" y="-803.9" font-family="Arial" font-size="14.00" fill="#000000">roundoffitemlevelamt    </text>
<text text-anchor="start" x="237.1122" y="-803.9" font-family="Arial" font-size="14.00" fill="#666666">[integer]</text>
<polygon fill="none" stroke="#000000" points="66,-762.5 66,-792.5 404,-792.5 404,-762.5 66,-762.5"/>
<text text-anchor="start" x="73" y="-773.9" font-family="Arial" font-size="14.00" fill="#000000">mnuattachment    </text>
<text text-anchor="start" x="203.676" y="-773.9" font-family="Arial" font-size="14.00" fill="#666666">[boolean]</text>
<polygon fill="none" stroke="#000000" points="66,-732.5 66,-762.5 404,-762.5 404,-732.5 66,-732.5"/>
<text text-anchor="start" x="73" y="-743.9" font-family="Arial" font-size="14.00" fill="#000000">mnuviewattachment    </text>
<text text-anchor="start" x="231.6718" y="-743.9" font-family="Arial" font-size="14.00" fill="#666666">[boolean]</text>
<polygon fill="none" stroke="#000000" points="66,-702.5 66,-732.5 404,-732.5 404,-702.5 66,-702.5"/>
<text text-anchor="start" x="73" y="-713.9" font-family="Arial" font-size="14.00" fill="#000000">bamount_auth_enable    </text>
<text text-anchor="start" x="246.4922" y="-713.9" font-family="Arial" font-size="14.00" fill="#666666">[boolean]</text>
<polygon fill="none" stroke="#000000" points="66,-672.5 66,-702.5 404,-702.5 404,-672.5 66,-672.5"/>
<text text-anchor="start" x="73" y="-683.9" font-family="Arial" font-size="14.00" fill="#000000">formpath    </text>
<text text-anchor="start" x="162.4376" y="-683.9" font-family="Arial" font-size="14.00" fill="#666666">[text]</text>
<polygon fill="none" stroke="#000000" points="66,-642.5 66,-672.5 404,-672.5 404,-642.5 66,-642.5"/>
<text text-anchor="start" x="73" y="-653.9" font-family="Arial" font-size="14.00" fill="#000000">backdateenddate    </text>
<text text-anchor="start" x="214.5946" y="-653.9" font-family="Arial" font-size="14.00" fill="#666666">[date]</text>
<polygon fill="none" stroke="#000000" points="66,-612.5 66,-642.5 404,-642.5 404,-612.5 66,-612.5"/>
<text text-anchor="start" x="73" y="-623.9" font-family="Arial" font-size="14.00" fill="#000000">saveandprint    </text>
<text text-anchor="start" x="187.3408" y="-623.9" font-family="Arial" font-size="14.00" fill="#666666">[boolean]</text>
<polygon fill="none" stroke="#000000" points="66,-582.5 66,-612.5 404,-612.5 404,-582.5 66,-582.5"/>
<text text-anchor="start" x="73" y="-593.9" font-family="Arial" font-size="14.00" fill="#000000">saveandauthorize    </text>
<text text-anchor="start" x="217.6886" y="-593.9" font-family="Arial" font-size="14.00" fill="#666666">[boolean]</text>
<polygon fill="none" stroke="#000000" points="66,-552.5 66,-582.5 404,-582.5 404,-552.5 66,-552.5"/>
<text text-anchor="start" x="73" y="-563.9" font-family="Arial" font-size="14.00" fill="#000000">mnucreatestructure    </text>
<text text-anchor="start" x="227.7798" y="-563.9" font-family="Arial" font-size="14.00" fill="#666666">[boolean]</text>
<polygon fill="none" stroke="#000000" points="66,-522.5 66,-552.5 404,-552.5 404,-522.5 66,-522.5"/>
<text text-anchor="start" x="73" y="-533.9" font-family="Arial" font-size="14.00" fill="#000000">mnuimport    </text>
<text text-anchor="start" x="173.3142" y="-533.9" font-family="Arial" font-size="14.00" fill="#666666">[boolean]</text>
<polygon fill="none" stroke="#000000" points="66,-492.5 66,-522.5 404,-522.5 404,-492.5 66,-492.5"/>
<text text-anchor="start" x="73" y="-503.9" font-family="Arial" font-size="14.00" fill="#000000">tb_name    </text>
<text text-anchor="start" x="161.669" y="-503.9" font-family="Arial" font-size="14.00" fill="#666666">[varchar]</text>
<polygon fill="none" stroke="#000000" points="66,-462.5 66,-492.5 404,-492.5 404,-462.5 66,-462.5"/>
<text text-anchor="start" x="73" y="-473.9" font-family="Arial" font-size="14.00" fill="#000000">mnuprintserial    </text>
<text text-anchor="start" x="195.0926" y="-473.9" font-family="Arial" font-size="14.00" fill="#666666">[boolean]</text>
<polygon fill="none" stroke="#000000" points="66,-432.5 66,-462.5 404,-462.5 404,-432.5 66,-432.5"/>
<text text-anchor="start" x="73" y="-443.9" font-family="Arial" font-size="14.00" fill="#000000">mnuemail    </text>
<text text-anchor="start" x="167.8696" y="-443.9" font-family="Arial" font-size="14.00" fill="#666666">[boolean]</text>
<polygon fill="none" stroke="#000000" points="66,-402.5 66,-432.5 404,-432.5 404,-402.5 66,-402.5"/>
<text text-anchor="start" x="73" y="-413.9" font-family="Arial" font-size="14.00" fill="#000000">mnuunauthorize    </text>
<text text-anchor="start" x="207.5666" y="-413.9" font-family="Arial" font-size="14.00" fill="#666666">[boolean]</text>
<polygon fill="none" stroke="#000000" points="66,-372.5 66,-402.5 404,-402.5 404,-372.5 66,-372.5"/>
<text text-anchor="start" x="73" y="-383.9" font-family="Arial" font-size="14.00" fill="#000000">report_id    </text>
<text text-anchor="start" x="162.4362" y="-383.9" font-family="Arial" font-size="14.00" fill="#666666">[integer]</text>
<polygon fill="none" stroke="#000000" points="66,-342.5 66,-372.5 404,-372.5 404,-342.5 66,-342.5"/>
<text text-anchor="start" x="73" y="-353.9" font-family="Arial" font-size="14.00" fill="#000000">isautomail    </text>
<text text-anchor="start" x="170.2062" y="-353.9" font-family="Arial" font-size="14.00" fill="#666666">[boolean]</text>
<polygon fill="none" stroke="#000000" points="66,-312.5 66,-342.5 404,-342.5 404,-312.5 66,-312.5"/>
<text text-anchor="start" x="73" y="-323.9" font-family="Arial" font-size="14.00" fill="#000000">printfromdbqry    </text>
<text text-anchor="start" x="197.4306" y="-323.9" font-family="Arial" font-size="14.00" fill="#666666">[boolean]</text>
<polygon fill="none" stroke="#000000" points="66,-282.5 66,-312.5 404,-312.5 404,-282.5 66,-282.5"/>
<text text-anchor="start" x="73" y="-293.9" font-family="Arial" font-size="14.00" fill="#000000">showitemattributeonreport    </text>
<text text-anchor="start" x="269.0112" y="-293.9" font-family="Arial" font-size="14.00" fill="#666666">[boolean]</text>
<polygon fill="none" stroke="#000000" points="66,-252.5 66,-282.5 404,-282.5 404,-252.5 66,-252.5"/>
<text text-anchor="start" x="73" y="-263.9" font-family="Arial" font-size="14.00" fill="#000000">bydefaultselectallitemattribute    </text>
<text text-anchor="start" x="291.5736" y="-263.9" font-family="Arial" font-size="14.00" fill="#666666">[boolean]</text>
<polygon fill="none" stroke="#000000" points="66,-222.5 66,-252.5 404,-252.5 404,-222.5 66,-222.5"/>
<text text-anchor="start" x="73" y="-233.9" font-family="Arial" font-size="14.00" fill="#000000">helpurl    </text>
<text text-anchor="start" x="149.209" y="-233.9" font-family="Arial" font-size="14.00" fill="#666666">[text]</text>
<polygon fill="none" stroke="#000000" points="66,-192.5 66,-222.5 404,-222.5 404,-192.5 66,-192.5"/>
<text text-anchor="start" x="73" y="-203.9" font-family="Arial" font-size="14.00" fill="#000000">roundoffitemlevelgstrate    </text>
<text text-anchor="start" x="256.568" y="-203.9" font-family="Arial" font-size="14.00" fill="#666666">[integer]</text>
<polygon fill="none" stroke="#000000" points="66,-162.5 66,-192.5 404,-192.5 404,-162.5 66,-162.5"/>
<text text-anchor="start" x="73" y="-173.9" font-family="Arial" font-size="14.00" fill="#000000">isforglobalseries    </text>
<text text-anchor="start" x="208.3212" y="-173.9" font-family="Arial" font-size="14.00" fill="#666666">[boolean]</text>
<polygon fill="none" stroke="#000000" points="66,-132.5 66,-162.5 404,-162.5 404,-132.5 66,-132.5"/>
<text text-anchor="start" x="73" y="-143.9" font-family="Arial" font-size="14.00" fill="#000000">saveandprintbarcode    </text>
<text text-anchor="start" x="237.9144" y="-143.9" font-family="Arial" font-size="14.00" fill="#666666">[boolean]</text>
<polygon fill="none" stroke="#000000" points="66,-102.5 66,-132.5 404,-132.5 404,-102.5 66,-102.5"/>
<text text-anchor="start" x="73" y="-113.9" font-family="Arial" font-size="14.00" fill="#000000">discperdecimallimit    </text>
<text text-anchor="start" x="225.4124" y="-113.9" font-family="Arial" font-size="14.00" fill="#666666">[integer]</text>
<polygon fill="none" stroke="#000000" points="66,-72.5 66,-102.5 404,-102.5 404,-72.5 66,-72.5"/>
<text text-anchor="start" x="73" y="-83.9" font-family="Arial" font-size="14.00" fill="#000000">isbackdateimpact    </text>
<text text-anchor="start" x="215.338" y="-83.9" font-family="Arial" font-size="14.00" fill="#666666">[boolean]</text>
<polygon fill="none" stroke="#000000" points="66,-42.5 66,-72.5 404,-72.5 404,-42.5 66,-42.5"/>
<text text-anchor="start" x="73" y="-53.9" font-family="Arial" font-size="14.00" fill="#000000">mnuwhatsapp    </text>
<text text-anchor="start" x="194.3408" y="-53.9" font-family="Arial" font-size="14.00" fill="#666666">[boolean]</text>
</g>
<!-- public.prod_productionmaster&#45;&gt;public.comn_formmaster -->
<g id="edge1" class="edge">
<title>public.prod_productionmaster:formid&#45;&gt;public.comn_formmaster:formid</title>
<path fill="none" stroke="#000000" d="M433.8331,-1745.183C490.8744,-1716.815 469.5266,-1437.5 404,-1437.5"/>
<polygon fill="#000000" stroke="#000000" points="433.7334,-1745.2064 422.9679,-1743.12 428.8667,-1746.3532 424,-1747.5 424,-1747.5 424,-1747.5 428.8667,-1746.3532 425.0321,-1751.88 433.7334,-1745.2064 433.7334,-1745.2064"/>
<text text-anchor="start" x="430.7865" y="-1757.5" font-family="Arial" font-size="10.00" fill="#000000">FOREIGN KEY (formid) REFERENCES comn_formmaster(formid)</text>
</g>
</g>
</svg>
