<?xml version="1.0" encoding="UTF-8" standalone="no"?>
<!DOCTYPE svg PUBLIC "-//W3C//DTD SVG 1.1//EN"
 "http://www.w3.org/Graphics/SVG/1.1/DTD/svg11.dtd">
<!-- Generated by graphviz version 2.40.1 (20161225.0304)
 -->
<!-- Title: public.dmsftpsettings Pages: 1 -->
<svg width="409pt" height="825pt"
 viewBox="0.00 0.00 409.00 825.00" xmlns="http://www.w3.org/2000/svg" xmlns:xlink="http://www.w3.org/1999/xlink">
<g id="graph0" class="graph" transform="scale(1 1) rotate(0) translate(4 821)">
<title>public.dmsftpsettings</title>
<polygon fill="#ffffff" stroke="transparent" points="-4,4 -4,-821 405,-821 405,4 -4,4"/>
<!-- public.dmsftpsettings -->
<g id="node1" class="node">
<title>public.dmsftpsettings</title>
<polygon fill="#efefef" stroke="transparent" points="46.5,-735.5 46.5,-770.5 355.5,-770.5 355.5,-735.5 46.5,-735.5"/>
<polygon fill="none" stroke="#000000" points="46.5,-735.5 46.5,-770.5 355.5,-770.5 355.5,-735.5 46.5,-735.5"/>
<text text-anchor="start" x="53.1983" y="-748.3" font-family="Arial Bold" font-size="18.00" fill="#000000">public.dmsftpsettings</text>
<text text-anchor="start" x="221.2337" y="-748.3" font-family="Arial" font-size="14.00" fill="#000000">    </text>
<text text-anchor="start" x="255.4385" y="-748.3" font-family="Arial" font-size="14.00" fill="#666666">[BASE TABLE]</text>
<polygon fill="none" stroke="#000000" points="46.5,-705.5 46.5,-735.5 355.5,-735.5 355.5,-705.5 46.5,-705.5"/>
<text text-anchor="start" x="53.5" y="-716.9" font-family="Arial" font-size="14.00" fill="#000000">settingid </text>
<text text-anchor="start" x="109.5154" y="-716.9" font-family="Arial" font-size="14.00" fill="#666666">[integer]</text>
<polygon fill="none" stroke="#000000" points="46.5,-675.5 46.5,-705.5 355.5,-705.5 355.5,-675.5 46.5,-675.5"/>
<text text-anchor="start" x="53.5" y="-686.9" font-family="Arial" font-size="14.00" fill="#000000">ftpaddress </text>
<text text-anchor="start" x="122.7454" y="-686.9" font-family="Arial" font-size="14.00" fill="#666666">[varchar(200)]</text>
<polygon fill="none" stroke="#000000" points="46.5,-645.5 46.5,-675.5 355.5,-675.5 355.5,-645.5 46.5,-645.5"/>
<text text-anchor="start" x="53.5" y="-656.9" font-family="Arial" font-size="14.00" fill="#000000">ftpusername </text>
<text text-anchor="start" x="135.1886" y="-656.9" font-family="Arial" font-size="14.00" fill="#666666">[varchar(200)]</text>
<polygon fill="none" stroke="#000000" points="46.5,-615.5 46.5,-645.5 355.5,-645.5 355.5,-615.5 46.5,-615.5"/>
<text text-anchor="start" x="53.5" y="-626.9" font-family="Arial" font-size="14.00" fill="#000000">ftppassword </text>
<text text-anchor="start" x="132.852" y="-626.9" font-family="Arial" font-size="14.00" fill="#666666">[varchar(200)]</text>
<polygon fill="none" stroke="#000000" points="46.5,-585.5 46.5,-615.5 355.5,-615.5 355.5,-585.5 46.5,-585.5"/>
<text text-anchor="start" x="53.5" y="-596.9" font-family="Arial" font-size="14.00" fill="#000000">ftpport </text>
<text text-anchor="start" x="97.0708" y="-596.9" font-family="Arial" font-size="14.00" fill="#666666">[varchar(20)]</text>
<polygon fill="none" stroke="#000000" points="46.5,-555.5 46.5,-585.5 355.5,-585.5 355.5,-555.5 46.5,-555.5"/>
<text text-anchor="start" x="53.5" y="-566.9" font-family="Arial" font-size="14.00" fill="#000000">ftpmode </text>
<text text-anchor="start" x="107.9628" y="-566.9" font-family="Arial" font-size="14.00" fill="#666666">[varchar(20)]</text>
<polygon fill="none" stroke="#000000" points="46.5,-525.5 46.5,-555.5 355.5,-555.5 355.5,-525.5 46.5,-525.5"/>
<text text-anchor="start" x="53.5" y="-536.9" font-family="Arial" font-size="14.00" fill="#000000">useproxy </text>
<text text-anchor="start" x="114.1816" y="-536.9" font-family="Arial" font-size="14.00" fill="#666666">[smallint]</text>
<polygon fill="none" stroke="#000000" points="46.5,-495.5 46.5,-525.5 355.5,-525.5 355.5,-495.5 46.5,-495.5"/>
<text text-anchor="start" x="53.5" y="-506.9" font-family="Arial" font-size="14.00" fill="#000000">proxyusername </text>
<text text-anchor="start" x="153.8506" y="-506.9" font-family="Arial" font-size="14.00" fill="#666666">[varchar(200)]</text>
<polygon fill="none" stroke="#000000" points="46.5,-465.5 46.5,-495.5 355.5,-495.5 355.5,-465.5 46.5,-465.5"/>
<text text-anchor="start" x="53.5" y="-476.9" font-family="Arial" font-size="14.00" fill="#000000">proxypassword </text>
<text text-anchor="start" x="151.514" y="-476.9" font-family="Arial" font-size="14.00" fill="#666666">[varchar(200)]</text>
<polygon fill="none" stroke="#000000" points="46.5,-435.5 46.5,-465.5 355.5,-465.5 355.5,-435.5 46.5,-435.5"/>
<text text-anchor="start" x="53.5" y="-446.9" font-family="Arial" font-size="14.00" fill="#000000">proxyip </text>
<text text-anchor="start" x="102.5056" y="-446.9" font-family="Arial" font-size="14.00" fill="#666666">[varchar(100)]</text>
<polygon fill="none" stroke="#000000" points="46.5,-405.5 46.5,-435.5 355.5,-435.5 355.5,-405.5 46.5,-405.5"/>
<text text-anchor="start" x="53.5" y="-416.9" font-family="Arial" font-size="14.00" fill="#000000">proxyport </text>
<text text-anchor="start" x="115.7328" y="-416.9" font-family="Arial" font-size="14.00" fill="#666666">[varchar(20)]</text>
<polygon fill="none" stroke="#000000" points="46.5,-375.5 46.5,-405.5 355.5,-405.5 355.5,-375.5 46.5,-375.5"/>
<text text-anchor="start" x="53.5" y="-386.9" font-family="Arial" font-size="14.00" fill="#000000">sharedpath </text>
<text text-anchor="start" x="127.42" y="-386.9" font-family="Arial" font-size="14.00" fill="#666666">[varchar(500)]</text>
<polygon fill="none" stroke="#000000" points="46.5,-345.5 46.5,-375.5 355.5,-375.5 355.5,-345.5 46.5,-345.5"/>
<text text-anchor="start" x="53.5" y="-356.9" font-family="Arial" font-size="14.00" fill="#000000">isactive </text>
<text text-anchor="start" x="104.0596" y="-356.9" font-family="Arial" font-size="14.00" fill="#666666">[boolean]</text>
<polygon fill="none" stroke="#000000" points="46.5,-315.5 46.5,-345.5 355.5,-345.5 355.5,-315.5 46.5,-315.5"/>
<text text-anchor="start" x="53.5" y="-326.9" font-family="Arial" font-size="14.00" fill="#000000">settingname </text>
<text text-anchor="start" x="133.6346" y="-326.9" font-family="Arial" font-size="14.00" fill="#666666">[varchar(200)]</text>
<polygon fill="none" stroke="#000000" points="46.5,-285.5 46.5,-315.5 355.5,-315.5 355.5,-285.5 46.5,-285.5"/>
<text text-anchor="start" x="53.5" y="-296.9" font-family="Arial" font-size="14.00" fill="#000000">uploadfolder </text>
<text text-anchor="start" x="134.4158" y="-296.9" font-family="Arial" font-size="14.00" fill="#666666">[varchar(200)]</text>
<polygon fill="none" stroke="#000000" points="46.5,-255.5 46.5,-285.5 355.5,-285.5 355.5,-255.5 46.5,-255.5"/>
<text text-anchor="start" x="53.5" y="-266.9" font-family="Arial" font-size="14.00" fill="#000000">downloadfolder </text>
<text text-anchor="start" x="152.305" y="-266.9" font-family="Arial" font-size="14.00" fill="#666666">[varchar(200)]</text>
<polygon fill="none" stroke="#000000" points="46.5,-225.5 46.5,-255.5 355.5,-255.5 355.5,-225.5 46.5,-225.5"/>
<text text-anchor="start" x="53.5" y="-236.9" font-family="Arial" font-size="14.00" fill="#000000">network_credential </text>
<text text-anchor="start" x="174.8562" y="-236.9" font-family="Arial" font-size="14.00" fill="#666666">[boolean]</text>
<polygon fill="none" stroke="#000000" points="46.5,-195.5 46.5,-225.5 355.5,-225.5 355.5,-195.5 46.5,-195.5"/>
<text text-anchor="start" x="53.5" y="-206.9" font-family="Arial" font-size="14.00" fill="#000000">mail_body </text>
<text text-anchor="start" x="121.1774" y="-206.9" font-family="Arial" font-size="14.00" fill="#666666">[text]</text>
<polygon fill="none" stroke="#000000" points="46.5,-165.5 46.5,-195.5 355.5,-195.5 355.5,-165.5 46.5,-165.5"/>
<text text-anchor="start" x="53.5" y="-176.9" font-family="Arial" font-size="14.00" fill="#000000">mail_subject </text>
<text text-anchor="start" x="135.1746" y="-176.9" font-family="Arial" font-size="14.00" fill="#666666">[varchar(500)]</text>
<polygon fill="none" stroke="#000000" points="46.5,-135.5 46.5,-165.5 355.5,-165.5 355.5,-135.5 46.5,-135.5"/>
<text text-anchor="start" x="53.5" y="-146.9" font-family="Arial" font-size="14.00" fill="#000000">isshowsetting </text>
<text text-anchor="start" x="141.4046" y="-146.9" font-family="Arial" font-size="14.00" fill="#666666">[boolean]</text>
<polygon fill="none" stroke="#000000" points="46.5,-105.5 46.5,-135.5 355.5,-135.5 355.5,-105.5 46.5,-105.5"/>
<text text-anchor="start" x="53.5" y="-116.9" font-family="Arial" font-size="14.00" fill="#000000">islinuxftp </text>
<text text-anchor="start" x="111.8394" y="-116.9" font-family="Arial" font-size="14.00" fill="#666666">[boolean]</text>
<polygon fill="none" stroke="#000000" points="46.5,-75.5 46.5,-105.5 355.5,-105.5 355.5,-75.5 46.5,-75.5"/>
<text text-anchor="start" x="53.5" y="-86.9" font-family="Arial" font-size="14.00" fill="#000000">linuxftpaddress </text>
<text text-anchor="start" x="151.5238" y="-86.9" font-family="Arial" font-size="14.00" fill="#666666">[varchar(100)]</text>
<polygon fill="none" stroke="#000000" points="46.5,-45.5 46.5,-75.5 355.5,-75.5 355.5,-45.5 46.5,-45.5"/>
<text text-anchor="start" x="53.5" y="-56.9" font-family="Arial" font-size="14.00" fill="#000000">linuxsharedpath </text>
<text text-anchor="start" x="156.1984" y="-56.9" font-family="Arial" font-size="14.00" fill="#666666">[varchar(100)]</text>
<polygon fill="none" stroke="#000000" stroke-width="3" points="44.5,-44.5 44.5,-772.5 356.5,-772.5 356.5,-44.5 44.5,-44.5"/>
</g>
</g>
</svg>
