<?xml version="1.0" encoding="UTF-8" standalone="no"?>
<!DOCTYPE svg PUBLIC "-//W3C//DTD SVG 1.1//EN"
 "http://www.w3.org/Graphics/SVG/1.1/DTD/svg11.dtd">
<!-- Generated by graphviz version 2.40.1 (20161225.0304)
 -->
<!-- Title: public.comn_eway_period Pages: 1 -->
<svg width="449pt" height="525pt"
 viewBox="0.00 0.00 449.00 525.00" xmlns="http://www.w3.org/2000/svg" xmlns:xlink="http://www.w3.org/1999/xlink">
<g id="graph0" class="graph" transform="scale(1 1) rotate(0) translate(4 521)">
<title>public.comn_eway_period</title>
<polygon fill="#ffffff" stroke="transparent" points="-4,4 -4,-521 445,-521 445,4 -4,4"/>
<!-- public.comn_eway_period -->
<g id="node1" class="node">
<title>public.comn_eway_period</title>
<polygon fill="#efefef" stroke="transparent" points="46.5,-435.5 46.5,-470.5 395.5,-470.5 395.5,-435.5 46.5,-435.5"/>
<polygon fill="none" stroke="#000000" points="46.5,-435.5 46.5,-470.5 395.5,-470.5 395.5,-435.5 46.5,-435.5"/>
<text text-anchor="start" x="53.194" y="-448.3" font-family="Arial Bold" font-size="18.00" fill="#000000">public.comn_eway_period</text>
<text text-anchor="start" x="261.238" y="-448.3" font-family="Arial" font-size="14.00" fill="#000000">    </text>
<text text-anchor="start" x="295.4428" y="-448.3" font-family="Arial" font-size="14.00" fill="#666666">[BASE TABLE]</text>
<polygon fill="none" stroke="#000000" points="46.5,-405.5 46.5,-435.5 395.5,-435.5 395.5,-405.5 46.5,-405.5"/>
<text text-anchor="start" x="53.5" y="-416.9" font-family="Arial" font-size="14.00" fill="#000000">id </text>
<text text-anchor="start" x="68.2798" y="-416.9" font-family="Arial" font-size="14.00" fill="#666666">[integer]</text>
<polygon fill="none" stroke="#000000" points="46.5,-375.5 46.5,-405.5 395.5,-405.5 395.5,-375.5 46.5,-375.5"/>
<text text-anchor="start" x="53.5" y="-386.9" font-family="Arial" font-size="14.00" fill="#000000">erpclientid </text>
<text text-anchor="start" x="121.1746" y="-386.9" font-family="Arial" font-size="14.00" fill="#666666">[integer]</text>
<polygon fill="none" stroke="#000000" points="46.5,-345.5 46.5,-375.5 395.5,-375.5 395.5,-345.5 46.5,-345.5"/>
<text text-anchor="start" x="53.5" y="-356.9" font-family="Arial" font-size="14.00" fill="#000000">gstno </text>
<text text-anchor="start" x="91.629" y="-356.9" font-family="Arial" font-size="14.00" fill="#666666">[varchar(15)]</text>
<polygon fill="none" stroke="#000000" points="46.5,-315.5 46.5,-345.5 395.5,-345.5 395.5,-315.5 46.5,-315.5"/>
<text text-anchor="start" x="53.5" y="-326.9" font-family="Arial" font-size="14.00" fill="#000000">nicname </text>
<text text-anchor="start" x="110.2882" y="-326.9" font-family="Arial" font-size="14.00" fill="#666666">[varchar(50)]</text>
<polygon fill="none" stroke="#000000" points="46.5,-285.5 46.5,-315.5 395.5,-315.5 395.5,-285.5 46.5,-285.5"/>
<text text-anchor="start" x="53.5" y="-296.9" font-family="Arial" font-size="14.00" fill="#000000">nicpwd </text>
<text text-anchor="start" x="100.9516" y="-296.9" font-family="Arial" font-size="14.00" fill="#666666">[varchar(50)]</text>
<polygon fill="none" stroke="#000000" points="46.5,-255.5 46.5,-285.5 395.5,-285.5 395.5,-255.5 46.5,-255.5"/>
<text text-anchor="start" x="53.5" y="-266.9" font-family="Arial" font-size="14.00" fill="#000000">validfrom </text>
<text text-anchor="start" x="114.1634" y="-266.9" font-family="Arial" font-size="14.00" fill="#666666">[date]</text>
<polygon fill="none" stroke="#000000" points="46.5,-225.5 46.5,-255.5 395.5,-255.5 395.5,-225.5 46.5,-225.5"/>
<text text-anchor="start" x="53.5" y="-236.9" font-family="Arial" font-size="14.00" fill="#000000">validto </text>
<text text-anchor="start" x="97.8422" y="-236.9" font-family="Arial" font-size="14.00" fill="#666666">[date]</text>
<polygon fill="none" stroke="#000000" points="46.5,-195.5 46.5,-225.5 395.5,-225.5 395.5,-195.5 46.5,-195.5"/>
<text text-anchor="start" x="53.5" y="-206.9" font-family="Arial" font-size="14.00" fill="#000000">apihitlimit </text>
<text text-anchor="start" x="115.7132" y="-206.9" font-family="Arial" font-size="14.00" fill="#666666">[integer]</text>
<polygon fill="none" stroke="#000000" points="46.5,-165.5 46.5,-195.5 395.5,-195.5 395.5,-165.5 46.5,-165.5"/>
<text text-anchor="start" x="53.5" y="-176.9" font-family="Arial" font-size="14.00" fill="#000000">isactive </text>
<text text-anchor="start" x="104.0596" y="-176.9" font-family="Arial" font-size="14.00" fill="#666666">[boolean]</text>
<polygon fill="none" stroke="#000000" points="46.5,-135.5 46.5,-165.5 395.5,-165.5 395.5,-135.5 46.5,-135.5"/>
<text text-anchor="start" x="53.5" y="-146.9" font-family="Arial" font-size="14.00" fill="#000000">authtoken </text>
<text text-anchor="start" x="118.8674" y="-146.9" font-family="Arial" font-size="14.00" fill="#666666">[text]</text>
<polygon fill="none" stroke="#000000" points="46.5,-105.5 46.5,-135.5 395.5,-135.5 395.5,-105.5 46.5,-105.5"/>
<text text-anchor="start" x="53.5" y="-116.9" font-family="Arial" font-size="14.00" fill="#000000">ewaylimit </text>
<text text-anchor="start" x="114.9334" y="-116.9" font-family="Arial" font-size="14.00" fill="#666666">[integer]</text>
<polygon fill="none" stroke="#000000" points="46.5,-75.5 46.5,-105.5 395.5,-105.5 395.5,-75.5 46.5,-75.5"/>
<text text-anchor="start" x="53.5" y="-86.9" font-family="Arial" font-size="14.00" fill="#000000">einvlimit </text>
<text text-anchor="start" x="107.9334" y="-86.9" font-family="Arial" font-size="14.00" fill="#666666">[integer]</text>
<polygon fill="none" stroke="#000000" points="46.5,-45.5 46.5,-75.5 395.5,-75.5 395.5,-45.5 46.5,-45.5"/>
<text text-anchor="start" x="53.5" y="-56.9" font-family="Arial" font-size="14.00" fill="#000000">distancehitlimit </text>
<text text-anchor="start" x="149.169" y="-56.9" font-family="Arial" font-size="14.00" fill="#666666">[integer]</text>
<polygon fill="none" stroke="#000000" stroke-width="3" points="44.5,-44.5 44.5,-472.5 396.5,-472.5 396.5,-44.5 44.5,-44.5"/>
</g>
</g>
</svg>
