<?xml version="1.0" encoding="UTF-8" standalone="no"?>
<!DOCTYPE svg PUBLIC "-//W3C//DTD SVG 1.1//EN"
 "http://www.w3.org/Graphics/SVG/1.1/DTD/svg11.dtd">
<!-- Generated by graphviz version 2.40.1 (20161225.0304)
 -->
<!-- Title: public.user_autologin Pages: 1 -->
<svg width="411pt" height="285pt"
 viewBox="0.00 0.00 411.00 285.00" xmlns="http://www.w3.org/2000/svg" xmlns:xlink="http://www.w3.org/1999/xlink">
<g id="graph0" class="graph" transform="scale(1 1) rotate(0) translate(4 281)">
<title>public.user_autologin</title>
<polygon fill="#ffffff" stroke="transparent" points="-4,4 -4,-281 407,-281 407,4 -4,4"/>
<!-- public.user_autologin -->
<g id="node1" class="node">
<title>public.user_autologin</title>
<polygon fill="#efefef" stroke="transparent" points="46.5,-195.5 46.5,-230.5 357.5,-230.5 357.5,-195.5 46.5,-195.5"/>
<polygon fill="none" stroke="#000000" points="46.5,-195.5 46.5,-230.5 357.5,-230.5 357.5,-195.5 46.5,-195.5"/>
<text text-anchor="start" x="53.1921" y="-208.3" font-family="Arial Bold" font-size="18.00" fill="#000000">public.user_autologin</text>
<text text-anchor="start" x="223.2399" y="-208.3" font-family="Arial" font-size="14.00" fill="#000000">    </text>
<text text-anchor="start" x="257.4447" y="-208.3" font-family="Arial" font-size="14.00" fill="#666666">[BASE TABLE]</text>
<polygon fill="none" stroke="#000000" points="46.5,-165.5 46.5,-195.5 357.5,-195.5 357.5,-165.5 46.5,-165.5"/>
<text text-anchor="start" x="53.5" y="-176.9" font-family="Arial" font-size="14.00" fill="#000000">key_id </text>
<text text-anchor="start" x="97.845" y="-176.9" font-family="Arial" font-size="14.00" fill="#666666">[character(32)]</text>
<polygon fill="none" stroke="#000000" points="46.5,-135.5 46.5,-165.5 357.5,-165.5 357.5,-135.5 46.5,-135.5"/>
<text text-anchor="start" x="53.5" y="-146.9" font-family="Arial" font-size="14.00" fill="#000000">user_id </text>
<text text-anchor="start" x="103.2882" y="-146.9" font-family="Arial" font-size="14.00" fill="#666666">[integer]</text>
<polygon fill="none" stroke="#000000" points="46.5,-105.5 46.5,-135.5 357.5,-135.5 357.5,-105.5 46.5,-105.5"/>
<text text-anchor="start" x="53.5" y="-116.9" font-family="Arial" font-size="14.00" fill="#000000">user_agent </text>
<text text-anchor="start" x="127.42" y="-116.9" font-family="Arial" font-size="14.00" fill="#666666">[varchar(150)]</text>
<polygon fill="none" stroke="#000000" points="46.5,-75.5 46.5,-105.5 357.5,-105.5 357.5,-75.5 46.5,-75.5"/>
<text text-anchor="start" x="53.5" y="-86.9" font-family="Arial" font-size="14.00" fill="#000000">last_ip </text>
<text text-anchor="start" x="97.8422" y="-86.9" font-family="Arial" font-size="14.00" fill="#666666">[varchar(40)]</text>
<polygon fill="none" stroke="#000000" points="46.5,-45.5 46.5,-75.5 357.5,-75.5 357.5,-45.5 46.5,-45.5"/>
<text text-anchor="start" x="53.5" y="-56.9" font-family="Arial" font-size="14.00" fill="#000000">last_login </text>
<text text-anchor="start" x="116.514" y="-56.9" font-family="Arial" font-size="14.00" fill="#666666">[timestamp without time zone]</text>
<polygon fill="none" stroke="#000000" stroke-width="3" points="44.5,-44.5 44.5,-232.5 358.5,-232.5 358.5,-44.5 44.5,-44.5"/>
</g>
</g>
</svg>
