<?xml version="1.0" encoding="UTF-8" standalone="no"?>
<!DOCTYPE svg PUBLIC "-//W3C//DTD SVG 1.1//EN"
 "http://www.w3.org/Graphics/SVG/1.1/DTD/svg11.dtd">
<!-- Generated by graphviz version 2.40.1 (20161225.0304)
 -->
<!-- Title: public.app_localization Pages: 1 -->
<svg width="422pt" height="255pt"
 viewBox="0.00 0.00 422.00 255.00" xmlns="http://www.w3.org/2000/svg" xmlns:xlink="http://www.w3.org/1999/xlink">
<g id="graph0" class="graph" transform="scale(1 1) rotate(0) translate(4 251)">
<title>public.app_localization</title>
<polygon fill="#ffffff" stroke="transparent" points="-4,4 -4,-251 418,-251 418,4 -4,4"/>
<!-- public.app_localization -->
<g id="node1" class="node">
<title>public.app_localization</title>
<polygon fill="#efefef" stroke="transparent" points="46,-165.5 46,-200.5 368,-200.5 368,-165.5 46,-165.5"/>
<polygon fill="none" stroke="#000000" points="46,-165.5 46,-200.5 368,-200.5 368,-165.5 46,-165.5"/>
<text text-anchor="start" x="52.694" y="-178.3" font-family="Arial Bold" font-size="18.00" fill="#000000">public.app_localization</text>
<text text-anchor="start" x="233.738" y="-178.3" font-family="Arial" font-size="14.00" fill="#000000">    </text>
<text text-anchor="start" x="267.9428" y="-178.3" font-family="Arial" font-size="14.00" fill="#666666">[BASE TABLE]</text>
<polygon fill="none" stroke="#000000" points="46,-135.5 46,-165.5 368,-165.5 368,-135.5 46,-135.5"/>
<text text-anchor="start" x="53" y="-146.9" font-family="Arial" font-size="14.00" fill="#000000">detailid </text>
<text text-anchor="start" x="101.2314" y="-146.9" font-family="Arial" font-size="14.00" fill="#666666">[integer]</text>
<polygon fill="none" stroke="#000000" points="46,-105.5 46,-135.5 368,-135.5 368,-105.5 46,-105.5"/>
<text text-anchor="start" x="53" y="-116.9" font-family="Arial" font-size="14.00" fill="#000000">orgtext </text>
<text text-anchor="start" x="99.6802" y="-116.9" font-family="Arial" font-size="14.00" fill="#666666">[text]</text>
<polygon fill="none" stroke="#000000" points="46,-75.5 46,-105.5 368,-105.5 368,-75.5 46,-75.5"/>
<text text-anchor="start" x="53" y="-86.9" font-family="Arial" font-size="14.00" fill="#000000">applanguage </text>
<text text-anchor="start" x="137.8232" y="-86.9" font-family="Arial" font-size="14.00" fill="#666666">[varchar(50)]</text>
<polygon fill="none" stroke="#000000" points="46,-45.5 46,-75.5 368,-75.5 368,-45.5 46,-45.5"/>
<text text-anchor="start" x="53" y="-56.9" font-family="Arial" font-size="14.00" fill="#000000">textval </text>
<text text-anchor="start" x="97.3436" y="-56.9" font-family="Arial" font-size="14.00" fill="#666666">[text]</text>
<polygon fill="none" stroke="#000000" stroke-width="3" points="44.5,-44.5 44.5,-202.5 369.5,-202.5 369.5,-44.5 44.5,-44.5"/>
</g>
</g>
</svg>
