<?xml version="1.0" encoding="UTF-8" standalone="no"?>
<!DOCTYPE svg PUBLIC "-//W3C//DTD SVG 1.1//EN"
 "http://www.w3.org/Graphics/SVG/1.1/DTD/svg11.dtd">
<!-- Generated by graphviz version 2.40.1 (20161225.0304)
 -->
<!-- Title: public.comn_saptaxmaster Pages: 1 -->
<svg width="455pt" height="465pt"
 viewBox="0.00 0.00 455.00 465.00" xmlns="http://www.w3.org/2000/svg" xmlns:xlink="http://www.w3.org/1999/xlink">
<g id="graph0" class="graph" transform="scale(1 1) rotate(0) translate(4 461)">
<title>public.comn_saptaxmaster</title>
<polygon fill="#ffffff" stroke="transparent" points="-4,4 -4,-461 451,-461 451,4 -4,4"/>
<!-- public.comn_saptaxmaster -->
<g id="node1" class="node">
<title>public.comn_saptaxmaster</title>
<polygon fill="#efefef" stroke="transparent" points="46.5,-375.5 46.5,-410.5 401.5,-410.5 401.5,-375.5 46.5,-375.5"/>
<polygon fill="none" stroke="#000000" points="46.5,-375.5 46.5,-410.5 401.5,-410.5 401.5,-375.5 46.5,-375.5"/>
<text text-anchor="start" x="53.1961" y="-388.3" font-family="Arial Bold" font-size="18.00" fill="#000000">public.comn_saptaxmaster</text>
<text text-anchor="start" x="267.2359" y="-388.3" font-family="Arial" font-size="14.00" fill="#000000">    </text>
<text text-anchor="start" x="301.4407" y="-388.3" font-family="Arial" font-size="14.00" fill="#666666">[BASE TABLE]</text>
<polygon fill="none" stroke="#000000" points="46.5,-345.5 46.5,-375.5 401.5,-375.5 401.5,-345.5 46.5,-345.5"/>
<text text-anchor="start" x="53.5" y="-356.9" font-family="Arial" font-size="14.00" fill="#000000">fromstate </text>
<text text-anchor="start" x="115.7314" y="-356.9" font-family="Arial" font-size="14.00" fill="#666666">[varchar(20)]</text>
<polygon fill="none" stroke="#000000" points="46.5,-315.5 46.5,-345.5 401.5,-345.5 401.5,-315.5 46.5,-315.5"/>
<text text-anchor="start" x="53.5" y="-326.9" font-family="Arial" font-size="14.00" fill="#000000">tostate </text>
<text text-anchor="start" x="99.4102" y="-326.9" font-family="Arial" font-size="14.00" fill="#666666">[varchar(20)]</text>
<polygon fill="none" stroke="#000000" points="46.5,-285.5 46.5,-315.5 401.5,-315.5 401.5,-285.5 46.5,-285.5"/>
<text text-anchor="start" x="53.5" y="-296.9" font-family="Arial" font-size="14.00" fill="#000000">hsncode </text>
<text text-anchor="start" x="110.3036" y="-296.9" font-family="Arial" font-size="14.00" fill="#666666">[varchar(200)]</text>
<polygon fill="none" stroke="#000000" points="46.5,-255.5 46.5,-285.5 401.5,-285.5 401.5,-255.5 46.5,-255.5"/>
<text text-anchor="start" x="53.5" y="-266.9" font-family="Arial" font-size="14.00" fill="#000000">taxcode </text>
<text text-anchor="start" x="106.4116" y="-266.9" font-family="Arial" font-size="14.00" fill="#666666">[varchar(50)]</text>
<polygon fill="none" stroke="#000000" points="46.5,-225.5 46.5,-255.5 401.5,-255.5 401.5,-225.5 46.5,-225.5"/>
<text text-anchor="start" x="53.5" y="-236.9" font-family="Arial" font-size="14.00" fill="#000000">taxtype </text>
<text text-anchor="start" x="102.5196" y="-236.9" font-family="Arial" font-size="14.00" fill="#666666">[varchar(20)]</text>
<polygon fill="none" stroke="#000000" points="46.5,-195.5 46.5,-225.5 401.5,-225.5 401.5,-195.5 46.5,-195.5"/>
<text text-anchor="start" x="53.5" y="-206.9" font-family="Arial" font-size="14.00" fill="#000000">igstrate </text>
<text text-anchor="start" x="103.2868" y="-206.9" font-family="Arial" font-size="14.00" fill="#666666">[numeric(15,2)]</text>
<polygon fill="none" stroke="#000000" points="46.5,-165.5 46.5,-195.5 401.5,-195.5 401.5,-165.5 46.5,-165.5"/>
<text text-anchor="start" x="53.5" y="-176.9" font-family="Arial" font-size="14.00" fill="#000000">sgstrate </text>
<text text-anchor="start" x="107.1802" y="-176.9" font-family="Arial" font-size="14.00" fill="#666666">[numeric(15,2)]</text>
<polygon fill="none" stroke="#000000" points="46.5,-135.5 46.5,-165.5 401.5,-165.5 401.5,-135.5 46.5,-135.5"/>
<text text-anchor="start" x="53.5" y="-146.9" font-family="Arial" font-size="14.00" fill="#000000">cgstrate </text>
<text text-anchor="start" x="107.1802" y="-146.9" font-family="Arial" font-size="14.00" fill="#666666">[numeric(15,2)]</text>
<polygon fill="none" stroke="#000000" points="46.5,-105.5 46.5,-135.5 401.5,-135.5 401.5,-105.5 46.5,-105.5"/>
<text text-anchor="start" x="53.5" y="-116.9" font-family="Arial" font-size="14.00" fill="#000000">cessrate </text>
<text text-anchor="start" x="110.2896" y="-116.9" font-family="Arial" font-size="14.00" fill="#666666">[numeric(15,2)]</text>
<polygon fill="none" stroke="#000000" points="46.5,-75.5 46.5,-105.5 401.5,-105.5 401.5,-75.5 46.5,-75.5"/>
<text text-anchor="start" x="53.5" y="-86.9" font-family="Arial" font-size="14.00" fill="#000000">effectivefrom </text>
<text text-anchor="start" x="137.5112" y="-86.9" font-family="Arial" font-size="14.00" fill="#666666">[date]</text>
<polygon fill="none" stroke="#000000" points="46.5,-45.5 46.5,-75.5 401.5,-75.5 401.5,-45.5 46.5,-45.5"/>
<text text-anchor="start" x="53.5" y="-56.9" font-family="Arial" font-size="14.00" fill="#000000">effectiveto </text>
<text text-anchor="start" x="121.19" y="-56.9" font-family="Arial" font-size="14.00" fill="#666666">[date]</text>
<polygon fill="none" stroke="#000000" stroke-width="3" points="44.5,-44.5 44.5,-412.5 402.5,-412.5 402.5,-44.5 44.5,-44.5"/>
</g>
</g>
</svg>
