<?xml version="1.0" encoding="UTF-8" standalone="no"?>
<!DOCTYPE svg PUBLIC "-//W3C//DTD SVG 1.1//EN"
 "http://www.w3.org/Graphics/SVG/1.1/DTD/svg11.dtd">
<!-- Generated by graphviz version 2.40.1 (20161225.0304)
 -->
<!-- Title: public.vw_dateperiods Pages: 1 -->
<svg width="369pt" height="255pt"
 viewBox="0.00 0.00 369.00 255.00" xmlns="http://www.w3.org/2000/svg" xmlns:xlink="http://www.w3.org/1999/xlink">
<g id="graph0" class="graph" transform="scale(1 1) rotate(0) translate(4 251)">
<title>public.vw_dateperiods</title>
<polygon fill="#ffffff" stroke="transparent" points="-4,4 -4,-251 365,-251 365,4 -4,4"/>
<!-- public.vw_dateperiods -->
<g id="node1" class="node">
<title>public.vw_dateperiods</title>
<polygon fill="#efefef" stroke="transparent" points="46.5,-165.5 46.5,-200.5 315.5,-200.5 315.5,-165.5 46.5,-165.5"/>
<polygon fill="none" stroke="#000000" points="46.5,-165.5 46.5,-200.5 315.5,-200.5 315.5,-165.5 46.5,-165.5"/>
<text text-anchor="start" x="53.097" y="-178.3" font-family="Arial Bold" font-size="18.00" fill="#000000">public.vw_dateperiods</text>
<text text-anchor="start" x="231.1386" y="-178.3" font-family="Arial" font-size="14.00" fill="#000000">    </text>
<text text-anchor="start" x="265.3434" y="-178.3" font-family="Arial" font-size="14.00" fill="#666666">[VIEW]</text>
<polygon fill="none" stroke="#000000" points="46.5,-135.5 46.5,-165.5 315.5,-165.5 315.5,-135.5 46.5,-135.5"/>
<text text-anchor="start" x="53.5" y="-146.9" font-family="Arial" font-size="14.00" fill="#000000">periodid </text>
<text text-anchor="start" x="107.1774" y="-146.9" font-family="Arial" font-size="14.00" fill="#666666">[integer]</text>
<polygon fill="none" stroke="#000000" points="46.5,-105.5 46.5,-135.5 315.5,-135.5 315.5,-105.5 46.5,-105.5"/>
<text text-anchor="start" x="53.5" y="-116.9" font-family="Arial" font-size="14.00" fill="#000000">periodname </text>
<text text-anchor="start" x="131.2966" y="-116.9" font-family="Arial" font-size="14.00" fill="#666666">[text]</text>
<polygon fill="none" stroke="#000000" points="46.5,-75.5 46.5,-105.5 315.5,-105.5 315.5,-75.5 46.5,-75.5"/>
<text text-anchor="start" x="53.5" y="-86.9" font-family="Arial" font-size="14.00" fill="#000000">fromdate </text>
<text text-anchor="start" x="112.6234" y="-86.9" font-family="Arial" font-size="14.00" fill="#666666">[date]</text>
<polygon fill="none" stroke="#000000" points="46.5,-45.5 46.5,-75.5 315.5,-75.5 315.5,-45.5 46.5,-45.5"/>
<text text-anchor="start" x="53.5" y="-56.9" font-family="Arial" font-size="14.00" fill="#000000">todate </text>
<text text-anchor="start" x="96.3022" y="-56.9" font-family="Arial" font-size="14.00" fill="#666666">[date]</text>
<polygon fill="none" stroke="#000000" stroke-width="3" points="44.5,-44.5 44.5,-202.5 316.5,-202.5 316.5,-44.5 44.5,-44.5"/>
</g>
</g>
</svg>
