<?xml version="1.0" encoding="UTF-8" standalone="no"?>
<!DOCTYPE svg PUBLIC "-//W3C//DTD SVG 1.1//EN"
 "http://www.w3.org/Graphics/SVG/1.1/DTD/svg11.dtd">
<!-- Generated by graphviz version 2.40.1 (20161225.0304)
 -->
<!-- Title: public.sale_so_stock_hold Pages: 1 -->
<svg width="451pt" height="405pt"
 viewBox="0.00 0.00 451.00 405.00" xmlns="http://www.w3.org/2000/svg" xmlns:xlink="http://www.w3.org/1999/xlink">
<g id="graph0" class="graph" transform="scale(1 1) rotate(0) translate(4 401)">
<title>public.sale_so_stock_hold</title>
<polygon fill="#ffffff" stroke="transparent" points="-4,4 -4,-401 447,-401 447,4 -4,4"/>
<!-- public.sale_so_stock_hold -->
<g id="node1" class="node">
<title>public.sale_so_stock_hold</title>
<polygon fill="#efefef" stroke="transparent" points="46.5,-315.5 46.5,-350.5 397.5,-350.5 397.5,-315.5 46.5,-315.5"/>
<polygon fill="none" stroke="#000000" points="46.5,-315.5 46.5,-350.5 397.5,-350.5 397.5,-315.5 46.5,-315.5"/>
<text text-anchor="start" x="53.1851" y="-328.3" font-family="Arial Bold" font-size="18.00" fill="#000000">public.sale_so_stock_hold</text>
<text text-anchor="start" x="263.2469" y="-328.3" font-family="Arial" font-size="14.00" fill="#000000">    </text>
<text text-anchor="start" x="297.4517" y="-328.3" font-family="Arial" font-size="14.00" fill="#666666">[BASE TABLE]</text>
<polygon fill="none" stroke="#000000" points="46.5,-285.5 46.5,-315.5 397.5,-315.5 397.5,-285.5 46.5,-285.5"/>
<text text-anchor="start" x="53.5" y="-296.9" font-family="Arial" font-size="14.00" fill="#000000">stock_hold_id </text>
<text text-anchor="start" x="142.9726" y="-296.9" font-family="Arial" font-size="14.00" fill="#666666">[integer]</text>
<polygon fill="none" stroke="#000000" points="46.5,-255.5 46.5,-285.5 397.5,-285.5 397.5,-255.5 46.5,-255.5"/>
<text text-anchor="start" x="53.5" y="-266.9" font-family="Arial" font-size="14.00" fill="#000000">sodetailid </text>
<text text-anchor="start" x="116.514" y="-266.9" font-family="Arial" font-size="14.00" fill="#666666">[integer]</text>
<polygon fill="none" stroke="#000000" points="46.5,-225.5 46.5,-255.5 397.5,-255.5 397.5,-225.5 46.5,-225.5"/>
<text text-anchor="start" x="53.5" y="-236.9" font-family="Arial" font-size="14.00" fill="#000000">soid </text>
<text text-anchor="start" x="83.0624" y="-236.9" font-family="Arial" font-size="14.00" fill="#666666">[integer]</text>
<polygon fill="none" stroke="#000000" points="46.5,-195.5 46.5,-225.5 397.5,-225.5 397.5,-195.5 46.5,-195.5"/>
<text text-anchor="start" x="53.5" y="-206.9" font-family="Arial" font-size="14.00" fill="#000000">itemid </text>
<text text-anchor="start" x="94.7202" y="-206.9" font-family="Arial" font-size="14.00" fill="#666666">[integer]</text>
<polygon fill="none" stroke="#000000" points="46.5,-165.5 46.5,-195.5 397.5,-195.5 397.5,-165.5 46.5,-165.5"/>
<text text-anchor="start" x="53.5" y="-176.9" font-family="Arial" font-size="14.00" fill="#000000">storeid </text>
<text text-anchor="start" x="99.3962" y="-176.9" font-family="Arial" font-size="14.00" fill="#666666">[integer]</text>
<polygon fill="none" stroke="#000000" points="46.5,-135.5 46.5,-165.5 397.5,-165.5 397.5,-135.5 46.5,-135.5"/>
<text text-anchor="start" x="53.5" y="-146.9" font-family="Arial" font-size="14.00" fill="#000000">holded_qty </text>
<text text-anchor="start" x="125.866" y="-146.9" font-family="Arial" font-size="14.00" fill="#666666">[numeric(15,7)]</text>
<polygon fill="none" stroke="#000000" points="46.5,-105.5 46.5,-135.5 397.5,-135.5 397.5,-105.5 46.5,-105.5"/>
<text text-anchor="start" x="53.5" y="-116.9" font-family="Arial" font-size="14.00" fill="#000000">holded_alt_qty </text>
<text text-anchor="start" x="148.4284" y="-116.9" font-family="Arial" font-size="14.00" fill="#666666">[numeric(15,7)]</text>
<polygon fill="none" stroke="#000000" points="46.5,-75.5 46.5,-105.5 397.5,-105.5 397.5,-75.5 46.5,-75.5"/>
<text text-anchor="start" x="53.5" y="-86.9" font-family="Arial" font-size="14.00" fill="#000000">pending_qty </text>
<text text-anchor="start" x="133.6486" y="-86.9" font-family="Arial" font-size="14.00" fill="#666666">[numeric(15,7)]</text>
<polygon fill="none" stroke="#000000" points="46.5,-45.5 46.5,-75.5 397.5,-75.5 397.5,-45.5 46.5,-45.5"/>
<text text-anchor="start" x="53.5" y="-56.9" font-family="Arial" font-size="14.00" fill="#000000">pending_alt_qty </text>
<text text-anchor="start" x="156.211" y="-56.9" font-family="Arial" font-size="14.00" fill="#666666">[numeric(15,7)]</text>
<polygon fill="none" stroke="#000000" stroke-width="3" points="44.5,-44.5 44.5,-352.5 398.5,-352.5 398.5,-44.5 44.5,-44.5"/>
</g>
</g>
</svg>
