<?xml version="1.0" encoding="UTF-8" standalone="no"?>
<!DOCTYPE svg PUBLIC "-//W3C//DTD SVG 1.1//EN"
 "http://www.w3.org/Graphics/SVG/1.1/DTD/svg11.dtd">
<!-- Generated by graphviz version 2.40.1 (20161225.0304)
 -->
<!-- Title: public.pur_poitemduedetail Pages: 1 -->
<svg width="816pt" height="4162pt"
 viewBox="0.00 0.00 816.00 4162.00" xmlns="http://www.w3.org/2000/svg" xmlns:xlink="http://www.w3.org/1999/xlink">
<g id="graph0" class="graph" transform="scale(1 1) rotate(0) translate(4 4158)">
<title>public.pur_poitemduedetail</title>
<polygon fill="#ffffff" stroke="transparent" points="-4,4 -4,-4158 812,-4158 812,4 -4,4"/>
<!-- public.pur_poitemduedetail -->
<g id="node1" class="node">
<title>public.pur_poitemduedetail</title>
<polygon fill="#efefef" stroke="transparent" points="406,-4072.5 406,-4107.5 762,-4107.5 762,-4072.5 406,-4072.5"/>
<polygon fill="none" stroke="#000000" points="406,-4072.5 406,-4107.5 762,-4107.5 762,-4072.5 406,-4072.5"/>
<text text-anchor="start" x="412.6885" y="-4085.3" font-family="Arial Bold" font-size="18.00" fill="#000000">public.pur_poitemduedetail</text>
<text text-anchor="start" x="627.7435" y="-4085.3" font-family="Arial" font-size="14.00" fill="#000000">    </text>
<text text-anchor="start" x="661.9483" y="-4085.3" font-family="Arial" font-size="14.00" fill="#666666">[BASE TABLE]</text>
<polygon fill="none" stroke="#000000" points="406,-4042.5 406,-4072.5 762,-4072.5 762,-4042.5 406,-4042.5"/>
<text text-anchor="start" x="413" y="-4053.9" font-family="Arial" font-size="14.00" fill="#000000">poduedetailid </text>
<text text-anchor="start" x="500.1444" y="-4053.9" font-family="Arial" font-size="14.00" fill="#666666">[integer]</text>
<polygon fill="none" stroke="#000000" points="406,-4012.5 406,-4042.5 762,-4042.5 762,-4012.5 406,-4012.5"/>
<text text-anchor="start" x="413" y="-4023.9" font-family="Arial" font-size="14.00" fill="#000000">dueitemid </text>
<text text-anchor="start" x="477.568" y="-4023.9" font-family="Arial" font-size="14.00" fill="#666666">[integer]</text>
<polygon fill="none" stroke="#000000" points="406,-3982.5 406,-4012.5 762,-4012.5 762,-3982.5 406,-3982.5"/>
<text text-anchor="start" x="413" y="-3993.9" font-family="Arial" font-size="14.00" fill="#000000">poid </text>
<text text-anchor="start" x="443.345" y="-3993.9" font-family="Arial" font-size="14.00" fill="#666666">[integer]</text>
<polygon fill="none" stroke="#000000" points="406,-3952.5 406,-3982.5 762,-3982.5 762,-3952.5 406,-3952.5"/>
<text text-anchor="start" x="413" y="-3963.9" font-family="Arial" font-size="14.00" fill="#000000">duedate </text>
<text text-anchor="start" x="467.4768" y="-3963.9" font-family="Arial" font-size="14.00" fill="#666666">[date]</text>
<polygon fill="none" stroke="#000000" points="406,-3922.5 406,-3952.5 762,-3952.5 762,-3922.5 406,-3922.5"/>
<text text-anchor="start" x="413" y="-3933.9" font-family="Arial" font-size="14.00" fill="#000000">baseqty </text>
<text text-anchor="start" x="465.9116" y="-3933.9" font-family="Arial" font-size="14.00" fill="#666666">[numeric(15,5)]</text>
<polygon fill="none" stroke="#000000" points="406,-3892.5 406,-3922.5 762,-3922.5 762,-3892.5 406,-3892.5"/>
<text text-anchor="start" x="413" y="-3903.9" font-family="Arial" font-size="14.00" fill="#000000">altqty </text>
<text text-anchor="start" x="450.3436" y="-3903.9" font-family="Arial" font-size="14.00" fill="#666666">[numeric(15,5)]</text>
<polygon fill="none" stroke="#000000" points="406,-3862.5 406,-3892.5 762,-3892.5 762,-3862.5 406,-3862.5"/>
<text text-anchor="start" x="413" y="-3873.9" font-family="Arial" font-size="14.00" fill="#000000">scheduleno </text>
<text text-anchor="start" x="488.4754" y="-3873.9" font-family="Arial" font-size="14.00" fill="#666666">[numeric(14,0)]</text>
<polygon fill="none" stroke="#000000" points="406,-3832.5 406,-3862.5 762,-3862.5 762,-3832.5 406,-3832.5"/>
<text text-anchor="start" x="413" y="-3843.9" font-family="Arial" font-size="14.00" fill="#000000">termconditiontemplateid </text>
<text text-anchor="start" x="565.4698" y="-3843.9" font-family="Arial" font-size="14.00" fill="#666666">[integer]</text>
<polygon fill="none" stroke="#000000" points="406,-3802.5 406,-3832.5 762,-3832.5 762,-3802.5 406,-3802.5"/>
<text text-anchor="start" x="413" y="-3813.9" font-family="Arial" font-size="14.00" fill="#000000">isauthorized </text>
<text text-anchor="start" x="492.3506" y="-3813.9" font-family="Arial" font-size="14.00" fill="#666666">[boolean]</text>
<polygon fill="none" stroke="#000000" points="406,-3772.5 406,-3802.5 762,-3802.5 762,-3772.5 406,-3772.5"/>
<text text-anchor="start" x="413" y="-3783.9" font-family="Arial" font-size="14.00" fill="#000000">authorizedby </text>
<text text-anchor="start" x="497.0266" y="-3783.9" font-family="Arial" font-size="14.00" fill="#666666">[integer]</text>
<polygon fill="none" stroke="#000000" points="406,-3742.5 406,-3772.5 762,-3772.5 762,-3742.5 406,-3742.5"/>
<text text-anchor="start" x="413" y="-3753.9" font-family="Arial" font-size="14.00" fill="#000000">authorizedon </text>
<text text-anchor="start" x="497.8092" y="-3753.9" font-family="Arial" font-size="14.00" fill="#666666">[timestamp without time zone]</text>
<polygon fill="none" stroke="#000000" points="406,-3712.5 406,-3742.5 762,-3742.5 762,-3712.5 406,-3712.5"/>
<text text-anchor="start" x="413" y="-3723.9" font-family="Arial" font-size="14.00" fill="#000000">editlog </text>
<text text-anchor="start" x="458.1248" y="-3723.9" font-family="Arial" font-size="14.00" fill="#666666">[text]</text>
<polygon fill="none" stroke="#000000" points="406,-3682.5 406,-3712.5 762,-3712.5 762,-3682.5 406,-3682.5"/>
<text text-anchor="start" x="413" y="-3693.9" font-family="Arial" font-size="14.00" fill="#000000">podetailid </text>
<text text-anchor="start" x="476.7966" y="-3693.9" font-family="Arial" font-size="14.00" fill="#666666">[integer]</text>
<polygon fill="none" stroke="#000000" points="406,-3652.5 406,-3682.5 762,-3682.5 762,-3652.5 406,-3652.5"/>
<text text-anchor="start" x="413" y="-3663.9" font-family="Arial" font-size="14.00" fill="#000000">scheduleid </text>
<text text-anchor="start" x="483.7994" y="-3663.9" font-family="Arial" font-size="14.00" fill="#666666">[integer]</text>
<polygon fill="none" stroke="#000000" points="406,-3622.5 406,-3652.5 762,-3652.5 762,-3622.5 406,-3622.5"/>
<text text-anchor="start" x="413" y="-3633.9" font-family="Arial" font-size="14.00" fill="#000000">partyscheduleno </text>
<text text-anchor="start" x="519.5918" y="-3633.9" font-family="Arial" font-size="14.00" fill="#666666">[varchar(50)]</text>
<polygon fill="none" stroke="#000000" points="406,-3592.5 406,-3622.5 762,-3622.5 762,-3592.5 406,-3592.5"/>
<text text-anchor="start" x="413" y="-3603.9" font-family="Arial" font-size="14.00" fill="#000000">requisitiondetailid </text>
<text text-anchor="start" x="525.0154" y="-3603.9" font-family="Arial" font-size="14.00" fill="#666666">[integer]</text>
<polygon fill="none" stroke="#000000" points="406,-3562.5 406,-3592.5 762,-3592.5 762,-3562.5 406,-3562.5"/>
<text text-anchor="start" x="413" y="-3573.9" font-family="Arial" font-size="14.00" fill="#000000">remarks </text>
<text text-anchor="start" x="467.4376" y="-3573.9" font-family="Arial" font-size="14.00" fill="#666666">[varchar(200)]</text>
<polygon fill="none" stroke="#000000" points="406,-3532.5 406,-3562.5 762,-3562.5 762,-3532.5 406,-3532.5"/>
<text text-anchor="start" x="413" y="-3543.9" font-family="Arial" font-size="14.00" fill="#000000">isclosed </text>
<text text-anchor="start" x="467.4516" y="-3543.9" font-family="Arial" font-size="14.00" fill="#666666">[boolean]</text>
<polygon fill="none" stroke="#000000" points="406,-3502.5 406,-3532.5 762,-3532.5 762,-3502.5 406,-3502.5"/>
<text text-anchor="start" x="413" y="-3513.9" font-family="Arial" font-size="14.00" fill="#000000">updatedby </text>
<text text-anchor="start" x="482.2594" y="-3513.9" font-family="Arial" font-size="14.00" fill="#666666">[integer]</text>
<polygon fill="none" stroke="#000000" points="406,-3472.5 406,-3502.5 762,-3502.5 762,-3472.5 406,-3472.5"/>
<text text-anchor="start" x="413" y="-3483.9" font-family="Arial" font-size="14.00" fill="#000000">updatedon </text>
<text text-anchor="start" x="483.042" y="-3483.9" font-family="Arial" font-size="14.00" fill="#666666">[timestamp(6) without time zone]</text>
<polygon fill="none" stroke="#000000" stroke-width="3" points="404.5,-3471.5 404.5,-4109.5 763.5,-4109.5 763.5,-3471.5 404.5,-3471.5"/>
</g>
<!-- public.pur_purchaseorder -->
<g id="node2" class="node">
<title>public.pur_purchaseorder</title>
<polygon fill="#efefef" stroke="transparent" points="411,-3312.5 411,-3347.5 756,-3347.5 756,-3312.5 411,-3312.5"/>
<polygon fill="none" stroke="#000000" points="411,-3312.5 411,-3347.5 756,-3347.5 756,-3312.5 411,-3312.5"/>
<text text-anchor="start" x="417.6929" y="-3325.3" font-family="Arial Bold" font-size="18.00" fill="#000000">public.pur_purchaseorder</text>
<text text-anchor="start" x="621.7391" y="-3325.3" font-family="Arial" font-size="14.00" fill="#000000">    </text>
<text text-anchor="start" x="655.9439" y="-3325.3" font-family="Arial" font-size="14.00" fill="#666666">[BASE TABLE]</text>
<polygon fill="none" stroke="#000000" points="411,-3282.5 411,-3312.5 756,-3312.5 756,-3282.5 411,-3282.5"/>
<text text-anchor="start" x="418" y="-3293.9" font-family="Arial" font-size="14.00" fill="#000000">poid    </text>
<text text-anchor="start" x="478.6592" y="-3293.9" font-family="Arial" font-size="14.00" fill="#666666">[integer]</text>
<polygon fill="none" stroke="#000000" points="411,-3252.5 411,-3282.5 756,-3282.5 756,-3252.5 411,-3252.5"/>
<text text-anchor="start" x="418" y="-3263.9" font-family="Arial" font-size="14.00" fill="#000000">podate    </text>
<text text-anchor="start" x="495.0084" y="-3263.9" font-family="Arial" font-size="14.00" fill="#666666">[date]</text>
<polygon fill="none" stroke="#000000" points="411,-3222.5 411,-3252.5 756,-3252.5 756,-3222.5 411,-3222.5"/>
<text text-anchor="start" x="418" y="-3233.9" font-family="Arial" font-size="14.00" fill="#000000">branchid    </text>
<text text-anchor="start" x="505.885" y="-3233.9" font-family="Arial" font-size="14.00" fill="#666666">[integer]</text>
<polygon fill="none" stroke="#000000" points="411,-3192.5 411,-3222.5 756,-3222.5 756,-3192.5 411,-3192.5"/>
<text text-anchor="start" x="418" y="-3203.9" font-family="Arial" font-size="14.00" fill="#000000">partyid    </text>
<text text-anchor="start" x="494.2104" y="-3203.9" font-family="Arial" font-size="14.00" fill="#666666">[integer]</text>
<polygon fill="none" stroke="#000000" points="411,-3162.5 411,-3192.5 756,-3192.5 756,-3162.5 411,-3162.5"/>
<text text-anchor="start" x="418" y="-3173.9" font-family="Arial" font-size="14.00" fill="#000000">ponumber    </text>
<text text-anchor="start" x="515.2216" y="-3173.9" font-family="Arial" font-size="14.00" fill="#666666">[varchar(50)]</text>
<polygon fill="none" stroke="#000000" points="411,-3132.5 411,-3162.5 756,-3162.5 756,-3132.5 411,-3132.5"/>
<text text-anchor="start" x="418" y="-3143.9" font-family="Arial" font-size="14.00" fill="#000000">bookno    </text>
<text text-anchor="start" x="498.1178" y="-3143.9" font-family="Arial" font-size="14.00" fill="#666666">[varchar(20)]</text>
<polygon fill="none" stroke="#000000" points="411,-3102.5 411,-3132.5 756,-3132.5 756,-3102.5 411,-3102.5"/>
<text text-anchor="start" x="418" y="-3113.9" font-family="Arial" font-size="14.00" fill="#000000">isopenpo    </text>
<text text-anchor="start" x="509.007" y="-3113.9" font-family="Arial" font-size="14.00" fill="#666666">[boolean]</text>
<polygon fill="none" stroke="#000000" points="411,-3072.5 411,-3102.5 756,-3102.5 756,-3072.5 411,-3072.5"/>
<text text-anchor="start" x="418" y="-3083.9" font-family="Arial" font-size="14.00" fill="#000000">grossamount    </text>
<text text-anchor="start" x="533.1122" y="-3083.9" font-family="Arial" font-size="14.00" fill="#666666">[numeric(21,9)]</text>
<polygon fill="none" stroke="#000000" points="411,-3042.5 411,-3072.5 756,-3072.5 756,-3042.5 411,-3042.5"/>
<text text-anchor="start" x="418" y="-3053.9" font-family="Arial" font-size="14.00" fill="#000000">totalamount    </text>
<text text-anchor="start" x="525.3394" y="-3053.9" font-family="Arial" font-size="14.00" fill="#666666">[numeric(21,9)]</text>
<polygon fill="none" stroke="#000000" points="411,-3012.5 411,-3042.5 756,-3042.5 756,-3012.5 411,-3012.5"/>
<text text-anchor="start" x="418" y="-3023.9" font-family="Arial" font-size="14.00" fill="#000000">isexciseonmrp    </text>
<text text-anchor="start" x="541.6522" y="-3023.9" font-family="Arial" font-size="14.00" fill="#666666">[boolean]</text>
<polygon fill="none" stroke="#000000" points="411,-2982.5 411,-3012.5 756,-3012.5 756,-2982.5 411,-2982.5"/>
<text text-anchor="start" x="418" y="-2993.9" font-family="Arial" font-size="14.00" fill="#000000">effectiveto    </text>
<text text-anchor="start" x="516.0042" y="-2993.9" font-family="Arial" font-size="14.00" fill="#666666">[date]</text>
<polygon fill="none" stroke="#000000" points="411,-2952.5 411,-2982.5 756,-2982.5 756,-2952.5 411,-2952.5"/>
<text text-anchor="start" x="418" y="-2963.9" font-family="Arial" font-size="14.00" fill="#000000">dispatchdocno    </text>
<text text-anchor="start" x="542.4628" y="-2963.9" font-family="Arial" font-size="14.00" fill="#666666">[varchar(10)]</text>
<polygon fill="none" stroke="#000000" points="411,-2922.5 411,-2952.5 756,-2952.5 756,-2922.5 411,-2922.5"/>
<text text-anchor="start" x="418" y="-2933.9" font-family="Arial" font-size="14.00" fill="#000000">dispatchdocdate    </text>
<text text-anchor="start" x="554.136" y="-2933.9" font-family="Arial" font-size="14.00" fill="#666666">[date]</text>
<polygon fill="none" stroke="#000000" points="411,-2892.5 411,-2922.5 756,-2922.5 756,-2892.5 411,-2892.5"/>
<text text-anchor="start" x="418" y="-2903.9" font-family="Arial" font-size="14.00" fill="#000000">termsofpayment    </text>
<text text-anchor="start" x="552.554" y="-2903.9" font-family="Arial" font-size="14.00" fill="#666666">[varchar(200)]</text>
<polygon fill="none" stroke="#000000" points="411,-2862.5 411,-2892.5 756,-2892.5 756,-2862.5 411,-2862.5"/>
<text text-anchor="start" x="418" y="-2873.9" font-family="Arial" font-size="14.00" fill="#000000">freightcharges    </text>
<text text-anchor="start" x="540.892" y="-2873.9" font-family="Arial" font-size="14.00" fill="#666666">[numeric(21,9)]</text>
<polygon fill="none" stroke="#000000" points="411,-2832.5 411,-2862.5 756,-2862.5 756,-2832.5 411,-2832.5"/>
<text text-anchor="start" x="418" y="-2843.9" font-family="Arial" font-size="14.00" fill="#000000">modeoftransport    </text>
<text text-anchor="start" x="554.1192" y="-2843.9" font-family="Arial" font-size="14.00" fill="#666666">[varchar(20)]</text>
<polygon fill="none" stroke="#000000" points="411,-2802.5 411,-2832.5 756,-2832.5 756,-2802.5 411,-2802.5"/>
<text text-anchor="start" x="418" y="-2813.9" font-family="Arial" font-size="14.00" fill="#000000">insurance    </text>
<text text-anchor="start" x="512.885" y="-2813.9" font-family="Arial" font-size="14.00" fill="#666666">[varchar(30)]</text>
<polygon fill="none" stroke="#000000" points="411,-2772.5 411,-2802.5 756,-2802.5 756,-2772.5 411,-2772.5"/>
<text text-anchor="start" x="418" y="-2783.9" font-family="Arial" font-size="14.00" fill="#000000">other    </text>
<text text-anchor="start" x="484.1038" y="-2783.9" font-family="Arial" font-size="14.00" fill="#666666">[varchar(50)]</text>
<polygon fill="none" stroke="#000000" points="411,-2742.5 411,-2772.5 756,-2772.5 756,-2742.5 411,-2742.5"/>
<text text-anchor="start" x="418" y="-2753.9" font-family="Arial" font-size="14.00" fill="#000000">note    </text>
<text text-anchor="start" x="479.4432" y="-2753.9" font-family="Arial" font-size="14.00" fill="#666666">[varchar(100)]</text>
<polygon fill="none" stroke="#000000" points="411,-2712.5 411,-2742.5 756,-2742.5 756,-2712.5 411,-2712.5"/>
<text text-anchor="start" x="418" y="-2723.9" font-family="Arial" font-size="14.00" fill="#000000">deliveryperiod    </text>
<text text-anchor="start" x="539.324" y="-2723.9" font-family="Arial" font-size="14.00" fill="#666666">[varchar(100)]</text>
<polygon fill="none" stroke="#000000" points="411,-2682.5 411,-2712.5 756,-2712.5 756,-2682.5 411,-2682.5"/>
<text text-anchor="start" x="418" y="-2693.9" font-family="Arial" font-size="14.00" fill="#000000">taxtemplateid    </text>
<text text-anchor="start" x="535.446" y="-2693.9" font-family="Arial" font-size="14.00" fill="#666666">[integer]</text>
<polygon fill="none" stroke="#000000" points="411,-2652.5 411,-2682.5 756,-2682.5 756,-2652.5 411,-2652.5"/>
<text text-anchor="start" x="418" y="-2663.9" font-family="Arial" font-size="14.00" fill="#000000">packingforwarding    </text>
<text text-anchor="start" x="565.7798" y="-2663.9" font-family="Arial" font-size="14.00" fill="#666666">[varchar(30)]</text>
<polygon fill="none" stroke="#000000" points="411,-2622.5 411,-2652.5 756,-2652.5 756,-2622.5 411,-2622.5"/>
<text text-anchor="start" x="418" y="-2633.9" font-family="Arial" font-size="14.00" fill="#000000">packingforwardingrate    </text>
<text text-anchor="start" x="589.8962" y="-2633.9" font-family="Arial" font-size="14.00" fill="#666666">[numeric(21,9)]</text>
<polygon fill="none" stroke="#000000" points="411,-2592.5 411,-2622.5 756,-2622.5 756,-2592.5 411,-2592.5"/>
<text text-anchor="start" x="418" y="-2603.9" font-family="Arial" font-size="14.00" fill="#000000">pf    </text>
<text text-anchor="start" x="463.878" y="-2603.9" font-family="Arial" font-size="14.00" fill="#666666">[varchar(20)]</text>
<polygon fill="none" stroke="#000000" points="411,-2562.5 411,-2592.5 756,-2592.5 756,-2562.5 411,-2562.5"/>
<text text-anchor="start" x="418" y="-2573.9" font-family="Arial" font-size="14.00" fill="#000000">authorizedby    </text>
<text text-anchor="start" x="532.3408" y="-2573.9" font-family="Arial" font-size="14.00" fill="#666666">[integer]</text>
<polygon fill="none" stroke="#000000" points="411,-2532.5 411,-2562.5 756,-2562.5 756,-2532.5 411,-2532.5"/>
<text text-anchor="start" x="418" y="-2543.9" font-family="Arial" font-size="14.00" fill="#000000">authorizedon    </text>
<text text-anchor="start" x="533.1234" y="-2543.9" font-family="Arial" font-size="14.00" fill="#666666">[timestamp without time zone]</text>
<polygon fill="none" stroke="#000000" points="411,-2502.5 411,-2532.5 756,-2532.5 756,-2502.5 411,-2502.5"/>
<text text-anchor="start" x="418" y="-2513.9" font-family="Arial" font-size="14.00" fill="#000000">amendby    </text>
<text text-anchor="start" x="509.7784" y="-2513.9" font-family="Arial" font-size="14.00" fill="#666666">[integer]</text>
<polygon fill="none" stroke="#000000" points="411,-2472.5 411,-2502.5 756,-2502.5 756,-2472.5 411,-2472.5"/>
<text text-anchor="start" x="418" y="-2483.9" font-family="Arial" font-size="14.00" fill="#000000">isaccepted    </text>
<text text-anchor="start" x="519.115" y="-2483.9" font-family="Arial" font-size="14.00" fill="#666666">[boolean]</text>
<polygon fill="none" stroke="#000000" points="411,-2442.5 411,-2472.5 756,-2472.5 756,-2442.5 411,-2442.5"/>
<text text-anchor="start" x="418" y="-2453.9" font-family="Arial" font-size="14.00" fill="#000000">isclosed    </text>
<text text-anchor="start" x="502.7658" y="-2453.9" font-family="Arial" font-size="14.00" fill="#666666">[boolean]</text>
<polygon fill="none" stroke="#000000" points="411,-2412.5 411,-2442.5 756,-2442.5 756,-2412.5 411,-2412.5"/>
<text text-anchor="start" x="418" y="-2423.9" font-family="Arial" font-size="14.00" fill="#000000">createdby    </text>
<text text-anchor="start" x="513.669" y="-2423.9" font-family="Arial" font-size="14.00" fill="#666666">[integer]</text>
<polygon fill="none" stroke="#000000" points="411,-2382.5 411,-2412.5 756,-2412.5 756,-2382.5 411,-2382.5"/>
<text text-anchor="start" x="418" y="-2393.9" font-family="Arial" font-size="14.00" fill="#000000">isauthorized    </text>
<text text-anchor="start" x="527.6648" y="-2393.9" font-family="Arial" font-size="14.00" fill="#666666">[boolean]</text>
<polygon fill="none" stroke="#000000" points="411,-2352.5 411,-2382.5 756,-2382.5 756,-2352.5 411,-2352.5"/>
<text text-anchor="start" x="418" y="-2363.9" font-family="Arial" font-size="14.00" fill="#000000">iscancelled    </text>
<text text-anchor="start" x="521.4376" y="-2363.9" font-family="Arial" font-size="14.00" fill="#666666">[boolean]</text>
<polygon fill="none" stroke="#000000" points="411,-2322.5 411,-2352.5 756,-2352.5 756,-2322.5 411,-2322.5"/>
<text text-anchor="start" x="418" y="-2333.9" font-family="Arial" font-size="14.00" fill="#000000">seriescode    </text>
<text text-anchor="start" x="519.885" y="-2333.9" font-family="Arial" font-size="14.00" fill="#666666">[varchar(50)]</text>
<polygon fill="none" stroke="#000000" points="411,-2292.5 411,-2322.5 756,-2322.5 756,-2292.5 411,-2292.5"/>
<text text-anchor="start" x="418" y="-2303.9" font-family="Arial" font-size="14.00" fill="#000000">seriesno    </text>
<text text-anchor="start" x="505.1024" y="-2303.9" font-family="Arial" font-size="14.00" fill="#666666">[integer]</text>
<polygon fill="none" stroke="#000000" points="411,-2262.5 411,-2292.5 756,-2292.5 756,-2262.5 411,-2262.5"/>
<text text-anchor="start" x="418" y="-2273.9" font-family="Arial" font-size="14.00" fill="#000000">ordertype    </text>
<text text-anchor="start" x="511.3296" y="-2273.9" font-family="Arial" font-size="14.00" fill="#666666">[varchar(20)]</text>
<polygon fill="none" stroke="#000000" points="411,-2232.5 411,-2262.5 756,-2262.5 756,-2232.5 411,-2232.5"/>
<text text-anchor="start" x="418" y="-2243.9" font-family="Arial" font-size="14.00" fill="#000000">currencyid    </text>
<text text-anchor="start" x="516.763" y="-2243.9" font-family="Arial" font-size="14.00" fill="#666666">[integer]</text>
<polygon fill="none" stroke="#000000" points="411,-2202.5 411,-2232.5 756,-2232.5 756,-2202.5 411,-2202.5"/>
<text text-anchor="start" x="418" y="-2213.9" font-family="Arial" font-size="14.00" fill="#000000">exchangerate    </text>
<text text-anchor="start" x="537.0168" y="-2213.9" font-family="Arial" font-size="14.00" fill="#666666">[numeric(21,9)]</text>
<polygon fill="none" stroke="#000000" points="411,-2172.5 411,-2202.5 756,-2202.5 756,-2172.5 411,-2172.5"/>
<text text-anchor="start" x="418" y="-2183.9" font-family="Arial" font-size="14.00" fill="#000000">orderedby    </text>
<text text-anchor="start" x="515.2216" y="-2183.9" font-family="Arial" font-size="14.00" fill="#666666">[integer]</text>
<polygon fill="none" stroke="#000000" points="411,-2142.5 411,-2172.5 756,-2172.5 756,-2142.5 411,-2142.5"/>
<text text-anchor="start" x="418" y="-2153.9" font-family="Arial" font-size="14.00" fill="#000000">quotationid    </text>
<text text-anchor="start" x="520.6774" y="-2153.9" font-family="Arial" font-size="14.00" fill="#666666">[integer]</text>
<polygon fill="none" stroke="#000000" points="411,-2112.5 411,-2142.5 756,-2142.5 756,-2112.5 411,-2112.5"/>
<text text-anchor="start" x="418" y="-2123.9" font-family="Arial" font-size="14.00" fill="#000000">editlog    </text>
<text text-anchor="start" x="493.439" y="-2123.9" font-family="Arial" font-size="14.00" fill="#666666">[text]</text>
<polygon fill="none" stroke="#000000" points="411,-2082.5 411,-2112.5 756,-2112.5 756,-2082.5 411,-2082.5"/>
<text text-anchor="start" x="418" y="-2093.9" font-family="Arial" font-size="14.00" fill="#000000">createdon    </text>
<text text-anchor="start" x="514.4516" y="-2093.9" font-family="Arial" font-size="14.00" fill="#666666">[timestamp without time zone]</text>
<polygon fill="none" stroke="#000000" points="411,-2052.5 411,-2082.5 756,-2082.5 756,-2052.5 411,-2052.5"/>
<text text-anchor="start" x="418" y="-2063.9" font-family="Arial" font-size="14.00" fill="#000000">exportgrossamount    </text>
<text text-anchor="start" x="572.0112" y="-2063.9" font-family="Arial" font-size="14.00" fill="#666666">[numeric(21,9)]</text>
<polygon fill="none" stroke="#000000" points="411,-2022.5 411,-2052.5 756,-2052.5 756,-2022.5 411,-2022.5"/>
<text text-anchor="start" x="418" y="-2033.9" font-family="Arial" font-size="14.00" fill="#000000">exporttotalamount    </text>
<text text-anchor="start" x="564.2384" y="-2033.9" font-family="Arial" font-size="14.00" fill="#666666">[numeric(21,9)]</text>
<polygon fill="none" stroke="#000000" points="411,-1992.5 411,-2022.5 756,-2022.5 756,-1992.5 411,-1992.5"/>
<text text-anchor="start" x="418" y="-2003.9" font-family="Arial" font-size="14.00" fill="#000000">isexportpo    </text>
<text text-anchor="start" x="516.7756" y="-2003.9" font-family="Arial" font-size="14.00" fill="#666666">[boolean]</text>
<polygon fill="none" stroke="#000000" points="411,-1962.5 411,-1992.5 756,-1992.5 756,-1962.5 411,-1962.5"/>
<text text-anchor="start" x="418" y="-1973.9" font-family="Arial" font-size="14.00" fill="#000000">effectivefrom    </text>
<text text-anchor="start" x="532.3254" y="-1973.9" font-family="Arial" font-size="14.00" fill="#666666">[date]</text>
<polygon fill="none" stroke="#000000" points="411,-1932.5 411,-1962.5 756,-1962.5 756,-1932.5 411,-1932.5"/>
<text text-anchor="start" x="418" y="-1943.9" font-family="Arial" font-size="14.00" fill="#000000">termconditiontemplateid    </text>
<text text-anchor="start" x="600.784" y="-1943.9" font-family="Arial" font-size="14.00" fill="#666666">[integer]</text>
<polygon fill="none" stroke="#000000" points="411,-1902.5 411,-1932.5 756,-1932.5 756,-1902.5 411,-1902.5"/>
<text text-anchor="start" x="418" y="-1913.9" font-family="Arial" font-size="14.00" fill="#000000">seriesid    </text>
<text text-anchor="start" x="500.4264" y="-1913.9" font-family="Arial" font-size="14.00" fill="#666666">[integer]</text>
<polygon fill="none" stroke="#000000" points="411,-1872.5 411,-1902.5 756,-1902.5 756,-1872.5 411,-1872.5"/>
<text text-anchor="start" x="418" y="-1883.9" font-family="Arial" font-size="14.00" fill="#000000">headauthorizedby    </text>
<text text-anchor="start" x="563.4712" y="-1883.9" font-family="Arial" font-size="14.00" fill="#666666">[integer]</text>
<polygon fill="none" stroke="#000000" points="411,-1842.5 411,-1872.5 756,-1872.5 756,-1842.5 411,-1842.5"/>
<text text-anchor="start" x="417.803" y="-1853.9" font-family="Arial" font-size="14.00" fill="#000000">headauthorizedon    </text>
<text text-anchor="start" x="564.0568" y="-1853.9" font-family="Arial" font-size="14.00" fill="#666666">[timestamp without time zone]</text>
<polygon fill="none" stroke="#000000" points="411,-1812.5 411,-1842.5 756,-1842.5 756,-1812.5 411,-1812.5"/>
<text text-anchor="start" x="418" y="-1823.9" font-family="Arial" font-size="14.00" fill="#000000">cancellationreason    </text>
<text text-anchor="start" x="568.9018" y="-1823.9" font-family="Arial" font-size="14.00" fill="#666666">[text]</text>
<polygon fill="none" stroke="#000000" points="411,-1782.5 411,-1812.5 756,-1812.5 756,-1782.5 411,-1782.5"/>
<text text-anchor="start" x="418" y="-1793.9" font-family="Arial" font-size="14.00" fill="#000000">amendreason    </text>
<text text-anchor="start" x="537.7868" y="-1793.9" font-family="Arial" font-size="14.00" fill="#666666">[text]</text>
<polygon fill="none" stroke="#000000" points="411,-1752.5 411,-1782.5 756,-1782.5 756,-1752.5 411,-1752.5"/>
<text text-anchor="start" x="418" y="-1763.9" font-family="Arial" font-size="14.00" fill="#000000">ordervouchertype    </text>
<text text-anchor="start" x="561.1206" y="-1763.9" font-family="Arial" font-size="14.00" fill="#666666">[integer]</text>
<polygon fill="none" stroke="#000000" points="411,-1722.5 411,-1752.5 756,-1752.5 756,-1722.5 411,-1722.5"/>
<text text-anchor="start" x="418" y="-1733.9" font-family="Arial" font-size="14.00" fill="#000000">amendon    </text>
<text text-anchor="start" x="510.561" y="-1733.9" font-family="Arial" font-size="14.00" fill="#666666">[timestamp(6) without time zone]</text>
<polygon fill="none" stroke="#000000" points="411,-1692.5 411,-1722.5 756,-1722.5 756,-1692.5 411,-1692.5"/>
<text text-anchor="start" x="418" y="-1703.9" font-family="Arial" font-size="14.00" fill="#000000">billingaddress    </text>
<text text-anchor="start" x="537.77" y="-1703.9" font-family="Arial" font-size="14.00" fill="#666666">[text]</text>
<polygon fill="none" stroke="#000000" points="411,-1662.5 411,-1692.5 756,-1692.5 756,-1662.5 411,-1662.5"/>
<text text-anchor="start" x="418" y="-1673.9" font-family="Arial" font-size="14.00" fill="#000000">shippingaddress    </text>
<text text-anchor="start" x="554.122" y="-1673.9" font-family="Arial" font-size="14.00" fill="#666666">[text]</text>
<polygon fill="none" stroke="#000000" points="411,-1632.5 411,-1662.5 756,-1662.5 756,-1632.5 411,-1632.5"/>
<text text-anchor="start" x="418" y="-1643.9" font-family="Arial" font-size="14.00" fill="#000000">closereason    </text>
<text text-anchor="start" x="527.6676" y="-1643.9" font-family="Arial" font-size="14.00" fill="#666666">[text]</text>
<polygon fill="none" stroke="#000000" points="411,-1602.5 411,-1632.5 756,-1632.5 756,-1602.5 411,-1602.5"/>
<text text-anchor="start" x="418" y="-1613.9" font-family="Arial" font-size="14.00" fill="#000000">closingdate    </text>
<text text-anchor="start" x="523.0042" y="-1613.9" font-family="Arial" font-size="14.00" fill="#666666">[date]</text>
<polygon fill="none" stroke="#000000" points="411,-1572.5 411,-1602.5 756,-1602.5 756,-1572.5 411,-1572.5"/>
<text text-anchor="start" x="418" y="-1583.9" font-family="Arial" font-size="14.00" fill="#000000">cancellationdate    </text>
<text text-anchor="start" x="553.3492" y="-1583.9" font-family="Arial" font-size="14.00" fill="#666666">[date]</text>
<polygon fill="none" stroke="#000000" points="411,-1542.5 411,-1572.5 756,-1572.5 756,-1542.5 411,-1542.5"/>
<text text-anchor="start" x="418" y="-1553.9" font-family="Arial" font-size="14.00" fill="#000000">closedby    </text>
<text text-anchor="start" x="507.4418" y="-1553.9" font-family="Arial" font-size="14.00" fill="#666666">[smallint]</text>
<polygon fill="none" stroke="#000000" points="411,-1512.5 411,-1542.5 756,-1542.5 756,-1512.5 411,-1512.5"/>
<text text-anchor="start" x="418" y="-1523.9" font-family="Arial" font-size="14.00" fill="#000000">cancelledby    </text>
<text text-anchor="start" x="526.1136" y="-1523.9" font-family="Arial" font-size="14.00" fill="#666666">[smallint]</text>
<polygon fill="none" stroke="#000000" points="411,-1482.5 411,-1512.5 756,-1512.5 756,-1482.5 411,-1482.5"/>
<text text-anchor="start" x="418" y="-1493.9" font-family="Arial" font-size="14.00" fill="#000000">schedulefrom    </text>
<text text-anchor="start" x="536.2188" y="-1493.9" font-family="Arial" font-size="14.00" fill="#666666">[date]</text>
<polygon fill="none" stroke="#000000" points="411,-1452.5 411,-1482.5 756,-1482.5 756,-1452.5 411,-1452.5"/>
<text text-anchor="start" x="418" y="-1463.9" font-family="Arial" font-size="14.00" fill="#000000">scheduleto    </text>
<text text-anchor="start" x="519.8976" y="-1463.9" font-family="Arial" font-size="14.00" fill="#666666">[date]</text>
<polygon fill="none" stroke="#000000" points="411,-1422.5 411,-1452.5 756,-1452.5 756,-1422.5 411,-1422.5"/>
<text text-anchor="start" x="418" y="-1433.9" font-family="Arial" font-size="14.00" fill="#000000">srno    </text>
<text text-anchor="start" x="479.4306" y="-1433.9" font-family="Arial" font-size="14.00" fill="#666666">[integer]</text>
<polygon fill="none" stroke="#000000" points="411,-1392.5 411,-1422.5 756,-1422.5 756,-1392.5 411,-1392.5"/>
<text text-anchor="start" x="418" y="-1403.9" font-family="Arial" font-size="14.00" fill="#000000">seriesvouchertype    </text>
<text text-anchor="start" x="565.784" y="-1403.9" font-family="Arial" font-size="14.00" fill="#666666">[smallint]</text>
<polygon fill="none" stroke="#000000" points="411,-1362.5 411,-1392.5 756,-1392.5 756,-1362.5 411,-1362.5"/>
<text text-anchor="start" x="418" y="-1373.9" font-family="Arial" font-size="14.00" fill="#000000">unauthorizereason    </text>
<text text-anchor="start" x="568.1318" y="-1373.9" font-family="Arial" font-size="14.00" fill="#666666">[text]</text>
<polygon fill="none" stroke="#000000" points="411,-1332.5 411,-1362.5 756,-1362.5 756,-1332.5 411,-1332.5"/>
<text text-anchor="start" x="418" y="-1343.9" font-family="Arial" font-size="14.00" fill="#000000">range    </text>
<text text-anchor="start" x="487.9958" y="-1343.9" font-family="Arial" font-size="14.00" fill="#666666">[varchar(50)]</text>
<polygon fill="none" stroke="#000000" points="411,-1302.5 411,-1332.5 756,-1332.5 756,-1302.5 411,-1302.5"/>
<text text-anchor="start" x="418" y="-1313.9" font-family="Arial" font-size="14.00" fill="#000000">division    </text>
<text text-anchor="start" x="498.8724" y="-1313.9" font-family="Arial" font-size="14.00" fill="#666666">[varchar(50)]</text>
<polygon fill="none" stroke="#000000" points="411,-1272.5 411,-1302.5 756,-1302.5 756,-1272.5 411,-1272.5"/>
<text text-anchor="start" x="418" y="-1283.9" font-family="Arial" font-size="14.00" fill="#000000">collectorate    </text>
<text text-anchor="start" x="523.7728" y="-1283.9" font-family="Arial" font-size="14.00" fill="#666666">[varchar(50)]</text>
<polygon fill="none" stroke="#000000" points="411,-1242.5 411,-1272.5 756,-1272.5 756,-1242.5 411,-1242.5"/>
<text text-anchor="start" x="418" y="-1253.9" font-family="Arial" font-size="14.00" fill="#000000">eccno    </text>
<text text-anchor="start" x="489.5526" y="-1253.9" font-family="Arial" font-size="14.00" fill="#666666">[varchar(50)]</text>
<polygon fill="none" stroke="#000000" points="411,-1212.5 411,-1242.5 756,-1242.5 756,-1212.5 411,-1212.5"/>
<text text-anchor="start" x="418" y="-1223.9" font-family="Arial" font-size="14.00" fill="#000000">lstno    </text>
<text text-anchor="start" x="481.7672" y="-1223.9" font-family="Arial" font-size="14.00" fill="#666666">[varchar(50)]</text>
<polygon fill="none" stroke="#000000" points="411,-1182.5 411,-1212.5 756,-1212.5 756,-1182.5 411,-1182.5"/>
<text text-anchor="start" x="418" y="-1193.9" font-family="Arial" font-size="14.00" fill="#000000">cstno    </text>
<text text-anchor="start" x="485.6606" y="-1193.9" font-family="Arial" font-size="14.00" fill="#666666">[varchar(50)]</text>
<polygon fill="none" stroke="#000000" points="411,-1152.5 411,-1182.5 756,-1182.5 756,-1152.5 411,-1152.5"/>
<text text-anchor="start" x="418" y="-1163.9" font-family="Arial" font-size="14.00" fill="#000000">lastmodifieddate    </text>
<text text-anchor="start" x="554.1178" y="-1163.9" font-family="Arial" font-size="14.00" fill="#666666">[date]</text>
<polygon fill="none" stroke="#000000" points="411,-1122.5 411,-1152.5 756,-1152.5 756,-1122.5 411,-1122.5"/>
<text text-anchor="start" x="418" y="-1133.9" font-family="Arial" font-size="14.00" fill="#000000">lcid    </text>
<text text-anchor="start" x="473.2006" y="-1133.9" font-family="Arial" font-size="14.00" fill="#666666">[integer]</text>
<polygon fill="none" stroke="#000000" points="411,-1092.5 411,-1122.5 756,-1122.5 756,-1092.5 411,-1092.5"/>
<text text-anchor="start" x="418" y="-1103.9" font-family="Arial" font-size="14.00" fill="#000000">batchcardid    </text>
<text text-anchor="start" x="524.5582" y="-1103.9" font-family="Arial" font-size="14.00" fill="#666666">[integer]</text>
<polygon fill="none" stroke="#000000" points="411,-1062.5 411,-1092.5 756,-1092.5 756,-1062.5 411,-1062.5"/>
<text text-anchor="start" x="418" y="-1073.9" font-family="Arial" font-size="14.00" fill="#000000">pomasterrevisionno    </text>
<text text-anchor="start" x="574.3338" y="-1073.9" font-family="Arial" font-size="14.00" fill="#666666">[integer]</text>
<polygon fill="none" stroke="#000000" points="411,-1032.5 411,-1062.5 756,-1062.5 756,-1032.5 411,-1032.5"/>
<text text-anchor="start" x="418" y="-1043.9" font-family="Arial" font-size="14.00" fill="#000000">rejectionincludeinpendingpo    </text>
<text text-anchor="start" x="625.6998" y="-1043.9" font-family="Arial" font-size="14.00" fill="#666666">[boolean]</text>
<polygon fill="none" stroke="#000000" points="411,-1002.5 411,-1032.5 756,-1032.5 756,-1002.5 411,-1002.5"/>
<text text-anchor="start" x="418" y="-1013.9" font-family="Arial" font-size="14.00" fill="#000000">billingcountryid    </text>
<text text-anchor="start" x="544.7672" y="-1013.9" font-family="Arial" font-size="14.00" fill="#666666">[integer]</text>
<polygon fill="none" stroke="#000000" points="411,-972.5 411,-1002.5 756,-1002.5 756,-972.5 411,-972.5"/>
<text text-anchor="start" x="418" y="-983.9" font-family="Arial" font-size="14.00" fill="#000000">billingstateid    </text>
<text text-anchor="start" x="529.2146" y="-983.9" font-family="Arial" font-size="14.00" fill="#666666">[integer]</text>
<polygon fill="none" stroke="#000000" points="411,-942.5 411,-972.5 756,-972.5 756,-942.5 411,-942.5"/>
<text text-anchor="start" x="418" y="-953.9" font-family="Arial" font-size="14.00" fill="#000000">shippingcountryid    </text>
<text text-anchor="start" x="561.1192" y="-953.9" font-family="Arial" font-size="14.00" fill="#666666">[integer]</text>
<polygon fill="none" stroke="#000000" points="411,-912.5 411,-942.5 756,-942.5 756,-912.5 411,-912.5"/>
<text text-anchor="start" x="418" y="-923.9" font-family="Arial" font-size="14.00" fill="#000000">shippingstateid    </text>
<text text-anchor="start" x="545.5666" y="-923.9" font-family="Arial" font-size="14.00" fill="#666666">[integer]</text>
<polygon fill="none" stroke="#000000" points="411,-882.5 411,-912.5 756,-912.5 756,-882.5 411,-882.5"/>
<text text-anchor="start" x="418" y="-893.9" font-family="Arial" font-size="14.00" fill="#000000">shippinggstinno    </text>
<text text-anchor="start" x="549.4586" y="-893.9" font-family="Arial" font-size="14.00" fill="#666666">[varchar]</text>
<polygon fill="none" stroke="#000000" points="411,-852.5 411,-882.5 756,-882.5 756,-852.5 411,-852.5"/>
<text text-anchor="start" x="418" y="-863.9" font-family="Arial" font-size="14.00" fill="#000000">billinggstinno    </text>
<text text-anchor="start" x="533.1066" y="-863.9" font-family="Arial" font-size="14.00" fill="#666666">[varchar]</text>
<polygon fill="none" stroke="#000000" points="411,-822.5 411,-852.5 756,-852.5 756,-822.5 411,-822.5"/>
<text text-anchor="start" x="418" y="-833.9" font-family="Arial" font-size="14.00" fill="#000000">workordergenerationmasterid    </text>
<text text-anchor="start" x="634.2258" y="-833.9" font-family="Arial" font-size="14.00" fill="#666666">[integer]</text>
<polygon fill="none" stroke="#000000" points="411,-792.5 411,-822.5 756,-822.5 756,-792.5 411,-792.5"/>
<text text-anchor="start" x="418" y="-803.9" font-family="Arial" font-size="14.00" fill="#000000">credit_days    </text>
<text text-anchor="start" x="523.7756" y="-803.9" font-family="Arial" font-size="14.00" fill="#666666">[integer]</text>
<polygon fill="none" stroke="#000000" points="411,-762.5 411,-792.5 756,-792.5 756,-762.5 411,-762.5"/>
<text text-anchor="start" x="418" y="-773.9" font-family="Arial" font-size="14.00" fill="#000000">billingaddressfrmid    </text>
<text text-anchor="start" x="568.871" y="-773.9" font-family="Arial" font-size="14.00" fill="#666666">[integer]</text>
<polygon fill="none" stroke="#000000" points="411,-732.5 411,-762.5 756,-762.5 756,-732.5 411,-732.5"/>
<text text-anchor="start" x="418" y="-743.9" font-family="Arial" font-size="14.00" fill="#000000">shippingaddressfrmid    </text>
<text text-anchor="start" x="585.223" y="-743.9" font-family="Arial" font-size="14.00" fill="#666666">[integer]</text>
<polygon fill="none" stroke="#000000" points="411,-702.5 411,-732.5 756,-732.5 756,-702.5 411,-702.5"/>
<text text-anchor="start" x="418" y="-713.9" font-family="Arial" font-size="14.00" fill="#000000">billinggstinnofrm    </text>
<text text-anchor="start" x="553.3184" y="-713.9" font-family="Arial" font-size="14.00" fill="#666666">[varchar(50)]</text>
<polygon fill="none" stroke="#000000" points="411,-672.5 411,-702.5 756,-702.5 756,-672.5 411,-672.5"/>
<text text-anchor="start" x="418" y="-683.9" font-family="Arial" font-size="14.00" fill="#000000">shippinggstinnofrm    </text>
<text text-anchor="start" x="569.6704" y="-683.9" font-family="Arial" font-size="14.00" fill="#666666">[varchar(50)]</text>
<polygon fill="none" stroke="#000000" points="411,-642.5 411,-672.5 756,-672.5 756,-642.5 411,-642.5"/>
<text text-anchor="start" x="418" y="-653.9" font-family="Arial" font-size="14.00" fill="#000000">shippingcountryidfrm    </text>
<text text-anchor="start" x="581.331" y="-653.9" font-family="Arial" font-size="14.00" fill="#666666">[integer]</text>
<polygon fill="none" stroke="#000000" points="411,-612.5 411,-642.5 756,-642.5 756,-612.5 411,-612.5"/>
<text text-anchor="start" x="418" y="-623.9" font-family="Arial" font-size="14.00" fill="#000000">shippingstateidfrm    </text>
<text text-anchor="start" x="565.7784" y="-623.9" font-family="Arial" font-size="14.00" fill="#666666">[integer]</text>
<polygon fill="none" stroke="#000000" points="411,-582.5 411,-612.5 756,-612.5 756,-582.5 411,-582.5"/>
<text text-anchor="start" x="418" y="-593.9" font-family="Arial" font-size="14.00" fill="#000000">billingcountryidfrm    </text>
<text text-anchor="start" x="564.979" y="-593.9" font-family="Arial" font-size="14.00" fill="#666666">[integer]</text>
<polygon fill="none" stroke="#000000" points="411,-552.5 411,-582.5 756,-582.5 756,-552.5 411,-552.5"/>
<text text-anchor="start" x="418" y="-563.9" font-family="Arial" font-size="14.00" fill="#000000">billingstateidfrm    </text>
<text text-anchor="start" x="549.4264" y="-563.9" font-family="Arial" font-size="14.00" fill="#666666">[integer]</text>
<polygon fill="none" stroke="#000000" points="411,-522.5 411,-552.5 756,-552.5 756,-522.5 411,-522.5"/>
<text text-anchor="start" x="418" y="-533.9" font-family="Arial" font-size="14.00" fill="#000000">sapwarehousedetailid    </text>
<text text-anchor="start" x="587.5736" y="-533.9" font-family="Arial" font-size="14.00" fill="#666666">[integer]</text>
<polygon fill="none" stroke="#000000" points="411,-492.5 411,-522.5 756,-522.5 756,-492.5 411,-492.5"/>
<text text-anchor="start" x="418" y="-503.9" font-family="Arial" font-size="14.00" fill="#000000">saplocationid    </text>
<text text-anchor="start" x="533.8934" y="-503.9" font-family="Arial" font-size="14.00" fill="#666666">[integer]</text>
<polygon fill="none" stroke="#000000" points="411,-462.5 411,-492.5 756,-492.5 756,-462.5 411,-462.5"/>
<text text-anchor="start" x="418" y="-473.9" font-family="Arial" font-size="14.00" fill="#000000">authorizelevel    </text>
<text text-anchor="start" x="538.554" y="-473.9" font-family="Arial" font-size="14.00" fill="#666666">[integer]</text>
<polygon fill="none" stroke="#000000" points="411,-432.5 411,-462.5 756,-462.5 756,-432.5 411,-432.5"/>
<text text-anchor="start" x="418" y="-443.9" font-family="Arial" font-size="14.00" fill="#000000">lastupdatedformula    </text>
<text text-anchor="start" x="571.237" y="-443.9" font-family="Arial" font-size="14.00" fill="#666666">[text]</text>
<polygon fill="none" stroke="#000000" points="411,-402.5 411,-432.5 756,-432.5 756,-402.5 411,-402.5"/>
<text text-anchor="start" x="418" y="-413.9" font-family="Arial" font-size="14.00" fill="#000000">rejectedby    </text>
<text text-anchor="start" x="516.7756" y="-413.9" font-family="Arial" font-size="14.00" fill="#666666">[integer]</text>
<polygon fill="none" stroke="#000000" points="411,-372.5 411,-402.5 756,-402.5 756,-372.5 411,-372.5"/>
<text text-anchor="start" x="418" y="-383.9" font-family="Arial" font-size="14.00" fill="#000000">headrejectedby    </text>
<text text-anchor="start" x="547.906" y="-383.9" font-family="Arial" font-size="14.00" fill="#666666">[integer]</text>
<polygon fill="none" stroke="#000000" points="411,-342.5 411,-372.5 756,-372.5 756,-342.5 411,-342.5"/>
<text text-anchor="start" x="418" y="-353.9" font-family="Arial" font-size="14.00" fill="#000000">rejectedreason    </text>
<text text-anchor="start" x="544.784" y="-353.9" font-family="Arial" font-size="14.00" fill="#666666">[text]</text>
<polygon fill="none" stroke="#000000" points="411,-312.5 411,-342.5 756,-342.5 756,-312.5 411,-312.5"/>
<text text-anchor="start" x="418" y="-323.9" font-family="Arial" font-size="14.00" fill="#000000">isrejected    </text>
<text text-anchor="start" x="512.0996" y="-323.9" font-family="Arial" font-size="14.00" fill="#666666">[boolean]</text>
<polygon fill="none" stroke="#000000" points="411,-282.5 411,-312.5 756,-312.5 756,-282.5 411,-282.5"/>
<text text-anchor="start" x="418" y="-293.9" font-family="Arial" font-size="14.00" fill="#000000">partyorderdate    </text>
<text text-anchor="start" x="543.2286" y="-293.9" font-family="Arial" font-size="14.00" fill="#666666">[date]</text>
<polygon fill="none" stroke="#000000" points="411,-252.5 411,-282.5 756,-282.5 756,-252.5 411,-252.5"/>
<text text-anchor="start" x="418" y="-263.9" font-family="Arial" font-size="14.00" fill="#000000">partyorderno    </text>
<text text-anchor="start" x="531.5554" y="-263.9" font-family="Arial" font-size="14.00" fill="#666666">[varchar(50)]</text>
<polygon fill="none" stroke="#000000" points="411,-222.5 411,-252.5 756,-252.5 756,-222.5 411,-222.5"/>
<text text-anchor="start" x="418" y="-233.9" font-family="Arial" font-size="14.00" fill="#000000">authorizationlevelid    </text>
<text text-anchor="start" x="572.0056" y="-233.9" font-family="Arial" font-size="14.00" fill="#666666">[integer]</text>
<polygon fill="none" stroke="#000000" points="411,-192.5 411,-222.5 756,-222.5 756,-192.5 411,-192.5"/>
<text text-anchor="start" x="418" y="-203.9" font-family="Arial" font-size="14.00" fill="#000000">isinitialrejected    </text>
<text text-anchor="start" x="543.9818" y="-203.9" font-family="Arial" font-size="14.00" fill="#666666">[boolean]</text>
<polygon fill="none" stroke="#000000" points="411,-162.5 411,-192.5 756,-192.5 756,-162.5 411,-162.5"/>
<text text-anchor="start" x="418" y="-173.9" font-family="Arial" font-size="14.00" fill="#000000">send_mail_after_due_date    </text>
<text text-anchor="start" x="617.9326" y="-173.9" font-family="Arial" font-size="14.00" fill="#666666">[boolean]</text>
<polygon fill="none" stroke="#000000" points="411,-132.5 411,-162.5 756,-162.5 756,-132.5 411,-132.5"/>
<text text-anchor="start" x="418" y="-143.9" font-family="Arial" font-size="14.00" fill="#000000">bulkpoid    </text>
<text text-anchor="start" x="504.331" y="-143.9" font-family="Arial" font-size="14.00" fill="#666666">[integer]</text>
<polygon fill="none" stroke="#000000" points="411,-102.5 411,-132.5 756,-132.5 756,-102.5 411,-102.5"/>
<text text-anchor="start" x="418" y="-113.9" font-family="Arial" font-size="14.00" fill="#000000">fixedassetdepartmentwisebudgetid    </text>
<text text-anchor="start" x="667.7096" y="-113.9" font-family="Arial" font-size="14.00" fill="#666666">[integer]</text>
<polygon fill="none" stroke="#000000" points="411,-72.5 411,-102.5 756,-102.5 756,-72.5 411,-72.5"/>
<text text-anchor="start" x="418" y="-83.9" font-family="Arial" font-size="14.00" fill="#000000">updatedby    </text>
<text text-anchor="start" x="517.5736" y="-83.9" font-family="Arial" font-size="14.00" fill="#666666">[integer]</text>
<polygon fill="none" stroke="#000000" points="411,-42.5 411,-72.5 756,-72.5 756,-42.5 411,-42.5"/>
<text text-anchor="start" x="418" y="-53.9" font-family="Arial" font-size="14.00" fill="#000000">updatedon    </text>
<text text-anchor="start" x="518.3562" y="-53.9" font-family="Arial" font-size="14.00" fill="#666666">[timestamp(6) without time zone]</text>
</g>
<!-- public.pur_poitemduedetail&#45;&gt;public.pur_purchaseorder -->
<g id="edge1" class="edge">
<title>public.pur_poitemduedetail:poid&#45;&gt;public.pur_purchaseorder:poid</title>
<path fill="none" stroke="#000000" d="M396.6659,-3993.2797C344.8776,-3943.6182 365.7717,-3471.5783 406,-3427 458.3826,-3368.9531 703.6174,-3449.0469 756,-3391 783.8404,-3360.1491 797.5556,-3297.5 756,-3297.5"/>
<polygon fill="#000000" stroke="#000000" points="396.8881,-3993.3801 404.1461,-4001.6004 401.444,-3995.4401 406,-3997.5 406,-3997.5 406,-3997.5 401.444,-3995.4401 407.8539,-3993.3996 396.8881,-3993.3801 396.8881,-3993.3801"/>
<text text-anchor="start" x="6.5995" y="-4007.5" font-family="Arial" font-size="10.00" fill="#000000">FOREIGN KEY (poid) REFERENCES pur_purchaseorder(poid) ON UPDATE CASCADE</text>
</g>
</g>
</svg>
