<?xml version="1.0" encoding="UTF-8" standalone="no"?>
<!DOCTYPE svg PUBLIC "-//W3C//DTD SVG 1.1//EN"
 "http://www.w3.org/Graphics/SVG/1.1/DTD/svg11.dtd">
<!-- Generated by graphviz version 2.40.1 (20161225.0304)
 -->
<!-- Title: public.comn_partysitedetail Pages: 1 -->
<svg width="1015pt" height="4072pt"
 viewBox="0.00 0.00 1015.00 4072.00" xmlns="http://www.w3.org/2000/svg" xmlns:xlink="http://www.w3.org/1999/xlink">
<g id="graph0" class="graph" transform="scale(1 1) rotate(0) translate(4 4068)">
<title>public.comn_partysitedetail</title>
<polygon fill="#ffffff" stroke="transparent" points="-4,4 -4,-4068 1011,-4068 1011,4 -4,4"/>
<!-- public.comn_partysitedetail -->
<g id="node1" class="node">
<title>public.comn_partysitedetail</title>
<polygon fill="#efefef" stroke="transparent" points="603,-3982.5 603,-4017.5 961,-4017.5 961,-3982.5 603,-3982.5"/>
<polygon fill="none" stroke="#000000" points="603,-3982.5 603,-4017.5 961,-4017.5 961,-3982.5 603,-3982.5"/>
<text text-anchor="start" x="609.6967" y="-3995.3" font-family="Arial Bold" font-size="18.00" fill="#000000">public.comn_partysitedetail</text>
<text text-anchor="start" x="826.7353" y="-3995.3" font-family="Arial" font-size="14.00" fill="#000000">    </text>
<text text-anchor="start" x="860.9401" y="-3995.3" font-family="Arial" font-size="14.00" fill="#666666">[BASE TABLE]</text>
<polygon fill="none" stroke="#000000" points="603,-3952.5 603,-3982.5 961,-3982.5 961,-3952.5 603,-3952.5"/>
<text text-anchor="start" x="610" y="-3963.9" font-family="Arial" font-size="14.00" fill="#000000">siteid </text>
<text text-anchor="start" x="646.5596" y="-3963.9" font-family="Arial" font-size="14.00" fill="#666666">[integer]</text>
<polygon fill="none" stroke="#000000" points="603,-3922.5 603,-3952.5 961,-3952.5 961,-3922.5 603,-3922.5"/>
<text text-anchor="start" x="610" y="-3933.9" font-family="Arial" font-size="14.00" fill="#000000">partyid </text>
<text text-anchor="start" x="655.8962" y="-3933.9" font-family="Arial" font-size="14.00" fill="#666666">[integer]</text>
<polygon fill="none" stroke="#000000" points="603,-3892.5 603,-3922.5 961,-3922.5 961,-3892.5 603,-3892.5"/>
<text text-anchor="start" x="610" y="-3903.9" font-family="Arial" font-size="14.00" fill="#000000">sitename </text>
<text text-anchor="start" x="670.6788" y="-3903.9" font-family="Arial" font-size="14.00" fill="#666666">[varchar(50)]</text>
<polygon fill="none" stroke="#000000" points="603,-3862.5 603,-3892.5 961,-3892.5 961,-3862.5 603,-3862.5"/>
<text text-anchor="start" x="610" y="-3873.9" font-family="Arial" font-size="14.00" fill="#000000">phoneno </text>
<text text-anchor="start" x="668.3688" y="-3873.9" font-family="Arial" font-size="14.00" fill="#666666">[varchar(12)]</text>
<polygon fill="none" stroke="#000000" points="603,-3832.5 603,-3862.5 961,-3862.5 961,-3832.5 603,-3832.5"/>
<text text-anchor="start" x="610" y="-3843.9" font-family="Arial" font-size="14.00" fill="#000000">contactperson </text>
<text text-anchor="start" x="701.8106" y="-3843.9" font-family="Arial" font-size="14.00" fill="#666666">[varchar(30)]</text>
<polygon fill="none" stroke="#000000" points="603,-3802.5 603,-3832.5 961,-3832.5 961,-3802.5 603,-3802.5"/>
<text text-anchor="start" x="610" y="-3813.9" font-family="Arial" font-size="14.00" fill="#000000">exciseno </text>
<text text-anchor="start" x="669.1276" y="-3813.9" font-family="Arial" font-size="14.00" fill="#666666">[varchar(20)]</text>
<polygon fill="none" stroke="#000000" stroke-width="3" points="601.5,-3801.5 601.5,-4019.5 962.5,-4019.5 962.5,-3801.5 601.5,-3801.5"/>
</g>
<!-- public.comn_partymaster -->
<g id="node2" class="node">
<title>public.comn_partymaster</title>
<polygon fill="#efefef" stroke="transparent" points="609,-3642.5 609,-3677.5 954,-3677.5 954,-3642.5 609,-3642.5"/>
<polygon fill="none" stroke="#000000" points="609,-3642.5 609,-3677.5 954,-3677.5 954,-3642.5 609,-3642.5"/>
<text text-anchor="start" x="617.2031" y="-3655.3" font-family="Arial Bold" font-size="18.00" fill="#000000">public.comn_partymaster</text>
<text text-anchor="start" x="818.2289" y="-3655.3" font-family="Arial" font-size="14.00" fill="#000000">    </text>
<text text-anchor="start" x="852.4337" y="-3655.3" font-family="Arial" font-size="14.00" fill="#666666">[BASE TABLE]</text>
<polygon fill="none" stroke="#000000" points="609,-3612.5 609,-3642.5 954,-3642.5 954,-3612.5 609,-3612.5"/>
<text text-anchor="start" x="616" y="-3623.9" font-family="Arial" font-size="14.00" fill="#000000">partyid    </text>
<text text-anchor="start" x="692.2104" y="-3623.9" font-family="Arial" font-size="14.00" fill="#666666">[integer]</text>
<polygon fill="none" stroke="#000000" points="609,-3582.5 609,-3612.5 954,-3612.5 954,-3582.5 609,-3582.5"/>
<text text-anchor="start" x="616" y="-3593.9" font-family="Arial" font-size="14.00" fill="#000000">partyname    </text>
<text text-anchor="start" x="716.3296" y="-3593.9" font-family="Arial" font-size="14.00" fill="#666666">[varchar(300)]</text>
<polygon fill="none" stroke="#000000" points="609,-3552.5 609,-3582.5 954,-3582.5 954,-3552.5 609,-3552.5"/>
<text text-anchor="start" x="616" y="-3563.9" font-family="Arial" font-size="14.00" fill="#000000">partycode    </text>
<text text-anchor="start" x="711.669" y="-3563.9" font-family="Arial" font-size="14.00" fill="#666666">[varchar(300)]</text>
<polygon fill="none" stroke="#000000" points="609,-3522.5 609,-3552.5 954,-3552.5 954,-3522.5 609,-3522.5"/>
<text text-anchor="start" x="616" y="-3533.9" font-family="Arial" font-size="14.00" fill="#000000">address    </text>
<text text-anchor="start" x="699.9958" y="-3533.9" font-family="Arial" font-size="14.00" fill="#666666">[varchar(1000)]</text>
<polygon fill="none" stroke="#000000" points="609,-3492.5 609,-3522.5 954,-3522.5 954,-3492.5 609,-3492.5"/>
<text text-anchor="start" x="616" y="-3503.9" font-family="Arial" font-size="14.00" fill="#000000">cityid    </text>
<text text-anchor="start" x="682.0912" y="-3503.9" font-family="Arial" font-size="14.00" fill="#666666">[integer]</text>
<polygon fill="none" stroke="#000000" points="609,-3462.5 609,-3492.5 954,-3492.5 954,-3462.5 609,-3462.5"/>
<text text-anchor="start" x="616" y="-3473.9" font-family="Arial" font-size="14.00" fill="#000000">stateid    </text>
<text text-anchor="start" x="691.4404" y="-3473.9" font-family="Arial" font-size="14.00" fill="#666666">[integer]</text>
<polygon fill="none" stroke="#000000" points="609,-3432.5 609,-3462.5 954,-3462.5 954,-3432.5 609,-3432.5"/>
<text text-anchor="start" x="616" y="-3443.9" font-family="Arial" font-size="14.00" fill="#000000">countryid    </text>
<text text-anchor="start" x="706.993" y="-3443.9" font-family="Arial" font-size="14.00" fill="#666666">[integer]</text>
<polygon fill="none" stroke="#000000" points="609,-3402.5 609,-3432.5 954,-3432.5 954,-3402.5 609,-3402.5"/>
<text text-anchor="start" x="616" y="-3413.9" font-family="Arial" font-size="14.00" fill="#000000">phoneno    </text>
<text text-anchor="start" x="704.683" y="-3413.9" font-family="Arial" font-size="14.00" fill="#666666">[varchar(200)]</text>
<polygon fill="none" stroke="#000000" points="609,-3372.5 609,-3402.5 954,-3402.5 954,-3372.5 609,-3372.5"/>
<text text-anchor="start" x="616" y="-3383.9" font-family="Arial" font-size="14.00" fill="#000000">faxno    </text>
<text text-anchor="start" x="684.4432" y="-3383.9" font-family="Arial" font-size="14.00" fill="#666666">[varchar(50)]</text>
<polygon fill="none" stroke="#000000" points="609,-3342.5 609,-3372.5 954,-3372.5 954,-3342.5 609,-3342.5"/>
<text text-anchor="start" x="616" y="-3353.9" font-family="Arial" font-size="14.00" fill="#000000">email    </text>
<text text-anchor="start" x="683.6438" y="-3353.9" font-family="Arial" font-size="14.00" fill="#666666">[varchar(200)]</text>
<polygon fill="none" stroke="#000000" points="609,-3312.5 609,-3342.5 954,-3342.5 954,-3312.5 609,-3312.5"/>
<text text-anchor="start" x="616" y="-3323.9" font-family="Arial" font-size="14.00" fill="#000000">contactperson    </text>
<text text-anchor="start" x="738.1248" y="-3323.9" font-family="Arial" font-size="14.00" fill="#666666">[varchar(200)]</text>
<polygon fill="none" stroke="#000000" points="609,-3282.5 609,-3312.5 954,-3312.5 954,-3282.5 609,-3282.5"/>
<text text-anchor="start" x="616" y="-3293.9" font-family="Arial" font-size="14.00" fill="#000000">openingbalance    </text>
<text text-anchor="start" x="749.0266" y="-3293.9" font-family="Arial" font-size="14.00" fill="#666666">[numeric(12,2)]</text>
<polygon fill="none" stroke="#000000" points="609,-3252.5 609,-3282.5 954,-3282.5 954,-3252.5 609,-3252.5"/>
<text text-anchor="start" x="616" y="-3263.9" font-family="Arial" font-size="14.00" fill="#000000">exregistrationno    </text>
<text text-anchor="start" x="749.7812" y="-3263.9" font-family="Arial" font-size="14.00" fill="#666666">[varchar(20)]</text>
<polygon fill="none" stroke="#000000" points="609,-3222.5 609,-3252.5 954,-3252.5 954,-3222.5 609,-3222.5"/>
<text text-anchor="start" x="616" y="-3233.9" font-family="Arial" font-size="14.00" fill="#000000">eccno    </text>
<text text-anchor="start" x="687.5526" y="-3233.9" font-family="Arial" font-size="14.00" fill="#666666">[varchar(50)]</text>
<polygon fill="none" stroke="#000000" points="609,-3192.5 609,-3222.5 954,-3222.5 954,-3192.5 609,-3192.5"/>
<text text-anchor="start" x="616" y="-3203.9" font-family="Arial" font-size="14.00" fill="#000000">range    </text>
<text text-anchor="start" x="685.9958" y="-3203.9" font-family="Arial" font-size="14.00" fill="#666666">[varchar(50)]</text>
<polygon fill="none" stroke="#000000" points="609,-3162.5 609,-3192.5 954,-3192.5 954,-3162.5 609,-3162.5"/>
<text text-anchor="start" x="616" y="-3173.9" font-family="Arial" font-size="14.00" fill="#000000">rangeaddress    </text>
<text text-anchor="start" x="735.7868" y="-3173.9" font-family="Arial" font-size="14.00" fill="#666666">[varchar(500)]</text>
<polygon fill="none" stroke="#000000" points="609,-3132.5 609,-3162.5 954,-3162.5 954,-3132.5 609,-3132.5"/>
<text text-anchor="start" x="616" y="-3143.9" font-family="Arial" font-size="14.00" fill="#000000">division    </text>
<text text-anchor="start" x="696.8724" y="-3143.9" font-family="Arial" font-size="14.00" fill="#666666">[varchar(50)]</text>
<polygon fill="none" stroke="#000000" points="609,-3102.5 609,-3132.5 954,-3132.5 954,-3102.5 609,-3102.5"/>
<text text-anchor="start" x="616" y="-3113.9" font-family="Arial" font-size="14.00" fill="#000000">divisionaddress    </text>
<text text-anchor="start" x="746.6634" y="-3113.9" font-family="Arial" font-size="14.00" fill="#666666">[varchar(500)]</text>
<polygon fill="none" stroke="#000000" points="609,-3072.5 609,-3102.5 954,-3102.5 954,-3072.5 609,-3072.5"/>
<text text-anchor="start" x="616" y="-3083.9" font-family="Arial" font-size="14.00" fill="#000000">collectorate    </text>
<text text-anchor="start" x="721.7728" y="-3083.9" font-family="Arial" font-size="14.00" fill="#666666">[varchar(50)]</text>
<polygon fill="none" stroke="#000000" points="609,-3042.5 609,-3072.5 954,-3072.5 954,-3042.5 609,-3042.5"/>
<text text-anchor="start" x="616" y="-3053.9" font-family="Arial" font-size="14.00" fill="#000000">tinno    </text>
<text text-anchor="start" x="680.5498" y="-3053.9" font-family="Arial" font-size="14.00" fill="#666666">[varchar(50)]</text>
<polygon fill="none" stroke="#000000" points="609,-3012.5 609,-3042.5 954,-3042.5 954,-3012.5 609,-3012.5"/>
<text text-anchor="start" x="616" y="-3023.9" font-family="Arial" font-size="14.00" fill="#000000">panno    </text>
<text text-anchor="start" x="689.1178" y="-3023.9" font-family="Arial" font-size="14.00" fill="#666666">[varchar(50)]</text>
<polygon fill="none" stroke="#000000" points="609,-2982.5 609,-3012.5 954,-3012.5 954,-2982.5 609,-2982.5"/>
<text text-anchor="start" x="616" y="-2993.9" font-family="Arial" font-size="14.00" fill="#000000">cstno    </text>
<text text-anchor="start" x="683.6606" y="-2993.9" font-family="Arial" font-size="14.00" fill="#666666">[varchar(50)]</text>
<polygon fill="none" stroke="#000000" points="609,-2952.5 609,-2982.5 954,-2982.5 954,-2952.5 609,-2952.5"/>
<text text-anchor="start" x="616" y="-2963.9" font-family="Arial" font-size="14.00" fill="#000000">lstno    </text>
<text text-anchor="start" x="679.7672" y="-2963.9" font-family="Arial" font-size="14.00" fill="#666666">[varchar(50)]</text>
<polygon fill="none" stroke="#000000" points="609,-2922.5 609,-2952.5 954,-2952.5 954,-2922.5 609,-2922.5"/>
<text text-anchor="start" x="616" y="-2933.9" font-family="Arial" font-size="14.00" fill="#000000">stregistrationno    </text>
<text text-anchor="start" x="745.8892" y="-2933.9" font-family="Arial" font-size="14.00" fill="#666666">[varchar(50)]</text>
<polygon fill="none" stroke="#000000" points="609,-2892.5 609,-2922.5 954,-2922.5 954,-2892.5 609,-2892.5"/>
<text text-anchor="start" x="616" y="-2903.9" font-family="Arial" font-size="14.00" fill="#000000">isactive    </text>
<text text-anchor="start" x="696.8738" y="-2903.9" font-family="Arial" font-size="14.00" fill="#666666">[boolean]</text>
<polygon fill="none" stroke="#000000" points="609,-2862.5 609,-2892.5 954,-2892.5 954,-2862.5 609,-2862.5"/>
<text text-anchor="start" x="616" y="-2873.9" font-family="Arial" font-size="14.00" fill="#000000">glid    </text>
<text text-anchor="start" x="671.9832" y="-2873.9" font-family="Arial" font-size="14.00" fill="#666666">[integer]</text>
<polygon fill="none" stroke="#000000" points="609,-2832.5 609,-2862.5 954,-2862.5 954,-2832.5 609,-2832.5"/>
<text text-anchor="start" x="616" y="-2843.9" font-family="Arial" font-size="14.00" fill="#000000">partytype    </text>
<text text-anchor="start" x="707.777" y="-2843.9" font-family="Arial" font-size="14.00" fill="#666666">[integer]</text>
<polygon fill="none" stroke="#000000" points="609,-2802.5 609,-2832.5 954,-2832.5 954,-2802.5 609,-2802.5"/>
<text text-anchor="start" x="616" y="-2813.9" font-family="Arial" font-size="14.00" fill="#000000">isauthorized    </text>
<text text-anchor="start" x="725.6648" y="-2813.9" font-family="Arial" font-size="14.00" fill="#666666">[boolean]</text>
<polygon fill="none" stroke="#000000" points="609,-2772.5 609,-2802.5 954,-2802.5 954,-2772.5 609,-2772.5"/>
<text text-anchor="start" x="616" y="-2783.9" font-family="Arial" font-size="14.00" fill="#000000">authorizedby    </text>
<text text-anchor="start" x="730.3408" y="-2783.9" font-family="Arial" font-size="14.00" fill="#666666">[integer]</text>
<polygon fill="none" stroke="#000000" points="609,-2742.5 609,-2772.5 954,-2772.5 954,-2742.5 609,-2742.5"/>
<text text-anchor="start" x="616" y="-2753.9" font-family="Arial" font-size="14.00" fill="#000000">authorizedon    </text>
<text text-anchor="start" x="731.1234" y="-2753.9" font-family="Arial" font-size="14.00" fill="#666666">[timestamp without time zone]</text>
<polygon fill="none" stroke="#000000" points="609,-2712.5 609,-2742.5 954,-2742.5 954,-2712.5 609,-2712.5"/>
<text text-anchor="start" x="616" y="-2723.9" font-family="Arial" font-size="14.00" fill="#000000">createdby    </text>
<text text-anchor="start" x="711.669" y="-2723.9" font-family="Arial" font-size="14.00" fill="#666666">[integer]</text>
<polygon fill="none" stroke="#000000" points="609,-2682.5 609,-2712.5 954,-2712.5 954,-2682.5 609,-2682.5"/>
<text text-anchor="start" x="616" y="-2693.9" font-family="Arial" font-size="14.00" fill="#000000">createdon    </text>
<text text-anchor="start" x="712.4516" y="-2693.9" font-family="Arial" font-size="14.00" fill="#666666">[timestamp without time zone]</text>
<polygon fill="none" stroke="#000000" points="609,-2652.5 609,-2682.5 954,-2682.5 954,-2652.5 609,-2652.5"/>
<text text-anchor="start" x="616" y="-2663.9" font-family="Arial" font-size="14.00" fill="#000000">editlog    </text>
<text text-anchor="start" x="691.439" y="-2663.9" font-family="Arial" font-size="14.00" fill="#666666">[text]</text>
<polygon fill="none" stroke="#000000" points="609,-2622.5 609,-2652.5 954,-2652.5 954,-2622.5 609,-2622.5"/>
<text text-anchor="start" x="616" y="-2633.9" font-family="Arial" font-size="14.00" fill="#000000">issendtotally    </text>
<text text-anchor="start" x="727.2188" y="-2633.9" font-family="Arial" font-size="14.00" fill="#666666">[boolean]</text>
<polygon fill="none" stroke="#000000" points="609,-2592.5 609,-2622.5 954,-2622.5 954,-2592.5 609,-2592.5"/>
<text text-anchor="start" x="616" y="-2603.9" font-family="Arial" font-size="14.00" fill="#000000">ismanufacturer    </text>
<text text-anchor="start" x="742.77" y="-2603.9" font-family="Arial" font-size="14.00" fill="#666666">[boolean]</text>
<polygon fill="none" stroke="#000000" points="609,-2562.5 609,-2592.5 954,-2592.5 954,-2562.5 609,-2562.5"/>
<text text-anchor="start" x="616" y="-2573.9" font-family="Arial" font-size="14.00" fill="#000000">nearservicecentername    </text>
<text text-anchor="start" x="796.453" y="-2573.9" font-family="Arial" font-size="14.00" fill="#666666">[varchar(50)]</text>
<polygon fill="none" stroke="#000000" points="609,-2532.5 609,-2562.5 954,-2562.5 954,-2532.5 609,-2532.5"/>
<text text-anchor="start" x="616" y="-2543.9" font-family="Arial" font-size="14.00" fill="#000000">centeraddress    </text>
<text text-anchor="start" x="738.8948" y="-2543.9" font-family="Arial" font-size="14.00" fill="#666666">[varchar(500)]</text>
<polygon fill="none" stroke="#000000" points="609,-2502.5 609,-2532.5 954,-2532.5 954,-2502.5 609,-2502.5"/>
<text text-anchor="start" x="616" y="-2513.9" font-family="Arial" font-size="14.00" fill="#000000">centercontactperson    </text>
<text text-anchor="start" x="777.0238" y="-2513.9" font-family="Arial" font-size="14.00" fill="#666666">[varchar(50)]</text>
<polygon fill="none" stroke="#000000" points="609,-2472.5 609,-2502.5 954,-2502.5 954,-2472.5 609,-2472.5"/>
<text text-anchor="start" x="616" y="-2483.9" font-family="Arial" font-size="14.00" fill="#000000">centercontactno    </text>
<text text-anchor="start" x="749.798" y="-2483.9" font-family="Arial" font-size="14.00" fill="#666666">[varchar(25)]</text>
<polygon fill="none" stroke="#000000" points="609,-2442.5 609,-2472.5 954,-2472.5 954,-2442.5 609,-2442.5"/>
<text text-anchor="start" x="616" y="-2453.9" font-family="Arial" font-size="14.00" fill="#000000">customercareno    </text>
<text text-anchor="start" x="750.5554" y="-2453.9" font-family="Arial" font-size="14.00" fill="#666666">[varchar(25)]</text>
<polygon fill="none" stroke="#000000" points="609,-2412.5 609,-2442.5 954,-2442.5 954,-2412.5 609,-2412.5"/>
<text text-anchor="start" x="616" y="-2423.9" font-family="Arial" font-size="14.00" fill="#000000">remark    </text>
<text text-anchor="start" x="693.7518" y="-2423.9" font-family="Arial" font-size="14.00" fill="#666666">[varchar(500)]</text>
<polygon fill="none" stroke="#000000" points="609,-2382.5 609,-2412.5 954,-2412.5 954,-2382.5 609,-2382.5"/>
<text text-anchor="start" x="616" y="-2393.9" font-family="Arial" font-size="14.00" fill="#000000">description    </text>
<text text-anchor="start" x="717.8822" y="-2393.9" font-family="Arial" font-size="14.00" fill="#666666">[varchar(500)]</text>
<polygon fill="none" stroke="#000000" points="609,-2352.5 609,-2382.5 954,-2382.5 954,-2352.5 609,-2352.5"/>
<text text-anchor="start" x="615.803" y="-2363.9" font-family="Arial" font-size="14.00" fill="#000000">headauthorizedon    </text>
<text text-anchor="start" x="762.0568" y="-2363.9" font-family="Arial" font-size="14.00" fill="#666666">[timestamp without time zone]</text>
<polygon fill="none" stroke="#000000" points="609,-2322.5 609,-2352.5 954,-2352.5 954,-2322.5 609,-2322.5"/>
<text text-anchor="start" x="616" y="-2333.9" font-family="Arial" font-size="14.00" fill="#000000">headauthorizedby    </text>
<text text-anchor="start" x="761.4712" y="-2333.9" font-family="Arial" font-size="14.00" fill="#666666">[integer]</text>
<polygon fill="none" stroke="#000000" points="609,-2292.5 609,-2322.5 954,-2322.5 954,-2292.5 609,-2292.5"/>
<text text-anchor="start" x="616" y="-2303.9" font-family="Arial" font-size="14.00" fill="#000000">seriesid    </text>
<text text-anchor="start" x="698.4264" y="-2303.9" font-family="Arial" font-size="14.00" fill="#666666">[integer]</text>
<polygon fill="none" stroke="#000000" points="609,-2262.5 609,-2292.5 954,-2292.5 954,-2262.5 609,-2262.5"/>
<text text-anchor="start" x="616" y="-2273.9" font-family="Arial" font-size="14.00" fill="#000000">leadtime    </text>
<text text-anchor="start" x="703.0996" y="-2273.9" font-family="Arial" font-size="14.00" fill="#666666">[numeric(15,2)]</text>
<polygon fill="none" stroke="#000000" points="609,-2232.5 609,-2262.5 954,-2262.5 954,-2232.5 609,-2232.5"/>
<text text-anchor="start" x="616" y="-2243.9" font-family="Arial" font-size="14.00" fill="#000000">leadtimein    </text>
<text text-anchor="start" x="713.9888" y="-2243.9" font-family="Arial" font-size="14.00" fill="#666666">[smallint]</text>
<polygon fill="none" stroke="#000000" points="609,-2202.5 609,-2232.5 954,-2232.5 954,-2202.5 609,-2202.5"/>
<text text-anchor="start" x="616" y="-2213.9" font-family="Arial" font-size="14.00" fill="#000000">groupid    </text>
<text text-anchor="start" x="696.885" y="-2213.9" font-family="Arial" font-size="14.00" fill="#666666">[integer]</text>
<polygon fill="none" stroke="#000000" points="609,-2172.5 609,-2202.5 954,-2202.5 954,-2172.5 609,-2172.5"/>
<text text-anchor="start" x="616" y="-2183.9" font-family="Arial" font-size="14.00" fill="#000000">partynameintally    </text>
<text text-anchor="start" x="752.1052" y="-2183.9" font-family="Arial" font-size="14.00" fill="#666666">[varchar(300)]</text>
<polygon fill="none" stroke="#000000" points="609,-2142.5 609,-2172.5 954,-2172.5 954,-2142.5 609,-2142.5"/>
<text text-anchor="start" x="616" y="-2153.9" font-family="Arial" font-size="14.00" fill="#000000">partyimage    </text>
<text text-anchor="start" x="719.4362" y="-2153.9" font-family="Arial" font-size="14.00" fill="#666666">[bytea]</text>
<polygon fill="none" stroke="#000000" points="609,-2112.5 609,-2142.5 954,-2142.5 954,-2112.5 609,-2112.5"/>
<text text-anchor="start" x="616" y="-2123.9" font-family="Arial" font-size="14.00" fill="#000000">creditlimit    </text>
<text text-anchor="start" x="709.2988" y="-2123.9" font-family="Arial" font-size="14.00" fill="#666666">[numeric(12,2)]</text>
<polygon fill="none" stroke="#000000" points="609,-2082.5 609,-2112.5 954,-2112.5 954,-2082.5 609,-2082.5"/>
<text text-anchor="start" x="616" y="-2093.9" font-family="Arial" font-size="14.00" fill="#000000">isoregistrationno    </text>
<text text-anchor="start" x="752.8878" y="-2093.9" font-family="Arial" font-size="14.00" fill="#666666">[varchar(50)]</text>
<polygon fill="none" stroke="#000000" points="609,-2052.5 609,-2082.5 954,-2082.5 954,-2052.5 609,-2052.5"/>
<text text-anchor="start" x="616" y="-2063.9" font-family="Arial" font-size="14.00" fill="#000000">natureofparty    </text>
<text text-anchor="start" x="732.676" y="-2063.9" font-family="Arial" font-size="14.00" fill="#666666">[integer]</text>
<polygon fill="none" stroke="#000000" points="609,-2022.5 609,-2052.5 954,-2052.5 954,-2022.5 609,-2022.5"/>
<text text-anchor="start" x="616" y="-2033.9" font-family="Arial" font-size="14.00" fill="#000000">vendorcode    </text>
<text text-anchor="start" x="723.3436" y="-2033.9" font-family="Arial" font-size="14.00" fill="#666666">[varchar(50)]</text>
<polygon fill="none" stroke="#000000" points="609,-1992.5 609,-2022.5 954,-2022.5 954,-1992.5 609,-1992.5"/>
<text text-anchor="start" x="616" y="-2003.9" font-family="Arial" font-size="14.00" fill="#000000">partyprintname    </text>
<text text-anchor="start" x="743.5526" y="-2003.9" font-family="Arial" font-size="14.00" fill="#666666">[varchar(300)]</text>
<polygon fill="none" stroke="#000000" points="609,-1962.5 609,-1992.5 954,-1992.5 954,-1962.5 609,-1962.5"/>
<text text-anchor="start" x="616" y="-1973.9" font-family="Arial" font-size="14.00" fill="#000000">isoregistrationdate    </text>
<text text-anchor="start" x="764.561" y="-1973.9" font-family="Arial" font-size="14.00" fill="#666666">[date]</text>
<polygon fill="none" stroke="#000000" points="609,-1932.5 609,-1962.5 954,-1962.5 954,-1932.5 609,-1932.5"/>
<text text-anchor="start" x="616" y="-1943.9" font-family="Arial" font-size="14.00" fill="#000000">isbillwise    </text>
<text text-anchor="start" x="705.4096" y="-1943.9" font-family="Arial" font-size="14.00" fill="#666666">[boolean]</text>
<polygon fill="none" stroke="#000000" points="609,-1902.5 609,-1932.5 954,-1932.5 954,-1902.5 609,-1902.5"/>
<text text-anchor="start" x="616" y="-1913.9" font-family="Arial" font-size="14.00" fill="#000000">printname    </text>
<text text-anchor="start" x="712.4362" y="-1913.9" font-family="Arial" font-size="14.00" fill="#666666">[varchar(100)]</text>
<polygon fill="none" stroke="#000000" points="609,-1872.5 609,-1902.5 954,-1902.5 954,-1872.5 609,-1872.5"/>
<text text-anchor="start" x="616" y="-1883.9" font-family="Arial" font-size="14.00" fill="#000000">linkbranchid    </text>
<text text-anchor="start" x="724.8808" y="-1883.9" font-family="Arial" font-size="14.00" fill="#666666">[integer]</text>
<polygon fill="none" stroke="#000000" points="609,-1842.5 609,-1872.5 954,-1872.5 954,-1842.5 609,-1842.5"/>
<text text-anchor="start" x="616" y="-1853.9" font-family="Arial" font-size="14.00" fill="#000000">sales_invoice_rate_from    </text>
<text text-anchor="start" x="801.8962" y="-1853.9" font-family="Arial" font-size="14.00" fill="#666666">[integer]</text>
<polygon fill="none" stroke="#000000" points="609,-1812.5 609,-1842.5 954,-1842.5 954,-1812.5 609,-1812.5"/>
<text text-anchor="start" x="616" y="-1823.9" font-family="Arial" font-size="14.00" fill="#000000">sales_person_id    </text>
<text text-anchor="start" x="752.122" y="-1823.9" font-family="Arial" font-size="14.00" fill="#666666">[bigint]</text>
<polygon fill="none" stroke="#000000" points="609,-1782.5 609,-1812.5 954,-1812.5 954,-1782.5 609,-1782.5"/>
<text text-anchor="start" x="616" y="-1793.9" font-family="Arial" font-size="14.00" fill="#000000">usedcreditlimit    </text>
<text text-anchor="start" x="739.6466" y="-1793.9" font-family="Arial" font-size="14.00" fill="#666666">[numeric(12,2)]</text>
<polygon fill="none" stroke="#000000" points="609,-1752.5 609,-1782.5 954,-1782.5 954,-1752.5 609,-1752.5"/>
<text text-anchor="start" x="616" y="-1763.9" font-family="Arial" font-size="14.00" fill="#000000">seriesno    </text>
<text text-anchor="start" x="703.1024" y="-1763.9" font-family="Arial" font-size="14.00" fill="#666666">[integer]</text>
<polygon fill="none" stroke="#000000" points="609,-1722.5 609,-1752.5 954,-1752.5 954,-1722.5 609,-1722.5"/>
<text text-anchor="start" x="616" y="-1733.9" font-family="Arial" font-size="14.00" fill="#000000">inactivedate    </text>
<text text-anchor="start" x="724.8948" y="-1733.9" font-family="Arial" font-size="14.00" fill="#666666">[timestamp without time zone]</text>
<polygon fill="none" stroke="#000000" points="609,-1692.5 609,-1722.5 954,-1722.5 954,-1692.5 609,-1692.5"/>
<text text-anchor="start" x="616" y="-1703.9" font-family="Arial" font-size="14.00" fill="#000000">pincode    </text>
<text text-anchor="start" x="699.2244" y="-1703.9" font-family="Arial" font-size="14.00" fill="#666666">[varchar(25)]</text>
<polygon fill="none" stroke="#000000" points="609,-1662.5 609,-1692.5 954,-1692.5 954,-1662.5 609,-1662.5"/>
<text text-anchor="start" x="616" y="-1673.9" font-family="Arial" font-size="14.00" fill="#000000">creditdays    </text>
<text text-anchor="start" x="713.993" y="-1673.9" font-family="Arial" font-size="14.00" fill="#666666">[integer]</text>
<polygon fill="none" stroke="#000000" points="609,-1632.5 609,-1662.5 954,-1662.5 954,-1632.5 609,-1632.5"/>
<text text-anchor="start" x="616" y="-1643.9" font-family="Arial" font-size="14.00" fill="#000000">taxtemplateid    </text>
<text text-anchor="start" x="733.446" y="-1643.9" font-family="Arial" font-size="14.00" fill="#666666">[integer]</text>
<polygon fill="none" stroke="#000000" points="609,-1602.5 609,-1632.5 954,-1632.5 954,-1602.5 609,-1602.5"/>
<text text-anchor="start" x="616" y="-1613.9" font-family="Arial" font-size="14.00" fill="#000000">security_check_no    </text>
<text text-anchor="start" x="766.1234" y="-1613.9" font-family="Arial" font-size="14.00" fill="#666666">[varchar(50)]</text>
<polygon fill="none" stroke="#000000" points="609,-1572.5 609,-1602.5 954,-1602.5 954,-1572.5 609,-1572.5"/>
<text text-anchor="start" x="616" y="-1583.9" font-family="Arial" font-size="14.00" fill="#000000">securitychequebank    </text>
<text text-anchor="start" x="774.6886" y="-1583.9" font-family="Arial" font-size="14.00" fill="#666666">[varchar(200)]</text>
<polygon fill="none" stroke="#000000" points="609,-1542.5 609,-1572.5 954,-1572.5 954,-1542.5 609,-1542.5"/>
<text text-anchor="start" x="616" y="-1553.9" font-family="Arial" font-size="14.00" fill="#000000">createas_vendor    </text>
<text text-anchor="start" x="754.46" y="-1553.9" font-family="Arial" font-size="14.00" fill="#666666">[boolean]</text>
<polygon fill="none" stroke="#000000" points="609,-1512.5 609,-1542.5 954,-1542.5 954,-1512.5 609,-1512.5"/>
<text text-anchor="start" x="616" y="-1523.9" font-family="Arial" font-size="14.00" fill="#000000">default_branchid    </text>
<text text-anchor="start" x="753.6858" y="-1523.9" font-family="Arial" font-size="14.00" fill="#666666">[integer]</text>
<polygon fill="none" stroke="#000000" points="609,-1482.5 609,-1512.5 954,-1512.5 954,-1482.5 609,-1482.5"/>
<text text-anchor="start" x="616" y="-1493.9" font-family="Arial" font-size="14.00" fill="#000000">sentincrm    </text>
<text text-anchor="start" x="710.871" y="-1493.9" font-family="Arial" font-size="14.00" fill="#666666">[boolean]</text>
<polygon fill="none" stroke="#000000" points="609,-1452.5 609,-1482.5 954,-1482.5 954,-1452.5 609,-1452.5"/>
<text text-anchor="start" x="616" y="-1463.9" font-family="Arial" font-size="14.00" fill="#000000">slab_id    </text>
<text text-anchor="start" x="694.5484" y="-1463.9" font-family="Arial" font-size="14.00" fill="#666666">[integer]</text>
<polygon fill="none" stroke="#000000" points="609,-1422.5 609,-1452.5 954,-1452.5 954,-1422.5 609,-1422.5"/>
<text text-anchor="start" x="616" y="-1433.9" font-family="Arial" font-size="14.00" fill="#000000">sitename    </text>
<text text-anchor="start" x="706.993" y="-1433.9" font-family="Arial" font-size="14.00" fill="#666666">[varchar(300)]</text>
<polygon fill="none" stroke="#000000" points="609,-1392.5 609,-1422.5 954,-1422.5 954,-1392.5 609,-1392.5"/>
<text text-anchor="start" x="616" y="-1403.9" font-family="Arial" font-size="14.00" fill="#000000">contactpersonno    </text>
<text text-anchor="start" x="753.69" y="-1403.9" font-family="Arial" font-size="14.00" fill="#666666">[varchar(200)]</text>
<polygon fill="none" stroke="#000000" points="609,-1362.5 609,-1392.5 954,-1392.5 954,-1362.5 609,-1362.5"/>
<text text-anchor="start" x="616" y="-1373.9" font-family="Arial" font-size="14.00" fill="#000000">prospect    </text>
<text text-anchor="start" x="703.8864" y="-1373.9" font-family="Arial" font-size="14.00" fill="#666666">[boolean]</text>
<polygon fill="none" stroke="#000000" points="609,-1332.5 609,-1362.5 954,-1362.5 954,-1332.5 609,-1332.5"/>
<text text-anchor="start" x="616" y="-1343.9" font-family="Arial" font-size="14.00" fill="#000000">tallycreditdays    </text>
<text text-anchor="start" x="738.8794" y="-1343.9" font-family="Arial" font-size="14.00" fill="#666666">[integer]</text>
<polygon fill="none" stroke="#000000" points="609,-1302.5 609,-1332.5 954,-1332.5 954,-1302.5 609,-1302.5"/>
<text text-anchor="start" x="616" y="-1313.9" font-family="Arial" font-size="14.00" fill="#000000">partyimage_extension    </text>
<text text-anchor="start" x="787.129" y="-1313.9" font-family="Arial" font-size="14.00" fill="#666666">[varchar(10)]</text>
<polygon fill="none" stroke="#000000" points="609,-1272.5 609,-1302.5 954,-1302.5 954,-1272.5 609,-1272.5"/>
<text text-anchor="start" x="616" y="-1283.9" font-family="Arial" font-size="14.00" fill="#000000">category_id    </text>
<text text-anchor="start" x="722.5582" y="-1283.9" font-family="Arial" font-size="14.00" fill="#666666">[integer]</text>
<polygon fill="none" stroke="#000000" points="609,-1242.5 609,-1272.5 954,-1272.5 954,-1242.5 609,-1242.5"/>
<text text-anchor="start" x="616" y="-1253.9" font-family="Arial" font-size="14.00" fill="#000000">newcreditdays    </text>
<text text-anchor="start" x="739.6648" y="-1253.9" font-family="Arial" font-size="14.00" fill="#666666">[numeric(5,2)]</text>
<polygon fill="none" stroke="#000000" points="609,-1212.5 609,-1242.5 954,-1242.5 954,-1212.5 609,-1212.5"/>
<text text-anchor="start" x="616" y="-1223.9" font-family="Arial" font-size="14.00" fill="#000000">newcreditlimit    </text>
<text text-anchor="start" x="734.9706" y="-1223.9" font-family="Arial" font-size="14.00" fill="#666666">[numeric(18,2)]</text>
<polygon fill="none" stroke="#000000" points="609,-1182.5 609,-1212.5 954,-1212.5 954,-1182.5 609,-1182.5"/>
<text text-anchor="start" x="616" y="-1193.9" font-family="Arial" font-size="14.00" fill="#000000">creditstartdate    </text>
<text text-anchor="start" x="738.8906" y="-1193.9" font-family="Arial" font-size="14.00" fill="#666666">[timestamp without time zone]</text>
<polygon fill="none" stroke="#000000" points="609,-1152.5 609,-1182.5 954,-1182.5 954,-1152.5 609,-1152.5"/>
<text text-anchor="start" x="616" y="-1163.9" font-family="Arial" font-size="14.00" fill="#000000">creditenddate    </text>
<text text-anchor="start" x="735.014" y="-1163.9" font-family="Arial" font-size="14.00" fill="#666666">[timestamp without time zone]</text>
<polygon fill="none" stroke="#000000" points="609,-1122.5 609,-1152.5 954,-1152.5 954,-1122.5 609,-1122.5"/>
<text text-anchor="start" x="616" y="-1133.9" font-family="Arial" font-size="14.00" fill="#000000">cashdiscount    </text>
<text text-anchor="start" x="731.8976" y="-1133.9" font-family="Arial" font-size="14.00" fill="#666666">[numeric(5,2)]</text>
<polygon fill="none" stroke="#000000" points="609,-1092.5 609,-1122.5 954,-1122.5 954,-1092.5 609,-1092.5"/>
<text text-anchor="start" x="616" y="-1103.9" font-family="Arial" font-size="14.00" fill="#000000">ismsme    </text>
<text text-anchor="start" x="698.4152" y="-1103.9" font-family="Arial" font-size="14.00" fill="#666666">[integer]</text>
<polygon fill="none" stroke="#000000" points="609,-1062.5 609,-1092.5 954,-1092.5 954,-1062.5 609,-1062.5"/>
<text text-anchor="start" x="616" y="-1073.9" font-family="Arial" font-size="14.00" fill="#000000">registrationno_msme    </text>
<text text-anchor="start" x="780.885" y="-1073.9" font-family="Arial" font-size="14.00" fill="#666666">[varchar(255)]</text>
<polygon fill="none" stroke="#000000" points="609,-1032.5 609,-1062.5 954,-1062.5 954,-1032.5 609,-1032.5"/>
<text text-anchor="start" x="616" y="-1043.9" font-family="Arial" font-size="14.00" fill="#000000">alterid    </text>
<text text-anchor="start" x="688.317" y="-1043.9" font-family="Arial" font-size="14.00" fill="#666666">[integer]</text>
<polygon fill="none" stroke="#000000" points="609,-1002.5 609,-1032.5 954,-1032.5 954,-1002.5 609,-1002.5"/>
<text text-anchor="start" x="616" y="-1013.9" font-family="Arial" font-size="14.00" fill="#000000">availableforpos    </text>
<text text-anchor="start" x="744.3366" y="-1013.9" font-family="Arial" font-size="14.00" fill="#666666">[boolean]</text>
<polygon fill="none" stroke="#000000" points="609,-972.5 609,-1002.5 954,-1002.5 954,-972.5 609,-972.5"/>
<text text-anchor="start" x="616" y="-983.9" font-family="Arial" font-size="14.00" fill="#000000">rejectionincludeinpendingpo    </text>
<text text-anchor="start" x="823.6998" y="-983.9" font-family="Arial" font-size="14.00" fill="#666666">[boolean]</text>
<polygon fill="none" stroke="#000000" points="609,-942.5 609,-972.5 954,-972.5 954,-942.5 609,-942.5"/>
<text text-anchor="start" x="616" y="-953.9" font-family="Arial" font-size="14.00" fill="#000000">locationid    </text>
<text text-anchor="start" x="709.3282" y="-953.9" font-family="Arial" font-size="14.00" fill="#666666">[integer]</text>
<polygon fill="none" stroke="#000000" points="609,-912.5 609,-942.5 954,-942.5 954,-912.5 609,-912.5"/>
<text text-anchor="start" x="616" y="-923.9" font-family="Arial" font-size="14.00" fill="#000000">gstnno    </text>
<text text-anchor="start" x="692.2258" y="-923.9" font-family="Arial" font-size="14.00" fill="#666666">[varchar(255)]</text>
<polygon fill="none" stroke="#000000" points="609,-882.5 609,-912.5 954,-912.5 954,-882.5 609,-882.5"/>
<text text-anchor="start" x="616" y="-893.9" font-family="Arial" font-size="14.00" fill="#000000">commisionerate    </text>
<text text-anchor="start" x="748.986" y="-893.9" font-family="Arial" font-size="14.00" fill="#666666">[varchar(50)]</text>
<polygon fill="none" stroke="#000000" points="609,-852.5 609,-882.5 954,-882.5 954,-852.5 609,-852.5"/>
<text text-anchor="start" x="616" y="-863.9" font-family="Arial" font-size="14.00" fill="#000000">gstnregdate    </text>
<text text-anchor="start" x="724.1248" y="-863.9" font-family="Arial" font-size="14.00" fill="#666666">[date]</text>
<polygon fill="none" stroke="#000000" points="609,-822.5 609,-852.5 954,-852.5 954,-822.5 609,-822.5"/>
<text text-anchor="start" x="616" y="-833.9" font-family="Arial" font-size="14.00" fill="#000000">gstpartytype    </text>
<text text-anchor="start" x="726.4502" y="-833.9" font-family="Arial" font-size="14.00" fill="#666666">[integer]</text>
<polygon fill="none" stroke="#000000" points="609,-792.5 609,-822.5 954,-822.5 954,-792.5 609,-792.5"/>
<text text-anchor="start" x="616" y="-803.9" font-family="Arial" font-size="14.00" fill="#000000">issendwelcomemail    </text>
<text text-anchor="start" x="771.5372" y="-803.9" font-family="Arial" font-size="14.00" fill="#666666">[boolean]</text>
<polygon fill="none" stroke="#000000" points="609,-762.5 609,-792.5 954,-792.5 954,-762.5 609,-762.5"/>
<text text-anchor="start" x="616" y="-773.9" font-family="Arial" font-size="14.00" fill="#000000">globalname    </text>
<text text-anchor="start" x="722.5568" y="-773.9" font-family="Arial" font-size="14.00" fill="#666666">[varchar(300)]</text>
<polygon fill="none" stroke="#000000" points="609,-732.5 609,-762.5 954,-762.5 954,-732.5 609,-732.5"/>
<text text-anchor="start" x="616" y="-743.9" font-family="Arial" font-size="14.00" fill="#000000">payment_mode    </text>
<text text-anchor="start" x="746.6774" y="-743.9" font-family="Arial" font-size="14.00" fill="#666666">[integer]</text>
<polygon fill="none" stroke="#000000" points="609,-702.5 609,-732.5 954,-732.5 954,-702.5 609,-702.5"/>
<text text-anchor="start" x="616" y="-713.9" font-family="Arial" font-size="14.00" fill="#000000">ischeckcreditlimit    </text>
<text text-anchor="start" x="755.9706" y="-713.9" font-family="Arial" font-size="14.00" fill="#666666">[boolean]</text>
<polygon fill="none" stroke="#000000" points="609,-672.5 609,-702.5 954,-702.5 954,-672.5 609,-672.5"/>
<text text-anchor="start" x="616" y="-683.9" font-family="Arial" font-size="14.00" fill="#000000">send_mail_after_due_date    </text>
<text text-anchor="start" x="815.9326" y="-683.9" font-family="Arial" font-size="14.00" fill="#666666">[boolean]</text>
<polygon fill="none" stroke="#000000" points="609,-642.5 609,-672.5 954,-672.5 954,-642.5 609,-642.5"/>
<text text-anchor="start" x="616" y="-653.9" font-family="Arial" font-size="14.00" fill="#000000">isvendorportalmailsent    </text>
<text text-anchor="start" x="790.2202" y="-653.9" font-family="Arial" font-size="14.00" fill="#666666">[boolean]</text>
<polygon fill="none" stroke="#000000" points="609,-612.5 609,-642.5 954,-642.5 954,-612.5 609,-612.5"/>
<text text-anchor="start" x="616" y="-623.9" font-family="Arial" font-size="14.00" fill="#000000">portal_usr    </text>
<text text-anchor="start" x="712.4362" y="-623.9" font-family="Arial" font-size="14.00" fill="#666666">[varchar(20)]</text>
<polygon fill="none" stroke="#000000" points="609,-582.5 609,-612.5 954,-612.5 954,-582.5 609,-582.5"/>
<text text-anchor="start" x="616" y="-593.9" font-family="Arial" font-size="14.00" fill="#000000">portal_pswd    </text>
<text text-anchor="start" x="725.6648" y="-593.9" font-family="Arial" font-size="14.00" fill="#666666">[varchar]</text>
<polygon fill="none" stroke="#000000" points="609,-552.5 609,-582.5 954,-582.5 954,-552.5 609,-552.5"/>
<text text-anchor="start" x="616" y="-563.9" font-family="Arial" font-size="14.00" fill="#000000">longitude    </text>
<text text-anchor="start" x="707.0042" y="-563.9" font-family="Arial" font-size="14.00" fill="#666666">[text]</text>
<polygon fill="none" stroke="#000000" points="609,-522.5 609,-552.5 954,-552.5 954,-522.5 609,-522.5"/>
<text text-anchor="start" x="616" y="-533.9" font-family="Arial" font-size="14.00" fill="#000000">latitude    </text>
<text text-anchor="start" x="695.3296" y="-533.9" font-family="Arial" font-size="14.00" fill="#666666">[text]</text>
<polygon fill="none" stroke="#000000" points="609,-492.5 609,-522.5 954,-522.5 954,-492.5 609,-492.5"/>
<text text-anchor="start" x="616" y="-503.9" font-family="Arial" font-size="14.00" fill="#000000">customeraccountno    </text>
<text text-anchor="start" x="772.3506" y="-503.9" font-family="Arial" font-size="14.00" fill="#666666">[varchar(50)]</text>
<polygon fill="none" stroke="#000000" points="609,-462.5 609,-492.5 954,-492.5 954,-462.5 609,-462.5"/>
<text text-anchor="start" x="616" y="-473.9" font-family="Arial" font-size="14.00" fill="#000000">lastmodifiedon    </text>
<text text-anchor="start" x="740.4446" y="-473.9" font-family="Arial" font-size="14.00" fill="#666666">[timestamp(6) without time zone]</text>
<polygon fill="none" stroke="#000000" points="609,-432.5 609,-462.5 954,-462.5 954,-432.5 609,-432.5"/>
<text text-anchor="start" x="616" y="-443.9" font-family="Arial" font-size="14.00" fill="#000000">updatedby    </text>
<text text-anchor="start" x="715.5736" y="-443.9" font-family="Arial" font-size="14.00" fill="#666666">[integer]</text>
<polygon fill="none" stroke="#000000" points="609,-402.5 609,-432.5 954,-432.5 954,-402.5 609,-402.5"/>
<text text-anchor="start" x="616" y="-413.9" font-family="Arial" font-size="14.00" fill="#000000">updatedon    </text>
<text text-anchor="start" x="716.3562" y="-413.9" font-family="Arial" font-size="14.00" fill="#666666">[timestamp(6) without time zone]</text>
<polygon fill="none" stroke="#000000" points="609,-372.5 609,-402.5 954,-402.5 954,-372.5 609,-372.5"/>
<text text-anchor="start" x="616" y="-383.9" font-family="Arial" font-size="14.00" fill="#000000">istallybranchentry    </text>
<text text-anchor="start" x="759.1052" y="-383.9" font-family="Arial" font-size="14.00" fill="#666666">[boolean]</text>
<polygon fill="none" stroke="#000000" points="609,-342.5 609,-372.5 954,-372.5 954,-342.5 609,-342.5"/>
<text text-anchor="start" x="616" y="-353.9" font-family="Arial" font-size="14.00" fill="#000000">isapprovedfortcs    </text>
<text text-anchor="start" x="752.892" y="-353.9" font-family="Arial" font-size="14.00" fill="#666666">[boolean]</text>
<polygon fill="none" stroke="#000000" points="609,-312.5 609,-342.5 954,-342.5 954,-312.5 609,-312.5"/>
<text text-anchor="start" x="616" y="-323.9" font-family="Arial" font-size="14.00" fill="#000000">opbal_tcs    </text>
<text text-anchor="start" x="710.115" y="-323.9" font-family="Arial" font-size="14.00" fill="#666666">[numeric(15,2)]</text>
<polygon fill="none" stroke="#000000" points="609,-282.5 609,-312.5 954,-312.5 954,-282.5 609,-282.5"/>
<text text-anchor="start" x="616" y="-293.9" font-family="Arial" font-size="14.00" fill="#000000">isgstverified    </text>
<text text-anchor="start" x="724.0968" y="-293.9" font-family="Arial" font-size="14.00" fill="#666666">[boolean]</text>
<polygon fill="none" stroke="#000000" points="609,-252.5 609,-282.5 954,-282.5 954,-252.5 609,-252.5"/>
<text text-anchor="start" x="616" y="-263.9" font-family="Arial" font-size="14.00" fill="#000000">ispanverified    </text>
<text text-anchor="start" x="728.7714" y="-263.9" font-family="Arial" font-size="14.00" fill="#666666">[boolean]</text>
<polygon fill="none" stroke="#000000" points="609,-222.5 609,-252.5 954,-252.5 954,-222.5 609,-222.5"/>
<text text-anchor="start" x="616" y="-233.9" font-family="Arial" font-size="14.00" fill="#000000">turnover    </text>
<text text-anchor="start" x="701.547" y="-233.9" font-family="Arial" font-size="14.00" fill="#666666">[numeric(21,9)]</text>
<polygon fill="none" stroke="#000000" points="609,-192.5 609,-222.5 954,-222.5 954,-192.5 609,-192.5"/>
<text text-anchor="start" x="616" y="-203.9" font-family="Arial" font-size="14.00" fill="#000000">isapplicable_tds    </text>
<text text-anchor="start" x="749.7826" y="-203.9" font-family="Arial" font-size="14.00" fill="#666666">[boolean]</text>
<polygon fill="none" stroke="#000000" points="609,-162.5 609,-192.5 954,-192.5 954,-162.5 609,-162.5"/>
<text text-anchor="start" x="616" y="-173.9" font-family="Arial" font-size="14.00" fill="#000000">opbal_tds    </text>
<text text-anchor="start" x="710.8976" y="-173.9" font-family="Arial" font-size="14.00" fill="#666666">[numeric(15,2)]</text>
<polygon fill="none" stroke="#000000" points="609,-132.5 609,-162.5 954,-162.5 954,-132.5 609,-132.5"/>
<text text-anchor="start" x="616" y="-143.9" font-family="Arial" font-size="14.00" fill="#000000">uidno    </text>
<text text-anchor="start" x="684.4418" y="-143.9" font-family="Arial" font-size="14.00" fill="#666666">[varchar(50)]</text>
<polygon fill="none" stroke="#000000" points="609,-102.5 609,-132.5 954,-132.5 954,-102.5 609,-102.5"/>
<text text-anchor="start" x="616" y="-113.9" font-family="Arial" font-size="14.00" fill="#000000">whatsappno    </text>
<text text-anchor="start" x="725.6802" y="-113.9" font-family="Arial" font-size="14.00" fill="#666666">[varchar(50)]</text>
<polygon fill="none" stroke="#000000" points="609,-72.5 609,-102.5 954,-102.5 954,-72.5 609,-72.5"/>
<text text-anchor="start" x="616" y="-83.9" font-family="Arial" font-size="14.00" fill="#000000">defaultcurrency    </text>
<text text-anchor="start" x="745.892" y="-83.9" font-family="Arial" font-size="14.00" fill="#666666">[integer]</text>
<polygon fill="none" stroke="#000000" points="609,-42.5 609,-72.5 954,-72.5 954,-42.5 609,-42.5"/>
<text text-anchor="start" x="616" y="-53.9" font-family="Arial" font-size="14.00" fill="#000000">solimit    </text>
<text text-anchor="start" x="689.8584" y="-53.9" font-family="Arial" font-size="14.00" fill="#666666">[numeric(12,2)]</text>
</g>
<!-- public.comn_partysitedetail&#45;&gt;public.comn_partymaster -->
<g id="edge1" class="edge">
<title>public.comn_partysitedetail:partyid&#45;&gt;public.comn_partymaster:partyid</title>
<path fill="none" stroke="#000000" d="M592.8275,-3936.7843C525.2108,-3926.7572 551.6607,-3813.8742 603,-3757 655.5392,-3698.7966 901.4608,-3779.2034 954,-3721 981.8449,-3690.1532 995.5556,-3627.5 954,-3627.5"/>
<polygon fill="#000000" stroke="#000000" points="593.0247,-3936.7981 602.6841,-3941.9889 598.0123,-3937.149 603,-3937.5 603,-3937.5 603,-3937.5 598.0123,-3937.149 603.3159,-3933.0111 593.0247,-3936.7981 593.0247,-3936.7981"/>
<text text-anchor="start" x="7.275" y="-3947.5" font-family="Arial" font-size="10.00" fill="#000000">FOREIGN KEY (partyid) REFERENCES comn_partymaster(partyid) MATCH FULL ON UPDATE CASCADE ON DELETE CASCADE</text>
</g>
</g>
</svg>
