<?xml version="1.0" encoding="UTF-8" standalone="no"?>
<!DOCTYPE svg PUBLIC "-//W3C//DTD SVG 1.1//EN"
 "http://www.w3.org/Graphics/SVG/1.1/DTD/svg11.dtd">
<!-- Generated by graphviz version 2.40.1 (20161225.0304)
 -->
<!-- Title: public.act_soactivitycompletiondetail Pages: 1 -->
<svg width="531pt" height="375pt"
 viewBox="0.00 0.00 531.00 375.00" xmlns="http://www.w3.org/2000/svg" xmlns:xlink="http://www.w3.org/1999/xlink">
<g id="graph0" class="graph" transform="scale(1 1) rotate(0) translate(4 371)">
<title>public.act_soactivitycompletiondetail</title>
<polygon fill="#ffffff" stroke="transparent" points="-4,4 -4,-371 527,-371 527,4 -4,4"/>
<!-- public.act_soactivitycompletiondetail -->
<g id="node1" class="node">
<title>public.act_soactivitycompletiondetail</title>
<polygon fill="#efefef" stroke="transparent" points="46.5,-285.5 46.5,-320.5 477.5,-320.5 477.5,-285.5 46.5,-285.5"/>
<polygon fill="none" stroke="#000000" points="46.5,-285.5 46.5,-320.5 477.5,-320.5 477.5,-285.5 46.5,-285.5"/>
<text text-anchor="start" x="53.19" y="-298.3" font-family="Arial Bold" font-size="18.00" fill="#000000">public.act_soactivitycompletiondetail</text>
<text text-anchor="start" x="343.242" y="-298.3" font-family="Arial" font-size="14.00" fill="#000000">    </text>
<text text-anchor="start" x="377.4468" y="-298.3" font-family="Arial" font-size="14.00" fill="#666666">[BASE TABLE]</text>
<polygon fill="none" stroke="#000000" points="46.5,-255.5 46.5,-285.5 477.5,-285.5 477.5,-255.5 46.5,-255.5"/>
<text text-anchor="start" x="53.5" y="-266.9" font-family="Arial" font-size="14.00" fill="#000000">detailid </text>
<text text-anchor="start" x="101.7314" y="-266.9" font-family="Arial" font-size="14.00" fill="#666666">[integer]</text>
<polygon fill="none" stroke="#000000" points="46.5,-225.5 46.5,-255.5 477.5,-255.5 477.5,-225.5 46.5,-225.5"/>
<text text-anchor="start" x="53.5" y="-236.9" font-family="Arial" font-size="14.00" fill="#000000">compid </text>
<text text-anchor="start" x="102.5056" y="-236.9" font-family="Arial" font-size="14.00" fill="#666666">[integer]</text>
<polygon fill="none" stroke="#000000" points="46.5,-195.5 46.5,-225.5 477.5,-225.5 477.5,-195.5 46.5,-195.5"/>
<text text-anchor="start" x="53.5" y="-206.9" font-family="Arial" font-size="14.00" fill="#000000">itemid </text>
<text text-anchor="start" x="94.7202" y="-206.9" font-family="Arial" font-size="14.00" fill="#666666">[integer]</text>
<polygon fill="none" stroke="#000000" points="46.5,-165.5 46.5,-195.5 477.5,-195.5 477.5,-165.5 46.5,-165.5"/>
<text text-anchor="start" x="53.5" y="-176.9" font-family="Arial" font-size="14.00" fill="#000000">activityid </text>
<text text-anchor="start" x="111.0568" y="-176.9" font-family="Arial" font-size="14.00" fill="#666666">[integer]</text>
<polygon fill="none" stroke="#000000" points="46.5,-135.5 46.5,-165.5 477.5,-165.5 477.5,-135.5 46.5,-135.5"/>
<text text-anchor="start" x="53.5" y="-146.9" font-family="Arial" font-size="14.00" fill="#000000">activitycompqty </text>
<text text-anchor="start" x="153.0666" y="-146.9" font-family="Arial" font-size="14.00" fill="#666666">[numeric(20,5)]</text>
<polygon fill="none" stroke="#000000" points="46.5,-105.5 46.5,-135.5 477.5,-135.5 477.5,-105.5 46.5,-105.5"/>
<text text-anchor="start" x="53.5" y="-116.9" font-family="Arial" font-size="14.00" fill="#000000">activityrate </text>
<text text-anchor="start" x="124.284" y="-116.9" font-family="Arial" font-size="14.00" fill="#666666">[numeric(20,5)]</text>
<polygon fill="none" stroke="#000000" points="46.5,-75.5 46.5,-105.5 477.5,-105.5 477.5,-75.5 46.5,-75.5"/>
<text text-anchor="start" x="53.5" y="-86.9" font-family="Arial" font-size="14.00" fill="#000000">activityamt </text>
<text text-anchor="start" x="123.5014" y="-86.9" font-family="Arial" font-size="14.00" fill="#666666">[numeric(20,5)]</text>
<polygon fill="none" stroke="#000000" points="46.5,-45.5 46.5,-75.5 477.5,-75.5 477.5,-45.5 46.5,-45.5"/>
<text text-anchor="start" x="53.5" y="-56.9" font-family="Arial" font-size="14.00" fill="#000000">remark </text>
<text text-anchor="start" x="100.9376" y="-56.9" font-family="Arial" font-size="14.00" fill="#666666">[varchar(500)]</text>
<polygon fill="none" stroke="#000000" stroke-width="3" points="44.5,-44.5 44.5,-322.5 478.5,-322.5 478.5,-44.5 44.5,-44.5"/>
</g>
</g>
</svg>
