<?xml version="1.0" encoding="UTF-8" standalone="no"?>
<!DOCTYPE svg PUBLIC "-//W3C//DTD SVG 1.1//EN"
 "http://www.w3.org/Graphics/SVG/1.1/DTD/svg11.dtd">
<!-- Generated by graphviz version 2.40.1 (20161225.0304)
 -->
<!-- Title: public.comn_formwisegridcolumnconfiguration Pages: 1 -->
<svg width="610pt" height="225pt"
 viewBox="0.00 0.00 610.00 225.00" xmlns="http://www.w3.org/2000/svg" xmlns:xlink="http://www.w3.org/1999/xlink">
<g id="graph0" class="graph" transform="scale(1 1) rotate(0) translate(4 221)">
<title>public.comn_formwisegridcolumnconfiguration</title>
<polygon fill="#ffffff" stroke="transparent" points="-4,4 -4,-221 606,-221 606,4 -4,4"/>
<!-- public.comn_formwisegridcolumnconfiguration -->
<g id="node1" class="node">
<title>public.comn_formwisegridcolumnconfiguration</title>
<polygon fill="#efefef" stroke="transparent" points="46,-135.5 46,-170.5 556,-170.5 556,-135.5 46,-135.5"/>
<polygon fill="none" stroke="#000000" points="46,-135.5 46,-170.5 556,-170.5 556,-135.5 46,-135.5"/>
<text text-anchor="start" x="52.6962" y="-148.3" font-family="Arial Bold" font-size="18.00" fill="#000000">public.comn_formwisegridcolumnconfiguration</text>
<text text-anchor="start" x="421.7358" y="-148.3" font-family="Arial" font-size="14.00" fill="#000000">    </text>
<text text-anchor="start" x="455.9406" y="-148.3" font-family="Arial" font-size="14.00" fill="#666666">[BASE TABLE]</text>
<polygon fill="none" stroke="#000000" points="46,-105.5 46,-135.5 556,-135.5 556,-105.5 46,-105.5"/>
<text text-anchor="start" x="53" y="-116.9" font-family="Arial" font-size="14.00" fill="#000000">formid </text>
<text text-anchor="start" x="95.7742" y="-116.9" font-family="Arial" font-size="14.00" fill="#666666">[integer]</text>
<polygon fill="none" stroke="#000000" points="46,-75.5 46,-105.5 556,-105.5 556,-75.5 46,-75.5"/>
<text text-anchor="start" x="53" y="-86.9" font-family="Arial" font-size="14.00" fill="#000000">jsonquery </text>
<text text-anchor="start" x="117.5708" y="-86.9" font-family="Arial" font-size="14.00" fill="#666666">[text]</text>
<polygon fill="none" stroke="#000000" points="46,-45.5 46,-75.5 556,-75.5 556,-45.5 46,-45.5"/>
<text text-anchor="start" x="53" y="-56.9" font-family="Arial" font-size="14.00" fill="#000000">branchid </text>
<text text-anchor="start" x="110.5708" y="-56.9" font-family="Arial" font-size="14.00" fill="#666666">[integer]</text>
<polygon fill="none" stroke="#000000" stroke-width="3" points="44.5,-44.5 44.5,-172.5 557.5,-172.5 557.5,-44.5 44.5,-44.5"/>
</g>
</g>
</svg>
