<?xml version="1.0" encoding="UTF-8" standalone="no"?>
<!DOCTYPE svg PUBLIC "-//W3C//DTD SVG 1.1//EN"
 "http://www.w3.org/Graphics/SVG/1.1/DTD/svg11.dtd">
<!-- Generated by graphviz version 2.40.1 (20161225.0304)
 -->
<!-- Title: public.qlty_parametertestdetailiam Pages: 1 -->
<svg width="514pt" height="285pt"
 viewBox="0.00 0.00 514.00 285.00" xmlns="http://www.w3.org/2000/svg" xmlns:xlink="http://www.w3.org/1999/xlink">
<g id="graph0" class="graph" transform="scale(1 1) rotate(0) translate(4 281)">
<title>public.qlty_parametertestdetailiam</title>
<polygon fill="#ffffff" stroke="transparent" points="-4,4 -4,-281 510,-281 510,4 -4,4"/>
<!-- public.qlty_parametertestdetailiam -->
<g id="node1" class="node">
<title>public.qlty_parametertestdetailiam</title>
<polygon fill="#efefef" stroke="transparent" points="46,-195.5 46,-230.5 460,-230.5 460,-195.5 46,-195.5"/>
<polygon fill="none" stroke="#000000" points="46,-195.5 46,-230.5 460,-230.5 460,-195.5 46,-195.5"/>
<text text-anchor="start" x="52.6959" y="-208.3" font-family="Arial Bold" font-size="18.00" fill="#000000">public.qlty_parametertestdetailiam</text>
<text text-anchor="start" x="325.7361" y="-208.3" font-family="Arial" font-size="14.00" fill="#000000">    </text>
<text text-anchor="start" x="359.9409" y="-208.3" font-family="Arial" font-size="14.00" fill="#666666">[BASE TABLE]</text>
<polygon fill="none" stroke="#000000" points="46,-165.5 46,-195.5 460,-195.5 460,-165.5 46,-165.5"/>
<text text-anchor="start" x="53" y="-176.9" font-family="Arial" font-size="14.00" fill="#000000">parametertestdetailid </text>
<text text-anchor="start" x="187.5806" y="-176.9" font-family="Arial" font-size="14.00" fill="#666666">[integer]</text>
<polygon fill="none" stroke="#000000" points="46,-135.5 46,-165.5 460,-165.5 460,-135.5 46,-135.5"/>
<text text-anchor="start" x="53" y="-146.9" font-family="Arial" font-size="14.00" fill="#000000">parameterdetailid </text>
<text text-anchor="start" x="165.0168" y="-146.9" font-family="Arial" font-size="14.00" fill="#666666">[integer]</text>
<polygon fill="none" stroke="#000000" points="46,-105.5 46,-135.5 460,-135.5 460,-105.5 46,-105.5"/>
<text text-anchor="start" x="53" y="-116.9" font-family="Arial" font-size="14.00" fill="#000000">nooftest </text>
<text text-anchor="start" x="106.6928" y="-116.9" font-family="Arial" font-size="14.00" fill="#666666">[integer]</text>
<polygon fill="none" stroke="#000000" points="46,-75.5 46,-105.5 460,-105.5 460,-75.5 46,-75.5"/>
<text text-anchor="start" x="53" y="-86.9" font-family="Arial" font-size="14.00" fill="#000000">value </text>
<text text-anchor="start" x="90.345" y="-86.9" font-family="Arial" font-size="14.00" fill="#666666">[numeric(17,7)]</text>
<polygon fill="none" stroke="#000000" points="46,-45.5 46,-75.5 460,-75.5 460,-45.5 46,-45.5"/>
<text text-anchor="start" x="53" y="-56.9" font-family="Arial" font-size="14.00" fill="#000000">inspectionid </text>
<text text-anchor="start" x="130.7966" y="-56.9" font-family="Arial" font-size="14.00" fill="#666666">[integer]</text>
<polygon fill="none" stroke="#000000" stroke-width="3" points="44.5,-44.5 44.5,-232.5 461.5,-232.5 461.5,-44.5 44.5,-44.5"/>
</g>
</g>
</svg>
