<?xml version="1.0" encoding="UTF-8" standalone="no"?>
<!DOCTYPE svg PUBLIC "-//W3C//DTD SVG 1.1//EN"
 "http://www.w3.org/Graphics/SVG/1.1/DTD/svg11.dtd">
<!-- Generated by graphviz version 2.40.1 (20161225.0304)
 -->
<!-- Title: public.pur_profitabilitysettingamendlog Pages: 1 -->
<svg width="1275pt" height="1162pt"
 viewBox="0.00 0.00 1275.00 1162.00" xmlns="http://www.w3.org/2000/svg" xmlns:xlink="http://www.w3.org/1999/xlink">
<g id="graph0" class="graph" transform="scale(1 1) rotate(0) translate(4 1158)">
<title>public.pur_profitabilitysettingamendlog</title>
<polygon fill="#ffffff" stroke="transparent" points="-4,4 -4,-1158 1271,-1158 1271,4 -4,4"/>
<!-- public.pur_profitabilitysettingamendlog -->
<g id="node1" class="node">
<title>public.pur_profitabilitysettingamendlog</title>
<polygon fill="#efefef" stroke="transparent" points="755,-555.5 755,-590.5 1202,-590.5 1202,-555.5 755,-555.5"/>
<polygon fill="none" stroke="#000000" points="755,-555.5 755,-590.5 1202,-590.5 1202,-555.5 755,-555.5"/>
<text text-anchor="start" x="761.6854" y="-568.3" font-family="Arial Bold" font-size="18.00" fill="#000000">public.pur_profitabilitysettingamendlog</text>
<text text-anchor="start" x="1067.7466" y="-568.3" font-family="Arial" font-size="14.00" fill="#000000">    </text>
<text text-anchor="start" x="1101.9514" y="-568.3" font-family="Arial" font-size="14.00" fill="#666666">[BASE TABLE]</text>
<polygon fill="none" stroke="#000000" points="755,-525.5 755,-555.5 1202,-555.5 1202,-525.5 755,-525.5"/>
<text text-anchor="start" x="762" y="-536.9" font-family="Arial" font-size="14.00" fill="#000000">settingmasteramendid </text>
<text text-anchor="start" x="903.5834" y="-536.9" font-family="Arial" font-size="14.00" fill="#666666">[integer]</text>
<polygon fill="none" stroke="#000000" points="755,-495.5 755,-525.5 1202,-525.5 1202,-495.5 755,-495.5"/>
<text text-anchor="start" x="762" y="-506.9" font-family="Arial" font-size="14.00" fill="#000000">settingid </text>
<text text-anchor="start" x="818.0154" y="-506.9" font-family="Arial" font-size="14.00" fill="#666666">[integer]</text>
<polygon fill="none" stroke="#000000" points="755,-465.5 755,-495.5 1202,-495.5 1202,-465.5 755,-465.5"/>
<text text-anchor="start" x="762" y="-476.9" font-family="Arial" font-size="14.00" fill="#000000">branchid </text>
<text text-anchor="start" x="819.5708" y="-476.9" font-family="Arial" font-size="14.00" fill="#666666">[integer]</text>
<polygon fill="none" stroke="#000000" points="755,-435.5 755,-465.5 1202,-465.5 1202,-435.5 755,-435.5"/>
<text text-anchor="start" x="762" y="-446.9" font-family="Arial" font-size="14.00" fill="#000000">period </text>
<text text-anchor="start" x="804.7882" y="-446.9" font-family="Arial" font-size="14.00" fill="#666666">[date]</text>
<polygon fill="none" stroke="#000000" points="755,-405.5 755,-435.5 1202,-435.5 1202,-405.5 755,-405.5"/>
<text text-anchor="start" x="762" y="-416.9" font-family="Arial" font-size="14.00" fill="#000000">settingvalueid </text>
<text text-anchor="start" x="851.4698" y="-416.9" font-family="Arial" font-size="14.00" fill="#666666">[integer]</text>
<polygon fill="none" stroke="#000000" points="755,-375.5 755,-405.5 1202,-405.5 1202,-375.5 755,-375.5"/>
<text text-anchor="start" x="762" y="-386.9" font-family="Arial" font-size="14.00" fill="#000000">settingvalueagainst </text>
<text text-anchor="start" x="885.7082" y="-386.9" font-family="Arial" font-size="14.00" fill="#666666">[integer]</text>
<polygon fill="none" stroke="#000000" points="755,-345.5 755,-375.5 1202,-375.5 1202,-345.5 755,-345.5"/>
<text text-anchor="start" x="762" y="-356.9" font-family="Arial" font-size="14.00" fill="#000000">valuein </text>
<text text-anchor="start" x="810.2342" y="-356.9" font-family="Arial" font-size="14.00" fill="#666666">[integer]</text>
<polygon fill="none" stroke="#000000" points="755,-315.5 755,-345.5 1202,-345.5 1202,-315.5 755,-315.5"/>
<text text-anchor="start" x="762" y="-326.9" font-family="Arial" font-size="14.00" fill="#000000">value_amount </text>
<text text-anchor="start" x="853.8092" y="-326.9" font-family="Arial" font-size="14.00" fill="#666666">[double precision]</text>
<polygon fill="none" stroke="#000000" points="755,-285.5 755,-315.5 1202,-315.5 1202,-285.5 755,-285.5"/>
<text text-anchor="start" x="762" y="-296.9" font-family="Arial" font-size="14.00" fill="#000000">createdon </text>
<text text-anchor="start" x="828.1374" y="-296.9" font-family="Arial" font-size="14.00" fill="#666666">[date]</text>
<polygon fill="none" stroke="#000000" points="755,-255.5 755,-285.5 1202,-285.5 1202,-255.5 755,-255.5"/>
<text text-anchor="start" x="762" y="-266.9" font-family="Arial" font-size="14.00" fill="#000000">createdby </text>
<text text-anchor="start" x="827.3548" y="-266.9" font-family="Arial" font-size="14.00" fill="#666666">[smallint]</text>
<polygon fill="none" stroke="#000000" points="755,-225.5 755,-255.5 1202,-255.5 1202,-225.5 755,-225.5"/>
<text text-anchor="start" x="762" y="-236.9" font-family="Arial" font-size="14.00" fill="#000000">authorizedon </text>
<text text-anchor="start" x="846.8092" y="-236.9" font-family="Arial" font-size="14.00" fill="#666666">[date]</text>
<polygon fill="none" stroke="#000000" points="755,-195.5 755,-225.5 1202,-225.5 1202,-195.5 755,-195.5"/>
<text text-anchor="start" x="762" y="-206.9" font-family="Arial" font-size="14.00" fill="#000000">authorizedby </text>
<text text-anchor="start" x="846.0266" y="-206.9" font-family="Arial" font-size="14.00" fill="#666666">[smallint]</text>
<polygon fill="none" stroke="#000000" points="755,-165.5 755,-195.5 1202,-195.5 1202,-165.5 755,-165.5"/>
<text text-anchor="start" x="762" y="-176.9" font-family="Arial" font-size="14.00" fill="#000000">isauthorized </text>
<text text-anchor="start" x="841.3506" y="-176.9" font-family="Arial" font-size="14.00" fill="#666666">[boolean]</text>
<polygon fill="none" stroke="#000000" points="755,-135.5 755,-165.5 1202,-165.5 1202,-135.5 755,-135.5"/>
<text text-anchor="start" x="762" y="-146.9" font-family="Arial" font-size="14.00" fill="#000000">amendby </text>
<text text-anchor="start" x="823.4642" y="-146.9" font-family="Arial" font-size="14.00" fill="#666666">[integer]</text>
<polygon fill="none" stroke="#000000" points="755,-105.5 755,-135.5 1202,-135.5 1202,-105.5 755,-105.5"/>
<text text-anchor="start" x="762" y="-116.9" font-family="Arial" font-size="14.00" fill="#000000">amendon </text>
<text text-anchor="start" x="824.2468" y="-116.9" font-family="Arial" font-size="14.00" fill="#666666">[timestamp without time zone]</text>
<polygon fill="none" stroke="#000000" points="755,-75.5 755,-105.5 1202,-105.5 1202,-75.5 755,-75.5"/>
<text text-anchor="start" x="762" y="-86.9" font-family="Arial" font-size="14.00" fill="#000000">amendno </text>
<text text-anchor="start" x="824.2468" y="-86.9" font-family="Arial" font-size="14.00" fill="#666666">[integer]</text>
<polygon fill="none" stroke="#000000" points="755,-45.5 755,-75.5 1202,-75.5 1202,-45.5 755,-45.5"/>
<text text-anchor="start" x="762" y="-56.9" font-family="Arial" font-size="14.00" fill="#000000">amendreason </text>
<text text-anchor="start" x="851.4726" y="-56.9" font-family="Arial" font-size="14.00" fill="#666666">[text]</text>
<polygon fill="none" stroke="#000000" stroke-width="3" points="753,-44.5 753,-592.5 1203,-592.5 1203,-44.5 753,-44.5"/>
</g>
<!-- public.pur_profitabilitysettingdetailamendlog -->
<g id="node2" class="node">
<title>public.pur_profitabilitysettingdetailamendlog</title>
<polygon fill="#efefef" stroke="transparent" points="734,-1075.5 734,-1110.5 1224,-1110.5 1224,-1075.5 734,-1075.5"/>
<polygon fill="none" stroke="#000000" points="734,-1075.5 734,-1110.5 1224,-1110.5 1224,-1075.5 734,-1075.5"/>
<text text-anchor="start" x="740.6808" y="-1088.3" font-family="Arial Bold" font-size="18.00" fill="#000000">public.pur_profitabilitysettingdetailamendlog</text>
<text text-anchor="start" x="1089.7512" y="-1088.3" font-family="Arial" font-size="14.00" fill="#000000">    </text>
<text text-anchor="start" x="1123.956" y="-1088.3" font-family="Arial" font-size="14.00" fill="#666666">[BASE TABLE]</text>
<polygon fill="none" stroke="#000000" points="734,-1045.5 734,-1075.5 1224,-1075.5 1224,-1045.5 734,-1045.5"/>
<text text-anchor="start" x="741" y="-1056.9" font-family="Arial" font-size="14.00" fill="#000000">amenddetailid    </text>
<text text-anchor="start" x="862.3366" y="-1056.9" font-family="Arial" font-size="14.00" fill="#666666">[integer]</text>
<polygon fill="none" stroke="#000000" points="734,-1015.5 734,-1045.5 1224,-1045.5 1224,-1015.5 734,-1015.5"/>
<text text-anchor="start" x="741" y="-1026.9" font-family="Arial" font-size="14.00" fill="#000000">settingmasteramendid    </text>
<text text-anchor="start" x="912.8976" y="-1026.9" font-family="Arial" font-size="14.00" fill="#666666">[integer]</text>
<polygon fill="none" stroke="#000000" points="734,-985.5 734,-1015.5 1224,-1015.5 1224,-985.5 734,-985.5"/>
<text text-anchor="start" x="741" y="-996.9" font-family="Arial" font-size="14.00" fill="#000000">detailid    </text>
<text text-anchor="start" x="819.5456" y="-996.9" font-family="Arial" font-size="14.00" fill="#666666">[integer]</text>
<polygon fill="none" stroke="#000000" points="734,-955.5 734,-985.5 1224,-985.5 1224,-955.5 734,-955.5"/>
<text text-anchor="start" x="741" y="-966.9" font-family="Arial" font-size="14.00" fill="#000000">settingid    </text>
<text text-anchor="start" x="827.3296" y="-966.9" font-family="Arial" font-size="14.00" fill="#666666">[integer]</text>
<polygon fill="none" stroke="#000000" points="734,-925.5 734,-955.5 1224,-955.5 1224,-925.5 734,-925.5"/>
<text text-anchor="start" x="741" y="-936.9" font-family="Arial" font-size="14.00" fill="#000000">itemid    </text>
<text text-anchor="start" x="812.5344" y="-936.9" font-family="Arial" font-size="14.00" fill="#666666">[integer]</text>
<polygon fill="none" stroke="#000000" points="734,-895.5 734,-925.5 1224,-925.5 1224,-895.5 734,-895.5"/>
<text text-anchor="start" x="741" y="-906.9" font-family="Arial" font-size="14.00" fill="#000000">brandid    </text>
<text text-anchor="start" x="821.885" y="-906.9" font-family="Arial" font-size="14.00" fill="#666666">[integer]</text>
<polygon fill="none" stroke="#000000" points="734,-865.5 734,-895.5 1224,-895.5 1224,-865.5 734,-865.5"/>
<text text-anchor="start" x="741" y="-876.9" font-family="Arial" font-size="14.00" fill="#000000">rate    </text>
<text text-anchor="start" x="799.3212" y="-876.9" font-family="Arial" font-size="14.00" fill="#666666">[double precision]</text>
<polygon fill="none" stroke="#000000" points="734,-835.5 734,-865.5 1224,-865.5 1224,-835.5 734,-835.5"/>
<text text-anchor="start" x="741" y="-846.9" font-family="Arial" font-size="14.00" fill="#000000">amount    </text>
<text text-anchor="start" x="821.8864" y="-846.9" font-family="Arial" font-size="14.00" fill="#666666">[double precision]</text>
<polygon fill="none" stroke="#000000" points="734,-805.5 734,-835.5 1224,-835.5 1224,-805.5 734,-805.5"/>
<text text-anchor="start" x="741" y="-816.9" font-family="Arial" font-size="14.00" fill="#000000">amendby    </text>
<text text-anchor="start" x="832.7784" y="-816.9" font-family="Arial" font-size="14.00" fill="#666666">[integer]</text>
<polygon fill="none" stroke="#000000" points="734,-775.5 734,-805.5 1224,-805.5 1224,-775.5 734,-775.5"/>
<text text-anchor="start" x="741" y="-786.9" font-family="Arial" font-size="14.00" fill="#000000">amendon    </text>
<text text-anchor="start" x="833.561" y="-786.9" font-family="Arial" font-size="14.00" fill="#666666">[timestamp without time zone]</text>
<polygon fill="none" stroke="#000000" points="734,-745.5 734,-775.5 1224,-775.5 1224,-745.5 734,-745.5"/>
<text text-anchor="start" x="741" y="-756.9" font-family="Arial" font-size="14.00" fill="#000000">amendno    </text>
<text text-anchor="start" x="833.561" y="-756.9" font-family="Arial" font-size="14.00" fill="#666666">[integer]</text>
<polygon fill="none" stroke="#000000" points="734,-715.5 734,-745.5 1224,-745.5 1224,-715.5 734,-715.5"/>
<text text-anchor="start" x="741" y="-726.9" font-family="Arial" font-size="14.00" fill="#000000">amendreason    </text>
<text text-anchor="start" x="860.7868" y="-726.9" font-family="Arial" font-size="14.00" fill="#666666">[text]</text>
</g>
<!-- public.pur_profitabilitysettingdetailamendlog&#45;&gt;public.pur_profitabilitysettingamendlog -->
<g id="edge1" class="edge">
<title>public.pur_profitabilitysettingdetailamendlog:settingmasteramendid&#45;&gt;public.pur_profitabilitysettingamendlog:settingmasteramendid</title>
<path fill="none" stroke="#000000" d="M723.9218,-1028.7376C656.901,-1004.104 682.4463,-728.6716 734,-673 804.8715,-596.4675 1131.1285,-713.5325 1202,-637 1231.1408,-605.5315 1244.8889,-540.5 1202,-540.5"/>
<polygon fill="#000000" stroke="#000000" points="724.1495,-1028.7773 733.2248,-1034.9327 729.0747,-1029.6387 734,-1030.5 734,-1030.5 734,-1030.5 729.0747,-1029.6387 734.7752,-1026.0673 724.1495,-1028.7773 724.1495,-1028.7773"/>
<text text-anchor="start" x="6.6955" y="-1040.5" font-family="Arial" font-size="10.00" fill="#000000">FOREIGN KEY (settingmasteramendid) REFERENCES pur_profitabilitysettingamendlog(settingmasteramendid) ON UPDATE CASCADE ON DELETE RESTRICT</text>
</g>
</g>
</svg>
