<?xml version="1.0" encoding="UTF-8" standalone="no"?>
<!DOCTYPE svg PUBLIC "-//W3C//DTD SVG 1.1//EN"
 "http://www.w3.org/Graphics/SVG/1.1/DTD/svg11.dtd">
<!-- Generated by graphviz version 2.40.1 (20161225.0304)
 -->
<!-- Title: public.comn_gstr_config Pages: 1 -->
<svg width="670pt" height="1492pt"
 viewBox="0.00 0.00 669.50 1492.00" xmlns="http://www.w3.org/2000/svg" xmlns:xlink="http://www.w3.org/1999/xlink">
<g id="graph0" class="graph" transform="scale(1 1) rotate(0) translate(4 1488)">
<title>public.comn_gstr_config</title>
<polygon fill="#ffffff" stroke="transparent" points="-4,4 -4,-1488 665.5,-1488 665.5,4 -4,4"/>
<!-- public.comn_gstr_config -->
<g id="node1" class="node">
<title>public.comn_gstr_config</title>
<polygon fill="#efefef" stroke="transparent" points="281,-825.5 281,-860.5 616,-860.5 616,-825.5 281,-825.5"/>
<polygon fill="none" stroke="#000000" points="281,-825.5 281,-860.5 616,-860.5 616,-825.5 281,-825.5"/>
<text text-anchor="start" x="287.6951" y="-838.3" font-family="Arial Bold" font-size="18.00" fill="#000000">public.comn_gstr_config</text>
<text text-anchor="start" x="481.7369" y="-838.3" font-family="Arial" font-size="14.00" fill="#000000">    </text>
<text text-anchor="start" x="515.9417" y="-838.3" font-family="Arial" font-size="14.00" fill="#666666">[BASE TABLE]</text>
<polygon fill="none" stroke="#000000" points="281,-795.5 281,-825.5 616,-825.5 616,-795.5 281,-795.5"/>
<text text-anchor="start" x="288" y="-806.9" font-family="Arial" font-size="14.00" fill="#000000">id </text>
<text text-anchor="start" x="302.7798" y="-806.9" font-family="Arial" font-size="14.00" fill="#666666">[integer]</text>
<polygon fill="none" stroke="#000000" points="281,-765.5 281,-795.5 616,-795.5 616,-765.5 281,-765.5"/>
<text text-anchor="start" x="288" y="-776.9" font-family="Arial" font-size="14.00" fill="#000000">clientid </text>
<text text-anchor="start" x="335.4488" y="-776.9" font-family="Arial" font-size="14.00" fill="#666666">[integer]</text>
<polygon fill="none" stroke="#000000" points="281,-735.5 281,-765.5 616,-765.5 616,-735.5 281,-735.5"/>
<text text-anchor="start" x="288" y="-746.9" font-family="Arial" font-size="14.00" fill="#000000">status </text>
<text text-anchor="start" x="329.237" y="-746.9" font-family="Arial" font-size="14.00" fill="#666666">[boolean]</text>
<polygon fill="none" stroke="#000000" points="281,-705.5 281,-735.5 616,-735.5 616,-705.5 281,-705.5"/>
<text text-anchor="start" x="288" y="-716.9" font-family="Arial" font-size="14.00" fill="#000000">vendor </text>
<text text-anchor="start" x="334.6816" y="-716.9" font-family="Arial" font-size="14.00" fill="#666666">[varchar(10)]</text>
<polygon fill="none" stroke="#000000" points="281,-675.5 281,-705.5 616,-705.5 616,-675.5 281,-675.5"/>
<text text-anchor="start" x="288" y="-686.9" font-family="Arial" font-size="14.00" fill="#000000">islive </text>
<text text-anchor="start" x="322.993" y="-686.9" font-family="Arial" font-size="14.00" fill="#666666">[boolean]</text>
<polygon fill="none" stroke="#000000" points="281,-645.5 281,-675.5 616,-675.5 616,-645.5 281,-645.5"/>
<text text-anchor="start" x="288" y="-656.9" font-family="Arial" font-size="14.00" fill="#000000">branchid </text>
<text text-anchor="start" x="345.5708" y="-656.9" font-family="Arial" font-size="14.00" fill="#666666">[integer]</text>
<polygon fill="none" stroke="#000000" points="281,-615.5 281,-645.5 616,-645.5 616,-615.5 281,-615.5"/>
<text text-anchor="start" x="288" y="-626.9" font-family="Arial" font-size="14.00" fill="#000000">apihitlimit </text>
<text text-anchor="start" x="350.2132" y="-626.9" font-family="Arial" font-size="14.00" fill="#666666">[integer]</text>
<polygon fill="none" stroke="#000000" points="281,-585.5 281,-615.5 616,-615.5 616,-585.5 281,-585.5"/>
<text text-anchor="start" x="288" y="-596.9" font-family="Arial" font-size="14.00" fill="#000000">apivalidfrom </text>
<text text-anchor="start" x="367.3352" y="-596.9" font-family="Arial" font-size="14.00" fill="#666666">[timestamp without time zone]</text>
<polygon fill="none" stroke="#000000" points="281,-555.5 281,-585.5 616,-585.5 616,-555.5 281,-555.5"/>
<text text-anchor="start" x="288" y="-566.9" font-family="Arial" font-size="14.00" fill="#000000">apivalidto </text>
<text text-anchor="start" x="351.014" y="-566.9" font-family="Arial" font-size="14.00" fill="#666666">[timestamp without time zone]</text>
<polygon fill="none" stroke="#000000" points="281,-525.5 281,-555.5 616,-555.5 616,-525.5 281,-525.5"/>
<text text-anchor="start" x="288" y="-536.9" font-family="Arial" font-size="14.00" fill="#000000">appkey </text>
<text text-anchor="start" x="337.021" y="-536.9" font-family="Arial" font-size="14.00" fill="#666666">[varchar(256)]</text>
<polygon fill="none" stroke="#000000" points="281,-495.5 281,-525.5 616,-525.5 616,-495.5 281,-495.5"/>
<text text-anchor="start" x="288" y="-506.9" font-family="Arial" font-size="14.00" fill="#000000">appkey_b64 </text>
<text text-anchor="start" x="368.1514" y="-506.9" font-family="Arial" font-size="14.00" fill="#666666">[varchar(256)]</text>
<polygon fill="none" stroke="#000000" points="281,-465.5 281,-495.5 616,-495.5 616,-465.5 281,-465.5"/>
<text text-anchor="start" x="288" y="-476.9" font-family="Arial" font-size="14.00" fill="#000000">subkey </text>
<text text-anchor="start" x="336.2384" y="-476.9" font-family="Arial" font-size="14.00" fill="#666666">[varchar(100)]</text>
<polygon fill="none" stroke="#000000" points="281,-435.5 281,-465.5 616,-465.5 616,-435.5 281,-435.5"/>
<text text-anchor="start" x="288" y="-446.9" font-family="Arial" font-size="14.00" fill="#000000">username </text>
<text text-anchor="start" x="354.1248" y="-446.9" font-family="Arial" font-size="14.00" fill="#666666">[varchar(50)]</text>
<polygon fill="none" stroke="#000000" points="281,-405.5 281,-435.5 616,-435.5 616,-405.5 281,-405.5"/>
<text text-anchor="start" x="288" y="-416.9" font-family="Arial" font-size="14.00" fill="#000000">password </text>
<text text-anchor="start" x="351.7882" y="-416.9" font-family="Arial" font-size="14.00" fill="#666666">[varchar(50)]</text>
<polygon fill="none" stroke="#000000" points="281,-375.5 281,-405.5 616,-405.5 616,-375.5 281,-375.5"/>
<text text-anchor="start" x="288" y="-386.9" font-family="Arial" font-size="14.00" fill="#000000">baseurl </text>
<text text-anchor="start" x="337.7882" y="-386.9" font-family="Arial" font-size="14.00" fill="#666666">[varchar(500)]</text>
<polygon fill="none" stroke="#000000" points="281,-345.5 281,-375.5 616,-375.5 616,-345.5 281,-345.5"/>
<text text-anchor="start" x="288" y="-356.9" font-family="Arial" font-size="14.00" fill="#000000">ipaddr </text>
<text text-anchor="start" x="330.7882" y="-356.9" font-family="Arial" font-size="14.00" fill="#666666">[varchar(50)]</text>
<polygon fill="none" stroke="#000000" points="281,-315.5 281,-345.5 616,-345.5 616,-315.5 281,-315.5"/>
<text text-anchor="start" x="288" y="-326.9" font-family="Arial" font-size="14.00" fill="#000000">apiclientid </text>
<text text-anchor="start" x="354.1206" y="-326.9" font-family="Arial" font-size="14.00" fill="#666666">[varchar(100)]</text>
<polygon fill="none" stroke="#000000" points="281,-285.5 281,-315.5 616,-315.5 616,-285.5 281,-285.5"/>
<text text-anchor="start" x="288" y="-296.9" font-family="Arial" font-size="14.00" fill="#000000">clientsecret </text>
<text text-anchor="start" x="362.676" y="-296.9" font-family="Arial" font-size="14.00" fill="#666666">[varchar(100)]</text>
<polygon fill="none" stroke="#000000" points="281,-255.5 281,-285.5 616,-285.5 616,-255.5 281,-255.5"/>
<text text-anchor="start" x="288" y="-266.9" font-family="Arial" font-size="14.00" fill="#000000">txn </text>
<text text-anchor="start" x="310.5638" y="-266.9" font-family="Arial" font-size="14.00" fill="#666666">[varchar(10)]</text>
<polygon fill="none" stroke="#000000" points="281,-225.5 281,-255.5 616,-255.5 616,-225.5 281,-225.5"/>
<text text-anchor="start" x="288" y="-236.9" font-family="Arial" font-size="14.00" fill="#000000">otpjson </text>
<text text-anchor="start" x="337.0182" y="-236.9" font-family="Arial" font-size="14.00" fill="#666666">[text]</text>
<polygon fill="none" stroke="#000000" points="281,-195.5 281,-225.5 616,-225.5 616,-195.5 281,-195.5"/>
<text text-anchor="start" x="288" y="-206.9" font-family="Arial" font-size="14.00" fill="#000000">otptime </text>
<text text-anchor="start" x="337.7868" y="-206.9" font-family="Arial" font-size="14.00" fill="#666666">[timestamp without time zone]</text>
<polygon fill="none" stroke="#000000" points="281,-165.5 281,-195.5 616,-195.5 616,-165.5 281,-165.5"/>
<text text-anchor="start" x="288" y="-176.9" font-family="Arial" font-size="14.00" fill="#000000">atokenjson </text>
<text text-anchor="start" x="359.5834" y="-176.9" font-family="Arial" font-size="14.00" fill="#666666">[text]</text>
<polygon fill="none" stroke="#000000" points="281,-135.5 281,-165.5 616,-165.5 616,-135.5 281,-135.5"/>
<text text-anchor="start" x="288" y="-146.9" font-family="Arial" font-size="14.00" fill="#000000">atokentime </text>
<text text-anchor="start" x="360.352" y="-146.9" font-family="Arial" font-size="14.00" fill="#666666">[timestamp without time zone]</text>
<polygon fill="none" stroke="#000000" points="281,-105.5 281,-135.5 616,-135.5 616,-105.5 281,-105.5"/>
<text text-anchor="start" x="288" y="-116.9" font-family="Arial" font-size="14.00" fill="#000000">atokenexpiry </text>
<text text-anchor="start" x="371.244" y="-116.9" font-family="Arial" font-size="14.00" fill="#666666">[integer]</text>
<polygon fill="none" stroke="#000000" points="281,-75.5 281,-105.5 616,-105.5 616,-75.5 281,-75.5"/>
<text text-anchor="start" x="288" y="-86.9" font-family="Arial" font-size="14.00" fill="#000000">lastedittime </text>
<text text-anchor="start" x="362.6732" y="-86.9" font-family="Arial" font-size="14.00" fill="#666666">[timestamp without time zone]</text>
<polygon fill="none" stroke="#000000" points="281,-45.5 281,-75.5 616,-75.5 616,-45.5 281,-45.5"/>
<text text-anchor="start" x="288" y="-56.9" font-family="Arial" font-size="14.00" fill="#000000">lasteditby </text>
<text text-anchor="start" x="351.0154" y="-56.9" font-family="Arial" font-size="14.00" fill="#666666">[varchar(10)]</text>
<polygon fill="none" stroke="#000000" stroke-width="3" points="279,-44.5 279,-862.5 617,-862.5 617,-44.5 279,-44.5"/>
</g>
<!-- public.comn_gstr_log -->
<g id="node2" class="node">
<title>public.comn_gstr_log</title>
<polygon fill="#efefef" stroke="transparent" points="293,-1405.5 293,-1440.5 604,-1440.5 604,-1405.5 293,-1405.5"/>
<polygon fill="none" stroke="#000000" points="293,-1405.5 293,-1440.5 604,-1440.5 604,-1405.5 293,-1405.5"/>
<text text-anchor="start" x="299.6993" y="-1418.3" font-family="Arial Bold" font-size="18.00" fill="#000000">public.comn_gstr_log</text>
<text text-anchor="start" x="469.7327" y="-1418.3" font-family="Arial" font-size="14.00" fill="#000000">    </text>
<text text-anchor="start" x="503.9375" y="-1418.3" font-family="Arial" font-size="14.00" fill="#666666">[BASE TABLE]</text>
<polygon fill="none" stroke="#000000" points="293,-1375.5 293,-1405.5 604,-1405.5 604,-1375.5 293,-1375.5"/>
<text text-anchor="start" x="300" y="-1386.9" font-family="Arial" font-size="14.00" fill="#000000">id    </text>
<text text-anchor="start" x="345.094" y="-1386.9" font-family="Arial" font-size="14.00" fill="#666666">[integer]</text>
<polygon fill="none" stroke="#000000" points="293,-1345.5 293,-1375.5 604,-1375.5 604,-1345.5 293,-1345.5"/>
<text text-anchor="start" x="300" y="-1356.9" font-family="Arial" font-size="14.00" fill="#000000">configid    </text>
<text text-anchor="start" x="382.439" y="-1356.9" font-family="Arial" font-size="14.00" fill="#666666">[integer]</text>
<polygon fill="none" stroke="#000000" points="293,-1315.5 293,-1345.5 604,-1345.5 604,-1315.5 293,-1315.5"/>
<text text-anchor="start" x="300" y="-1326.9" font-family="Arial" font-size="14.00" fill="#000000">branchid    </text>
<text text-anchor="start" x="387.885" y="-1326.9" font-family="Arial" font-size="14.00" fill="#666666">[integer]</text>
<polygon fill="none" stroke="#000000" points="293,-1285.5 293,-1315.5 604,-1315.5 604,-1285.5 293,-1285.5"/>
<text text-anchor="start" x="300" y="-1296.9" font-family="Arial" font-size="14.00" fill="#000000">period    </text>
<text text-anchor="start" x="373.1024" y="-1296.9" font-family="Arial" font-size="14.00" fill="#666666">[varchar(6)]</text>
<polygon fill="none" stroke="#000000" points="293,-1255.5 293,-1285.5 604,-1285.5 604,-1255.5 293,-1255.5"/>
<text text-anchor="start" x="300" y="-1266.9" font-family="Arial" font-size="14.00" fill="#000000">action    </text>
<text text-anchor="start" x="371.5498" y="-1266.9" font-family="Arial" font-size="14.00" fill="#666666">[varchar(10)]</text>
<polygon fill="none" stroke="#000000" points="293,-1225.5 293,-1255.5 604,-1255.5 604,-1225.5 293,-1225.5"/>
<text text-anchor="start" x="300" y="-1236.9" font-family="Arial" font-size="14.00" fill="#000000">gstrtype    </text>
<text text-anchor="start" x="383.9944" y="-1236.9" font-family="Arial" font-size="14.00" fill="#666666">[varchar(10)]</text>
<polygon fill="none" stroke="#000000" points="293,-1195.5 293,-1225.5 604,-1225.5 604,-1195.5 293,-1195.5"/>
<text text-anchor="start" x="300" y="-1206.9" font-family="Arial" font-size="14.00" fill="#000000">formid    </text>
<text text-anchor="start" x="373.0884" y="-1206.9" font-family="Arial" font-size="14.00" fill="#666666">[integer]</text>
<polygon fill="none" stroke="#000000" points="293,-1165.5 293,-1195.5 604,-1195.5 604,-1165.5 293,-1165.5"/>
<text text-anchor="start" x="300" y="-1176.9" font-family="Arial" font-size="14.00" fill="#000000">formattype    </text>
<text text-anchor="start" x="400.3282" y="-1176.9" font-family="Arial" font-size="14.00" fill="#666666">[varchar(10)]</text>
<polygon fill="none" stroke="#000000" points="293,-1135.5 293,-1165.5 604,-1165.5 604,-1135.5 293,-1135.5"/>
<text text-anchor="start" x="300" y="-1146.9" font-family="Arial" font-size="14.00" fill="#000000">status    </text>
<text text-anchor="start" x="371.5512" y="-1146.9" font-family="Arial" font-size="14.00" fill="#666666">[boolean]</text>
<polygon fill="none" stroke="#000000" points="293,-1105.5 293,-1135.5 604,-1135.5 604,-1105.5 293,-1105.5"/>
<text text-anchor="start" x="300" y="-1116.9" font-family="Arial" font-size="14.00" fill="#000000">remarks    </text>
<text text-anchor="start" x="384.7518" y="-1116.9" font-family="Arial" font-size="14.00" fill="#666666">[text]</text>
<polygon fill="none" stroke="#000000" points="293,-1075.5 293,-1105.5 604,-1105.5 604,-1075.5 293,-1075.5"/>
<text text-anchor="start" x="300" y="-1086.9" font-family="Arial" font-size="14.00" fill="#000000">requestjson    </text>
<text text-anchor="start" x="406.5582" y="-1086.9" font-family="Arial" font-size="14.00" fill="#666666">[text]</text>
<polygon fill="none" stroke="#000000" points="293,-1045.5 293,-1075.5 604,-1075.5 604,-1045.5 293,-1045.5"/>
<text text-anchor="start" x="300" y="-1056.9" font-family="Arial" font-size="14.00" fill="#000000">responsejson    </text>
<text text-anchor="start" x="417.4502" y="-1056.9" font-family="Arial" font-size="14.00" fill="#666666">[text]</text>
<polygon fill="none" stroke="#000000" points="293,-1015.5 293,-1045.5 604,-1045.5 604,-1015.5 293,-1015.5"/>
<text text-anchor="start" x="300" y="-1026.9" font-family="Arial" font-size="14.00" fill="#000000">userid    </text>
<text text-anchor="start" x="372.3198" y="-1026.9" font-family="Arial" font-size="14.00" fill="#666666">[integer]</text>
<polygon fill="none" stroke="#000000" points="293,-985.5 293,-1015.5 604,-1015.5 604,-985.5 293,-985.5"/>
<text text-anchor="start" x="300" y="-996.9" font-family="Arial" font-size="14.00" fill="#000000">createdon    </text>
<text text-anchor="start" x="396.4516" y="-996.9" font-family="Arial" font-size="14.00" fill="#666666">[timestamp without time zone]</text>
</g>
<!-- public.comn_gstr_log&#45;&gt;public.comn_gstr_config -->
<g id="edge1" class="edge">
<title>public.comn_gstr_log:configid&#45;&gt;public.comn_gstr_config:id</title>
<path fill="none" stroke="#000000" d="M283.7431,-1356.0728C230.8121,-1304.0217 223.0978,-810.5 281,-810.5"/>
<polygon fill="#000000" stroke="#000000" points="283.9786,-1356.1854 291.0584,-1364.5596 288.4893,-1358.3427 293,-1360.5 293,-1360.5 293,-1360.5 288.4893,-1358.3427 294.9416,-1356.4404 283.9786,-1356.1854 283.9786,-1356.1854"/>
<text text-anchor="start" x="7.27" y="-1370.5" font-family="Arial" font-size="10.00" fill="#000000">FOREIGN KEY (configid) REFERENCES comn_gstr_config(id)</text>
</g>
</g>
</svg>
