<?xml version="1.0" encoding="UTF-8" standalone="no"?>
<!DOCTYPE svg PUBLIC "-//W3C//DTD SVG 1.1//EN"
 "http://www.w3.org/Graphics/SVG/1.1/DTD/svg11.dtd">
<!-- Generated by graphviz version 2.40.1 (20161225.0304)
 -->
<!-- Title: public.pur_poratehistory Pages: 1 -->
<svg width="433pt" height="435pt"
 viewBox="0.00 0.00 433.00 435.00" xmlns="http://www.w3.org/2000/svg" xmlns:xlink="http://www.w3.org/1999/xlink">
<g id="graph0" class="graph" transform="scale(1 1) rotate(0) translate(4 431)">
<title>public.pur_poratehistory</title>
<polygon fill="#ffffff" stroke="transparent" points="-4,4 -4,-431 429,-431 429,4 -4,4"/>
<!-- public.pur_poratehistory -->
<g id="node1" class="node">
<title>public.pur_poratehistory</title>
<polygon fill="#efefef" stroke="transparent" points="46.5,-345.5 46.5,-380.5 379.5,-380.5 379.5,-345.5 46.5,-345.5"/>
<polygon fill="none" stroke="#000000" points="46.5,-345.5 46.5,-380.5 379.5,-380.5 379.5,-345.5 46.5,-345.5"/>
<text text-anchor="start" x="53.1959" y="-358.3" font-family="Arial Bold" font-size="18.00" fill="#000000">public.pur_poratehistory</text>
<text text-anchor="start" x="245.2361" y="-358.3" font-family="Arial" font-size="14.00" fill="#000000">    </text>
<text text-anchor="start" x="279.4409" y="-358.3" font-family="Arial" font-size="14.00" fill="#666666">[BASE TABLE]</text>
<polygon fill="none" stroke="#000000" points="46.5,-315.5 46.5,-345.5 379.5,-345.5 379.5,-315.5 46.5,-315.5"/>
<text text-anchor="start" x="53.5" y="-326.9" font-family="Arial" font-size="14.00" fill="#000000">ratehistoryid </text>
<text text-anchor="start" x="133.6192" y="-326.9" font-family="Arial" font-size="14.00" fill="#666666">[integer]</text>
<polygon fill="none" stroke="#000000" points="46.5,-285.5 46.5,-315.5 379.5,-315.5 379.5,-285.5 46.5,-285.5"/>
<text text-anchor="start" x="53.5" y="-296.9" font-family="Arial" font-size="14.00" fill="#000000">poid </text>
<text text-anchor="start" x="83.845" y="-296.9" font-family="Arial" font-size="14.00" fill="#666666">[integer]</text>
<polygon fill="none" stroke="#000000" points="46.5,-255.5 46.5,-285.5 379.5,-285.5 379.5,-255.5 46.5,-255.5"/>
<text text-anchor="start" x="53.5" y="-266.9" font-family="Arial" font-size="14.00" fill="#000000">podetailid </text>
<text text-anchor="start" x="117.2966" y="-266.9" font-family="Arial" font-size="14.00" fill="#666666">[integer]</text>
<polygon fill="none" stroke="#000000" points="46.5,-225.5 46.5,-255.5 379.5,-255.5 379.5,-225.5 46.5,-225.5"/>
<text text-anchor="start" x="53.5" y="-236.9" font-family="Arial" font-size="14.00" fill="#000000">revisionno </text>
<text text-anchor="start" x="121.1774" y="-236.9" font-family="Arial" font-size="14.00" fill="#666666">[varchar(30)]</text>
<polygon fill="none" stroke="#000000" points="46.5,-195.5 46.5,-225.5 379.5,-225.5 379.5,-195.5 46.5,-195.5"/>
<text text-anchor="start" x="53.5" y="-206.9" font-family="Arial" font-size="14.00" fill="#000000">revisiondate </text>
<text text-anchor="start" x="132.8506" y="-206.9" font-family="Arial" font-size="14.00" fill="#666666">[date]</text>
<polygon fill="none" stroke="#000000" points="46.5,-165.5 46.5,-195.5 379.5,-195.5 379.5,-165.5 46.5,-165.5"/>
<text text-anchor="start" x="53.5" y="-176.9" font-family="Arial" font-size="14.00" fill="#000000">itemid </text>
<text text-anchor="start" x="94.7202" y="-176.9" font-family="Arial" font-size="14.00" fill="#666666">[integer]</text>
<polygon fill="none" stroke="#000000" points="46.5,-135.5 46.5,-165.5 379.5,-165.5 379.5,-135.5 46.5,-135.5"/>
<text text-anchor="start" x="53.5" y="-146.9" font-family="Arial" font-size="14.00" fill="#000000">rate </text>
<text text-anchor="start" x="81.507" y="-146.9" font-family="Arial" font-size="14.00" fill="#666666">[numeric(21,9)]</text>
<polygon fill="none" stroke="#000000" points="46.5,-105.5 46.5,-135.5 379.5,-135.5 379.5,-105.5 46.5,-105.5"/>
<text text-anchor="start" x="53.5" y="-116.9" font-family="Arial" font-size="14.00" fill="#000000">exportrate </text>
<text text-anchor="start" x="120.406" y="-116.9" font-family="Arial" font-size="14.00" fill="#666666">[numeric(21,9)]</text>
<polygon fill="none" stroke="#000000" points="46.5,-75.5 46.5,-105.5 379.5,-105.5 379.5,-75.5 46.5,-75.5"/>
<text text-anchor="start" x="53.5" y="-86.9" font-family="Arial" font-size="14.00" fill="#000000">effectivefrom </text>
<text text-anchor="start" x="137.5112" y="-86.9" font-family="Arial" font-size="14.00" fill="#666666">[date]</text>
<polygon fill="none" stroke="#000000" points="46.5,-45.5 46.5,-75.5 379.5,-75.5 379.5,-45.5 46.5,-45.5"/>
<text text-anchor="start" x="53.5" y="-56.9" font-family="Arial" font-size="14.00" fill="#000000">amendid </text>
<text text-anchor="start" x="111.0708" y="-56.9" font-family="Arial" font-size="14.00" fill="#666666">[integer]</text>
<polygon fill="none" stroke="#000000" stroke-width="3" points="44.5,-44.5 44.5,-382.5 380.5,-382.5 380.5,-44.5 44.5,-44.5"/>
</g>
</g>
</svg>
