<?xml version="1.0" encoding="UTF-8" standalone="no"?>
<!DOCTYPE svg PUBLIC "-//W3C//DTD SVG 1.1//EN"
 "http://www.w3.org/Graphics/SVG/1.1/DTD/svg11.dtd">
<!-- Generated by graphviz version 2.40.1 (20161225.0304)
 -->
<!-- Title: public.comn_qualificationmaster Pages: 1 -->
<svg width="854pt" height="982pt"
 viewBox="0.00 0.00 853.50 982.00" xmlns="http://www.w3.org/2000/svg" xmlns:xlink="http://www.w3.org/1999/xlink">
<g id="graph0" class="graph" transform="scale(1 1) rotate(0) translate(4 978)">
<title>public.comn_qualificationmaster</title>
<polygon fill="#ffffff" stroke="transparent" points="-4,4 -4,-978 849.5,-978 849.5,4 -4,4"/>
<!-- public.comn_qualificationmaster -->
<g id="node1" class="node">
<title>public.comn_qualificationmaster</title>
<polygon fill="#efefef" stroke="transparent" points="403,-465.5 403,-500.5 800,-500.5 800,-465.5 403,-465.5"/>
<polygon fill="none" stroke="#000000" points="403,-465.5 403,-500.5 800,-500.5 800,-465.5 403,-465.5"/>
<text text-anchor="start" x="409.6973" y="-478.3" font-family="Arial Bold" font-size="18.00" fill="#000000">public.comn_qualificationmaster</text>
<text text-anchor="start" x="665.7347" y="-478.3" font-family="Arial" font-size="14.00" fill="#000000">    </text>
<text text-anchor="start" x="699.9395" y="-478.3" font-family="Arial" font-size="14.00" fill="#666666">[BASE TABLE]</text>
<polygon fill="none" stroke="#000000" points="403,-435.5 403,-465.5 800,-465.5 800,-435.5 403,-435.5"/>
<text text-anchor="start" x="410" y="-446.9" font-family="Arial" font-size="14.00" fill="#000000">qualificationid </text>
<text text-anchor="start" x="498.683" y="-446.9" font-family="Arial" font-size="14.00" fill="#666666">[integer]</text>
<polygon fill="none" stroke="#000000" points="403,-405.5 403,-435.5 800,-435.5 800,-405.5 403,-405.5"/>
<text text-anchor="start" x="410" y="-416.9" font-family="Arial" font-size="14.00" fill="#000000">qualification </text>
<text text-anchor="start" x="487.7938" y="-416.9" font-family="Arial" font-size="14.00" fill="#666666">[varchar(100)]</text>
<polygon fill="none" stroke="#000000" points="403,-375.5 403,-405.5 800,-405.5 800,-375.5 403,-375.5"/>
<text text-anchor="start" x="410" y="-386.9" font-family="Arial" font-size="14.00" fill="#000000">isactive </text>
<text text-anchor="start" x="460.5596" y="-386.9" font-family="Arial" font-size="14.00" fill="#666666">[boolean]</text>
<polygon fill="none" stroke="#000000" points="403,-345.5 403,-375.5 800,-375.5 800,-345.5 403,-345.5"/>
<text text-anchor="start" x="410" y="-356.9" font-family="Arial" font-size="14.00" fill="#000000">isauthorized </text>
<text text-anchor="start" x="489.3506" y="-356.9" font-family="Arial" font-size="14.00" fill="#666666">[boolean]</text>
<polygon fill="none" stroke="#000000" points="403,-315.5 403,-345.5 800,-345.5 800,-315.5 403,-315.5"/>
<text text-anchor="start" x="410" y="-326.9" font-family="Arial" font-size="14.00" fill="#000000">authorizedby </text>
<text text-anchor="start" x="494.0266" y="-326.9" font-family="Arial" font-size="14.00" fill="#666666">[integer]</text>
<polygon fill="none" stroke="#000000" points="403,-285.5 403,-315.5 800,-315.5 800,-285.5 403,-285.5"/>
<text text-anchor="start" x="410" y="-296.9" font-family="Arial" font-size="14.00" fill="#000000">authorizedon </text>
<text text-anchor="start" x="494.8092" y="-296.9" font-family="Arial" font-size="14.00" fill="#666666">[timestamp without time zone]</text>
<polygon fill="none" stroke="#000000" points="403,-255.5 403,-285.5 800,-285.5 800,-255.5 403,-255.5"/>
<text text-anchor="start" x="410" y="-266.9" font-family="Arial" font-size="14.00" fill="#000000">createdby </text>
<text text-anchor="start" x="475.3548" y="-266.9" font-family="Arial" font-size="14.00" fill="#666666">[integer]</text>
<polygon fill="none" stroke="#000000" points="403,-225.5 403,-255.5 800,-255.5 800,-225.5 403,-225.5"/>
<text text-anchor="start" x="410" y="-236.9" font-family="Arial" font-size="14.00" fill="#000000">createdon </text>
<text text-anchor="start" x="476.1374" y="-236.9" font-family="Arial" font-size="14.00" fill="#666666">[timestamp without time zone]</text>
<polygon fill="none" stroke="#000000" points="403,-195.5 403,-225.5 800,-225.5 800,-195.5 403,-195.5"/>
<text text-anchor="start" x="410" y="-206.9" font-family="Arial" font-size="14.00" fill="#000000">editlog </text>
<text text-anchor="start" x="455.1248" y="-206.9" font-family="Arial" font-size="14.00" fill="#666666">[text]</text>
<polygon fill="none" stroke="#000000" points="403,-165.5 403,-195.5 800,-195.5 800,-165.5 403,-165.5"/>
<text text-anchor="start" x="410" y="-176.9" font-family="Arial" font-size="14.00" fill="#000000">headauthorizedby </text>
<text text-anchor="start" x="525.157" y="-176.9" font-family="Arial" font-size="14.00" fill="#666666">[integer]</text>
<polygon fill="none" stroke="#000000" points="403,-135.5 403,-165.5 800,-165.5 800,-135.5 403,-135.5"/>
<text text-anchor="start" x="410" y="-146.9" font-family="Arial" font-size="14.00" fill="#000000">headauthorizedon </text>
<text text-anchor="start" x="525.9396" y="-146.9" font-family="Arial" font-size="14.00" fill="#666666">[timestamp without time zone]</text>
<polygon fill="none" stroke="#000000" points="403,-105.5 403,-135.5 800,-135.5 800,-105.5 403,-105.5"/>
<text text-anchor="start" x="410" y="-116.9" font-family="Arial" font-size="14.00" fill="#000000">inactivedate </text>
<text text-anchor="start" x="488.5806" y="-116.9" font-family="Arial" font-size="14.00" fill="#666666">[timestamp without time zone]</text>
<polygon fill="none" stroke="#000000" points="403,-75.5 403,-105.5 800,-105.5 800,-75.5 403,-75.5"/>
<text text-anchor="start" x="410" y="-86.9" font-family="Arial" font-size="14.00" fill="#000000">updatedby </text>
<text text-anchor="start" x="479.2594" y="-86.9" font-family="Arial" font-size="14.00" fill="#666666">[integer]</text>
<polygon fill="none" stroke="#000000" points="403,-45.5 403,-75.5 800,-75.5 800,-45.5 403,-45.5"/>
<text text-anchor="start" x="410" y="-56.9" font-family="Arial" font-size="14.00" fill="#000000">updatedon </text>
<text text-anchor="start" x="480.042" y="-56.9" font-family="Arial" font-size="14.00" fill="#666666">[timestamp(6) without time zone]</text>
<polygon fill="none" stroke="#000000" stroke-width="3" points="401,-44.5 401,-502.5 801,-502.5 801,-44.5 401,-44.5"/>
</g>
<!-- public.hr_employeequalification -->
<g id="node2" class="node">
<title>public.hr_employeequalification</title>
<polygon fill="#efefef" stroke="transparent" points="406,-895.5 406,-930.5 798,-930.5 798,-895.5 406,-895.5"/>
<polygon fill="none" stroke="#000000" points="406,-895.5 406,-930.5 798,-930.5 798,-895.5 406,-895.5"/>
<text text-anchor="start" x="412.6912" y="-908.3" font-family="Arial Bold" font-size="18.00" fill="#000000">public.hr_employeequalification</text>
<text text-anchor="start" x="663.7408" y="-908.3" font-family="Arial" font-size="14.00" fill="#000000">    </text>
<text text-anchor="start" x="697.9456" y="-908.3" font-family="Arial" font-size="14.00" fill="#666666">[BASE TABLE]</text>
<polygon fill="none" stroke="#000000" points="406,-865.5 406,-895.5 798,-895.5 798,-865.5 406,-865.5"/>
<text text-anchor="start" x="413" y="-876.9" font-family="Arial" font-size="14.00" fill="#000000">empqualificationid    </text>
<text text-anchor="start" x="559.223" y="-876.9" font-family="Arial" font-size="14.00" fill="#666666">[integer]</text>
<polygon fill="none" stroke="#000000" points="406,-835.5 406,-865.5 798,-865.5 798,-835.5 406,-835.5"/>
<text text-anchor="start" x="413" y="-846.9" font-family="Arial" font-size="14.00" fill="#000000">employeeid    </text>
<text text-anchor="start" x="518.7742" y="-846.9" font-family="Arial" font-size="14.00" fill="#666666">[integer]</text>
<polygon fill="none" stroke="#000000" points="406,-805.5 406,-835.5 798,-835.5 798,-805.5 406,-805.5"/>
<text text-anchor="start" x="413" y="-816.9" font-family="Arial" font-size="14.00" fill="#000000">qualificationid    </text>
<text text-anchor="start" x="531.9972" y="-816.9" font-family="Arial" font-size="14.00" fill="#666666">[integer]</text>
<polygon fill="none" stroke="#000000" points="406,-775.5 406,-805.5 798,-805.5 798,-775.5 406,-775.5"/>
<text text-anchor="start" x="413" y="-786.9" font-family="Arial" font-size="14.00" fill="#000000">year    </text>
<text text-anchor="start" x="474.4306" y="-786.9" font-family="Arial" font-size="14.00" fill="#666666">[numeric(4,0)]</text>
<polygon fill="none" stroke="#000000" points="406,-745.5 406,-775.5 798,-775.5 798,-745.5 406,-745.5"/>
<text text-anchor="start" x="413" y="-756.9" font-family="Arial" font-size="14.00" fill="#000000">percentage    </text>
<text text-anchor="start" x="517.2342" y="-756.9" font-family="Arial" font-size="14.00" fill="#666666">[numeric(5,2)]</text>
<polygon fill="none" stroke="#000000" points="406,-715.5 406,-745.5 798,-745.5 798,-715.5 406,-715.5"/>
<text text-anchor="start" x="413" y="-726.9" font-family="Arial" font-size="14.00" fill="#000000">class    </text>
<text text-anchor="start" x="479.094" y="-726.9" font-family="Arial" font-size="14.00" fill="#666666">[varchar(12)]</text>
<polygon fill="none" stroke="#000000" points="406,-685.5 406,-715.5 798,-715.5 798,-685.5 406,-685.5"/>
<text text-anchor="start" x="413" y="-696.9" font-family="Arial" font-size="14.00" fill="#000000">institute    </text>
<text text-anchor="start" x="495.4376" y="-696.9" font-family="Arial" font-size="14.00" fill="#666666">[varchar(100)]</text>
<polygon fill="none" stroke="#000000" points="406,-655.5 406,-685.5 798,-685.5 798,-655.5 406,-655.5"/>
<text text-anchor="start" x="413" y="-666.9" font-family="Arial" font-size="14.00" fill="#000000">subject    </text>
<text text-anchor="start" x="491.5498" y="-666.9" font-family="Arial" font-size="14.00" fill="#666666">[varchar(20)]</text>
<polygon fill="none" stroke="#000000" points="406,-625.5 406,-655.5 798,-655.5 798,-625.5 406,-625.5"/>
<text text-anchor="start" x="413" y="-636.9" font-family="Arial" font-size="14.00" fill="#000000">ondate    </text>
<text text-anchor="start" x="490.0084" y="-636.9" font-family="Arial" font-size="14.00" fill="#666666">[timestamp without time zone]</text>
</g>
<!-- public.hr_employeequalification&#45;&gt;public.comn_qualificationmaster -->
<g id="edge1" class="edge">
<title>public.hr_employeequalification:qualificationid&#45;&gt;public.comn_qualificationmaster:qualificationid</title>
<path fill="none" stroke="#000000" d="M395.9448,-819.9812C302.7689,-809.9955 337.2005,-658.3723 406,-583 465.2732,-518.0641 740.7268,-611.9359 800,-547 828.9144,-515.3233 842.8889,-450.5 800,-450.5"/>
<polygon fill="#000000" stroke="#000000" points="396.0133,-819.9846 405.7681,-824.994 401.0066,-820.2423 406,-820.5 406,-820.5 406,-820.5 401.0066,-820.2423 406.2319,-816.006 396.0133,-819.9846 396.0133,-819.9846"/>
<text text-anchor="start" x="6.5985" y="-830.5" font-family="Arial" font-size="10.00" fill="#000000">FOREIGN KEY (qualificationid) REFERENCES comn_qualificationmaster(qualificationid)</text>
</g>
</g>
</svg>
