<?xml version="1.0" encoding="UTF-8" standalone="no"?>
<!DOCTYPE svg PUBLIC "-//W3C//DTD SVG 1.1//EN"
 "http://www.w3.org/Graphics/SVG/1.1/DTD/svg11.dtd">
<!-- Generated by graphviz version 2.40.1 (20161225.0304)
 -->
<!-- Title: public.temp_batchstatusreport_consolidated Pages: 1 -->
<svg width="593pt" height="705pt"
 viewBox="0.00 0.00 593.00 705.00" xmlns="http://www.w3.org/2000/svg" xmlns:xlink="http://www.w3.org/1999/xlink">
<g id="graph0" class="graph" transform="scale(1 1) rotate(0) translate(4 701)">
<title>public.temp_batchstatusreport_consolidated</title>
<polygon fill="#ffffff" stroke="transparent" points="-4,4 -4,-701 589,-701 589,4 -4,4"/>
<!-- public.temp_batchstatusreport_consolidated -->
<g id="node1" class="node">
<title>public.temp_batchstatusreport_consolidated</title>
<polygon fill="#efefef" stroke="transparent" points="46.5,-615.5 46.5,-650.5 539.5,-650.5 539.5,-615.5 46.5,-615.5"/>
<polygon fill="none" stroke="#000000" points="46.5,-615.5 46.5,-650.5 539.5,-650.5 539.5,-615.5 46.5,-615.5"/>
<text text-anchor="start" x="53.1634" y="-628.3" font-family="Arial Bold" font-size="18.00" fill="#000000">public.temp_batchstatusreport_consolidated</text>
<text text-anchor="start" x="405.2686" y="-628.3" font-family="Arial" font-size="14.00" fill="#000000">    </text>
<text text-anchor="start" x="439.4734" y="-628.3" font-family="Arial" font-size="14.00" fill="#666666">[BASE TABLE]</text>
<polygon fill="none" stroke="#000000" points="46.5,-585.5 46.5,-615.5 539.5,-615.5 539.5,-585.5 46.5,-585.5"/>
<text text-anchor="start" x="53.5" y="-596.9" font-family="Arial" font-size="14.00" fill="#000000">Branch Name </text>
<text text-anchor="start" x="142.9586" y="-596.9" font-family="Arial" font-size="14.00" fill="#666666">[text]</text>
<polygon fill="none" stroke="#000000" points="46.5,-555.5 46.5,-585.5 539.5,-585.5 539.5,-555.5 46.5,-555.5"/>
<text text-anchor="start" x="53.5" y="-566.9" font-family="Arial" font-size="14.00" fill="#000000">Item Name </text>
<text text-anchor="start" x="125.838" y="-566.9" font-family="Arial" font-size="14.00" fill="#666666">[varchar(200)]</text>
<polygon fill="none" stroke="#000000" points="46.5,-525.5 46.5,-555.5 539.5,-555.5 539.5,-525.5 46.5,-525.5"/>
<text text-anchor="start" x="53.5" y="-536.9" font-family="Arial" font-size="14.00" fill="#000000">Item Code </text>
<text text-anchor="start" x="121.96" y="-536.9" font-family="Arial" font-size="14.00" fill="#666666">[varchar(50)]</text>
<polygon fill="none" stroke="#000000" points="46.5,-495.5 46.5,-525.5 539.5,-525.5 539.5,-495.5 46.5,-495.5"/>
<text text-anchor="start" x="53.5" y="-506.9" font-family="Arial" font-size="14.00" fill="#000000">Store Or Stage </text>
<text text-anchor="start" x="150.751" y="-506.9" font-family="Arial" font-size="14.00" fill="#666666">[text]</text>
<polygon fill="none" stroke="#000000" points="46.5,-465.5 46.5,-495.5 539.5,-495.5 539.5,-465.5 46.5,-465.5"/>
<text text-anchor="start" x="53.5" y="-476.9" font-family="Arial" font-size="14.00" fill="#000000">Store Or Stage Name </text>
<text text-anchor="start" x="191.974" y="-476.9" font-family="Arial" font-size="14.00" fill="#666666">[varchar]</text>
<polygon fill="none" stroke="#000000" points="46.5,-435.5 46.5,-465.5 539.5,-465.5 539.5,-435.5 46.5,-435.5"/>
<text text-anchor="start" x="53.5" y="-446.9" font-family="Arial" font-size="14.00" fill="#000000">Machine No </text>
<text text-anchor="start" x="132.068" y="-446.9" font-family="Arial" font-size="14.00" fill="#666666">[text]</text>
<polygon fill="none" stroke="#000000" points="46.5,-405.5 46.5,-435.5 539.5,-435.5 539.5,-405.5 46.5,-405.5"/>
<text text-anchor="start" x="53.5" y="-416.9" font-family="Arial" font-size="14.00" fill="#000000">Batch No </text>
<text text-anchor="start" x="114.9628" y="-416.9" font-family="Arial" font-size="14.00" fill="#666666">[varchar(75)]</text>
<polygon fill="none" stroke="#000000" points="46.5,-375.5 46.5,-405.5 539.5,-405.5 539.5,-375.5 46.5,-375.5"/>
<text text-anchor="start" x="53.5" y="-386.9" font-family="Arial" font-size="14.00" fill="#000000">Lot No </text>
<text text-anchor="start" x="98.6262" y="-386.9" font-family="Arial" font-size="14.00" fill="#666666">[varchar]</text>
<polygon fill="none" stroke="#000000" points="46.5,-345.5 46.5,-375.5 539.5,-375.5 539.5,-345.5 46.5,-345.5"/>
<text text-anchor="start" x="53.5" y="-356.9" font-family="Arial" font-size="14.00" fill="#000000">Batch Date </text>
<text text-anchor="start" x="126.636" y="-356.9" font-family="Arial" font-size="14.00" fill="#666666">[date]</text>
<polygon fill="none" stroke="#000000" points="46.5,-315.5 46.5,-345.5 539.5,-345.5 539.5,-315.5 46.5,-315.5"/>
<text text-anchor="start" x="53.5" y="-326.9" font-family="Arial" font-size="14.00" fill="#000000">Manufacturing Date </text>
<text text-anchor="start" x="179.5308" y="-326.9" font-family="Arial" font-size="14.00" fill="#666666">[text]</text>
<polygon fill="none" stroke="#000000" points="46.5,-285.5 46.5,-315.5 539.5,-315.5 539.5,-285.5 46.5,-285.5"/>
<text text-anchor="start" x="53.5" y="-296.9" font-family="Arial" font-size="14.00" fill="#000000">Expiry Date </text>
<text text-anchor="start" x="129.73" y="-296.9" font-family="Arial" font-size="14.00" fill="#666666">[text]</text>
<polygon fill="none" stroke="#000000" points="46.5,-255.5 46.5,-285.5 539.5,-285.5 539.5,-255.5 46.5,-255.5"/>
<text text-anchor="start" x="53.5" y="-266.9" font-family="Arial" font-size="14.00" fill="#000000">Produced Qty </text>
<text text-anchor="start" x="142.9726" y="-266.9" font-family="Arial" font-size="14.00" fill="#666666">[numeric(15,5)]</text>
<polygon fill="none" stroke="#000000" points="46.5,-225.5 46.5,-255.5 539.5,-255.5 539.5,-225.5 46.5,-225.5"/>
<text text-anchor="start" x="53.5" y="-236.9" font-family="Arial" font-size="14.00" fill="#000000">Produced Alt Qty </text>
<text text-anchor="start" x="163.197" y="-236.9" font-family="Arial" font-size="14.00" fill="#666666">[numeric(15,5)]</text>
<polygon fill="none" stroke="#000000" points="46.5,-195.5 46.5,-225.5 539.5,-225.5 539.5,-195.5 46.5,-195.5"/>
<text text-anchor="start" x="53.5" y="-206.9" font-family="Arial" font-size="14.00" fill="#000000">Consumed Qty </text>
<text text-anchor="start" x="150.7426" y="-206.9" font-family="Arial" font-size="14.00" fill="#666666">[numeric(15,5)]</text>
<polygon fill="none" stroke="#000000" points="46.5,-165.5 46.5,-195.5 539.5,-195.5 539.5,-165.5 46.5,-165.5"/>
<text text-anchor="start" x="53.5" y="-176.9" font-family="Arial" font-size="14.00" fill="#000000">Consumed Alt Qty </text>
<text text-anchor="start" x="170.967" y="-176.9" font-family="Arial" font-size="14.00" fill="#666666">[numeric(15,5)]</text>
<polygon fill="none" stroke="#000000" points="46.5,-135.5 46.5,-165.5 539.5,-165.5 539.5,-135.5 46.5,-135.5"/>
<text text-anchor="start" x="53.5" y="-146.9" font-family="Arial" font-size="14.00" fill="#000000">Pending Qty </text>
<text text-anchor="start" x="134.4186" y="-146.9" font-family="Arial" font-size="14.00" fill="#666666">[numeric]</text>
<polygon fill="none" stroke="#000000" points="46.5,-105.5 46.5,-135.5 539.5,-135.5 539.5,-105.5 46.5,-105.5"/>
<text text-anchor="start" x="53.5" y="-116.9" font-family="Arial" font-size="14.00" fill="#000000">Pending Alt Qty </text>
<text text-anchor="start" x="154.643" y="-116.9" font-family="Arial" font-size="14.00" fill="#666666">[numeric]</text>
<polygon fill="none" stroke="#000000" points="46.5,-75.5 46.5,-105.5 539.5,-105.5 539.5,-75.5 46.5,-75.5"/>
<text text-anchor="start" x="53.5" y="-86.9" font-family="Arial" font-size="14.00" fill="#000000">Batch MRP </text>
<text text-anchor="start" x="128.1774" y="-86.9" font-family="Arial" font-size="14.00" fill="#666666">[numeric(15,5)]</text>
<polygon fill="none" stroke="#000000" points="46.5,-45.5 46.5,-75.5 539.5,-75.5 539.5,-45.5 46.5,-45.5"/>
<text text-anchor="start" x="53.5" y="-56.9" font-family="Arial" font-size="14.00" fill="#000000">Transaction Type </text>
<text text-anchor="start" x="165.5224" y="-56.9" font-family="Arial" font-size="14.00" fill="#666666">[text]</text>
<polygon fill="none" stroke="#000000" stroke-width="3" points="44.5,-44.5 44.5,-652.5 540.5,-652.5 540.5,-44.5 44.5,-44.5"/>
</g>
</g>
</svg>
