<?xml version="1.0" encoding="UTF-8" standalone="no"?>
<!DOCTYPE svg PUBLIC "-//W3C//DTD SVG 1.1//EN"
 "http://www.w3.org/Graphics/SVG/1.1/DTD/svg11.dtd">
<!-- Generated by graphviz version 2.40.1 (20161225.0304)
 -->
<!-- Title: public.comn_whatsappconfig_formlist Pages: 1 -->
<svg width="540pt" height="345pt"
 viewBox="0.00 0.00 540.00 345.00" xmlns="http://www.w3.org/2000/svg" xmlns:xlink="http://www.w3.org/1999/xlink">
<g id="graph0" class="graph" transform="scale(1 1) rotate(0) translate(4 341)">
<title>public.comn_whatsappconfig_formlist</title>
<polygon fill="#ffffff" stroke="transparent" points="-4,4 -4,-341 536,-341 536,4 -4,4"/>
<!-- public.comn_whatsappconfig_formlist -->
<g id="node1" class="node">
<title>public.comn_whatsappconfig_formlist</title>
<polygon fill="#efefef" stroke="transparent" points="46,-255.5 46,-290.5 486,-290.5 486,-255.5 46,-255.5"/>
<polygon fill="none" stroke="#000000" points="46,-255.5 46,-290.5 486,-290.5 486,-255.5 46,-255.5"/>
<text text-anchor="start" x="52.69" y="-268.3" font-family="Arial Bold" font-size="18.00" fill="#000000">public.comn_whatsappconfig_formlist</text>
<text text-anchor="start" x="351.742" y="-268.3" font-family="Arial" font-size="14.00" fill="#000000">    </text>
<text text-anchor="start" x="385.9468" y="-268.3" font-family="Arial" font-size="14.00" fill="#666666">[BASE TABLE]</text>
<polygon fill="none" stroke="#000000" points="46,-225.5 46,-255.5 486,-255.5 486,-225.5 46,-225.5"/>
<text text-anchor="start" x="53" y="-236.9" font-family="Arial" font-size="14.00" fill="#000000">tableid </text>
<text text-anchor="start" x="98.1248" y="-236.9" font-family="Arial" font-size="14.00" fill="#666666">[integer]</text>
<polygon fill="none" stroke="#000000" points="46,-195.5 46,-225.5 486,-225.5 486,-195.5 46,-195.5"/>
<text text-anchor="start" x="53" y="-206.9" font-family="Arial" font-size="14.00" fill="#000000">formid </text>
<text text-anchor="start" x="95.7742" y="-206.9" font-family="Arial" font-size="14.00" fill="#666666">[integer]</text>
<polygon fill="none" stroke="#000000" points="46,-165.5 46,-195.5 486,-195.5 486,-165.5 46,-165.5"/>
<text text-anchor="start" x="53" y="-176.9" font-family="Arial" font-size="14.00" fill="#000000">squery </text>
<text text-anchor="start" x="98.899" y="-176.9" font-family="Arial" font-size="14.00" fill="#666666">[varchar]</text>
<polygon fill="none" stroke="#000000" points="46,-135.5 46,-165.5 486,-165.5 486,-135.5 46,-135.5"/>
<text text-anchor="start" x="53" y="-146.9" font-family="Arial" font-size="14.00" fill="#000000">executeclientquery </text>
<text text-anchor="start" x="173.589" y="-146.9" font-family="Arial" font-size="14.00" fill="#666666">[boolean]</text>
<polygon fill="none" stroke="#000000" points="46,-105.5 46,-135.5 486,-135.5 486,-105.5 46,-105.5"/>
<text text-anchor="start" x="53" y="-116.9" font-family="Arial" font-size="14.00" fill="#000000">clientsquery </text>
<text text-anchor="start" x="131.568" y="-116.9" font-family="Arial" font-size="14.00" fill="#666666">[varchar]</text>
<polygon fill="none" stroke="#000000" points="46,-75.5 46,-105.5 486,-105.5 486,-75.5 46,-75.5"/>
<text text-anchor="start" x="53" y="-86.9" font-family="Arial" font-size="14.00" fill="#000000">formatfor </text>
<text text-anchor="start" x="112.892" y="-86.9" font-family="Arial" font-size="14.00" fill="#666666">[integer]</text>
<polygon fill="none" stroke="#000000" points="46,-45.5 46,-75.5 486,-75.5 486,-45.5 46,-45.5"/>
<text text-anchor="start" x="53" y="-56.9" font-family="Arial" font-size="14.00" fill="#000000">isactive </text>
<text text-anchor="start" x="103.5596" y="-56.9" font-family="Arial" font-size="14.00" fill="#666666">[boolean]</text>
<polygon fill="none" stroke="#000000" stroke-width="3" points="44.5,-44.5 44.5,-292.5 487.5,-292.5 487.5,-44.5 44.5,-44.5"/>
</g>
</g>
</svg>
