<?xml version="1.0" encoding="UTF-8" standalone="no"?>
<!DOCTYPE svg PUBLIC "-//W3C//DTD SVG 1.1//EN"
 "http://www.w3.org/Graphics/SVG/1.1/DTD/svg11.dtd">
<!-- Generated by graphviz version 2.40.1 (20161225.0304)
 -->
<!-- Title: public.pay_arreardetails Pages: 1 -->
<svg width="432pt" height="945pt"
 viewBox="0.00 0.00 432.00 945.00" xmlns="http://www.w3.org/2000/svg" xmlns:xlink="http://www.w3.org/1999/xlink">
<g id="graph0" class="graph" transform="scale(1 1) rotate(0) translate(4 941)">
<title>public.pay_arreardetails</title>
<polygon fill="#ffffff" stroke="transparent" points="-4,4 -4,-941 428,-941 428,4 -4,4"/>
<!-- public.pay_arreardetails -->
<g id="node1" class="node">
<title>public.pay_arreardetails</title>
<polygon fill="#efefef" stroke="transparent" points="46,-855.5 46,-890.5 378,-890.5 378,-855.5 46,-855.5"/>
<polygon fill="none" stroke="#000000" points="46,-855.5 46,-890.5 378,-890.5 378,-855.5 46,-855.5"/>
<text text-anchor="start" x="52.6999" y="-868.3" font-family="Arial Bold" font-size="18.00" fill="#000000">public.pay_arreardetails</text>
<text text-anchor="start" x="243.7321" y="-868.3" font-family="Arial" font-size="14.00" fill="#000000">    </text>
<text text-anchor="start" x="277.9369" y="-868.3" font-family="Arial" font-size="14.00" fill="#666666">[BASE TABLE]</text>
<polygon fill="none" stroke="#000000" points="46,-825.5 46,-855.5 378,-855.5 378,-825.5 46,-825.5"/>
<text text-anchor="start" x="53" y="-836.9" font-family="Arial" font-size="14.00" fill="#000000">arrearid </text>
<text text-anchor="start" x="105.1094" y="-836.9" font-family="Arial" font-size="14.00" fill="#666666">[integer]</text>
<polygon fill="none" stroke="#000000" points="46,-795.5 46,-825.5 378,-825.5 378,-795.5 46,-795.5"/>
<text text-anchor="start" x="53" y="-806.9" font-family="Arial" font-size="14.00" fill="#000000">employeeid </text>
<text text-anchor="start" x="128.46" y="-806.9" font-family="Arial" font-size="14.00" fill="#666666">[integer]</text>
<polygon fill="none" stroke="#000000" points="46,-765.5 46,-795.5 378,-795.5 378,-765.5 46,-765.5"/>
<text text-anchor="start" x="53" y="-776.9" font-family="Arial" font-size="14.00" fill="#000000">total_allowance </text>
<text text-anchor="start" x="153.359" y="-776.9" font-family="Arial" font-size="14.00" fill="#666666">[numeric(18,2)]</text>
<polygon fill="none" stroke="#000000" points="46,-735.5 46,-765.5 378,-765.5 378,-735.5 46,-735.5"/>
<text text-anchor="start" x="53" y="-746.9" font-family="Arial" font-size="14.00" fill="#000000">total_deduction </text>
<text text-anchor="start" x="151.819" y="-746.9" font-family="Arial" font-size="14.00" fill="#666666">[numeric(18,2)]</text>
<polygon fill="none" stroke="#000000" points="46,-705.5 46,-735.5 378,-735.5 378,-705.5 46,-705.5"/>
<text text-anchor="start" x="53" y="-716.9" font-family="Arial" font-size="14.00" fill="#000000">payperiodid </text>
<text text-anchor="start" x="129.2426" y="-716.9" font-family="Arial" font-size="14.00" fill="#666666">[integer]</text>
<polygon fill="none" stroke="#000000" points="46,-675.5 46,-705.5 378,-705.5 378,-675.5 46,-675.5"/>
<text text-anchor="start" x="53" y="-686.9" font-family="Arial" font-size="14.00" fill="#000000">net_salary </text>
<text text-anchor="start" x="121.4614" y="-686.9" font-family="Arial" font-size="14.00" fill="#666666">[numeric(18,2)]</text>
<polygon fill="none" stroke="#000000" points="46,-645.5 46,-675.5 378,-675.5 378,-645.5 46,-645.5"/>
<text text-anchor="start" x="53" y="-656.9" font-family="Arial" font-size="14.00" fill="#000000">advance </text>
<text text-anchor="start" x="109.8036" y="-656.9" font-family="Arial" font-size="14.00" fill="#666666">[numeric(8,2)]</text>
<polygon fill="none" stroke="#000000" points="46,-615.5 46,-645.5 378,-645.5 378,-615.5 46,-615.5"/>
<text text-anchor="start" x="53" y="-626.9" font-family="Arial" font-size="14.00" fill="#000000">paid </text>
<text text-anchor="start" x="83.345" y="-626.9" font-family="Arial" font-size="14.00" fill="#666666">[numeric(18,2)]</text>
<polygon fill="none" stroke="#000000" points="46,-585.5 46,-615.5 378,-615.5 378,-585.5 46,-585.5"/>
<text text-anchor="start" x="53" y="-596.9" font-family="Arial" font-size="14.00" fill="#000000">overtime </text>
<text text-anchor="start" x="110.5568" y="-596.9" font-family="Arial" font-size="14.00" fill="#666666">[numeric(18,2)]</text>
<polygon fill="none" stroke="#000000" points="46,-555.5 46,-585.5 378,-585.5 378,-555.5 46,-555.5"/>
<text text-anchor="start" x="53" y="-566.9" font-family="Arial" font-size="14.00" fill="#000000">arrear </text>
<text text-anchor="start" x="94.2202" y="-566.9" font-family="Arial" font-size="14.00" fill="#666666">[numeric(18,2)]</text>
<polygon fill="none" stroke="#000000" points="46,-525.5 46,-555.5 378,-555.5 378,-525.5 46,-525.5"/>
<text text-anchor="start" x="53" y="-536.9" font-family="Arial" font-size="14.00" fill="#000000">basic </text>
<text text-anchor="start" x="89.5624" y="-536.9" font-family="Arial" font-size="14.00" fill="#666666">[numeric(8,2)]</text>
<polygon fill="none" stroke="#000000" points="46,-495.5 46,-525.5 378,-525.5 378,-495.5 46,-495.5"/>
<text text-anchor="start" x="53" y="-506.9" font-family="Arial" font-size="14.00" fill="#000000">da </text>
<text text-anchor="start" x="72.4558" y="-506.9" font-family="Arial" font-size="14.00" fill="#666666">[numeric(8,2)]</text>
<polygon fill="none" stroke="#000000" points="46,-465.5 46,-495.5 378,-495.5 378,-465.5 46,-465.5"/>
<text text-anchor="start" x="53" y="-476.9" font-family="Arial" font-size="14.00" fill="#000000">ca </text>
<text text-anchor="start" x="71.6732" y="-476.9" font-family="Arial" font-size="14.00" fill="#666666">[numeric(8,2)]</text>
<polygon fill="none" stroke="#000000" points="46,-435.5 46,-465.5 378,-465.5 378,-435.5 46,-435.5"/>
<text text-anchor="start" x="53" y="-446.9" font-family="Arial" font-size="14.00" fill="#000000">hra </text>
<text text-anchor="start" x="77.1164" y="-446.9" font-family="Arial" font-size="14.00" fill="#666666">[numeric(8,2)]</text>
<polygon fill="none" stroke="#000000" points="46,-405.5 46,-435.5 378,-435.5 378,-405.5 46,-405.5"/>
<text text-anchor="start" x="53" y="-416.9" font-family="Arial" font-size="14.00" fill="#000000">pf </text>
<text text-anchor="start" x="68.5638" y="-416.9" font-family="Arial" font-size="14.00" fill="#666666">[numeric(8,2)]</text>
<polygon fill="none" stroke="#000000" points="46,-375.5 46,-405.5 378,-405.5 378,-375.5 46,-375.5"/>
<text text-anchor="start" x="53" y="-386.9" font-family="Arial" font-size="14.00" fill="#000000">sa </text>
<text text-anchor="start" x="71.6732" y="-386.9" font-family="Arial" font-size="14.00" fill="#666666">[numeric(8,2)]</text>
<polygon fill="none" stroke="#000000" points="46,-345.5 46,-375.5 378,-375.5 378,-345.5 46,-345.5"/>
<text text-anchor="start" x="53" y="-356.9" font-family="Arial" font-size="14.00" fill="#000000">ewf </text>
<text text-anchor="start" x="78.6704" y="-356.9" font-family="Arial" font-size="14.00" fill="#666666">[numeric(8,2)]</text>
<polygon fill="none" stroke="#000000" points="46,-315.5 46,-345.5 378,-345.5 378,-315.5 46,-315.5"/>
<text text-anchor="start" x="53" y="-326.9" font-family="Arial" font-size="14.00" fill="#000000">tea </text>
<text text-anchor="start" x="76.3464" y="-326.9" font-family="Arial" font-size="14.00" fill="#666666">[numeric(8,2)]</text>
<polygon fill="none" stroke="#000000" points="46,-285.5 46,-315.5 378,-315.5 378,-285.5 46,-285.5"/>
<text text-anchor="start" x="53" y="-296.9" font-family="Arial" font-size="14.00" fill="#000000">tds </text>
<text text-anchor="start" x="75.5638" y="-296.9" font-family="Arial" font-size="14.00" fill="#666666">[numeric(8,2)]</text>
<polygon fill="none" stroke="#000000" points="46,-255.5 46,-285.5 378,-285.5 378,-255.5 46,-255.5"/>
<text text-anchor="start" x="53" y="-266.9" font-family="Arial" font-size="14.00" fill="#000000">adv </text>
<text text-anchor="start" x="79.4558" y="-266.9" font-family="Arial" font-size="14.00" fill="#666666">[numeric(8,2)]</text>
<polygon fill="none" stroke="#000000" points="46,-225.5 46,-255.5 378,-255.5 378,-225.5 46,-225.5"/>
<text text-anchor="start" x="53" y="-236.9" font-family="Arial" font-size="14.00" fill="#000000">ea </text>
<text text-anchor="start" x="72.4558" y="-236.9" font-family="Arial" font-size="14.00" fill="#666666">[numeric(8,2)]</text>
<polygon fill="none" stroke="#000000" points="46,-195.5 46,-225.5 378,-225.5 378,-195.5 46,-195.5"/>
<text text-anchor="start" x="53" y="-206.9" font-family="Arial" font-size="14.00" fill="#000000">other </text>
<text text-anchor="start" x="88.7896" y="-206.9" font-family="Arial" font-size="14.00" fill="#666666">[numeric(8,2)]</text>
<polygon fill="none" stroke="#000000" points="46,-165.5 46,-195.5 378,-195.5 378,-165.5 46,-165.5"/>
<text text-anchor="start" x="53" y="-176.9" font-family="Arial" font-size="14.00" fill="#000000">other_deduction </text>
<text text-anchor="start" x="157.265" y="-176.9" font-family="Arial" font-size="14.00" fill="#666666">[numeric(8,2)]</text>
<polygon fill="none" stroke="#000000" points="46,-135.5 46,-165.5 378,-165.5 378,-135.5 46,-135.5"/>
<text text-anchor="start" x="53" y="-146.9" font-family="Arial" font-size="14.00" fill="#000000">add_att_reward </text>
<text text-anchor="start" x="154.143" y="-146.9" font-family="Arial" font-size="14.00" fill="#666666">[numeric(8,2)]</text>
<polygon fill="none" stroke="#000000" points="46,-105.5 46,-135.5 378,-135.5 378,-105.5 46,-105.5"/>
<text text-anchor="start" x="53" y="-116.9" font-family="Arial" font-size="14.00" fill="#000000">esi </text>
<text text-anchor="start" x="74.7798" y="-116.9" font-family="Arial" font-size="14.00" fill="#666666">[numeric(8,2)]</text>
<polygon fill="none" stroke="#000000" points="46,-75.5 46,-105.5 378,-105.5 378,-75.5 46,-75.5"/>
<text text-anchor="start" x="53" y="-86.9" font-family="Arial" font-size="14.00" fill="#000000">arear </text>
<text text-anchor="start" x="89.5596" y="-86.9" font-family="Arial" font-size="14.00" fill="#666666">[numeric(8,2)]</text>
<polygon fill="none" stroke="#000000" points="46,-45.5 46,-75.5 378,-75.5 378,-45.5 46,-45.5"/>
<text text-anchor="start" x="53" y="-56.9" font-family="Arial" font-size="14.00" fill="#000000">arear_on_basic </text>
<text text-anchor="start" x="153.3618" y="-56.9" font-family="Arial" font-size="14.00" fill="#666666">[numeric(8,2)]</text>
<polygon fill="none" stroke="#000000" stroke-width="3" points="44.5,-44.5 44.5,-892.5 379.5,-892.5 379.5,-44.5 44.5,-44.5"/>
</g>
</g>
</svg>
