<?xml version="1.0" encoding="UTF-8" standalone="no"?>
<!DOCTYPE svg PUBLIC "-//W3C//DTD SVG 1.1//EN"
 "http://www.w3.org/Graphics/SVG/1.1/DTD/svg11.dtd">
<!-- Generated by graphviz version 2.40.1 (20161225.0304)
 -->
<!-- Title: public.fa_dwbapilogdetails Pages: 1 -->
<svg width="451pt" height="285pt"
 viewBox="0.00 0.00 451.00 285.00" xmlns="http://www.w3.org/2000/svg" xmlns:xlink="http://www.w3.org/1999/xlink">
<g id="graph0" class="graph" transform="scale(1 1) rotate(0) translate(4 281)">
<title>public.fa_dwbapilogdetails</title>
<polygon fill="#ffffff" stroke="transparent" points="-4,4 -4,-281 447,-281 447,4 -4,4"/>
<!-- public.fa_dwbapilogdetails -->
<g id="node1" class="node">
<title>public.fa_dwbapilogdetails</title>
<polygon fill="#efefef" stroke="transparent" points="46.5,-195.5 46.5,-230.5 397.5,-230.5 397.5,-195.5 46.5,-195.5"/>
<polygon fill="none" stroke="#000000" points="46.5,-195.5 46.5,-230.5 397.5,-230.5 397.5,-195.5 46.5,-195.5"/>
<text text-anchor="start" x="53.1896" y="-208.3" font-family="Arial Bold" font-size="18.00" fill="#000000">public.fa_dwbapilogdetails</text>
<text text-anchor="start" x="263.2424" y="-208.3" font-family="Arial" font-size="14.00" fill="#000000">    </text>
<text text-anchor="start" x="297.4472" y="-208.3" font-family="Arial" font-size="14.00" fill="#666666">[BASE TABLE]</text>
<polygon fill="none" stroke="#000000" points="46.5,-165.5 46.5,-195.5 397.5,-195.5 397.5,-165.5 46.5,-165.5"/>
<text text-anchor="start" x="53.5" y="-176.9" font-family="Arial" font-size="14.00" fill="#000000">detailid </text>
<text text-anchor="start" x="101.7314" y="-176.9" font-family="Arial" font-size="14.00" fill="#666666">[integer]</text>
<polygon fill="none" stroke="#000000" points="46.5,-135.5 46.5,-165.5 397.5,-165.5 397.5,-135.5 46.5,-135.5"/>
<text text-anchor="start" x="53.5" y="-146.9" font-family="Arial" font-size="14.00" fill="#000000">requeston </text>
<text text-anchor="start" x="119.6374" y="-146.9" font-family="Arial" font-size="14.00" fill="#666666">[timestamp(6) without time zone]</text>
<polygon fill="none" stroke="#000000" points="46.5,-105.5 46.5,-135.5 397.5,-135.5 397.5,-105.5 46.5,-105.5"/>
<text text-anchor="start" x="53.5" y="-116.9" font-family="Arial" font-size="14.00" fill="#000000">requestmethod </text>
<text text-anchor="start" x="150.7538" y="-116.9" font-family="Arial" font-size="14.00" fill="#666666">[varchar(20)]</text>
<polygon fill="none" stroke="#000000" points="46.5,-75.5 46.5,-105.5 397.5,-105.5 397.5,-75.5 46.5,-75.5"/>
<text text-anchor="start" x="53.5" y="-86.9" font-family="Arial" font-size="14.00" fill="#000000">request </text>
<text text-anchor="start" x="104.0722" y="-86.9" font-family="Arial" font-size="14.00" fill="#666666">[text]</text>
<polygon fill="none" stroke="#000000" points="46.5,-45.5 46.5,-75.5 397.5,-75.5 397.5,-45.5 46.5,-45.5"/>
<text text-anchor="start" x="53.5" y="-56.9" font-family="Arial" font-size="14.00" fill="#000000">response </text>
<text text-anchor="start" x="114.9642" y="-56.9" font-family="Arial" font-size="14.00" fill="#666666">[text]</text>
<polygon fill="none" stroke="#000000" stroke-width="3" points="44.5,-44.5 44.5,-232.5 398.5,-232.5 398.5,-44.5 44.5,-44.5"/>
</g>
</g>
</svg>
