<?xml version="1.0" encoding="UTF-8" standalone="no"?>
<!DOCTYPE svg PUBLIC "-//W3C//DTD SVG 1.1//EN"
 "http://www.w3.org/Graphics/SVG/1.1/DTD/svg11.dtd">
<!-- Generated by graphviz version 2.40.1 (20161225.0304)
 -->
<!-- Title: public.sltype Pages: 1 -->
<svg width="340pt" height="285pt"
 viewBox="0.00 0.00 340.00 285.00" xmlns="http://www.w3.org/2000/svg" xmlns:xlink="http://www.w3.org/1999/xlink">
<g id="graph0" class="graph" transform="scale(1 1) rotate(0) translate(4 281)">
<title>public.sltype</title>
<polygon fill="#ffffff" stroke="transparent" points="-4,4 -4,-281 336,-281 336,4 -4,4"/>
<!-- public.sltype -->
<g id="node1" class="node">
<title>public.sltype</title>
<polygon fill="#efefef" stroke="transparent" points="46,-195.5 46,-230.5 286,-230.5 286,-195.5 46,-195.5"/>
<polygon fill="none" stroke="#000000" points="46,-195.5 46,-230.5 286,-230.5 286,-195.5 46,-195.5"/>
<text text-anchor="start" x="52.707" y="-208.3" font-family="Arial Bold" font-size="18.00" fill="#000000">public.sltype</text>
<text text-anchor="start" x="151.725" y="-208.3" font-family="Arial" font-size="14.00" fill="#000000">    </text>
<text text-anchor="start" x="185.9298" y="-208.3" font-family="Arial" font-size="14.00" fill="#666666">[BASE TABLE]</text>
<polygon fill="none" stroke="#000000" points="46,-165.5 46,-195.5 286,-195.5 286,-165.5 46,-165.5"/>
<text text-anchor="start" x="53" y="-176.9" font-family="Arial" font-size="14.00" fill="#000000">sltypeid </text>
<text text-anchor="start" x="104.3422" y="-176.9" font-family="Arial" font-size="14.00" fill="#666666">[integer]</text>
<polygon fill="none" stroke="#000000" points="46,-135.5 46,-165.5 286,-165.5 286,-135.5 46,-135.5"/>
<text text-anchor="start" x="53" y="-146.9" font-family="Arial" font-size="14.00" fill="#000000">sltypename </text>
<text text-anchor="start" x="128.4614" y="-146.9" font-family="Arial" font-size="14.00" fill="#666666">[text]</text>
<polygon fill="none" stroke="#000000" points="46,-105.5 46,-135.5 286,-135.5 286,-105.5 46,-105.5"/>
<text text-anchor="start" x="53" y="-116.9" font-family="Arial" font-size="14.00" fill="#000000">tablename </text>
<text text-anchor="start" x="122.244" y="-116.9" font-family="Arial" font-size="14.00" fill="#666666">[text]</text>
<polygon fill="none" stroke="#000000" points="46,-75.5 46,-105.5 286,-105.5 286,-75.5 46,-75.5"/>
<text text-anchor="start" x="53" y="-86.9" font-family="Arial" font-size="14.00" fill="#000000">idfield </text>
<text text-anchor="start" x="93.4488" y="-86.9" font-family="Arial" font-size="14.00" fill="#666666">[varchar(25)]</text>
<polygon fill="none" stroke="#000000" points="46,-45.5 46,-75.5 286,-75.5 286,-45.5 46,-45.5"/>
<text text-anchor="start" x="53" y="-56.9" font-family="Arial" font-size="14.00" fill="#000000">namefield </text>
<text text-anchor="start" x="117.568" y="-56.9" font-family="Arial" font-size="14.00" fill="#666666">[varchar(25)]</text>
<polygon fill="none" stroke="#000000" stroke-width="3" points="44.5,-44.5 44.5,-232.5 287.5,-232.5 287.5,-44.5 44.5,-44.5"/>
</g>
</g>
</svg>
