<?xml version="1.0" encoding="UTF-8" standalone="no"?>
<!DOCTYPE svg PUBLIC "-//W3C//DTD SVG 1.1//EN"
 "http://www.w3.org/Graphics/SVG/1.1/DTD/svg11.dtd">
<!-- Generated by graphviz version 2.40.1 (20161225.0304)
 -->
<!-- Title: public.prod_itemjobworkconsumptionserialdetail Pages: 1 -->
<svg width="623pt" height="285pt"
 viewBox="0.00 0.00 623.00 285.00" xmlns="http://www.w3.org/2000/svg" xmlns:xlink="http://www.w3.org/1999/xlink">
<g id="graph0" class="graph" transform="scale(1 1) rotate(0) translate(4 281)">
<title>public.prod_itemjobworkconsumptionserialdetail</title>
<polygon fill="#ffffff" stroke="transparent" points="-4,4 -4,-281 619,-281 619,4 -4,4"/>
<!-- public.prod_itemjobworkconsumptionserialdetail -->
<g id="node1" class="node">
<title>public.prod_itemjobworkconsumptionserialdetail</title>
<polygon fill="#efefef" stroke="transparent" points="46.5,-195.5 46.5,-230.5 569.5,-230.5 569.5,-195.5 46.5,-195.5"/>
<polygon fill="none" stroke="#000000" points="46.5,-195.5 46.5,-230.5 569.5,-230.5 569.5,-195.5 46.5,-195.5"/>
<text text-anchor="start" x="53.1919" y="-208.3" font-family="Arial Bold" font-size="18.00" fill="#000000">public.prod_itemjobworkconsumptionserialdetail</text>
<text text-anchor="start" x="435.2401" y="-208.3" font-family="Arial" font-size="14.00" fill="#000000">    </text>
<text text-anchor="start" x="469.4449" y="-208.3" font-family="Arial" font-size="14.00" fill="#666666">[BASE TABLE]</text>
<polygon fill="none" stroke="#000000" points="46.5,-165.5 46.5,-195.5 569.5,-195.5 569.5,-165.5 46.5,-165.5"/>
<text text-anchor="start" x="53.5" y="-176.9" font-family="Arial" font-size="14.00" fill="#000000">serialdetailid </text>
<text text-anchor="start" x="135.1704" y="-176.9" font-family="Arial" font-size="14.00" fill="#666666">[integer]</text>
<polygon fill="none" stroke="#000000" points="46.5,-135.5 46.5,-165.5 569.5,-165.5 569.5,-135.5 46.5,-135.5"/>
<text text-anchor="start" x="53.5" y="-146.9" font-family="Arial" font-size="14.00" fill="#000000">consumedetailid </text>
<text text-anchor="start" x="158.5224" y="-146.9" font-family="Arial" font-size="14.00" fill="#666666">[integer]</text>
<polygon fill="none" stroke="#000000" points="46.5,-105.5 46.5,-135.5 569.5,-135.5 569.5,-105.5 46.5,-105.5"/>
<text text-anchor="start" x="53.5" y="-116.9" font-family="Arial" font-size="14.00" fill="#000000">serialid </text>
<text text-anchor="start" x="101.7188" y="-116.9" font-family="Arial" font-size="14.00" fill="#666666">[integer]</text>
<polygon fill="none" stroke="#000000" points="46.5,-75.5 46.5,-105.5 569.5,-105.5 569.5,-75.5 46.5,-75.5"/>
<text text-anchor="start" x="53.5" y="-86.9" font-family="Arial" font-size="14.00" fill="#000000">batchid </text>
<text text-anchor="start" x="102.5182" y="-86.9" font-family="Arial" font-size="14.00" fill="#666666">[integer]</text>
<polygon fill="none" stroke="#000000" points="46.5,-45.5 46.5,-75.5 569.5,-75.5 569.5,-45.5 46.5,-45.5"/>
<text text-anchor="start" x="53.5" y="-56.9" font-family="Arial" font-size="14.00" fill="#000000">jobworkid </text>
<text text-anchor="start" x="116.5014" y="-56.9" font-family="Arial" font-size="14.00" fill="#666666">[integer]</text>
<polygon fill="none" stroke="#000000" stroke-width="3" points="44.5,-44.5 44.5,-232.5 570.5,-232.5 570.5,-44.5 44.5,-44.5"/>
</g>
</g>
</svg>
