<?xml version="1.0" encoding="UTF-8" standalone="no"?>
<!DOCTYPE svg PUBLIC "-//W3C//DTD SVG 1.1//EN"
 "http://www.w3.org/Graphics/SVG/1.1/DTD/svg11.dtd">
<!-- Generated by graphviz version 2.40.1 (20161225.0304)
 -->
<!-- Title: public.jw_consumeitemtemplate_amendlog Pages: 1 -->
<svg width="585pt" height="1005pt"
 viewBox="0.00 0.00 585.00 1005.00" xmlns="http://www.w3.org/2000/svg" xmlns:xlink="http://www.w3.org/1999/xlink">
<g id="graph0" class="graph" transform="scale(1 1) rotate(0) translate(4 1001)">
<title>public.jw_consumeitemtemplate_amendlog</title>
<polygon fill="#ffffff" stroke="transparent" points="-4,4 -4,-1001 581,-1001 581,4 -4,4"/>
<!-- public.jw_consumeitemtemplate_amendlog -->
<g id="node1" class="node">
<title>public.jw_consumeitemtemplate_amendlog</title>
<polygon fill="#efefef" stroke="transparent" points="46.5,-915.5 46.5,-950.5 531.5,-950.5 531.5,-915.5 46.5,-915.5"/>
<polygon fill="none" stroke="#000000" points="46.5,-915.5 46.5,-950.5 531.5,-950.5 531.5,-915.5 46.5,-915.5"/>
<text text-anchor="start" x="53.1855" y="-928.3" font-family="Arial Bold" font-size="18.00" fill="#000000">public.jw_consumeitemtemplate_amendlog</text>
<text text-anchor="start" x="397.2465" y="-928.3" font-family="Arial" font-size="14.00" fill="#000000">    </text>
<text text-anchor="start" x="431.4513" y="-928.3" font-family="Arial" font-size="14.00" fill="#666666">[BASE TABLE]</text>
<polygon fill="none" stroke="#000000" points="46.5,-885.5 46.5,-915.5 531.5,-915.5 531.5,-885.5 46.5,-885.5"/>
<text text-anchor="start" x="53.5" y="-896.9" font-family="Arial" font-size="14.00" fill="#000000">consumedetailamendid </text>
<text text-anchor="start" x="201.3134" y="-896.9" font-family="Arial" font-size="14.00" fill="#666666">[integer]</text>
<polygon fill="none" stroke="#000000" points="46.5,-855.5 46.5,-885.5 531.5,-885.5 531.5,-855.5 46.5,-855.5"/>
<text text-anchor="start" x="53.5" y="-866.9" font-family="Arial" font-size="14.00" fill="#000000">jobworkamendid </text>
<text text-anchor="start" x="159.2924" y="-866.9" font-family="Arial" font-size="14.00" fill="#666666">[integer]</text>
<polygon fill="none" stroke="#000000" points="46.5,-825.5 46.5,-855.5 531.5,-855.5 531.5,-825.5 46.5,-825.5"/>
<text text-anchor="start" x="53.5" y="-836.9" font-family="Arial" font-size="14.00" fill="#000000">producedetailamendid </text>
<text text-anchor="start" x="195.096" y="-836.9" font-family="Arial" font-size="14.00" fill="#666666">[integer]</text>
<polygon fill="none" stroke="#000000" points="46.5,-795.5 46.5,-825.5 531.5,-825.5 531.5,-795.5 46.5,-795.5"/>
<text text-anchor="start" x="53.5" y="-806.9" font-family="Arial" font-size="14.00" fill="#000000">consumedetailid </text>
<text text-anchor="start" x="158.5224" y="-806.9" font-family="Arial" font-size="14.00" fill="#666666">[integer]</text>
<polygon fill="none" stroke="#000000" points="46.5,-765.5 46.5,-795.5 531.5,-795.5 531.5,-765.5 46.5,-765.5"/>
<text text-anchor="start" x="53.5" y="-776.9" font-family="Arial" font-size="14.00" fill="#000000">itemid </text>
<text text-anchor="start" x="94.7202" y="-776.9" font-family="Arial" font-size="14.00" fill="#666666">[integer]</text>
<polygon fill="none" stroke="#000000" points="46.5,-735.5 46.5,-765.5 531.5,-765.5 531.5,-735.5 46.5,-735.5"/>
<text text-anchor="start" x="53.5" y="-746.9" font-family="Arial" font-size="14.00" fill="#000000">consumedbaseqty </text>
<text text-anchor="start" x="170.9852" y="-746.9" font-family="Arial" font-size="14.00" fill="#666666">[numeric(15,5)]</text>
<polygon fill="none" stroke="#000000" points="46.5,-705.5 46.5,-735.5 531.5,-735.5 531.5,-705.5 46.5,-705.5"/>
<text text-anchor="start" x="53.5" y="-716.9" font-family="Arial" font-size="14.00" fill="#000000">consumedaltqty </text>
<text text-anchor="start" x="155.4172" y="-716.9" font-family="Arial" font-size="14.00" fill="#666666">[numeric(15,5)]</text>
<polygon fill="none" stroke="#000000" points="46.5,-675.5 46.5,-705.5 531.5,-705.5 531.5,-675.5 46.5,-675.5"/>
<text text-anchor="start" x="53.5" y="-686.9" font-family="Arial" font-size="14.00" fill="#000000">jobworkid </text>
<text text-anchor="start" x="116.5014" y="-686.9" font-family="Arial" font-size="14.00" fill="#666666">[integer]</text>
<polygon fill="none" stroke="#000000" points="46.5,-645.5 46.5,-675.5 531.5,-675.5 531.5,-645.5 46.5,-645.5"/>
<text text-anchor="start" x="53.5" y="-656.9" font-family="Arial" font-size="14.00" fill="#000000">produceditemid </text>
<text text-anchor="start" x="153.0764" y="-656.9" font-family="Arial" font-size="14.00" fill="#666666">[integer]</text>
<polygon fill="none" stroke="#000000" points="46.5,-615.5 46.5,-645.5 531.5,-645.5 531.5,-615.5 46.5,-615.5"/>
<text text-anchor="start" x="53.5" y="-626.9" font-family="Arial" font-size="14.00" fill="#000000">burningloss </text>
<text text-anchor="start" x="128.96" y="-626.9" font-family="Arial" font-size="14.00" fill="#666666">[numeric(5,2)]</text>
<polygon fill="none" stroke="#000000" points="46.5,-585.5 46.5,-615.5 531.5,-615.5 531.5,-585.5 46.5,-585.5"/>
<text text-anchor="start" x="53.5" y="-596.9" font-family="Arial" font-size="14.00" fill="#000000">producedetailid </text>
<text text-anchor="start" x="152.305" y="-596.9" font-family="Arial" font-size="14.00" fill="#666666">[integer]</text>
<polygon fill="none" stroke="#000000" points="46.5,-555.5 46.5,-585.5 531.5,-585.5 531.5,-555.5 46.5,-555.5"/>
<text text-anchor="start" x="53.5" y="-566.9" font-family="Arial" font-size="14.00" fill="#000000">rejbaseqty </text>
<text text-anchor="start" x="121.9614" y="-566.9" font-family="Arial" font-size="14.00" fill="#666666">[numeric(15,5)]</text>
<polygon fill="none" stroke="#000000" points="46.5,-525.5 46.5,-555.5 531.5,-555.5 531.5,-525.5 46.5,-525.5"/>
<text text-anchor="start" x="53.5" y="-536.9" font-family="Arial" font-size="14.00" fill="#000000">rejaltqty </text>
<text text-anchor="start" x="106.3934" y="-536.9" font-family="Arial" font-size="14.00" fill="#666666">[numeric(15,5)]</text>
<polygon fill="none" stroke="#000000" points="46.5,-495.5 46.5,-525.5 531.5,-525.5 531.5,-495.5 46.5,-495.5"/>
<text text-anchor="start" x="53.5" y="-506.9" font-family="Arial" font-size="14.00" fill="#000000">reworkbaseqty </text>
<text text-anchor="start" x="148.4046" y="-506.9" font-family="Arial" font-size="14.00" fill="#666666">[numeric(15,5)]</text>
<polygon fill="none" stroke="#000000" points="46.5,-465.5 46.5,-495.5 531.5,-495.5 531.5,-465.5 46.5,-465.5"/>
<text text-anchor="start" x="53.5" y="-476.9" font-family="Arial" font-size="14.00" fill="#000000">reworkaltqty </text>
<text text-anchor="start" x="132.8366" y="-476.9" font-family="Arial" font-size="14.00" fill="#666666">[numeric(15,5)]</text>
<polygon fill="none" stroke="#000000" points="46.5,-435.5 46.5,-465.5 531.5,-465.5 531.5,-435.5 46.5,-435.5"/>
<text text-anchor="start" x="53.5" y="-446.9" font-family="Arial" font-size="14.00" fill="#000000">reworkstageid </text>
<text text-anchor="start" x="144.5112" y="-446.9" font-family="Arial" font-size="14.00" fill="#666666">[integer]</text>
<polygon fill="none" stroke="#000000" points="46.5,-405.5 46.5,-435.5 531.5,-435.5 531.5,-405.5 46.5,-405.5"/>
<text text-anchor="start" x="53.5" y="-416.9" font-family="Arial" font-size="14.00" fill="#000000">rate </text>
<text text-anchor="start" x="81.507" y="-416.9" font-family="Arial" font-size="14.00" fill="#666666">[numeric(15,5)]</text>
<polygon fill="none" stroke="#000000" points="46.5,-375.5 46.5,-405.5 531.5,-405.5 531.5,-375.5 46.5,-375.5"/>
<text text-anchor="start" x="53.5" y="-386.9" font-family="Arial" font-size="14.00" fill="#000000">isaltrate </text>
<text text-anchor="start" x="106.3934" y="-386.9" font-family="Arial" font-size="14.00" fill="#666666">[smallint]</text>
<polygon fill="none" stroke="#000000" points="46.5,-345.5 46.5,-375.5 531.5,-375.5 531.5,-345.5 46.5,-345.5"/>
<text text-anchor="start" x="53.5" y="-356.9" font-family="Arial" font-size="14.00" fill="#000000">oldconsumedbaseqty </text>
<text text-anchor="start" x="189.657" y="-356.9" font-family="Arial" font-size="14.00" fill="#666666">[numeric(15,5)]</text>
<polygon fill="none" stroke="#000000" points="46.5,-315.5 46.5,-345.5 531.5,-345.5 531.5,-315.5 46.5,-315.5"/>
<text text-anchor="start" x="53.5" y="-326.9" font-family="Arial" font-size="14.00" fill="#000000">oldconsumedaltqty </text>
<text text-anchor="start" x="174.089" y="-326.9" font-family="Arial" font-size="14.00" fill="#666666">[numeric(15,5)]</text>
<polygon fill="none" stroke="#000000" points="46.5,-285.5 46.5,-315.5 531.5,-315.5 531.5,-285.5 46.5,-285.5"/>
<text text-anchor="start" x="53.5" y="-296.9" font-family="Arial" font-size="14.00" fill="#000000">costprice </text>
<text text-anchor="start" x="113.3962" y="-296.9" font-family="Arial" font-size="14.00" fill="#666666">[numeric(17,5)]</text>
<polygon fill="none" stroke="#000000" points="46.5,-255.5 46.5,-285.5 531.5,-285.5 531.5,-255.5 46.5,-255.5"/>
<text text-anchor="start" x="53.5" y="-266.9" font-family="Arial" font-size="14.00" fill="#000000">totalcostprice </text>
<text text-anchor="start" x="139.8492" y="-266.9" font-family="Arial" font-size="14.00" fill="#666666">[numeric(17,5)]</text>
<polygon fill="none" stroke="#000000" points="46.5,-225.5 46.5,-255.5 531.5,-255.5 531.5,-225.5 46.5,-225.5"/>
<text text-anchor="start" x="53.5" y="-236.9" font-family="Arial" font-size="14.00" fill="#000000">is_cost_updated </text>
<text text-anchor="start" x="159.3218" y="-236.9" font-family="Arial" font-size="14.00" fill="#666666">[boolean]</text>
<polygon fill="none" stroke="#000000" points="46.5,-195.5 46.5,-225.5 531.5,-225.5 531.5,-195.5 46.5,-195.5"/>
<text text-anchor="start" x="53.5" y="-206.9" font-family="Arial" font-size="14.00" fill="#000000">adjustmentaltqty </text>
<text text-anchor="start" x="159.305" y="-206.9" font-family="Arial" font-size="14.00" fill="#666666">[numeric(15,5)]</text>
<polygon fill="none" stroke="#000000" points="46.5,-165.5 46.5,-195.5 531.5,-195.5 531.5,-165.5 46.5,-165.5"/>
<text text-anchor="start" x="53.5" y="-176.9" font-family="Arial" font-size="14.00" fill="#000000">adjustmentbaseqty </text>
<text text-anchor="start" x="174.873" y="-176.9" font-family="Arial" font-size="14.00" fill="#666666">[numeric(15,5)]</text>
<polygon fill="none" stroke="#000000" points="46.5,-135.5 46.5,-165.5 531.5,-165.5 531.5,-135.5 46.5,-135.5"/>
<text text-anchor="start" x="53.5" y="-146.9" font-family="Arial" font-size="14.00" fill="#000000">isusedbyjobworker </text>
<text text-anchor="start" x="173.2924" y="-146.9" font-family="Arial" font-size="14.00" fill="#666666">[boolean]</text>
<polygon fill="none" stroke="#000000" points="46.5,-105.5 46.5,-135.5 531.5,-135.5 531.5,-105.5 46.5,-105.5"/>
<text text-anchor="start" x="53.5" y="-116.9" font-family="Arial" font-size="14.00" fill="#000000">identificationmarkorno </text>
<text text-anchor="start" x="194.2966" y="-116.9" font-family="Arial" font-size="14.00" fill="#666666">[varchar(200)]</text>
<polygon fill="none" stroke="#000000" points="46.5,-75.5 46.5,-105.5 531.5,-105.5 531.5,-75.5 46.5,-75.5"/>
<text text-anchor="start" x="53.5" y="-86.9" font-family="Arial" font-size="14.00" fill="#000000">mainitemid </text>
<text text-anchor="start" x="125.0526" y="-86.9" font-family="Arial" font-size="14.00" fill="#666666">[integer]</text>
<polygon fill="none" stroke="#000000" points="46.5,-45.5 46.5,-75.5 531.5,-75.5 531.5,-45.5 46.5,-45.5"/>
<text text-anchor="start" x="53.5" y="-56.9" font-family="Arial" font-size="14.00" fill="#000000">issubstitute </text>
<text text-anchor="start" x="127.406" y="-56.9" font-family="Arial" font-size="14.00" fill="#666666">[boolean]</text>
<polygon fill="none" stroke="#000000" stroke-width="3" points="44.5,-44.5 44.5,-952.5 532.5,-952.5 532.5,-44.5 44.5,-44.5"/>
</g>
</g>
</svg>
