<?xml version="1.0" encoding="UTF-8" standalone="no"?>
<!DOCTYPE svg PUBLIC "-//W3C//DTD SVG 1.1//EN"
 "http://www.w3.org/Graphics/SVG/1.1/DTD/svg11.dtd">
<!-- Generated by graphviz version 2.40.1 (20161225.0304)
 -->
<!-- Title: public.temp_closingstock Pages: 1 -->
<svg width="441pt" height="195pt"
 viewBox="0.00 0.00 441.00 195.00" xmlns="http://www.w3.org/2000/svg" xmlns:xlink="http://www.w3.org/1999/xlink">
<g id="graph0" class="graph" transform="scale(1 1) rotate(0) translate(4 191)">
<title>public.temp_closingstock</title>
<polygon fill="#ffffff" stroke="transparent" points="-4,4 -4,-191 437,-191 437,4 -4,4"/>
<!-- public.temp_closingstock -->
<g id="node1" class="node">
<title>public.temp_closingstock</title>
<polygon fill="#efefef" stroke="transparent" points="46.5,-105.5 46.5,-140.5 387.5,-140.5 387.5,-105.5 46.5,-105.5"/>
<polygon fill="none" stroke="#000000" points="46.5,-105.5 46.5,-140.5 387.5,-140.5 387.5,-105.5 46.5,-105.5"/>
<text text-anchor="start" x="53.1972" y="-118.3" font-family="Arial Bold" font-size="18.00" fill="#000000">public.temp_closingstock</text>
<text text-anchor="start" x="253.2348" y="-118.3" font-family="Arial" font-size="14.00" fill="#000000">    </text>
<text text-anchor="start" x="287.4396" y="-118.3" font-family="Arial" font-size="14.00" fill="#666666">[BASE TABLE]</text>
<polygon fill="none" stroke="#000000" points="46.5,-75.5 46.5,-105.5 387.5,-105.5 387.5,-75.5 46.5,-75.5"/>
<text text-anchor="start" x="53.5" y="-86.9" font-family="Arial" font-size="14.00" fill="#000000">branchid </text>
<text text-anchor="start" x="111.0708" y="-86.9" font-family="Arial" font-size="14.00" fill="#666666">[integer]</text>
<polygon fill="none" stroke="#000000" points="46.5,-45.5 46.5,-75.5 387.5,-75.5 387.5,-45.5 46.5,-45.5"/>
<text text-anchor="start" x="53.5" y="-56.9" font-family="Arial" font-size="14.00" fill="#000000">closingvalue </text>
<text text-anchor="start" x="134.406" y="-56.9" font-family="Arial" font-size="14.00" fill="#666666">[numeric(18,5)]</text>
<polygon fill="none" stroke="#000000" stroke-width="3" points="44.5,-44.5 44.5,-142.5 388.5,-142.5 388.5,-44.5 44.5,-44.5"/>
</g>
</g>
</svg>
