<?xml version="1.0" encoding="UTF-8" standalone="no"?>
<!DOCTYPE svg PUBLIC "-//W3C//DTD SVG 1.1//EN"
 "http://www.w3.org/Graphics/SVG/1.1/DTD/svg11.dtd">
<!-- Generated by graphviz version 2.40.1 (20161225.0304)
 -->
<!-- Title: public.sec_erperrorlog Pages: 1 -->
<svg width="419pt" height="285pt"
 viewBox="0.00 0.00 419.00 285.00" xmlns="http://www.w3.org/2000/svg" xmlns:xlink="http://www.w3.org/1999/xlink">
<g id="graph0" class="graph" transform="scale(1 1) rotate(0) translate(4 281)">
<title>public.sec_erperrorlog</title>
<polygon fill="#ffffff" stroke="transparent" points="-4,4 -4,-281 415,-281 415,4 -4,4"/>
<!-- public.sec_erperrorlog -->
<g id="node1" class="node">
<title>public.sec_erperrorlog</title>
<polygon fill="#efefef" stroke="transparent" points="46.5,-195.5 46.5,-230.5 365.5,-230.5 365.5,-195.5 46.5,-195.5"/>
<polygon fill="none" stroke="#000000" points="46.5,-195.5 46.5,-230.5 365.5,-230.5 365.5,-195.5 46.5,-195.5"/>
<text text-anchor="start" x="53.2051" y="-208.3" font-family="Arial Bold" font-size="18.00" fill="#000000">public.sec_erperrorlog</text>
<text text-anchor="start" x="231.2269" y="-208.3" font-family="Arial" font-size="14.00" fill="#000000">    </text>
<text text-anchor="start" x="265.4317" y="-208.3" font-family="Arial" font-size="14.00" fill="#666666">[BASE TABLE]</text>
<polygon fill="none" stroke="#000000" points="46.5,-165.5 46.5,-195.5 365.5,-195.5 365.5,-165.5 46.5,-165.5"/>
<text text-anchor="start" x="53.5" y="-176.9" font-family="Arial" font-size="14.00" fill="#000000">errorid </text>
<text text-anchor="start" x="97.8268" y="-176.9" font-family="Arial" font-size="14.00" fill="#666666">[integer]</text>
<polygon fill="none" stroke="#000000" points="46.5,-135.5 46.5,-165.5 365.5,-165.5 365.5,-135.5 46.5,-135.5"/>
<text text-anchor="start" x="53.5" y="-146.9" font-family="Arial" font-size="14.00" fill="#000000">errordate </text>
<text text-anchor="start" x="114.176" y="-146.9" font-family="Arial" font-size="14.00" fill="#666666">[timestamp without time zone]</text>
<polygon fill="none" stroke="#000000" points="46.5,-105.5 46.5,-135.5 365.5,-135.5 365.5,-105.5 46.5,-105.5"/>
<text text-anchor="start" x="53.5" y="-116.9" font-family="Arial" font-size="14.00" fill="#000000">errorfrom </text>
<text text-anchor="start" x="114.932" y="-116.9" font-family="Arial" font-size="14.00" fill="#666666">[smallint]</text>
<polygon fill="none" stroke="#000000" points="46.5,-75.5 46.5,-105.5 365.5,-105.5 365.5,-75.5 46.5,-75.5"/>
<text text-anchor="start" x="53.5" y="-86.9" font-family="Arial" font-size="14.00" fill="#000000">errordetail </text>
<text text-anchor="start" x="120.3892" y="-86.9" font-family="Arial" font-size="14.00" fill="#666666">[text]</text>
<polygon fill="none" stroke="#000000" points="46.5,-45.5 46.5,-75.5 365.5,-75.5 365.5,-45.5 46.5,-45.5"/>
<text text-anchor="start" x="53.5" y="-56.9" font-family="Arial" font-size="14.00" fill="#000000">refid </text>
<text text-anchor="start" x="84.6136" y="-56.9" font-family="Arial" font-size="14.00" fill="#666666">[integer]</text>
<polygon fill="none" stroke="#000000" stroke-width="3" points="44.5,-44.5 44.5,-232.5 366.5,-232.5 366.5,-44.5 44.5,-44.5"/>
</g>
</g>
</svg>
