<?xml version="1.0" encoding="UTF-8" standalone="no"?>
<!DOCTYPE svg PUBLIC "-//W3C//DTD SVG 1.1//EN"
 "http://www.w3.org/Graphics/SVG/1.1/DTD/svg11.dtd">
<!-- Generated by graphviz version 2.40.1 (20161225.0304)
 -->
<!-- Title: public.temp_temp3 Pages: 1 -->
<svg width="393pt" height="165pt"
 viewBox="0.00 0.00 393.00 165.00" xmlns="http://www.w3.org/2000/svg" xmlns:xlink="http://www.w3.org/1999/xlink">
<g id="graph0" class="graph" transform="scale(1 1) rotate(0) translate(4 161)">
<title>public.temp_temp3</title>
<polygon fill="#ffffff" stroke="transparent" points="-4,4 -4,-161 389,-161 389,4 -4,4"/>
<!-- public.temp_temp3 -->
<g id="node1" class="node">
<title>public.temp_temp3</title>
<polygon fill="#efefef" stroke="transparent" points="46.5,-75.5 46.5,-110.5 339.5,-110.5 339.5,-75.5 46.5,-75.5"/>
<polygon fill="none" stroke="#000000" points="46.5,-75.5 46.5,-110.5 339.5,-110.5 339.5,-75.5 46.5,-75.5"/>
<text text-anchor="start" x="53.1984" y="-88.3" font-family="Arial Bold" font-size="18.00" fill="#000000">public.temp_temp3</text>
<text text-anchor="start" x="205.2336" y="-88.3" font-family="Arial" font-size="14.00" fill="#000000">    </text>
<text text-anchor="start" x="239.4384" y="-88.3" font-family="Arial" font-size="14.00" fill="#666666">[BASE TABLE]</text>
<polygon fill="none" stroke="#000000" points="46.5,-45.5 46.5,-75.5 339.5,-75.5 339.5,-45.5 46.5,-45.5"/>
<text text-anchor="start" x="53.5" y="-56.9" font-family="Arial" font-size="14.00" fill="#000000">id </text>
<text text-anchor="start" x="68.2798" y="-56.9" font-family="Arial" font-size="14.00" fill="#666666">[integer]</text>
<polygon fill="none" stroke="#000000" stroke-width="3" points="44.5,-44.5 44.5,-112.5 340.5,-112.5 340.5,-44.5 44.5,-44.5"/>
</g>
</g>
</svg>
