<?xml version="1.0" encoding="UTF-8" standalone="no"?>
<!DOCTYPE svg PUBLIC "-//W3C//DTD SVG 1.1//EN"
 "http://www.w3.org/Graphics/SVG/1.1/DTD/svg11.dtd">
<!-- Generated by graphviz version 2.40.1 (20161225.0304)
 -->
<!-- Title: public.sale_packingslipinvoicedetail Pages: 1 -->
<svg width="524pt" height="225pt"
 viewBox="0.00 0.00 524.00 225.00" xmlns="http://www.w3.org/2000/svg" xmlns:xlink="http://www.w3.org/1999/xlink">
<g id="graph0" class="graph" transform="scale(1 1) rotate(0) translate(4 221)">
<title>public.sale_packingslipinvoicedetail</title>
<polygon fill="#ffffff" stroke="transparent" points="-4,4 -4,-221 520,-221 520,4 -4,4"/>
<!-- public.sale_packingslipinvoicedetail -->
<g id="node1" class="node">
<title>public.sale_packingslipinvoicedetail</title>
<polygon fill="#efefef" stroke="transparent" points="46,-135.5 46,-170.5 470,-170.5 470,-135.5 46,-135.5"/>
<polygon fill="none" stroke="#000000" points="46,-135.5 46,-170.5 470,-170.5 470,-135.5 46,-135.5"/>
<text text-anchor="start" x="52.6901" y="-148.3" font-family="Arial Bold" font-size="18.00" fill="#000000">public.sale_packingslipinvoicedetail</text>
<text text-anchor="start" x="335.7419" y="-148.3" font-family="Arial" font-size="14.00" fill="#000000">    </text>
<text text-anchor="start" x="369.9467" y="-148.3" font-family="Arial" font-size="14.00" fill="#666666">[BASE TABLE]</text>
<polygon fill="none" stroke="#000000" points="46,-105.5 46,-135.5 470,-135.5 470,-105.5 46,-105.5"/>
<text text-anchor="start" x="53" y="-116.9" font-family="Arial" font-size="14.00" fill="#000000">packingslipinvoicedetailid </text>
<text text-anchor="start" x="214.0252" y="-116.9" font-family="Arial" font-size="14.00" fill="#666666">[integer]</text>
<polygon fill="none" stroke="#000000" points="46,-75.5 46,-105.5 470,-105.5 470,-75.5 46,-75.5"/>
<text text-anchor="start" x="53" y="-86.9" font-family="Arial" font-size="14.00" fill="#000000">packingslipid </text>
<text text-anchor="start" x="137.0126" y="-86.9" font-family="Arial" font-size="14.00" fill="#666666">[integer]</text>
<polygon fill="none" stroke="#000000" points="46,-45.5 46,-75.5 470,-75.5 470,-45.5 46,-45.5"/>
<text text-anchor="start" x="53" y="-56.9" font-family="Arial" font-size="14.00" fill="#000000">invoiceid </text>
<text text-anchor="start" x="111.3408" y="-56.9" font-family="Arial" font-size="14.00" fill="#666666">[integer]</text>
<polygon fill="none" stroke="#000000" stroke-width="3" points="44.5,-44.5 44.5,-172.5 471.5,-172.5 471.5,-44.5 44.5,-44.5"/>
</g>
</g>
</svg>
