<?xml version="1.0" encoding="UTF-8" standalone="no"?>
<!DOCTYPE svg PUBLIC "-//W3C//DTD SVG 1.1//EN"
 "http://www.w3.org/Graphics/SVG/1.1/DTD/svg11.dtd">
<!-- Generated by graphviz version 2.40.1 (20161225.0304)
 -->
<!-- Title: public.comn_clientmacdetails Pages: 1 -->
<svg width="475pt" height="255pt"
 viewBox="0.00 0.00 475.00 255.00" xmlns="http://www.w3.org/2000/svg" xmlns:xlink="http://www.w3.org/1999/xlink">
<g id="graph0" class="graph" transform="scale(1 1) rotate(0) translate(4 251)">
<title>public.comn_clientmacdetails</title>
<polygon fill="#ffffff" stroke="transparent" points="-4,4 -4,-251 471,-251 471,4 -4,4"/>
<!-- public.comn_clientmacdetails -->
<g id="node1" class="node">
<title>public.comn_clientmacdetails</title>
<polygon fill="#efefef" stroke="transparent" points="46.5,-165.5 46.5,-200.5 421.5,-200.5 421.5,-165.5 46.5,-165.5"/>
<polygon fill="none" stroke="#000000" points="46.5,-165.5 46.5,-200.5 421.5,-200.5 421.5,-165.5 46.5,-165.5"/>
<text text-anchor="start" x="53.2007" y="-178.3" font-family="Arial Bold" font-size="18.00" fill="#000000">public.comn_clientmacdetails</text>
<text text-anchor="start" x="287.2313" y="-178.3" font-family="Arial" font-size="14.00" fill="#000000">    </text>
<text text-anchor="start" x="321.4361" y="-178.3" font-family="Arial" font-size="14.00" fill="#666666">[BASE TABLE]</text>
<polygon fill="none" stroke="#000000" points="46.5,-135.5 46.5,-165.5 421.5,-165.5 421.5,-135.5 46.5,-135.5"/>
<text text-anchor="start" x="53.5" y="-146.9" font-family="Arial" font-size="14.00" fill="#000000">clientmacid </text>
<text text-anchor="start" x="127.392" y="-146.9" font-family="Arial" font-size="14.00" fill="#666666">[integer]</text>
<polygon fill="none" stroke="#000000" points="46.5,-105.5 46.5,-135.5 421.5,-135.5 421.5,-105.5 46.5,-105.5"/>
<text text-anchor="start" x="53.5" y="-116.9" font-family="Arial" font-size="14.00" fill="#000000">clientid </text>
<text text-anchor="start" x="100.9488" y="-116.9" font-family="Arial" font-size="14.00" fill="#666666">[integer]</text>
<polygon fill="none" stroke="#000000" points="46.5,-75.5 46.5,-105.5 421.5,-105.5 421.5,-75.5 46.5,-75.5"/>
<text text-anchor="start" x="53.5" y="-86.9" font-family="Arial" font-size="14.00" fill="#000000">macaddress </text>
<text text-anchor="start" x="133.6248" y="-86.9" font-family="Arial" font-size="14.00" fill="#666666">[varchar(100)]</text>
<polygon fill="none" stroke="#000000" points="46.5,-45.5 46.5,-75.5 421.5,-75.5 421.5,-45.5 46.5,-45.5"/>
<text text-anchor="start" x="53.5" y="-56.9" font-family="Arial" font-size="14.00" fill="#000000">isactive </text>
<text text-anchor="start" x="104.0596" y="-56.9" font-family="Arial" font-size="14.00" fill="#666666">[boolean]</text>
<polygon fill="none" stroke="#000000" stroke-width="3" points="44.5,-44.5 44.5,-202.5 422.5,-202.5 422.5,-44.5 44.5,-44.5"/>
</g>
</g>
</svg>
