<?xml version="1.0" encoding="UTF-8" standalone="no"?>
<!DOCTYPE svg PUBLIC "-//W3C//DTD SVG 1.1//EN"
 "http://www.w3.org/Graphics/SVG/1.1/DTD/svg11.dtd">
<!-- Generated by graphviz version 2.40.1 (20161225.0304)
 -->
<!-- Title: public.fa_change_as_per_itact Pages: 1 -->
<svg width="485pt" height="795pt"
 viewBox="0.00 0.00 485.00 795.00" xmlns="http://www.w3.org/2000/svg" xmlns:xlink="http://www.w3.org/1999/xlink">
<g id="graph0" class="graph" transform="scale(1 1) rotate(0) translate(4 791)">
<title>public.fa_change_as_per_itact</title>
<polygon fill="#ffffff" stroke="transparent" points="-4,4 -4,-791 481,-791 481,4 -4,4"/>
<!-- public.fa_change_as_per_itact -->
<g id="node1" class="node">
<title>public.fa_change_as_per_itact</title>
<polygon fill="#efefef" stroke="transparent" points="46.5,-705.5 46.5,-740.5 431.5,-740.5 431.5,-705.5 46.5,-705.5"/>
<polygon fill="none" stroke="#000000" points="46.5,-705.5 46.5,-740.5 431.5,-740.5 431.5,-705.5 46.5,-705.5"/>
<text text-anchor="start" x="53.1715" y="-718.3" font-family="Arial Bold" font-size="18.00" fill="#000000">public.fa_change_as_per_itact</text>
<text text-anchor="start" x="297.2605" y="-718.3" font-family="Arial" font-size="14.00" fill="#000000">    </text>
<text text-anchor="start" x="331.4653" y="-718.3" font-family="Arial" font-size="14.00" fill="#666666">[BASE TABLE]</text>
<polygon fill="none" stroke="#000000" points="46.5,-675.5 46.5,-705.5 431.5,-705.5 431.5,-675.5 46.5,-675.5"/>
<text text-anchor="start" x="53.5" y="-686.9" font-family="Arial" font-size="14.00" fill="#000000">changeid </text>
<text text-anchor="start" x="114.1928" y="-686.9" font-family="Arial" font-size="14.00" fill="#666666">[integer]</text>
<polygon fill="none" stroke="#000000" points="46.5,-645.5 46.5,-675.5 431.5,-675.5 431.5,-645.5 46.5,-645.5"/>
<text text-anchor="start" x="53.5" y="-656.9" font-family="Arial" font-size="14.00" fill="#000000">yearid </text>
<text text-anchor="start" x="95.5056" y="-656.9" font-family="Arial" font-size="14.00" fill="#666666">[smallint]</text>
<polygon fill="none" stroke="#000000" points="46.5,-615.5 46.5,-645.5 431.5,-645.5 431.5,-615.5 46.5,-615.5"/>
<text text-anchor="start" x="53.5" y="-626.9" font-family="Arial" font-size="14.00" fill="#000000">dateofposting </text>
<text text-anchor="start" x="141.4298" y="-626.9" font-family="Arial" font-size="14.00" fill="#666666">[date]</text>
<polygon fill="none" stroke="#000000" points="46.5,-585.5 46.5,-615.5 431.5,-615.5 431.5,-585.5 46.5,-585.5"/>
<text text-anchor="start" x="53.5" y="-596.9" font-family="Arial" font-size="14.00" fill="#000000">blockfrom </text>
<text text-anchor="start" x="118.0568" y="-596.9" font-family="Arial" font-size="14.00" fill="#666666">[integer]</text>
<polygon fill="none" stroke="#000000" points="46.5,-555.5 46.5,-585.5 431.5,-585.5 431.5,-555.5 46.5,-555.5"/>
<text text-anchor="start" x="53.5" y="-566.9" font-family="Arial" font-size="14.00" fill="#000000">blockto </text>
<text text-anchor="start" x="101.7356" y="-566.9" font-family="Arial" font-size="14.00" fill="#666666">[integer]</text>
<polygon fill="none" stroke="#000000" points="46.5,-525.5 46.5,-555.5 431.5,-555.5 431.5,-525.5 46.5,-525.5"/>
<text text-anchor="start" x="53.5" y="-536.9" font-family="Arial" font-size="14.00" fill="#000000">blockfromcurrentdep </text>
<text text-anchor="start" x="184.9642" y="-536.9" font-family="Arial" font-size="14.00" fill="#666666">[numeric(15,2)]</text>
<polygon fill="none" stroke="#000000" points="46.5,-495.5 46.5,-525.5 431.5,-525.5 431.5,-495.5 46.5,-495.5"/>
<text text-anchor="start" x="53.5" y="-506.9" font-family="Arial" font-size="14.00" fill="#000000">blockfromcurrentwdv </text>
<text text-anchor="start" x="186.5056" y="-506.9" font-family="Arial" font-size="14.00" fill="#666666">[numeric(15,2)]</text>
<polygon fill="none" stroke="#000000" points="46.5,-465.5 46.5,-495.5 431.5,-495.5 431.5,-465.5 46.5,-465.5"/>
<text text-anchor="start" x="53.5" y="-476.9" font-family="Arial" font-size="14.00" fill="#000000">blockfromdep </text>
<text text-anchor="start" x="141.4046" y="-476.9" font-family="Arial" font-size="14.00" fill="#666666">[numeric(15,2)]</text>
<polygon fill="none" stroke="#000000" points="46.5,-435.5 46.5,-465.5 431.5,-465.5 431.5,-435.5 46.5,-435.5"/>
<text text-anchor="start" x="53.5" y="-446.9" font-family="Arial" font-size="14.00" fill="#000000">blockfromwdv </text>
<text text-anchor="start" x="142.946" y="-446.9" font-family="Arial" font-size="14.00" fill="#666666">[numeric(15,2)]</text>
<polygon fill="none" stroke="#000000" points="46.5,-405.5 46.5,-435.5 431.5,-435.5 431.5,-405.5 46.5,-405.5"/>
<text text-anchor="start" x="53.5" y="-416.9" font-family="Arial" font-size="14.00" fill="#000000">blockftocurrentdep </text>
<text text-anchor="start" x="172.5336" y="-416.9" font-family="Arial" font-size="14.00" fill="#666666">[numeric(15,2)]</text>
<polygon fill="none" stroke="#000000" points="46.5,-375.5 46.5,-405.5 431.5,-405.5 431.5,-375.5 46.5,-375.5"/>
<text text-anchor="start" x="53.5" y="-386.9" font-family="Arial" font-size="14.00" fill="#000000">blocktocurrentwdv </text>
<text text-anchor="start" x="170.1844" y="-386.9" font-family="Arial" font-size="14.00" fill="#666666">[numeric(15,2)]</text>
<polygon fill="none" stroke="#000000" points="46.5,-345.5 46.5,-375.5 431.5,-375.5 431.5,-345.5 46.5,-345.5"/>
<text text-anchor="start" x="53.5" y="-356.9" font-family="Arial" font-size="14.00" fill="#000000">blocktodep </text>
<text text-anchor="start" x="125.0834" y="-356.9" font-family="Arial" font-size="14.00" fill="#666666">[numeric(15,2)]</text>
<polygon fill="none" stroke="#000000" points="46.5,-315.5 46.5,-345.5 431.5,-345.5 431.5,-315.5 46.5,-315.5"/>
<text text-anchor="start" x="53.5" y="-326.9" font-family="Arial" font-size="14.00" fill="#000000">blocktowdv </text>
<text text-anchor="start" x="126.6248" y="-326.9" font-family="Arial" font-size="14.00" fill="#666666">[numeric(15,2)]</text>
<polygon fill="none" stroke="#000000" points="46.5,-285.5 46.5,-315.5 431.5,-315.5 431.5,-285.5 46.5,-285.5"/>
<text text-anchor="start" x="53.5" y="-296.9" font-family="Arial" font-size="14.00" fill="#000000">createdby </text>
<text text-anchor="start" x="118.8548" y="-296.9" font-family="Arial" font-size="14.00" fill="#666666">[integer]</text>
<polygon fill="none" stroke="#000000" points="46.5,-255.5 46.5,-285.5 431.5,-285.5 431.5,-255.5 46.5,-255.5"/>
<text text-anchor="start" x="53.5" y="-266.9" font-family="Arial" font-size="14.00" fill="#000000">createdon </text>
<text text-anchor="start" x="119.6374" y="-266.9" font-family="Arial" font-size="14.00" fill="#666666">[timestamp without time zone]</text>
<polygon fill="none" stroke="#000000" points="46.5,-225.5 46.5,-255.5 431.5,-255.5 431.5,-225.5 46.5,-225.5"/>
<text text-anchor="start" x="53.5" y="-236.9" font-family="Arial" font-size="14.00" fill="#000000">isauthorized </text>
<text text-anchor="start" x="132.8506" y="-236.9" font-family="Arial" font-size="14.00" fill="#666666">[boolean]</text>
<polygon fill="none" stroke="#000000" points="46.5,-195.5 46.5,-225.5 431.5,-225.5 431.5,-195.5 46.5,-195.5"/>
<text text-anchor="start" x="53.5" y="-206.9" font-family="Arial" font-size="14.00" fill="#000000">authorizedby </text>
<text text-anchor="start" x="137.5266" y="-206.9" font-family="Arial" font-size="14.00" fill="#666666">[integer]</text>
<polygon fill="none" stroke="#000000" points="46.5,-165.5 46.5,-195.5 431.5,-195.5 431.5,-165.5 46.5,-165.5"/>
<text text-anchor="start" x="53.5" y="-176.9" font-family="Arial" font-size="14.00" fill="#000000">authorizedon </text>
<text text-anchor="start" x="138.3092" y="-176.9" font-family="Arial" font-size="14.00" fill="#666666">[timestamp without time zone]</text>
<polygon fill="none" stroke="#000000" points="46.5,-135.5 46.5,-165.5 431.5,-165.5 431.5,-135.5 46.5,-135.5"/>
<text text-anchor="start" x="53.5" y="-146.9" font-family="Arial" font-size="14.00" fill="#000000">editlog </text>
<text text-anchor="start" x="98.6248" y="-146.9" font-family="Arial" font-size="14.00" fill="#666666">[text]</text>
<polygon fill="none" stroke="#000000" points="46.5,-105.5 46.5,-135.5 431.5,-135.5 431.5,-105.5 46.5,-105.5"/>
<text text-anchor="start" x="53.5" y="-116.9" font-family="Arial" font-size="14.00" fill="#000000">headauthorizedby </text>
<text text-anchor="start" x="168.657" y="-116.9" font-family="Arial" font-size="14.00" fill="#666666">[integer]</text>
<polygon fill="none" stroke="#000000" points="46.5,-75.5 46.5,-105.5 431.5,-105.5 431.5,-75.5 46.5,-75.5"/>
<text text-anchor="start" x="53.5" y="-86.9" font-family="Arial" font-size="14.00" fill="#000000">updatedby </text>
<text text-anchor="start" x="122.7594" y="-86.9" font-family="Arial" font-size="14.00" fill="#666666">[integer]</text>
<polygon fill="none" stroke="#000000" points="46.5,-45.5 46.5,-75.5 431.5,-75.5 431.5,-45.5 46.5,-45.5"/>
<text text-anchor="start" x="53.5" y="-56.9" font-family="Arial" font-size="14.00" fill="#000000">updatedon </text>
<text text-anchor="start" x="123.542" y="-56.9" font-family="Arial" font-size="14.00" fill="#666666">[timestamp(6) without time zone]</text>
<polygon fill="none" stroke="#000000" stroke-width="3" points="44.5,-44.5 44.5,-742.5 432.5,-742.5 432.5,-44.5 44.5,-44.5"/>
</g>
</g>
</svg>
