<?xml version="1.0" encoding="UTF-8" standalone="no"?>
<!DOCTYPE svg PUBLIC "-//W3C//DTD SVG 1.1//EN"
 "http://www.w3.org/Graphics/SVG/1.1/DTD/svg11.dtd">
<!-- Generated by graphviz version 2.40.1 (20161225.0304)
 -->
<!-- Title: public.prod_serialdetail Pages: 1 -->
<svg width="425pt" height="255pt"
 viewBox="0.00 0.00 425.00 255.00" xmlns="http://www.w3.org/2000/svg" xmlns:xlink="http://www.w3.org/1999/xlink">
<g id="graph0" class="graph" transform="scale(1 1) rotate(0) translate(4 251)">
<title>public.prod_serialdetail</title>
<polygon fill="#ffffff" stroke="transparent" points="-4,4 -4,-251 421,-251 421,4 -4,4"/>
<!-- public.prod_serialdetail -->
<g id="node1" class="node">
<title>public.prod_serialdetail</title>
<polygon fill="#efefef" stroke="transparent" points="46.5,-165.5 46.5,-200.5 371.5,-200.5 371.5,-165.5 46.5,-165.5"/>
<polygon fill="none" stroke="#000000" points="46.5,-165.5 46.5,-200.5 371.5,-200.5 371.5,-165.5 46.5,-165.5"/>
<text text-anchor="start" x="53.2018" y="-178.3" font-family="Arial Bold" font-size="18.00" fill="#000000">public.prod_serialdetail</text>
<text text-anchor="start" x="237.2302" y="-178.3" font-family="Arial" font-size="14.00" fill="#000000">    </text>
<text text-anchor="start" x="271.435" y="-178.3" font-family="Arial" font-size="14.00" fill="#666666">[BASE TABLE]</text>
<polygon fill="none" stroke="#000000" points="46.5,-135.5 46.5,-165.5 371.5,-165.5 371.5,-135.5 46.5,-135.5"/>
<text text-anchor="start" x="53.5" y="-146.9" font-family="Arial" font-size="14.00" fill="#000000">produceserialid </text>
<text text-anchor="start" x="152.2924" y="-146.9" font-family="Arial" font-size="14.00" fill="#666666">[bigint]</text>
<polygon fill="none" stroke="#000000" points="46.5,-105.5 46.5,-135.5 371.5,-135.5 371.5,-105.5 46.5,-105.5"/>
<text text-anchor="start" x="53.5" y="-116.9" font-family="Arial" font-size="14.00" fill="#000000">producedetailid </text>
<text text-anchor="start" x="152.305" y="-116.9" font-family="Arial" font-size="14.00" fill="#666666">[integer]</text>
<polygon fill="none" stroke="#000000" points="46.5,-75.5 46.5,-105.5 371.5,-105.5 371.5,-75.5 46.5,-75.5"/>
<text text-anchor="start" x="53.5" y="-86.9" font-family="Arial" font-size="14.00" fill="#000000">batchid </text>
<text text-anchor="start" x="102.5182" y="-86.9" font-family="Arial" font-size="14.00" fill="#666666">[integer]</text>
<polygon fill="none" stroke="#000000" points="46.5,-45.5 46.5,-75.5 371.5,-75.5 371.5,-45.5 46.5,-45.5"/>
<text text-anchor="start" x="53.5" y="-56.9" font-family="Arial" font-size="14.00" fill="#000000">serialid </text>
<text text-anchor="start" x="101.7188" y="-56.9" font-family="Arial" font-size="14.00" fill="#666666">[bigint]</text>
<polygon fill="none" stroke="#000000" stroke-width="3" points="44.5,-44.5 44.5,-202.5 372.5,-202.5 372.5,-44.5 44.5,-44.5"/>
</g>
</g>
</svg>
