<?xml version="1.0" encoding="UTF-8" standalone="no"?>
<!DOCTYPE svg PUBLIC "-//W3C//DTD SVG 1.1//EN"
 "http://www.w3.org/Graphics/SVG/1.1/DTD/svg11.dtd">
<!-- Generated by graphviz version 2.40.1 (20161225.0304)
 -->
<!-- Title: public.acc_dutyforegonedetail Pages: 1 -->
<svg width="479pt" height="405pt"
 viewBox="0.00 0.00 479.00 405.00" xmlns="http://www.w3.org/2000/svg" xmlns:xlink="http://www.w3.org/1999/xlink">
<g id="graph0" class="graph" transform="scale(1 1) rotate(0) translate(4 401)">
<title>public.acc_dutyforegonedetail</title>
<polygon fill="#ffffff" stroke="transparent" points="-4,4 -4,-401 475,-401 475,4 -4,4"/>
<!-- public.acc_dutyforegonedetail -->
<g id="node1" class="node">
<title>public.acc_dutyforegonedetail</title>
<polygon fill="#efefef" stroke="transparent" points="46.5,-315.5 46.5,-350.5 425.5,-350.5 425.5,-315.5 46.5,-315.5"/>
<polygon fill="none" stroke="#000000" points="46.5,-315.5 46.5,-350.5 425.5,-350.5 425.5,-315.5 46.5,-315.5"/>
<text text-anchor="start" x="53.1775" y="-328.3" font-family="Arial Bold" font-size="18.00" fill="#000000">public.acc_dutyforegonedetail</text>
<text text-anchor="start" x="291.2545" y="-328.3" font-family="Arial" font-size="14.00" fill="#000000">    </text>
<text text-anchor="start" x="325.4593" y="-328.3" font-family="Arial" font-size="14.00" fill="#666666">[BASE TABLE]</text>
<polygon fill="none" stroke="#000000" points="46.5,-285.5 46.5,-315.5 425.5,-315.5 425.5,-285.5 46.5,-285.5"/>
<text text-anchor="start" x="53.5" y="-296.9" font-family="Arial" font-size="14.00" fill="#000000">dutyforegonedetailid </text>
<text text-anchor="start" x="183.434" y="-296.9" font-family="Arial" font-size="14.00" fill="#666666">[integer]</text>
<polygon fill="none" stroke="#000000" points="46.5,-255.5 46.5,-285.5 425.5,-285.5 425.5,-255.5 46.5,-255.5"/>
<text text-anchor="start" x="53.5" y="-266.9" font-family="Arial" font-size="14.00" fill="#000000">dutyforegoneid </text>
<text text-anchor="start" x="149.9824" y="-266.9" font-family="Arial" font-size="14.00" fill="#666666">[integer]</text>
<polygon fill="none" stroke="#000000" points="46.5,-225.5 46.5,-255.5 425.5,-255.5 425.5,-225.5 46.5,-225.5"/>
<text text-anchor="start" x="53.5" y="-236.9" font-family="Arial" font-size="14.00" fill="#000000">itemid </text>
<text text-anchor="start" x="94.7202" y="-236.9" font-family="Arial" font-size="14.00" fill="#666666">[integer]</text>
<polygon fill="none" stroke="#000000" points="46.5,-195.5 46.5,-225.5 425.5,-225.5 425.5,-195.5 46.5,-195.5"/>
<text text-anchor="start" x="53.5" y="-206.9" font-family="Arial" font-size="14.00" fill="#000000">baseqty </text>
<text text-anchor="start" x="106.4116" y="-206.9" font-family="Arial" font-size="14.00" fill="#666666">[numeric(15,5)]</text>
<polygon fill="none" stroke="#000000" points="46.5,-165.5 46.5,-195.5 425.5,-195.5 425.5,-165.5 46.5,-165.5"/>
<text text-anchor="start" x="53.5" y="-176.9" font-family="Arial" font-size="14.00" fill="#000000">altqty </text>
<text text-anchor="start" x="90.8436" y="-176.9" font-family="Arial" font-size="14.00" fill="#666666">[numeric(15,5)]</text>
<polygon fill="none" stroke="#000000" points="46.5,-135.5 46.5,-165.5 425.5,-165.5 425.5,-135.5 46.5,-135.5"/>
<text text-anchor="start" x="53.5" y="-146.9" font-family="Arial" font-size="14.00" fill="#000000">remark </text>
<text text-anchor="start" x="100.9376" y="-146.9" font-family="Arial" font-size="14.00" fill="#666666">[varchar(200)]</text>
<polygon fill="none" stroke="#000000" points="46.5,-105.5 46.5,-135.5 425.5,-135.5 425.5,-105.5 46.5,-105.5"/>
<text text-anchor="start" x="53.5" y="-116.9" font-family="Arial" font-size="14.00" fill="#000000">costprice </text>
<text text-anchor="start" x="113.3962" y="-116.9" font-family="Arial" font-size="14.00" fill="#666666">[numeric(17,5)]</text>
<polygon fill="none" stroke="#000000" points="46.5,-75.5 46.5,-105.5 425.5,-105.5 425.5,-75.5 46.5,-75.5"/>
<text text-anchor="start" x="53.5" y="-86.9" font-family="Arial" font-size="14.00" fill="#000000">totalcostprice </text>
<text text-anchor="start" x="139.8492" y="-86.9" font-family="Arial" font-size="14.00" fill="#666666">[numeric(17,5)]</text>
<polygon fill="none" stroke="#000000" points="46.5,-45.5 46.5,-75.5 425.5,-75.5 425.5,-45.5 46.5,-45.5"/>
<text text-anchor="start" x="53.5" y="-56.9" font-family="Arial" font-size="14.00" fill="#000000">is_cost_updated </text>
<text text-anchor="start" x="159.3218" y="-56.9" font-family="Arial" font-size="14.00" fill="#666666">[boolean]</text>
<polygon fill="none" stroke="#000000" stroke-width="3" points="44.5,-44.5 44.5,-352.5 426.5,-352.5 426.5,-44.5 44.5,-44.5"/>
</g>
</g>
</svg>
