<?xml version="1.0" encoding="UTF-8" standalone="no"?>
<!DOCTYPE svg PUBLIC "-//W3C//DTD SVG 1.1//EN"
 "http://www.w3.org/Graphics/SVG/1.1/DTD/svg11.dtd">
<!-- Generated by graphviz version 2.40.1 (20161225.0304)
 -->
<!-- Title: public.vijaywadastock_ledger Pages: 1 -->
<svg width="474pt" height="675pt"
 viewBox="0.00 0.00 474.00 675.00" xmlns="http://www.w3.org/2000/svg" xmlns:xlink="http://www.w3.org/1999/xlink">
<g id="graph0" class="graph" transform="scale(1 1) rotate(0) translate(4 671)">
<title>public.vijaywadastock_ledger</title>
<polygon fill="#ffffff" stroke="transparent" points="-4,4 -4,-671 470,-671 470,4 -4,4"/>
<!-- public.vijaywadastock_ledger -->
<g id="node1" class="node">
<title>public.vijaywadastock_ledger</title>
<polygon fill="#efefef" stroke="transparent" points="46,-585.5 46,-620.5 420,-620.5 420,-585.5 46,-585.5"/>
<polygon fill="none" stroke="#000000" points="46,-585.5 46,-620.5 420,-620.5 420,-585.5 46,-585.5"/>
<text text-anchor="start" x="52.6948" y="-598.3" font-family="Arial Bold" font-size="18.00" fill="#000000">public.vijaywadastock_ledger</text>
<text text-anchor="start" x="285.7372" y="-598.3" font-family="Arial" font-size="14.00" fill="#000000">    </text>
<text text-anchor="start" x="319.942" y="-598.3" font-family="Arial" font-size="14.00" fill="#666666">[BASE TABLE]</text>
<polygon fill="none" stroke="#000000" points="46,-555.5 46,-585.5 420,-585.5 420,-555.5 46,-555.5"/>
<text text-anchor="start" x="53" y="-566.9" font-family="Arial" font-size="14.00" fill="#000000">rowno </text>
<text text-anchor="start" x="95.0056" y="-566.9" font-family="Arial" font-size="14.00" fill="#666666">[bigint]</text>
<polygon fill="none" stroke="#000000" points="46,-525.5 46,-555.5 420,-555.5 420,-525.5 46,-525.5"/>
<text text-anchor="start" x="53" y="-536.9" font-family="Arial" font-size="14.00" fill="#000000">tdate </text>
<text text-anchor="start" x="88.0196" y="-536.9" font-family="Arial" font-size="14.00" fill="#666666">[timestamp without time zone]</text>
<polygon fill="none" stroke="#000000" points="46,-495.5 46,-525.5 420,-525.5 420,-495.5 46,-495.5"/>
<text text-anchor="start" x="53" y="-506.9" font-family="Arial" font-size="14.00" fill="#000000">billno </text>
<text text-anchor="start" x="89.5582" y="-506.9" font-family="Arial" font-size="14.00" fill="#666666">[text]</text>
<polygon fill="none" stroke="#000000" points="46,-465.5 46,-495.5 420,-495.5 420,-465.5 46,-465.5"/>
<text text-anchor="start" x="53" y="-476.9" font-family="Arial" font-size="14.00" fill="#000000">partyname </text>
<text text-anchor="start" x="123.0154" y="-476.9" font-family="Arial" font-size="14.00" fill="#666666">[text]</text>
<polygon fill="none" stroke="#000000" points="46,-435.5 46,-465.5 420,-465.5 420,-435.5 46,-435.5"/>
<text text-anchor="start" x="53" y="-446.9" font-family="Arial" font-size="14.00" fill="#000000">typeid </text>
<text text-anchor="start" x="94.2356" y="-446.9" font-family="Arial" font-size="14.00" fill="#666666">[integer]</text>
<polygon fill="none" stroke="#000000" points="46,-405.5 46,-435.5 420,-435.5 420,-405.5 46,-405.5"/>
<text text-anchor="start" x="53" y="-416.9" font-family="Arial" font-size="14.00" fill="#000000">transactiontype </text>
<text text-anchor="start" x="151.8078" y="-416.9" font-family="Arial" font-size="14.00" fill="#666666">[text]</text>
<polygon fill="none" stroke="#000000" points="46,-375.5 46,-405.5 420,-405.5 420,-375.5 46,-375.5"/>
<text text-anchor="start" x="53" y="-386.9" font-family="Arial" font-size="14.00" fill="#000000">remark </text>
<text text-anchor="start" x="100.4376" y="-386.9" font-family="Arial" font-size="14.00" fill="#666666">[varchar(1000)]</text>
<polygon fill="none" stroke="#000000" points="46,-345.5 46,-375.5 420,-375.5 420,-345.5 46,-345.5"/>
<text text-anchor="start" x="53" y="-356.9" font-family="Arial" font-size="14.00" fill="#000000">stageorstore </text>
<text text-anchor="start" x="134.6886" y="-356.9" font-family="Arial" font-size="14.00" fill="#666666">[varchar(50)]</text>
<polygon fill="none" stroke="#000000" points="46,-315.5 46,-345.5 420,-345.5 420,-315.5 46,-315.5"/>
<text text-anchor="start" x="53" y="-326.9" font-family="Arial" font-size="14.00" fill="#000000">buname </text>
<text text-anchor="start" x="107.4642" y="-326.9" font-family="Arial" font-size="14.00" fill="#666666">[varchar(10)]</text>
<polygon fill="none" stroke="#000000" points="46,-285.5 46,-315.5 420,-315.5 420,-285.5 46,-285.5"/>
<text text-anchor="start" x="53" y="-296.9" font-family="Arial" font-size="14.00" fill="#000000">altuname </text>
<text text-anchor="start" x="114.4614" y="-296.9" font-family="Arial" font-size="14.00" fill="#666666">[varchar(10)]</text>
<polygon fill="none" stroke="#000000" points="46,-255.5 46,-285.5 420,-285.5 420,-255.5 46,-255.5"/>
<text text-anchor="start" x="53" y="-266.9" font-family="Arial" font-size="14.00" fill="#000000">qty </text>
<text text-anchor="start" x="75.5638" y="-266.9" font-family="Arial" font-size="14.00" fill="#666666">[numeric]</text>
<polygon fill="none" stroke="#000000" points="46,-225.5 46,-255.5 420,-255.5 420,-225.5 46,-225.5"/>
<text text-anchor="start" x="53" y="-236.9" font-family="Arial" font-size="14.00" fill="#000000">altqty </text>
<text text-anchor="start" x="90.3436" y="-236.9" font-family="Arial" font-size="14.00" fill="#666666">[numeric]</text>
<polygon fill="none" stroke="#000000" points="46,-195.5 46,-225.5 420,-225.5 420,-195.5 46,-195.5"/>
<text text-anchor="start" x="53" y="-206.9" font-family="Arial" font-size="14.00" fill="#000000">inqty </text>
<text text-anchor="start" x="86.453" y="-206.9" font-family="Arial" font-size="14.00" fill="#666666">[numeric]</text>
<polygon fill="none" stroke="#000000" points="46,-165.5 46,-195.5 420,-195.5 420,-165.5 46,-165.5"/>
<text text-anchor="start" x="53" y="-176.9" font-family="Arial" font-size="14.00" fill="#000000">inaltqty </text>
<text text-anchor="start" x="101.2328" y="-176.9" font-family="Arial" font-size="14.00" fill="#666666">[numeric]</text>
<polygon fill="none" stroke="#000000" points="46,-135.5 46,-165.5 420,-165.5 420,-135.5 46,-135.5"/>
<text text-anchor="start" x="53" y="-146.9" font-family="Arial" font-size="14.00" fill="#000000">outqty </text>
<text text-anchor="start" x="95.0196" y="-146.9" font-family="Arial" font-size="14.00" fill="#666666">[numeric]</text>
<polygon fill="none" stroke="#000000" points="46,-105.5 46,-135.5 420,-135.5 420,-105.5 46,-105.5"/>
<text text-anchor="start" x="53" y="-116.9" font-family="Arial" font-size="14.00" fill="#000000">outaltqty </text>
<text text-anchor="start" x="109.7994" y="-116.9" font-family="Arial" font-size="14.00" fill="#666666">[numeric]</text>
<polygon fill="none" stroke="#000000" points="46,-75.5 46,-105.5 420,-105.5 420,-75.5 46,-75.5"/>
<text text-anchor="start" x="53" y="-86.9" font-family="Arial" font-size="14.00" fill="#000000">costprice </text>
<text text-anchor="start" x="112.8962" y="-86.9" font-family="Arial" font-size="14.00" fill="#666666">[numeric]</text>
<polygon fill="none" stroke="#000000" points="46,-45.5 46,-75.5 420,-75.5 420,-45.5 46,-45.5"/>
<text text-anchor="start" x="53" y="-56.9" font-family="Arial" font-size="14.00" fill="#000000">totalcostprice </text>
<text text-anchor="start" x="139.3492" y="-56.9" font-family="Arial" font-size="14.00" fill="#666666">[numeric]</text>
<polygon fill="none" stroke="#000000" stroke-width="3" points="44.5,-44.5 44.5,-622.5 421.5,-622.5 421.5,-44.5 44.5,-44.5"/>
</g>
</g>
</svg>
