<?xml version="1.0" encoding="UTF-8" standalone="no"?>
<!DOCTYPE svg PUBLIC "-//W3C//DTD SVG 1.1//EN"
 "http://www.w3.org/Graphics/SVG/1.1/DTD/svg11.dtd">
<!-- Generated by graphviz version 2.40.1 (20161225.0304)
 -->
<!-- Title: public.acc_conversionratiohistory Pages: 1 -->
<svg width="506pt" height="285pt"
 viewBox="0.00 0.00 506.00 285.00" xmlns="http://www.w3.org/2000/svg" xmlns:xlink="http://www.w3.org/1999/xlink">
<g id="graph0" class="graph" transform="scale(1 1) rotate(0) translate(4 281)">
<title>public.acc_conversionratiohistory</title>
<polygon fill="#ffffff" stroke="transparent" points="-4,4 -4,-281 502,-281 502,4 -4,4"/>
<!-- public.acc_conversionratiohistory -->
<g id="node1" class="node">
<title>public.acc_conversionratiohistory</title>
<polygon fill="#efefef" stroke="transparent" points="46,-195.5 46,-230.5 452,-230.5 452,-195.5 46,-195.5"/>
<polygon fill="none" stroke="#000000" points="46,-195.5 46,-230.5 452,-230.5 452,-195.5 46,-195.5"/>
<text text-anchor="start" x="52.6955" y="-208.3" font-family="Arial Bold" font-size="18.00" fill="#000000">public.acc_conversionratiohistory</text>
<text text-anchor="start" x="317.7365" y="-208.3" font-family="Arial" font-size="14.00" fill="#000000">    </text>
<text text-anchor="start" x="351.9413" y="-208.3" font-family="Arial" font-size="14.00" fill="#666666">[BASE TABLE]</text>
<polygon fill="none" stroke="#000000" points="46,-165.5 46,-195.5 452,-195.5 452,-165.5 46,-165.5"/>
<text text-anchor="start" x="53" y="-176.9" font-family="Arial" font-size="14.00" fill="#000000">conversion_id </text>
<text text-anchor="start" x="143.2426" y="-176.9" font-family="Arial" font-size="14.00" fill="#666666">[integer]</text>
<polygon fill="none" stroke="#000000" points="46,-135.5 46,-165.5 452,-165.5 452,-135.5 46,-135.5"/>
<text text-anchor="start" x="53" y="-146.9" font-family="Arial" font-size="14.00" fill="#000000">history_id </text>
<text text-anchor="start" x="116.7854" y="-146.9" font-family="Arial" font-size="14.00" fill="#666666">[integer]</text>
<polygon fill="none" stroke="#000000" points="46,-105.5 46,-135.5 452,-135.5 452,-105.5 46,-105.5"/>
<text text-anchor="start" x="53" y="-116.9" font-family="Arial" font-size="14.00" fill="#000000">exchange_rate </text>
<text text-anchor="start" x="149.4852" y="-116.9" font-family="Arial" font-size="14.00" fill="#666666">[numeric(8,2)]</text>
<polygon fill="none" stroke="#000000" points="46,-75.5 46,-105.5 452,-105.5 452,-75.5 46,-75.5"/>
<text text-anchor="start" x="53" y="-86.9" font-family="Arial" font-size="14.00" fill="#000000">edited_by </text>
<text text-anchor="start" x="117.5834" y="-86.9" font-family="Arial" font-size="14.00" fill="#666666">[integer]</text>
<polygon fill="none" stroke="#000000" points="46,-45.5 46,-75.5 452,-75.5 452,-45.5 46,-45.5"/>
<text text-anchor="start" x="53" y="-56.9" font-family="Arial" font-size="14.00" fill="#000000">edited_date </text>
<text text-anchor="start" x="130.0392" y="-56.9" font-family="Arial" font-size="14.00" fill="#666666">[date]</text>
<polygon fill="none" stroke="#000000" stroke-width="3" points="44.5,-44.5 44.5,-232.5 453.5,-232.5 453.5,-44.5 44.5,-44.5"/>
</g>
</g>
</svg>
