<?xml version="1.0" encoding="UTF-8" standalone="no"?>
<!DOCTYPE svg PUBLIC "-//W3C//DTD SVG 1.1//EN"
 "http://www.w3.org/Graphics/SVG/1.1/DTD/svg11.dtd">
<!-- Generated by graphviz version 2.40.1 (20161225.0304)
 -->
<!-- Title: public.comn_saptdsmaster Pages: 1 -->
<svg width="455pt" height="315pt"
 viewBox="0.00 0.00 455.00 315.00" xmlns="http://www.w3.org/2000/svg" xmlns:xlink="http://www.w3.org/1999/xlink">
<g id="graph0" class="graph" transform="scale(1 1) rotate(0) translate(4 311)">
<title>public.comn_saptdsmaster</title>
<polygon fill="#ffffff" stroke="transparent" points="-4,4 -4,-311 451,-311 451,4 -4,4"/>
<!-- public.comn_saptdsmaster -->
<g id="node1" class="node">
<title>public.comn_saptdsmaster</title>
<polygon fill="#efefef" stroke="transparent" points="46.5,-225.5 46.5,-260.5 401.5,-260.5 401.5,-225.5 46.5,-225.5"/>
<polygon fill="none" stroke="#000000" points="46.5,-225.5 46.5,-260.5 401.5,-260.5 401.5,-225.5 46.5,-225.5"/>
<text text-anchor="start" x="53.1961" y="-238.3" font-family="Arial Bold" font-size="18.00" fill="#000000">public.comn_saptdsmaster</text>
<text text-anchor="start" x="267.2359" y="-238.3" font-family="Arial" font-size="14.00" fill="#000000">    </text>
<text text-anchor="start" x="301.4407" y="-238.3" font-family="Arial" font-size="14.00" fill="#666666">[BASE TABLE]</text>
<polygon fill="none" stroke="#000000" points="46.5,-195.5 46.5,-225.5 401.5,-225.5 401.5,-195.5 46.5,-195.5"/>
<text text-anchor="start" x="53.5" y="-206.9" font-family="Arial" font-size="14.00" fill="#000000">accountcode </text>
<text text-anchor="start" x="136.7594" y="-206.9" font-family="Arial" font-size="14.00" fill="#666666">[varchar(250)]</text>
<polygon fill="none" stroke="#000000" points="46.5,-165.5 46.5,-195.5 401.5,-195.5 401.5,-165.5 46.5,-165.5"/>
<text text-anchor="start" x="53.5" y="-176.9" font-family="Arial" font-size="14.00" fill="#000000">accountname </text>
<text text-anchor="start" x="141.42" y="-176.9" font-family="Arial" font-size="14.00" fill="#666666">[varchar(250)]</text>
<polygon fill="none" stroke="#000000" points="46.5,-135.5 46.5,-165.5 401.5,-165.5 401.5,-135.5 46.5,-135.5"/>
<text text-anchor="start" x="53.5" y="-146.9" font-family="Arial" font-size="14.00" fill="#000000">wtcode </text>
<text text-anchor="start" x="101.7356" y="-146.9" font-family="Arial" font-size="14.00" fill="#666666">[varchar(250)]</text>
<polygon fill="none" stroke="#000000" points="46.5,-105.5 46.5,-135.5 401.5,-135.5 401.5,-105.5 46.5,-105.5"/>
<text text-anchor="start" x="53.5" y="-116.9" font-family="Arial" font-size="14.00" fill="#000000">wtname </text>
<text text-anchor="start" x="106.3962" y="-116.9" font-family="Arial" font-size="14.00" fill="#666666">[varchar(250)]</text>
<polygon fill="none" stroke="#000000" points="46.5,-75.5 46.5,-105.5 401.5,-105.5 401.5,-75.5 46.5,-75.5"/>
<text text-anchor="start" x="53.5" y="-86.9" font-family="Arial" font-size="14.00" fill="#000000">tdsrate </text>
<text text-anchor="start" x="100.1802" y="-86.9" font-family="Arial" font-size="14.00" fill="#666666">[numeric(255,0)]</text>
<polygon fill="none" stroke="#000000" points="46.5,-45.5 46.5,-75.5 401.5,-75.5 401.5,-45.5 46.5,-45.5"/>
<text text-anchor="start" x="53.5" y="-56.9" font-family="Arial" font-size="14.00" fill="#000000">branchid </text>
<text text-anchor="start" x="111.0708" y="-56.9" font-family="Arial" font-size="14.00" fill="#666666">[integer]</text>
<polygon fill="none" stroke="#000000" stroke-width="3" points="44.5,-44.5 44.5,-262.5 402.5,-262.5 402.5,-44.5 44.5,-44.5"/>
</g>
</g>
</svg>
