<?xml version="1.0" encoding="UTF-8" standalone="no"?>
<!DOCTYPE svg PUBLIC "-//W3C//DTD SVG 1.1//EN"
 "http://www.w3.org/Graphics/SVG/1.1/DTD/svg11.dtd">
<!-- Generated by graphviz version 2.40.1 (20161225.0304)
 -->
<!-- Title: public.tmp_table Pages: 1 -->
<svg width="372pt" height="315pt"
 viewBox="0.00 0.00 372.00 315.00" xmlns="http://www.w3.org/2000/svg" xmlns:xlink="http://www.w3.org/1999/xlink">
<g id="graph0" class="graph" transform="scale(1 1) rotate(0) translate(4 311)">
<title>public.tmp_table</title>
<polygon fill="#ffffff" stroke="transparent" points="-4,4 -4,-311 368,-311 368,4 -4,4"/>
<!-- public.tmp_table -->
<g id="node1" class="node">
<title>public.tmp_table</title>
<polygon fill="#efefef" stroke="transparent" points="46,-225.5 46,-260.5 318,-260.5 318,-225.5 46,-225.5"/>
<polygon fill="none" stroke="#000000" points="46,-225.5 46,-260.5 318,-260.5 318,-225.5 46,-225.5"/>
<text text-anchor="start" x="52.7005" y="-238.3" font-family="Arial Bold" font-size="18.00" fill="#000000">public.tmp_table</text>
<text text-anchor="start" x="183.7315" y="-238.3" font-family="Arial" font-size="14.00" fill="#000000">    </text>
<text text-anchor="start" x="217.9363" y="-238.3" font-family="Arial" font-size="14.00" fill="#666666">[BASE TABLE]</text>
<polygon fill="none" stroke="#000000" points="46,-195.5 46,-225.5 318,-225.5 318,-195.5 46,-195.5"/>
<text text-anchor="start" x="53" y="-206.9" font-family="Arial" font-size="14.00" fill="#000000">ItemName* </text>
<text text-anchor="start" x="126.892" y="-206.9" font-family="Arial" font-size="14.00" fill="#666666">[text]</text>
<polygon fill="none" stroke="#000000" points="46,-165.5 46,-195.5 318,-195.5 318,-165.5 46,-165.5"/>
<text text-anchor="start" x="53" y="-176.9" font-family="Arial" font-size="14.00" fill="#000000">ItemCode </text>
<text text-anchor="start" x="117.5694" y="-176.9" font-family="Arial" font-size="14.00" fill="#666666">[text]</text>
<polygon fill="none" stroke="#000000" points="46,-135.5 46,-165.5 318,-165.5 318,-135.5 46,-135.5"/>
<text text-anchor="start" x="53" y="-146.9" font-family="Arial" font-size="14.00" fill="#000000">Currency* </text>
<text text-anchor="start" x="119.1108" y="-146.9" font-family="Arial" font-size="14.00" fill="#666666">[text]</text>
<polygon fill="none" stroke="#000000" points="46,-105.5 46,-135.5 318,-135.5 318,-105.5 46,-105.5"/>
<text text-anchor="start" x="53" y="-116.9" font-family="Arial" font-size="14.00" fill="#000000">MRP* </text>
<text text-anchor="start" x="93.439" y="-116.9" font-family="Arial" font-size="14.00" fill="#666666">[text]</text>
<polygon fill="none" stroke="#000000" points="46,-75.5 46,-105.5 318,-105.5 318,-75.5 46,-75.5"/>
<text text-anchor="start" x="53" y="-86.9" font-family="Arial" font-size="14.00" fill="#000000">Abatement* </text>
<text text-anchor="start" x="130.0266" y="-86.9" font-family="Arial" font-size="14.00" fill="#666666">[text]</text>
<polygon fill="none" stroke="#000000" points="46,-45.5 46,-75.5 318,-75.5 318,-45.5 46,-45.5"/>
<text text-anchor="start" x="53" y="-56.9" font-family="Arial" font-size="14.00" fill="#000000">ApplicableDate </text>
<text text-anchor="start" x="151.0224" y="-56.9" font-family="Arial" font-size="14.00" fill="#666666">[text]</text>
<polygon fill="none" stroke="#000000" stroke-width="3" points="44.5,-44.5 44.5,-262.5 319.5,-262.5 319.5,-44.5 44.5,-44.5"/>
</g>
</g>
</svg>
