<?xml version="1.0" encoding="UTF-8" standalone="no"?>
<!DOCTYPE svg PUBLIC "-//W3C//DTD SVG 1.1//EN"
 "http://www.w3.org/Graphics/SVG/1.1/DTD/svg11.dtd">
<!-- Generated by graphviz version 2.40.1 (20161225.0304)
 -->
<!-- Title: public.vchitemdetail Pages: 1 -->
<svg width="398pt" height="405pt"
 viewBox="0.00 0.00 398.00 405.00" xmlns="http://www.w3.org/2000/svg" xmlns:xlink="http://www.w3.org/1999/xlink">
<g id="graph0" class="graph" transform="scale(1 1) rotate(0) translate(4 401)">
<title>public.vchitemdetail</title>
<polygon fill="#ffffff" stroke="transparent" points="-4,4 -4,-401 394,-401 394,4 -4,4"/>
<!-- public.vchitemdetail -->
<g id="node1" class="node">
<title>public.vchitemdetail</title>
<polygon fill="#efefef" stroke="transparent" points="46,-315.5 46,-350.5 344,-350.5 344,-315.5 46,-315.5"/>
<polygon fill="none" stroke="#000000" points="46,-315.5 46,-350.5 344,-350.5 344,-315.5 46,-315.5"/>
<text text-anchor="start" x="52.7063" y="-328.3" font-family="Arial Bold" font-size="18.00" fill="#000000">public.vchitemdetail</text>
<text text-anchor="start" x="209.7257" y="-328.3" font-family="Arial" font-size="14.00" fill="#000000">    </text>
<text text-anchor="start" x="243.9305" y="-328.3" font-family="Arial" font-size="14.00" fill="#666666">[BASE TABLE]</text>
<polygon fill="none" stroke="#000000" points="46,-285.5 46,-315.5 344,-315.5 344,-285.5 46,-285.5"/>
<text text-anchor="start" x="53" y="-296.9" font-family="Arial" font-size="14.00" fill="#000000">vchdetailid </text>
<text text-anchor="start" x="123.014" y="-296.9" font-family="Arial" font-size="14.00" fill="#666666">[integer]</text>
<polygon fill="none" stroke="#000000" points="46,-255.5 46,-285.5 344,-285.5 344,-255.5 46,-255.5"/>
<text text-anchor="start" x="53" y="-266.9" font-family="Arial" font-size="14.00" fill="#000000">voucherid </text>
<text text-anchor="start" x="117.5708" y="-266.9" font-family="Arial" font-size="14.00" fill="#666666">[integer]</text>
<polygon fill="none" stroke="#000000" points="46,-225.5 46,-255.5 344,-255.5 344,-225.5 46,-225.5"/>
<text text-anchor="start" x="53" y="-236.9" font-family="Arial" font-size="14.00" fill="#000000">itemid </text>
<text text-anchor="start" x="94.2202" y="-236.9" font-family="Arial" font-size="14.00" fill="#666666">[integer]</text>
<polygon fill="none" stroke="#000000" points="46,-195.5 46,-225.5 344,-225.5 344,-195.5 46,-195.5"/>
<text text-anchor="start" x="53" y="-206.9" font-family="Arial" font-size="14.00" fill="#000000">rate </text>
<text text-anchor="start" x="81.007" y="-206.9" font-family="Arial" font-size="14.00" fill="#666666">[double precision]</text>
<polygon fill="none" stroke="#000000" points="46,-165.5 46,-195.5 344,-195.5 344,-165.5 46,-165.5"/>
<text text-anchor="start" x="53" y="-176.9" font-family="Arial" font-size="14.00" fill="#000000">inquantity </text>
<text text-anchor="start" x="116.798" y="-176.9" font-family="Arial" font-size="14.00" fill="#666666">[numeric(10,0)]</text>
<polygon fill="none" stroke="#000000" points="46,-135.5 46,-165.5 344,-165.5 344,-135.5 46,-135.5"/>
<text text-anchor="start" x="53" y="-146.9" font-family="Arial" font-size="14.00" fill="#000000">value </text>
<text text-anchor="start" x="90.345" y="-146.9" font-family="Arial" font-size="14.00" fill="#666666">[double precision]</text>
<polygon fill="none" stroke="#000000" points="46,-105.5 46,-135.5 344,-135.5 344,-105.5 46,-105.5"/>
<text text-anchor="start" x="53" y="-116.9" font-family="Arial" font-size="14.00" fill="#000000">discount </text>
<text text-anchor="start" x="109.0182" y="-116.9" font-family="Arial" font-size="14.00" fill="#666666">[numeric(5,2)]</text>
<polygon fill="none" stroke="#000000" points="46,-75.5 46,-105.5 344,-105.5 344,-75.5 46,-75.5"/>
<text text-anchor="start" x="53" y="-86.9" font-family="Arial" font-size="14.00" fill="#000000">outquantity </text>
<text text-anchor="start" x="125.3646" y="-86.9" font-family="Arial" font-size="14.00" fill="#666666">[numeric(10,0)]</text>
<polygon fill="none" stroke="#000000" points="46,-45.5 46,-75.5 344,-75.5 344,-45.5 46,-45.5"/>
<text text-anchor="start" x="53" y="-56.9" font-family="Arial" font-size="14.00" fill="#000000">unit </text>
<text text-anchor="start" x="79.453" y="-56.9" font-family="Arial" font-size="14.00" fill="#666666">[varchar(25)]</text>
<polygon fill="none" stroke="#000000" stroke-width="3" points="44.5,-44.5 44.5,-352.5 345.5,-352.5 345.5,-44.5 44.5,-44.5"/>
</g>
</g>
</svg>
