<?xml version="1.0" encoding="UTF-8" standalone="no"?>
<!DOCTYPE svg PUBLIC "-//W3C//DTD SVG 1.1//EN"
 "http://www.w3.org/Graphics/SVG/1.1/DTD/svg11.dtd">
<!-- Generated by graphviz version 2.40.1 (20161225.0304)
 -->
<!-- Title: public.tmp_inspection_parameter Pages: 1 -->
<svg width="506pt" height="255pt"
 viewBox="0.00 0.00 506.00 255.00" xmlns="http://www.w3.org/2000/svg" xmlns:xlink="http://www.w3.org/1999/xlink">
<g id="graph0" class="graph" transform="scale(1 1) rotate(0) translate(4 251)">
<title>public.tmp_inspection_parameter</title>
<polygon fill="#ffffff" stroke="transparent" points="-4,4 -4,-251 502,-251 502,4 -4,4"/>
<!-- public.tmp_inspection_parameter -->
<g id="node1" class="node">
<title>public.tmp_inspection_parameter</title>
<polygon fill="#efefef" stroke="transparent" points="46,-165.5 46,-200.5 452,-200.5 452,-165.5 46,-165.5"/>
<polygon fill="none" stroke="#000000" points="46,-165.5 46,-200.5 452,-200.5 452,-165.5 46,-165.5"/>
<text text-anchor="start" x="52.6892" y="-178.3" font-family="Arial Bold" font-size="18.00" fill="#000000">public.tmp_inspection_parameter</text>
<text text-anchor="start" x="317.7428" y="-178.3" font-family="Arial" font-size="14.00" fill="#000000">    </text>
<text text-anchor="start" x="351.9476" y="-178.3" font-family="Arial" font-size="14.00" fill="#666666">[BASE TABLE]</text>
<polygon fill="none" stroke="#000000" points="46,-135.5 46,-165.5 452,-165.5 452,-135.5 46,-135.5"/>
<text text-anchor="start" x="53" y="-146.9" font-family="Arial" font-size="14.00" fill="#000000">inspectionitemid </text>
<text text-anchor="start" x="157.237" y="-146.9" font-family="Arial" font-size="14.00" fill="#666666">[integer]</text>
<polygon fill="none" stroke="#000000" points="46,-105.5 46,-135.5 452,-135.5 452,-105.5 46,-105.5"/>
<text text-anchor="start" x="53" y="-116.9" font-family="Arial" font-size="14.00" fill="#000000">Parameter Name </text>
<text text-anchor="start" x="163.453" y="-116.9" font-family="Arial" font-size="14.00" fill="#666666">[text]</text>
<polygon fill="none" stroke="#000000" points="46,-75.5 46,-105.5 452,-105.5 452,-75.5 46,-75.5"/>
<text text-anchor="start" x="53" y="-86.9" font-family="Arial" font-size="14.00" fill="#000000">Value </text>
<text text-anchor="start" x="92.6816" y="-86.9" font-family="Arial" font-size="14.00" fill="#666666">[numeric(10,4)]</text>
<polygon fill="none" stroke="#000000" points="46,-45.5 46,-75.5 452,-75.5 452,-45.5 46,-45.5"/>
<text text-anchor="start" x="53" y="-56.9" font-family="Arial" font-size="14.00" fill="#000000">Quality Test Grade </text>
<text text-anchor="start" x="174.3562" y="-56.9" font-family="Arial" font-size="14.00" fill="#666666">[varchar]</text>
<polygon fill="none" stroke="#000000" stroke-width="3" points="44.5,-44.5 44.5,-202.5 453.5,-202.5 453.5,-44.5 44.5,-44.5"/>
</g>
</g>
</svg>
