<?xml version="1.0" encoding="UTF-8" standalone="no"?>
<!DOCTYPE svg PUBLIC "-//W3C//DTD SVG 1.1//EN"
 "http://www.w3.org/Graphics/SVG/1.1/DTD/svg11.dtd">
<!-- Generated by graphviz version 2.40.1 (20161225.0304)
 -->
<!-- Title: scheme.scheme_budget_detail Pages: 1 -->
<svg width="490pt" height="285pt"
 viewBox="0.00 0.00 490.00 285.00" xmlns="http://www.w3.org/2000/svg" xmlns:xlink="http://www.w3.org/1999/xlink">
<g id="graph0" class="graph" transform="scale(1 1) rotate(0) translate(4 281)">
<title>scheme.scheme_budget_detail</title>
<polygon fill="#ffffff" stroke="transparent" points="-4,4 -4,-281 486,-281 486,4 -4,4"/>
<!-- scheme.scheme_budget_detail -->
<g id="node1" class="node">
<title>scheme.scheme_budget_detail</title>
<polygon fill="#efefef" stroke="transparent" points="46,-195.5 46,-230.5 436,-230.5 436,-195.5 46,-195.5"/>
<polygon fill="none" stroke="#000000" points="46,-195.5 46,-230.5 436,-230.5 436,-195.5 46,-195.5"/>
<text text-anchor="start" x="52.6767" y="-208.3" font-family="Arial Bold" font-size="18.00" fill="#000000">scheme.scheme_budget_detail</text>
<text text-anchor="start" x="301.7553" y="-208.3" font-family="Arial" font-size="14.00" fill="#000000">    </text>
<text text-anchor="start" x="335.9601" y="-208.3" font-family="Arial" font-size="14.00" fill="#666666">[BASE TABLE]</text>
<polygon fill="none" stroke="#000000" points="46,-165.5 46,-195.5 436,-195.5 436,-165.5 46,-165.5"/>
<text text-anchor="start" x="53" y="-176.9" font-family="Arial" font-size="14.00" fill="#000000">budget_detailid </text>
<text text-anchor="start" x="151.8176" y="-176.9" font-family="Arial" font-size="14.00" fill="#666666">[integer]</text>
<polygon fill="none" stroke="#000000" points="46,-135.5 46,-165.5 436,-165.5 436,-135.5 46,-135.5"/>
<text text-anchor="start" x="53" y="-146.9" font-family="Arial" font-size="14.00" fill="#000000">scheme_id </text>
<text text-anchor="start" x="124.5708" y="-146.9" font-family="Arial" font-size="14.00" fill="#666666">[integer]</text>
<polygon fill="none" stroke="#000000" points="46,-105.5 46,-135.5 436,-135.5 436,-105.5 46,-105.5"/>
<text text-anchor="start" x="53" y="-116.9" font-family="Arial" font-size="14.00" fill="#000000">budget_period </text>
<text text-anchor="start" x="146.3744" y="-116.9" font-family="Arial" font-size="14.00" fill="#666666">[date]</text>
<polygon fill="none" stroke="#000000" points="46,-75.5 46,-105.5 436,-105.5 436,-75.5 46,-75.5"/>
<text text-anchor="start" x="53" y="-86.9" font-family="Arial" font-size="14.00" fill="#000000">budget_amount </text>
<text text-anchor="start" x="154.1584" y="-86.9" font-family="Arial" font-size="14.00" fill="#666666">[numeric(16,2)]</text>
<polygon fill="none" stroke="#000000" points="46,-45.5 46,-75.5 436,-75.5 436,-45.5 46,-45.5"/>
<text text-anchor="start" x="53" y="-56.9" font-family="Arial" font-size="14.00" fill="#000000">cfa_name </text>
<text text-anchor="start" x="118.3548" y="-56.9" font-family="Arial" font-size="14.00" fill="#666666">[text]</text>
<polygon fill="none" stroke="#000000" stroke-width="3" points="44.5,-44.5 44.5,-232.5 437.5,-232.5 437.5,-44.5 44.5,-44.5"/>
</g>
</g>
</svg>
