<?xml version="1.0" encoding="UTF-8" standalone="no"?>
<!DOCTYPE svg PUBLIC "-//W3C//DTD SVG 1.1//EN"
 "http://www.w3.org/Graphics/SVG/1.1/DTD/svg11.dtd">
<!-- Generated by graphviz version 2.40.1 (20161225.0304)
 -->
<!-- Title: scheme.scheme_final_result Pages: 1 -->
<svg width="469pt" height="405pt"
 viewBox="0.00 0.00 469.00 405.00" xmlns="http://www.w3.org/2000/svg" xmlns:xlink="http://www.w3.org/1999/xlink">
<g id="graph0" class="graph" transform="scale(1 1) rotate(0) translate(4 401)">
<title>scheme.scheme_final_result</title>
<polygon fill="#ffffff" stroke="transparent" points="-4,4 -4,-401 465,-401 465,4 -4,4"/>
<!-- scheme.scheme_final_result -->
<g id="node1" class="node">
<title>scheme.scheme_final_result</title>
<polygon fill="#efefef" stroke="transparent" points="46.5,-315.5 46.5,-350.5 415.5,-350.5 415.5,-315.5 46.5,-315.5"/>
<polygon fill="none" stroke="#000000" points="46.5,-315.5 46.5,-350.5 415.5,-350.5 415.5,-315.5 46.5,-315.5"/>
<text text-anchor="start" x="53.1959" y="-328.3" font-family="Arial Bold" font-size="18.00" fill="#000000">scheme.scheme_final_result</text>
<text text-anchor="start" x="281.2361" y="-328.3" font-family="Arial" font-size="14.00" fill="#000000">    </text>
<text text-anchor="start" x="315.4409" y="-328.3" font-family="Arial" font-size="14.00" fill="#666666">[BASE TABLE]</text>
<polygon fill="none" stroke="#000000" points="46.5,-285.5 46.5,-315.5 415.5,-315.5 415.5,-285.5 46.5,-285.5"/>
<text text-anchor="start" x="53.5" y="-296.9" font-family="Arial" font-size="14.00" fill="#000000">scheme_id </text>
<text text-anchor="start" x="125.0708" y="-296.9" font-family="Arial" font-size="14.00" fill="#666666">[integer]</text>
<polygon fill="none" stroke="#000000" points="46.5,-255.5 46.5,-285.5 415.5,-285.5 415.5,-255.5 46.5,-255.5"/>
<text text-anchor="start" x="53.5" y="-266.9" font-family="Arial" font-size="14.00" fill="#000000">cfaname </text>
<text text-anchor="start" x="111.0722" y="-266.9" font-family="Arial" font-size="14.00" fill="#666666">[varchar(50)]</text>
<polygon fill="none" stroke="#000000" points="46.5,-225.5 46.5,-255.5 415.5,-255.5 415.5,-225.5 46.5,-225.5"/>
<text text-anchor="start" x="53.5" y="-236.9" font-family="Arial" font-size="14.00" fill="#000000">partycode </text>
<text text-anchor="start" x="118.8548" y="-236.9" font-family="Arial" font-size="14.00" fill="#666666">[varchar(50)]</text>
<polygon fill="none" stroke="#000000" points="46.5,-195.5 46.5,-225.5 415.5,-225.5 415.5,-195.5 46.5,-195.5"/>
<text text-anchor="start" x="53.5" y="-206.9" font-family="Arial" font-size="14.00" fill="#000000">partyname </text>
<text text-anchor="start" x="123.5154" y="-206.9" font-family="Arial" font-size="14.00" fill="#666666">[varchar(200)]</text>
<polygon fill="none" stroke="#000000" points="46.5,-165.5 46.5,-195.5 415.5,-195.5 415.5,-165.5 46.5,-165.5"/>
<text text-anchor="start" x="53.5" y="-176.9" font-family="Arial" font-size="14.00" fill="#000000">points </text>
<text text-anchor="start" x="94.7356" y="-176.9" font-family="Arial" font-size="14.00" fill="#666666">[integer]</text>
<polygon fill="none" stroke="#000000" points="46.5,-135.5 46.5,-165.5 415.5,-165.5 415.5,-135.5 46.5,-135.5"/>
<text text-anchor="start" x="53.5" y="-146.9" font-family="Arial" font-size="14.00" fill="#000000">result_value </text>
<text text-anchor="start" x="132.8506" y="-146.9" font-family="Arial" font-size="14.00" fill="#666666">[numeric(12,2)]</text>
<polygon fill="none" stroke="#000000" points="46.5,-105.5 46.5,-135.5 415.5,-135.5 415.5,-105.5 46.5,-105.5"/>
<text text-anchor="start" x="53.5" y="-116.9" font-family="Arial" font-size="14.00" fill="#000000">gift </text>
<text text-anchor="start" x="76.061" y="-116.9" font-family="Arial" font-size="14.00" fill="#666666">[text]</text>
<polygon fill="none" stroke="#000000" points="46.5,-75.5 46.5,-105.5 415.5,-105.5 415.5,-75.5 46.5,-75.5"/>
<text text-anchor="start" x="53.5" y="-86.9" font-family="Arial" font-size="14.00" fill="#000000">is_point_processed </text>
<text text-anchor="start" x="177.981" y="-86.9" font-family="Arial" font-size="14.00" fill="#666666">[boolean]</text>
<polygon fill="none" stroke="#000000" points="46.5,-45.5 46.5,-75.5 415.5,-75.5 415.5,-45.5 46.5,-45.5"/>
<text text-anchor="start" x="53.5" y="-56.9" font-family="Arial" font-size="14.00" fill="#000000">additional_value </text>
<text text-anchor="start" x="158.5336" y="-56.9" font-family="Arial" font-size="14.00" fill="#666666">[numeric(12,2)]</text>
<polygon fill="none" stroke="#000000" stroke-width="3" points="44.5,-44.5 44.5,-352.5 416.5,-352.5 416.5,-44.5 44.5,-44.5"/>
</g>
</g>
</svg>
