<?xml version="1.0" encoding="UTF-8" standalone="no"?>
<!DOCTYPE svg PUBLIC "-//W3C//DTD SVG 1.1//EN"
 "http://www.w3.org/Graphics/SVG/1.1/DTD/svg11.dtd">
<!-- Generated by graphviz version 2.40.1 (20161225.0304)
 -->
<!-- Title: tally.tally_gstpaymentreport Pages: 1 -->
<svg width="460pt" height="855pt"
 viewBox="0.00 0.00 460.00 855.00" xmlns="http://www.w3.org/2000/svg" xmlns:xlink="http://www.w3.org/1999/xlink">
<g id="graph0" class="graph" transform="scale(1 1) rotate(0) translate(4 851)">
<title>tally.tally_gstpaymentreport</title>
<polygon fill="#ffffff" stroke="transparent" points="-4,4 -4,-851 456,-851 456,4 -4,4"/>
<!-- tally.tally_gstpaymentreport -->
<g id="node1" class="node">
<title>tally.tally_gstpaymentreport</title>
<polygon fill="#efefef" stroke="transparent" points="46,-765.5 46,-800.5 406,-800.5 406,-765.5 46,-765.5"/>
<polygon fill="none" stroke="#000000" points="46,-765.5 46,-800.5 406,-800.5 406,-765.5 46,-765.5"/>
<text text-anchor="start" x="52.6986" y="-778.3" font-family="Arial Bold" font-size="18.00" fill="#000000">tally.tally_gstpaymentreport</text>
<text text-anchor="start" x="271.7334" y="-778.3" font-family="Arial" font-size="14.00" fill="#000000">    </text>
<text text-anchor="start" x="305.9382" y="-778.3" font-family="Arial" font-size="14.00" fill="#666666">[BASE TABLE]</text>
<polygon fill="none" stroke="#000000" points="46,-735.5 46,-765.5 406,-765.5 406,-735.5 46,-735.5"/>
<text text-anchor="start" x="53" y="-746.9" font-family="Arial" font-size="14.00" fill="#000000">gstpaymentid </text>
<text text-anchor="start" x="140.1346" y="-746.9" font-family="Arial" font-size="14.00" fill="#666666">[integer]</text>
<polygon fill="none" stroke="#000000" points="46,-705.5 46,-735.5 406,-735.5 406,-705.5 46,-705.5"/>
<text text-anchor="start" x="53" y="-716.9" font-family="Arial" font-size="14.00" fill="#000000">gstdate </text>
<text text-anchor="start" x="102.8022" y="-716.9" font-family="Arial" font-size="14.00" fill="#666666">[date]</text>
<polygon fill="none" stroke="#000000" points="46,-675.5 46,-705.5 406,-705.5 406,-675.5 46,-675.5"/>
<text text-anchor="start" x="53" y="-686.9" font-family="Arial" font-size="14.00" fill="#000000">namefield </text>
<text text-anchor="start" x="117.568" y="-686.9" font-family="Arial" font-size="14.00" fill="#666666">[varchar(100)]</text>
<polygon fill="none" stroke="#000000" points="46,-645.5 46,-675.5 406,-675.5 406,-645.5 46,-645.5"/>
<text text-anchor="start" x="53" y="-656.9" font-family="Arial" font-size="14.00" fill="#000000">gstpaymenttype </text>
<text text-anchor="start" x="155.7012" y="-656.9" font-family="Arial" font-size="14.00" fill="#666666">[varchar(100)]</text>
<polygon fill="none" stroke="#000000" points="46,-615.5 46,-645.5 406,-645.5 406,-615.5 46,-615.5"/>
<text text-anchor="start" x="53" y="-626.9" font-family="Arial" font-size="14.00" fill="#000000">gstpaymentnumber </text>
<text text-anchor="start" x="176.697" y="-626.9" font-family="Arial" font-size="14.00" fill="#666666">[varchar(100)]</text>
<polygon fill="none" stroke="#000000" points="46,-585.5 46,-615.5 406,-615.5 406,-585.5 46,-585.5"/>
<text text-anchor="start" x="53" y="-596.9" font-family="Arial" font-size="14.00" fill="#000000">gstpartytype </text>
<text text-anchor="start" x="133.136" y="-596.9" font-family="Arial" font-size="14.00" fill="#666666">[varchar(100)]</text>
<polygon fill="none" stroke="#000000" points="46,-555.5 46,-585.5 406,-585.5 406,-555.5 46,-555.5"/>
<text text-anchor="start" x="53" y="-566.9" font-family="Arial" font-size="14.00" fill="#000000">gstperiodfrom </text>
<text text-anchor="start" x="142.4558" y="-566.9" font-family="Arial" font-size="14.00" fill="#666666">[date]</text>
<polygon fill="none" stroke="#000000" points="46,-525.5 46,-555.5 406,-555.5 406,-525.5 46,-525.5"/>
<text text-anchor="start" x="53" y="-536.9" font-family="Arial" font-size="14.00" fill="#000000">gstperiodto </text>
<text text-anchor="start" x="126.1346" y="-536.9" font-family="Arial" font-size="14.00" fill="#666666">[date]</text>
<polygon fill="none" stroke="#000000" points="46,-495.5 46,-525.5 406,-525.5 406,-495.5 46,-495.5"/>
<text text-anchor="start" x="53" y="-506.9" font-family="Arial" font-size="14.00" fill="#000000">gstpaymentmasterid </text>
<text text-anchor="start" x="182.9116" y="-506.9" font-family="Arial" font-size="14.00" fill="#666666">[integer]</text>
<polygon fill="none" stroke="#000000" points="46,-465.5 46,-495.5 406,-495.5 406,-465.5 46,-465.5"/>
<text text-anchor="start" x="53" y="-476.9" font-family="Arial" font-size="14.00" fill="#000000">gstpaymentamount </text>
<text text-anchor="start" x="175.927" y="-476.9" font-family="Arial" font-size="14.00" fill="#666666">[numeric(15,5)]</text>
<polygon fill="none" stroke="#000000" points="46,-435.5 46,-465.5 406,-465.5 406,-435.5 46,-435.5"/>
<text text-anchor="start" x="53" y="-446.9" font-family="Arial" font-size="14.00" fill="#000000">gstpaymentigstamount </text>
<text text-anchor="start" x="197.7068" y="-446.9" font-family="Arial" font-size="14.00" fill="#666666">[numeric(15,5)]</text>
<polygon fill="none" stroke="#000000" points="46,-405.5 46,-435.5 406,-435.5 406,-405.5 46,-405.5"/>
<text text-anchor="start" x="53" y="-416.9" font-family="Arial" font-size="14.00" fill="#000000">gstpaymentsgstamount </text>
<text text-anchor="start" x="201.6002" y="-416.9" font-family="Arial" font-size="14.00" fill="#666666">[numeric(15,5)]</text>
<polygon fill="none" stroke="#000000" points="46,-375.5 46,-405.5 406,-405.5 406,-375.5 46,-375.5"/>
<text text-anchor="start" x="53" y="-386.9" font-family="Arial" font-size="14.00" fill="#000000">gstpaymentcgstamount </text>
<text text-anchor="start" x="201.6002" y="-386.9" font-family="Arial" font-size="14.00" fill="#666666">[numeric(15,5)]</text>
<polygon fill="none" stroke="#000000" points="46,-345.5 46,-375.5 406,-375.5 406,-345.5 46,-345.5"/>
<text text-anchor="start" x="53" y="-356.9" font-family="Arial" font-size="14.00" fill="#000000">gstpaymentbankmodedeposit </text>
<text text-anchor="start" x="239.7292" y="-356.9" font-family="Arial" font-size="14.00" fill="#666666">[varchar(100)]</text>
<polygon fill="none" stroke="#000000" points="46,-315.5 46,-345.5 406,-345.5 406,-315.5 46,-315.5"/>
<text text-anchor="start" x="53" y="-326.9" font-family="Arial" font-size="14.00" fill="#000000">gstpaymentbankname </text>
<text text-anchor="start" x="194.6016" y="-326.9" font-family="Arial" font-size="14.00" fill="#666666">[varchar(100)]</text>
<polygon fill="none" stroke="#000000" points="46,-285.5 46,-315.5 406,-315.5 406,-285.5 46,-285.5"/>
<text text-anchor="start" x="53" y="-296.9" font-family="Arial" font-size="14.00" fill="#000000">gstbankpinno </text>
<text text-anchor="start" x="140.1486" y="-296.9" font-family="Arial" font-size="14.00" fill="#666666">[varchar(100)]</text>
<polygon fill="none" stroke="#000000" points="46,-255.5 46,-285.5 406,-285.5 406,-255.5 46,-255.5"/>
<text text-anchor="start" x="53" y="-266.9" font-family="Arial" font-size="14.00" fill="#000000">gstbankcinno </text>
<text text-anchor="start" x="139.366" y="-266.9" font-family="Arial" font-size="14.00" fill="#666666">[varchar(100)]</text>
<polygon fill="none" stroke="#000000" points="46,-225.5 46,-255.5 406,-255.5 406,-225.5 46,-225.5"/>
<text text-anchor="start" x="53" y="-236.9" font-family="Arial" font-size="14.00" fill="#000000">gstbankdocno </text>
<text text-anchor="start" x="144.042" y="-236.9" font-family="Arial" font-size="14.00" fill="#666666">[varchar(100)]</text>
<polygon fill="none" stroke="#000000" points="46,-195.5 46,-225.5 406,-225.5 406,-195.5 46,-195.5"/>
<text text-anchor="start" x="53" y="-206.9" font-family="Arial" font-size="14.00" fill="#000000">gstbankinstrumentno </text>
<text text-anchor="start" x="186.8162" y="-206.9" font-family="Arial" font-size="14.00" fill="#666666">[varchar(100)]</text>
<polygon fill="none" stroke="#000000" points="46,-165.5 46,-195.5 406,-195.5 406,-165.5 46,-165.5"/>
<text text-anchor="start" x="53" y="-176.9" font-family="Arial" font-size="14.00" fill="#000000">gstbankchallandate </text>
<text text-anchor="start" x="177.4936" y="-176.9" font-family="Arial" font-size="14.00" fill="#666666">[date]</text>
<polygon fill="none" stroke="#000000" points="46,-135.5 46,-165.5 406,-165.5 406,-135.5 46,-135.5"/>
<text text-anchor="start" x="53" y="-146.9" font-family="Arial" font-size="14.00" fill="#000000">gstbankpaymentdate </text>
<text text-anchor="start" x="186.8316" y="-146.9" font-family="Arial" font-size="14.00" fill="#666666">[date]</text>
<polygon fill="none" stroke="#000000" points="46,-105.5 46,-135.5 406,-135.5 406,-105.5 46,-105.5"/>
<text text-anchor="start" x="53" y="-116.9" font-family="Arial" font-size="14.00" fill="#000000">branchid </text>
<text text-anchor="start" x="110.5708" y="-116.9" font-family="Arial" font-size="14.00" fill="#666666">[integer]</text>
<polygon fill="none" stroke="#000000" points="46,-75.5 46,-105.5 406,-105.5 406,-75.5 46,-75.5"/>
<text text-anchor="start" x="53" y="-86.9" font-family="Arial" font-size="14.00" fill="#000000">tallybookname </text>
<text text-anchor="start" x="147.1332" y="-86.9" font-family="Arial" font-size="14.00" fill="#666666">[varchar(300)]</text>
<polygon fill="none" stroke="#000000" points="46,-45.5 46,-75.5 406,-75.5 406,-45.5 46,-45.5"/>
<text text-anchor="start" x="53" y="-56.9" font-family="Arial" font-size="14.00" fill="#000000">createdon </text>
<text text-anchor="start" x="119.1374" y="-56.9" font-family="Arial" font-size="14.00" fill="#666666">[timestamp(6) without time zone]</text>
<polygon fill="none" stroke="#000000" stroke-width="3" points="44.5,-44.5 44.5,-802.5 407.5,-802.5 407.5,-44.5 44.5,-44.5"/>
</g>
</g>
</svg>
