<?xml version="1.0" encoding="UTF-8" standalone="no"?>
<!DOCTYPE svg PUBLIC "-//W3C//DTD SVG 1.1//EN"
 "http://www.w3.org/Graphics/SVG/1.1/DTD/svg11.dtd">
<!-- Generated by graphviz version 2.40.1 (20161225.0304)
 -->
<!-- Title: tally.tally_vouchersynclog Pages: 1 -->
<svg width="445pt" height="285pt"
 viewBox="0.00 0.00 445.00 285.00" xmlns="http://www.w3.org/2000/svg" xmlns:xlink="http://www.w3.org/1999/xlink">
<g id="graph0" class="graph" transform="scale(1 1) rotate(0) translate(4 281)">
<title>tally.tally_vouchersynclog</title>
<polygon fill="#ffffff" stroke="transparent" points="-4,4 -4,-281 441,-281 441,4 -4,4"/>
<!-- tally.tally_vouchersynclog -->
<g id="node1" class="node">
<title>tally.tally_vouchersynclog</title>
<polygon fill="#efefef" stroke="transparent" points="46.5,-195.5 46.5,-230.5 391.5,-230.5 391.5,-195.5 46.5,-195.5"/>
<polygon fill="none" stroke="#000000" points="46.5,-195.5 46.5,-230.5 391.5,-230.5 391.5,-195.5 46.5,-195.5"/>
<text text-anchor="start" x="53.2001" y="-208.3" font-family="Arial Bold" font-size="18.00" fill="#000000">tally.tally_vouchersynclog</text>
<text text-anchor="start" x="257.2319" y="-208.3" font-family="Arial" font-size="14.00" fill="#000000">    </text>
<text text-anchor="start" x="291.4367" y="-208.3" font-family="Arial" font-size="14.00" fill="#666666">[BASE TABLE]</text>
<polygon fill="none" stroke="#000000" points="46.5,-165.5 46.5,-195.5 391.5,-195.5 391.5,-165.5 46.5,-165.5"/>
<text text-anchor="start" x="53.5" y="-176.9" font-family="Arial" font-size="14.00" fill="#000000">syncid </text>
<text text-anchor="start" x="97.0624" y="-176.9" font-family="Arial" font-size="14.00" fill="#666666">[integer]</text>
<polygon fill="none" stroke="#000000" points="46.5,-135.5 46.5,-165.5 391.5,-165.5 391.5,-135.5 46.5,-135.5"/>
<text text-anchor="start" x="53.5" y="-146.9" font-family="Arial" font-size="14.00" fill="#000000">branchid </text>
<text text-anchor="start" x="111.0708" y="-146.9" font-family="Arial" font-size="14.00" fill="#666666">[integer]</text>
<polygon fill="none" stroke="#000000" points="46.5,-105.5 46.5,-135.5 391.5,-135.5 391.5,-105.5 46.5,-105.5"/>
<text text-anchor="start" x="53.5" y="-116.9" font-family="Arial" font-size="14.00" fill="#000000">maxmasterid </text>
<text text-anchor="start" x="137.5" y="-116.9" font-family="Arial" font-size="14.00" fill="#666666">[integer]</text>
<polygon fill="none" stroke="#000000" points="46.5,-75.5 46.5,-105.5 391.5,-105.5 391.5,-75.5 46.5,-75.5"/>
<text text-anchor="start" x="53.5" y="-86.9" font-family="Arial" font-size="14.00" fill="#000000">maxalterationid </text>
<text text-anchor="start" x="152.291" y="-86.9" font-family="Arial" font-size="14.00" fill="#666666">[integer]</text>
<polygon fill="none" stroke="#000000" points="46.5,-45.5 46.5,-75.5 391.5,-75.5 391.5,-45.5 46.5,-45.5"/>
<text text-anchor="start" x="53.5" y="-56.9" font-family="Arial" font-size="14.00" fill="#000000">tallybookname </text>
<text text-anchor="start" x="147.6332" y="-56.9" font-family="Arial" font-size="14.00" fill="#666666">[varchar(200)]</text>
<polygon fill="none" stroke="#000000" stroke-width="3" points="44.5,-44.5 44.5,-232.5 392.5,-232.5 392.5,-44.5 44.5,-44.5"/>
</g>
</g>
</svg>
