<?xml version="1.0" encoding="UTF-8" standalone="no"?>
<!DOCTYPE svg PUBLIC "-//W3C//DTD SVG 1.1//EN"
 "http://www.w3.org/Graphics/SVG/1.1/DTD/svg11.dtd">
<!-- Generated by graphviz version 2.40.1 (20161225.0304)
 -->
<!-- Title: temp.temp_suppliermaster Pages: 1 -->
<svg width="454pt" height="1755pt"
 viewBox="0.00 0.00 454.00 1755.00" xmlns="http://www.w3.org/2000/svg" xmlns:xlink="http://www.w3.org/1999/xlink">
<g id="graph0" class="graph" transform="scale(1 1) rotate(0) translate(4 1751)">
<title>temp.temp_suppliermaster</title>
<polygon fill="#ffffff" stroke="transparent" points="-4,4 -4,-1751 450,-1751 450,4 -4,4"/>
<!-- temp.temp_suppliermaster -->
<g id="node1" class="node">
<title>temp.temp_suppliermaster</title>
<polygon fill="#efefef" stroke="transparent" points="46,-1665.5 46,-1700.5 400,-1700.5 400,-1665.5 46,-1665.5"/>
<polygon fill="none" stroke="#000000" points="46,-1665.5 46,-1700.5 400,-1700.5 400,-1665.5 46,-1665.5"/>
<text text-anchor="start" x="52.7028" y="-1678.3" font-family="Arial Bold" font-size="18.00" fill="#000000">temp.temp_suppliermaster</text>
<text text-anchor="start" x="265.7292" y="-1678.3" font-family="Arial" font-size="14.00" fill="#000000">    </text>
<text text-anchor="start" x="299.934" y="-1678.3" font-family="Arial" font-size="14.00" fill="#666666">[BASE TABLE]</text>
<polygon fill="none" stroke="#000000" points="46,-1635.5 46,-1665.5 400,-1665.5 400,-1635.5 46,-1635.5"/>
<text text-anchor="start" x="53" y="-1646.9" font-family="Arial" font-size="14.00" fill="#000000">partyname </text>
<text text-anchor="start" x="123.0154" y="-1646.9" font-family="Arial" font-size="14.00" fill="#666666">[text]</text>
<polygon fill="none" stroke="#000000" points="46,-1605.5 46,-1635.5 400,-1635.5 400,-1605.5 46,-1605.5"/>
<text text-anchor="start" x="53" y="-1616.9" font-family="Arial" font-size="14.00" fill="#000000">address </text>
<text text-anchor="start" x="106.6816" y="-1616.9" font-family="Arial" font-size="14.00" fill="#666666">[text]</text>
<polygon fill="none" stroke="#000000" points="46,-1575.5 46,-1605.5 400,-1605.5 400,-1575.5 46,-1575.5"/>
<text text-anchor="start" x="53" y="-1586.9" font-family="Arial" font-size="14.00" fill="#000000">partycode </text>
<text text-anchor="start" x="118.3548" y="-1586.9" font-family="Arial" font-size="14.00" fill="#666666">[text]</text>
<polygon fill="none" stroke="#000000" points="46,-1545.5 46,-1575.5 400,-1575.5 400,-1545.5 46,-1545.5"/>
<text text-anchor="start" x="53" y="-1556.9" font-family="Arial" font-size="14.00" fill="#000000">partytype </text>
<text text-anchor="start" x="114.4628" y="-1556.9" font-family="Arial" font-size="14.00" fill="#666666">[text]</text>
<polygon fill="none" stroke="#000000" points="46,-1515.5 46,-1545.5 400,-1545.5 400,-1515.5 46,-1515.5"/>
<text text-anchor="start" x="53" y="-1526.9" font-family="Arial" font-size="14.00" fill="#000000">ismanufacturer </text>
<text text-anchor="start" x="149.4558" y="-1526.9" font-family="Arial" font-size="14.00" fill="#666666">[boolean]</text>
<polygon fill="none" stroke="#000000" points="46,-1485.5 46,-1515.5 400,-1515.5 400,-1485.5 46,-1485.5"/>
<text text-anchor="start" x="53" y="-1496.9" font-family="Arial" font-size="14.00" fill="#000000">country </text>
<text text-anchor="start" x="102.7896" y="-1496.9" font-family="Arial" font-size="14.00" fill="#666666">[text]</text>
<polygon fill="none" stroke="#000000" points="46,-1455.5 46,-1485.5 400,-1485.5 400,-1455.5 46,-1455.5"/>
<text text-anchor="start" x="53" y="-1466.9" font-family="Arial" font-size="14.00" fill="#000000">state </text>
<text text-anchor="start" x="87.237" y="-1466.9" font-family="Arial" font-size="14.00" fill="#666666">[text]</text>
<polygon fill="none" stroke="#000000" points="46,-1425.5 46,-1455.5 400,-1455.5 400,-1425.5 46,-1425.5"/>
<text text-anchor="start" x="53" y="-1436.9" font-family="Arial" font-size="14.00" fill="#000000">city </text>
<text text-anchor="start" x="77.8878" y="-1436.9" font-family="Arial" font-size="14.00" fill="#666666">[text]</text>
<polygon fill="none" stroke="#000000" points="46,-1395.5 46,-1425.5 400,-1425.5 400,-1395.5 46,-1395.5"/>
<text text-anchor="start" x="53" y="-1406.9" font-family="Arial" font-size="14.00" fill="#000000">phoneno </text>
<text text-anchor="start" x="111.3688" y="-1406.9" font-family="Arial" font-size="14.00" fill="#666666">[text]</text>
<polygon fill="none" stroke="#000000" points="46,-1365.5 46,-1395.5 400,-1395.5 400,-1365.5 46,-1365.5"/>
<text text-anchor="start" x="53" y="-1376.9" font-family="Arial" font-size="14.00" fill="#000000">faxno </text>
<text text-anchor="start" x="91.129" y="-1376.9" font-family="Arial" font-size="14.00" fill="#666666">[text]</text>
<polygon fill="none" stroke="#000000" points="46,-1335.5 46,-1365.5 400,-1365.5 400,-1335.5 46,-1335.5"/>
<text text-anchor="start" x="53" y="-1346.9" font-family="Arial" font-size="14.00" fill="#000000">email </text>
<text text-anchor="start" x="90.3296" y="-1346.9" font-family="Arial" font-size="14.00" fill="#666666">[text]</text>
<polygon fill="none" stroke="#000000" points="46,-1305.5 46,-1335.5 400,-1335.5 400,-1305.5 46,-1305.5"/>
<text text-anchor="start" x="53" y="-1316.9" font-family="Arial" font-size="14.00" fill="#000000">contactperson </text>
<text text-anchor="start" x="144.8106" y="-1316.9" font-family="Arial" font-size="14.00" fill="#666666">[text]</text>
<polygon fill="none" stroke="#000000" points="46,-1275.5 46,-1305.5 400,-1305.5 400,-1275.5 46,-1275.5"/>
<text text-anchor="start" x="53" y="-1286.9" font-family="Arial" font-size="14.00" fill="#000000">exciseregistrationno </text>
<text text-anchor="start" x="181.3562" y="-1286.9" font-family="Arial" font-size="14.00" fill="#666666">[text]</text>
<polygon fill="none" stroke="#000000" points="46,-1245.5 46,-1275.5 400,-1275.5 400,-1245.5 46,-1245.5"/>
<text text-anchor="start" x="53" y="-1256.9" font-family="Arial" font-size="14.00" fill="#000000">openingbalance_t </text>
<text text-anchor="start" x="167.3856" y="-1256.9" font-family="Arial" font-size="14.00" fill="#666666">[text]</text>
<polygon fill="none" stroke="#000000" points="46,-1215.5 46,-1245.5 400,-1245.5 400,-1215.5 46,-1215.5"/>
<text text-anchor="start" x="53" y="-1226.9" font-family="Arial" font-size="14.00" fill="#000000">panno </text>
<text text-anchor="start" x="95.8036" y="-1226.9" font-family="Arial" font-size="14.00" fill="#666666">[text]</text>
<polygon fill="none" stroke="#000000" points="46,-1185.5 46,-1215.5 400,-1215.5 400,-1185.5 46,-1185.5"/>
<text text-anchor="start" x="53" y="-1196.9" font-family="Arial" font-size="14.00" fill="#000000">tinno </text>
<text text-anchor="start" x="87.2356" y="-1196.9" font-family="Arial" font-size="14.00" fill="#666666">[text]</text>
<polygon fill="none" stroke="#000000" points="46,-1155.5 46,-1185.5 400,-1185.5 400,-1155.5 46,-1155.5"/>
<text text-anchor="start" x="53" y="-1166.9" font-family="Arial" font-size="14.00" fill="#000000">cstno </text>
<text text-anchor="start" x="90.3464" y="-1166.9" font-family="Arial" font-size="14.00" fill="#666666">[text]</text>
<polygon fill="none" stroke="#000000" points="46,-1125.5 46,-1155.5 400,-1155.5 400,-1125.5 46,-1125.5"/>
<text text-anchor="start" x="53" y="-1136.9" font-family="Arial" font-size="14.00" fill="#000000">lstno </text>
<text text-anchor="start" x="86.453" y="-1136.9" font-family="Arial" font-size="14.00" fill="#666666">[text]</text>
<polygon fill="none" stroke="#000000" points="46,-1095.5 46,-1125.5 400,-1125.5 400,-1095.5 46,-1095.5"/>
<text text-anchor="start" x="53" y="-1106.9" font-family="Arial" font-size="14.00" fill="#000000">gstno </text>
<text text-anchor="start" x="91.129" y="-1106.9" font-family="Arial" font-size="14.00" fill="#666666">[text]</text>
<polygon fill="none" stroke="#000000" points="46,-1065.5 46,-1095.5 400,-1095.5 400,-1065.5 46,-1065.5"/>
<text text-anchor="start" x="53" y="-1076.9" font-family="Arial" font-size="14.00" fill="#000000">gstnregdate_t </text>
<text text-anchor="start" x="142.4838" y="-1076.9" font-family="Arial" font-size="14.00" fill="#666666">[text]</text>
<polygon fill="none" stroke="#000000" points="46,-1035.5 46,-1065.5 400,-1065.5 400,-1035.5 46,-1035.5"/>
<text text-anchor="start" x="53" y="-1046.9" font-family="Arial" font-size="14.00" fill="#000000">gstpartytype </text>
<text text-anchor="start" x="133.136" y="-1046.9" font-family="Arial" font-size="14.00" fill="#666666">[text]</text>
<polygon fill="none" stroke="#000000" points="46,-1005.5 46,-1035.5 400,-1035.5 400,-1005.5 46,-1005.5"/>
<text text-anchor="start" x="53" y="-1016.9" font-family="Arial" font-size="14.00" fill="#000000">printname </text>
<text text-anchor="start" x="119.122" y="-1016.9" font-family="Arial" font-size="14.00" fill="#666666">[text]</text>
<polygon fill="none" stroke="#000000" points="46,-975.5 46,-1005.5 400,-1005.5 400,-975.5 46,-975.5"/>
<text text-anchor="start" x="53" y="-986.9" font-family="Arial" font-size="14.00" fill="#000000">pincode </text>
<text text-anchor="start" x="105.9102" y="-986.9" font-family="Arial" font-size="14.00" fill="#666666">[varchar]</text>
<polygon fill="none" stroke="#000000" points="46,-945.5 46,-975.5 400,-975.5 400,-945.5 46,-945.5"/>
<text text-anchor="start" x="53" y="-956.9" font-family="Arial" font-size="14.00" fill="#000000">rangeaddress </text>
<text text-anchor="start" x="142.4726" y="-956.9" font-family="Arial" font-size="14.00" fill="#666666">[text]</text>
<polygon fill="none" stroke="#000000" points="46,-915.5 46,-945.5 400,-945.5 400,-915.5 46,-915.5"/>
<text text-anchor="start" x="53" y="-926.9" font-family="Arial" font-size="14.00" fill="#000000">nameintally </text>
<text text-anchor="start" x="127.6746" y="-926.9" font-family="Arial" font-size="14.00" fill="#666666">[text]</text>
<polygon fill="none" stroke="#000000" points="46,-885.5 46,-915.5 400,-915.5 400,-885.5 46,-885.5"/>
<text text-anchor="start" x="53" y="-896.9" font-family="Arial" font-size="14.00" fill="#000000">groupname </text>
<text text-anchor="start" x="127.69" y="-896.9" font-family="Arial" font-size="14.00" fill="#666666">[varchar]</text>
<polygon fill="none" stroke="#000000" points="46,-855.5 46,-885.5 400,-885.5 400,-855.5 46,-855.5"/>
<text text-anchor="start" x="53" y="-866.9" font-family="Arial" font-size="14.00" fill="#000000">salesperson </text>
<text text-anchor="start" x="132.3534" y="-866.9" font-family="Arial" font-size="14.00" fill="#666666">[varchar]</text>
<polygon fill="none" stroke="#000000" points="46,-825.5 46,-855.5 400,-855.5 400,-825.5 46,-825.5"/>
<text text-anchor="start" x="53" y="-836.9" font-family="Arial" font-size="14.00" fill="#000000">creditlimit_t </text>
<text text-anchor="start" x="127.6578" y="-836.9" font-family="Arial" font-size="14.00" fill="#666666">[varchar]</text>
<polygon fill="none" stroke="#000000" points="46,-795.5 46,-825.5 400,-825.5 400,-795.5 46,-795.5"/>
<text text-anchor="start" x="53" y="-806.9" font-family="Arial" font-size="14.00" fill="#000000">creditdays_t </text>
<text text-anchor="start" x="132.352" y="-806.9" font-family="Arial" font-size="14.00" fill="#666666">[varchar]</text>
<polygon fill="none" stroke="#000000" points="46,-765.5 46,-795.5 400,-795.5 400,-765.5 46,-765.5"/>
<text text-anchor="start" x="53" y="-776.9" font-family="Arial" font-size="14.00" fill="#000000">bankname </text>
<text text-anchor="start" x="122.2468" y="-776.9" font-family="Arial" font-size="14.00" fill="#666666">[varchar]</text>
<polygon fill="none" stroke="#000000" points="46,-735.5 46,-765.5 400,-765.5 400,-735.5 46,-735.5"/>
<text text-anchor="start" x="53" y="-746.9" font-family="Arial" font-size="14.00" fill="#000000">bankaccountno </text>
<text text-anchor="start" x="151.8246" y="-746.9" font-family="Arial" font-size="14.00" fill="#666666">[varchar]</text>
<polygon fill="none" stroke="#000000" points="46,-705.5 46,-735.5 400,-735.5 400,-705.5 46,-705.5"/>
<text text-anchor="start" x="53" y="-716.9" font-family="Arial" font-size="14.00" fill="#000000">ifsccode </text>
<text text-anchor="start" x="108.2356" y="-716.9" font-family="Arial" font-size="14.00" fill="#666666">[varchar]</text>
<polygon fill="none" stroke="#000000" points="46,-675.5 46,-705.5 400,-705.5 400,-675.5 46,-675.5"/>
<text text-anchor="start" x="53" y="-686.9" font-family="Arial" font-size="14.00" fill="#000000">branchaddress </text>
<text text-anchor="start" x="149.4726" y="-686.9" font-family="Arial" font-size="14.00" fill="#666666">[varchar]</text>
<polygon fill="none" stroke="#000000" points="46,-645.5 46,-675.5 400,-675.5 400,-645.5 46,-645.5"/>
<text text-anchor="start" x="53" y="-656.9" font-family="Arial" font-size="14.00" fill="#000000">mobile </text>
<text text-anchor="start" x="98.1122" y="-656.9" font-family="Arial" font-size="14.00" fill="#666666">[text]</text>
<polygon fill="none" stroke="#000000" points="46,-615.5 46,-645.5 400,-645.5 400,-615.5 46,-615.5"/>
<text text-anchor="start" x="53" y="-626.9" font-family="Arial" font-size="14.00" fill="#000000">msme_t </text>
<text text-anchor="start" x="106.6676" y="-626.9" font-family="Arial" font-size="14.00" fill="#666666">[text]</text>
<polygon fill="none" stroke="#000000" points="46,-585.5 46,-615.5 400,-615.5 400,-585.5 46,-585.5"/>
<text text-anchor="start" x="53" y="-596.9" font-family="Arial" font-size="14.00" fill="#000000">msmeregistrationno </text>
<text text-anchor="start" x="179.7882" y="-596.9" font-family="Arial" font-size="14.00" fill="#666666">[text]</text>
<polygon fill="none" stroke="#000000" points="46,-555.5 46,-585.5 400,-585.5 400,-555.5 46,-555.5"/>
<text text-anchor="start" x="53" y="-566.9" font-family="Arial" font-size="14.00" fill="#000000">securitychequeno </text>
<text text-anchor="start" x="166.5918" y="-566.9" font-family="Arial" font-size="14.00" fill="#666666">[text]</text>
<polygon fill="none" stroke="#000000" points="46,-525.5 46,-555.5 400,-555.5 400,-525.5 46,-525.5"/>
<text text-anchor="start" x="53" y="-536.9" font-family="Arial" font-size="14.00" fill="#000000">securitychequebankname </text>
<text text-anchor="start" x="216.3828" y="-536.9" font-family="Arial" font-size="14.00" fill="#666666">[text]</text>
<polygon fill="none" stroke="#000000" points="46,-495.5 46,-525.5 400,-525.5 400,-495.5 46,-495.5"/>
<text text-anchor="start" x="53" y="-506.9" font-family="Arial" font-size="14.00" fill="#000000">partyid </text>
<text text-anchor="start" x="98.8962" y="-506.9" font-family="Arial" font-size="14.00" fill="#666666">[integer]</text>
<polygon fill="none" stroke="#000000" points="46,-465.5 46,-495.5 400,-495.5 400,-465.5 46,-465.5"/>
<text text-anchor="start" x="53" y="-476.9" font-family="Arial" font-size="14.00" fill="#000000">countryid </text>
<text text-anchor="start" x="113.6788" y="-476.9" font-family="Arial" font-size="14.00" fill="#666666">[integer]</text>
<polygon fill="none" stroke="#000000" points="46,-435.5 46,-465.5 400,-465.5 400,-435.5 46,-435.5"/>
<text text-anchor="start" x="53" y="-446.9" font-family="Arial" font-size="14.00" fill="#000000">stateid </text>
<text text-anchor="start" x="98.1262" y="-446.9" font-family="Arial" font-size="14.00" fill="#666666">[integer]</text>
<polygon fill="none" stroke="#000000" points="46,-405.5 46,-435.5 400,-435.5 400,-405.5 46,-405.5"/>
<text text-anchor="start" x="53" y="-416.9" font-family="Arial" font-size="14.00" fill="#000000">cityid </text>
<text text-anchor="start" x="88.777" y="-416.9" font-family="Arial" font-size="14.00" fill="#666666">[integer]</text>
<polygon fill="none" stroke="#000000" points="46,-375.5 46,-405.5 400,-405.5 400,-375.5 46,-375.5"/>
<text text-anchor="start" x="53" y="-386.9" font-family="Arial" font-size="14.00" fill="#000000">partytypeid </text>
<text text-anchor="start" x="125.352" y="-386.9" font-family="Arial" font-size="14.00" fill="#666666">[integer]</text>
<polygon fill="none" stroke="#000000" points="46,-345.5 46,-375.5 400,-375.5 400,-345.5 46,-345.5"/>
<text text-anchor="start" x="53" y="-356.9" font-family="Arial" font-size="14.00" fill="#000000">gstpartytypeid </text>
<text text-anchor="start" x="144.0252" y="-356.9" font-family="Arial" font-size="14.00" fill="#666666">[integer]</text>
<polygon fill="none" stroke="#000000" points="46,-315.5 46,-345.5 400,-345.5 400,-315.5 46,-315.5"/>
<text text-anchor="start" x="53" y="-326.9" font-family="Arial" font-size="14.00" fill="#000000">groupid </text>
<text text-anchor="start" x="103.5708" y="-326.9" font-family="Arial" font-size="14.00" fill="#666666">[integer]</text>
<polygon fill="none" stroke="#000000" points="46,-285.5 46,-315.5 400,-315.5 400,-285.5 46,-285.5"/>
<text text-anchor="start" x="53" y="-296.9" font-family="Arial" font-size="14.00" fill="#000000">salespersonid </text>
<text text-anchor="start" x="143.2426" y="-296.9" font-family="Arial" font-size="14.00" fill="#666666">[integer]</text>
<polygon fill="none" stroke="#000000" points="46,-255.5 46,-285.5 400,-285.5 400,-255.5 46,-255.5"/>
<text text-anchor="start" x="53" y="-266.9" font-family="Arial" font-size="14.00" fill="#000000">creditlimit </text>
<text text-anchor="start" x="115.9846" y="-266.9" font-family="Arial" font-size="14.00" fill="#666666">[numeric(18,3)]</text>
<polygon fill="none" stroke="#000000" points="46,-225.5 46,-255.5 400,-255.5 400,-225.5 46,-225.5"/>
<text text-anchor="start" x="53" y="-236.9" font-family="Arial" font-size="14.00" fill="#000000">openingbalance </text>
<text text-anchor="start" x="155.7124" y="-236.9" font-family="Arial" font-size="14.00" fill="#666666">[numeric(18,3)]</text>
<polygon fill="none" stroke="#000000" points="46,-195.5 46,-225.5 400,-225.5 400,-195.5 46,-195.5"/>
<text text-anchor="start" x="53" y="-206.9" font-family="Arial" font-size="14.00" fill="#000000">creditdays </text>
<text text-anchor="start" x="120.6788" y="-206.9" font-family="Arial" font-size="14.00" fill="#666666">[integer]</text>
<polygon fill="none" stroke="#000000" points="46,-165.5 46,-195.5 400,-195.5 400,-165.5 46,-165.5"/>
<text text-anchor="start" x="53" y="-176.9" font-family="Arial" font-size="14.00" fill="#000000">log </text>
<text text-anchor="start" x="75.5624" y="-176.9" font-family="Arial" font-size="14.00" fill="#666666">[text]</text>
<polygon fill="none" stroke="#000000" points="46,-135.5 46,-165.5 400,-165.5 400,-135.5 46,-135.5"/>
<text text-anchor="start" x="53" y="-146.9" font-family="Arial" font-size="14.00" fill="#000000">isvalid </text>
<text text-anchor="start" x="95.7756" y="-146.9" font-family="Arial" font-size="14.00" fill="#666666">[boolean]</text>
<polygon fill="none" stroke="#000000" points="46,-105.5 46,-135.5 400,-135.5 400,-105.5 46,-105.5"/>
<text text-anchor="start" x="53" y="-116.9" font-family="Arial" font-size="14.00" fill="#000000">clientbankid </text>
<text text-anchor="start" x="130.7966" y="-116.9" font-family="Arial" font-size="14.00" fill="#666666">[integer]</text>
<polygon fill="none" stroke="#000000" points="46,-75.5 46,-105.5 400,-105.5 400,-75.5 46,-75.5"/>
<text text-anchor="start" x="53" y="-86.9" font-family="Arial" font-size="14.00" fill="#000000">gstnregdate </text>
<text text-anchor="start" x="130.8106" y="-86.9" font-family="Arial" font-size="14.00" fill="#666666">[date]</text>
<polygon fill="none" stroke="#000000" points="46,-45.5 46,-75.5 400,-75.5 400,-45.5 46,-45.5"/>
<text text-anchor="start" x="53" y="-56.9" font-family="Arial" font-size="14.00" fill="#000000">msme </text>
<text text-anchor="start" x="94.9944" y="-56.9" font-family="Arial" font-size="14.00" fill="#666666">[integer]</text>
<polygon fill="none" stroke="#000000" stroke-width="3" points="44.5,-44.5 44.5,-1702.5 401.5,-1702.5 401.5,-44.5 44.5,-44.5"/>
</g>
</g>
</svg>
