<?xml version="1.0" encoding="UTF-8" standalone="no"?>
<!DOCTYPE svg PUBLIC "-//W3C//DTD SVG 1.1//EN"
 "http://www.w3.org/Graphics/SVG/1.1/DTD/svg11.dtd">
<!-- Generated by graphviz version 2.40.1 (20161225.0304)
 -->
<!-- Title: temp.harishankar_rmccost Pages: 1 -->
<svg width="453pt" height="255pt"
 viewBox="0.00 0.00 453.00 255.00" xmlns="http://www.w3.org/2000/svg" xmlns:xlink="http://www.w3.org/1999/xlink">
<g id="graph0" class="graph" transform="scale(1 1) rotate(0) translate(4 251)">
<title>temp.harishankar_rmccost</title>
<polygon fill="#ffffff" stroke="transparent" points="-4,4 -4,-251 449,-251 449,4 -4,4"/>
<!-- temp.harishankar_rmccost -->
<g id="node1" class="node">
<title>temp.harishankar_rmccost</title>
<polygon fill="#efefef" stroke="transparent" points="46.5,-165.5 46.5,-200.5 399.5,-200.5 399.5,-165.5 46.5,-165.5"/>
<polygon fill="none" stroke="#000000" points="46.5,-165.5 46.5,-200.5 399.5,-200.5 399.5,-165.5 46.5,-165.5"/>
<text text-anchor="start" x="53.2041" y="-178.3" font-family="Arial Bold" font-size="18.00" fill="#000000">temp.harishankar_rmccost</text>
<text text-anchor="start" x="265.2279" y="-178.3" font-family="Arial" font-size="14.00" fill="#000000">    </text>
<text text-anchor="start" x="299.4327" y="-178.3" font-family="Arial" font-size="14.00" fill="#666666">[BASE TABLE]</text>
<polygon fill="none" stroke="#000000" points="46.5,-135.5 46.5,-165.5 399.5,-165.5 399.5,-135.5 46.5,-135.5"/>
<text text-anchor="start" x="53.5" y="-146.9" font-family="Arial" font-size="14.00" fill="#000000">batchcardid </text>
<text text-anchor="start" x="129.744" y="-146.9" font-family="Arial" font-size="14.00" fill="#666666">[integer]</text>
<polygon fill="none" stroke="#000000" points="46.5,-105.5 46.5,-135.5 399.5,-135.5 399.5,-105.5 46.5,-105.5"/>
<text text-anchor="start" x="53.5" y="-116.9" font-family="Arial" font-size="14.00" fill="#000000">produceditemid </text>
<text text-anchor="start" x="153.0764" y="-116.9" font-family="Arial" font-size="14.00" fill="#666666">[integer]</text>
<polygon fill="none" stroke="#000000" points="46.5,-75.5 46.5,-105.5 399.5,-105.5 399.5,-75.5 46.5,-75.5"/>
<text text-anchor="start" x="53.5" y="-86.9" font-family="Arial" font-size="14.00" fill="#000000">producedbaseqty </text>
<text text-anchor="start" x="164.7678" y="-86.9" font-family="Arial" font-size="14.00" fill="#666666">[numeric]</text>
<polygon fill="none" stroke="#000000" points="46.5,-45.5 46.5,-75.5 399.5,-75.5 399.5,-45.5 46.5,-45.5"/>
<text text-anchor="start" x="53.5" y="-56.9" font-family="Arial" font-size="14.00" fill="#000000">rmccost </text>
<text text-anchor="start" x="106.385" y="-56.9" font-family="Arial" font-size="14.00" fill="#666666">[numeric]</text>
<polygon fill="none" stroke="#000000" stroke-width="3" points="44.5,-44.5 44.5,-202.5 400.5,-202.5 400.5,-44.5 44.5,-44.5"/>
</g>
</g>
</svg>
