<?xml version="1.0" encoding="UTF-8" standalone="no"?>
<!DOCTYPE svg PUBLIC "-//W3C//DTD SVG 1.1//EN"
 "http://www.w3.org/Graphics/SVG/1.1/DTD/svg11.dtd">
<!-- Generated by graphviz version 2.40.1 (20161225.0304)
 -->
<!-- Title: temp.temp_itemopeningstockserial Pages: 1 -->
<svg width="519pt" height="765pt"
 viewBox="0.00 0.00 519.00 765.00" xmlns="http://www.w3.org/2000/svg" xmlns:xlink="http://www.w3.org/1999/xlink">
<g id="graph0" class="graph" transform="scale(1 1) rotate(0) translate(4 761)">
<title>temp.temp_itemopeningstockserial</title>
<polygon fill="#ffffff" stroke="transparent" points="-4,4 -4,-761 515,-761 515,4 -4,4"/>
<!-- temp.temp_itemopeningstockserial -->
<g id="node1" class="node">
<title>temp.temp_itemopeningstockserial</title>
<polygon fill="#efefef" stroke="transparent" points="46.5,-675.5 46.5,-710.5 465.5,-710.5 465.5,-675.5 46.5,-675.5"/>
<polygon fill="none" stroke="#000000" points="46.5,-675.5 46.5,-710.5 465.5,-710.5 465.5,-675.5 46.5,-675.5"/>
<text text-anchor="start" x="53.1912" y="-688.3" font-family="Arial Bold" font-size="18.00" fill="#000000">temp.temp_itemopeningstockserial</text>
<text text-anchor="start" x="331.2408" y="-688.3" font-family="Arial" font-size="14.00" fill="#000000">    </text>
<text text-anchor="start" x="365.4456" y="-688.3" font-family="Arial" font-size="14.00" fill="#666666">[BASE TABLE]</text>
<polygon fill="none" stroke="#000000" points="46.5,-645.5 46.5,-675.5 465.5,-675.5 465.5,-645.5 46.5,-645.5"/>
<text text-anchor="start" x="53.5" y="-656.9" font-family="Arial" font-size="14.00" fill="#000000">itemcode </text>
<text text-anchor="start" x="114.1788" y="-656.9" font-family="Arial" font-size="14.00" fill="#666666">[text]</text>
<polygon fill="none" stroke="#000000" points="46.5,-615.5 46.5,-645.5 465.5,-645.5 465.5,-615.5 46.5,-615.5"/>
<text text-anchor="start" x="53.5" y="-626.9" font-family="Arial" font-size="14.00" fill="#000000">itemname </text>
<text text-anchor="start" x="118.8394" y="-626.9" font-family="Arial" font-size="14.00" fill="#666666">[text]</text>
<polygon fill="none" stroke="#000000" points="46.5,-585.5 46.5,-615.5 465.5,-615.5 465.5,-585.5 46.5,-585.5"/>
<text text-anchor="start" x="53.5" y="-596.9" font-family="Arial" font-size="14.00" fill="#000000">storename </text>
<text text-anchor="start" x="123.5154" y="-596.9" font-family="Arial" font-size="14.00" fill="#666666">[text]</text>
<polygon fill="none" stroke="#000000" points="46.5,-555.5 46.5,-585.5 465.5,-585.5 465.5,-555.5 46.5,-555.5"/>
<text text-anchor="start" x="53.5" y="-566.9" font-family="Arial" font-size="14.00" fill="#000000">serialno </text>
<text text-anchor="start" x="106.3948" y="-566.9" font-family="Arial" font-size="14.00" fill="#666666">[text]</text>
<polygon fill="none" stroke="#000000" points="46.5,-525.5 46.5,-555.5 465.5,-555.5 465.5,-525.5 46.5,-525.5"/>
<text text-anchor="start" x="53.5" y="-536.9" font-family="Arial" font-size="14.00" fill="#000000">expirydate </text>
<text text-anchor="start" x="121.9614" y="-536.9" font-family="Arial" font-size="14.00" fill="#666666">[text]</text>
<polygon fill="none" stroke="#000000" points="46.5,-495.5 46.5,-525.5 465.5,-525.5 465.5,-495.5 46.5,-495.5"/>
<text text-anchor="start" x="53.5" y="-506.9" font-family="Arial" font-size="14.00" fill="#000000">mfgdate </text>
<text text-anchor="start" x="107.9628" y="-506.9" font-family="Arial" font-size="14.00" fill="#666666">[text]</text>
<polygon fill="none" stroke="#000000" points="46.5,-465.5 46.5,-495.5 465.5,-495.5 465.5,-465.5 46.5,-465.5"/>
<text text-anchor="start" x="53.5" y="-476.9" font-family="Arial" font-size="14.00" fill="#000000">baseqty_t </text>
<text text-anchor="start" x="118.0848" y="-476.9" font-family="Arial" font-size="14.00" fill="#666666">[varchar]</text>
<polygon fill="none" stroke="#000000" points="46.5,-435.5 46.5,-465.5 465.5,-465.5 465.5,-435.5 46.5,-435.5"/>
<text text-anchor="start" x="53.5" y="-446.9" font-family="Arial" font-size="14.00" fill="#000000">altqty_t </text>
<text text-anchor="start" x="102.5168" y="-446.9" font-family="Arial" font-size="14.00" fill="#666666">[varchar]</text>
<polygon fill="none" stroke="#000000" points="46.5,-405.5 46.5,-435.5 465.5,-435.5 465.5,-405.5 46.5,-405.5"/>
<text text-anchor="start" x="53.5" y="-416.9" font-family="Arial" font-size="14.00" fill="#000000">costprice_t </text>
<text text-anchor="start" x="125.0694" y="-416.9" font-family="Arial" font-size="14.00" fill="#666666">[varchar]</text>
<polygon fill="none" stroke="#000000" points="46.5,-375.5 46.5,-405.5 465.5,-405.5 465.5,-375.5 46.5,-375.5"/>
<text text-anchor="start" x="53.5" y="-386.9" font-family="Arial" font-size="14.00" fill="#000000">itemid </text>
<text text-anchor="start" x="94.7202" y="-386.9" font-family="Arial" font-size="14.00" fill="#666666">[integer]</text>
<polygon fill="none" stroke="#000000" points="46.5,-345.5 46.5,-375.5 465.5,-375.5 465.5,-345.5 46.5,-345.5"/>
<text text-anchor="start" x="53.5" y="-356.9" font-family="Arial" font-size="14.00" fill="#000000">storeid </text>
<text text-anchor="start" x="99.3962" y="-356.9" font-family="Arial" font-size="14.00" fill="#666666">[integer]</text>
<polygon fill="none" stroke="#000000" points="46.5,-315.5 46.5,-345.5 465.5,-345.5 465.5,-315.5 46.5,-315.5"/>
<text text-anchor="start" x="53.5" y="-326.9" font-family="Arial" font-size="14.00" fill="#000000">log </text>
<text text-anchor="start" x="76.0624" y="-326.9" font-family="Arial" font-size="14.00" fill="#666666">[text]</text>
<polygon fill="none" stroke="#000000" points="46.5,-285.5 46.5,-315.5 465.5,-315.5 465.5,-285.5 46.5,-285.5"/>
<text text-anchor="start" x="53.5" y="-296.9" font-family="Arial" font-size="14.00" fill="#000000">isvalid </text>
<text text-anchor="start" x="96.2756" y="-296.9" font-family="Arial" font-size="14.00" fill="#666666">[boolean]</text>
<polygon fill="none" stroke="#000000" points="46.5,-255.5 46.5,-285.5 465.5,-285.5 465.5,-255.5 46.5,-255.5"/>
<text text-anchor="start" x="53.5" y="-266.9" font-family="Arial" font-size="14.00" fill="#000000">altqty </text>
<text text-anchor="start" x="90.8436" y="-266.9" font-family="Arial" font-size="14.00" fill="#666666">[numeric(18,3)]</text>
<polygon fill="none" stroke="#000000" points="46.5,-225.5 46.5,-255.5 465.5,-255.5 465.5,-225.5 46.5,-225.5"/>
<text text-anchor="start" x="53.5" y="-236.9" font-family="Arial" font-size="14.00" fill="#000000">isbatch </text>
<text text-anchor="start" x="101.7356" y="-236.9" font-family="Arial" font-size="14.00" fill="#666666">[boolean]</text>
<polygon fill="none" stroke="#000000" points="46.5,-195.5 46.5,-225.5 465.5,-225.5 465.5,-195.5 46.5,-195.5"/>
<text text-anchor="start" x="53.5" y="-206.9" font-family="Arial" font-size="14.00" fill="#000000">isseries </text>
<text text-anchor="start" x="104.8296" y="-206.9" font-family="Arial" font-size="14.00" fill="#666666">[boolean]</text>
<polygon fill="none" stroke="#000000" points="46.5,-165.5 46.5,-195.5 465.5,-195.5 465.5,-165.5 46.5,-165.5"/>
<text text-anchor="start" x="53.5" y="-176.9" font-family="Arial" font-size="14.00" fill="#000000">isfixed </text>
<text text-anchor="start" x="97.0596" y="-176.9" font-family="Arial" font-size="14.00" fill="#666666">[boolean]</text>
<polygon fill="none" stroke="#000000" points="46.5,-135.5 46.5,-165.5 465.5,-165.5 465.5,-135.5 46.5,-135.5"/>
<text text-anchor="start" x="53.5" y="-146.9" font-family="Arial" font-size="14.00" fill="#000000">baseqty </text>
<text text-anchor="start" x="106.4116" y="-146.9" font-family="Arial" font-size="14.00" fill="#666666">[numeric(18,3)]</text>
<polygon fill="none" stroke="#000000" points="46.5,-105.5 46.5,-135.5 465.5,-135.5 465.5,-105.5 46.5,-105.5"/>
<text text-anchor="start" x="53.5" y="-116.9" font-family="Arial" font-size="14.00" fill="#000000">costprice </text>
<text text-anchor="start" x="113.3962" y="-116.9" font-family="Arial" font-size="14.00" fill="#666666">[numeric(18,3)]</text>
<polygon fill="none" stroke="#000000" points="46.5,-75.5 46.5,-105.5 465.5,-105.5 465.5,-75.5 46.5,-75.5"/>
<text text-anchor="start" x="53.5" y="-86.9" font-family="Arial" font-size="14.00" fill="#000000">altunitid </text>
<text text-anchor="start" x="105.622" y="-86.9" font-family="Arial" font-size="14.00" fill="#666666">[integer]</text>
<polygon fill="none" stroke="#000000" points="46.5,-45.5 46.5,-75.5 465.5,-75.5 465.5,-45.5 46.5,-45.5"/>
<text text-anchor="start" x="53.5" y="-56.9" font-family="Arial" font-size="14.00" fill="#000000">printname </text>
<text text-anchor="start" x="119.622" y="-56.9" font-family="Arial" font-size="14.00" fill="#666666">[text]</text>
<polygon fill="none" stroke="#000000" stroke-width="3" points="44.5,-44.5 44.5,-712.5 466.5,-712.5 466.5,-44.5 44.5,-44.5"/>
</g>
</g>
</svg>
