<?xml version="1.0" encoding="UTF-8" standalone="no"?>
<!DOCTYPE svg PUBLIC "-//W3C//DTD SVG 1.1//EN"
 "http://www.w3.org/Graphics/SVG/1.1/DTD/svg11.dtd">
<!-- Generated by graphviz version 2.40.1 (20161225.0304)
 -->
<!-- Title: temp.saurabht_rmc Pages: 1 -->
<svg width="396pt" height="225pt"
 viewBox="0.00 0.00 396.00 225.00" xmlns="http://www.w3.org/2000/svg" xmlns:xlink="http://www.w3.org/1999/xlink">
<g id="graph0" class="graph" transform="scale(1 1) rotate(0) translate(4 221)">
<title>temp.saurabht_rmc</title>
<polygon fill="#ffffff" stroke="transparent" points="-4,4 -4,-221 392,-221 392,4 -4,4"/>
<!-- temp.saurabht_rmc -->
<g id="node1" class="node">
<title>temp.saurabht_rmc</title>
<polygon fill="#efefef" stroke="transparent" points="46,-135.5 46,-170.5 342,-170.5 342,-135.5 46,-135.5"/>
<polygon fill="none" stroke="#000000" points="46,-135.5 46,-170.5 342,-170.5 342,-135.5 46,-135.5"/>
<text text-anchor="start" x="52.7035" y="-148.3" font-family="Arial Bold" font-size="18.00" fill="#000000">temp.saurabht_rmc</text>
<text text-anchor="start" x="207.7285" y="-148.3" font-family="Arial" font-size="14.00" fill="#000000">    </text>
<text text-anchor="start" x="241.9333" y="-148.3" font-family="Arial" font-size="14.00" fill="#666666">[BASE TABLE]</text>
<polygon fill="none" stroke="#000000" points="46,-105.5 46,-135.5 342,-135.5 342,-105.5 46,-105.5"/>
<text text-anchor="start" x="53" y="-116.9" font-family="Arial" font-size="14.00" fill="#000000">itemid </text>
<text text-anchor="start" x="94.2202" y="-116.9" font-family="Arial" font-size="14.00" fill="#666666">[integer]</text>
<polygon fill="none" stroke="#000000" points="46,-75.5 46,-105.5 342,-105.5 342,-75.5 46,-75.5"/>
<text text-anchor="start" x="53" y="-86.9" font-family="Arial" font-size="14.00" fill="#000000">rmcperunit </text>
<text text-anchor="start" x="123" y="-86.9" font-family="Arial" font-size="14.00" fill="#666666">[numeric]</text>
<polygon fill="none" stroke="#000000" points="46,-45.5 46,-75.5 342,-75.5 342,-45.5 46,-45.5"/>
<text text-anchor="start" x="53" y="-56.9" font-family="Arial" font-size="14.00" fill="#000000">packingperunit </text>
<text text-anchor="start" x="147.9158" y="-56.9" font-family="Arial" font-size="14.00" fill="#666666">[numeric]</text>
<polygon fill="none" stroke="#000000" stroke-width="3" points="44.5,-44.5 44.5,-172.5 343.5,-172.5 343.5,-44.5 44.5,-44.5"/>
</g>
</g>
</svg>
