<?xml version="1.0" encoding="UTF-8" standalone="no"?>
<!DOCTYPE svg PUBLIC "-//W3C//DTD SVG 1.1//EN"
 "http://www.w3.org/Graphics/SVG/1.1/DTD/svg11.dtd">
<!-- Generated by graphviz version 2.40.1 (20161225.0304)
 -->
<!-- Title: temp.raviyadav_rmc Pages: 1 -->
<svg width="403pt" height="225pt"
 viewBox="0.00 0.00 403.00 225.00" xmlns="http://www.w3.org/2000/svg" xmlns:xlink="http://www.w3.org/1999/xlink">
<g id="graph0" class="graph" transform="scale(1 1) rotate(0) translate(4 221)">
<title>temp.raviyadav_rmc</title>
<polygon fill="#ffffff" stroke="transparent" points="-4,4 -4,-221 399,-221 399,4 -4,4"/>
<!-- temp.raviyadav_rmc -->
<g id="node1" class="node">
<title>temp.raviyadav_rmc</title>
<polygon fill="#efefef" stroke="transparent" points="46.5,-135.5 46.5,-170.5 349.5,-170.5 349.5,-135.5 46.5,-135.5"/>
<polygon fill="none" stroke="#000000" points="46.5,-135.5 46.5,-170.5 349.5,-170.5 349.5,-135.5 46.5,-135.5"/>
<text text-anchor="start" x="53.2106" y="-148.3" font-family="Arial Bold" font-size="18.00" fill="#000000">temp.raviyadav_rmc</text>
<text text-anchor="start" x="215.2214" y="-148.3" font-family="Arial" font-size="14.00" fill="#000000">    </text>
<text text-anchor="start" x="249.4262" y="-148.3" font-family="Arial" font-size="14.00" fill="#666666">[BASE TABLE]</text>
<polygon fill="none" stroke="#000000" points="46.5,-105.5 46.5,-135.5 349.5,-135.5 349.5,-105.5 46.5,-105.5"/>
<text text-anchor="start" x="53.5" y="-116.9" font-family="Arial" font-size="14.00" fill="#000000">itemid </text>
<text text-anchor="start" x="94.7202" y="-116.9" font-family="Arial" font-size="14.00" fill="#666666">[integer]</text>
<polygon fill="none" stroke="#000000" points="46.5,-75.5 46.5,-105.5 349.5,-105.5 349.5,-75.5 46.5,-75.5"/>
<text text-anchor="start" x="53.5" y="-86.9" font-family="Arial" font-size="14.00" fill="#000000">rmcperunit </text>
<text text-anchor="start" x="123.5" y="-86.9" font-family="Arial" font-size="14.00" fill="#666666">[numeric]</text>
<polygon fill="none" stroke="#000000" points="46.5,-45.5 46.5,-75.5 349.5,-75.5 349.5,-45.5 46.5,-45.5"/>
<text text-anchor="start" x="53.5" y="-56.9" font-family="Arial" font-size="14.00" fill="#000000">packingperunit </text>
<text text-anchor="start" x="148.4158" y="-56.9" font-family="Arial" font-size="14.00" fill="#666666">[numeric]</text>
<polygon fill="none" stroke="#000000" stroke-width="3" points="44.5,-44.5 44.5,-172.5 350.5,-172.5 350.5,-44.5 44.5,-44.5"/>
</g>
</g>
</svg>
