<?xml version="1.0" encoding="UTF-8" standalone="no"?>
<!DOCTYPE svg PUBLIC "-//W3C//DTD SVG 1.1//EN"
 "http://www.w3.org/Graphics/SVG/1.1/DTD/svg11.dtd">
<!-- Generated by graphviz version 2.40.1 (20161225.0304)
 -->
<!-- Title: temp.brandsale Pages: 1 -->
<svg width="365pt" height="225pt"
 viewBox="0.00 0.00 365.00 225.00" xmlns="http://www.w3.org/2000/svg" xmlns:xlink="http://www.w3.org/1999/xlink">
<g id="graph0" class="graph" transform="scale(1 1) rotate(0) translate(4 221)">
<title>temp.brandsale</title>
<polygon fill="#ffffff" stroke="transparent" points="-4,4 -4,-221 361,-221 361,4 -4,4"/>
<!-- temp.brandsale -->
<g id="node1" class="node">
<title>temp.brandsale</title>
<polygon fill="#efefef" stroke="transparent" points="46.5,-135.5 46.5,-170.5 311.5,-170.5 311.5,-135.5 46.5,-135.5"/>
<polygon fill="none" stroke="#000000" points="46.5,-135.5 46.5,-170.5 311.5,-170.5 311.5,-135.5 46.5,-135.5"/>
<text text-anchor="start" x="53.1997" y="-148.3" font-family="Arial Bold" font-size="18.00" fill="#000000">temp.brandsale</text>
<text text-anchor="start" x="177.2323" y="-148.3" font-family="Arial" font-size="14.00" fill="#000000">    </text>
<text text-anchor="start" x="211.4371" y="-148.3" font-family="Arial" font-size="14.00" fill="#666666">[BASE TABLE]</text>
<polygon fill="none" stroke="#000000" points="46.5,-105.5 46.5,-135.5 311.5,-135.5 311.5,-105.5 46.5,-105.5"/>
<text text-anchor="start" x="53.5" y="-116.9" font-family="Arial" font-size="14.00" fill="#000000">partyid </text>
<text text-anchor="start" x="99.3962" y="-116.9" font-family="Arial" font-size="14.00" fill="#666666">[integer]</text>
<polygon fill="none" stroke="#000000" points="46.5,-75.5 46.5,-105.5 311.5,-105.5 311.5,-75.5 46.5,-75.5"/>
<text text-anchor="start" x="53.5" y="-86.9" font-family="Arial" font-size="14.00" fill="#000000">brandid </text>
<text text-anchor="start" x="104.0708" y="-86.9" font-family="Arial" font-size="14.00" fill="#666666">[integer]</text>
<polygon fill="none" stroke="#000000" points="46.5,-45.5 46.5,-75.5 311.5,-75.5 311.5,-45.5 46.5,-45.5"/>
<text text-anchor="start" x="53.5" y="-56.9" font-family="Arial" font-size="14.00" fill="#000000">pretax </text>
<text text-anchor="start" x="96.2896" y="-56.9" font-family="Arial" font-size="14.00" fill="#666666">[numeric]</text>
<polygon fill="none" stroke="#000000" stroke-width="3" points="44.5,-44.5 44.5,-172.5 312.5,-172.5 312.5,-44.5 44.5,-44.5"/>
</g>
</g>
</svg>
