<?xml version="1.0" encoding="UTF-8" standalone="no"?>
<!DOCTYPE svg PUBLIC "-//W3C//DTD SVG 1.1//EN"
 "http://www.w3.org/Graphics/SVG/1.1/DTD/svg11.dtd">
<!-- Generated by graphviz version 2.40.1 (20161225.0304)
 -->
<!-- Title: tmh_service_module.svc_inquiry_service_detail Pages: 1 -->
<svg width="622pt" height="525pt"
 viewBox="0.00 0.00 622.00 525.00" xmlns="http://www.w3.org/2000/svg" xmlns:xlink="http://www.w3.org/1999/xlink">
<g id="graph0" class="graph" transform="scale(1 1) rotate(0) translate(4 521)">
<title>tmh_service_module.svc_inquiry_service_detail</title>
<polygon fill="#ffffff" stroke="transparent" points="-4,4 -4,-521 618,-521 618,4 -4,4"/>
<!-- tmh_service_module.svc_inquiry_service_detail -->
<g id="node1" class="node">
<title>tmh_service_module.svc_inquiry_service_detail</title>
<polygon fill="#efefef" stroke="transparent" points="46,-435.5 46,-470.5 568,-470.5 568,-435.5 46,-435.5"/>
<polygon fill="none" stroke="#000000" points="46,-435.5 46,-470.5 568,-470.5 568,-435.5 46,-435.5"/>
<text text-anchor="start" x="52.6905" y="-448.3" font-family="Arial Bold" font-size="18.00" fill="#000000">tmh_service_module.svc_inquiry_service_detail</text>
<text text-anchor="start" x="433.7415" y="-448.3" font-family="Arial" font-size="14.00" fill="#000000">    </text>
<text text-anchor="start" x="467.9463" y="-448.3" font-family="Arial" font-size="14.00" fill="#666666">[BASE TABLE]</text>
<polygon fill="none" stroke="#000000" points="46,-405.5 46,-435.5 568,-435.5 568,-405.5 46,-405.5"/>
<text text-anchor="start" x="53" y="-416.9" font-family="Arial" font-size="14.00" fill="#000000">svc_inquiry_service_detail_id </text>
<text text-anchor="start" x="238.9158" y="-416.9" font-family="Arial" font-size="14.00" fill="#666666">[integer]</text>
<polygon fill="none" stroke="#000000" points="46,-375.5 46,-405.5 568,-405.5 568,-375.5 46,-375.5"/>
<text text-anchor="start" x="53" y="-386.9" font-family="Arial" font-size="14.00" fill="#000000">svc_service_type_id </text>
<text text-anchor="start" x="182.9158" y="-386.9" font-family="Arial" font-size="14.00" fill="#666666">[integer]</text>
<polygon fill="none" stroke="#000000" points="46,-345.5 46,-375.5 568,-375.5 568,-345.5 46,-345.5"/>
<text text-anchor="start" x="53" y="-356.9" font-family="Arial" font-size="14.00" fill="#000000">svc_sub_service_type </text>
<text text-anchor="start" x="194.5918" y="-356.9" font-family="Arial" font-size="14.00" fill="#666666">[varchar(30)]</text>
<polygon fill="none" stroke="#000000" points="46,-315.5 46,-345.5 568,-345.5 568,-315.5 46,-315.5"/>
<text text-anchor="start" x="53" y="-326.9" font-family="Arial" font-size="14.00" fill="#000000">isinvoiceable </text>
<text text-anchor="start" x="137.0126" y="-326.9" font-family="Arial" font-size="14.00" fill="#666666">[boolean]</text>
<polygon fill="none" stroke="#000000" points="46,-285.5 46,-315.5 568,-315.5 568,-285.5 46,-285.5"/>
<text text-anchor="start" x="53" y="-296.9" font-family="Arial" font-size="14.00" fill="#000000">createdby </text>
<text text-anchor="start" x="118.3548" y="-296.9" font-family="Arial" font-size="14.00" fill="#666666">[integer]</text>
<polygon fill="none" stroke="#000000" points="46,-255.5 46,-285.5 568,-285.5 568,-255.5 46,-255.5"/>
<text text-anchor="start" x="53" y="-266.9" font-family="Arial" font-size="14.00" fill="#000000">createdon </text>
<text text-anchor="start" x="119.1374" y="-266.9" font-family="Arial" font-size="14.00" fill="#666666">[date]</text>
<polygon fill="none" stroke="#000000" points="46,-225.5 46,-255.5 568,-255.5 568,-225.5 46,-225.5"/>
<text text-anchor="start" x="53" y="-236.9" font-family="Arial" font-size="14.00" fill="#000000">isauthorized </text>
<text text-anchor="start" x="132.3506" y="-236.9" font-family="Arial" font-size="14.00" fill="#666666">[boolean]</text>
<polygon fill="none" stroke="#000000" points="46,-195.5 46,-225.5 568,-225.5 568,-195.5 46,-195.5"/>
<text text-anchor="start" x="53" y="-206.9" font-family="Arial" font-size="14.00" fill="#000000">authorizedon </text>
<text text-anchor="start" x="137.8092" y="-206.9" font-family="Arial" font-size="14.00" fill="#666666">[date]</text>
<polygon fill="none" stroke="#000000" points="46,-165.5 46,-195.5 568,-195.5 568,-165.5 46,-165.5"/>
<text text-anchor="start" x="53" y="-176.9" font-family="Arial" font-size="14.00" fill="#000000">authorizedby </text>
<text text-anchor="start" x="137.0266" y="-176.9" font-family="Arial" font-size="14.00" fill="#666666">[integer]</text>
<polygon fill="none" stroke="#000000" points="46,-135.5 46,-165.5 568,-165.5 568,-135.5 46,-135.5"/>
<text text-anchor="start" x="53" y="-146.9" font-family="Arial" font-size="14.00" fill="#000000">svc_service_name </text>
<text text-anchor="start" x="172.7966" y="-146.9" font-family="Arial" font-size="14.00" fill="#666666">[varchar(30)]</text>
<polygon fill="none" stroke="#000000" points="46,-105.5 46,-135.5 568,-135.5 568,-105.5 46,-105.5"/>
<text text-anchor="start" x="53" y="-116.9" font-family="Arial" font-size="14.00" fill="#000000">wef </text>
<text text-anchor="start" x="78.6704" y="-116.9" font-family="Arial" font-size="14.00" fill="#666666">[date]</text>
<polygon fill="none" stroke="#000000" points="46,-75.5 46,-105.5 568,-105.5 568,-75.5 46,-75.5"/>
<text text-anchor="start" x="53" y="-86.9" font-family="Arial" font-size="14.00" fill="#000000">isactive </text>
<text text-anchor="start" x="103.5596" y="-86.9" font-family="Arial" font-size="14.00" fill="#666666">[boolean]</text>
<polygon fill="none" stroke="#000000" points="46,-45.5 46,-75.5 568,-75.5 568,-45.5 46,-45.5"/>
<text text-anchor="start" x="53" y="-56.9" font-family="Arial" font-size="14.00" fill="#000000">inactive_date </text>
<text text-anchor="start" x="139.3632" y="-56.9" font-family="Arial" font-size="14.00" fill="#666666">[date]</text>
<polygon fill="none" stroke="#000000" stroke-width="3" points="44.5,-44.5 44.5,-472.5 569.5,-472.5 569.5,-44.5 44.5,-44.5"/>
</g>
</g>
</svg>
