<?xml version="1.0" encoding="UTF-8" standalone="no"?>
<!DOCTYPE svg PUBLIC "-//W3C//DTD SVG 1.1//EN"
 "http://www.w3.org/Graphics/SVG/1.1/DTD/svg11.dtd">
<!-- Generated by graphviz version 2.40.1 (20161225.0304)
 -->
<!-- Title: tmh_service_module.svc_brand_principle_warranty Pages: 1 -->
<svg width="651pt" height="315pt"
 viewBox="0.00 0.00 651.00 315.00" xmlns="http://www.w3.org/2000/svg" xmlns:xlink="http://www.w3.org/1999/xlink">
<g id="graph0" class="graph" transform="scale(1 1) rotate(0) translate(4 311)">
<title>tmh_service_module.svc_brand_principle_warranty</title>
<polygon fill="#ffffff" stroke="transparent" points="-4,4 -4,-311 647,-311 647,4 -4,4"/>
<!-- tmh_service_module.svc_brand_principle_warranty -->
<g id="node1" class="node">
<title>tmh_service_module.svc_brand_principle_warranty</title>
<polygon fill="#efefef" stroke="transparent" points="46.5,-225.5 46.5,-260.5 597.5,-260.5 597.5,-225.5 46.5,-225.5"/>
<polygon fill="none" stroke="#000000" points="46.5,-225.5 46.5,-260.5 597.5,-260.5 597.5,-225.5 46.5,-225.5"/>
<text text-anchor="start" x="53.1861" y="-238.3" font-family="Arial Bold" font-size="18.00" fill="#000000">tmh_service_module.svc_brand_principle_warranty</text>
<text text-anchor="start" x="463.2459" y="-238.3" font-family="Arial" font-size="14.00" fill="#000000">    </text>
<text text-anchor="start" x="497.4507" y="-238.3" font-family="Arial" font-size="14.00" fill="#666666">[BASE TABLE]</text>
<polygon fill="none" stroke="#000000" points="46.5,-195.5 46.5,-225.5 597.5,-225.5 597.5,-195.5 46.5,-195.5"/>
<text text-anchor="start" x="53.5" y="-206.9" font-family="Arial" font-size="14.00" fill="#000000">warranty_id </text>
<text text-anchor="start" x="129.7286" y="-206.9" font-family="Arial" font-size="14.00" fill="#666666">[integer]</text>
<polygon fill="none" stroke="#000000" points="46.5,-165.5 46.5,-195.5 597.5,-195.5 597.5,-165.5 46.5,-165.5"/>
<text text-anchor="start" x="53.5" y="-176.9" font-family="Arial" font-size="14.00" fill="#000000">warranty_days </text>
<text text-anchor="start" x="148.4046" y="-176.9" font-family="Arial" font-size="14.00" fill="#666666">[integer]</text>
<polygon fill="none" stroke="#000000" points="46.5,-135.5 46.5,-165.5 597.5,-165.5 597.5,-135.5 46.5,-135.5"/>
<text text-anchor="start" x="53.5" y="-146.9" font-family="Arial" font-size="14.00" fill="#000000">warranty_hours </text>
<text text-anchor="start" x="153.8478" y="-146.9" font-family="Arial" font-size="14.00" fill="#666666">[integer]</text>
<polygon fill="none" stroke="#000000" points="46.5,-105.5 46.5,-135.5 597.5,-135.5 597.5,-105.5 46.5,-105.5"/>
<text text-anchor="start" x="53.5" y="-116.9" font-family="Arial" font-size="14.00" fill="#000000">isactive </text>
<text text-anchor="start" x="104.0596" y="-116.9" font-family="Arial" font-size="14.00" fill="#666666">[boolean]</text>
<polygon fill="none" stroke="#000000" points="46.5,-75.5 46.5,-105.5 597.5,-105.5 597.5,-75.5 46.5,-75.5"/>
<text text-anchor="start" x="53.5" y="-86.9" font-family="Arial" font-size="14.00" fill="#000000">inactive_date </text>
<text text-anchor="start" x="139.8632" y="-86.9" font-family="Arial" font-size="14.00" fill="#666666">[date]</text>
<polygon fill="none" stroke="#000000" points="46.5,-45.5 46.5,-75.5 597.5,-75.5 597.5,-45.5 46.5,-45.5"/>
<text text-anchor="start" x="53.5" y="-56.9" font-family="Arial" font-size="14.00" fill="#000000">brand_id </text>
<text text-anchor="start" x="111.8534" y="-56.9" font-family="Arial" font-size="14.00" fill="#666666">[integer]</text>
<polygon fill="none" stroke="#000000" stroke-width="3" points="44.5,-44.5 44.5,-262.5 598.5,-262.5 598.5,-44.5 44.5,-44.5"/>
</g>
</g>
</svg>
