<?xml version="1.0" encoding="UTF-8" standalone="no"?>
<!DOCTYPE svg PUBLIC "-//W3C//DTD SVG 1.1//EN"
 "http://www.w3.org/Graphics/SVG/1.1/DTD/svg11.dtd">
<!-- Generated by graphviz version 2.40.1 (20161225.0304)
 -->
<!-- Title: importexport.sale_billdiscountingdetaildebit Pages: 1 -->
<svg width="584pt" height="285pt"
 viewBox="0.00 0.00 584.00 285.00" xmlns="http://www.w3.org/2000/svg" xmlns:xlink="http://www.w3.org/1999/xlink">
<g id="graph0" class="graph" transform="scale(1 1) rotate(0) translate(4 281)">
<title>importexport.sale_billdiscountingdetaildebit</title>
<polygon fill="#ffffff" stroke="transparent" points="-4,4 -4,-281 580,-281 580,4 -4,4"/>
<!-- importexport.sale_billdiscountingdetaildebit -->
<g id="node1" class="node">
<title>importexport.sale_billdiscountingdetaildebit</title>
<polygon fill="#efefef" stroke="transparent" points="46,-195.5 46,-230.5 530,-230.5 530,-195.5 46,-195.5"/>
<polygon fill="none" stroke="#000000" points="46,-195.5 46,-230.5 530,-230.5 530,-195.5 46,-195.5"/>
<text text-anchor="start" x="52.685" y="-208.3" font-family="Arial Bold" font-size="18.00" fill="#000000">importexport.sale_billdiscountingdetaildebit</text>
<text text-anchor="start" x="395.747" y="-208.3" font-family="Arial" font-size="14.00" fill="#000000">    </text>
<text text-anchor="start" x="429.9518" y="-208.3" font-family="Arial" font-size="14.00" fill="#666666">[BASE TABLE]</text>
<polygon fill="none" stroke="#000000" points="46,-165.5 46,-195.5 530,-195.5 530,-165.5 46,-165.5"/>
<text text-anchor="start" x="53" y="-176.9" font-family="Arial" font-size="14.00" fill="#000000">bdd_detailid </text>
<text text-anchor="start" x="132.3618" y="-176.9" font-family="Arial" font-size="14.00" fill="#666666">[integer]</text>
<polygon fill="none" stroke="#000000" points="46,-135.5 46,-165.5 530,-165.5 530,-135.5 46,-135.5"/>
<text text-anchor="start" x="53" y="-146.9" font-family="Arial" font-size="14.00" fill="#000000">bd_id </text>
<text text-anchor="start" x="91.1276" y="-146.9" font-family="Arial" font-size="14.00" fill="#666666">[integer]</text>
<polygon fill="none" stroke="#000000" points="46,-105.5 46,-135.5 530,-135.5 530,-105.5 46,-105.5"/>
<text text-anchor="start" x="53" y="-116.9" font-family="Arial" font-size="14.00" fill="#000000">paymentreceivedamount </text>
<text text-anchor="start" x="210.1514" y="-116.9" font-family="Arial" font-size="14.00" fill="#666666">[numeric(15,5)]</text>
<polygon fill="none" stroke="#000000" points="46,-75.5 46,-105.5 530,-105.5 530,-75.5 46,-75.5"/>
<text text-anchor="start" x="53" y="-86.9" font-family="Arial" font-size="14.00" fill="#000000">paymentreceiveddate </text>
<text text-anchor="start" x="190.7082" y="-86.9" font-family="Arial" font-size="14.00" fill="#666666">[date]</text>
<polygon fill="none" stroke="#000000" points="46,-45.5 46,-75.5 530,-75.5 530,-45.5 46,-45.5"/>
<text text-anchor="start" x="53" y="-56.9" font-family="Arial" font-size="14.00" fill="#000000">bank_id </text>
<text text-anchor="start" x="105.9102" y="-56.9" font-family="Arial" font-size="14.00" fill="#666666">[integer]</text>
<polygon fill="none" stroke="#000000" stroke-width="3" points="44.5,-44.5 44.5,-232.5 531.5,-232.5 531.5,-44.5 44.5,-44.5"/>
</g>
</g>
</svg>
