<?xml version="1.0" encoding="UTF-8" standalone="no"?>
<!DOCTYPE svg PUBLIC "-//W3C//DTD SVG 1.1//EN"
 "http://www.w3.org/Graphics/SVG/1.1/DTD/svg11.dtd">
<!-- Generated by graphviz version 2.40.1 (20161225.0304)
 -->
<!-- Title: importexport.pur_lcprocess_amendlog Pages: 1 -->
<svg width="547pt" height="375pt"
 viewBox="0.00 0.00 547.00 375.00" xmlns="http://www.w3.org/2000/svg" xmlns:xlink="http://www.w3.org/1999/xlink">
<g id="graph0" class="graph" transform="scale(1 1) rotate(0) translate(4 371)">
<title>importexport.pur_lcprocess_amendlog</title>
<polygon fill="#ffffff" stroke="transparent" points="-4,4 -4,-371 543,-371 543,4 -4,4"/>
<!-- importexport.pur_lcprocess_amendlog -->
<g id="node1" class="node">
<title>importexport.pur_lcprocess_amendlog</title>
<polygon fill="#efefef" stroke="transparent" points="46.5,-285.5 46.5,-320.5 493.5,-320.5 493.5,-285.5 46.5,-285.5"/>
<polygon fill="none" stroke="#000000" points="46.5,-285.5 46.5,-320.5 493.5,-320.5 493.5,-285.5 46.5,-285.5"/>
<text text-anchor="start" x="53.189" y="-298.3" font-family="Arial Bold" font-size="18.00" fill="#000000">importexport.pur_lcprocess_amendlog</text>
<text text-anchor="start" x="359.243" y="-298.3" font-family="Arial" font-size="14.00" fill="#000000">    </text>
<text text-anchor="start" x="393.4478" y="-298.3" font-family="Arial" font-size="14.00" fill="#666666">[BASE TABLE]</text>
<polygon fill="none" stroke="#000000" points="46.5,-255.5 46.5,-285.5 493.5,-285.5 493.5,-255.5 46.5,-255.5"/>
<text text-anchor="start" x="53.5" y="-266.9" font-family="Arial" font-size="14.00" fill="#000000">lcamendid </text>
<text text-anchor="start" x="121.1774" y="-266.9" font-family="Arial" font-size="14.00" fill="#666666">[integer]</text>
<polygon fill="none" stroke="#000000" points="46.5,-225.5 46.5,-255.5 493.5,-255.5 493.5,-225.5 46.5,-225.5"/>
<text text-anchor="start" x="53.5" y="-236.9" font-family="Arial" font-size="14.00" fill="#000000">lcid </text>
<text text-anchor="start" x="78.3864" y="-236.9" font-family="Arial" font-size="14.00" fill="#666666">[integer]</text>
<polygon fill="none" stroke="#000000" points="46.5,-195.5 46.5,-225.5 493.5,-225.5 493.5,-195.5 46.5,-195.5"/>
<text text-anchor="start" x="53.5" y="-206.9" font-family="Arial" font-size="14.00" fill="#000000">laamount </text>
<text text-anchor="start" x="114.9614" y="-206.9" font-family="Arial" font-size="14.00" fill="#666666">[numeric]</text>
<polygon fill="none" stroke="#000000" points="46.5,-165.5 46.5,-195.5 493.5,-195.5 493.5,-165.5 46.5,-165.5"/>
<text text-anchor="start" x="53.5" y="-176.9" font-family="Arial" font-size="14.00" fill="#000000">lcdays </text>
<text text-anchor="start" x="97.0624" y="-176.9" font-family="Arial" font-size="14.00" fill="#666666">[numeric]</text>
<polygon fill="none" stroke="#000000" points="46.5,-135.5 46.5,-165.5 493.5,-165.5 493.5,-135.5 46.5,-135.5"/>
<text text-anchor="start" x="53.5" y="-146.9" font-family="Arial" font-size="14.00" fill="#000000">duedate </text>
<text text-anchor="start" x="107.9768" y="-146.9" font-family="Arial" font-size="14.00" fill="#666666">[date]</text>
<polygon fill="none" stroke="#000000" points="46.5,-105.5 46.5,-135.5 493.5,-135.5 493.5,-105.5 46.5,-105.5"/>
<text text-anchor="start" x="53.5" y="-116.9" font-family="Arial" font-size="14.00" fill="#000000">amendreason </text>
<text text-anchor="start" x="142.9726" y="-116.9" font-family="Arial" font-size="14.00" fill="#666666">[text]</text>
<polygon fill="none" stroke="#000000" points="46.5,-75.5 46.5,-105.5 493.5,-105.5 493.5,-75.5 46.5,-75.5"/>
<text text-anchor="start" x="53.5" y="-86.9" font-family="Arial" font-size="14.00" fill="#000000">amendby </text>
<text text-anchor="start" x="114.9642" y="-86.9" font-family="Arial" font-size="14.00" fill="#666666">[integer]</text>
<polygon fill="none" stroke="#000000" points="46.5,-45.5 46.5,-75.5 493.5,-75.5 493.5,-45.5 46.5,-45.5"/>
<text text-anchor="start" x="53.5" y="-56.9" font-family="Arial" font-size="14.00" fill="#000000">amendon </text>
<text text-anchor="start" x="115.7468" y="-56.9" font-family="Arial" font-size="14.00" fill="#666666">[date]</text>
<polygon fill="none" stroke="#000000" stroke-width="3" points="44.5,-44.5 44.5,-322.5 494.5,-322.5 494.5,-44.5 44.5,-44.5"/>
</g>
</g>
</svg>
