<?xml version="1.0" encoding="UTF-8" standalone="no"?>
<!DOCTYPE svg PUBLIC "-//W3C//DTD SVG 1.1//EN"
 "http://www.w3.org/Graphics/SVG/1.1/DTD/svg11.dtd">
<!-- Generated by graphviz version 2.40.1 (20161225.0304)
 -->
<!-- Title: public.act_budgetforecastdetail Pages: 1 -->
<svg width="489pt" height="405pt"
 viewBox="0.00 0.00 489.00 405.00" xmlns="http://www.w3.org/2000/svg" xmlns:xlink="http://www.w3.org/1999/xlink">
<g id="graph0" class="graph" transform="scale(1 1) rotate(0) translate(4 401)">
<title>public.act_budgetforecastdetail</title>
<polygon fill="#ffffff" stroke="transparent" points="-4,4 -4,-401 485,-401 485,4 -4,4"/>
<!-- public.act_budgetforecastdetail -->
<g id="node1" class="node">
<title>public.act_budgetforecastdetail</title>
<polygon fill="#efefef" stroke="transparent" points="46.5,-315.5 46.5,-350.5 435.5,-350.5 435.5,-315.5 46.5,-315.5"/>
<polygon fill="none" stroke="#000000" points="46.5,-315.5 46.5,-350.5 435.5,-350.5 435.5,-315.5 46.5,-315.5"/>
<text text-anchor="start" x="53.1753" y="-328.3" font-family="Arial Bold" font-size="18.00" fill="#000000">public.act_budgetforecastdetail</text>
<text text-anchor="start" x="301.2567" y="-328.3" font-family="Arial" font-size="14.00" fill="#000000">    </text>
<text text-anchor="start" x="335.4615" y="-328.3" font-family="Arial" font-size="14.00" fill="#666666">[BASE TABLE]</text>
<polygon fill="none" stroke="#000000" points="46.5,-285.5 46.5,-315.5 435.5,-315.5 435.5,-285.5 46.5,-285.5"/>
<text text-anchor="start" x="53.5" y="-296.9" font-family="Arial" font-size="14.00" fill="#000000">detailid </text>
<text text-anchor="start" x="101.7314" y="-296.9" font-family="Arial" font-size="14.00" fill="#666666">[integer]</text>
<polygon fill="none" stroke="#000000" points="46.5,-255.5 46.5,-285.5 435.5,-285.5 435.5,-255.5 46.5,-255.5"/>
<text text-anchor="start" x="53.5" y="-266.9" font-family="Arial" font-size="14.00" fill="#000000">bfmid </text>
<text text-anchor="start" x="91.6136" y="-266.9" font-family="Arial" font-size="14.00" fill="#666666">[integer]</text>
<polygon fill="none" stroke="#000000" points="46.5,-225.5 46.5,-255.5 435.5,-255.5 435.5,-225.5 46.5,-225.5"/>
<text text-anchor="start" x="53.5" y="-236.9" font-family="Arial" font-size="14.00" fill="#000000">compgroupid </text>
<text text-anchor="start" x="138.2966" y="-236.9" font-family="Arial" font-size="14.00" fill="#666666">[integer]</text>
<polygon fill="none" stroke="#000000" points="46.5,-195.5 46.5,-225.5 435.5,-225.5 435.5,-195.5 46.5,-195.5"/>
<text text-anchor="start" x="53.5" y="-206.9" font-family="Arial" font-size="14.00" fill="#000000">compnameid </text>
<text text-anchor="start" x="137.514" y="-206.9" font-family="Arial" font-size="14.00" fill="#666666">[integer]</text>
<polygon fill="none" stroke="#000000" points="46.5,-165.5 46.5,-195.5 435.5,-195.5 435.5,-165.5 46.5,-165.5"/>
<text text-anchor="start" x="53.5" y="-176.9" font-family="Arial" font-size="14.00" fill="#000000">unitid </text>
<text text-anchor="start" x="90.8422" y="-176.9" font-family="Arial" font-size="14.00" fill="#666666">[integer]</text>
<polygon fill="none" stroke="#000000" points="46.5,-135.5 46.5,-165.5 435.5,-165.5 435.5,-135.5 46.5,-135.5"/>
<text text-anchor="start" x="53.5" y="-146.9" font-family="Arial" font-size="14.00" fill="#000000">noofmonths </text>
<text text-anchor="start" x="130.528" y="-146.9" font-family="Arial" font-size="14.00" fill="#666666">[integer]</text>
<polygon fill="none" stroke="#000000" points="46.5,-105.5 46.5,-135.5 435.5,-135.5 435.5,-105.5 46.5,-105.5"/>
<text text-anchor="start" x="53.5" y="-116.9" font-family="Arial" font-size="14.00" fill="#000000">rate </text>
<text text-anchor="start" x="81.507" y="-116.9" font-family="Arial" font-size="14.00" fill="#666666">[numeric(20,5)]</text>
<polygon fill="none" stroke="#000000" points="46.5,-75.5 46.5,-105.5 435.5,-105.5 435.5,-75.5 46.5,-75.5"/>
<text text-anchor="start" x="53.5" y="-86.9" font-family="Arial" font-size="14.00" fill="#000000">qty </text>
<text text-anchor="start" x="76.0638" y="-86.9" font-family="Arial" font-size="14.00" fill="#666666">[numeric(20,5)]</text>
<polygon fill="none" stroke="#000000" points="46.5,-45.5 46.5,-75.5 435.5,-75.5 435.5,-45.5 46.5,-45.5"/>
<text text-anchor="start" x="53.5" y="-56.9" font-family="Arial" font-size="14.00" fill="#000000">amount </text>
<text text-anchor="start" x="104.0722" y="-56.9" font-family="Arial" font-size="14.00" fill="#666666">[numeric(20,5)]</text>
<polygon fill="none" stroke="#000000" stroke-width="3" points="44.5,-44.5 44.5,-352.5 436.5,-352.5 436.5,-44.5 44.5,-44.5"/>
</g>
</g>
</svg>
