<?xml version="1.0" encoding="UTF-8" standalone="no"?>
<!DOCTYPE svg PUBLIC "-//W3C//DTD SVG 1.1//EN"
 "http://www.w3.org/Graphics/SVG/1.1/DTD/svg11.dtd">
<!-- Generated by graphviz version 2.40.1 (20161225.0304)
 -->
<!-- Title: public.sale_receiptdetails Pages: 1 -->
<svg width="442pt" height="315pt"
 viewBox="0.00 0.00 442.00 315.00" xmlns="http://www.w3.org/2000/svg" xmlns:xlink="http://www.w3.org/1999/xlink">
<g id="graph0" class="graph" transform="scale(1 1) rotate(0) translate(4 311)">
<title>public.sale_receiptdetails</title>
<polygon fill="#ffffff" stroke="transparent" points="-4,4 -4,-311 438,-311 438,4 -4,4"/>
<!-- public.sale_receiptdetails -->
<g id="node1" class="node">
<title>public.sale_receiptdetails</title>
<polygon fill="#efefef" stroke="transparent" points="46,-225.5 46,-260.5 388,-260.5 388,-225.5 46,-225.5"/>
<polygon fill="none" stroke="#000000" points="46,-225.5 46,-260.5 388,-260.5 388,-225.5 46,-225.5"/>
<text text-anchor="start" x="52.6968" y="-238.3" font-family="Arial Bold" font-size="18.00" fill="#000000">public.sale_receiptdetails</text>
<text text-anchor="start" x="253.7352" y="-238.3" font-family="Arial" font-size="14.00" fill="#000000">    </text>
<text text-anchor="start" x="287.94" y="-238.3" font-family="Arial" font-size="14.00" fill="#666666">[BASE TABLE]</text>
<polygon fill="none" stroke="#000000" points="46,-195.5 46,-225.5 388,-225.5 388,-195.5 46,-195.5"/>
<text text-anchor="start" x="53" y="-206.9" font-family="Arial" font-size="14.00" fill="#000000">branchid </text>
<text text-anchor="start" x="110.5708" y="-206.9" font-family="Arial" font-size="14.00" fill="#666666">[smallint]</text>
<polygon fill="none" stroke="#000000" points="46,-165.5 46,-195.5 388,-195.5 388,-165.5 46,-165.5"/>
<text text-anchor="start" x="53" y="-176.9" font-family="Arial" font-size="14.00" fill="#000000">salesinvoiceno </text>
<text text-anchor="start" x="148.6886" y="-176.9" font-family="Arial" font-size="14.00" fill="#666666">[varchar(200)]</text>
<polygon fill="none" stroke="#000000" points="46,-135.5 46,-165.5 388,-165.5 388,-135.5 46,-135.5"/>
<text text-anchor="start" x="53" y="-146.9" font-family="Arial" font-size="14.00" fill="#000000">referenceno </text>
<text text-anchor="start" x="131.5806" y="-146.9" font-family="Arial" font-size="14.00" fill="#666666">[varchar(200)]</text>
<polygon fill="none" stroke="#000000" points="46,-105.5 46,-135.5 388,-135.5 388,-105.5 46,-105.5"/>
<text text-anchor="start" x="53" y="-116.9" font-family="Arial" font-size="14.00" fill="#000000">pendingamount </text>
<text text-anchor="start" x="153.3744" y="-116.9" font-family="Arial" font-size="14.00" fill="#666666">[numeric(21,9)]</text>
<polygon fill="none" stroke="#000000" points="46,-75.5 46,-105.5 388,-105.5 388,-75.5 46,-75.5"/>
<text text-anchor="start" x="53" y="-86.9" font-family="Arial" font-size="14.00" fill="#000000">duedate </text>
<text text-anchor="start" x="107.4768" y="-86.9" font-family="Arial" font-size="14.00" fill="#666666">[date]</text>
<polygon fill="none" stroke="#000000" points="46,-45.5 46,-75.5 388,-75.5 388,-45.5 46,-45.5"/>
<text text-anchor="start" x="53" y="-56.9" font-family="Arial" font-size="14.00" fill="#000000">amounttype </text>
<text text-anchor="start" x="130.028" y="-56.9" font-family="Arial" font-size="14.00" fill="#666666">[varchar(20)]</text>
<polygon fill="none" stroke="#000000" stroke-width="3" points="44.5,-44.5 44.5,-262.5 389.5,-262.5 389.5,-44.5 44.5,-44.5"/>
</g>
</g>
</svg>
