<?xml version="1.0" encoding="UTF-8" standalone="no"?>
<!DOCTYPE svg PUBLIC "-//W3C//DTD SVG 1.1//EN"
 "http://www.w3.org/Graphics/SVG/1.1/DTD/svg11.dtd">
<!-- Generated by graphviz version 2.40.1 (20161225.0304)
 -->
<!-- Title: public.stor_storeissuedetail Pages: 1 -->
<svg width="937pt" height="1762pt"
 viewBox="0.00 0.00 937.00 1762.00" xmlns="http://www.w3.org/2000/svg" xmlns:xlink="http://www.w3.org/1999/xlink">
<g id="graph0" class="graph" transform="scale(1 1) rotate(0) translate(4 1758)">
<title>public.stor_storeissuedetail</title>
<polygon fill="#ffffff" stroke="transparent" points="-4,4 -4,-1758 933,-1758 933,4 -4,4"/>
<!-- public.stor_storeissuedetail -->
<g id="node1" class="node">
<title>public.stor_storeissuedetail</title>
<polygon fill="#efefef" stroke="transparent" points="525,-1672.5 525,-1707.5 883,-1707.5 883,-1672.5 525,-1672.5"/>
<polygon fill="none" stroke="#000000" points="525,-1672.5 525,-1707.5 883,-1707.5 883,-1672.5 525,-1672.5"/>
<text text-anchor="start" x="531.6967" y="-1685.3" font-family="Arial Bold" font-size="18.00" fill="#000000">public.stor_storeissuedetail</text>
<text text-anchor="start" x="748.7353" y="-1685.3" font-family="Arial" font-size="14.00" fill="#000000">    </text>
<text text-anchor="start" x="782.9401" y="-1685.3" font-family="Arial" font-size="14.00" fill="#666666">[BASE TABLE]</text>
<polygon fill="none" stroke="#000000" points="525,-1642.5 525,-1672.5 883,-1672.5 883,-1642.5 525,-1642.5"/>
<text text-anchor="start" x="532" y="-1653.9" font-family="Arial" font-size="14.00" fill="#000000">issuedetailid </text>
<text text-anchor="start" x="612.9032" y="-1653.9" font-family="Arial" font-size="14.00" fill="#666666">[integer]</text>
<polygon fill="none" stroke="#000000" points="525,-1612.5 525,-1642.5 883,-1642.5 883,-1612.5 525,-1612.5"/>
<text text-anchor="start" x="532" y="-1623.9" font-family="Arial" font-size="14.00" fill="#000000">issueid </text>
<text text-anchor="start" x="579.4516" y="-1623.9" font-family="Arial" font-size="14.00" fill="#666666">[integer]</text>
<polygon fill="none" stroke="#000000" points="525,-1582.5 525,-1612.5 883,-1612.5 883,-1582.5 525,-1582.5"/>
<text text-anchor="start" x="532" y="-1593.9" font-family="Arial" font-size="14.00" fill="#000000">requisitionid </text>
<text text-anchor="start" x="610.5638" y="-1593.9" font-family="Arial" font-size="14.00" fill="#666666">[integer]</text>
<polygon fill="none" stroke="#000000" points="525,-1552.5 525,-1582.5 883,-1582.5 883,-1552.5 525,-1552.5"/>
<text text-anchor="start" x="532" y="-1563.9" font-family="Arial" font-size="14.00" fill="#000000">requisitiondetailid </text>
<text text-anchor="start" x="644.0154" y="-1563.9" font-family="Arial" font-size="14.00" fill="#666666">[integer]</text>
<polygon fill="none" stroke="#000000" points="525,-1522.5 525,-1552.5 883,-1552.5 883,-1522.5 525,-1522.5"/>
<text text-anchor="start" x="532" y="-1533.9" font-family="Arial" font-size="14.00" fill="#000000">itemid </text>
<text text-anchor="start" x="573.2202" y="-1533.9" font-family="Arial" font-size="14.00" fill="#666666">[integer]</text>
<polygon fill="none" stroke="#000000" points="525,-1492.5 525,-1522.5 883,-1522.5 883,-1492.5 525,-1492.5"/>
<text text-anchor="start" x="532" y="-1503.9" font-family="Arial" font-size="14.00" fill="#000000">baseqty </text>
<text text-anchor="start" x="584.9116" y="-1503.9" font-family="Arial" font-size="14.00" fill="#666666">[numeric(15,5)]</text>
<polygon fill="none" stroke="#000000" points="525,-1462.5 525,-1492.5 883,-1492.5 883,-1462.5 525,-1462.5"/>
<text text-anchor="start" x="532" y="-1473.9" font-family="Arial" font-size="14.00" fill="#000000">altqty </text>
<text text-anchor="start" x="569.3436" y="-1473.9" font-family="Arial" font-size="14.00" fill="#666666">[numeric(15,5)]</text>
<polygon fill="none" stroke="#000000" points="525,-1432.5 525,-1462.5 883,-1462.5 883,-1432.5 525,-1432.5"/>
<text text-anchor="start" x="532" y="-1443.9" font-family="Arial" font-size="14.00" fill="#000000">storeissuetype </text>
<text text-anchor="start" x="626.1346" y="-1443.9" font-family="Arial" font-size="14.00" fill="#666666">[smallint]</text>
<polygon fill="none" stroke="#000000" points="525,-1402.5 525,-1432.5 883,-1432.5 883,-1402.5 525,-1402.5"/>
<text text-anchor="start" x="532" y="-1413.9" font-family="Arial" font-size="14.00" fill="#000000">remarks </text>
<text text-anchor="start" x="586.4376" y="-1413.9" font-family="Arial" font-size="14.00" fill="#666666">[text]</text>
<polygon fill="none" stroke="#000000" points="525,-1372.5 525,-1402.5 883,-1402.5 883,-1372.5 525,-1372.5"/>
<text text-anchor="start" x="532" y="-1383.9" font-family="Arial" font-size="14.00" fill="#000000">costprice </text>
<text text-anchor="start" x="591.8962" y="-1383.9" font-family="Arial" font-size="14.00" fill="#666666">[numeric(17,5)]</text>
<polygon fill="none" stroke="#000000" points="525,-1342.5 525,-1372.5 883,-1372.5 883,-1342.5 525,-1342.5"/>
<text text-anchor="start" x="532" y="-1353.9" font-family="Arial" font-size="14.00" fill="#000000">totalcostprice </text>
<text text-anchor="start" x="618.3492" y="-1353.9" font-family="Arial" font-size="14.00" fill="#666666">[numeric(17,5)]</text>
<polygon fill="none" stroke="#000000" points="525,-1312.5 525,-1342.5 883,-1342.5 883,-1312.5 525,-1312.5"/>
<text text-anchor="start" x="532" y="-1323.9" font-family="Arial" font-size="14.00" fill="#000000">is_cost_updated </text>
<text text-anchor="start" x="637.8218" y="-1323.9" font-family="Arial" font-size="14.00" fill="#666666">[boolean]</text>
<polygon fill="none" stroke="#000000" points="525,-1282.5 525,-1312.5 883,-1312.5 883,-1282.5 525,-1282.5"/>
<text text-anchor="start" x="532" y="-1293.9" font-family="Arial" font-size="14.00" fill="#000000">batchcarddetailid </text>
<text text-anchor="start" x="641.6956" y="-1293.9" font-family="Arial" font-size="14.00" fill="#666666">[integer]</text>
<polygon fill="none" stroke="#000000" points="525,-1252.5 525,-1282.5 883,-1282.5 883,-1252.5 525,-1252.5"/>
<text text-anchor="start" x="532" y="-1263.9" font-family="Arial" font-size="14.00" fill="#000000">soid </text>
<text text-anchor="start" x="561.5624" y="-1263.9" font-family="Arial" font-size="14.00" fill="#666666">[integer]</text>
<polygon fill="none" stroke="#000000" points="525,-1222.5 525,-1252.5 883,-1252.5 883,-1222.5 525,-1222.5"/>
<text text-anchor="start" x="532" y="-1233.9" font-family="Arial" font-size="14.00" fill="#000000">batchcardid </text>
<text text-anchor="start" x="608.244" y="-1233.9" font-family="Arial" font-size="14.00" fill="#666666">[integer]</text>
<polygon fill="none" stroke="#000000" points="525,-1192.5 525,-1222.5 883,-1222.5 883,-1192.5 525,-1192.5"/>
<text text-anchor="start" x="532" y="-1203.9" font-family="Arial" font-size="14.00" fill="#000000">costcenterid </text>
<text text-anchor="start" x="611.352" y="-1203.9" font-family="Arial" font-size="14.00" fill="#666666">[integer]</text>
<polygon fill="none" stroke="#000000" points="525,-1162.5 525,-1192.5 883,-1192.5 883,-1162.5 525,-1162.5"/>
<text text-anchor="start" x="532" y="-1173.9" font-family="Arial" font-size="14.00" fill="#000000">iscostcentercreated </text>
<text text-anchor="start" x="657.251" y="-1173.9" font-family="Arial" font-size="14.00" fill="#666666">[boolean]</text>
<polygon fill="none" stroke="#000000" stroke-width="3" points="523.5,-1161.5 523.5,-1709.5 884.5,-1709.5 884.5,-1161.5 523.5,-1161.5"/>
</g>
<!-- public.stor_storeissue -->
<g id="node2" class="node">
<title>public.stor_storeissue</title>
<polygon fill="#efefef" stroke="transparent" points="531,-1002.5 531,-1037.5 876,-1037.5 876,-1002.5 531,-1002.5"/>
<polygon fill="none" stroke="#000000" points="531,-1002.5 531,-1037.5 876,-1037.5 876,-1002.5 531,-1002.5"/>
<text text-anchor="start" x="552.7013" y="-1015.3" font-family="Arial Bold" font-size="18.00" fill="#000000">public.stor_storeissue</text>
<text text-anchor="start" x="726.7307" y="-1015.3" font-family="Arial" font-size="14.00" fill="#000000">    </text>
<text text-anchor="start" x="760.9355" y="-1015.3" font-family="Arial" font-size="14.00" fill="#666666">[BASE TABLE]</text>
<polygon fill="none" stroke="#000000" points="531,-972.5 531,-1002.5 876,-1002.5 876,-972.5 531,-972.5"/>
<text text-anchor="start" x="538" y="-983.9" font-family="Arial" font-size="14.00" fill="#000000">issueid    </text>
<text text-anchor="start" x="615.7658" y="-983.9" font-family="Arial" font-size="14.00" fill="#666666">[integer]</text>
<polygon fill="none" stroke="#000000" points="531,-942.5 531,-972.5 876,-972.5 876,-942.5 531,-942.5"/>
<text text-anchor="start" x="538" y="-953.9" font-family="Arial" font-size="14.00" fill="#000000">issueno    </text>
<text text-anchor="start" x="620.4418" y="-953.9" font-family="Arial" font-size="14.00" fill="#666666">[varchar(20)]</text>
<polygon fill="none" stroke="#000000" points="531,-912.5 531,-942.5 876,-942.5 876,-912.5 531,-912.5"/>
<text text-anchor="start" x="538" y="-923.9" font-family="Arial" font-size="14.00" fill="#000000">issuedate    </text>
<text text-anchor="start" x="632.115" y="-923.9" font-family="Arial" font-size="14.00" fill="#666666">[date]</text>
<polygon fill="none" stroke="#000000" points="531,-882.5 531,-912.5 876,-912.5 876,-882.5 531,-882.5"/>
<text text-anchor="start" x="538" y="-893.9" font-family="Arial" font-size="14.00" fill="#000000">issueby    </text>
<text text-anchor="start" x="619.6592" y="-893.9" font-family="Arial" font-size="14.00" fill="#666666">[integer]</text>
<polygon fill="none" stroke="#000000" points="531,-852.5 531,-882.5 876,-882.5 876,-852.5 531,-852.5"/>
<text text-anchor="start" x="538" y="-863.9" font-family="Arial" font-size="14.00" fill="#000000">issuebystoreid    </text>
<text text-anchor="start" x="661.6648" y="-863.9" font-family="Arial" font-size="14.00" fill="#666666">[integer]</text>
<polygon fill="none" stroke="#000000" points="531,-822.5 531,-852.5 876,-852.5 876,-822.5 531,-822.5"/>
<text text-anchor="start" x="538" y="-833.9" font-family="Arial" font-size="14.00" fill="#000000">issuebystageid    </text>
<text text-anchor="start" x="664.7868" y="-833.9" font-family="Arial" font-size="14.00" fill="#666666">[integer]</text>
<polygon fill="none" stroke="#000000" points="531,-792.5 531,-822.5 876,-822.5 876,-792.5 531,-792.5"/>
<text text-anchor="start" x="538" y="-803.9" font-family="Arial" font-size="14.00" fill="#000000">requisitionid    </text>
<text text-anchor="start" x="646.878" y="-803.9" font-family="Arial" font-size="14.00" fill="#666666">[integer]</text>
<polygon fill="none" stroke="#000000" points="531,-762.5 531,-792.5 876,-792.5 876,-762.5 531,-762.5"/>
<text text-anchor="start" x="538" y="-773.9" font-family="Arial" font-size="14.00" fill="#000000">createdby    </text>
<text text-anchor="start" x="633.669" y="-773.9" font-family="Arial" font-size="14.00" fill="#666666">[integer]</text>
<polygon fill="none" stroke="#000000" points="531,-732.5 531,-762.5 876,-762.5 876,-732.5 531,-732.5"/>
<text text-anchor="start" x="538" y="-743.9" font-family="Arial" font-size="14.00" fill="#000000">branchid    </text>
<text text-anchor="start" x="625.885" y="-743.9" font-family="Arial" font-size="14.00" fill="#666666">[integer]</text>
<polygon fill="none" stroke="#000000" points="531,-702.5 531,-732.5 876,-732.5 876,-702.5 531,-702.5"/>
<text text-anchor="start" x="538" y="-713.9" font-family="Arial" font-size="14.00" fill="#000000">isauthorized    </text>
<text text-anchor="start" x="647.6648" y="-713.9" font-family="Arial" font-size="14.00" fill="#666666">[boolean]</text>
<polygon fill="none" stroke="#000000" points="531,-672.5 531,-702.5 876,-702.5 876,-672.5 531,-672.5"/>
<text text-anchor="start" x="538" y="-683.9" font-family="Arial" font-size="14.00" fill="#000000">authorizedon    </text>
<text text-anchor="start" x="653.1234" y="-683.9" font-family="Arial" font-size="14.00" fill="#666666">[timestamp without time zone]</text>
<polygon fill="none" stroke="#000000" points="531,-642.5 531,-672.5 876,-672.5 876,-642.5 531,-642.5"/>
<text text-anchor="start" x="538" y="-653.9" font-family="Arial" font-size="14.00" fill="#000000">authorizedby    </text>
<text text-anchor="start" x="652.3408" y="-653.9" font-family="Arial" font-size="14.00" fill="#666666">[integer]</text>
<polygon fill="none" stroke="#000000" points="531,-612.5 531,-642.5 876,-642.5 876,-612.5 531,-612.5"/>
<text text-anchor="start" x="538" y="-623.9" font-family="Arial" font-size="14.00" fill="#000000">iscancelled    </text>
<text text-anchor="start" x="641.4376" y="-623.9" font-family="Arial" font-size="14.00" fill="#666666">[boolean]</text>
<polygon fill="none" stroke="#000000" points="531,-582.5 531,-612.5 876,-612.5 876,-582.5 531,-582.5"/>
<text text-anchor="start" x="538" y="-593.9" font-family="Arial" font-size="14.00" fill="#000000">seriesno    </text>
<text text-anchor="start" x="625.1024" y="-593.9" font-family="Arial" font-size="14.00" fill="#666666">[integer]</text>
<polygon fill="none" stroke="#000000" points="531,-552.5 531,-582.5 876,-582.5 876,-552.5 531,-552.5"/>
<text text-anchor="start" x="538" y="-563.9" font-family="Arial" font-size="14.00" fill="#000000">seriescode    </text>
<text text-anchor="start" x="639.885" y="-563.9" font-family="Arial" font-size="14.00" fill="#666666">[varchar(50)]</text>
<polygon fill="none" stroke="#000000" points="531,-522.5 531,-552.5 876,-552.5 876,-522.5 531,-522.5"/>
<text text-anchor="start" x="538" y="-533.9" font-family="Arial" font-size="14.00" fill="#000000">isopeningstock    </text>
<text text-anchor="start" x="664.7868" y="-533.9" font-family="Arial" font-size="14.00" fill="#666666">[boolean]</text>
<polygon fill="none" stroke="#000000" points="531,-492.5 531,-522.5 876,-522.5 876,-492.5 531,-492.5"/>
<text text-anchor="start" x="538" y="-503.9" font-family="Arial" font-size="14.00" fill="#000000">issuedtostageid    </text>
<text text-anchor="start" x="669.46" y="-503.9" font-family="Arial" font-size="14.00" fill="#666666">[integer]</text>
<polygon fill="none" stroke="#000000" points="531,-462.5 531,-492.5 876,-492.5 876,-462.5 531,-462.5"/>
<text text-anchor="start" x="538" y="-473.9" font-family="Arial" font-size="14.00" fill="#000000">storeissuetype    </text>
<text text-anchor="start" x="662.4488" y="-473.9" font-family="Arial" font-size="14.00" fill="#666666">[smallint]</text>
<polygon fill="none" stroke="#000000" points="531,-432.5 531,-462.5 876,-462.5 876,-432.5 531,-432.5"/>
<text text-anchor="start" x="538" y="-443.9" font-family="Arial" font-size="14.00" fill="#000000">editlog    </text>
<text text-anchor="start" x="613.439" y="-443.9" font-family="Arial" font-size="14.00" fill="#666666">[text]</text>
<polygon fill="none" stroke="#000000" points="531,-402.5 531,-432.5 876,-432.5 876,-402.5 531,-402.5"/>
<text text-anchor="start" x="538" y="-413.9" font-family="Arial" font-size="14.00" fill="#000000">createdon    </text>
<text text-anchor="start" x="634.4516" y="-413.9" font-family="Arial" font-size="14.00" fill="#666666">[timestamp without time zone]</text>
<polygon fill="none" stroke="#000000" points="531,-372.5 531,-402.5 876,-402.5 876,-372.5 531,-372.5"/>
<text text-anchor="start" x="538" y="-383.9" font-family="Arial" font-size="14.00" fill="#000000">seriesid    </text>
<text text-anchor="start" x="620.4264" y="-383.9" font-family="Arial" font-size="14.00" fill="#666666">[integer]</text>
<polygon fill="none" stroke="#000000" points="531,-342.5 531,-372.5 876,-372.5 876,-342.5 531,-342.5"/>
<text text-anchor="start" x="538" y="-353.9" font-family="Arial" font-size="14.00" fill="#000000">headauthorizedby    </text>
<text text-anchor="start" x="683.4712" y="-353.9" font-family="Arial" font-size="14.00" fill="#666666">[integer]</text>
<polygon fill="none" stroke="#000000" points="531,-312.5 531,-342.5 876,-342.5 876,-312.5 531,-312.5"/>
<text text-anchor="start" x="537.803" y="-323.9" font-family="Arial" font-size="14.00" fill="#000000">headauthorizedon    </text>
<text text-anchor="start" x="684.0568" y="-323.9" font-family="Arial" font-size="14.00" fill="#666666">[timestamp without time zone]</text>
<polygon fill="none" stroke="#000000" points="531,-282.5 531,-312.5 876,-312.5 876,-282.5 531,-282.5"/>
<text text-anchor="start" x="538" y="-293.9" font-family="Arial" font-size="14.00" fill="#000000">seriesvouchertype    </text>
<text text-anchor="start" x="685.784" y="-293.9" font-family="Arial" font-size="14.00" fill="#666666">[integer]</text>
<polygon fill="none" stroke="#000000" points="531,-252.5 531,-282.5 876,-282.5 876,-252.5 531,-252.5"/>
<text text-anchor="start" x="538" y="-263.9" font-family="Arial" font-size="14.00" fill="#000000">batchno    </text>
<text text-anchor="start" x="622.0084" y="-263.9" font-family="Arial" font-size="14.00" fill="#666666">[varchar(50)]</text>
<polygon fill="none" stroke="#000000" points="531,-222.5 531,-252.5 876,-252.5 876,-222.5 531,-222.5"/>
<text text-anchor="start" x="538" y="-233.9" font-family="Arial" font-size="14.00" fill="#000000">departmentid    </text>
<text text-anchor="start" x="653.892" y="-233.9" font-family="Arial" font-size="14.00" fill="#666666">[integer]</text>
<polygon fill="none" stroke="#000000" points="531,-192.5 531,-222.5 876,-222.5 876,-192.5 531,-192.5"/>
<text text-anchor="start" x="538" y="-203.9" font-family="Arial" font-size="14.00" fill="#000000">machineid    </text>
<text text-anchor="start" x="635.9916" y="-203.9" font-family="Arial" font-size="14.00" fill="#666666">[integer]</text>
<polygon fill="none" stroke="#000000" points="531,-162.5 531,-192.5 876,-192.5 876,-162.5 531,-162.5"/>
<text text-anchor="start" x="538" y="-173.9" font-family="Arial" font-size="14.00" fill="#000000">lastedittime    </text>
<text text-anchor="start" x="642.9874" y="-173.9" font-family="Arial" font-size="14.00" fill="#666666">[timestamp without time zone]</text>
<polygon fill="none" stroke="#000000" points="531,-132.5 531,-162.5 876,-162.5 876,-132.5 531,-132.5"/>
<text text-anchor="start" x="538" y="-143.9" font-family="Arial" font-size="14.00" fill="#000000">formid    </text>
<text text-anchor="start" x="611.0884" y="-143.9" font-family="Arial" font-size="14.00" fill="#666666">[integer]</text>
<polygon fill="none" stroke="#000000" points="531,-102.5 531,-132.5 876,-132.5 876,-102.5 531,-102.5"/>
<text text-anchor="start" x="538" y="-113.9" font-family="Arial" font-size="14.00" fill="#000000">isstock    </text>
<text text-anchor="start" x="614.9846" y="-113.9" font-family="Arial" font-size="14.00" fill="#666666">[boolean]</text>
<polygon fill="none" stroke="#000000" points="531,-72.5 531,-102.5 876,-102.5 876,-72.5 531,-72.5"/>
<text text-anchor="start" x="538" y="-83.9" font-family="Arial" font-size="14.00" fill="#000000">updatedby    </text>
<text text-anchor="start" x="637.5736" y="-83.9" font-family="Arial" font-size="14.00" fill="#666666">[integer]</text>
<polygon fill="none" stroke="#000000" points="531,-42.5 531,-72.5 876,-72.5 876,-42.5 531,-42.5"/>
<text text-anchor="start" x="538" y="-53.9" font-family="Arial" font-size="14.00" fill="#000000">updatedon    </text>
<text text-anchor="start" x="638.3562" y="-53.9" font-family="Arial" font-size="14.00" fill="#666666">[timestamp(6) without time zone]</text>
</g>
<!-- public.stor_storeissuedetail&#45;&gt;public.stor_storeissue -->
<g id="edge1" class="edge">
<title>public.stor_storeissuedetail:issueid&#45;&gt;public.stor_storeissue:issueid</title>
<path fill="none" stroke="#000000" d="M514.8032,-1626.2746C413.9326,-1601.1909 451.3604,-1198.5786 525,-1117 577.5392,-1058.7966 823.4608,-1139.2034 876,-1081 903.8449,-1050.1532 917.5556,-987.5 876,-987.5"/>
<polygon fill="#000000" stroke="#000000" points="515.0714,-1626.3067 524.463,-1631.9679 520.0357,-1626.9034 525,-1627.5 525,-1627.5 525,-1627.5 520.0357,-1626.9034 525.537,-1623.0321 515.0714,-1626.3067 515.0714,-1626.3067"/>
<text text-anchor="start" x="7.4375" y="-1637.5" font-family="Arial" font-size="10.00" fill="#000000">FOREIGN KEY (issueid) REFERENCES stor_storeissue(issueid) ON UPDATE CASCADE ON DELETE CASCADE</text>
</g>
</g>
</svg>
