<?xml version="1.0" encoding="UTF-8" standalone="no"?>
<!DOCTYPE svg PUBLIC "-//W3C//DTD SVG 1.1//EN"
 "http://www.w3.org/Graphics/SVG/1.1/DTD/svg11.dtd">
<!-- Generated by graphviz version 2.40.1 (20161225.0304)
 -->
<!-- Title: public.fa_rcdetail Pages: 1 -->
<svg width="376pt" height="345pt"
 viewBox="0.00 0.00 376.00 345.00" xmlns="http://www.w3.org/2000/svg" xmlns:xlink="http://www.w3.org/1999/xlink">
<g id="graph0" class="graph" transform="scale(1 1) rotate(0) translate(4 341)">
<title>public.fa_rcdetail</title>
<polygon fill="#ffffff" stroke="transparent" points="-4,4 -4,-341 372,-341 372,4 -4,4"/>
<!-- public.fa_rcdetail -->
<g id="node1" class="node">
<title>public.fa_rcdetail</title>
<polygon fill="#efefef" stroke="transparent" points="46,-255.5 46,-290.5 322,-290.5 322,-255.5 46,-255.5"/>
<polygon fill="none" stroke="#000000" points="46,-255.5 46,-290.5 322,-290.5 322,-255.5 46,-255.5"/>
<text text-anchor="start" x="52.7034" y="-268.3" font-family="Arial Bold" font-size="18.00" fill="#000000">public.fa_rcdetail</text>
<text text-anchor="start" x="187.7286" y="-268.3" font-family="Arial" font-size="14.00" fill="#000000">    </text>
<text text-anchor="start" x="221.9334" y="-268.3" font-family="Arial" font-size="14.00" fill="#666666">[BASE TABLE]</text>
<polygon fill="none" stroke="#000000" points="46,-225.5 46,-255.5 322,-255.5 322,-225.5 46,-225.5"/>
<text text-anchor="start" x="53" y="-236.9" font-family="Arial" font-size="14.00" fill="#000000">rcid </text>
<text text-anchor="start" x="79.4404" y="-236.9" font-family="Arial" font-size="14.00" fill="#666666">[integer]</text>
<polygon fill="none" stroke="#000000" points="46,-195.5 46,-225.5 322,-225.5 322,-195.5 46,-195.5"/>
<text text-anchor="start" x="53" y="-206.9" font-family="Arial" font-size="14.00" fill="#000000">assetid </text>
<text text-anchor="start" x="101.2356" y="-206.9" font-family="Arial" font-size="14.00" fill="#666666">[integer]</text>
<polygon fill="none" stroke="#000000" points="46,-165.5 46,-195.5 322,-195.5 322,-165.5 46,-165.5"/>
<text text-anchor="start" x="53" y="-176.9" font-family="Arial" font-size="14.00" fill="#000000">fitness </text>
<text text-anchor="start" x="97.3436" y="-176.9" font-family="Arial" font-size="14.00" fill="#666666">[numeric(8,2)]</text>
<polygon fill="none" stroke="#000000" points="46,-135.5 46,-165.5 322,-165.5 322,-135.5 46,-135.5"/>
<text text-anchor="start" x="53" y="-146.9" font-family="Arial" font-size="14.00" fill="#000000">fitnessexpirydate </text>
<text text-anchor="start" x="161.9144" y="-146.9" font-family="Arial" font-size="14.00" fill="#666666">[date]</text>
<polygon fill="none" stroke="#000000" points="46,-105.5 46,-135.5 322,-135.5 322,-105.5 46,-105.5"/>
<text text-anchor="start" x="53" y="-116.9" font-family="Arial" font-size="14.00" fill="#000000">roadtax </text>
<text text-anchor="start" x="103.5722" y="-116.9" font-family="Arial" font-size="14.00" fill="#666666">[numeric(8,2)]</text>
<polygon fill="none" stroke="#000000" points="46,-75.5 46,-105.5 322,-105.5 322,-75.5 46,-75.5"/>
<text text-anchor="start" x="53" y="-86.9" font-family="Arial" font-size="14.00" fill="#000000">rtexpirydate </text>
<text text-anchor="start" x="130.0126" y="-86.9" font-family="Arial" font-size="14.00" fill="#666666">[date]</text>
<polygon fill="none" stroke="#000000" points="46,-45.5 46,-75.5 322,-75.5 322,-45.5 46,-45.5"/>
<text text-anchor="start" x="53" y="-56.9" font-family="Arial" font-size="14.00" fill="#000000">permit </text>
<text text-anchor="start" x="95.7742" y="-56.9" font-family="Arial" font-size="14.00" fill="#666666">[integer]</text>
<polygon fill="none" stroke="#000000" stroke-width="3" points="44.5,-44.5 44.5,-292.5 323.5,-292.5 323.5,-44.5 44.5,-44.5"/>
</g>
</g>
</svg>
