<?xml version="1.0" encoding="UTF-8" standalone="no"?>
<!DOCTYPE svg PUBLIC "-//W3C//DTD SVG 1.1//EN"
 "http://www.w3.org/Graphics/SVG/1.1/DTD/svg11.dtd">
<!-- Generated by graphviz version 2.40.1 (20161225.0304)
 -->
<!-- Title: public.tmp_production_issue Pages: 1 -->
<svg width="469pt" height="255pt"
 viewBox="0.00 0.00 469.00 255.00" xmlns="http://www.w3.org/2000/svg" xmlns:xlink="http://www.w3.org/1999/xlink">
<g id="graph0" class="graph" transform="scale(1 1) rotate(0) translate(4 251)">
<title>public.tmp_production_issue</title>
<polygon fill="#ffffff" stroke="transparent" points="-4,4 -4,-251 465,-251 465,4 -4,4"/>
<!-- public.tmp_production_issue -->
<g id="node1" class="node">
<title>public.tmp_production_issue</title>
<polygon fill="#efefef" stroke="transparent" points="46.5,-165.5 46.5,-200.5 415.5,-200.5 415.5,-165.5 46.5,-165.5"/>
<polygon fill="none" stroke="#000000" points="46.5,-165.5 46.5,-200.5 415.5,-200.5 415.5,-165.5 46.5,-165.5"/>
<text text-anchor="start" x="53.1887" y="-178.3" font-family="Arial Bold" font-size="18.00" fill="#000000">public.tmp_production_issue</text>
<text text-anchor="start" x="281.2433" y="-178.3" font-family="Arial" font-size="14.00" fill="#000000">    </text>
<text text-anchor="start" x="315.4481" y="-178.3" font-family="Arial" font-size="14.00" fill="#666666">[BASE TABLE]</text>
<polygon fill="none" stroke="#000000" points="46.5,-135.5 46.5,-165.5 415.5,-165.5 415.5,-135.5 46.5,-135.5"/>
<text text-anchor="start" x="53.5" y="-146.9" font-family="Arial" font-size="14.00" fill="#000000">itemid </text>
<text text-anchor="start" x="94.7202" y="-146.9" font-family="Arial" font-size="14.00" fill="#666666">[integer]</text>
<polygon fill="none" stroke="#000000" points="46.5,-105.5 46.5,-135.5 415.5,-135.5 415.5,-105.5 46.5,-105.5"/>
<text text-anchor="start" x="53.5" y="-116.9" font-family="Arial" font-size="14.00" fill="#000000">stageid </text>
<text text-anchor="start" x="102.5182" y="-116.9" font-family="Arial" font-size="14.00" fill="#666666">[integer]</text>
<polygon fill="none" stroke="#000000" points="46.5,-75.5 46.5,-105.5 415.5,-105.5 415.5,-75.5 46.5,-75.5"/>
<text text-anchor="start" x="53.5" y="-86.9" font-family="Arial" font-size="14.00" fill="#000000">issuedbaseqty </text>
<text text-anchor="start" x="146.866" y="-86.9" font-family="Arial" font-size="14.00" fill="#666666">[numeric(12,4)]</text>
<polygon fill="none" stroke="#000000" points="46.5,-45.5 46.5,-75.5 415.5,-75.5 415.5,-45.5 46.5,-45.5"/>
<text text-anchor="start" x="53.5" y="-56.9" font-family="Arial" font-size="14.00" fill="#000000">issuedaltqty </text>
<text text-anchor="start" x="131.298" y="-56.9" font-family="Arial" font-size="14.00" fill="#666666">[numeric(12,4)]</text>
<polygon fill="none" stroke="#000000" stroke-width="3" points="44.5,-44.5 44.5,-202.5 416.5,-202.5 416.5,-44.5 44.5,-44.5"/>
</g>
</g>
</svg>
