<?xml version="1.0" encoding="UTF-8" standalone="no"?>
<!DOCTYPE svg PUBLIC "-//W3C//DTD SVG 1.1//EN"
 "http://www.w3.org/Graphics/SVG/1.1/DTD/svg11.dtd">
<!-- Generated by graphviz version 2.40.1 (20161225.0304)
 -->
<!-- Title: public.fa_deprateconfiguration Pages: 1 -->
<svg width="482pt" height="495pt"
 viewBox="0.00 0.00 482.00 495.00" xmlns="http://www.w3.org/2000/svg" xmlns:xlink="http://www.w3.org/1999/xlink">
<g id="graph0" class="graph" transform="scale(1 1) rotate(0) translate(4 491)">
<title>public.fa_deprateconfiguration</title>
<polygon fill="#ffffff" stroke="transparent" points="-4,4 -4,-491 478,-491 478,4 -4,4"/>
<!-- public.fa_deprateconfiguration -->
<g id="node1" class="node">
<title>public.fa_deprateconfiguration</title>
<polygon fill="#efefef" stroke="transparent" points="46,-405.5 46,-440.5 428,-440.5 428,-405.5 46,-405.5"/>
<polygon fill="none" stroke="#000000" points="46,-405.5 46,-440.5 428,-440.5 428,-405.5 46,-405.5"/>
<text text-anchor="start" x="52.6772" y="-418.3" font-family="Arial Bold" font-size="18.00" fill="#000000">public.fa_deprateconfiguration</text>
<text text-anchor="start" x="293.7548" y="-418.3" font-family="Arial" font-size="14.00" fill="#000000">    </text>
<text text-anchor="start" x="327.9596" y="-418.3" font-family="Arial" font-size="14.00" fill="#666666">[BASE TABLE]</text>
<polygon fill="none" stroke="#000000" points="46,-375.5 46,-405.5 428,-405.5 428,-375.5 46,-375.5"/>
<text text-anchor="start" x="53" y="-386.9" font-family="Arial" font-size="14.00" fill="#000000">detailid </text>
<text text-anchor="start" x="101.2314" y="-386.9" font-family="Arial" font-size="14.00" fill="#666666">[integer]</text>
<polygon fill="none" stroke="#000000" points="46,-345.5 46,-375.5 428,-375.5 428,-345.5 46,-345.5"/>
<text text-anchor="start" x="53" y="-356.9" font-family="Arial" font-size="14.00" fill="#000000">assetid </text>
<text text-anchor="start" x="101.2356" y="-356.9" font-family="Arial" font-size="14.00" fill="#666666">[integer]</text>
<polygon fill="none" stroke="#000000" points="46,-315.5 46,-345.5 428,-345.5 428,-315.5 46,-315.5"/>
<text text-anchor="start" x="53" y="-326.9" font-family="Arial" font-size="14.00" fill="#000000">assetcost </text>
<text text-anchor="start" x="116.0196" y="-326.9" font-family="Arial" font-size="14.00" fill="#666666">[numeric(21,3)]</text>
<polygon fill="none" stroke="#000000" points="46,-285.5 46,-315.5 428,-315.5 428,-285.5 46,-285.5"/>
<text text-anchor="start" x="53" y="-296.9" font-family="Arial" font-size="14.00" fill="#000000">lifeofasset </text>
<text text-anchor="start" x="119.906" y="-296.9" font-family="Arial" font-size="14.00" fill="#666666">[numeric(15,2)]</text>
<polygon fill="none" stroke="#000000" points="46,-255.5 46,-285.5 428,-285.5 428,-255.5 46,-255.5"/>
<text text-anchor="start" x="53" y="-266.9" font-family="Arial" font-size="14.00" fill="#000000">slmrate </text>
<text text-anchor="start" x="102.7742" y="-266.9" font-family="Arial" font-size="14.00" fill="#666666">[numeric(21,3)]</text>
<polygon fill="none" stroke="#000000" points="46,-225.5 46,-255.5 428,-255.5 428,-225.5 46,-225.5"/>
<text text-anchor="start" x="53" y="-236.9" font-family="Arial" font-size="14.00" fill="#000000">wdvrate </text>
<text text-anchor="start" x="105.8962" y="-236.9" font-family="Arial" font-size="14.00" fill="#666666">[numeric(21,3)]</text>
<polygon fill="none" stroke="#000000" points="46,-195.5 46,-225.5 428,-225.5 428,-195.5 46,-195.5"/>
<text text-anchor="start" x="53" y="-206.9" font-family="Arial" font-size="14.00" fill="#000000">salvagevalue </text>
<text text-anchor="start" x="138.582" y="-206.9" font-family="Arial" font-size="14.00" fill="#666666">[numeric(21,3)]</text>
<polygon fill="none" stroke="#000000" points="46,-165.5 46,-195.5 428,-195.5 428,-165.5 46,-165.5"/>
<text text-anchor="start" x="53" y="-176.9" font-family="Arial" font-size="14.00" fill="#000000">applicabledate </text>
<text text-anchor="start" x="147.1444" y="-176.9" font-family="Arial" font-size="14.00" fill="#666666">[date]</text>
<polygon fill="none" stroke="#000000" points="46,-135.5 46,-165.5 428,-165.5 428,-135.5 46,-135.5"/>
<text text-anchor="start" x="53" y="-146.9" font-family="Arial" font-size="14.00" fill="#000000">isauthorized </text>
<text text-anchor="start" x="132.3506" y="-146.9" font-family="Arial" font-size="14.00" fill="#666666">[boolean]</text>
<polygon fill="none" stroke="#000000" points="46,-105.5 46,-135.5 428,-135.5 428,-105.5 46,-105.5"/>
<text text-anchor="start" x="53" y="-116.9" font-family="Arial" font-size="14.00" fill="#000000">iscancelled </text>
<text text-anchor="start" x="126.1234" y="-116.9" font-family="Arial" font-size="14.00" fill="#666666">[boolean]</text>
<polygon fill="none" stroke="#000000" points="46,-75.5 46,-105.5 428,-105.5 428,-75.5 46,-75.5"/>
<text text-anchor="start" x="53" y="-86.9" font-family="Arial" font-size="14.00" fill="#000000">enddate </text>
<text text-anchor="start" x="107.4768" y="-86.9" font-family="Arial" font-size="14.00" fill="#666666">[date]</text>
<polygon fill="none" stroke="#000000" points="46,-45.5 46,-75.5 428,-75.5 428,-45.5 46,-45.5"/>
<text text-anchor="start" x="53" y="-56.9" font-family="Arial" font-size="14.00" fill="#000000">currentvaluecompact </text>
<text text-anchor="start" x="186.8036" y="-56.9" font-family="Arial" font-size="14.00" fill="#666666">[numeric(21,3)]</text>
<polygon fill="none" stroke="#000000" stroke-width="3" points="44.5,-44.5 44.5,-442.5 429.5,-442.5 429.5,-44.5 44.5,-44.5"/>
</g>
</g>
</svg>
