<?xml version="1.0" encoding="UTF-8" standalone="no"?>
<!DOCTYPE svg PUBLIC "-//W3C//DTD SVG 1.1//EN"
 "http://www.w3.org/Graphics/SVG/1.1/DTD/svg11.dtd">
<!-- Generated by graphviz version 2.40.1 (20161225.0304)
 -->
<!-- Title: public.sec_inwardprocessenability Pages: 1 -->
<svg width="513pt" height="345pt"
 viewBox="0.00 0.00 513.00 345.00" xmlns="http://www.w3.org/2000/svg" xmlns:xlink="http://www.w3.org/1999/xlink">
<g id="graph0" class="graph" transform="scale(1 1) rotate(0) translate(4 341)">
<title>public.sec_inwardprocessenability</title>
<polygon fill="#ffffff" stroke="transparent" points="-4,4 -4,-341 509,-341 509,4 -4,4"/>
<!-- public.sec_inwardprocessenability -->
<g id="node1" class="node">
<title>public.sec_inwardprocessenability</title>
<polygon fill="#efefef" stroke="transparent" points="46.5,-255.5 46.5,-290.5 459.5,-290.5 459.5,-255.5 46.5,-255.5"/>
<polygon fill="none" stroke="#000000" points="46.5,-255.5 46.5,-290.5 459.5,-290.5 459.5,-255.5 46.5,-255.5"/>
<text text-anchor="start" x="53.1954" y="-268.3" font-family="Arial Bold" font-size="18.00" fill="#000000">public.sec_inwardprocessenability</text>
<text text-anchor="start" x="325.2366" y="-268.3" font-family="Arial" font-size="14.00" fill="#000000">    </text>
<text text-anchor="start" x="359.4414" y="-268.3" font-family="Arial" font-size="14.00" fill="#666666">[BASE TABLE]</text>
<polygon fill="none" stroke="#000000" points="46.5,-225.5 46.5,-255.5 459.5,-255.5 459.5,-225.5 46.5,-225.5"/>
<text text-anchor="start" x="53.5" y="-236.9" font-family="Arial" font-size="14.00" fill="#000000">autoid </text>
<text text-anchor="start" x="95.5182" y="-236.9" font-family="Arial" font-size="14.00" fill="#666666">[integer]</text>
<polygon fill="none" stroke="#000000" points="46.5,-195.5 46.5,-225.5 459.5,-225.5 459.5,-195.5 46.5,-195.5"/>
<text text-anchor="start" x="53.5" y="-206.9" font-family="Arial" font-size="14.00" fill="#000000">branchid </text>
<text text-anchor="start" x="111.0708" y="-206.9" font-family="Arial" font-size="14.00" fill="#666666">[integer]</text>
<polygon fill="none" stroke="#000000" points="46.5,-165.5 46.5,-195.5 459.5,-195.5 459.5,-165.5 46.5,-165.5"/>
<text text-anchor="start" x="53.5" y="-176.9" font-family="Arial" font-size="14.00" fill="#000000">challantypeid </text>
<text text-anchor="start" x="139.0792" y="-176.9" font-family="Arial" font-size="14.00" fill="#666666">[integer]</text>
<polygon fill="none" stroke="#000000" points="46.5,-135.5 46.5,-165.5 459.5,-165.5 459.5,-135.5 46.5,-135.5"/>
<text text-anchor="start" x="53.5" y="-146.9" font-family="Arial" font-size="14.00" fill="#000000">challanname </text>
<text text-anchor="start" x="136.7426" y="-146.9" font-family="Arial" font-size="14.00" fill="#666666">[varchar(200)]</text>
<polygon fill="none" stroke="#000000" points="46.5,-105.5 46.5,-135.5 459.5,-135.5 459.5,-105.5 46.5,-105.5"/>
<text text-anchor="start" x="53.5" y="-116.9" font-family="Arial" font-size="14.00" fill="#000000">ibm_required </text>
<text text-anchor="start" x="139.0638" y="-116.9" font-family="Arial" font-size="14.00" fill="#666666">[boolean]</text>
<polygon fill="none" stroke="#000000" points="46.5,-75.5 46.5,-105.5 459.5,-105.5 459.5,-75.5 46.5,-75.5"/>
<text text-anchor="start" x="53.5" y="-86.9" font-family="Arial" font-size="14.00" fill="#000000">mrn_required </text>
<text text-anchor="start" x="140.6178" y="-86.9" font-family="Arial" font-size="14.00" fill="#666666">[boolean]</text>
<polygon fill="none" stroke="#000000" points="46.5,-45.5 46.5,-75.5 459.5,-75.5 459.5,-45.5 46.5,-45.5"/>
<text text-anchor="start" x="53.5" y="-56.9" font-family="Arial" font-size="14.00" fill="#000000">iam_required </text>
<text text-anchor="start" x="139.0638" y="-56.9" font-family="Arial" font-size="14.00" fill="#666666">[boolean]</text>
<polygon fill="none" stroke="#000000" stroke-width="3" points="44.5,-44.5 44.5,-292.5 460.5,-292.5 460.5,-44.5 44.5,-44.5"/>
</g>
</g>
</svg>
