<?xml version="1.0" encoding="UTF-8" standalone="no"?>
<!DOCTYPE svg PUBLIC "-//W3C//DTD SVG 1.1//EN"
 "http://www.w3.org/Graphics/SVG/1.1/DTD/svg11.dtd">
<!-- Generated by graphviz version 2.40.1 (20161225.0304)
 -->
<!-- Title: public.sale_commitmentfielddetail Pages: 1 -->
<svg width="510pt" height="255pt"
 viewBox="0.00 0.00 510.00 255.00" xmlns="http://www.w3.org/2000/svg" xmlns:xlink="http://www.w3.org/1999/xlink">
<g id="graph0" class="graph" transform="scale(1 1) rotate(0) translate(4 251)">
<title>public.sale_commitmentfielddetail</title>
<polygon fill="#ffffff" stroke="transparent" points="-4,4 -4,-251 506,-251 506,4 -4,4"/>
<!-- public.sale_commitmentfielddetail -->
<g id="node1" class="node">
<title>public.sale_commitmentfielddetail</title>
<polygon fill="#efefef" stroke="transparent" points="46,-165.5 46,-200.5 456,-200.5 456,-165.5 46,-165.5"/>
<polygon fill="none" stroke="#000000" points="46,-165.5 46,-200.5 456,-200.5 456,-165.5 46,-165.5"/>
<text text-anchor="start" x="52.702" y="-178.3" font-family="Arial Bold" font-size="18.00" fill="#000000">public.sale_commitmentfielddetail</text>
<text text-anchor="start" x="321.73" y="-178.3" font-family="Arial" font-size="14.00" fill="#000000">    </text>
<text text-anchor="start" x="355.9348" y="-178.3" font-family="Arial" font-size="14.00" fill="#666666">[BASE TABLE]</text>
<polygon fill="none" stroke="#000000" points="46,-135.5 46,-165.5 456,-165.5 456,-135.5 46,-135.5"/>
<text text-anchor="start" x="53" y="-146.9" font-family="Arial" font-size="14.00" fill="#000000">commitmentfielddetailid </text>
<text text-anchor="start" x="203.1178" y="-146.9" font-family="Arial" font-size="14.00" fill="#666666">[integer]</text>
<polygon fill="none" stroke="#000000" points="46,-105.5 46,-135.5 456,-135.5 456,-105.5 46,-105.5"/>
<text text-anchor="start" x="53" y="-116.9" font-family="Arial" font-size="14.00" fill="#000000">commitmentid </text>
<text text-anchor="start" x="143.9972" y="-116.9" font-family="Arial" font-size="14.00" fill="#666666">[integer]</text>
<polygon fill="none" stroke="#000000" points="46,-75.5 46,-105.5 456,-105.5 456,-75.5 46,-75.5"/>
<text text-anchor="start" x="53" y="-86.9" font-family="Arial" font-size="14.00" fill="#000000">fieldid </text>
<text text-anchor="start" x="93.4488" y="-86.9" font-family="Arial" font-size="14.00" fill="#666666">[integer]</text>
<polygon fill="none" stroke="#000000" points="46,-45.5 46,-75.5 456,-75.5 456,-45.5 46,-45.5"/>
<text text-anchor="start" x="53" y="-56.9" font-family="Arial" font-size="14.00" fill="#000000">fieldvalue </text>
<text text-anchor="start" x="116.014" y="-56.9" font-family="Arial" font-size="14.00" fill="#666666">[text]</text>
<polygon fill="none" stroke="#000000" stroke-width="3" points="44.5,-44.5 44.5,-202.5 457.5,-202.5 457.5,-44.5 44.5,-44.5"/>
</g>
</g>
</svg>
