<?xml version="1.0" encoding="UTF-8" standalone="no"?>
<!DOCTYPE svg PUBLIC "-//W3C//DTD SVG 1.1//EN"
 "http://www.w3.org/Graphics/SVG/1.1/DTD/svg11.dtd">
<!-- Generated by graphviz version 2.40.1 (20161225.0304)
 -->
<!-- Title: public.prod_costsheetdetail Pages: 1 -->
<svg width="459pt" height="585pt"
 viewBox="0.00 0.00 459.00 585.00" xmlns="http://www.w3.org/2000/svg" xmlns:xlink="http://www.w3.org/1999/xlink">
<g id="graph0" class="graph" transform="scale(1 1) rotate(0) translate(4 581)">
<title>public.prod_costsheetdetail</title>
<polygon fill="#ffffff" stroke="transparent" points="-4,4 -4,-581 455,-581 455,4 -4,4"/>
<!-- public.prod_costsheetdetail -->
<g id="node1" class="node">
<title>public.prod_costsheetdetail</title>
<polygon fill="#efefef" stroke="transparent" points="46.5,-495.5 46.5,-530.5 405.5,-530.5 405.5,-495.5 46.5,-495.5"/>
<polygon fill="none" stroke="#000000" points="46.5,-495.5 46.5,-530.5 405.5,-530.5 405.5,-495.5 46.5,-495.5"/>
<text text-anchor="start" x="53.1837" y="-508.3" font-family="Arial Bold" font-size="18.00" fill="#000000">public.prod_costsheetdetail</text>
<text text-anchor="start" x="271.2483" y="-508.3" font-family="Arial" font-size="14.00" fill="#000000">    </text>
<text text-anchor="start" x="305.4531" y="-508.3" font-family="Arial" font-size="14.00" fill="#666666">[BASE TABLE]</text>
<polygon fill="none" stroke="#000000" points="46.5,-465.5 46.5,-495.5 405.5,-495.5 405.5,-465.5 46.5,-465.5"/>
<text text-anchor="start" x="53.5" y="-476.9" font-family="Arial" font-size="14.00" fill="#000000">sheetdetailid </text>
<text text-anchor="start" x="135.9698" y="-476.9" font-family="Arial" font-size="14.00" fill="#666666">[integer]</text>
<polygon fill="none" stroke="#000000" points="46.5,-435.5 46.5,-465.5 405.5,-465.5 405.5,-435.5 46.5,-435.5"/>
<text text-anchor="start" x="53.5" y="-446.9" font-family="Arial" font-size="14.00" fill="#000000">sheetid </text>
<text text-anchor="start" x="102.5182" y="-446.9" font-family="Arial" font-size="14.00" fill="#666666">[integer]</text>
<polygon fill="none" stroke="#000000" points="46.5,-405.5 46.5,-435.5 405.5,-435.5 405.5,-405.5 46.5,-405.5"/>
<text text-anchor="start" x="53.5" y="-416.9" font-family="Arial" font-size="14.00" fill="#000000">fieldcode </text>
<text text-anchor="start" x="113.4074" y="-416.9" font-family="Arial" font-size="14.00" fill="#666666">[varchar(50)]</text>
<polygon fill="none" stroke="#000000" points="46.5,-375.5 46.5,-405.5 405.5,-405.5 405.5,-375.5 46.5,-375.5"/>
<text text-anchor="start" x="53.5" y="-386.9" font-family="Arial" font-size="14.00" fill="#000000">fieldname </text>
<text text-anchor="start" x="118.068" y="-386.9" font-family="Arial" font-size="14.00" fill="#666666">[varchar(250)]</text>
<polygon fill="none" stroke="#000000" points="46.5,-345.5 46.5,-375.5 405.5,-375.5 405.5,-345.5 46.5,-345.5"/>
<text text-anchor="start" x="53.5" y="-356.9" font-family="Arial" font-size="14.00" fill="#000000">fieldtype </text>
<text text-anchor="start" x="109.5154" y="-356.9" font-family="Arial" font-size="14.00" fill="#666666">[smallint]</text>
<polygon fill="none" stroke="#000000" points="46.5,-315.5 46.5,-345.5 405.5,-345.5 405.5,-315.5 46.5,-315.5"/>
<text text-anchor="start" x="53.5" y="-326.9" font-family="Arial" font-size="14.00" fill="#000000">isvisible </text>
<text text-anchor="start" x="106.3822" y="-326.9" font-family="Arial" font-size="14.00" fill="#666666">[boolean]</text>
<polygon fill="none" stroke="#000000" points="46.5,-285.5 46.5,-315.5 405.5,-315.5 405.5,-285.5 46.5,-285.5"/>
<text text-anchor="start" x="53.5" y="-296.9" font-family="Arial" font-size="14.00" fill="#000000">fieldvaluefrom </text>
<text text-anchor="start" x="144.5084" y="-296.9" font-family="Arial" font-size="14.00" fill="#666666">[smallint]</text>
<polygon fill="none" stroke="#000000" points="46.5,-255.5 46.5,-285.5 405.5,-285.5 405.5,-255.5 46.5,-255.5"/>
<text text-anchor="start" x="53.5" y="-266.9" font-family="Arial" font-size="14.00" fill="#000000">fieldvalue </text>
<text text-anchor="start" x="116.514" y="-266.9" font-family="Arial" font-size="14.00" fill="#666666">[varchar(250)]</text>
<polygon fill="none" stroke="#000000" points="46.5,-225.5 46.5,-255.5 405.5,-255.5 405.5,-225.5 46.5,-225.5"/>
<text text-anchor="start" x="53.5" y="-236.9" font-family="Arial" font-size="14.00" fill="#000000">seq_no </text>
<text text-anchor="start" x="103.3036" y="-236.9" font-family="Arial" font-size="14.00" fill="#666666">[smallint]</text>
<polygon fill="none" stroke="#000000" points="46.5,-195.5 46.5,-225.5 405.5,-225.5 405.5,-195.5 46.5,-195.5"/>
<text text-anchor="start" x="53.5" y="-206.9" font-family="Arial" font-size="14.00" fill="#000000">isnumeric </text>
<text text-anchor="start" x="117.2728" y="-206.9" font-family="Arial" font-size="14.00" fill="#666666">[boolean]</text>
<polygon fill="none" stroke="#000000" points="46.5,-165.5 46.5,-195.5 405.5,-195.5 405.5,-165.5 46.5,-165.5"/>
<text text-anchor="start" x="53.5" y="-176.9" font-family="Arial" font-size="14.00" fill="#000000">field_width </text>
<text text-anchor="start" x="123.5112" y="-176.9" font-family="Arial" font-size="14.00" fill="#666666">[smallint]</text>
<polygon fill="none" stroke="#000000" points="46.5,-135.5 46.5,-165.5 405.5,-165.5 405.5,-135.5 46.5,-135.5"/>
<text text-anchor="start" x="53.5" y="-146.9" font-family="Arial" font-size="14.00" fill="#000000">isprint </text>
<text text-anchor="start" x="94.7202" y="-146.9" font-family="Arial" font-size="14.00" fill="#666666">[boolean]</text>
<polygon fill="none" stroke="#000000" points="46.5,-105.5 46.5,-135.5 405.5,-135.5 405.5,-105.5 46.5,-105.5"/>
<text text-anchor="start" x="53.5" y="-116.9" font-family="Arial" font-size="14.00" fill="#000000">itemgroupid </text>
<text text-anchor="start" x="130.5112" y="-116.9" font-family="Arial" font-size="14.00" fill="#666666">[integer]</text>
<polygon fill="none" stroke="#000000" points="46.5,-75.5 46.5,-105.5 405.5,-105.5 405.5,-75.5 46.5,-75.5"/>
<text text-anchor="start" x="53.5" y="-86.9" font-family="Arial" font-size="14.00" fill="#000000">iseditable </text>
<text text-anchor="start" x="116.514" y="-86.9" font-family="Arial" font-size="14.00" fill="#666666">[boolean]</text>
<polygon fill="none" stroke="#000000" points="46.5,-45.5 46.5,-75.5 405.5,-75.5 405.5,-45.5 46.5,-45.5"/>
<text text-anchor="start" x="53.5" y="-56.9" font-family="Arial" font-size="14.00" fill="#000000">noofdecimalplace </text>
<text text-anchor="start" x="166.305" y="-56.9" font-family="Arial" font-size="14.00" fill="#666666">[numeric(18,0)]</text>
<polygon fill="none" stroke="#000000" stroke-width="3" points="44.5,-44.5 44.5,-532.5 406.5,-532.5 406.5,-44.5 44.5,-44.5"/>
</g>
</g>
</svg>
