<?xml version="1.0" encoding="UTF-8" standalone="no"?>
<!DOCTYPE svg PUBLIC "-//W3C//DTD SVG 1.1//EN"
 "http://www.w3.org/Graphics/SVG/1.1/DTD/svg11.dtd">
<!-- Generated by graphviz version 2.40.1 (20161225.0304)
 -->
<!-- Title: public.prod_ijwtermcondition Pages: 1 -->
<svg width="468pt" height="255pt"
 viewBox="0.00 0.00 468.00 255.00" xmlns="http://www.w3.org/2000/svg" xmlns:xlink="http://www.w3.org/1999/xlink">
<g id="graph0" class="graph" transform="scale(1 1) rotate(0) translate(4 251)">
<title>public.prod_ijwtermcondition</title>
<polygon fill="#ffffff" stroke="transparent" points="-4,4 -4,-251 464,-251 464,4 -4,4"/>
<!-- public.prod_ijwtermcondition -->
<g id="node1" class="node">
<title>public.prod_ijwtermcondition</title>
<polygon fill="#efefef" stroke="transparent" points="46,-165.5 46,-200.5 414,-200.5 414,-165.5 46,-165.5"/>
<polygon fill="none" stroke="#000000" points="46,-165.5 46,-200.5 414,-200.5 414,-165.5 46,-165.5"/>
<text text-anchor="start" x="52.7044" y="-178.3" font-family="Arial Bold" font-size="18.00" fill="#000000">public.prod_ijwtermcondition</text>
<text text-anchor="start" x="279.7276" y="-178.3" font-family="Arial" font-size="14.00" fill="#000000">    </text>
<text text-anchor="start" x="313.9324" y="-178.3" font-family="Arial" font-size="14.00" fill="#666666">[BASE TABLE]</text>
<polygon fill="none" stroke="#000000" points="46,-135.5 46,-165.5 414,-165.5 414,-135.5 46,-135.5"/>
<text text-anchor="start" x="53" y="-146.9" font-family="Arial" font-size="14.00" fill="#000000">termconditionid </text>
<text text-anchor="start" x="151.791" y="-146.9" font-family="Arial" font-size="14.00" fill="#666666">[integer]</text>
<polygon fill="none" stroke="#000000" points="46,-105.5 46,-135.5 414,-135.5 414,-105.5 46,-105.5"/>
<text text-anchor="start" x="53" y="-116.9" font-family="Arial" font-size="14.00" fill="#000000">jobworkid </text>
<text text-anchor="start" x="116.0014" y="-116.9" font-family="Arial" font-size="14.00" fill="#666666">[integer]</text>
<polygon fill="none" stroke="#000000" points="46,-75.5 46,-105.5 414,-105.5 414,-75.5 46,-75.5"/>
<text text-anchor="start" x="53" y="-86.9" font-family="Arial" font-size="14.00" fill="#000000">termconditionname </text>
<text text-anchor="start" x="175.9102" y="-86.9" font-family="Arial" font-size="14.00" fill="#666666">[varchar(300)]</text>
<polygon fill="none" stroke="#000000" points="46,-45.5 46,-75.5 414,-75.5 414,-45.5 46,-45.5"/>
<text text-anchor="start" x="53" y="-56.9" font-family="Arial" font-size="14.00" fill="#000000">description </text>
<text text-anchor="start" x="124.568" y="-56.9" font-family="Arial" font-size="14.00" fill="#666666">[varchar(400)]</text>
<polygon fill="none" stroke="#000000" stroke-width="3" points="44.5,-44.5 44.5,-202.5 415.5,-202.5 415.5,-44.5 44.5,-44.5"/>
</g>
</g>
</svg>
