<?xml version="1.0" encoding="UTF-8" standalone="no"?>
<!DOCTYPE svg PUBLIC "-//W3C//DTD SVG 1.1//EN"
 "http://www.w3.org/Graphics/SVG/1.1/DTD/svg11.dtd">
<!-- Generated by graphviz version 2.40.1 (20161225.0304)
 -->
<!-- Title: public.quotationtaxdetail_amendlog Pages: 1 -->
<svg width="523pt" height="585pt"
 viewBox="0.00 0.00 523.00 585.00" xmlns="http://www.w3.org/2000/svg" xmlns:xlink="http://www.w3.org/1999/xlink">
<g id="graph0" class="graph" transform="scale(1 1) rotate(0) translate(4 581)">
<title>public.quotationtaxdetail_amendlog</title>
<polygon fill="#ffffff" stroke="transparent" points="-4,4 -4,-581 519,-581 519,4 -4,4"/>
<!-- public.quotationtaxdetail_amendlog -->
<g id="node1" class="node">
<title>public.quotationtaxdetail_amendlog</title>
<polygon fill="#efefef" stroke="transparent" points="46.5,-495.5 46.5,-530.5 469.5,-530.5 469.5,-495.5 46.5,-495.5"/>
<polygon fill="none" stroke="#000000" points="46.5,-495.5 46.5,-530.5 469.5,-530.5 469.5,-495.5 46.5,-495.5"/>
<text text-anchor="start" x="53.1698" y="-508.3" font-family="Arial Bold" font-size="18.00" fill="#000000">public.quotationtaxdetail_amendlog</text>
<text text-anchor="start" x="335.2622" y="-508.3" font-family="Arial" font-size="14.00" fill="#000000">    </text>
<text text-anchor="start" x="369.467" y="-508.3" font-family="Arial" font-size="14.00" fill="#666666">[BASE TABLE]</text>
<polygon fill="none" stroke="#000000" points="46.5,-465.5 46.5,-495.5 469.5,-495.5 469.5,-465.5 46.5,-465.5"/>
<text text-anchor="start" x="53.5" y="-476.9" font-family="Arial" font-size="14.00" fill="#000000">amendquottaxid </text>
<text text-anchor="start" x="156.9824" y="-476.9" font-family="Arial" font-size="14.00" fill="#666666">[integer]</text>
<polygon fill="none" stroke="#000000" points="46.5,-435.5 46.5,-465.5 469.5,-465.5 469.5,-435.5 46.5,-435.5"/>
<text text-anchor="start" x="53.5" y="-446.9" font-family="Arial" font-size="14.00" fill="#000000">amendid </text>
<text text-anchor="start" x="111.0708" y="-446.9" font-family="Arial" font-size="14.00" fill="#666666">[integer]</text>
<polygon fill="none" stroke="#000000" points="46.5,-405.5 46.5,-435.5 469.5,-435.5 469.5,-405.5 46.5,-405.5"/>
<text text-anchor="start" x="53.5" y="-416.9" font-family="Arial" font-size="14.00" fill="#000000">quotationtaxid </text>
<text text-anchor="start" x="144.5364" y="-416.9" font-family="Arial" font-size="14.00" fill="#666666">[integer]</text>
<polygon fill="none" stroke="#000000" points="46.5,-375.5 46.5,-405.5 469.5,-405.5 469.5,-375.5 46.5,-375.5"/>
<text text-anchor="start" x="53.5" y="-386.9" font-family="Arial" font-size="14.00" fill="#000000">quotationid </text>
<text text-anchor="start" x="125.8632" y="-386.9" font-family="Arial" font-size="14.00" fill="#666666">[integer]</text>
<polygon fill="none" stroke="#000000" points="46.5,-345.5 46.5,-375.5 469.5,-375.5 469.5,-345.5 46.5,-345.5"/>
<text text-anchor="start" x="53.5" y="-356.9" font-family="Arial" font-size="14.00" fill="#000000">taxtemplateid </text>
<text text-anchor="start" x="140.6318" y="-356.9" font-family="Arial" font-size="14.00" fill="#666666">[integer]</text>
<polygon fill="none" stroke="#000000" points="46.5,-315.5 46.5,-345.5 469.5,-345.5 469.5,-315.5 46.5,-315.5"/>
<text text-anchor="start" x="53.5" y="-326.9" font-family="Arial" font-size="14.00" fill="#000000">taxtemplatedetailid </text>
<text text-anchor="start" x="174.0834" y="-326.9" font-family="Arial" font-size="14.00" fill="#666666">[integer]</text>
<polygon fill="none" stroke="#000000" points="46.5,-285.5 46.5,-315.5 469.5,-315.5 469.5,-285.5 46.5,-285.5"/>
<text text-anchor="start" x="53.5" y="-296.9" font-family="Arial" font-size="14.00" fill="#000000">taxid </text>
<text text-anchor="start" x="86.953" y="-296.9" font-family="Arial" font-size="14.00" fill="#666666">[integer]</text>
<polygon fill="none" stroke="#000000" points="46.5,-255.5 46.5,-285.5 469.5,-285.5 469.5,-255.5 46.5,-255.5"/>
<text text-anchor="start" x="53.5" y="-266.9" font-family="Arial" font-size="14.00" fill="#000000">rate </text>
<text text-anchor="start" x="81.507" y="-266.9" font-family="Arial" font-size="14.00" fill="#666666">[numeric(5,2)]</text>
<polygon fill="none" stroke="#000000" points="46.5,-225.5 46.5,-255.5 469.5,-255.5 469.5,-225.5 46.5,-225.5"/>
<text text-anchor="start" x="53.5" y="-236.9" font-family="Arial" font-size="14.00" fill="#000000">taxformula </text>
<text text-anchor="start" x="122.73" y="-236.9" font-family="Arial" font-size="14.00" fill="#666666">[varchar(150)]</text>
<polygon fill="none" stroke="#000000" points="46.5,-195.5 46.5,-225.5 469.5,-225.5 469.5,-195.5 46.5,-195.5"/>
<text text-anchor="start" x="53.5" y="-206.9" font-family="Arial" font-size="14.00" fill="#000000">taxformulavalue </text>
<text text-anchor="start" x="156.1844" y="-206.9" font-family="Arial" font-size="14.00" fill="#666666">[varchar(150)]</text>
<polygon fill="none" stroke="#000000" points="46.5,-165.5 46.5,-195.5 469.5,-195.5 469.5,-165.5 46.5,-165.5"/>
<text text-anchor="start" x="53.5" y="-176.9" font-family="Arial" font-size="14.00" fill="#000000">taxamount </text>
<text text-anchor="start" x="122.7454" y="-176.9" font-family="Arial" font-size="14.00" fill="#666666">[numeric(17,5)]</text>
<polygon fill="none" stroke="#000000" points="46.5,-135.5 46.5,-165.5 469.5,-165.5 469.5,-135.5 46.5,-135.5"/>
<text text-anchor="start" x="53.5" y="-146.9" font-family="Arial" font-size="14.00" fill="#000000">taxorder </text>
<text text-anchor="start" x="108.7328" y="-146.9" font-family="Arial" font-size="14.00" fill="#666666">[smallint]</text>
<polygon fill="none" stroke="#000000" points="46.5,-105.5 46.5,-135.5 469.5,-135.5 469.5,-105.5 46.5,-105.5"/>
<text text-anchor="start" x="53.5" y="-116.9" font-family="Arial" font-size="14.00" fill="#000000">exporttaxamount </text>
<text text-anchor="start" x="161.6444" y="-116.9" font-family="Arial" font-size="14.00" fill="#666666">[numeric(17,5)]</text>
<polygon fill="none" stroke="#000000" points="46.5,-75.5 46.5,-105.5 469.5,-105.5 469.5,-75.5 46.5,-75.5"/>
<text text-anchor="start" x="53.5" y="-86.9" font-family="Arial" font-size="14.00" fill="#000000">dutyhead </text>
<text text-anchor="start" x="114.9768" y="-86.9" font-family="Arial" font-size="14.00" fill="#666666">[smallint]</text>
<polygon fill="none" stroke="#000000" points="46.5,-45.5 46.5,-75.5 469.5,-75.5 469.5,-45.5 46.5,-45.5"/>
<text text-anchor="start" x="53.5" y="-56.9" font-family="Arial" font-size="14.00" fill="#000000">payabletoparty </text>
<text text-anchor="start" x="149.1998" y="-56.9" font-family="Arial" font-size="14.00" fill="#666666">[boolean]</text>
<polygon fill="none" stroke="#000000" stroke-width="3" points="44.5,-44.5 44.5,-532.5 470.5,-532.5 470.5,-44.5 44.5,-44.5"/>
</g>
</g>
</svg>
