<?xml version="1.0" encoding="UTF-8" standalone="no"?>
<!DOCTYPE svg PUBLIC "-//W3C//DTD SVG 1.1//EN"
 "http://www.w3.org/Graphics/SVG/1.1/DTD/svg11.dtd">
<!-- Generated by graphviz version 2.40.1 (20161225.0304)
 -->
<!-- Title: public.sale_soppenaltiesliquidated Pages: 1 -->
<svg width="514pt" height="315pt"
 viewBox="0.00 0.00 514.00 315.00" xmlns="http://www.w3.org/2000/svg" xmlns:xlink="http://www.w3.org/1999/xlink">
<g id="graph0" class="graph" transform="scale(1 1) rotate(0) translate(4 311)">
<title>public.sale_soppenaltiesliquidated</title>
<polygon fill="#ffffff" stroke="transparent" points="-4,4 -4,-311 510,-311 510,4 -4,4"/>
<!-- public.sale_soppenaltiesliquidated -->
<g id="node1" class="node">
<title>public.sale_soppenaltiesliquidated</title>
<polygon fill="#efefef" stroke="transparent" points="46,-225.5 46,-260.5 460,-260.5 460,-225.5 46,-225.5"/>
<polygon fill="none" stroke="#000000" points="46,-225.5 46,-260.5 460,-260.5 460,-225.5 46,-225.5"/>
<text text-anchor="start" x="52.677" y="-238.3" font-family="Arial Bold" font-size="18.00" fill="#000000">public.sale_soppenaltiesliquidated</text>
<text text-anchor="start" x="325.755" y="-238.3" font-family="Arial" font-size="14.00" fill="#000000">    </text>
<text text-anchor="start" x="359.9598" y="-238.3" font-family="Arial" font-size="14.00" fill="#666666">[BASE TABLE]</text>
<polygon fill="none" stroke="#000000" points="46,-195.5 46,-225.5 460,-225.5 460,-195.5 46,-195.5"/>
<text text-anchor="start" x="53" y="-206.9" font-family="Arial" font-size="14.00" fill="#000000">pldid </text>
<text text-anchor="start" x="86.4516" y="-206.9" font-family="Arial" font-size="14.00" fill="#666666">[integer]</text>
<polygon fill="none" stroke="#000000" points="46,-165.5 46,-195.5 460,-195.5 460,-165.5 46,-165.5"/>
<text text-anchor="start" x="53" y="-176.9" font-family="Arial" font-size="14.00" fill="#000000">sopid </text>
<text text-anchor="start" x="90.345" y="-176.9" font-family="Arial" font-size="14.00" fill="#666666">[integer]</text>
<polygon fill="none" stroke="#000000" points="46,-135.5 46,-165.5 460,-165.5 460,-135.5 46,-135.5"/>
<text text-anchor="start" x="53" y="-146.9" font-family="Arial" font-size="14.00" fill="#000000">ordervalue </text>
<text text-anchor="start" x="123.014" y="-146.9" font-family="Arial" font-size="14.00" fill="#666666">[numeric(10,2)]</text>
<polygon fill="none" stroke="#000000" points="46,-105.5 46,-135.5 460,-135.5 460,-105.5 46,-105.5"/>
<text text-anchor="start" x="53" y="-116.9" font-family="Arial" font-size="14.00" fill="#000000">ldreason </text>
<text text-anchor="start" x="110.5708" y="-116.9" font-family="Arial" font-size="14.00" fill="#666666">[varchar(100)]</text>
<polygon fill="none" stroke="#000000" points="46,-75.5 46,-105.5 460,-105.5 460,-75.5 46,-75.5"/>
<text text-anchor="start" x="53" y="-86.9" font-family="Arial" font-size="14.00" fill="#000000">lddate </text>
<text text-anchor="start" x="95.0182" y="-86.9" font-family="Arial" font-size="14.00" fill="#666666">[timestamp(6) without time zone]</text>
<polygon fill="none" stroke="#000000" points="46,-45.5 46,-75.5 460,-75.5 460,-45.5 46,-45.5"/>
<text text-anchor="start" x="53" y="-56.9" font-family="Arial" font-size="14.00" fill="#000000">ldpercentage </text>
<text text-anchor="start" x="137.8092" y="-56.9" font-family="Arial" font-size="14.00" fill="#666666">[boolean]</text>
<polygon fill="none" stroke="#000000" stroke-width="3" points="44.5,-44.5 44.5,-262.5 461.5,-262.5 461.5,-44.5 44.5,-44.5"/>
</g>
</g>
</svg>
