<?xml version="1.0" encoding="UTF-8" standalone="no"?>
<!DOCTYPE svg PUBLIC "-//W3C//DTD SVG 1.1//EN"
 "http://www.w3.org/Graphics/SVG/1.1/DTD/svg11.dtd">
<!-- Generated by graphviz version 2.40.1 (20161225.0304)
 -->
<!-- Title: public.comn_autotallysyncconfiguration Pages: 1 -->
<svg width="554pt" height="255pt"
 viewBox="0.00 0.00 554.00 255.00" xmlns="http://www.w3.org/2000/svg" xmlns:xlink="http://www.w3.org/1999/xlink">
<g id="graph0" class="graph" transform="scale(1 1) rotate(0) translate(4 251)">
<title>public.comn_autotallysyncconfiguration</title>
<polygon fill="#ffffff" stroke="transparent" points="-4,4 -4,-251 550,-251 550,4 -4,4"/>
<!-- public.comn_autotallysyncconfiguration -->
<g id="node1" class="node">
<title>public.comn_autotallysyncconfiguration</title>
<polygon fill="#efefef" stroke="transparent" points="46,-165.5 46,-200.5 500,-200.5 500,-165.5 46,-165.5"/>
<polygon fill="none" stroke="#000000" points="46,-165.5 46,-200.5 500,-200.5 500,-165.5 46,-165.5"/>
<text text-anchor="start" x="52.6799" y="-178.3" font-family="Arial Bold" font-size="18.00" fill="#000000">public.comn_autotallysyncconfiguration</text>
<text text-anchor="start" x="365.7521" y="-178.3" font-family="Arial" font-size="14.00" fill="#000000">    </text>
<text text-anchor="start" x="399.9569" y="-178.3" font-family="Arial" font-size="14.00" fill="#666666">[BASE TABLE]</text>
<polygon fill="none" stroke="#000000" points="46,-135.5 46,-165.5 500,-165.5 500,-135.5 46,-135.5"/>
<text text-anchor="start" x="53" y="-146.9" font-family="Arial" font-size="14.00" fill="#000000">autoid </text>
<text text-anchor="start" x="95.0182" y="-146.9" font-family="Arial" font-size="14.00" fill="#666666">[integer]</text>
<polygon fill="none" stroke="#000000" points="46,-105.5 46,-135.5 500,-135.5 500,-105.5 46,-105.5"/>
<text text-anchor="start" x="53" y="-116.9" font-family="Arial" font-size="14.00" fill="#000000">valuename </text>
<text text-anchor="start" x="125.3534" y="-116.9" font-family="Arial" font-size="14.00" fill="#666666">[varchar(50)]</text>
<polygon fill="none" stroke="#000000" points="46,-75.5 46,-105.5 500,-105.5 500,-75.5 46,-75.5"/>
<text text-anchor="start" x="53" y="-86.9" font-family="Arial" font-size="14.00" fill="#000000">valuecode </text>
<text text-anchor="start" x="120.6928" y="-86.9" font-family="Arial" font-size="14.00" fill="#666666">[varchar(100)]</text>
<polygon fill="none" stroke="#000000" points="46,-45.5 46,-75.5 500,-75.5 500,-45.5 46,-45.5"/>
<text text-anchor="start" x="53" y="-56.9" font-family="Arial" font-size="14.00" fill="#000000">isactive </text>
<text text-anchor="start" x="103.5596" y="-56.9" font-family="Arial" font-size="14.00" fill="#666666">[boolean]</text>
<polygon fill="none" stroke="#000000" stroke-width="3" points="44.5,-44.5 44.5,-202.5 501.5,-202.5 501.5,-44.5 44.5,-44.5"/>
</g>
</g>
</svg>
