<?xml version="1.0" encoding="UTF-8" standalone="no"?>
<!DOCTYPE svg PUBLIC "-//W3C//DTD SVG 1.1//EN"
 "http://www.w3.org/Graphics/SVG/1.1/DTD/svg11.dtd">
<!-- Generated by graphviz version 2.40.1 (20161225.0304)
 -->
<!-- Title: public.bargaindocument Pages: 1 -->
<svg width="791pt" height="1162pt"
 viewBox="0.00 0.00 790.50 1162.00" xmlns="http://www.w3.org/2000/svg" xmlns:xlink="http://www.w3.org/1999/xlink">
<g id="graph0" class="graph" transform="scale(1 1) rotate(0) translate(4 1158)">
<title>public.bargaindocument</title>
<polygon fill="#ffffff" stroke="transparent" points="-4,4 -4,-1158 786.5,-1158 786.5,4 -4,4"/>
<!-- public.bargaindocument -->
<g id="node1" class="node">
<title>public.bargaindocument</title>
<polygon fill="#efefef" stroke="transparent" points="65.5,-735.5 65.5,-770.5 397.5,-770.5 397.5,-735.5 65.5,-735.5"/>
<polygon fill="none" stroke="#000000" points="65.5,-735.5 65.5,-770.5 397.5,-770.5 397.5,-735.5 65.5,-735.5"/>
<text text-anchor="start" x="72.19" y="-748.3" font-family="Arial Bold" font-size="18.00" fill="#000000">public.bargaindocument</text>
<text text-anchor="start" x="263.242" y="-748.3" font-family="Arial" font-size="14.00" fill="#000000">    </text>
<text text-anchor="start" x="297.4468" y="-748.3" font-family="Arial" font-size="14.00" fill="#666666">[BASE TABLE]</text>
<polygon fill="none" stroke="#000000" points="65.5,-705.5 65.5,-735.5 397.5,-735.5 397.5,-705.5 65.5,-705.5"/>
<text text-anchor="start" x="72.5" y="-716.9" font-family="Arial" font-size="14.00" fill="#000000">bargaindocid </text>
<text text-anchor="start" x="156.5252" y="-716.9" font-family="Arial" font-size="14.00" fill="#666666">[integer]</text>
<polygon fill="none" stroke="#000000" points="65.5,-675.5 65.5,-705.5 397.5,-705.5 397.5,-675.5 65.5,-675.5"/>
<text text-anchor="start" x="72.5" y="-686.9" font-family="Arial" font-size="14.00" fill="#000000">bargaindocno </text>
<text text-anchor="start" x="161.2012" y="-686.9" font-family="Arial" font-size="14.00" fill="#666666">[varchar(50)]</text>
<polygon fill="none" stroke="#000000" points="65.5,-645.5 65.5,-675.5 397.5,-675.5 397.5,-645.5 65.5,-645.5"/>
<text text-anchor="start" x="72.5" y="-656.9" font-family="Arial" font-size="14.00" fill="#000000">datetime </text>
<text text-anchor="start" x="130.0694" y="-656.9" font-family="Arial" font-size="14.00" fill="#666666">[timestamp(6) without time zone]</text>
<polygon fill="none" stroke="#000000" points="65.5,-615.5 65.5,-645.5 397.5,-645.5 397.5,-615.5 65.5,-615.5"/>
<text text-anchor="start" x="72.5" y="-626.9" font-family="Arial" font-size="14.00" fill="#000000">branchid </text>
<text text-anchor="start" x="130.0708" y="-626.9" font-family="Arial" font-size="14.00" fill="#666666">[integer]</text>
<polygon fill="none" stroke="#000000" points="65.5,-585.5 65.5,-615.5 397.5,-615.5 397.5,-585.5 65.5,-585.5"/>
<text text-anchor="start" x="72.5" y="-596.9" font-family="Arial" font-size="14.00" fill="#000000">partyid </text>
<text text-anchor="start" x="118.3962" y="-596.9" font-family="Arial" font-size="14.00" fill="#666666">[integer]</text>
<polygon fill="none" stroke="#000000" points="65.5,-555.5 65.5,-585.5 397.5,-585.5 397.5,-555.5 65.5,-555.5"/>
<text text-anchor="start" x="72.5" y="-566.9" font-family="Arial" font-size="14.00" fill="#000000">isauthorized </text>
<text text-anchor="start" x="151.8506" y="-566.9" font-family="Arial" font-size="14.00" fill="#666666">[boolean]</text>
<polygon fill="none" stroke="#000000" points="65.5,-525.5 65.5,-555.5 397.5,-555.5 397.5,-525.5 65.5,-525.5"/>
<text text-anchor="start" x="72.5" y="-536.9" font-family="Arial" font-size="14.00" fill="#000000">authorizedon </text>
<text text-anchor="start" x="157.3092" y="-536.9" font-family="Arial" font-size="14.00" fill="#666666">[timestamp(6) without time zone]</text>
<polygon fill="none" stroke="#000000" points="65.5,-495.5 65.5,-525.5 397.5,-525.5 397.5,-495.5 65.5,-495.5"/>
<text text-anchor="start" x="72.5" y="-506.9" font-family="Arial" font-size="14.00" fill="#000000">authorizedby </text>
<text text-anchor="start" x="156.5266" y="-506.9" font-family="Arial" font-size="14.00" fill="#666666">[integer]</text>
<polygon fill="none" stroke="#000000" points="65.5,-465.5 65.5,-495.5 397.5,-495.5 397.5,-465.5 65.5,-465.5"/>
<text text-anchor="start" x="72.5" y="-476.9" font-family="Arial" font-size="14.00" fill="#000000">seriesid </text>
<text text-anchor="start" x="124.6122" y="-476.9" font-family="Arial" font-size="14.00" fill="#666666">[integer]</text>
<polygon fill="none" stroke="#000000" points="65.5,-435.5 65.5,-465.5 397.5,-465.5 397.5,-435.5 65.5,-435.5"/>
<text text-anchor="start" x="72.5" y="-446.9" font-family="Arial" font-size="14.00" fill="#000000">editlog </text>
<text text-anchor="start" x="117.6248" y="-446.9" font-family="Arial" font-size="14.00" fill="#666666">[text]</text>
<polygon fill="none" stroke="#000000" points="65.5,-405.5 65.5,-435.5 397.5,-435.5 397.5,-405.5 65.5,-405.5"/>
<text text-anchor="start" x="72.5" y="-416.9" font-family="Arial" font-size="14.00" fill="#000000">createdby </text>
<text text-anchor="start" x="137.8548" y="-416.9" font-family="Arial" font-size="14.00" fill="#666666">[integer]</text>
<polygon fill="none" stroke="#000000" points="65.5,-375.5 65.5,-405.5 397.5,-405.5 397.5,-375.5 65.5,-375.5"/>
<text text-anchor="start" x="72.5" y="-386.9" font-family="Arial" font-size="14.00" fill="#000000">createdon </text>
<text text-anchor="start" x="138.6374" y="-386.9" font-family="Arial" font-size="14.00" fill="#666666">[timestamp(6) without time zone]</text>
<polygon fill="none" stroke="#000000" points="65.5,-345.5 65.5,-375.5 397.5,-375.5 397.5,-345.5 65.5,-345.5"/>
<text text-anchor="start" x="72.5" y="-356.9" font-family="Arial" font-size="14.00" fill="#000000">mindate </text>
<text text-anchor="start" x="126.1788" y="-356.9" font-family="Arial" font-size="14.00" fill="#666666">[timestamp(6) without time zone]</text>
<polygon fill="none" stroke="#000000" points="65.5,-315.5 65.5,-345.5 397.5,-345.5 397.5,-315.5 65.5,-315.5"/>
<text text-anchor="start" x="72.5" y="-326.9" font-family="Arial" font-size="14.00" fill="#000000">seriescode </text>
<text text-anchor="start" x="144.0708" y="-326.9" font-family="Arial" font-size="14.00" fill="#666666">[varchar(50)]</text>
<polygon fill="none" stroke="#000000" points="65.5,-285.5 65.5,-315.5 397.5,-315.5 397.5,-285.5 65.5,-285.5"/>
<text text-anchor="start" x="72.5" y="-296.9" font-family="Arial" font-size="14.00" fill="#000000">seriesno </text>
<text text-anchor="start" x="129.2882" y="-296.9" font-family="Arial" font-size="14.00" fill="#666666">[integer]</text>
<polygon fill="none" stroke="#000000" points="65.5,-255.5 65.5,-285.5 397.5,-285.5 397.5,-255.5 65.5,-255.5"/>
<text text-anchor="start" x="72.5" y="-266.9" font-family="Arial" font-size="14.00" fill="#000000">iscancelled </text>
<text text-anchor="start" x="145.6234" y="-266.9" font-family="Arial" font-size="14.00" fill="#666666">[boolean]</text>
<polygon fill="none" stroke="#000000" points="65.5,-225.5 65.5,-255.5 397.5,-255.5 397.5,-225.5 65.5,-225.5"/>
<text text-anchor="start" x="72.5" y="-236.9" font-family="Arial" font-size="14.00" fill="#000000">cancellationreason </text>
<text text-anchor="start" x="193.0876" y="-236.9" font-family="Arial" font-size="14.00" fill="#666666">[text]</text>
<polygon fill="none" stroke="#000000" points="65.5,-195.5 65.5,-225.5 397.5,-225.5 397.5,-195.5 65.5,-195.5"/>
<text text-anchor="start" x="72.5" y="-206.9" font-family="Arial" font-size="14.00" fill="#000000">cancelledby </text>
<text text-anchor="start" x="150.2994" y="-206.9" font-family="Arial" font-size="14.00" fill="#666666">[integer]</text>
<polygon fill="none" stroke="#000000" points="65.5,-165.5 65.5,-195.5 397.5,-195.5 397.5,-165.5 65.5,-165.5"/>
<text text-anchor="start" x="72.5" y="-176.9" font-family="Arial" font-size="14.00" fill="#000000">cancellationdate </text>
<text text-anchor="start" x="177.535" y="-176.9" font-family="Arial" font-size="14.00" fill="#666666">[date]</text>
<polygon fill="none" stroke="#000000" points="65.5,-135.5 65.5,-165.5 397.5,-165.5 397.5,-135.5 65.5,-135.5"/>
<text text-anchor="start" x="72.5" y="-146.9" font-family="Arial" font-size="14.00" fill="#000000">remarks </text>
<text text-anchor="start" x="126.9376" y="-146.9" font-family="Arial" font-size="14.00" fill="#666666">[varchar(250)]</text>
<polygon fill="none" stroke="#000000" points="65.5,-105.5 65.5,-135.5 397.5,-135.5 397.5,-105.5 65.5,-105.5"/>
<text text-anchor="start" x="72.5" y="-116.9" font-family="Arial" font-size="14.00" fill="#000000">seriesvouchertype </text>
<text text-anchor="start" x="189.9698" y="-116.9" font-family="Arial" font-size="14.00" fill="#666666">[integer]</text>
<polygon fill="none" stroke="#000000" points="65.5,-75.5 65.5,-105.5 397.5,-105.5 397.5,-75.5 65.5,-75.5"/>
<text text-anchor="start" x="72.5" y="-86.9" font-family="Arial" font-size="14.00" fill="#000000">updatedby </text>
<text text-anchor="start" x="141.7594" y="-86.9" font-family="Arial" font-size="14.00" fill="#666666">[integer]</text>
<polygon fill="none" stroke="#000000" points="65.5,-45.5 65.5,-75.5 397.5,-75.5 397.5,-45.5 65.5,-45.5"/>
<text text-anchor="start" x="72.5" y="-56.9" font-family="Arial" font-size="14.00" fill="#000000">updatedon </text>
<text text-anchor="start" x="142.542" y="-56.9" font-family="Arial" font-size="14.00" fill="#666666">[timestamp(6) without time zone]</text>
<polygon fill="none" stroke="#000000" stroke-width="3" points="64,-44.5 64,-772.5 399,-772.5 399,-44.5 64,-44.5"/>
</g>
<!-- public.bargaindocumentdetail -->
<g id="node2" class="node">
<title>public.bargaindocumentdetail</title>
<polygon fill="#efefef" stroke="transparent" points="43.5,-1075.5 43.5,-1110.5 418.5,-1110.5 418.5,-1075.5 43.5,-1075.5"/>
<polygon fill="none" stroke="#000000" points="43.5,-1075.5 43.5,-1110.5 418.5,-1110.5 418.5,-1075.5 43.5,-1075.5"/>
<text text-anchor="start" x="50.1854" y="-1088.3" font-family="Arial Bold" font-size="18.00" fill="#000000">public.bargaindocumentdetail</text>
<text text-anchor="start" x="284.2466" y="-1088.3" font-family="Arial" font-size="14.00" fill="#000000">    </text>
<text text-anchor="start" x="318.4514" y="-1088.3" font-family="Arial" font-size="14.00" fill="#666666">[BASE TABLE]</text>
<polygon fill="none" stroke="#000000" points="43.5,-1045.5 43.5,-1075.5 418.5,-1075.5 418.5,-1045.5 43.5,-1045.5"/>
<text text-anchor="start" x="50.5" y="-1056.9" font-family="Arial" font-size="14.00" fill="#000000">bargaindocdetailid    </text>
<text text-anchor="start" x="198.291" y="-1056.9" font-family="Arial" font-size="14.00" fill="#666666">[integer]</text>
<polygon fill="none" stroke="#000000" points="43.5,-1015.5 43.5,-1045.5 418.5,-1045.5 418.5,-1015.5 43.5,-1015.5"/>
<text text-anchor="start" x="50.5" y="-1026.9" font-family="Arial" font-size="14.00" fill="#000000">bargaindocid    </text>
<text text-anchor="start" x="164.8394" y="-1026.9" font-family="Arial" font-size="14.00" fill="#666666">[integer]</text>
<polygon fill="none" stroke="#000000" points="43.5,-985.5 43.5,-1015.5 418.5,-1015.5 418.5,-985.5 43.5,-985.5"/>
<text text-anchor="start" x="50.5" y="-996.9" font-family="Arial" font-size="14.00" fill="#000000">productgroupattributeid    </text>
<text text-anchor="start" x="228.636" y="-996.9" font-family="Arial" font-size="14.00" fill="#666666">[integer]</text>
<polygon fill="none" stroke="#000000" points="43.5,-955.5 43.5,-985.5 418.5,-985.5 418.5,-955.5 43.5,-955.5"/>
<text text-anchor="start" x="50.5" y="-966.9" font-family="Arial" font-size="14.00" fill="#000000">bpcpattributeid    </text>
<text text-anchor="start" x="176.5112" y="-966.9" font-family="Arial" font-size="14.00" fill="#666666">[integer]</text>
<polygon fill="none" stroke="#000000" points="43.5,-925.5 43.5,-955.5 418.5,-955.5 418.5,-925.5 43.5,-925.5"/>
<text text-anchor="start" x="50.5" y="-936.9" font-family="Arial" font-size="14.00" fill="#000000">qty    </text>
<text text-anchor="start" x="103.378" y="-936.9" font-family="Arial" font-size="14.00" fill="#666666">[numeric(12,2)]</text>
<polygon fill="none" stroke="#000000" points="43.5,-895.5 43.5,-925.5 418.5,-925.5 418.5,-895.5 43.5,-895.5"/>
<text text-anchor="start" x="50.5" y="-906.9" font-family="Arial" font-size="14.00" fill="#000000">branchid    </text>
<text text-anchor="start" x="138.385" y="-906.9" font-family="Arial" font-size="14.00" fill="#666666">[integer]</text>
</g>
<!-- public.bargaindocumentdetail&#45;&gt;public.bargaindocument -->
<g id="edge1" class="edge">
<title>public.bargaindocumentdetail:bargaindocid&#45;&gt;public.bargaindocument:bargaindocid</title>
<path fill="none" stroke="#000000" d="M428.5035,-1029.7961C494.9977,-1019.9345 469.0021,-908.9144 418.5,-853 365.6478,-794.4836 118.3522,-875.5164 65.5,-817 36.7526,-785.1717 22.6111,-720.5 65.5,-720.5"/>
<polygon fill="#000000" stroke="#000000" points="428.4753,-1029.798 418.1841,-1026.0111 423.4877,-1030.149 418.5,-1030.5 418.5,-1030.5 418.5,-1030.5 423.4877,-1030.149 418.8159,-1034.9889 428.4753,-1029.798 428.4753,-1029.798"/>
<text text-anchor="start" x="425.477" y="-1040.5" font-family="Arial" font-size="10.00" fill="#000000">FOREIGN KEY (bargaindocid) REFERENCES bargaindocument(bargaindocid)</text>
</g>
</g>
</svg>
