<?xml version="1.0" encoding="UTF-8" standalone="no"?>
<!DOCTYPE svg PUBLIC "-//W3C//DTD SVG 1.1//EN"
 "http://www.w3.org/Graphics/SVG/1.1/DTD/svg11.dtd">
<!-- Generated by graphviz version 2.40.1 (20161225.0304)
 -->
<!-- Title: public.comn_checklistmaster Pages: 1 -->
<svg width="471pt" height="225pt"
 viewBox="0.00 0.00 471.00 225.00" xmlns="http://www.w3.org/2000/svg" xmlns:xlink="http://www.w3.org/1999/xlink">
<g id="graph0" class="graph" transform="scale(1 1) rotate(0) translate(4 221)">
<title>public.comn_checklistmaster</title>
<polygon fill="#ffffff" stroke="transparent" points="-4,4 -4,-221 467,-221 467,4 -4,4"/>
<!-- public.comn_checklistmaster -->
<g id="node1" class="node">
<title>public.comn_checklistmaster</title>
<polygon fill="#efefef" stroke="transparent" points="46.5,-135.5 46.5,-170.5 417.5,-170.5 417.5,-135.5 46.5,-135.5"/>
<polygon fill="none" stroke="#000000" points="46.5,-135.5 46.5,-170.5 417.5,-170.5 417.5,-135.5 46.5,-135.5"/>
<text text-anchor="start" x="53.205" y="-148.3" font-family="Arial Bold" font-size="18.00" fill="#000000">public.comn_checklistmaster</text>
<text text-anchor="start" x="283.227" y="-148.3" font-family="Arial" font-size="14.00" fill="#000000">    </text>
<text text-anchor="start" x="317.4318" y="-148.3" font-family="Arial" font-size="14.00" fill="#666666">[BASE TABLE]</text>
<polygon fill="none" stroke="#000000" points="46.5,-105.5 46.5,-135.5 417.5,-135.5 417.5,-105.5 46.5,-105.5"/>
<text text-anchor="start" x="53.5" y="-116.9" font-family="Arial" font-size="14.00" fill="#000000">checklistid </text>
<text text-anchor="start" x="121.9488" y="-116.9" font-family="Arial" font-size="14.00" fill="#666666">[integer]</text>
<polygon fill="none" stroke="#000000" points="46.5,-75.5 46.5,-105.5 417.5,-105.5 417.5,-75.5 46.5,-75.5"/>
<text text-anchor="start" x="53.5" y="-86.9" font-family="Arial" font-size="14.00" fill="#000000">checklistname </text>
<text text-anchor="start" x="146.068" y="-86.9" font-family="Arial" font-size="14.00" fill="#666666">[varchar(100)]</text>
<polygon fill="none" stroke="#000000" points="46.5,-45.5 46.5,-75.5 417.5,-75.5 417.5,-45.5 46.5,-45.5"/>
<text text-anchor="start" x="53.5" y="-56.9" font-family="Arial" font-size="14.00" fill="#000000">description </text>
<text text-anchor="start" x="125.068" y="-56.9" font-family="Arial" font-size="14.00" fill="#666666">[varchar(500)]</text>
<polygon fill="none" stroke="#000000" stroke-width="3" points="44.5,-44.5 44.5,-172.5 418.5,-172.5 418.5,-44.5 44.5,-44.5"/>
</g>
</g>
</svg>
