<?xml version="1.0" encoding="UTF-8" standalone="no"?>
<!DOCTYPE svg PUBLIC "-//W3C//DTD SVG 1.1//EN"
 "http://www.w3.org/Graphics/SVG/1.1/DTD/svg11.dtd">
<!-- Generated by graphviz version 2.40.1 (20161225.0304)
 -->
<!-- Title: public.fa_physicalassetverificationdetail Pages: 1 -->
<svg width="555pt" height="435pt"
 viewBox="0.00 0.00 555.00 435.00" xmlns="http://www.w3.org/2000/svg" xmlns:xlink="http://www.w3.org/1999/xlink">
<g id="graph0" class="graph" transform="scale(1 1) rotate(0) translate(4 431)">
<title>public.fa_physicalassetverificationdetail</title>
<polygon fill="#ffffff" stroke="transparent" points="-4,4 -4,-431 551,-431 551,4 -4,4"/>
<!-- public.fa_physicalassetverificationdetail -->
<g id="node1" class="node">
<title>public.fa_physicalassetverificationdetail</title>
<polygon fill="#efefef" stroke="transparent" points="46.5,-345.5 46.5,-380.5 501.5,-380.5 501.5,-345.5 46.5,-345.5"/>
<polygon fill="none" stroke="#000000" points="46.5,-345.5 46.5,-380.5 501.5,-380.5 501.5,-345.5 46.5,-345.5"/>
<text text-anchor="start" x="53.1867" y="-358.3" font-family="Arial Bold" font-size="18.00" fill="#000000">public.fa_physicalassetverificationdetail</text>
<text text-anchor="start" x="367.2453" y="-358.3" font-family="Arial" font-size="14.00" fill="#000000">    </text>
<text text-anchor="start" x="401.4501" y="-358.3" font-family="Arial" font-size="14.00" fill="#666666">[BASE TABLE]</text>
<polygon fill="none" stroke="#000000" points="46.5,-315.5 46.5,-345.5 501.5,-345.5 501.5,-315.5 46.5,-315.5"/>
<text text-anchor="start" x="53.5" y="-326.9" font-family="Arial" font-size="14.00" fill="#000000">physicalassetverificationdetailid </text>
<text text-anchor="start" x="252.6402" y="-326.9" font-family="Arial" font-size="14.00" fill="#666666">[integer]</text>
<polygon fill="none" stroke="#000000" points="46.5,-285.5 46.5,-315.5 501.5,-315.5 501.5,-285.5 46.5,-285.5"/>
<text text-anchor="start" x="53.5" y="-296.9" font-family="Arial" font-size="14.00" fill="#000000">physicalassetverificationmasterid </text>
<text text-anchor="start" x="261.9656" y="-296.9" font-family="Arial" font-size="14.00" fill="#666666">[integer]</text>
<polygon fill="none" stroke="#000000" points="46.5,-255.5 46.5,-285.5 501.5,-285.5 501.5,-255.5 46.5,-255.5"/>
<text text-anchor="start" x="53.5" y="-266.9" font-family="Arial" font-size="14.00" fill="#000000">physicalassetserialno </text>
<text text-anchor="start" x="190.4116" y="-266.9" font-family="Arial" font-size="14.00" fill="#666666">[varchar(50)]</text>
<polygon fill="none" stroke="#000000" points="46.5,-225.5 46.5,-255.5 501.5,-255.5 501.5,-225.5 46.5,-225.5"/>
<text text-anchor="start" x="53.5" y="-236.9" font-family="Arial" font-size="14.00" fill="#000000">serial_no </text>
<text text-anchor="start" x="114.1774" y="-236.9" font-family="Arial" font-size="14.00" fill="#666666">[varchar(50)]</text>
<polygon fill="none" stroke="#000000" points="46.5,-195.5 46.5,-225.5 501.5,-225.5 501.5,-195.5 46.5,-195.5"/>
<text text-anchor="start" x="53.5" y="-206.9" font-family="Arial" font-size="14.00" fill="#000000">property_code </text>
<text text-anchor="start" x="146.8632" y="-206.9" font-family="Arial" font-size="14.00" fill="#666666">[varchar(250)]</text>
<polygon fill="none" stroke="#000000" points="46.5,-165.5 46.5,-195.5 501.5,-195.5 501.5,-165.5 46.5,-165.5"/>
<text text-anchor="start" x="53.5" y="-176.9" font-family="Arial" font-size="14.00" fill="#000000">asset_type </text>
<text text-anchor="start" x="125.0848" y="-176.9" font-family="Arial" font-size="14.00" fill="#666666">[varchar(250)]</text>
<polygon fill="none" stroke="#000000" points="46.5,-135.5 46.5,-165.5 501.5,-165.5 501.5,-135.5 46.5,-135.5"/>
<text text-anchor="start" x="53.5" y="-146.9" font-family="Arial" font-size="14.00" fill="#000000">asset_name </text>
<text text-anchor="start" x="133.6374" y="-146.9" font-family="Arial" font-size="14.00" fill="#666666">[varchar(250)]</text>
<polygon fill="none" stroke="#000000" points="46.5,-105.5 46.5,-135.5 501.5,-135.5 501.5,-105.5 46.5,-105.5"/>
<text text-anchor="start" x="53.5" y="-116.9" font-family="Arial" font-size="14.00" fill="#000000">oyo_tag </text>
<text text-anchor="start" x="107.1942" y="-116.9" font-family="Arial" font-size="14.00" fill="#666666">[varchar(250)]</text>
<polygon fill="none" stroke="#000000" points="46.5,-75.5 46.5,-105.5 501.5,-105.5 501.5,-75.5 46.5,-75.5"/>
<text text-anchor="start" x="53.5" y="-86.9" font-family="Arial" font-size="14.00" fill="#000000">tag_counter </text>
<text text-anchor="start" x="131.3106" y="-86.9" font-family="Arial" font-size="14.00" fill="#666666">[integer]</text>
<polygon fill="none" stroke="#000000" points="46.5,-45.5 46.5,-75.5 501.5,-75.5 501.5,-45.5 46.5,-45.5"/>
<text text-anchor="start" x="53.5" y="-56.9" font-family="Arial" font-size="14.00" fill="#000000">type_of_asset </text>
<text text-anchor="start" x="144.5406" y="-56.9" font-family="Arial" font-size="14.00" fill="#666666">[varchar(250)]</text>
<polygon fill="none" stroke="#000000" stroke-width="3" points="44.5,-44.5 44.5,-382.5 502.5,-382.5 502.5,-44.5 44.5,-44.5"/>
</g>
</g>
</svg>
