<?xml version="1.0" encoding="UTF-8" standalone="no"?>
<!DOCTYPE svg PUBLIC "-//W3C//DTD SVG 1.1//EN"
 "http://www.w3.org/Graphics/SVG/1.1/DTD/svg11.dtd">
<!-- Generated by graphviz version 2.40.1 (20161225.0304)
 -->
<!-- Title: public.comn_gstr2b_summary Pages: 1 -->
<svg width="481pt" height="675pt"
 viewBox="0.00 0.00 481.00 675.00" xmlns="http://www.w3.org/2000/svg" xmlns:xlink="http://www.w3.org/1999/xlink">
<g id="graph0" class="graph" transform="scale(1 1) rotate(0) translate(4 671)">
<title>public.comn_gstr2b_summary</title>
<polygon fill="#ffffff" stroke="transparent" points="-4,4 -4,-671 477,-671 477,4 -4,4"/>
<!-- public.comn_gstr2b_summary -->
<g id="node1" class="node">
<title>public.comn_gstr2b_summary</title>
<polygon fill="#efefef" stroke="transparent" points="46.5,-585.5 46.5,-620.5 427.5,-620.5 427.5,-585.5 46.5,-585.5"/>
<polygon fill="none" stroke="#000000" points="46.5,-585.5 46.5,-620.5 427.5,-620.5 427.5,-585.5 46.5,-585.5"/>
<text text-anchor="start" x="53.2019" y="-598.3" font-family="Arial Bold" font-size="18.00" fill="#000000">public.comn_gstr2b_summary</text>
<text text-anchor="start" x="293.2301" y="-598.3" font-family="Arial" font-size="14.00" fill="#000000">    </text>
<text text-anchor="start" x="327.4349" y="-598.3" font-family="Arial" font-size="14.00" fill="#666666">[BASE TABLE]</text>
<polygon fill="none" stroke="#000000" points="46.5,-555.5 46.5,-585.5 427.5,-585.5 427.5,-555.5 46.5,-555.5"/>
<text text-anchor="start" x="53.5" y="-566.9" font-family="Arial" font-size="14.00" fill="#000000">id </text>
<text text-anchor="start" x="68.2798" y="-566.9" font-family="Arial" font-size="14.00" fill="#666666">[integer]</text>
<polygon fill="none" stroke="#000000" points="46.5,-525.5 46.5,-555.5 427.5,-555.5 427.5,-525.5 46.5,-525.5"/>
<text text-anchor="start" x="53.5" y="-536.9" font-family="Arial" font-size="14.00" fill="#000000">gstrtype </text>
<text text-anchor="start" x="107.1802" y="-536.9" font-family="Arial" font-size="14.00" fill="#666666">[varchar(15)]</text>
<polygon fill="none" stroke="#000000" points="46.5,-495.5 46.5,-525.5 427.5,-525.5 427.5,-495.5 46.5,-495.5"/>
<text text-anchor="start" x="53.5" y="-506.9" font-family="Arial" font-size="14.00" fill="#000000">gstn </text>
<text text-anchor="start" x="83.8464" y="-506.9" font-family="Arial" font-size="14.00" fill="#666666">[varchar(15)]</text>
<polygon fill="none" stroke="#000000" points="46.5,-465.5 46.5,-495.5 427.5,-495.5 427.5,-465.5 46.5,-465.5"/>
<text text-anchor="start" x="53.5" y="-476.9" font-family="Arial" font-size="14.00" fill="#000000">returnperiod </text>
<text text-anchor="start" x="132.8478" y="-476.9" font-family="Arial" font-size="14.00" fill="#666666">[varchar(6)]</text>
<polygon fill="none" stroke="#000000" points="46.5,-435.5 46.5,-465.5 427.5,-465.5 427.5,-435.5 46.5,-435.5"/>
<text text-anchor="start" x="53.5" y="-446.9" font-family="Arial" font-size="14.00" fill="#000000">type1 </text>
<text text-anchor="start" x="91.629" y="-446.9" font-family="Arial" font-size="14.00" fill="#666666">[varchar(15)]</text>
<polygon fill="none" stroke="#000000" points="46.5,-405.5 46.5,-435.5 427.5,-435.5 427.5,-405.5 46.5,-405.5"/>
<text text-anchor="start" x="53.5" y="-416.9" font-family="Arial" font-size="14.00" fill="#000000">type2 </text>
<text text-anchor="start" x="91.629" y="-416.9" font-family="Arial" font-size="14.00" fill="#666666">[varchar(15)]</text>
<polygon fill="none" stroke="#000000" points="46.5,-375.5 46.5,-405.5 427.5,-405.5 427.5,-375.5 46.5,-375.5"/>
<text text-anchor="start" x="53.5" y="-386.9" font-family="Arial" font-size="14.00" fill="#000000">tot_igst </text>
<text text-anchor="start" x="102.5168" y="-386.9" font-family="Arial" font-size="14.00" fill="#666666">[numeric(18,2)]</text>
<polygon fill="none" stroke="#000000" points="46.5,-345.5 46.5,-375.5 427.5,-375.5 427.5,-345.5 46.5,-345.5"/>
<text text-anchor="start" x="53.5" y="-356.9" font-family="Arial" font-size="14.00" fill="#000000">tot_cgst </text>
<text text-anchor="start" x="106.4102" y="-356.9" font-family="Arial" font-size="14.00" fill="#666666">[numeric(18,2)]</text>
<polygon fill="none" stroke="#000000" points="46.5,-315.5 46.5,-345.5 427.5,-345.5 427.5,-315.5 46.5,-315.5"/>
<text text-anchor="start" x="53.5" y="-326.9" font-family="Arial" font-size="14.00" fill="#000000">tot_sgst </text>
<text text-anchor="start" x="106.4102" y="-326.9" font-family="Arial" font-size="14.00" fill="#666666">[numeric(18,2)]</text>
<polygon fill="none" stroke="#000000" points="46.5,-285.5 46.5,-315.5 427.5,-315.5 427.5,-285.5 46.5,-285.5"/>
<text text-anchor="start" x="53.5" y="-296.9" font-family="Arial" font-size="14.00" fill="#000000">tot_cess </text>
<text text-anchor="start" x="109.5196" y="-296.9" font-family="Arial" font-size="14.00" fill="#666666">[numeric(18,2)]</text>
<polygon fill="none" stroke="#000000" points="46.5,-255.5 46.5,-285.5 427.5,-285.5 427.5,-255.5 46.5,-255.5"/>
<text text-anchor="start" x="53.5" y="-266.9" font-family="Arial" font-size="14.00" fill="#000000">trantype </text>
<text text-anchor="start" x="107.9628" y="-266.9" font-family="Arial" font-size="14.00" fill="#666666">[varchar(15)]</text>
<polygon fill="none" stroke="#000000" points="46.5,-225.5 46.5,-255.5 427.5,-255.5 427.5,-225.5 46.5,-225.5"/>
<text text-anchor="start" x="53.5" y="-236.9" font-family="Arial" font-size="14.00" fill="#000000">igst </text>
<text text-anchor="start" x="79.1704" y="-236.9" font-family="Arial" font-size="14.00" fill="#666666">[numeric(18,2)]</text>
<polygon fill="none" stroke="#000000" points="46.5,-195.5 46.5,-225.5 427.5,-225.5 427.5,-195.5 46.5,-195.5"/>
<text text-anchor="start" x="53.5" y="-206.9" font-family="Arial" font-size="14.00" fill="#000000">cgst </text>
<text text-anchor="start" x="83.0638" y="-206.9" font-family="Arial" font-size="14.00" fill="#666666">[numeric(18,2)]</text>
<polygon fill="none" stroke="#000000" points="46.5,-165.5 46.5,-195.5 427.5,-195.5 427.5,-165.5 46.5,-165.5"/>
<text text-anchor="start" x="53.5" y="-176.9" font-family="Arial" font-size="14.00" fill="#000000">sgst </text>
<text text-anchor="start" x="83.0638" y="-176.9" font-family="Arial" font-size="14.00" fill="#666666">[numeric(18,2)]</text>
<polygon fill="none" stroke="#000000" points="46.5,-135.5 46.5,-165.5 427.5,-165.5 427.5,-135.5 46.5,-135.5"/>
<text text-anchor="start" x="53.5" y="-146.9" font-family="Arial" font-size="14.00" fill="#000000">cess </text>
<text text-anchor="start" x="86.1732" y="-146.9" font-family="Arial" font-size="14.00" fill="#666666">[numeric(18,2)]</text>
<polygon fill="none" stroke="#000000" points="46.5,-105.5 46.5,-135.5 427.5,-135.5 427.5,-105.5 46.5,-105.5"/>
<text text-anchor="start" x="53.5" y="-116.9" font-family="Arial" font-size="14.00" fill="#000000">islatest </text>
<text text-anchor="start" x="100.9502" y="-116.9" font-family="Arial" font-size="14.00" fill="#666666">[boolean]</text>
<polygon fill="none" stroke="#000000" points="46.5,-75.5 46.5,-105.5 427.5,-105.5 427.5,-75.5 46.5,-75.5"/>
<text text-anchor="start" x="53.5" y="-86.9" font-family="Arial" font-size="14.00" fill="#000000">createdon </text>
<text text-anchor="start" x="119.6374" y="-86.9" font-family="Arial" font-size="14.00" fill="#666666">[timestamp(6) without time zone]</text>
<polygon fill="none" stroke="#000000" points="46.5,-45.5 46.5,-75.5 427.5,-75.5 427.5,-45.5 46.5,-45.5"/>
<text text-anchor="start" x="53.5" y="-56.9" font-family="Arial" font-size="14.00" fill="#000000">userid </text>
<text text-anchor="start" x="95.5056" y="-56.9" font-family="Arial" font-size="14.00" fill="#666666">[integer]</text>
<polygon fill="none" stroke="#000000" stroke-width="3" points="44.5,-44.5 44.5,-622.5 428.5,-622.5 428.5,-44.5 44.5,-44.5"/>
</g>
</g>
</svg>
