<?xml version="1.0" encoding="UTF-8" standalone="no"?>
<!DOCTYPE svg PUBLIC "-//W3C//DTD SVG 1.1//EN"
 "http://www.w3.org/Graphics/SVG/1.1/DTD/svg11.dtd">
<!-- Generated by graphviz version 2.40.1 (20161225.0304)
 -->
<!-- Title: public.acc_exciseclassificationdetail Pages: 1 -->
<svg width="527pt" height="345pt"
 viewBox="0.00 0.00 527.00 345.00" xmlns="http://www.w3.org/2000/svg" xmlns:xlink="http://www.w3.org/1999/xlink">
<g id="graph0" class="graph" transform="scale(1 1) rotate(0) translate(4 341)">
<title>public.acc_exciseclassificationdetail</title>
<polygon fill="#ffffff" stroke="transparent" points="-4,4 -4,-341 523,-341 523,4 -4,4"/>
<!-- public.acc_exciseclassificationdetail -->
<g id="node1" class="node">
<title>public.acc_exciseclassificationdetail</title>
<polygon fill="#efefef" stroke="transparent" points="46.5,-255.5 46.5,-290.5 473.5,-290.5 473.5,-255.5 46.5,-255.5"/>
<polygon fill="none" stroke="#000000" points="46.5,-255.5 46.5,-290.5 473.5,-290.5 473.5,-255.5 46.5,-255.5"/>
<text text-anchor="start" x="53.1943" y="-268.3" font-family="Arial Bold" font-size="18.00" fill="#000000">public.acc_exciseclassificationdetail</text>
<text text-anchor="start" x="339.2377" y="-268.3" font-family="Arial" font-size="14.00" fill="#000000">    </text>
<text text-anchor="start" x="373.4425" y="-268.3" font-family="Arial" font-size="14.00" fill="#666666">[BASE TABLE]</text>
<polygon fill="none" stroke="#000000" points="46.5,-225.5 46.5,-255.5 473.5,-255.5 473.5,-225.5 46.5,-225.5"/>
<text text-anchor="start" x="53.5" y="-236.9" font-family="Arial" font-size="14.00" fill="#000000">exciseclassificationdetailid </text>
<text text-anchor="start" x="220.7412" y="-236.9" font-family="Arial" font-size="14.00" fill="#666666">[integer]</text>
<polygon fill="none" stroke="#000000" points="46.5,-195.5 46.5,-225.5 473.5,-225.5 473.5,-195.5 46.5,-195.5"/>
<text text-anchor="start" x="53.5" y="-206.9" font-family="Arial" font-size="14.00" fill="#000000">exciseclassificationid </text>
<text text-anchor="start" x="187.2896" y="-206.9" font-family="Arial" font-size="14.00" fill="#666666">[integer]</text>
<polygon fill="none" stroke="#000000" points="46.5,-165.5 46.5,-195.5 473.5,-195.5 473.5,-165.5 46.5,-165.5"/>
<text text-anchor="start" x="53.5" y="-176.9" font-family="Arial" font-size="14.00" fill="#000000">excise </text>
<text text-anchor="start" x="97.0624" y="-176.9" font-family="Arial" font-size="14.00" fill="#666666">[numeric(17,5)]</text>
<polygon fill="none" stroke="#000000" points="46.5,-135.5 46.5,-165.5 473.5,-165.5 473.5,-135.5 46.5,-135.5"/>
<text text-anchor="start" x="53.5" y="-146.9" font-family="Arial" font-size="14.00" fill="#000000">cess </text>
<text text-anchor="start" x="86.1732" y="-146.9" font-family="Arial" font-size="14.00" fill="#666666">[numeric(17,5)]</text>
<polygon fill="none" stroke="#000000" points="46.5,-105.5 46.5,-135.5 473.5,-135.5 473.5,-105.5 46.5,-105.5"/>
<text text-anchor="start" x="53.5" y="-116.9" font-family="Arial" font-size="14.00" fill="#000000">hedcess </text>
<text text-anchor="start" x="109.521" y="-116.9" font-family="Arial" font-size="14.00" fill="#666666">[numeric(17,5)]</text>
<polygon fill="none" stroke="#000000" points="46.5,-75.5 46.5,-105.5 473.5,-105.5 473.5,-75.5 46.5,-75.5"/>
<text text-anchor="start" x="53.5" y="-86.9" font-family="Arial" font-size="14.00" fill="#000000">adc </text>
<text text-anchor="start" x="79.9558" y="-86.9" font-family="Arial" font-size="14.00" fill="#666666">[numeric(17,5)]</text>
<polygon fill="none" stroke="#000000" points="46.5,-45.5 46.5,-75.5 473.5,-75.5 473.5,-45.5 46.5,-45.5"/>
<text text-anchor="start" x="53.5" y="-56.9" font-family="Arial" font-size="14.00" fill="#000000">applicablefrom </text>
<text text-anchor="start" x="148.4004" y="-56.9" font-family="Arial" font-size="14.00" fill="#666666">[date]</text>
<polygon fill="none" stroke="#000000" stroke-width="3" points="44.5,-44.5 44.5,-292.5 474.5,-292.5 474.5,-44.5 44.5,-44.5"/>
</g>
</g>
</svg>
