<?xml version="1.0" encoding="UTF-8" standalone="no"?>
<!DOCTYPE svg PUBLIC "-//W3C//DTD SVG 1.1//EN"
 "http://www.w3.org/Graphics/SVG/1.1/DTD/svg11.dtd">
<!-- Generated by graphviz version 2.40.1 (20161225.0304)
 -->
<!-- Title: public.comn_additionalfielddetail Pages: 1 -->
<svg width="500pt" height="555pt"
 viewBox="0.00 0.00 500.00 555.00" xmlns="http://www.w3.org/2000/svg" xmlns:xlink="http://www.w3.org/1999/xlink">
<g id="graph0" class="graph" transform="scale(1 1) rotate(0) translate(4 551)">
<title>public.comn_additionalfielddetail</title>
<polygon fill="#ffffff" stroke="transparent" points="-4,4 -4,-551 496,-551 496,4 -4,4"/>
<!-- public.comn_additionalfielddetail -->
<g id="node1" class="node">
<title>public.comn_additionalfielddetail</title>
<polygon fill="#efefef" stroke="transparent" points="46,-465.5 46,-500.5 446,-500.5 446,-465.5 46,-465.5"/>
<polygon fill="none" stroke="#000000" points="46,-465.5 46,-500.5 446,-500.5 446,-465.5 46,-465.5"/>
<text text-anchor="start" x="52.6889" y="-478.3" font-family="Arial Bold" font-size="18.00" fill="#000000">public.comn_additionalfielddetail</text>
<text text-anchor="start" x="311.7431" y="-478.3" font-family="Arial" font-size="14.00" fill="#000000">    </text>
<text text-anchor="start" x="345.9479" y="-478.3" font-family="Arial" font-size="14.00" fill="#666666">[BASE TABLE]</text>
<polygon fill="none" stroke="#000000" points="46,-435.5 46,-465.5 446,-465.5 446,-435.5 46,-435.5"/>
<text text-anchor="start" x="53" y="-446.9" font-family="Arial" font-size="14.00" fill="#000000">sheetdetailid </text>
<text text-anchor="start" x="135.4698" y="-446.9" font-family="Arial" font-size="14.00" fill="#666666">[integer]</text>
<polygon fill="none" stroke="#000000" points="46,-405.5 46,-435.5 446,-435.5 446,-405.5 46,-405.5"/>
<text text-anchor="start" x="53" y="-416.9" font-family="Arial" font-size="14.00" fill="#000000">sheetid </text>
<text text-anchor="start" x="102.0182" y="-416.9" font-family="Arial" font-size="14.00" fill="#666666">[integer]</text>
<polygon fill="none" stroke="#000000" points="46,-375.5 46,-405.5 446,-405.5 446,-375.5 46,-375.5"/>
<text text-anchor="start" x="53" y="-386.9" font-family="Arial" font-size="14.00" fill="#000000">fieldcode </text>
<text text-anchor="start" x="112.9074" y="-386.9" font-family="Arial" font-size="14.00" fill="#666666">[varchar(50)]</text>
<polygon fill="none" stroke="#000000" points="46,-345.5 46,-375.5 446,-375.5 446,-345.5 46,-345.5"/>
<text text-anchor="start" x="53" y="-356.9" font-family="Arial" font-size="14.00" fill="#000000">fieldname </text>
<text text-anchor="start" x="117.568" y="-356.9" font-family="Arial" font-size="14.00" fill="#666666">[varchar(250)]</text>
<polygon fill="none" stroke="#000000" points="46,-315.5 46,-345.5 446,-345.5 446,-315.5 46,-315.5"/>
<text text-anchor="start" x="53" y="-326.9" font-family="Arial" font-size="14.00" fill="#000000">fieldtype </text>
<text text-anchor="start" x="109.0154" y="-326.9" font-family="Arial" font-size="14.00" fill="#666666">[smallint]</text>
<polygon fill="none" stroke="#000000" points="46,-285.5 46,-315.5 446,-315.5 446,-285.5 46,-285.5"/>
<text text-anchor="start" x="53" y="-296.9" font-family="Arial" font-size="14.00" fill="#000000">isvisible </text>
<text text-anchor="start" x="105.8822" y="-296.9" font-family="Arial" font-size="14.00" fill="#666666">[boolean]</text>
<polygon fill="none" stroke="#000000" points="46,-255.5 46,-285.5 446,-285.5 446,-255.5 46,-255.5"/>
<text text-anchor="start" x="53" y="-266.9" font-family="Arial" font-size="14.00" fill="#000000">fieldvaluefrom </text>
<text text-anchor="start" x="144.0084" y="-266.9" font-family="Arial" font-size="14.00" fill="#666666">[smallint]</text>
<polygon fill="none" stroke="#000000" points="46,-225.5 46,-255.5 446,-255.5 446,-225.5 46,-225.5"/>
<text text-anchor="start" x="53" y="-236.9" font-family="Arial" font-size="14.00" fill="#000000">fieldvalue </text>
<text text-anchor="start" x="116.014" y="-236.9" font-family="Arial" font-size="14.00" fill="#666666">[varchar(250)]</text>
<polygon fill="none" stroke="#000000" points="46,-195.5 46,-225.5 446,-225.5 446,-195.5 46,-195.5"/>
<text text-anchor="start" x="53" y="-206.9" font-family="Arial" font-size="14.00" fill="#000000">seq_no </text>
<text text-anchor="start" x="102.8036" y="-206.9" font-family="Arial" font-size="14.00" fill="#666666">[smallint]</text>
<polygon fill="none" stroke="#000000" points="46,-165.5 46,-195.5 446,-195.5 446,-165.5 46,-165.5"/>
<text text-anchor="start" x="53" y="-176.9" font-family="Arial" font-size="14.00" fill="#000000">isnumeric </text>
<text text-anchor="start" x="116.7728" y="-176.9" font-family="Arial" font-size="14.00" fill="#666666">[boolean]</text>
<polygon fill="none" stroke="#000000" points="46,-135.5 46,-165.5 446,-165.5 446,-135.5 46,-135.5"/>
<text text-anchor="start" x="53" y="-146.9" font-family="Arial" font-size="14.00" fill="#000000">field_width </text>
<text text-anchor="start" x="123.0112" y="-146.9" font-family="Arial" font-size="14.00" fill="#666666">[smallint]</text>
<polygon fill="none" stroke="#000000" points="46,-105.5 46,-135.5 446,-135.5 446,-105.5 46,-105.5"/>
<text text-anchor="start" x="53" y="-116.9" font-family="Arial" font-size="14.00" fill="#000000">isprint </text>
<text text-anchor="start" x="94.2202" y="-116.9" font-family="Arial" font-size="14.00" fill="#666666">[boolean]</text>
<polygon fill="none" stroke="#000000" points="46,-75.5 46,-105.5 446,-105.5 446,-75.5 46,-75.5"/>
<text text-anchor="start" x="53" y="-86.9" font-family="Arial" font-size="14.00" fill="#000000">itemgroupid </text>
<text text-anchor="start" x="130.0112" y="-86.9" font-family="Arial" font-size="14.00" fill="#666666">[integer]</text>
<polygon fill="none" stroke="#000000" points="46,-45.5 46,-75.5 446,-75.5 446,-45.5 46,-45.5"/>
<text text-anchor="start" x="53" y="-56.9" font-family="Arial" font-size="14.00" fill="#000000">iseditable </text>
<text text-anchor="start" x="116.014" y="-56.9" font-family="Arial" font-size="14.00" fill="#666666">[boolean]</text>
<polygon fill="none" stroke="#000000" stroke-width="3" points="44.5,-44.5 44.5,-502.5 447.5,-502.5 447.5,-44.5 44.5,-44.5"/>
</g>
</g>
</svg>
