<?xml version="1.0" encoding="UTF-8" standalone="no"?>
<!DOCTYPE svg PUBLIC "-//W3C//DTD SVG 1.1//EN"
 "http://www.w3.org/Graphics/SVG/1.1/DTD/svg11.dtd">
<!-- Generated by graphviz version 2.40.1 (20161225.0304)
 -->
<!-- Title: public.comn_portal_menu_configuration Pages: 1 -->
<svg width="560pt" height="345pt"
 viewBox="0.00 0.00 560.00 345.00" xmlns="http://www.w3.org/2000/svg" xmlns:xlink="http://www.w3.org/1999/xlink">
<g id="graph0" class="graph" transform="scale(1 1) rotate(0) translate(4 341)">
<title>public.comn_portal_menu_configuration</title>
<polygon fill="#ffffff" stroke="transparent" points="-4,4 -4,-341 556,-341 556,4 -4,4"/>
<!-- public.comn_portal_menu_configuration -->
<g id="node1" class="node">
<title>public.comn_portal_menu_configuration</title>
<polygon fill="#efefef" stroke="transparent" points="46,-255.5 46,-290.5 506,-290.5 506,-255.5 46,-255.5"/>
<polygon fill="none" stroke="#000000" points="46,-255.5 46,-290.5 506,-290.5 506,-255.5 46,-255.5"/>
<text text-anchor="start" x="52.6766" y="-268.3" font-family="Arial Bold" font-size="18.00" fill="#000000">public.comn_portal_menu_configuration</text>
<text text-anchor="start" x="371.7554" y="-268.3" font-family="Arial" font-size="14.00" fill="#000000">    </text>
<text text-anchor="start" x="405.9602" y="-268.3" font-family="Arial" font-size="14.00" fill="#666666">[BASE TABLE]</text>
<polygon fill="none" stroke="#000000" points="46,-225.5 46,-255.5 506,-255.5 506,-225.5 46,-225.5"/>
<text text-anchor="start" x="53" y="-236.9" font-family="Arial" font-size="14.00" fill="#000000">configurationformid </text>
<text text-anchor="start" x="175.9074" y="-236.9" font-family="Arial" font-size="14.00" fill="#666666">[integer]</text>
<polygon fill="none" stroke="#000000" points="46,-195.5 46,-225.5 506,-225.5 506,-195.5 46,-195.5"/>
<text text-anchor="start" x="53" y="-206.9" font-family="Arial" font-size="14.00" fill="#000000">captionname </text>
<text text-anchor="start" x="137.0266" y="-206.9" font-family="Arial" font-size="14.00" fill="#666666">[varchar(250)]</text>
<polygon fill="none" stroke="#000000" points="46,-165.5 46,-195.5 506,-195.5 506,-165.5 46,-165.5"/>
<text text-anchor="start" x="53" y="-176.9" font-family="Arial" font-size="14.00" fill="#000000">isuseforcustomerportal </text>
<text text-anchor="start" x="198.4614" y="-176.9" font-family="Arial" font-size="14.00" fill="#666666">[boolean]</text>
<polygon fill="none" stroke="#000000" points="46,-135.5 46,-165.5 506,-165.5 506,-135.5 46,-135.5"/>
<text text-anchor="start" x="53" y="-146.9" font-family="Arial" font-size="14.00" fill="#000000">isuseforvendorportal </text>
<text text-anchor="start" x="183.6928" y="-146.9" font-family="Arial" font-size="14.00" fill="#666666">[boolean]</text>
<polygon fill="none" stroke="#000000" points="46,-105.5 46,-135.5 506,-135.5 506,-105.5 46,-105.5"/>
<text text-anchor="start" x="53" y="-116.9" font-family="Arial" font-size="14.00" fill="#000000">isuseforemployeeportal </text>
<text text-anchor="start" x="201.582" y="-116.9" font-family="Arial" font-size="14.00" fill="#666666">[boolean]</text>
<polygon fill="none" stroke="#000000" points="46,-75.5 46,-105.5 506,-105.5 506,-75.5 46,-75.5"/>
<text text-anchor="start" x="53" y="-86.9" font-family="Arial" font-size="14.00" fill="#000000">parentid </text>
<text text-anchor="start" x="107.4614" y="-86.9" font-family="Arial" font-size="14.00" fill="#666666">[integer]</text>
<polygon fill="none" stroke="#000000" points="46,-45.5 46,-75.5 506,-75.5 506,-45.5 46,-45.5"/>
<text text-anchor="start" x="53" y="-56.9" font-family="Arial" font-size="14.00" fill="#000000">haschild </text>
<text text-anchor="start" x="108.2342" y="-56.9" font-family="Arial" font-size="14.00" fill="#666666">[boolean]</text>
<polygon fill="none" stroke="#000000" stroke-width="3" points="44.5,-44.5 44.5,-292.5 507.5,-292.5 507.5,-44.5 44.5,-44.5"/>
</g>
</g>
</svg>
