<?xml version="1.0" encoding="UTF-8" standalone="no"?>
<!DOCTYPE svg PUBLIC "-//W3C//DTD SVG 1.1//EN"
 "http://www.w3.org/Graphics/SVG/1.1/DTD/svg11.dtd">
<!-- Generated by graphviz version 2.40.1 (20161225.0304)
 -->
<!-- Title: public.hr_employee_current_status Pages: 1 -->
<svg width="521pt" height="1905pt"
 viewBox="0.00 0.00 521.00 1905.00" xmlns="http://www.w3.org/2000/svg" xmlns:xlink="http://www.w3.org/1999/xlink">
<g id="graph0" class="graph" transform="scale(1 1) rotate(0) translate(4 1901)">
<title>public.hr_employee_current_status</title>
<polygon fill="#ffffff" stroke="transparent" points="-4,4 -4,-1901 517,-1901 517,4 -4,4"/>
<!-- public.hr_employee_current_status -->
<g id="node1" class="node">
<title>public.hr_employee_current_status</title>
<polygon fill="#efefef" stroke="transparent" points="46.5,-1815.5 46.5,-1850.5 467.5,-1850.5 467.5,-1815.5 46.5,-1815.5"/>
<polygon fill="none" stroke="#000000" points="46.5,-1815.5 46.5,-1850.5 467.5,-1850.5 467.5,-1815.5 46.5,-1815.5"/>
<text text-anchor="start" x="53.1832" y="-1828.3" font-family="Arial Bold" font-size="18.00" fill="#000000">public.hr_employee_current_status</text>
<text text-anchor="start" x="333.2488" y="-1828.3" font-family="Arial" font-size="14.00" fill="#000000">    </text>
<text text-anchor="start" x="367.4536" y="-1828.3" font-family="Arial" font-size="14.00" fill="#666666">[BASE TABLE]</text>
<polygon fill="none" stroke="#000000" points="46.5,-1785.5 46.5,-1815.5 467.5,-1815.5 467.5,-1785.5 46.5,-1785.5"/>
<text text-anchor="start" x="53.5" y="-1796.9" font-family="Arial" font-size="14.00" fill="#000000">un_id </text>
<text text-anchor="start" x="91.6276" y="-1796.9" font-family="Arial" font-size="14.00" fill="#666666">[integer]</text>
<polygon fill="none" stroke="#000000" points="46.5,-1755.5 46.5,-1785.5 467.5,-1785.5 467.5,-1755.5 46.5,-1755.5"/>
<text text-anchor="start" x="53.5" y="-1766.9" font-family="Arial" font-size="14.00" fill="#000000">employeeid </text>
<text text-anchor="start" x="128.96" y="-1766.9" font-family="Arial" font-size="14.00" fill="#666666">[integer]</text>
<polygon fill="none" stroke="#000000" points="46.5,-1725.5 46.5,-1755.5 467.5,-1755.5 467.5,-1725.5 46.5,-1725.5"/>
<text text-anchor="start" x="53.5" y="-1736.9" font-family="Arial" font-size="14.00" fill="#000000">applicable_frm </text>
<text text-anchor="start" x="148.4004" y="-1736.9" font-family="Arial" font-size="14.00" fill="#666666">[date]</text>
<polygon fill="none" stroke="#000000" points="46.5,-1695.5 46.5,-1725.5 467.5,-1725.5 467.5,-1695.5 46.5,-1695.5"/>
<text text-anchor="start" x="53.5" y="-1706.9" font-family="Arial" font-size="14.00" fill="#000000">departmentid </text>
<text text-anchor="start" x="139.0778" y="-1706.9" font-family="Arial" font-size="14.00" fill="#666666">[integer]</text>
<polygon fill="none" stroke="#000000" points="46.5,-1665.5 46.5,-1695.5 467.5,-1695.5 467.5,-1665.5 46.5,-1665.5"/>
<text text-anchor="start" x="53.5" y="-1676.9" font-family="Arial" font-size="14.00" fill="#000000">divisionid </text>
<text text-anchor="start" x="114.9474" y="-1676.9" font-family="Arial" font-size="14.00" fill="#666666">[integer]</text>
<polygon fill="none" stroke="#000000" points="46.5,-1635.5 46.5,-1665.5 467.5,-1665.5 467.5,-1635.5 46.5,-1635.5"/>
<text text-anchor="start" x="53.5" y="-1646.9" font-family="Arial" font-size="14.00" fill="#000000">designationid </text>
<text text-anchor="start" x="139.8618" y="-1646.9" font-family="Arial" font-size="14.00" fill="#666666">[integer]</text>
<polygon fill="none" stroke="#000000" points="46.5,-1605.5 46.5,-1635.5 467.5,-1635.5 467.5,-1605.5 46.5,-1605.5"/>
<text text-anchor="start" x="53.5" y="-1616.9" font-family="Arial" font-size="14.00" fill="#000000">reporting_employeeid </text>
<text text-anchor="start" x="191.974" y="-1616.9" font-family="Arial" font-size="14.00" fill="#666666">[integer]</text>
<polygon fill="none" stroke="#000000" points="46.5,-1575.5 46.5,-1605.5 467.5,-1605.5 467.5,-1575.5 46.5,-1575.5"/>
<text text-anchor="start" x="53.5" y="-1586.9" font-family="Arial" font-size="14.00" fill="#000000">payment_mode </text>
<text text-anchor="start" x="153.8632" y="-1586.9" font-family="Arial" font-size="14.00" fill="#666666">[integer]</text>
<polygon fill="none" stroke="#000000" points="46.5,-1545.5 46.5,-1575.5 467.5,-1575.5 467.5,-1545.5 46.5,-1545.5"/>
<text text-anchor="start" x="53.5" y="-1556.9" font-family="Arial" font-size="14.00" fill="#000000">bankid </text>
<text text-anchor="start" x="98.6276" y="-1556.9" font-family="Arial" font-size="14.00" fill="#666666">[integer]</text>
<polygon fill="none" stroke="#000000" points="46.5,-1515.5 46.5,-1545.5 467.5,-1545.5 467.5,-1515.5 46.5,-1515.5"/>
<text text-anchor="start" x="53.5" y="-1526.9" font-family="Arial" font-size="14.00" fill="#000000">acno </text>
<text text-anchor="start" x="87.7384" y="-1526.9" font-family="Arial" font-size="14.00" fill="#666666">[varchar]</text>
<polygon fill="none" stroke="#000000" points="46.5,-1485.5 46.5,-1515.5 467.5,-1515.5 467.5,-1485.5 46.5,-1485.5"/>
<text text-anchor="start" x="53.5" y="-1496.9" font-family="Arial" font-size="14.00" fill="#000000">employeename_in_bank </text>
<text text-anchor="start" x="209.8814" y="-1496.9" font-family="Arial" font-size="14.00" fill="#666666">[varchar]</text>
<polygon fill="none" stroke="#000000" points="46.5,-1455.5 46.5,-1485.5 467.5,-1485.5 467.5,-1455.5 46.5,-1455.5"/>
<text text-anchor="start" x="53.5" y="-1466.9" font-family="Arial" font-size="14.00" fill="#000000">employment_status </text>
<text text-anchor="start" x="178.751" y="-1466.9" font-family="Arial" font-size="14.00" fill="#666666">[integer]</text>
<polygon fill="none" stroke="#000000" points="46.5,-1425.5 46.5,-1455.5 467.5,-1455.5 467.5,-1425.5 46.5,-1425.5"/>
<text text-anchor="start" x="53.5" y="-1436.9" font-family="Arial" font-size="14.00" fill="#000000">is_pf_applicable </text>
<text text-anchor="start" x="157.751" y="-1436.9" font-family="Arial" font-size="14.00" fill="#666666">[boolean]</text>
<polygon fill="none" stroke="#000000" points="46.5,-1395.5 46.5,-1425.5 467.5,-1425.5 467.5,-1395.5 46.5,-1395.5"/>
<text text-anchor="start" x="53.5" y="-1406.9" font-family="Arial" font-size="14.00" fill="#000000">pfno </text>
<text text-anchor="start" x="84.629" y="-1406.9" font-family="Arial" font-size="14.00" fill="#666666">[varchar]</text>
<polygon fill="none" stroke="#000000" points="46.5,-1365.5 46.5,-1395.5 467.5,-1395.5 467.5,-1365.5 46.5,-1365.5"/>
<text text-anchor="start" x="53.5" y="-1376.9" font-family="Arial" font-size="14.00" fill="#000000">is_esi_applicable </text>
<text text-anchor="start" x="163.967" y="-1376.9" font-family="Arial" font-size="14.00" fill="#666666">[boolean]</text>
<polygon fill="none" stroke="#000000" points="46.5,-1335.5 46.5,-1365.5 467.5,-1365.5 467.5,-1335.5 46.5,-1335.5"/>
<text text-anchor="start" x="53.5" y="-1346.9" font-family="Arial" font-size="14.00" fill="#000000">esino </text>
<text text-anchor="start" x="90.845" y="-1346.9" font-family="Arial" font-size="14.00" fill="#666666">[varchar]</text>
<polygon fill="none" stroke="#000000" points="46.5,-1305.5 46.5,-1335.5 467.5,-1335.5 467.5,-1305.5 46.5,-1305.5"/>
<text text-anchor="start" x="53.5" y="-1316.9" font-family="Arial" font-size="14.00" fill="#000000">is_eps_amt_transfer_to_epf </text>
<text text-anchor="start" x="230.8884" y="-1316.9" font-family="Arial" font-size="14.00" fill="#666666">[boolean]</text>
<polygon fill="none" stroke="#000000" points="46.5,-1275.5 46.5,-1305.5 467.5,-1305.5 467.5,-1275.5 46.5,-1275.5"/>
<text text-anchor="start" x="53.5" y="-1286.9" font-family="Arial" font-size="14.00" fill="#000000">dispensary_id </text>
<text text-anchor="start" x="143.7426" y="-1286.9" font-family="Arial" font-size="14.00" fill="#666666">[integer]</text>
<polygon fill="none" stroke="#000000" points="46.5,-1245.5 46.5,-1275.5 467.5,-1275.5 467.5,-1245.5 46.5,-1245.5"/>
<text text-anchor="start" x="53.5" y="-1256.9" font-family="Arial" font-size="14.00" fill="#000000">mislevel1id </text>
<text text-anchor="start" x="126.608" y="-1256.9" font-family="Arial" font-size="14.00" fill="#666666">[integer]</text>
<polygon fill="none" stroke="#000000" points="46.5,-1215.5 46.5,-1245.5 467.5,-1245.5 467.5,-1215.5 46.5,-1215.5"/>
<text text-anchor="start" x="53.5" y="-1226.9" font-family="Arial" font-size="14.00" fill="#000000">mislevel2id </text>
<text text-anchor="start" x="126.608" y="-1226.9" font-family="Arial" font-size="14.00" fill="#666666">[integer]</text>
<polygon fill="none" stroke="#000000" points="46.5,-1185.5 46.5,-1215.5 467.5,-1215.5 467.5,-1185.5 46.5,-1185.5"/>
<text text-anchor="start" x="53.5" y="-1196.9" font-family="Arial" font-size="14.00" fill="#000000">categoryid </text>
<text text-anchor="start" x="121.9614" y="-1196.9" font-family="Arial" font-size="14.00" fill="#666666">[integer]</text>
<polygon fill="none" stroke="#000000" points="46.5,-1155.5 46.5,-1185.5 467.5,-1185.5 467.5,-1155.5 46.5,-1155.5"/>
<text text-anchor="start" x="53.5" y="-1166.9" font-family="Arial" font-size="14.00" fill="#000000">gradeid </text>
<text text-anchor="start" x="104.0708" y="-1166.9" font-family="Arial" font-size="14.00" fill="#666666">[integer]</text>
<polygon fill="none" stroke="#000000" points="46.5,-1125.5 46.5,-1155.5 467.5,-1155.5 467.5,-1125.5 46.5,-1125.5"/>
<text text-anchor="start" x="53.5" y="-1136.9" font-family="Arial" font-size="14.00" fill="#000000">is_ot_applicable </text>
<text text-anchor="start" x="157.751" y="-1136.9" font-family="Arial" font-size="14.00" fill="#666666">[boolean]</text>
<polygon fill="none" stroke="#000000" points="46.5,-1095.5 46.5,-1125.5 467.5,-1125.5 467.5,-1095.5 46.5,-1095.5"/>
<text text-anchor="start" x="53.5" y="-1106.9" font-family="Arial" font-size="14.00" fill="#000000">ot_category_id </text>
<text text-anchor="start" x="149.1998" y="-1106.9" font-family="Arial" font-size="14.00" fill="#666666">[integer]</text>
<polygon fill="none" stroke="#000000" points="46.5,-1065.5 46.5,-1095.5 467.5,-1095.5 467.5,-1065.5 46.5,-1065.5"/>
<text text-anchor="start" x="53.5" y="-1076.9" font-family="Arial" font-size="14.00" fill="#000000">bonusid </text>
<text text-anchor="start" x="106.4102" y="-1076.9" font-family="Arial" font-size="14.00" fill="#666666">[integer]</text>
<polygon fill="none" stroke="#000000" points="46.5,-1035.5 46.5,-1065.5 467.5,-1065.5 467.5,-1035.5 46.5,-1035.5"/>
<text text-anchor="start" x="53.5" y="-1046.9" font-family="Arial" font-size="14.00" fill="#000000">project_id </text>
<text text-anchor="start" x="118.068" y="-1046.9" font-family="Arial" font-size="14.00" fill="#666666">[integer]</text>
<polygon fill="none" stroke="#000000" points="46.5,-1005.5 46.5,-1035.5 467.5,-1035.5 467.5,-1005.5 46.5,-1005.5"/>
<text text-anchor="start" x="53.5" y="-1016.9" font-family="Arial" font-size="14.00" fill="#000000">costcenterid </text>
<text text-anchor="start" x="132.852" y="-1016.9" font-family="Arial" font-size="14.00" fill="#666666">[integer]</text>
<polygon fill="none" stroke="#000000" points="46.5,-975.5 46.5,-1005.5 467.5,-1005.5 467.5,-975.5 46.5,-975.5"/>
<text text-anchor="start" x="53.5" y="-986.9" font-family="Arial" font-size="14.00" fill="#000000">pay_head_id </text>
<text text-anchor="start" x="137.5406" y="-986.9" font-family="Arial" font-size="14.00" fill="#666666">[integer]</text>
<polygon fill="none" stroke="#000000" points="46.5,-945.5 46.5,-975.5 467.5,-975.5 467.5,-945.5 46.5,-945.5"/>
<text text-anchor="start" x="53.5" y="-956.9" font-family="Arial" font-size="14.00" fill="#000000">isauthorized </text>
<text text-anchor="start" x="132.8506" y="-956.9" font-family="Arial" font-size="14.00" fill="#666666">[boolean]</text>
<polygon fill="none" stroke="#000000" points="46.5,-915.5 46.5,-945.5 467.5,-945.5 467.5,-915.5 46.5,-915.5"/>
<text text-anchor="start" x="53.5" y="-926.9" font-family="Arial" font-size="14.00" fill="#000000">authorizedby </text>
<text text-anchor="start" x="137.5266" y="-926.9" font-family="Arial" font-size="14.00" fill="#666666">[integer]</text>
<polygon fill="none" stroke="#000000" points="46.5,-885.5 46.5,-915.5 467.5,-915.5 467.5,-885.5 46.5,-885.5"/>
<text text-anchor="start" x="53.5" y="-896.9" font-family="Arial" font-size="14.00" fill="#000000">authorizedon </text>
<text text-anchor="start" x="138.3092" y="-896.9" font-family="Arial" font-size="14.00" fill="#666666">[timestamp without time zone]</text>
<polygon fill="none" stroke="#000000" points="46.5,-855.5 46.5,-885.5 467.5,-885.5 467.5,-855.5 46.5,-855.5"/>
<text text-anchor="start" x="53.5" y="-866.9" font-family="Arial" font-size="14.00" fill="#000000">createdby </text>
<text text-anchor="start" x="118.8548" y="-866.9" font-family="Arial" font-size="14.00" fill="#666666">[integer]</text>
<polygon fill="none" stroke="#000000" points="46.5,-825.5 46.5,-855.5 467.5,-855.5 467.5,-825.5 46.5,-825.5"/>
<text text-anchor="start" x="53.5" y="-836.9" font-family="Arial" font-size="14.00" fill="#000000">createdon </text>
<text text-anchor="start" x="119.6374" y="-836.9" font-family="Arial" font-size="14.00" fill="#666666">[timestamp without time zone]</text>
<polygon fill="none" stroke="#000000" points="46.5,-795.5 46.5,-825.5 467.5,-825.5 467.5,-795.5 46.5,-795.5"/>
<text text-anchor="start" x="53.5" y="-806.9" font-family="Arial" font-size="14.00" fill="#000000">editlog </text>
<text text-anchor="start" x="98.6248" y="-806.9" font-family="Arial" font-size="14.00" fill="#666666">[text]</text>
<polygon fill="none" stroke="#000000" points="46.5,-765.5 46.5,-795.5 467.5,-795.5 467.5,-765.5 46.5,-765.5"/>
<text text-anchor="start" x="53.5" y="-776.9" font-family="Arial" font-size="14.00" fill="#000000">headauthorizedby </text>
<text text-anchor="start" x="168.657" y="-776.9" font-family="Arial" font-size="14.00" fill="#666666">[integer]</text>
<polygon fill="none" stroke="#000000" points="46.5,-735.5 46.5,-765.5 467.5,-765.5 467.5,-735.5 46.5,-735.5"/>
<text text-anchor="start" x="53.5" y="-746.9" font-family="Arial" font-size="14.00" fill="#000000">headauthorizedon </text>
<text text-anchor="start" x="169.4396" y="-746.9" font-family="Arial" font-size="14.00" fill="#666666">[timestamp without time zone]</text>
<polygon fill="none" stroke="#000000" points="46.5,-705.5 46.5,-735.5 467.5,-735.5 467.5,-705.5 46.5,-705.5"/>
<text text-anchor="start" x="53.5" y="-716.9" font-family="Arial" font-size="14.00" fill="#000000">leave_approval_authority </text>
<text text-anchor="start" x="213.7692" y="-716.9" font-family="Arial" font-size="14.00" fill="#666666">[integer]</text>
<polygon fill="none" stroke="#000000" points="46.5,-675.5 46.5,-705.5 467.5,-705.5 467.5,-675.5 46.5,-675.5"/>
<text text-anchor="start" x="53.5" y="-686.9" font-family="Arial" font-size="14.00" fill="#000000">colour </text>
<text text-anchor="start" x="95.5056" y="-686.9" font-family="Arial" font-size="14.00" fill="#666666">[integer]</text>
<polygon fill="none" stroke="#000000" points="46.5,-645.5 46.5,-675.5 467.5,-675.5 467.5,-645.5 46.5,-645.5"/>
<text text-anchor="start" x="53.5" y="-656.9" font-family="Arial" font-size="14.00" fill="#000000">wagesrate </text>
<text text-anchor="start" x="121.9614" y="-656.9" font-family="Arial" font-size="14.00" fill="#666666">[numeric(18,2)]</text>
<polygon fill="none" stroke="#000000" points="46.5,-615.5 46.5,-645.5 467.5,-645.5 467.5,-615.5 46.5,-615.5"/>
<text text-anchor="start" x="53.5" y="-626.9" font-family="Arial" font-size="14.00" fill="#000000">ismaxpfapplicable </text>
<text text-anchor="start" x="168.629" y="-626.9" font-family="Arial" font-size="14.00" fill="#666666">[boolean]</text>
<polygon fill="none" stroke="#000000" points="46.5,-585.5 46.5,-615.5 467.5,-615.5 467.5,-585.5 46.5,-585.5"/>
<text text-anchor="start" x="53.5" y="-596.9" font-family="Arial" font-size="14.00" fill="#000000">revision_no </text>
<text text-anchor="start" x="128.96" y="-596.9" font-family="Arial" font-size="14.00" fill="#666666">[integer]</text>
<polygon fill="none" stroke="#000000" points="46.5,-555.5 46.5,-585.5 467.5,-585.5 467.5,-555.5 46.5,-555.5"/>
<text text-anchor="start" x="53.5" y="-566.9" font-family="Arial" font-size="14.00" fill="#000000">entitlementbasis </text>
<text text-anchor="start" x="158.521" y="-566.9" font-family="Arial" font-size="14.00" fill="#666666">[boolean]</text>
<polygon fill="none" stroke="#000000" points="46.5,-525.5 46.5,-555.5 467.5,-555.5 467.5,-525.5 46.5,-525.5"/>
<text text-anchor="start" x="53.5" y="-536.9" font-family="Arial" font-size="14.00" fill="#000000">pfapplicabledate </text>
<text text-anchor="start" x="159.3176" y="-536.9" font-family="Arial" font-size="14.00" fill="#666666">[date]</text>
<polygon fill="none" stroke="#000000" points="46.5,-495.5 46.5,-525.5 467.5,-525.5 467.5,-495.5 46.5,-495.5"/>
<text text-anchor="start" x="53.5" y="-506.9" font-family="Arial" font-size="14.00" fill="#000000">esiapplicabledate </text>
<text text-anchor="start" x="165.5336" y="-506.9" font-family="Arial" font-size="14.00" fill="#666666">[date]</text>
<polygon fill="none" stroke="#000000" points="46.5,-465.5 46.5,-495.5 467.5,-495.5 467.5,-465.5 46.5,-465.5"/>
<text text-anchor="start" x="53.5" y="-476.9" font-family="Arial" font-size="14.00" fill="#000000">resigneddate </text>
<text text-anchor="start" x="138.3092" y="-476.9" font-family="Arial" font-size="14.00" fill="#666666">[date]</text>
<polygon fill="none" stroke="#000000" points="46.5,-435.5 46.5,-465.5 467.5,-465.5 467.5,-435.5 46.5,-435.5"/>
<text text-anchor="start" x="53.5" y="-446.9" font-family="Arial" font-size="14.00" fill="#000000">noticeperiodapplicabledays </text>
<text text-anchor="start" x="226.2138" y="-446.9" font-family="Arial" font-size="14.00" fill="#666666">[integer]</text>
<polygon fill="none" stroke="#000000" points="46.5,-405.5 46.5,-435.5 467.5,-435.5 467.5,-405.5 46.5,-405.5"/>
<text text-anchor="start" x="53.5" y="-416.9" font-family="Arial" font-size="14.00" fill="#000000">mutualagreeddays </text>
<text text-anchor="start" x="172.535" y="-416.9" font-family="Arial" font-size="14.00" fill="#666666">[integer]</text>
<polygon fill="none" stroke="#000000" points="46.5,-375.5 46.5,-405.5 467.5,-405.5 467.5,-375.5 46.5,-375.5"/>
<text text-anchor="start" x="53.5" y="-386.9" font-family="Arial" font-size="14.00" fill="#000000">ifscno </text>
<text text-anchor="start" x="93.953" y="-386.9" font-family="Arial" font-size="14.00" fill="#666666">[varchar]</text>
<polygon fill="none" stroke="#000000" points="46.5,-345.5 46.5,-375.5 467.5,-375.5 467.5,-345.5 46.5,-345.5"/>
<text text-anchor="start" x="53.5" y="-356.9" font-family="Arial" font-size="14.00" fill="#000000">uanno </text>
<text text-anchor="start" x="96.3036" y="-356.9" font-family="Arial" font-size="14.00" fill="#666666">[varchar]</text>
<polygon fill="none" stroke="#000000" points="46.5,-315.5 46.5,-345.5 467.5,-345.5 467.5,-315.5 46.5,-315.5"/>
<text text-anchor="start" x="53.5" y="-326.9" font-family="Arial" font-size="14.00" fill="#000000">is_pttax_applicable </text>
<text text-anchor="start" x="176.4242" y="-326.9" font-family="Arial" font-size="14.00" fill="#666666">[boolean]</text>
<polygon fill="none" stroke="#000000" points="46.5,-285.5 46.5,-315.5 467.5,-315.5 467.5,-285.5 46.5,-285.5"/>
<text text-anchor="start" x="53.5" y="-296.9" font-family="Arial" font-size="14.00" fill="#000000">probationperiod </text>
<text text-anchor="start" x="154.6416" y="-296.9" font-family="Arial" font-size="14.00" fill="#666666">[integer]</text>
<polygon fill="none" stroke="#000000" points="46.5,-255.5 46.5,-285.5 467.5,-285.5 467.5,-255.5 46.5,-255.5"/>
<text text-anchor="start" x="53.5" y="-266.9" font-family="Arial" font-size="14.00" fill="#000000">datresigneddate </text>
<text text-anchor="start" x="157.765" y="-266.9" font-family="Arial" font-size="14.00" fill="#666666">[date]</text>
<polygon fill="none" stroke="#000000" points="46.5,-225.5 46.5,-255.5 467.5,-255.5 467.5,-225.5 46.5,-225.5"/>
<text text-anchor="start" x="53.5" y="-236.9" font-family="Arial" font-size="14.00" fill="#000000">mob_type_id </text>
<text text-anchor="start" x="137.5266" y="-236.9" font-family="Arial" font-size="14.00" fill="#666666">[integer]</text>
<polygon fill="none" stroke="#000000" points="46.5,-195.5 46.5,-225.5 467.5,-225.5 467.5,-195.5 46.5,-195.5"/>
<text text-anchor="start" x="53.5" y="-206.9" font-family="Arial" font-size="14.00" fill="#000000">setimeinoblank </text>
<text text-anchor="start" x="150.7398" y="-206.9" font-family="Arial" font-size="14.00" fill="#666666">[boolean]</text>
<polygon fill="none" stroke="#000000" points="46.5,-165.5 46.5,-195.5 467.5,-195.5 467.5,-165.5 46.5,-165.5"/>
<text text-anchor="start" x="53.5" y="-176.9" font-family="Arial" font-size="14.00" fill="#000000">rateperkmcar </text>
<text text-anchor="start" x="139.8366" y="-176.9" font-family="Arial" font-size="14.00" fill="#666666">[numeric(15,2)]</text>
<polygon fill="none" stroke="#000000" points="46.5,-135.5 46.5,-165.5 467.5,-165.5 467.5,-135.5 46.5,-135.5"/>
<text text-anchor="start" x="53.5" y="-146.9" font-family="Arial" font-size="14.00" fill="#000000">rateperkmbike </text>
<text text-anchor="start" x="146.0652" y="-146.9" font-family="Arial" font-size="14.00" fill="#666666">[numeric(15,2)]</text>
<polygon fill="none" stroke="#000000" points="46.5,-105.5 46.5,-135.5 467.5,-135.5 467.5,-105.5 46.5,-105.5"/>
<text text-anchor="start" x="53.5" y="-116.9" font-family="Arial" font-size="14.00" fill="#000000">reimbursementreportingto </text>
<text text-anchor="start" x="217.6304" y="-116.9" font-family="Arial" font-size="14.00" fill="#666666">[integer]</text>
<polygon fill="none" stroke="#000000" points="46.5,-75.5 46.5,-105.5 467.5,-105.5 467.5,-75.5 46.5,-75.5"/>
<text text-anchor="start" x="53.5" y="-86.9" font-family="Arial" font-size="14.00" fill="#000000">updatedby </text>
<text text-anchor="start" x="122.7594" y="-86.9" font-family="Arial" font-size="14.00" fill="#666666">[integer]</text>
<polygon fill="none" stroke="#000000" points="46.5,-45.5 46.5,-75.5 467.5,-75.5 467.5,-45.5 46.5,-45.5"/>
<text text-anchor="start" x="53.5" y="-56.9" font-family="Arial" font-size="14.00" fill="#000000">updatedon </text>
<text text-anchor="start" x="123.542" y="-56.9" font-family="Arial" font-size="14.00" fill="#666666">[timestamp(6) without time zone]</text>
<polygon fill="none" stroke="#000000" stroke-width="3" points="44.5,-44.5 44.5,-1852.5 468.5,-1852.5 468.5,-44.5 44.5,-44.5"/>
</g>
</g>
</svg>
