<?xml version="1.0" encoding="UTF-8" standalone="no"?>
<!DOCTYPE svg PUBLIC "-//W3C//DTD SVG 1.1//EN"
 "http://www.w3.org/Graphics/SVG/1.1/DTD/svg11.dtd">
<!-- Generated by graphviz version 2.40.1 (20161225.0304)
 -->
<!-- Title: public.act_soactivitydetail Pages: 1 -->
<svg width="444pt" height="375pt"
 viewBox="0.00 0.00 444.00 375.00" xmlns="http://www.w3.org/2000/svg" xmlns:xlink="http://www.w3.org/1999/xlink">
<g id="graph0" class="graph" transform="scale(1 1) rotate(0) translate(4 371)">
<title>public.act_soactivitydetail</title>
<polygon fill="#ffffff" stroke="transparent" points="-4,4 -4,-371 440,-371 440,4 -4,4"/>
<!-- public.act_soactivitydetail -->
<g id="node1" class="node">
<title>public.act_soactivitydetail</title>
<polygon fill="#efefef" stroke="transparent" points="46,-285.5 46,-320.5 390,-320.5 390,-285.5 46,-285.5"/>
<polygon fill="none" stroke="#000000" points="46,-285.5 46,-320.5 390,-320.5 390,-285.5 46,-285.5"/>
<text text-anchor="start" x="52.6969" y="-298.3" font-family="Arial Bold" font-size="18.00" fill="#000000">public.act_soactivitydetail</text>
<text text-anchor="start" x="255.7351" y="-298.3" font-family="Arial" font-size="14.00" fill="#000000">    </text>
<text text-anchor="start" x="289.9399" y="-298.3" font-family="Arial" font-size="14.00" fill="#666666">[BASE TABLE]</text>
<polygon fill="none" stroke="#000000" points="46,-255.5 46,-285.5 390,-285.5 390,-255.5 46,-255.5"/>
<text text-anchor="start" x="53" y="-266.9" font-family="Arial" font-size="14.00" fill="#000000">soactdetailid </text>
<text text-anchor="start" x="134.6872" y="-266.9" font-family="Arial" font-size="14.00" fill="#666666">[integer]</text>
<polygon fill="none" stroke="#000000" points="46,-225.5 46,-255.5 390,-255.5 390,-225.5 46,-225.5"/>
<text text-anchor="start" x="53" y="-236.9" font-family="Arial" font-size="14.00" fill="#000000">soactmasterid </text>
<text text-anchor="start" x="144.0126" y="-236.9" font-family="Arial" font-size="14.00" fill="#666666">[integer]</text>
<polygon fill="none" stroke="#000000" points="46,-195.5 46,-225.5 390,-225.5 390,-195.5 46,-195.5"/>
<text text-anchor="start" x="53" y="-206.9" font-family="Arial" font-size="14.00" fill="#000000">itemid </text>
<text text-anchor="start" x="94.2202" y="-206.9" font-family="Arial" font-size="14.00" fill="#666666">[integer]</text>
<polygon fill="none" stroke="#000000" points="46,-165.5 46,-195.5 390,-195.5 390,-165.5 46,-165.5"/>
<text text-anchor="start" x="53" y="-176.9" font-family="Arial" font-size="14.00" fill="#000000">activityid </text>
<text text-anchor="start" x="110.5568" y="-176.9" font-family="Arial" font-size="14.00" fill="#666666">[integer]</text>
<polygon fill="none" stroke="#000000" points="46,-135.5 46,-165.5 390,-165.5 390,-135.5 46,-135.5"/>
<text text-anchor="start" x="53" y="-146.9" font-family="Arial" font-size="14.00" fill="#000000">qty </text>
<text text-anchor="start" x="75.5638" y="-146.9" font-family="Arial" font-size="14.00" fill="#666666">[numeric(20,5)]</text>
<polygon fill="none" stroke="#000000" points="46,-105.5 46,-135.5 390,-135.5 390,-105.5 46,-105.5"/>
<text text-anchor="start" x="53" y="-116.9" font-family="Arial" font-size="14.00" fill="#000000">rate </text>
<text text-anchor="start" x="81.007" y="-116.9" font-family="Arial" font-size="14.00" fill="#666666">[numeric(20,5)]</text>
<polygon fill="none" stroke="#000000" points="46,-75.5 46,-105.5 390,-105.5 390,-75.5 46,-75.5"/>
<text text-anchor="start" x="53" y="-86.9" font-family="Arial" font-size="14.00" fill="#000000">amount </text>
<text text-anchor="start" x="103.5722" y="-86.9" font-family="Arial" font-size="14.00" fill="#666666">[numeric(20,5)]</text>
<polygon fill="none" stroke="#000000" points="46,-45.5 46,-75.5 390,-75.5 390,-45.5 46,-45.5"/>
<text text-anchor="start" x="53" y="-56.9" font-family="Arial" font-size="14.00" fill="#000000">remark </text>
<text text-anchor="start" x="100.4376" y="-56.9" font-family="Arial" font-size="14.00" fill="#666666">[varchar(500)]</text>
<polygon fill="none" stroke="#000000" stroke-width="3" points="44.5,-44.5 44.5,-322.5 391.5,-322.5 391.5,-44.5 44.5,-44.5"/>
</g>
</g>
</svg>
