<?xml version="1.0" encoding="UTF-8" standalone="no"?>
<!DOCTYPE svg PUBLIC "-//W3C//DTD SVG 1.1//EN"
 "http://www.w3.org/Graphics/SVG/1.1/DTD/svg11.dtd">
<!-- Generated by graphviz version 2.40.1 (20161225.0304)
 -->
<!-- Title: public.hr_emplocation Pages: 1 -->
<svg width="416pt" height="255pt"
 viewBox="0.00 0.00 416.00 255.00" xmlns="http://www.w3.org/2000/svg" xmlns:xlink="http://www.w3.org/1999/xlink">
<g id="graph0" class="graph" transform="scale(1 1) rotate(0) translate(4 251)">
<title>public.hr_emplocation</title>
<polygon fill="#ffffff" stroke="transparent" points="-4,4 -4,-251 412,-251 412,4 -4,4"/>
<!-- public.hr_emplocation -->
<g id="node1" class="node">
<title>public.hr_emplocation</title>
<polygon fill="#efefef" stroke="transparent" points="46,-165.5 46,-200.5 362,-200.5 362,-165.5 46,-165.5"/>
<polygon fill="none" stroke="#000000" points="46,-165.5 46,-200.5 362,-200.5 362,-165.5 46,-165.5"/>
<text text-anchor="start" x="52.6991" y="-178.3" font-family="Arial Bold" font-size="18.00" fill="#000000">public.hr_emplocation</text>
<text text-anchor="start" x="227.7329" y="-178.3" font-family="Arial" font-size="14.00" fill="#000000">    </text>
<text text-anchor="start" x="261.9377" y="-178.3" font-family="Arial" font-size="14.00" fill="#666666">[BASE TABLE]</text>
<polygon fill="none" stroke="#000000" points="46,-135.5 46,-165.5 362,-165.5 362,-135.5 46,-135.5"/>
<text text-anchor="start" x="53" y="-146.9" font-family="Arial" font-size="14.00" fill="#000000">detailid </text>
<text text-anchor="start" x="101.2314" y="-146.9" font-family="Arial" font-size="14.00" fill="#666666">[integer]</text>
<polygon fill="none" stroke="#000000" points="46,-105.5 46,-135.5 362,-135.5 362,-105.5 46,-105.5"/>
<text text-anchor="start" x="53" y="-116.9" font-family="Arial" font-size="14.00" fill="#000000">empid </text>
<text text-anchor="start" x="95.0056" y="-116.9" font-family="Arial" font-size="14.00" fill="#666666">[integer]</text>
<polygon fill="none" stroke="#000000" points="46,-75.5 46,-105.5 362,-105.5 362,-75.5 46,-75.5"/>
<text text-anchor="start" x="53" y="-86.9" font-family="Arial" font-size="14.00" fill="#000000">locid </text>
<text text-anchor="start" x="85.669" y="-86.9" font-family="Arial" font-size="14.00" fill="#666666">[integer]</text>
<polygon fill="none" stroke="#000000" points="46,-45.5 46,-75.5 362,-75.5 362,-45.5 46,-45.5"/>
<text text-anchor="start" x="53" y="-56.9" font-family="Arial" font-size="14.00" fill="#000000">branchid </text>
<text text-anchor="start" x="110.5708" y="-56.9" font-family="Arial" font-size="14.00" fill="#666666">[integer]</text>
<polygon fill="none" stroke="#000000" stroke-width="3" points="44.5,-44.5 44.5,-202.5 363.5,-202.5 363.5,-44.5 44.5,-44.5"/>
</g>
</g>
</svg>
