<?xml version="1.0" encoding="UTF-8" standalone="no"?>
<!DOCTYPE svg PUBLIC "-//W3C//DTD SVG 1.1//EN"
 "http://www.w3.org/Graphics/SVG/1.1/DTD/svg11.dtd">
<!-- Generated by graphviz version 2.40.1 (20161225.0304)
 -->
<!-- Title: public.comn_transactionmappingdetail Pages: 1 -->
<svg width="547pt" height="315pt"
 viewBox="0.00 0.00 547.00 315.00" xmlns="http://www.w3.org/2000/svg" xmlns:xlink="http://www.w3.org/1999/xlink">
<g id="graph0" class="graph" transform="scale(1 1) rotate(0) translate(4 311)">
<title>public.comn_transactionmappingdetail</title>
<polygon fill="#ffffff" stroke="transparent" points="-4,4 -4,-311 543,-311 543,4 -4,4"/>
<!-- public.comn_transactionmappingdetail -->
<g id="node1" class="node">
<title>public.comn_transactionmappingdetail</title>
<polygon fill="#efefef" stroke="transparent" points="46.5,-225.5 46.5,-260.5 493.5,-260.5 493.5,-225.5 46.5,-225.5"/>
<polygon fill="none" stroke="#000000" points="46.5,-225.5 46.5,-260.5 493.5,-260.5 493.5,-225.5 46.5,-225.5"/>
<text text-anchor="start" x="53.1818" y="-238.3" font-family="Arial Bold" font-size="18.00" fill="#000000">public.comn_transactionmappingdetail</text>
<text text-anchor="start" x="359.2502" y="-238.3" font-family="Arial" font-size="14.00" fill="#000000">    </text>
<text text-anchor="start" x="393.455" y="-238.3" font-family="Arial" font-size="14.00" fill="#666666">[BASE TABLE]</text>
<polygon fill="none" stroke="#000000" points="46.5,-195.5 46.5,-225.5 493.5,-225.5 493.5,-195.5 46.5,-195.5"/>
<text text-anchor="start" x="53.5" y="-206.9" font-family="Arial" font-size="14.00" fill="#000000">profiledetailid </text>
<text text-anchor="start" x="139.8436" y="-206.9" font-family="Arial" font-size="14.00" fill="#666666">[integer]</text>
<polygon fill="none" stroke="#000000" points="46.5,-165.5 46.5,-195.5 493.5,-195.5 493.5,-165.5 46.5,-165.5"/>
<text text-anchor="start" x="53.5" y="-176.9" font-family="Arial" font-size="14.00" fill="#000000">profileid </text>
<text text-anchor="start" x="106.392" y="-176.9" font-family="Arial" font-size="14.00" fill="#666666">[smallint]</text>
<polygon fill="none" stroke="#000000" points="46.5,-135.5 46.5,-165.5 493.5,-165.5 493.5,-135.5 46.5,-135.5"/>
<text text-anchor="start" x="53.5" y="-146.9" font-family="Arial" font-size="14.00" fill="#000000">dllfield </text>
<text text-anchor="start" x="97.0554" y="-146.9" font-family="Arial" font-size="14.00" fill="#666666">[varchar(200)]</text>
<polygon fill="none" stroke="#000000" points="46.5,-105.5 46.5,-135.5 493.5,-135.5 493.5,-105.5 46.5,-105.5"/>
<text text-anchor="start" x="53.5" y="-116.9" font-family="Arial" font-size="14.00" fill="#000000">mapfield </text>
<text text-anchor="start" x="110.2854" y="-116.9" font-family="Arial" font-size="14.00" fill="#666666">[varchar(200)]</text>
<polygon fill="none" stroke="#000000" points="46.5,-75.5 46.5,-105.5 493.5,-105.5 493.5,-75.5 46.5,-75.5"/>
<text text-anchor="start" x="53.5" y="-86.9" font-family="Arial" font-size="14.00" fill="#000000">propertytype </text>
<text text-anchor="start" x="135.1886" y="-86.9" font-family="Arial" font-size="14.00" fill="#666666">[smallint]</text>
<polygon fill="none" stroke="#000000" points="46.5,-45.5 46.5,-75.5 493.5,-75.5 493.5,-45.5 46.5,-45.5"/>
<text text-anchor="start" x="53.5" y="-56.9" font-family="Arial" font-size="14.00" fill="#000000">isfixedvalue </text>
<text text-anchor="start" x="130.514" y="-56.9" font-family="Arial" font-size="14.00" fill="#666666">[boolean]</text>
<polygon fill="none" stroke="#000000" stroke-width="3" points="44.5,-44.5 44.5,-262.5 494.5,-262.5 494.5,-44.5 44.5,-44.5"/>
</g>
</g>
</svg>
