<?xml version="1.0" encoding="UTF-8" standalone="no"?>
<!DOCTYPE svg PUBLIC "-//W3C//DTD SVG 1.1//EN"
 "http://www.w3.org/Graphics/SVG/1.1/DTD/svg11.dtd">
<!-- Generated by graphviz version 2.40.1 (20161225.0304)
 -->
<!-- Title: public.prod_productionplanqtydetail Pages: 1 -->
<svg width="524pt" height="315pt"
 viewBox="0.00 0.00 524.00 315.00" xmlns="http://www.w3.org/2000/svg" xmlns:xlink="http://www.w3.org/1999/xlink">
<g id="graph0" class="graph" transform="scale(1 1) rotate(0) translate(4 311)">
<title>public.prod_productionplanqtydetail</title>
<polygon fill="#ffffff" stroke="transparent" points="-4,4 -4,-311 520,-311 520,4 -4,4"/>
<!-- public.prod_productionplanqtydetail -->
<g id="node1" class="node">
<title>public.prod_productionplanqtydetail</title>
<polygon fill="#efefef" stroke="transparent" points="46,-225.5 46,-260.5 470,-260.5 470,-225.5 46,-225.5"/>
<polygon fill="none" stroke="#000000" points="46,-225.5 46,-260.5 470,-260.5 470,-225.5 46,-225.5"/>
<text text-anchor="start" x="52.6748" y="-238.3" font-family="Arial Bold" font-size="18.00" fill="#000000">public.prod_productionplanqtydetail</text>
<text text-anchor="start" x="335.7572" y="-238.3" font-family="Arial" font-size="14.00" fill="#000000">    </text>
<text text-anchor="start" x="369.962" y="-238.3" font-family="Arial" font-size="14.00" fill="#666666">[BASE TABLE]</text>
<polygon fill="none" stroke="#000000" points="46,-195.5 46,-225.5 470,-225.5 470,-195.5 46,-195.5"/>
<text text-anchor="start" x="53" y="-206.9" font-family="Arial" font-size="14.00" fill="#000000">item_qty_id </text>
<text text-anchor="start" x="128.4586" y="-206.9" font-family="Arial" font-size="14.00" fill="#666666">[integer]</text>
<polygon fill="none" stroke="#000000" points="46,-165.5 46,-195.5 470,-195.5 470,-165.5 46,-165.5"/>
<text text-anchor="start" x="53" y="-176.9" font-family="Arial" font-size="14.00" fill="#000000">plan_item_id </text>
<text text-anchor="start" x="136.2398" y="-176.9" font-family="Arial" font-size="14.00" fill="#666666">[integer]</text>
<polygon fill="none" stroke="#000000" points="46,-135.5 46,-165.5 470,-165.5 470,-135.5 46,-135.5"/>
<text text-anchor="start" x="53" y="-146.9" font-family="Arial" font-size="14.00" fill="#000000">planid </text>
<text text-anchor="start" x="94.2342" y="-146.9" font-family="Arial" font-size="14.00" fill="#666666">[integer]</text>
<polygon fill="none" stroke="#000000" points="46,-105.5 46,-135.5 470,-135.5 470,-105.5 46,-105.5"/>
<text text-anchor="start" x="53" y="-116.9" font-family="Arial" font-size="14.00" fill="#000000">itemid </text>
<text text-anchor="start" x="94.2202" y="-116.9" font-family="Arial" font-size="14.00" fill="#666666">[integer]</text>
<polygon fill="none" stroke="#000000" points="46,-75.5 46,-105.5 470,-105.5 470,-75.5 46,-75.5"/>
<text text-anchor="start" x="53" y="-86.9" font-family="Arial" font-size="14.00" fill="#000000">itemplandate </text>
<text text-anchor="start" x="137.0238" y="-86.9" font-family="Arial" font-size="14.00" fill="#666666">[timestamp without time zone]</text>
<polygon fill="none" stroke="#000000" points="46,-45.5 46,-75.5 470,-75.5 470,-45.5 46,-45.5"/>
<text text-anchor="start" x="53" y="-56.9" font-family="Arial" font-size="14.00" fill="#000000">itemplanqty </text>
<text text-anchor="start" x="128.4586" y="-56.9" font-family="Arial" font-size="14.00" fill="#666666">[numeric(18,5)]</text>
<polygon fill="none" stroke="#000000" stroke-width="3" points="44.5,-44.5 44.5,-262.5 471.5,-262.5 471.5,-44.5 44.5,-44.5"/>
</g>
</g>
</svg>
