<?xml version="1.0" encoding="UTF-8" standalone="no"?>
<!DOCTYPE svg PUBLIC "-//W3C//DTD SVG 1.1//EN"
 "http://www.w3.org/Graphics/SVG/1.1/DTD/svg11.dtd">
<!-- Generated by graphviz version 2.40.1 (20161225.0304)
 -->
<!-- Title: public.set_imp_setting_grp_details Pages: 1 -->
<svg width="517pt" height="255pt"
 viewBox="0.00 0.00 517.00 255.00" xmlns="http://www.w3.org/2000/svg" xmlns:xlink="http://www.w3.org/1999/xlink">
<g id="graph0" class="graph" transform="scale(1 1) rotate(0) translate(4 251)">
<title>public.set_imp_setting_grp_details</title>
<polygon fill="#ffffff" stroke="transparent" points="-4,4 -4,-251 513,-251 513,4 -4,4"/>
<!-- public.set_imp_setting_grp_details -->
<g id="node1" class="node">
<title>public.set_imp_setting_grp_details</title>
<polygon fill="#efefef" stroke="transparent" points="46.5,-165.5 46.5,-200.5 463.5,-200.5 463.5,-165.5 46.5,-165.5"/>
<polygon fill="none" stroke="#000000" points="46.5,-165.5 46.5,-200.5 463.5,-200.5 463.5,-165.5 46.5,-165.5"/>
<text text-anchor="start" x="53.183" y="-178.3" font-family="Arial Bold" font-size="18.00" fill="#000000">public.set_imp_setting_grp_details</text>
<text text-anchor="start" x="329.249" y="-178.3" font-family="Arial" font-size="14.00" fill="#000000">    </text>
<text text-anchor="start" x="363.4538" y="-178.3" font-family="Arial" font-size="14.00" fill="#666666">[BASE TABLE]</text>
<polygon fill="none" stroke="#000000" points="46.5,-135.5 46.5,-165.5 463.5,-165.5 463.5,-135.5 46.5,-135.5"/>
<text text-anchor="start" x="53.5" y="-146.9" font-family="Arial" font-size="14.00" fill="#000000">detailid </text>
<text text-anchor="start" x="101.7314" y="-146.9" font-family="Arial" font-size="14.00" fill="#666666">[integer]</text>
<polygon fill="none" stroke="#000000" points="46.5,-105.5 46.5,-135.5 463.5,-135.5 463.5,-105.5 46.5,-105.5"/>
<text text-anchor="start" x="53.5" y="-116.9" font-family="Arial" font-size="14.00" fill="#000000">groupid </text>
<text text-anchor="start" x="104.0708" y="-116.9" font-family="Arial" font-size="14.00" fill="#666666">[integer]</text>
<polygon fill="none" stroke="#000000" points="46.5,-75.5 46.5,-105.5 463.5,-105.5 463.5,-75.5 46.5,-75.5"/>
<text text-anchor="start" x="53.5" y="-86.9" font-family="Arial" font-size="14.00" fill="#000000">settingid </text>
<text text-anchor="start" x="109.5154" y="-86.9" font-family="Arial" font-size="14.00" fill="#666666">[integer]</text>
<polygon fill="none" stroke="#000000" points="46.5,-45.5 46.5,-75.5 463.5,-75.5 463.5,-45.5 46.5,-45.5"/>
<text text-anchor="start" x="53.5" y="-56.9" font-family="Arial" font-size="14.00" fill="#000000">settingvalue </text>
<text text-anchor="start" x="132.0806" y="-56.9" font-family="Arial" font-size="14.00" fill="#666666">[integer]</text>
<polygon fill="none" stroke="#000000" stroke-width="3" points="44.5,-44.5 44.5,-202.5 464.5,-202.5 464.5,-44.5 44.5,-44.5"/>
</g>
</g>
</svg>
