<?xml version="1.0" encoding="UTF-8" standalone="no"?>
<!DOCTYPE svg PUBLIC "-//W3C//DTD SVG 1.1//EN"
 "http://www.w3.org/Graphics/SVG/1.1/DTD/svg11.dtd">
<!-- Generated by graphviz version 2.40.1 (20161225.0304)
 -->
<!-- Title: public.hr_mrf_skillset Pages: 1 -->
<svg width="409pt" height="435pt"
 viewBox="0.00 0.00 409.00 435.00" xmlns="http://www.w3.org/2000/svg" xmlns:xlink="http://www.w3.org/1999/xlink">
<g id="graph0" class="graph" transform="scale(1 1) rotate(0) translate(4 431)">
<title>public.hr_mrf_skillset</title>
<polygon fill="#ffffff" stroke="transparent" points="-4,4 -4,-431 405,-431 405,4 -4,4"/>
<!-- public.hr_mrf_skillset -->
<g id="node1" class="node">
<title>public.hr_mrf_skillset</title>
<polygon fill="#efefef" stroke="transparent" points="46.5,-345.5 46.5,-380.5 355.5,-380.5 355.5,-345.5 46.5,-345.5"/>
<polygon fill="none" stroke="#000000" points="46.5,-345.5 46.5,-380.5 355.5,-380.5 355.5,-345.5 46.5,-345.5"/>
<text text-anchor="start" x="53.2172" y="-358.3" font-family="Arial Bold" font-size="18.00" fill="#000000">public.hr_mrf_skillset</text>
<text text-anchor="start" x="221.2148" y="-358.3" font-family="Arial" font-size="14.00" fill="#000000">    </text>
<text text-anchor="start" x="255.4196" y="-358.3" font-family="Arial" font-size="14.00" fill="#666666">[BASE TABLE]</text>
<polygon fill="none" stroke="#000000" points="46.5,-315.5 46.5,-345.5 355.5,-345.5 355.5,-315.5 46.5,-315.5"/>
<text text-anchor="start" x="53.5" y="-326.9" font-family="Arial" font-size="14.00" fill="#000000">mrf_skillset_detailid </text>
<text text-anchor="start" x="179.5014" y="-326.9" font-family="Arial" font-size="14.00" fill="#666666">[integer]</text>
<polygon fill="none" stroke="#000000" points="46.5,-285.5 46.5,-315.5 355.5,-315.5 355.5,-285.5 46.5,-285.5"/>
<text text-anchor="start" x="53.5" y="-296.9" font-family="Arial" font-size="14.00" fill="#000000">mrfid </text>
<text text-anchor="start" x="88.4916" y="-296.9" font-family="Arial" font-size="14.00" fill="#666666">[integer]</text>
<polygon fill="none" stroke="#000000" points="46.5,-255.5 46.5,-285.5 355.5,-285.5 355.5,-255.5 46.5,-255.5"/>
<text text-anchor="start" x="53.5" y="-266.9" font-family="Arial" font-size="14.00" fill="#000000">skillsetid </text>
<text text-anchor="start" x="110.2728" y="-266.9" font-family="Arial" font-size="14.00" fill="#666666">[bigint]</text>
<polygon fill="none" stroke="#000000" points="46.5,-225.5 46.5,-255.5 355.5,-255.5 355.5,-225.5 46.5,-225.5"/>
<text text-anchor="start" x="53.5" y="-236.9" font-family="Arial" font-size="14.00" fill="#000000">skillsetdetailid </text>
<text text-anchor="start" x="143.7244" y="-236.9" font-family="Arial" font-size="14.00" fill="#666666">[bigint]</text>
<polygon fill="none" stroke="#000000" points="46.5,-195.5 46.5,-225.5 355.5,-225.5 355.5,-195.5 46.5,-195.5"/>
<text text-anchor="start" x="53.5" y="-206.9" font-family="Arial" font-size="14.00" fill="#000000">min_exp_year_skill </text>
<text text-anchor="start" x="176.399" y="-206.9" font-family="Arial" font-size="14.00" fill="#666666">[integer]</text>
<polygon fill="none" stroke="#000000" points="46.5,-165.5 46.5,-195.5 355.5,-195.5 355.5,-165.5 46.5,-165.5"/>
<text text-anchor="start" x="53.5" y="-176.9" font-family="Arial" font-size="14.00" fill="#000000">min_exp_month_skill </text>
<text text-anchor="start" x="188.0722" y="-176.9" font-family="Arial" font-size="14.00" fill="#666666">[integer]</text>
<polygon fill="none" stroke="#000000" points="46.5,-135.5 46.5,-165.5 355.5,-165.5 355.5,-135.5 46.5,-135.5"/>
<text text-anchor="start" x="53.5" y="-146.9" font-family="Arial" font-size="14.00" fill="#000000">max_exp_year_skill </text>
<text text-anchor="start" x="180.2924" y="-146.9" font-family="Arial" font-size="14.00" fill="#666666">[integer]</text>
<polygon fill="none" stroke="#000000" points="46.5,-105.5 46.5,-135.5 355.5,-135.5 355.5,-105.5 46.5,-105.5"/>
<text text-anchor="start" x="53.5" y="-116.9" font-family="Arial" font-size="14.00" fill="#000000">max_exp_month_skill </text>
<text text-anchor="start" x="191.9656" y="-116.9" font-family="Arial" font-size="14.00" fill="#666666">[integer]</text>
<polygon fill="none" stroke="#000000" points="46.5,-75.5 46.5,-105.5 355.5,-105.5 355.5,-75.5 46.5,-75.5"/>
<text text-anchor="start" x="53.5" y="-86.9" font-family="Arial" font-size="14.00" fill="#000000">is_manadatory_skill </text>
<text text-anchor="start" x="180.2896" y="-86.9" font-family="Arial" font-size="14.00" fill="#666666">[boolean]</text>
<polygon fill="none" stroke="#000000" points="46.5,-45.5 46.5,-75.5 355.5,-75.5 355.5,-45.5 46.5,-45.5"/>
<text text-anchor="start" x="53.5" y="-56.9" font-family="Arial" font-size="14.00" fill="#000000">skillset_remarks </text>
<text text-anchor="start" x="157.7132" y="-56.9" font-family="Arial" font-size="14.00" fill="#666666">[varchar]</text>
<polygon fill="none" stroke="#000000" stroke-width="3" points="44.5,-44.5 44.5,-382.5 356.5,-382.5 356.5,-44.5 44.5,-44.5"/>
</g>
</g>
</svg>
