<?xml version="1.0" encoding="UTF-8" standalone="no"?>
<!DOCTYPE svg PUBLIC "-//W3C//DTD SVG 1.1//EN"
 "http://www.w3.org/Graphics/SVG/1.1/DTD/svg11.dtd">
<!-- Generated by graphviz version 2.40.1 (20161225.0304)
 -->
<!-- Title: public.stor_storeissuereturn Pages: 1 -->
<svg width="724pt" height="2572pt"
 viewBox="0.00 0.00 724.00 2572.00" xmlns="http://www.w3.org/2000/svg" xmlns:xlink="http://www.w3.org/1999/xlink">
<g id="graph0" class="graph" transform="scale(1 1) rotate(0) translate(4 2568)">
<title>public.stor_storeissuereturn</title>
<polygon fill="#ffffff" stroke="transparent" points="-4,4 -4,-2568 720,-2568 720,4 -4,4"/>
<!-- public.stor_storeissuereturn -->
<g id="node1" class="node">
<title>public.stor_storeissuereturn</title>
<polygon fill="#efefef" stroke="transparent" points="46,-2482.5 46,-2517.5 408,-2517.5 408,-2482.5 46,-2482.5"/>
<polygon fill="none" stroke="#000000" points="46,-2482.5 46,-2517.5 408,-2517.5 408,-2482.5 46,-2482.5"/>
<text text-anchor="start" x="52.6987" y="-2495.3" font-family="Arial Bold" font-size="18.00" fill="#000000">public.stor_storeissuereturn</text>
<text text-anchor="start" x="273.7333" y="-2495.3" font-family="Arial" font-size="14.00" fill="#000000">    </text>
<text text-anchor="start" x="307.9381" y="-2495.3" font-family="Arial" font-size="14.00" fill="#666666">[BASE TABLE]</text>
<polygon fill="none" stroke="#000000" points="46,-2452.5 46,-2482.5 408,-2482.5 408,-2452.5 46,-2452.5"/>
<text text-anchor="start" x="53" y="-2463.9" font-family="Arial" font-size="14.00" fill="#000000">issuereturnid </text>
<text text-anchor="start" x="137.0112" y="-2463.9" font-family="Arial" font-size="14.00" fill="#666666">[integer]</text>
<polygon fill="none" stroke="#000000" points="46,-2422.5 46,-2452.5 408,-2452.5 408,-2422.5 46,-2422.5"/>
<text text-anchor="start" x="53" y="-2433.9" font-family="Arial" font-size="14.00" fill="#000000">issuereturndate </text>
<text text-anchor="start" x="153.3604" y="-2433.9" font-family="Arial" font-size="14.00" fill="#666666">[date]</text>
<polygon fill="none" stroke="#000000" points="46,-2392.5 46,-2422.5 408,-2422.5 408,-2392.5 46,-2392.5"/>
<text text-anchor="start" x="53" y="-2403.9" font-family="Arial" font-size="14.00" fill="#000000">seriesno </text>
<text text-anchor="start" x="109.7882" y="-2403.9" font-family="Arial" font-size="14.00" fill="#666666">[integer]</text>
<polygon fill="none" stroke="#000000" points="46,-2362.5 46,-2392.5 408,-2392.5 408,-2362.5 46,-2362.5"/>
<text text-anchor="start" x="53" y="-2373.9" font-family="Arial" font-size="14.00" fill="#000000">seriescode </text>
<text text-anchor="start" x="124.5708" y="-2373.9" font-family="Arial" font-size="14.00" fill="#666666">[varchar(50)]</text>
<polygon fill="none" stroke="#000000" points="46,-2332.5 46,-2362.5 408,-2362.5 408,-2332.5 46,-2332.5"/>
<text text-anchor="start" x="53" y="-2343.9" font-family="Arial" font-size="14.00" fill="#000000">departmentid </text>
<text text-anchor="start" x="138.5778" y="-2343.9" font-family="Arial" font-size="14.00" fill="#666666">[integer]</text>
<polygon fill="none" stroke="#000000" points="46,-2302.5 46,-2332.5 408,-2332.5 408,-2302.5 46,-2302.5"/>
<text text-anchor="start" x="53" y="-2313.9" font-family="Arial" font-size="14.00" fill="#000000">issuereturnno </text>
<text text-anchor="start" x="141.6872" y="-2313.9" font-family="Arial" font-size="14.00" fill="#666666">[varchar(50)]</text>
<polygon fill="none" stroke="#000000" points="46,-2272.5 46,-2302.5 408,-2302.5 408,-2272.5 46,-2272.5"/>
<text text-anchor="start" x="53" y="-2283.9" font-family="Arial" font-size="14.00" fill="#000000">stageid </text>
<text text-anchor="start" x="102.0182" y="-2283.9" font-family="Arial" font-size="14.00" fill="#666666">[integer]</text>
<polygon fill="none" stroke="#000000" points="46,-2242.5 46,-2272.5 408,-2272.5 408,-2242.5 46,-2242.5"/>
<text text-anchor="start" x="53" y="-2253.9" font-family="Arial" font-size="14.00" fill="#000000">returnby </text>
<text text-anchor="start" x="108.2328" y="-2253.9" font-family="Arial" font-size="14.00" fill="#666666">[integer]</text>
<polygon fill="none" stroke="#000000" points="46,-2212.5 46,-2242.5 408,-2242.5 408,-2212.5 46,-2212.5"/>
<text text-anchor="start" x="53" y="-2223.9" font-family="Arial" font-size="14.00" fill="#000000">branchid </text>
<text text-anchor="start" x="110.5708" y="-2223.9" font-family="Arial" font-size="14.00" fill="#666666">[integer]</text>
<polygon fill="none" stroke="#000000" points="46,-2182.5 46,-2212.5 408,-2212.5 408,-2182.5 46,-2182.5"/>
<text text-anchor="start" x="53" y="-2193.9" font-family="Arial" font-size="14.00" fill="#000000">createdby </text>
<text text-anchor="start" x="118.3548" y="-2193.9" font-family="Arial" font-size="14.00" fill="#666666">[integer]</text>
<polygon fill="none" stroke="#000000" points="46,-2152.5 46,-2182.5 408,-2182.5 408,-2152.5 46,-2152.5"/>
<text text-anchor="start" x="53" y="-2163.9" font-family="Arial" font-size="14.00" fill="#000000">createdon </text>
<text text-anchor="start" x="119.1374" y="-2163.9" font-family="Arial" font-size="14.00" fill="#666666">[timestamp without time zone]</text>
<polygon fill="none" stroke="#000000" points="46,-2122.5 46,-2152.5 408,-2152.5 408,-2122.5 46,-2122.5"/>
<text text-anchor="start" x="53" y="-2133.9" font-family="Arial" font-size="14.00" fill="#000000">authorizedon </text>
<text text-anchor="start" x="137.8092" y="-2133.9" font-family="Arial" font-size="14.00" fill="#666666">[timestamp without time zone]</text>
<polygon fill="none" stroke="#000000" points="46,-2092.5 46,-2122.5 408,-2122.5 408,-2092.5 46,-2092.5"/>
<text text-anchor="start" x="53" y="-2103.9" font-family="Arial" font-size="14.00" fill="#000000">authorizedby </text>
<text text-anchor="start" x="137.0266" y="-2103.9" font-family="Arial" font-size="14.00" fill="#666666">[integer]</text>
<polygon fill="none" stroke="#000000" points="46,-2062.5 46,-2092.5 408,-2092.5 408,-2062.5 46,-2062.5"/>
<text text-anchor="start" x="53" y="-2073.9" font-family="Arial" font-size="14.00" fill="#000000">isauthorized </text>
<text text-anchor="start" x="132.3506" y="-2073.9" font-family="Arial" font-size="14.00" fill="#666666">[boolean]</text>
<polygon fill="none" stroke="#000000" points="46,-2032.5 46,-2062.5 408,-2062.5 408,-2032.5 46,-2032.5"/>
<text text-anchor="start" x="53" y="-2043.9" font-family="Arial" font-size="14.00" fill="#000000">storeid </text>
<text text-anchor="start" x="98.8962" y="-2043.9" font-family="Arial" font-size="14.00" fill="#666666">[integer]</text>
<polygon fill="none" stroke="#000000" points="46,-2002.5 46,-2032.5 408,-2032.5 408,-2002.5 46,-2002.5"/>
<text text-anchor="start" x="53" y="-2013.9" font-family="Arial" font-size="14.00" fill="#000000">iscancelled </text>
<text text-anchor="start" x="126.1234" y="-2013.9" font-family="Arial" font-size="14.00" fill="#666666">[boolean]</text>
<polygon fill="none" stroke="#000000" points="46,-1972.5 46,-2002.5 408,-2002.5 408,-1972.5 46,-1972.5"/>
<text text-anchor="start" x="53" y="-1983.9" font-family="Arial" font-size="14.00" fill="#000000">editlog </text>
<text text-anchor="start" x="98.1248" y="-1983.9" font-family="Arial" font-size="14.00" fill="#666666">[text]</text>
<polygon fill="none" stroke="#000000" points="46,-1942.5 46,-1972.5 408,-1972.5 408,-1942.5 46,-1942.5"/>
<text text-anchor="start" x="53" y="-1953.9" font-family="Arial" font-size="14.00" fill="#000000">headauthorizedon </text>
<text text-anchor="start" x="168.9396" y="-1953.9" font-family="Arial" font-size="14.00" fill="#666666">[timestamp without time zone]</text>
<polygon fill="none" stroke="#000000" points="46,-1912.5 46,-1942.5 408,-1942.5 408,-1912.5 46,-1912.5"/>
<text text-anchor="start" x="53" y="-1923.9" font-family="Arial" font-size="14.00" fill="#000000">headauthorizedby </text>
<text text-anchor="start" x="168.157" y="-1923.9" font-family="Arial" font-size="14.00" fill="#666666">[integer]</text>
<polygon fill="none" stroke="#000000" points="46,-1882.5 46,-1912.5 408,-1912.5 408,-1882.5 46,-1882.5"/>
<text text-anchor="start" x="53" y="-1893.9" font-family="Arial" font-size="14.00" fill="#000000">seriesid </text>
<text text-anchor="start" x="105.1122" y="-1893.9" font-family="Arial" font-size="14.00" fill="#666666">[integer]</text>
<polygon fill="none" stroke="#000000" points="46,-1852.5 46,-1882.5 408,-1882.5 408,-1852.5 46,-1852.5"/>
<text text-anchor="start" x="53" y="-1863.9" font-family="Arial" font-size="14.00" fill="#000000">machineid </text>
<text text-anchor="start" x="120.6774" y="-1863.9" font-family="Arial" font-size="14.00" fill="#666666">[integer]</text>
<polygon fill="none" stroke="#000000" points="46,-1822.5 46,-1852.5 408,-1852.5 408,-1822.5 46,-1822.5"/>
<text text-anchor="start" x="53" y="-1833.9" font-family="Arial" font-size="14.00" fill="#000000">cancellationreason </text>
<text text-anchor="start" x="173.5876" y="-1833.9" font-family="Arial" font-size="14.00" fill="#666666">[text]</text>
<polygon fill="none" stroke="#000000" points="46,-1792.5 46,-1822.5 408,-1822.5 408,-1792.5 46,-1792.5"/>
<text text-anchor="start" x="53" y="-1803.9" font-family="Arial" font-size="14.00" fill="#000000">cancelledby </text>
<text text-anchor="start" x="130.7994" y="-1803.9" font-family="Arial" font-size="14.00" fill="#666666">[integer]</text>
<polygon fill="none" stroke="#000000" points="46,-1762.5 46,-1792.5 408,-1792.5 408,-1762.5 46,-1762.5"/>
<text text-anchor="start" x="53" y="-1773.9" font-family="Arial" font-size="14.00" fill="#000000">cancelledon </text>
<text text-anchor="start" x="131.582" y="-1773.9" font-family="Arial" font-size="14.00" fill="#666666">[date]</text>
<polygon fill="none" stroke="#000000" points="46,-1732.5 46,-1762.5 408,-1762.5 408,-1732.5 46,-1732.5"/>
<text text-anchor="start" x="53" y="-1743.9" font-family="Arial" font-size="14.00" fill="#000000">batchcardid </text>
<text text-anchor="start" x="129.244" y="-1743.9" font-family="Arial" font-size="14.00" fill="#666666">[integer]</text>
<polygon fill="none" stroke="#000000" points="46,-1702.5 46,-1732.5 408,-1732.5 408,-1702.5 46,-1702.5"/>
<text text-anchor="start" x="53" y="-1713.9" font-family="Arial" font-size="14.00" fill="#000000">seriesvouchertype </text>
<text text-anchor="start" x="170.4698" y="-1713.9" font-family="Arial" font-size="14.00" fill="#666666">[integer]</text>
<polygon fill="none" stroke="#000000" points="46,-1672.5 46,-1702.5 408,-1702.5 408,-1672.5 46,-1672.5"/>
<text text-anchor="start" x="53" y="-1683.9" font-family="Arial" font-size="14.00" fill="#000000">formid </text>
<text text-anchor="start" x="95.7742" y="-1683.9" font-family="Arial" font-size="14.00" fill="#666666">[integer]</text>
<polygon fill="none" stroke="#000000" points="46,-1642.5 46,-1672.5 408,-1672.5 408,-1642.5 46,-1642.5"/>
<text text-anchor="start" x="53" y="-1653.9" font-family="Arial" font-size="14.00" fill="#000000">updatedby </text>
<text text-anchor="start" x="122.2594" y="-1653.9" font-family="Arial" font-size="14.00" fill="#666666">[integer]</text>
<polygon fill="none" stroke="#000000" points="46,-1612.5 46,-1642.5 408,-1642.5 408,-1612.5 46,-1612.5"/>
<text text-anchor="start" x="53" y="-1623.9" font-family="Arial" font-size="14.00" fill="#000000">updatedon </text>
<text text-anchor="start" x="123.042" y="-1623.9" font-family="Arial" font-size="14.00" fill="#666666">[timestamp(6) without time zone]</text>
<polygon fill="none" stroke="#000000" stroke-width="3" points="44.5,-1611.5 44.5,-2519.5 409.5,-2519.5 409.5,-1611.5 44.5,-1611.5"/>
</g>
<!-- public.comn_formmaster -->
<g id="node2" class="node">
<title>public.comn_formmaster</title>
<polygon fill="#efefef" stroke="transparent" points="58,-1452.5 58,-1487.5 396,-1487.5 396,-1452.5 58,-1452.5"/>
<polygon fill="none" stroke="#000000" points="58,-1452.5 58,-1487.5 396,-1487.5 396,-1452.5 58,-1452.5"/>
<text text-anchor="start" x="64.7101" y="-1465.3" font-family="Arial Bold" font-size="18.00" fill="#000000">public.comn_formmaster</text>
<text text-anchor="start" x="261.7219" y="-1465.3" font-family="Arial" font-size="14.00" fill="#000000">    </text>
<text text-anchor="start" x="295.9267" y="-1465.3" font-family="Arial" font-size="14.00" fill="#666666">[BASE TABLE]</text>
<polygon fill="none" stroke="#000000" points="58,-1422.5 58,-1452.5 396,-1452.5 396,-1422.5 58,-1422.5"/>
<text text-anchor="start" x="65" y="-1433.9" font-family="Arial" font-size="14.00" fill="#000000">formid    </text>
<text text-anchor="start" x="138.0884" y="-1433.9" font-family="Arial" font-size="14.00" fill="#666666">[integer]</text>
<polygon fill="none" stroke="#000000" points="58,-1392.5 58,-1422.5 396,-1422.5 396,-1392.5 58,-1392.5"/>
<text text-anchor="start" x="65" y="-1403.9" font-family="Arial" font-size="14.00" fill="#000000">formname    </text>
<text text-anchor="start" x="162.2076" y="-1403.9" font-family="Arial" font-size="14.00" fill="#666666">[varchar(100)]</text>
<polygon fill="none" stroke="#000000" points="58,-1362.5 58,-1392.5 396,-1392.5 396,-1362.5 58,-1362.5"/>
<text text-anchor="start" x="65" y="-1373.9" font-family="Arial" font-size="14.00" fill="#000000">caption    </text>
<text text-anchor="start" x="144.3324" y="-1373.9" font-family="Arial" font-size="14.00" fill="#666666">[varchar(100)]</text>
<polygon fill="none" stroke="#000000" points="58,-1332.5 58,-1362.5 396,-1362.5 396,-1332.5 58,-1332.5"/>
<text text-anchor="start" x="65" y="-1343.9" font-family="Arial" font-size="14.00" fill="#000000">formtype    </text>
<text text-anchor="start" x="153.655" y="-1343.9" font-family="Arial" font-size="14.00" fill="#666666">[smallint]</text>
<polygon fill="none" stroke="#000000" points="58,-1302.5 58,-1332.5 396,-1332.5 396,-1302.5 58,-1302.5"/>
<text text-anchor="start" x="65" y="-1313.9" font-family="Arial" font-size="14.00" fill="#000000">mnunew    </text>
<text text-anchor="start" x="152.1024" y="-1313.9" font-family="Arial" font-size="14.00" fill="#666666">[boolean]</text>
<polygon fill="none" stroke="#000000" points="58,-1272.5 58,-1302.5 396,-1302.5 396,-1272.5 58,-1272.5"/>
<text text-anchor="start" x="65" y="-1283.9" font-family="Arial" font-size="14.00" fill="#000000">mnuedit    </text>
<text text-anchor="start" x="148.993" y="-1283.9" font-family="Arial" font-size="14.00" fill="#666666">[boolean]</text>
<polygon fill="none" stroke="#000000" points="58,-1242.5 58,-1272.5 396,-1272.5 396,-1242.5 58,-1242.5"/>
<text text-anchor="start" x="65" y="-1253.9" font-family="Arial" font-size="14.00" fill="#000000">mnuauthorize    </text>
<text text-anchor="start" x="184.0014" y="-1253.9" font-family="Arial" font-size="14.00" fill="#666666">[boolean]</text>
<polygon fill="none" stroke="#000000" points="58,-1212.5 58,-1242.5 396,-1242.5 396,-1212.5 58,-1212.5"/>
<text text-anchor="start" x="65" y="-1223.9" font-family="Arial" font-size="14.00" fill="#000000">mnuview    </text>
<text text-anchor="start" x="154.4264" y="-1223.9" font-family="Arial" font-size="14.00" fill="#666666">[boolean]</text>
<polygon fill="none" stroke="#000000" points="58,-1182.5 58,-1212.5 396,-1212.5 396,-1182.5 58,-1182.5"/>
<text text-anchor="start" x="65" y="-1193.9" font-family="Arial" font-size="14.00" fill="#000000">mnuprint    </text>
<text text-anchor="start" x="153.6536" y="-1193.9" font-family="Arial" font-size="14.00" fill="#666666">[boolean]</text>
<polygon fill="none" stroke="#000000" points="58,-1152.5 58,-1182.5 396,-1182.5 396,-1152.5 58,-1152.5"/>
<text text-anchor="start" x="65" y="-1163.9" font-family="Arial" font-size="14.00" fill="#000000">mnuamendment    </text>
<text text-anchor="start" x="200.338" y="-1163.9" font-family="Arial" font-size="14.00" fill="#666666">[boolean]</text>
<polygon fill="none" stroke="#000000" points="58,-1122.5 58,-1152.5 396,-1152.5 396,-1122.5 58,-1122.5"/>
<text text-anchor="start" x="65" y="-1133.9" font-family="Arial" font-size="14.00" fill="#000000">mnusendtotally    </text>
<text text-anchor="start" x="193.338" y="-1133.9" font-family="Arial" font-size="14.00" fill="#666666">[boolean]</text>
<polygon fill="none" stroke="#000000" points="58,-1092.5 58,-1122.5 396,-1122.5 396,-1092.5 58,-1092.5"/>
<text text-anchor="start" x="65" y="-1103.9" font-family="Arial" font-size="14.00" fill="#000000">mnuexporttoexcel    </text>
<text text-anchor="start" x="209.6746" y="-1103.9" font-family="Arial" font-size="14.00" fill="#666666">[boolean]</text>
<polygon fill="none" stroke="#000000" points="58,-1062.5 58,-1092.5 396,-1092.5 396,-1062.5 58,-1062.5"/>
<text text-anchor="start" x="65" y="-1073.9" font-family="Arial" font-size="14.00" fill="#000000">extravalue    </text>
<text text-anchor="start" x="163.7756" y="-1073.9" font-family="Arial" font-size="14.00" fill="#666666">[varchar(50)]</text>
<polygon fill="none" stroke="#000000" points="58,-1032.5 58,-1062.5 396,-1062.5 396,-1032.5 58,-1032.5"/>
<text text-anchor="start" x="65" y="-1043.9" font-family="Arial" font-size="14.00" fill="#000000">formval    </text>
<text text-anchor="start" x="145.0884" y="-1043.9" font-family="Arial" font-size="14.00" fill="#666666">[varchar(70)]</text>
<polygon fill="none" stroke="#000000" points="58,-1002.5 58,-1032.5 396,-1032.5 396,-1002.5 58,-1002.5"/>
<text text-anchor="start" x="65" y="-1013.9" font-family="Arial" font-size="14.00" fill="#000000">isauthorizationreq    </text>
<text text-anchor="start" x="209.6704" y="-1013.9" font-family="Arial" font-size="14.00" fill="#666666">[boolean]</text>
<polygon fill="none" stroke="#000000" points="58,-972.5 58,-1002.5 396,-1002.5 396,-972.5 58,-972.5"/>
<text text-anchor="start" x="65" y="-983.9" font-family="Arial" font-size="14.00" fill="#000000">mnuclosepending    </text>
<text text-anchor="start" x="208.9046" y="-983.9" font-family="Arial" font-size="14.00" fill="#666666">[boolean]</text>
<polygon fill="none" stroke="#000000" points="58,-942.5 58,-972.5 396,-972.5 396,-942.5 58,-942.5"/>
<text text-anchor="start" x="65" y="-953.9" font-family="Arial" font-size="14.00" fill="#000000">visible    </text>
<text text-anchor="start" x="138.0898" y="-953.9" font-family="Arial" font-size="14.00" fill="#666666">[boolean]</text>
<polygon fill="none" stroke="#000000" points="58,-912.5 58,-942.5 396,-942.5 396,-912.5 58,-912.5"/>
<text text-anchor="start" x="65" y="-923.9" font-family="Arial" font-size="14.00" fill="#000000">mnucanceltransaction    </text>
<text text-anchor="start" x="235.3464" y="-923.9" font-family="Arial" font-size="14.00" fill="#666666">[boolean]</text>
<polygon fill="none" stroke="#000000" points="58,-882.5 58,-912.5 396,-912.5 396,-882.5 58,-882.5"/>
<text text-anchor="start" x="65" y="-893.9" font-family="Arial" font-size="14.00" fill="#000000">formgroupid    </text>
<text text-anchor="start" x="173.8794" y="-893.9" font-family="Arial" font-size="14.00" fill="#666666">[integer]</text>
<polygon fill="none" stroke="#000000" points="58,-852.5 58,-882.5 396,-882.5 396,-852.5 58,-852.5"/>
<text text-anchor="start" x="65" y="-863.9" font-family="Arial" font-size="14.00" fill="#000000">allowbackdateentry    </text>
<text text-anchor="start" x="219.0098" y="-863.9" font-family="Arial" font-size="14.00" fill="#666666">[boolean]</text>
<polygon fill="none" stroke="#000000" points="58,-822.5 58,-852.5 396,-852.5 396,-822.5 58,-822.5"/>
<text text-anchor="start" x="65" y="-833.9" font-family="Arial" font-size="14.00" fill="#000000">isheadauthorizationreq    </text>
<text text-anchor="start" x="240.8008" y="-833.9" font-family="Arial" font-size="14.00" fill="#666666">[boolean]</text>
<polygon fill="none" stroke="#000000" points="58,-792.5 58,-822.5 396,-822.5 396,-792.5 58,-792.5"/>
<text text-anchor="start" x="65" y="-803.9" font-family="Arial" font-size="14.00" fill="#000000">roundoffitemlevelamt    </text>
<text text-anchor="start" x="229.1122" y="-803.9" font-family="Arial" font-size="14.00" fill="#666666">[integer]</text>
<polygon fill="none" stroke="#000000" points="58,-762.5 58,-792.5 396,-792.5 396,-762.5 58,-762.5"/>
<text text-anchor="start" x="65" y="-773.9" font-family="Arial" font-size="14.00" fill="#000000">mnuattachment    </text>
<text text-anchor="start" x="195.676" y="-773.9" font-family="Arial" font-size="14.00" fill="#666666">[boolean]</text>
<polygon fill="none" stroke="#000000" points="58,-732.5 58,-762.5 396,-762.5 396,-732.5 58,-732.5"/>
<text text-anchor="start" x="65" y="-743.9" font-family="Arial" font-size="14.00" fill="#000000">mnuviewattachment    </text>
<text text-anchor="start" x="223.6718" y="-743.9" font-family="Arial" font-size="14.00" fill="#666666">[boolean]</text>
<polygon fill="none" stroke="#000000" points="58,-702.5 58,-732.5 396,-732.5 396,-702.5 58,-702.5"/>
<text text-anchor="start" x="65" y="-713.9" font-family="Arial" font-size="14.00" fill="#000000">bamount_auth_enable    </text>
<text text-anchor="start" x="238.4922" y="-713.9" font-family="Arial" font-size="14.00" fill="#666666">[boolean]</text>
<polygon fill="none" stroke="#000000" points="58,-672.5 58,-702.5 396,-702.5 396,-672.5 58,-672.5"/>
<text text-anchor="start" x="65" y="-683.9" font-family="Arial" font-size="14.00" fill="#000000">formpath    </text>
<text text-anchor="start" x="154.4376" y="-683.9" font-family="Arial" font-size="14.00" fill="#666666">[text]</text>
<polygon fill="none" stroke="#000000" points="58,-642.5 58,-672.5 396,-672.5 396,-642.5 58,-642.5"/>
<text text-anchor="start" x="65" y="-653.9" font-family="Arial" font-size="14.00" fill="#000000">backdateenddate    </text>
<text text-anchor="start" x="206.5946" y="-653.9" font-family="Arial" font-size="14.00" fill="#666666">[date]</text>
<polygon fill="none" stroke="#000000" points="58,-612.5 58,-642.5 396,-642.5 396,-612.5 58,-612.5"/>
<text text-anchor="start" x="65" y="-623.9" font-family="Arial" font-size="14.00" fill="#000000">saveandprint    </text>
<text text-anchor="start" x="179.3408" y="-623.9" font-family="Arial" font-size="14.00" fill="#666666">[boolean]</text>
<polygon fill="none" stroke="#000000" points="58,-582.5 58,-612.5 396,-612.5 396,-582.5 58,-582.5"/>
<text text-anchor="start" x="65" y="-593.9" font-family="Arial" font-size="14.00" fill="#000000">saveandauthorize    </text>
<text text-anchor="start" x="209.6886" y="-593.9" font-family="Arial" font-size="14.00" fill="#666666">[boolean]</text>
<polygon fill="none" stroke="#000000" points="58,-552.5 58,-582.5 396,-582.5 396,-552.5 58,-552.5"/>
<text text-anchor="start" x="65" y="-563.9" font-family="Arial" font-size="14.00" fill="#000000">mnucreatestructure    </text>
<text text-anchor="start" x="219.7798" y="-563.9" font-family="Arial" font-size="14.00" fill="#666666">[boolean]</text>
<polygon fill="none" stroke="#000000" points="58,-522.5 58,-552.5 396,-552.5 396,-522.5 58,-522.5"/>
<text text-anchor="start" x="65" y="-533.9" font-family="Arial" font-size="14.00" fill="#000000">mnuimport    </text>
<text text-anchor="start" x="165.3142" y="-533.9" font-family="Arial" font-size="14.00" fill="#666666">[boolean]</text>
<polygon fill="none" stroke="#000000" points="58,-492.5 58,-522.5 396,-522.5 396,-492.5 58,-492.5"/>
<text text-anchor="start" x="65" y="-503.9" font-family="Arial" font-size="14.00" fill="#000000">tb_name    </text>
<text text-anchor="start" x="153.669" y="-503.9" font-family="Arial" font-size="14.00" fill="#666666">[varchar]</text>
<polygon fill="none" stroke="#000000" points="58,-462.5 58,-492.5 396,-492.5 396,-462.5 58,-462.5"/>
<text text-anchor="start" x="65" y="-473.9" font-family="Arial" font-size="14.00" fill="#000000">mnuprintserial    </text>
<text text-anchor="start" x="187.0926" y="-473.9" font-family="Arial" font-size="14.00" fill="#666666">[boolean]</text>
<polygon fill="none" stroke="#000000" points="58,-432.5 58,-462.5 396,-462.5 396,-432.5 58,-432.5"/>
<text text-anchor="start" x="65" y="-443.9" font-family="Arial" font-size="14.00" fill="#000000">mnuemail    </text>
<text text-anchor="start" x="159.8696" y="-443.9" font-family="Arial" font-size="14.00" fill="#666666">[boolean]</text>
<polygon fill="none" stroke="#000000" points="58,-402.5 58,-432.5 396,-432.5 396,-402.5 58,-402.5"/>
<text text-anchor="start" x="65" y="-413.9" font-family="Arial" font-size="14.00" fill="#000000">mnuunauthorize    </text>
<text text-anchor="start" x="199.5666" y="-413.9" font-family="Arial" font-size="14.00" fill="#666666">[boolean]</text>
<polygon fill="none" stroke="#000000" points="58,-372.5 58,-402.5 396,-402.5 396,-372.5 58,-372.5"/>
<text text-anchor="start" x="65" y="-383.9" font-family="Arial" font-size="14.00" fill="#000000">report_id    </text>
<text text-anchor="start" x="154.4362" y="-383.9" font-family="Arial" font-size="14.00" fill="#666666">[integer]</text>
<polygon fill="none" stroke="#000000" points="58,-342.5 58,-372.5 396,-372.5 396,-342.5 58,-342.5"/>
<text text-anchor="start" x="65" y="-353.9" font-family="Arial" font-size="14.00" fill="#000000">isautomail    </text>
<text text-anchor="start" x="162.2062" y="-353.9" font-family="Arial" font-size="14.00" fill="#666666">[boolean]</text>
<polygon fill="none" stroke="#000000" points="58,-312.5 58,-342.5 396,-342.5 396,-312.5 58,-312.5"/>
<text text-anchor="start" x="65" y="-323.9" font-family="Arial" font-size="14.00" fill="#000000">printfromdbqry    </text>
<text text-anchor="start" x="189.4306" y="-323.9" font-family="Arial" font-size="14.00" fill="#666666">[boolean]</text>
<polygon fill="none" stroke="#000000" points="58,-282.5 58,-312.5 396,-312.5 396,-282.5 58,-282.5"/>
<text text-anchor="start" x="65" y="-293.9" font-family="Arial" font-size="14.00" fill="#000000">showitemattributeonreport    </text>
<text text-anchor="start" x="261.0112" y="-293.9" font-family="Arial" font-size="14.00" fill="#666666">[boolean]</text>
<polygon fill="none" stroke="#000000" points="58,-252.5 58,-282.5 396,-282.5 396,-252.5 58,-252.5"/>
<text text-anchor="start" x="65" y="-263.9" font-family="Arial" font-size="14.00" fill="#000000">bydefaultselectallitemattribute    </text>
<text text-anchor="start" x="283.5736" y="-263.9" font-family="Arial" font-size="14.00" fill="#666666">[boolean]</text>
<polygon fill="none" stroke="#000000" points="58,-222.5 58,-252.5 396,-252.5 396,-222.5 58,-222.5"/>
<text text-anchor="start" x="65" y="-233.9" font-family="Arial" font-size="14.00" fill="#000000">helpurl    </text>
<text text-anchor="start" x="141.209" y="-233.9" font-family="Arial" font-size="14.00" fill="#666666">[text]</text>
<polygon fill="none" stroke="#000000" points="58,-192.5 58,-222.5 396,-222.5 396,-192.5 58,-192.5"/>
<text text-anchor="start" x="65" y="-203.9" font-family="Arial" font-size="14.00" fill="#000000">roundoffitemlevelgstrate    </text>
<text text-anchor="start" x="248.568" y="-203.9" font-family="Arial" font-size="14.00" fill="#666666">[integer]</text>
<polygon fill="none" stroke="#000000" points="58,-162.5 58,-192.5 396,-192.5 396,-162.5 58,-162.5"/>
<text text-anchor="start" x="65" y="-173.9" font-family="Arial" font-size="14.00" fill="#000000">isforglobalseries    </text>
<text text-anchor="start" x="200.3212" y="-173.9" font-family="Arial" font-size="14.00" fill="#666666">[boolean]</text>
<polygon fill="none" stroke="#000000" points="58,-132.5 58,-162.5 396,-162.5 396,-132.5 58,-132.5"/>
<text text-anchor="start" x="65" y="-143.9" font-family="Arial" font-size="14.00" fill="#000000">saveandprintbarcode    </text>
<text text-anchor="start" x="229.9144" y="-143.9" font-family="Arial" font-size="14.00" fill="#666666">[boolean]</text>
<polygon fill="none" stroke="#000000" points="58,-102.5 58,-132.5 396,-132.5 396,-102.5 58,-102.5"/>
<text text-anchor="start" x="65" y="-113.9" font-family="Arial" font-size="14.00" fill="#000000">discperdecimallimit    </text>
<text text-anchor="start" x="217.4124" y="-113.9" font-family="Arial" font-size="14.00" fill="#666666">[integer]</text>
<polygon fill="none" stroke="#000000" points="58,-72.5 58,-102.5 396,-102.5 396,-72.5 58,-72.5"/>
<text text-anchor="start" x="65" y="-83.9" font-family="Arial" font-size="14.00" fill="#000000">isbackdateimpact    </text>
<text text-anchor="start" x="207.338" y="-83.9" font-family="Arial" font-size="14.00" fill="#666666">[boolean]</text>
<polygon fill="none" stroke="#000000" points="58,-42.5 58,-72.5 396,-72.5 396,-42.5 58,-42.5"/>
<text text-anchor="start" x="65" y="-53.9" font-family="Arial" font-size="14.00" fill="#000000">mnuwhatsapp    </text>
<text text-anchor="start" x="186.3408" y="-53.9" font-family="Arial" font-size="14.00" fill="#666666">[boolean]</text>
</g>
<!-- public.stor_storeissuereturn&#45;&gt;public.comn_formmaster -->
<g id="edge1" class="edge">
<title>public.stor_storeissuereturn:formid&#45;&gt;public.comn_formmaster:formid</title>
<path fill="none" stroke="#000000" d="M418.0683,-1686.7828C518.3921,-1672.1191 503.7628,-1437.5 396,-1437.5"/>
<polygon fill="#000000" stroke="#000000" points="417.9747,-1686.7894 407.6802,-1683.0114 412.9874,-1687.1447 408,-1687.5 408,-1687.5 408,-1687.5 412.9874,-1687.1447 408.3198,-1691.9886 417.9747,-1686.7894 417.9747,-1686.7894"/>
<text text-anchor="start" x="414.7865" y="-1697.5" font-family="Arial" font-size="10.00" fill="#000000">FOREIGN KEY (formid) REFERENCES comn_formmaster(formid)</text>
</g>
</g>
</svg>
