<?xml version="1.0" encoding="UTF-8" standalone="no"?>
<!DOCTYPE svg PUBLIC "-//W3C//DTD SVG 1.1//EN"
 "http://www.w3.org/Graphics/SVG/1.1/DTD/svg11.dtd">
<!-- Generated by graphviz version 2.40.1 (20161225.0304)
 -->
<!-- Title: public.synchronization_detail Pages: 1 -->
<svg width="471pt" height="345pt"
 viewBox="0.00 0.00 471.00 345.00" xmlns="http://www.w3.org/2000/svg" xmlns:xlink="http://www.w3.org/1999/xlink">
<g id="graph0" class="graph" transform="scale(1 1) rotate(0) translate(4 341)">
<title>public.synchronization_detail</title>
<polygon fill="#ffffff" stroke="transparent" points="-4,4 -4,-341 467,-341 467,4 -4,4"/>
<!-- public.synchronization_detail -->
<g id="node1" class="node">
<title>public.synchronization_detail</title>
<polygon fill="#efefef" stroke="transparent" points="46.5,-255.5 46.5,-290.5 417.5,-290.5 417.5,-255.5 46.5,-255.5"/>
<polygon fill="none" stroke="#000000" points="46.5,-255.5 46.5,-290.5 417.5,-290.5 417.5,-255.5 46.5,-255.5"/>
<text text-anchor="start" x="53.1906" y="-268.3" font-family="Arial Bold" font-size="18.00" fill="#000000">public.synchronization_detail</text>
<text text-anchor="start" x="283.2414" y="-268.3" font-family="Arial" font-size="14.00" fill="#000000">    </text>
<text text-anchor="start" x="317.4462" y="-268.3" font-family="Arial" font-size="14.00" fill="#666666">[BASE TABLE]</text>
<polygon fill="none" stroke="#000000" points="46.5,-225.5 46.5,-255.5 417.5,-255.5 417.5,-225.5 46.5,-225.5"/>
<text text-anchor="start" x="53.5" y="-236.9" font-family="Arial" font-size="14.00" fill="#000000">sync_detail_id </text>
<text text-anchor="start" x="146.0792" y="-236.9" font-family="Arial" font-size="14.00" fill="#666666">[integer]</text>
<polygon fill="none" stroke="#000000" points="46.5,-195.5 46.5,-225.5 417.5,-225.5 417.5,-195.5 46.5,-195.5"/>
<text text-anchor="start" x="53.5" y="-206.9" font-family="Arial" font-size="14.00" fill="#000000">sync_id </text>
<text text-anchor="start" x="104.845" y="-206.9" font-family="Arial" font-size="14.00" fill="#666666">[bigint]</text>
<polygon fill="none" stroke="#000000" points="46.5,-165.5 46.5,-195.5 417.5,-195.5 417.5,-165.5 46.5,-165.5"/>
<text text-anchor="start" x="53.5" y="-176.9" font-family="Arial" font-size="14.00" fill="#000000">sync_start_time </text>
<text text-anchor="start" x="155.4032" y="-176.9" font-family="Arial" font-size="14.00" fill="#666666">[timestamp(6) without time zone]</text>
<polygon fill="none" stroke="#000000" points="46.5,-135.5 46.5,-165.5 417.5,-165.5 417.5,-135.5 46.5,-135.5"/>
<text text-anchor="start" x="53.5" y="-146.9" font-family="Arial" font-size="14.00" fill="#000000">sync_end_time </text>
<text text-anchor="start" x="151.5266" y="-146.9" font-family="Arial" font-size="14.00" fill="#666666">[timestamp(6) without time zone]</text>
<polygon fill="none" stroke="#000000" points="46.5,-105.5 46.5,-135.5 417.5,-135.5 417.5,-105.5 46.5,-105.5"/>
<text text-anchor="start" x="53.5" y="-116.9" font-family="Arial" font-size="14.00" fill="#000000">sync_ack </text>
<text text-anchor="start" x="115.7384" y="-116.9" font-family="Arial" font-size="14.00" fill="#666666">[boolean]</text>
<polygon fill="none" stroke="#000000" points="46.5,-75.5 46.5,-105.5 417.5,-105.5 417.5,-75.5 46.5,-75.5"/>
<text text-anchor="start" x="53.5" y="-86.9" font-family="Arial" font-size="14.00" fill="#000000">sync_file </text>
<text text-anchor="start" x="111.8422" y="-86.9" font-family="Arial" font-size="14.00" fill="#666666">[varchar(250)]</text>
<polygon fill="none" stroke="#000000" points="46.5,-45.5 46.5,-75.5 417.5,-75.5 417.5,-45.5 46.5,-45.5"/>
<text text-anchor="start" x="53.5" y="-56.9" font-family="Arial" font-size="14.00" fill="#000000">sync_log </text>
<text text-anchor="start" x="112.6276" y="-56.9" font-family="Arial" font-size="14.00" fill="#666666">[varchar(500)]</text>
<polygon fill="none" stroke="#000000" stroke-width="3" points="44.5,-44.5 44.5,-292.5 418.5,-292.5 418.5,-44.5 44.5,-44.5"/>
</g>
</g>
</svg>
