<?xml version="1.0" encoding="UTF-8" standalone="no"?>
<!DOCTYPE svg PUBLIC "-//W3C//DTD SVG 1.1//EN"
 "http://www.w3.org/Graphics/SVG/1.1/DTD/svg11.dtd">
<!-- Generated by graphviz version 2.40.1 (20161225.0304)
 -->
<!-- Title: public.pur_pigstdetail Pages: 1 -->
<svg width="410pt" height="675pt"
 viewBox="0.00 0.00 410.00 675.00" xmlns="http://www.w3.org/2000/svg" xmlns:xlink="http://www.w3.org/1999/xlink">
<g id="graph0" class="graph" transform="scale(1 1) rotate(0) translate(4 671)">
<title>public.pur_pigstdetail</title>
<polygon fill="#ffffff" stroke="transparent" points="-4,4 -4,-671 406,-671 406,4 -4,4"/>
<!-- public.pur_pigstdetail -->
<g id="node1" class="node">
<title>public.pur_pigstdetail</title>
<polygon fill="#efefef" stroke="transparent" points="46,-585.5 46,-620.5 356,-620.5 356,-585.5 46,-585.5"/>
<polygon fill="none" stroke="#000000" points="46,-585.5 46,-620.5 356,-620.5 356,-585.5 46,-585.5"/>
<text text-anchor="start" x="52.697" y="-598.3" font-family="Arial Bold" font-size="18.00" fill="#000000">public.pur_pigstdetail</text>
<text text-anchor="start" x="221.735" y="-598.3" font-family="Arial" font-size="14.00" fill="#000000">    </text>
<text text-anchor="start" x="255.9398" y="-598.3" font-family="Arial" font-size="14.00" fill="#666666">[BASE TABLE]</text>
<polygon fill="none" stroke="#000000" points="46,-555.5 46,-585.5 356,-585.5 356,-555.5 46,-555.5"/>
<text text-anchor="start" x="53" y="-566.9" font-family="Arial" font-size="14.00" fill="#000000">pigstdetailid </text>
<text text-anchor="start" x="130.7938" y="-566.9" font-family="Arial" font-size="14.00" fill="#666666">[integer]</text>
<polygon fill="none" stroke="#000000" points="46,-525.5 46,-555.5 356,-555.5 356,-525.5 46,-525.5"/>
<text text-anchor="start" x="53" y="-536.9" font-family="Arial" font-size="14.00" fill="#000000">invoiceid </text>
<text text-anchor="start" x="111.3408" y="-536.9" font-family="Arial" font-size="14.00" fill="#666666">[integer]</text>
<polygon fill="none" stroke="#000000" points="46,-495.5 46,-525.5 356,-525.5 356,-495.5 46,-495.5"/>
<text text-anchor="start" x="53" y="-506.9" font-family="Arial" font-size="14.00" fill="#000000">invoicedetailid </text>
<text text-anchor="start" x="144.7924" y="-506.9" font-family="Arial" font-size="14.00" fill="#666666">[integer]</text>
<polygon fill="none" stroke="#000000" points="46,-465.5 46,-495.5 356,-495.5 356,-465.5 46,-465.5"/>
<text text-anchor="start" x="53" y="-476.9" font-family="Arial" font-size="14.00" fill="#000000">taxtemplateid </text>
<text text-anchor="start" x="140.1318" y="-476.9" font-family="Arial" font-size="14.00" fill="#666666">[integer]</text>
<polygon fill="none" stroke="#000000" points="46,-435.5 46,-465.5 356,-465.5 356,-435.5 46,-435.5"/>
<text text-anchor="start" x="53" y="-446.9" font-family="Arial" font-size="14.00" fill="#000000">taxid </text>
<text text-anchor="start" x="86.453" y="-446.9" font-family="Arial" font-size="14.00" fill="#666666">[integer]</text>
<polygon fill="none" stroke="#000000" points="46,-405.5 46,-435.5 356,-435.5 356,-405.5 46,-405.5"/>
<text text-anchor="start" x="53" y="-416.9" font-family="Arial" font-size="14.00" fill="#000000">igstrate </text>
<text text-anchor="start" x="102.7868" y="-416.9" font-family="Arial" font-size="14.00" fill="#666666">[numeric(6,3)]</text>
<polygon fill="none" stroke="#000000" points="46,-375.5 46,-405.5 356,-405.5 356,-375.5 46,-375.5"/>
<text text-anchor="start" x="53" y="-386.9" font-family="Arial" font-size="14.00" fill="#000000">cgstrate </text>
<text text-anchor="start" x="106.6802" y="-386.9" font-family="Arial" font-size="14.00" fill="#666666">[numeric(6,3)]</text>
<polygon fill="none" stroke="#000000" points="46,-345.5 46,-375.5 356,-375.5 356,-345.5 46,-345.5"/>
<text text-anchor="start" x="53" y="-356.9" font-family="Arial" font-size="14.00" fill="#000000">sgstrate </text>
<text text-anchor="start" x="106.6802" y="-356.9" font-family="Arial" font-size="14.00" fill="#666666">[numeric(6,3)]</text>
<polygon fill="none" stroke="#000000" points="46,-315.5 46,-345.5 356,-345.5 356,-315.5 46,-315.5"/>
<text text-anchor="start" x="53" y="-326.9" font-family="Arial" font-size="14.00" fill="#000000">igstamount </text>
<text text-anchor="start" x="125.352" y="-326.9" font-family="Arial" font-size="14.00" fill="#666666">[numeric(17,5)]</text>
<polygon fill="none" stroke="#000000" points="46,-285.5 46,-315.5 356,-315.5 356,-285.5 46,-285.5"/>
<text text-anchor="start" x="53" y="-296.9" font-family="Arial" font-size="14.00" fill="#000000">cgstamount </text>
<text text-anchor="start" x="129.2454" y="-296.9" font-family="Arial" font-size="14.00" fill="#666666">[numeric(17,5)]</text>
<polygon fill="none" stroke="#000000" points="46,-255.5 46,-285.5 356,-285.5 356,-255.5 46,-255.5"/>
<text text-anchor="start" x="53" y="-266.9" font-family="Arial" font-size="14.00" fill="#000000">sgstamount </text>
<text text-anchor="start" x="129.2454" y="-266.9" font-family="Arial" font-size="14.00" fill="#666666">[numeric(17,5)]</text>
<polygon fill="none" stroke="#000000" points="46,-225.5 46,-255.5 356,-255.5 356,-225.5 46,-225.5"/>
<text text-anchor="start" x="53" y="-236.9" font-family="Arial" font-size="14.00" fill="#000000">gsttotal </text>
<text text-anchor="start" x="102.0168" y="-236.9" font-family="Arial" font-size="14.00" fill="#666666">[numeric(255,0)]</text>
<polygon fill="none" stroke="#000000" points="46,-195.5 46,-225.5 356,-225.5 356,-195.5 46,-195.5"/>
<text text-anchor="start" x="53" y="-206.9" font-family="Arial" font-size="14.00" fill="#000000">itemtotal </text>
<text text-anchor="start" x="109.784" y="-206.9" font-family="Arial" font-size="14.00" fill="#666666">[numeric]</text>
<polygon fill="none" stroke="#000000" points="46,-165.5 46,-195.5 356,-195.5 356,-165.5 46,-165.5"/>
<text text-anchor="start" x="53" y="-176.9" font-family="Arial" font-size="14.00" fill="#000000">podetailid </text>
<text text-anchor="start" x="116.7966" y="-176.9" font-family="Arial" font-size="14.00" fill="#666666">[integer]</text>
<polygon fill="none" stroke="#000000" points="46,-135.5 46,-165.5 356,-165.5 356,-135.5 46,-135.5"/>
<text text-anchor="start" x="53" y="-146.9" font-family="Arial" font-size="14.00" fill="#000000">itemid </text>
<text text-anchor="start" x="94.2202" y="-146.9" font-family="Arial" font-size="14.00" fill="#666666">[integer]</text>
<polygon fill="none" stroke="#000000" points="46,-105.5 46,-135.5 356,-135.5 356,-105.5 46,-105.5"/>
<text text-anchor="start" x="53" y="-116.9" font-family="Arial" font-size="14.00" fill="#000000">gst_asseablevalue </text>
<text text-anchor="start" x="172.8204" y="-116.9" font-family="Arial" font-size="14.00" fill="#666666">[numeric(17,5)]</text>
<polygon fill="none" stroke="#000000" points="46,-75.5 46,-105.5 356,-105.5 356,-75.5 46,-75.5"/>
<text text-anchor="start" x="53" y="-86.9" font-family="Arial" font-size="14.00" fill="#000000">gstcessrate </text>
<text text-anchor="start" x="128.4628" y="-86.9" font-family="Arial" font-size="14.00" fill="#666666">[numeric(5,2)]</text>
<polygon fill="none" stroke="#000000" points="46,-45.5 46,-75.5 356,-75.5 356,-45.5 46,-45.5"/>
<text text-anchor="start" x="53" y="-56.9" font-family="Arial" font-size="14.00" fill="#000000">gstcessamount </text>
<text text-anchor="start" x="151.028" y="-56.9" font-family="Arial" font-size="14.00" fill="#666666">[numeric(17,5)]</text>
<polygon fill="none" stroke="#000000" stroke-width="3" points="44.5,-44.5 44.5,-622.5 357.5,-622.5 357.5,-44.5 44.5,-44.5"/>
</g>
</g>
</svg>
