<?xml version="1.0" encoding="UTF-8" standalone="no"?>
<!DOCTYPE svg PUBLIC "-//W3C//DTD SVG 1.1//EN"
 "http://www.w3.org/Graphics/SVG/1.1/DTD/svg11.dtd">
<!-- Generated by graphviz version 2.40.1 (20161225.0304)
 -->
<!-- Title: public.pur_salesreturnserials Pages: 1 -->
<svg width="470pt" height="345pt"
 viewBox="0.00 0.00 470.00 345.00" xmlns="http://www.w3.org/2000/svg" xmlns:xlink="http://www.w3.org/1999/xlink">
<g id="graph0" class="graph" transform="scale(1 1) rotate(0) translate(4 341)">
<title>public.pur_salesreturnserials</title>
<polygon fill="#ffffff" stroke="transparent" points="-4,4 -4,-341 466,-341 466,4 -4,4"/>
<!-- public.pur_salesreturnserials -->
<g id="node1" class="node">
<title>public.pur_salesreturnserials</title>
<polygon fill="#efefef" stroke="transparent" points="46,-255.5 46,-290.5 416,-290.5 416,-255.5 46,-255.5"/>
<polygon fill="none" stroke="#000000" points="46,-255.5 46,-290.5 416,-290.5 416,-255.5 46,-255.5"/>
<text text-anchor="start" x="52.7036" y="-268.3" font-family="Arial Bold" font-size="18.00" fill="#000000">public.pur_salesreturnserials</text>
<text text-anchor="start" x="281.7284" y="-268.3" font-family="Arial" font-size="14.00" fill="#000000">    </text>
<text text-anchor="start" x="315.9332" y="-268.3" font-family="Arial" font-size="14.00" fill="#666666">[BASE TABLE]</text>
<polygon fill="none" stroke="#000000" points="46,-225.5 46,-255.5 416,-255.5 416,-225.5 46,-225.5"/>
<text text-anchor="start" x="53" y="-236.9" font-family="Arial" font-size="14.00" fill="#000000">detailid </text>
<text text-anchor="start" x="101.2314" y="-236.9" font-family="Arial" font-size="14.00" fill="#666666">[integer]</text>
<polygon fill="none" stroke="#000000" points="46,-195.5 46,-225.5 416,-225.5 416,-195.5 46,-195.5"/>
<text text-anchor="start" x="53" y="-206.9" font-family="Arial" font-size="14.00" fill="#000000">mrndetailid </text>
<text text-anchor="start" x="125.3352" y="-206.9" font-family="Arial" font-size="14.00" fill="#666666">[integer]</text>
<polygon fill="none" stroke="#000000" points="46,-165.5 46,-195.5 416,-195.5 416,-165.5 46,-165.5"/>
<text text-anchor="start" x="53" y="-176.9" font-family="Arial" font-size="14.00" fill="#000000">deliverynotedetailid </text>
<text text-anchor="start" x="176.6914" y="-176.9" font-family="Arial" font-size="14.00" fill="#666666">[integer]</text>
<polygon fill="none" stroke="#000000" points="46,-135.5 46,-165.5 416,-165.5 416,-135.5 46,-135.5"/>
<text text-anchor="start" x="53" y="-146.9" font-family="Arial" font-size="14.00" fill="#000000">invoicedetailid </text>
<text text-anchor="start" x="144.7924" y="-146.9" font-family="Arial" font-size="14.00" fill="#666666">[integer]</text>
<polygon fill="none" stroke="#000000" points="46,-105.5 46,-135.5 416,-135.5 416,-105.5 46,-105.5"/>
<text text-anchor="start" x="53" y="-116.9" font-family="Arial" font-size="14.00" fill="#000000">serialid </text>
<text text-anchor="start" x="101.2188" y="-116.9" font-family="Arial" font-size="14.00" fill="#666666">[integer]</text>
<polygon fill="none" stroke="#000000" points="46,-75.5 46,-105.5 416,-105.5 416,-75.5 46,-75.5"/>
<text text-anchor="start" x="53" y="-86.9" font-family="Arial" font-size="14.00" fill="#000000">serialno </text>
<text text-anchor="start" x="105.8948" y="-86.9" font-family="Arial" font-size="14.00" fill="#666666">[varchar(50)]</text>
<polygon fill="none" stroke="#000000" points="46,-45.5 46,-75.5 416,-75.5 416,-45.5 46,-45.5"/>
<text text-anchor="start" x="53" y="-56.9" font-family="Arial" font-size="14.00" fill="#000000">mrnid </text>
<text text-anchor="start" x="91.8836" y="-56.9" font-family="Arial" font-size="14.00" fill="#666666">[integer]</text>
<polygon fill="none" stroke="#000000" stroke-width="3" points="44.5,-44.5 44.5,-292.5 417.5,-292.5 417.5,-44.5 44.5,-44.5"/>
</g>
</g>
</svg>
