<?xml version="1.0" encoding="UTF-8" standalone="no"?>
<!DOCTYPE svg PUBLIC "-//W3C//DTD SVG 1.1//EN"
 "http://www.w3.org/Graphics/SVG/1.1/DTD/svg11.dtd">
<!-- Generated by graphviz version 2.40.1 (20161225.0304)
 -->
<!-- Title: public.pur_poitemdetail_amendlog Pages: 1 -->
<svg width="515pt" height="1785pt"
 viewBox="0.00 0.00 515.00 1785.00" xmlns="http://www.w3.org/2000/svg" xmlns:xlink="http://www.w3.org/1999/xlink">
<g id="graph0" class="graph" transform="scale(1 1) rotate(0) translate(4 1781)">
<title>public.pur_poitemdetail_amendlog</title>
<polygon fill="#ffffff" stroke="transparent" points="-4,4 -4,-1781 511,-1781 511,4 -4,4"/>
<!-- public.pur_poitemdetail_amendlog -->
<g id="node1" class="node">
<title>public.pur_poitemdetail_amendlog</title>
<polygon fill="#efefef" stroke="transparent" points="46.5,-1695.5 46.5,-1730.5 461.5,-1730.5 461.5,-1695.5 46.5,-1695.5"/>
<polygon fill="none" stroke="#000000" points="46.5,-1695.5 46.5,-1730.5 461.5,-1730.5 461.5,-1695.5 46.5,-1695.5"/>
<text text-anchor="start" x="53.1829" y="-1708.3" font-family="Arial Bold" font-size="18.00" fill="#000000">public.pur_poitemdetail_amendlog</text>
<text text-anchor="start" x="327.2491" y="-1708.3" font-family="Arial" font-size="14.00" fill="#000000">    </text>
<text text-anchor="start" x="361.4539" y="-1708.3" font-family="Arial" font-size="14.00" fill="#666666">[BASE TABLE]</text>
<polygon fill="none" stroke="#000000" points="46.5,-1665.5 46.5,-1695.5 461.5,-1695.5 461.5,-1665.5 46.5,-1665.5"/>
<text text-anchor="start" x="53.5" y="-1676.9" font-family="Arial" font-size="14.00" fill="#000000">podetailamendid </text>
<text text-anchor="start" x="160.0876" y="-1676.9" font-family="Arial" font-size="14.00" fill="#666666">[integer]</text>
<polygon fill="none" stroke="#000000" points="46.5,-1635.5 46.5,-1665.5 461.5,-1665.5 461.5,-1635.5 46.5,-1635.5"/>
<text text-anchor="start" x="53.5" y="-1646.9" font-family="Arial" font-size="14.00" fill="#000000">poamendid </text>
<text text-anchor="start" x="126.636" y="-1646.9" font-family="Arial" font-size="14.00" fill="#666666">[integer]</text>
<polygon fill="none" stroke="#000000" points="46.5,-1605.5 46.5,-1635.5 461.5,-1635.5 461.5,-1605.5 46.5,-1605.5"/>
<text text-anchor="start" x="53.5" y="-1616.9" font-family="Arial" font-size="14.00" fill="#000000">podetailid </text>
<text text-anchor="start" x="117.2966" y="-1616.9" font-family="Arial" font-size="14.00" fill="#666666">[integer]</text>
<polygon fill="none" stroke="#000000" points="46.5,-1575.5 46.5,-1605.5 461.5,-1605.5 461.5,-1575.5 46.5,-1575.5"/>
<text text-anchor="start" x="53.5" y="-1586.9" font-family="Arial" font-size="14.00" fill="#000000">poid </text>
<text text-anchor="start" x="83.845" y="-1586.9" font-family="Arial" font-size="14.00" fill="#666666">[integer]</text>
<polygon fill="none" stroke="#000000" points="46.5,-1545.5 46.5,-1575.5 461.5,-1575.5 461.5,-1545.5 46.5,-1545.5"/>
<text text-anchor="start" x="53.5" y="-1556.9" font-family="Arial" font-size="14.00" fill="#000000">itemid </text>
<text text-anchor="start" x="94.7202" y="-1556.9" font-family="Arial" font-size="14.00" fill="#666666">[integer]</text>
<polygon fill="none" stroke="#000000" points="46.5,-1515.5 46.5,-1545.5 461.5,-1545.5 461.5,-1515.5 46.5,-1515.5"/>
<text text-anchor="start" x="53.5" y="-1526.9" font-family="Arial" font-size="14.00" fill="#000000">rate </text>
<text text-anchor="start" x="81.507" y="-1526.9" font-family="Arial" font-size="14.00" fill="#666666">[numeric(21,9)]</text>
<polygon fill="none" stroke="#000000" points="46.5,-1485.5 46.5,-1515.5 461.5,-1515.5 461.5,-1485.5 46.5,-1485.5"/>
<text text-anchor="start" x="53.5" y="-1496.9" font-family="Arial" font-size="14.00" fill="#000000">discount </text>
<text text-anchor="start" x="109.5182" y="-1496.9" font-family="Arial" font-size="14.00" fill="#666666">[numeric(8,5)]</text>
<polygon fill="none" stroke="#000000" points="46.5,-1455.5 46.5,-1485.5 461.5,-1485.5 461.5,-1455.5 46.5,-1455.5"/>
<text text-anchor="start" x="53.5" y="-1466.9" font-family="Arial" font-size="14.00" fill="#000000">baseqty </text>
<text text-anchor="start" x="106.4116" y="-1466.9" font-family="Arial" font-size="14.00" fill="#666666">[numeric(15,5)]</text>
<polygon fill="none" stroke="#000000" points="46.5,-1425.5 46.5,-1455.5 461.5,-1455.5 461.5,-1425.5 46.5,-1425.5"/>
<text text-anchor="start" x="53.5" y="-1436.9" font-family="Arial" font-size="14.00" fill="#000000">requisitiondetailid </text>
<text text-anchor="start" x="165.5154" y="-1436.9" font-family="Arial" font-size="14.00" fill="#666666">[integer]</text>
<polygon fill="none" stroke="#000000" points="46.5,-1395.5 46.5,-1425.5 461.5,-1425.5 461.5,-1395.5 46.5,-1395.5"/>
<text text-anchor="start" x="53.5" y="-1406.9" font-family="Arial" font-size="14.00" fill="#000000">altqty </text>
<text text-anchor="start" x="90.8436" y="-1406.9" font-family="Arial" font-size="14.00" fill="#666666">[numeric(15,5)]</text>
<polygon fill="none" stroke="#000000" points="46.5,-1365.5 46.5,-1395.5 461.5,-1395.5 461.5,-1365.5 46.5,-1365.5"/>
<text text-anchor="start" x="53.5" y="-1376.9" font-family="Arial" font-size="14.00" fill="#000000">remark </text>
<text text-anchor="start" x="100.9376" y="-1376.9" font-family="Arial" font-size="14.00" fill="#666666">[varchar(500)]</text>
<polygon fill="none" stroke="#000000" points="46.5,-1335.5 46.5,-1365.5 461.5,-1365.5 461.5,-1335.5 46.5,-1335.5"/>
<text text-anchor="start" x="53.5" y="-1346.9" font-family="Arial" font-size="14.00" fill="#000000">grosstotal </text>
<text text-anchor="start" x="118.0694" y="-1346.9" font-family="Arial" font-size="14.00" fill="#666666">[numeric(21,9)]</text>
<polygon fill="none" stroke="#000000" points="46.5,-1305.5 46.5,-1335.5 461.5,-1335.5 461.5,-1305.5 46.5,-1305.5"/>
<text text-anchor="start" x="53.5" y="-1316.9" font-family="Arial" font-size="14.00" fill="#000000">discamt </text>
<text text-anchor="start" x="105.6136" y="-1316.9" font-family="Arial" font-size="14.00" fill="#666666">[numeric(21,9)]</text>
<polygon fill="none" stroke="#000000" points="46.5,-1275.5 46.5,-1305.5 461.5,-1305.5 461.5,-1275.5 46.5,-1275.5"/>
<text text-anchor="start" x="53.5" y="-1286.9" font-family="Arial" font-size="14.00" fill="#000000">nettotal </text>
<text text-anchor="start" x="103.2994" y="-1286.9" font-family="Arial" font-size="14.00" fill="#666666">[numeric(21,9)]</text>
<polygon fill="none" stroke="#000000" points="46.5,-1245.5 46.5,-1275.5 461.5,-1275.5 461.5,-1245.5 46.5,-1245.5"/>
<text text-anchor="start" x="53.5" y="-1256.9" font-family="Arial" font-size="14.00" fill="#000000">rate1 </text>
<text text-anchor="start" x="89.2896" y="-1256.9" font-family="Arial" font-size="14.00" fill="#666666">[numeric(21,9)]</text>
<polygon fill="none" stroke="#000000" points="46.5,-1215.5 46.5,-1245.5 461.5,-1245.5 461.5,-1215.5 46.5,-1215.5"/>
<text text-anchor="start" x="53.5" y="-1226.9" font-family="Arial" font-size="14.00" fill="#000000">discount1 </text>
<text text-anchor="start" x="117.3008" y="-1226.9" font-family="Arial" font-size="14.00" fill="#666666">[numeric(8,5)]</text>
<polygon fill="none" stroke="#000000" points="46.5,-1185.5 46.5,-1215.5 461.5,-1215.5 461.5,-1185.5 46.5,-1185.5"/>
<text text-anchor="start" x="53.5" y="-1196.9" font-family="Arial" font-size="14.00" fill="#000000">grosstotal1 </text>
<text text-anchor="start" x="125.852" y="-1196.9" font-family="Arial" font-size="14.00" fill="#666666">[numeric(21,9)]</text>
<polygon fill="none" stroke="#000000" points="46.5,-1155.5 46.5,-1185.5 461.5,-1185.5 461.5,-1155.5 46.5,-1155.5"/>
<text text-anchor="start" x="53.5" y="-1166.9" font-family="Arial" font-size="14.00" fill="#000000">discamt1 </text>
<text text-anchor="start" x="113.3962" y="-1166.9" font-family="Arial" font-size="14.00" fill="#666666">[numeric(21,9)]</text>
<polygon fill="none" stroke="#000000" points="46.5,-1125.5 46.5,-1155.5 461.5,-1155.5 461.5,-1125.5 46.5,-1125.5"/>
<text text-anchor="start" x="53.5" y="-1136.9" font-family="Arial" font-size="14.00" fill="#000000">nettotal1 </text>
<text text-anchor="start" x="111.082" y="-1136.9" font-family="Arial" font-size="14.00" fill="#666666">[numeric(21,9)]</text>
<polygon fill="none" stroke="#000000" points="46.5,-1095.5 46.5,-1125.5 461.5,-1125.5 461.5,-1095.5 46.5,-1095.5"/>
<text text-anchor="start" x="53.5" y="-1106.9" font-family="Arial" font-size="14.00" fill="#000000">exportrate </text>
<text text-anchor="start" x="120.406" y="-1106.9" font-family="Arial" font-size="14.00" fill="#666666">[numeric(21,9)]</text>
<polygon fill="none" stroke="#000000" points="46.5,-1065.5 46.5,-1095.5 461.5,-1095.5 461.5,-1065.5 46.5,-1065.5"/>
<text text-anchor="start" x="53.5" y="-1076.9" font-family="Arial" font-size="14.00" fill="#000000">exportgrosstotal </text>
<text text-anchor="start" x="156.9684" y="-1076.9" font-family="Arial" font-size="14.00" fill="#666666">[numeric(21,9)]</text>
<polygon fill="none" stroke="#000000" points="46.5,-1035.5 46.5,-1065.5 461.5,-1065.5 461.5,-1035.5 46.5,-1035.5"/>
<text text-anchor="start" x="53.5" y="-1046.9" font-family="Arial" font-size="14.00" fill="#000000">exportdiscamt </text>
<text text-anchor="start" x="144.5126" y="-1046.9" font-family="Arial" font-size="14.00" fill="#666666">[numeric(21,9)]</text>
<polygon fill="none" stroke="#000000" points="46.5,-1005.5 46.5,-1035.5 461.5,-1035.5 461.5,-1005.5 46.5,-1005.5"/>
<text text-anchor="start" x="53.5" y="-1016.9" font-family="Arial" font-size="14.00" fill="#000000">exportnettotal </text>
<text text-anchor="start" x="142.1984" y="-1016.9" font-family="Arial" font-size="14.00" fill="#666666">[numeric(21,9)]</text>
<polygon fill="none" stroke="#000000" points="46.5,-975.5 46.5,-1005.5 461.5,-1005.5 461.5,-975.5 46.5,-975.5"/>
<text text-anchor="start" x="53.5" y="-986.9" font-family="Arial" font-size="14.00" fill="#000000">exportrate1 </text>
<text text-anchor="start" x="128.1886" y="-986.9" font-family="Arial" font-size="14.00" fill="#666666">[numeric(21,9)]</text>
<polygon fill="none" stroke="#000000" points="46.5,-945.5 46.5,-975.5 461.5,-975.5 461.5,-945.5 46.5,-945.5"/>
<text text-anchor="start" x="53.5" y="-956.9" font-family="Arial" font-size="14.00" fill="#000000">exportgrosstotal1 </text>
<text text-anchor="start" x="164.751" y="-956.9" font-family="Arial" font-size="14.00" fill="#666666">[numeric(21,9)]</text>
<polygon fill="none" stroke="#000000" points="46.5,-915.5 46.5,-945.5 461.5,-945.5 461.5,-915.5 46.5,-915.5"/>
<text text-anchor="start" x="53.5" y="-926.9" font-family="Arial" font-size="14.00" fill="#000000">exportdiscamt1 </text>
<text text-anchor="start" x="152.2952" y="-926.9" font-family="Arial" font-size="14.00" fill="#666666">[numeric(21,9)]</text>
<polygon fill="none" stroke="#000000" points="46.5,-885.5 46.5,-915.5 461.5,-915.5 461.5,-885.5 46.5,-885.5"/>
<text text-anchor="start" x="53.5" y="-896.9" font-family="Arial" font-size="14.00" fill="#000000">exportnettotal1 </text>
<text text-anchor="start" x="149.981" y="-896.9" font-family="Arial" font-size="14.00" fill="#666666">[numeric(21,9)]</text>
<polygon fill="none" stroke="#000000" points="46.5,-855.5 46.5,-885.5 461.5,-885.5 461.5,-855.5 46.5,-855.5"/>
<text text-anchor="start" x="53.5" y="-866.9" font-family="Arial" font-size="14.00" fill="#000000">isaltrate </text>
<text text-anchor="start" x="106.3934" y="-866.9" font-family="Arial" font-size="14.00" fill="#666666">[smallint]</text>
<polygon fill="none" stroke="#000000" points="46.5,-825.5 46.5,-855.5 461.5,-855.5 461.5,-825.5 46.5,-825.5"/>
<text text-anchor="start" x="53.5" y="-836.9" font-family="Arial" font-size="14.00" fill="#000000">vatcstasseablevalue </text>
<text text-anchor="start" x="183.4284" y="-836.9" font-family="Arial" font-size="14.00" fill="#666666">[numeric(21,9)]</text>
<polygon fill="none" stroke="#000000" points="46.5,-795.5 46.5,-825.5 461.5,-825.5 461.5,-795.5 46.5,-795.5"/>
<text text-anchor="start" x="53.5" y="-806.9" font-family="Arial" font-size="14.00" fill="#000000">excise </text>
<text text-anchor="start" x="97.0624" y="-806.9" font-family="Arial" font-size="14.00" fill="#666666">[numeric(21,9)]</text>
<polygon fill="none" stroke="#000000" points="46.5,-765.5 46.5,-795.5 461.5,-795.5 461.5,-765.5 46.5,-765.5"/>
<text text-anchor="start" x="53.5" y="-776.9" font-family="Arial" font-size="14.00" fill="#000000">cess </text>
<text text-anchor="start" x="86.1732" y="-776.9" font-family="Arial" font-size="14.00" fill="#666666">[numeric(21,9)]</text>
<polygon fill="none" stroke="#000000" points="46.5,-735.5 46.5,-765.5 461.5,-765.5 461.5,-735.5 46.5,-735.5"/>
<text text-anchor="start" x="53.5" y="-746.9" font-family="Arial" font-size="14.00" fill="#000000">hedcess </text>
<text text-anchor="start" x="109.521" y="-746.9" font-family="Arial" font-size="14.00" fill="#666666">[numeric(21,9)]</text>
<polygon fill="none" stroke="#000000" points="46.5,-705.5 46.5,-735.5 461.5,-735.5 461.5,-705.5 46.5,-705.5"/>
<text text-anchor="start" x="53.5" y="-716.9" font-family="Arial" font-size="14.00" fill="#000000">vatrate </text>
<text text-anchor="start" x="100.1802" y="-716.9" font-family="Arial" font-size="14.00" fill="#666666">[numeric(21,9)]</text>
<polygon fill="none" stroke="#000000" points="46.5,-675.5 46.5,-705.5 461.5,-705.5 461.5,-675.5 46.5,-675.5"/>
<text text-anchor="start" x="53.5" y="-686.9" font-family="Arial" font-size="14.00" fill="#000000">vatamount </text>
<text text-anchor="start" x="122.7454" y="-686.9" font-family="Arial" font-size="14.00" fill="#666666">[numeric(21,9)]</text>
<polygon fill="none" stroke="#000000" points="46.5,-645.5 46.5,-675.5 461.5,-675.5 461.5,-645.5 46.5,-645.5"/>
<text text-anchor="start" x="53.5" y="-656.9" font-family="Arial" font-size="14.00" fill="#000000">cstrate </text>
<text text-anchor="start" x="99.3976" y="-656.9" font-family="Arial" font-size="14.00" fill="#666666">[numeric(21,9)]</text>
<polygon fill="none" stroke="#000000" points="46.5,-615.5 46.5,-645.5 461.5,-645.5 461.5,-615.5 46.5,-615.5"/>
<text text-anchor="start" x="53.5" y="-626.9" font-family="Arial" font-size="14.00" fill="#000000">cstamount </text>
<text text-anchor="start" x="121.9628" y="-626.9" font-family="Arial" font-size="14.00" fill="#666666">[numeric(21,9)]</text>
<polygon fill="none" stroke="#000000" points="46.5,-585.5 46.5,-615.5 461.5,-615.5 461.5,-585.5 46.5,-585.5"/>
<text text-anchor="start" x="53.5" y="-596.9" font-family="Arial" font-size="14.00" fill="#000000">excisableamount </text>
<text text-anchor="start" x="162.4158" y="-596.9" font-family="Arial" font-size="14.00" fill="#666666">[numeric(21,9)]</text>
<polygon fill="none" stroke="#000000" points="46.5,-555.5 46.5,-585.5 461.5,-585.5 461.5,-555.5 46.5,-555.5"/>
<text text-anchor="start" x="53.5" y="-566.9" font-family="Arial" font-size="14.00" fill="#000000">exportexcisableamount </text>
<text text-anchor="start" x="201.3148" y="-566.9" font-family="Arial" font-size="14.00" fill="#666666">[numeric(21,9)]</text>
<polygon fill="none" stroke="#000000" points="46.5,-525.5 46.5,-555.5 461.5,-555.5 461.5,-525.5 46.5,-525.5"/>
<text text-anchor="start" x="53.5" y="-536.9" font-family="Arial" font-size="14.00" fill="#000000">exportexcise </text>
<text text-anchor="start" x="135.9614" y="-536.9" font-family="Arial" font-size="14.00" fill="#666666">[numeric(21,9)]</text>
<polygon fill="none" stroke="#000000" points="46.5,-495.5 46.5,-525.5 461.5,-525.5 461.5,-495.5 46.5,-495.5"/>
<text text-anchor="start" x="53.5" y="-506.9" font-family="Arial" font-size="14.00" fill="#000000">exportcess </text>
<text text-anchor="start" x="125.0722" y="-506.9" font-family="Arial" font-size="14.00" fill="#666666">[numeric(21,9)]</text>
<polygon fill="none" stroke="#000000" points="46.5,-465.5 46.5,-495.5 461.5,-495.5 461.5,-465.5 46.5,-465.5"/>
<text text-anchor="start" x="53.5" y="-476.9" font-family="Arial" font-size="14.00" fill="#000000">exporthedcess </text>
<text text-anchor="start" x="148.42" y="-476.9" font-family="Arial" font-size="14.00" fill="#666666">[numeric(21,9)]</text>
<polygon fill="none" stroke="#000000" points="46.5,-435.5 46.5,-465.5 461.5,-465.5 461.5,-435.5 46.5,-435.5"/>
<text text-anchor="start" x="53.5" y="-446.9" font-family="Arial" font-size="14.00" fill="#000000">exportvatcstasseablevalue </text>
<text text-anchor="start" x="222.3274" y="-446.9" font-family="Arial" font-size="14.00" fill="#666666">[numeric(21,9)]</text>
<polygon fill="none" stroke="#000000" points="46.5,-405.5 46.5,-435.5 461.5,-435.5 461.5,-405.5 46.5,-405.5"/>
<text text-anchor="start" x="53.5" y="-416.9" font-family="Arial" font-size="14.00" fill="#000000">exportvatamount </text>
<text text-anchor="start" x="161.6444" y="-416.9" font-family="Arial" font-size="14.00" fill="#666666">[numeric(21,9)]</text>
<polygon fill="none" stroke="#000000" points="46.5,-375.5 46.5,-405.5 461.5,-405.5 461.5,-375.5 46.5,-375.5"/>
<text text-anchor="start" x="53.5" y="-386.9" font-family="Arial" font-size="14.00" fill="#000000">exportcstamount </text>
<text text-anchor="start" x="160.8618" y="-386.9" font-family="Arial" font-size="14.00" fill="#666666">[numeric(21,9)]</text>
<polygon fill="none" stroke="#000000" points="46.5,-345.5 46.5,-375.5 461.5,-375.5 461.5,-345.5 46.5,-345.5"/>
<text text-anchor="start" x="53.5" y="-356.9" font-family="Arial" font-size="14.00" fill="#000000">deactive </text>
<text text-anchor="start" x="109.5182" y="-356.9" font-family="Arial" font-size="14.00" fill="#666666">[boolean]</text>
<polygon fill="none" stroke="#000000" points="46.5,-315.5 46.5,-345.5 461.5,-345.5 461.5,-315.5 46.5,-315.5"/>
<text text-anchor="start" x="53.5" y="-326.9" font-family="Arial" font-size="14.00" fill="#000000">isclosed </text>
<text text-anchor="start" x="107.9516" y="-326.9" font-family="Arial" font-size="14.00" fill="#666666">[boolean]</text>
<polygon fill="none" stroke="#000000" points="46.5,-285.5 46.5,-315.5 461.5,-315.5 461.5,-285.5 46.5,-285.5"/>
<text text-anchor="start" x="53.5" y="-296.9" font-family="Arial" font-size="14.00" fill="#000000">itemspecification </text>
<text text-anchor="start" x="160.845" y="-296.9" font-family="Arial" font-size="14.00" fill="#666666">[text]</text>
<polygon fill="none" stroke="#000000" points="46.5,-255.5 46.5,-285.5 461.5,-285.5 461.5,-255.5 46.5,-255.5"/>
<text text-anchor="start" x="53.5" y="-266.9" font-family="Arial" font-size="14.00" fill="#000000">duedate </text>
<text text-anchor="start" x="107.9768" y="-266.9" font-family="Arial" font-size="14.00" fill="#666666">[date]</text>
<polygon fill="none" stroke="#000000" points="46.5,-225.5 46.5,-255.5 461.5,-255.5 461.5,-225.5 46.5,-225.5"/>
<text text-anchor="start" x="53.5" y="-236.9" font-family="Arial" font-size="14.00" fill="#000000">adc </text>
<text text-anchor="start" x="79.9558" y="-236.9" font-family="Arial" font-size="14.00" fill="#666666">[numeric(21,9)]</text>
<polygon fill="none" stroke="#000000" points="46.5,-195.5 46.5,-225.5 461.5,-225.5 461.5,-195.5 46.5,-195.5"/>
<text text-anchor="start" x="53.5" y="-206.9" font-family="Arial" font-size="14.00" fill="#000000">discperunit </text>
<text text-anchor="start" x="125.068" y="-206.9" font-family="Arial" font-size="14.00" fill="#666666">[numeric(21,9)]</text>
<polygon fill="none" stroke="#000000" points="46.5,-165.5 46.5,-195.5 461.5,-195.5 461.5,-165.5 46.5,-165.5"/>
<text text-anchor="start" x="53.5" y="-176.9" font-family="Arial" font-size="14.00" fill="#000000">potolerance </text>
<text text-anchor="start" x="130.5266" y="-176.9" font-family="Arial" font-size="14.00" fill="#666666">[numeric(17,5)]</text>
<polygon fill="none" stroke="#000000" points="46.5,-135.5 46.5,-165.5 461.5,-165.5 461.5,-135.5 46.5,-135.5"/>
<text text-anchor="start" x="53.5" y="-146.9" font-family="Arial" font-size="14.00" fill="#000000">priority </text>
<text text-anchor="start" x="99.3808" y="-146.9" font-family="Arial" font-size="14.00" fill="#666666">[smallint]</text>
<polygon fill="none" stroke="#000000" points="46.5,-105.5 46.5,-135.5 461.5,-135.5 461.5,-105.5 46.5,-105.5"/>
<text text-anchor="start" x="53.5" y="-116.9" font-family="Arial" font-size="14.00" fill="#000000">porevisionno </text>
<text text-anchor="start" x="136.7426" y="-116.9" font-family="Arial" font-size="14.00" fill="#666666">[varchar(30)]</text>
<polygon fill="none" stroke="#000000" points="46.5,-75.5 46.5,-105.5 461.5,-105.5 461.5,-75.5 46.5,-75.5"/>
<text text-anchor="start" x="53.5" y="-86.9" font-family="Arial" font-size="14.00" fill="#000000">porevisiondate </text>
<text text-anchor="start" x="148.4158" y="-86.9" font-family="Arial" font-size="14.00" fill="#666666">[date]</text>
<polygon fill="none" stroke="#000000" points="46.5,-45.5 46.5,-75.5 461.5,-75.5 461.5,-45.5 46.5,-45.5"/>
<text text-anchor="start" x="53.5" y="-56.9" font-family="Arial" font-size="14.00" fill="#000000">porateeffectivefrom </text>
<text text-anchor="start" x="177.1928" y="-56.9" font-family="Arial" font-size="14.00" fill="#666666">[date]</text>
<polygon fill="none" stroke="#000000" stroke-width="3" points="44.5,-44.5 44.5,-1732.5 462.5,-1732.5 462.5,-44.5 44.5,-44.5"/>
</g>
</g>
</svg>
