<?xml version="1.0" encoding="UTF-8" standalone="no"?>
<!DOCTYPE svg PUBLIC "-//W3C//DTD SVG 1.1//EN"
 "http://www.w3.org/Graphics/SVG/1.1/DTD/svg11.dtd">
<!-- Generated by graphviz version 2.40.1 (20161225.0304)
 -->
<!-- Title: public.acc_dutyforegoneserialdetail Pages: 1 -->
<svg width="522pt" height="285pt"
 viewBox="0.00 0.00 522.00 285.00" xmlns="http://www.w3.org/2000/svg" xmlns:xlink="http://www.w3.org/1999/xlink">
<g id="graph0" class="graph" transform="scale(1 1) rotate(0) translate(4 281)">
<title>public.acc_dutyforegoneserialdetail</title>
<polygon fill="#ffffff" stroke="transparent" points="-4,4 -4,-281 518,-281 518,4 -4,4"/>
<!-- public.acc_dutyforegoneserialdetail -->
<g id="node1" class="node">
<title>public.acc_dutyforegoneserialdetail</title>
<polygon fill="#efefef" stroke="transparent" points="46,-195.5 46,-230.5 468,-230.5 468,-195.5 46,-195.5"/>
<polygon fill="none" stroke="#000000" points="46,-195.5 46,-230.5 468,-230.5 468,-195.5 46,-195.5"/>
<text text-anchor="start" x="52.681" y="-208.3" font-family="Arial Bold" font-size="18.00" fill="#000000">public.acc_dutyforegoneserialdetail</text>
<text text-anchor="start" x="333.751" y="-208.3" font-family="Arial" font-size="14.00" fill="#000000">    </text>
<text text-anchor="start" x="367.9558" y="-208.3" font-family="Arial" font-size="14.00" fill="#666666">[BASE TABLE]</text>
<polygon fill="none" stroke="#000000" points="46,-165.5 46,-195.5 468,-195.5 468,-165.5 46,-165.5"/>
<text text-anchor="start" x="53" y="-176.9" font-family="Arial" font-size="14.00" fill="#000000">serialdetailid </text>
<text text-anchor="start" x="134.6704" y="-176.9" font-family="Arial" font-size="14.00" fill="#666666">[integer]</text>
<polygon fill="none" stroke="#000000" points="46,-135.5 46,-165.5 468,-165.5 468,-135.5 46,-135.5"/>
<text text-anchor="start" x="53" y="-146.9" font-family="Arial" font-size="14.00" fill="#000000">dutyforegonedetailid </text>
<text text-anchor="start" x="182.934" y="-146.9" font-family="Arial" font-size="14.00" fill="#666666">[integer]</text>
<polygon fill="none" stroke="#000000" points="46,-105.5 46,-135.5 468,-135.5 468,-105.5 46,-105.5"/>
<text text-anchor="start" x="53" y="-116.9" font-family="Arial" font-size="14.00" fill="#000000">serialid </text>
<text text-anchor="start" x="101.2188" y="-116.9" font-family="Arial" font-size="14.00" fill="#666666">[bigint]</text>
<polygon fill="none" stroke="#000000" points="46,-75.5 46,-105.5 468,-105.5 468,-75.5 46,-75.5"/>
<text text-anchor="start" x="53" y="-86.9" font-family="Arial" font-size="14.00" fill="#000000">batchid </text>
<text text-anchor="start" x="102.0182" y="-86.9" font-family="Arial" font-size="14.00" fill="#666666">[integer]</text>
<polygon fill="none" stroke="#000000" points="46,-45.5 46,-75.5 468,-75.5 468,-45.5 46,-45.5"/>
<text text-anchor="start" x="53" y="-56.9" font-family="Arial" font-size="14.00" fill="#000000">dutyforegoneid </text>
<text text-anchor="start" x="149.4824" y="-56.9" font-family="Arial" font-size="14.00" fill="#666666">[integer]</text>
<polygon fill="none" stroke="#000000" stroke-width="3" points="44.5,-44.5 44.5,-232.5 469.5,-232.5 469.5,-44.5 44.5,-44.5"/>
</g>
</g>
</svg>
