<?xml version="1.0" encoding="UTF-8" standalone="no"?>
<!DOCTYPE svg PUBLIC "-//W3C//DTD SVG 1.1//EN"
 "http://www.w3.org/Graphics/SVG/1.1/DTD/svg11.dtd">
<!-- Generated by graphviz version 2.40.1 (20161225.0304)
 -->
<!-- Title: public.sale_invoicecovernotefielddetail Pages: 1 -->
<svg width="547pt" height="255pt"
 viewBox="0.00 0.00 547.00 255.00" xmlns="http://www.w3.org/2000/svg" xmlns:xlink="http://www.w3.org/1999/xlink">
<g id="graph0" class="graph" transform="scale(1 1) rotate(0) translate(4 251)">
<title>public.sale_invoicecovernotefielddetail</title>
<polygon fill="#ffffff" stroke="transparent" points="-4,4 -4,-251 543,-251 543,4 -4,4"/>
<!-- public.sale_invoicecovernotefielddetail -->
<g id="node1" class="node">
<title>public.sale_invoicecovernotefielddetail</title>
<polygon fill="#efefef" stroke="transparent" points="46.5,-165.5 46.5,-200.5 493.5,-200.5 493.5,-165.5 46.5,-165.5"/>
<polygon fill="none" stroke="#000000" points="46.5,-165.5 46.5,-200.5 493.5,-200.5 493.5,-165.5 46.5,-165.5"/>
<text text-anchor="start" x="53.1827" y="-178.3" font-family="Arial Bold" font-size="18.00" fill="#000000">public.sale_invoicecovernotefielddetail</text>
<text text-anchor="start" x="359.2493" y="-178.3" font-family="Arial" font-size="14.00" fill="#000000">    </text>
<text text-anchor="start" x="393.4541" y="-178.3" font-family="Arial" font-size="14.00" fill="#666666">[BASE TABLE]</text>
<polygon fill="none" stroke="#000000" points="46.5,-135.5 46.5,-165.5 493.5,-165.5 493.5,-135.5 46.5,-135.5"/>
<text text-anchor="start" x="53.5" y="-146.9" font-family="Arial" font-size="14.00" fill="#000000">invoicecovernotefielddetailid </text>
<text text-anchor="start" x="232.4256" y="-146.9" font-family="Arial" font-size="14.00" fill="#666666">[integer]</text>
<polygon fill="none" stroke="#000000" points="46.5,-105.5 46.5,-135.5 493.5,-135.5 493.5,-105.5 46.5,-105.5"/>
<text text-anchor="start" x="53.5" y="-116.9" font-family="Arial" font-size="14.00" fill="#000000">covernoteid </text>
<text text-anchor="start" x="129.744" y="-116.9" font-family="Arial" font-size="14.00" fill="#666666">[integer]</text>
<polygon fill="none" stroke="#000000" points="46.5,-75.5 46.5,-105.5 493.5,-105.5 493.5,-75.5 46.5,-75.5"/>
<text text-anchor="start" x="53.5" y="-86.9" font-family="Arial" font-size="14.00" fill="#000000">fieldid </text>
<text text-anchor="start" x="93.9488" y="-86.9" font-family="Arial" font-size="14.00" fill="#666666">[integer]</text>
<polygon fill="none" stroke="#000000" points="46.5,-45.5 46.5,-75.5 493.5,-75.5 493.5,-45.5 46.5,-45.5"/>
<text text-anchor="start" x="53.5" y="-56.9" font-family="Arial" font-size="14.00" fill="#000000">fieldvalue </text>
<text text-anchor="start" x="116.514" y="-56.9" font-family="Arial" font-size="14.00" fill="#666666">[text]</text>
<polygon fill="none" stroke="#000000" stroke-width="3" points="44.5,-44.5 44.5,-202.5 494.5,-202.5 494.5,-44.5 44.5,-44.5"/>
</g>
</g>
</svg>
