<?xml version="1.0" encoding="UTF-8" standalone="no"?>
<!DOCTYPE svg PUBLIC "-//W3C//DTD SVG 1.1//EN"
 "http://www.w3.org/Graphics/SVG/1.1/DTD/svg11.dtd">
<!-- Generated by graphviz version 2.40.1 (20161225.0304)
 -->
<!-- Title: public.pur_rebaterateconfigurationdetail Pages: 1 -->
<svg width="557pt" height="345pt"
 viewBox="0.00 0.00 557.00 345.00" xmlns="http://www.w3.org/2000/svg" xmlns:xlink="http://www.w3.org/1999/xlink">
<g id="graph0" class="graph" transform="scale(1 1) rotate(0) translate(4 341)">
<title>public.pur_rebaterateconfigurationdetail</title>
<polygon fill="#ffffff" stroke="transparent" points="-4,4 -4,-341 553,-341 553,4 -4,4"/>
<!-- public.pur_rebaterateconfigurationdetail -->
<g id="node1" class="node">
<title>public.pur_rebaterateconfigurationdetail</title>
<polygon fill="#efefef" stroke="transparent" points="46.5,-255.5 46.5,-290.5 503.5,-290.5 503.5,-255.5 46.5,-255.5"/>
<polygon fill="none" stroke="#000000" points="46.5,-255.5 46.5,-290.5 503.5,-290.5 503.5,-255.5 46.5,-255.5"/>
<text text-anchor="start" x="53.1742" y="-268.3" font-family="Arial Bold" font-size="18.00" fill="#000000">public.pur_rebaterateconfigurationdetail</text>
<text text-anchor="start" x="369.2578" y="-268.3" font-family="Arial" font-size="14.00" fill="#000000">    </text>
<text text-anchor="start" x="403.4626" y="-268.3" font-family="Arial" font-size="14.00" fill="#666666">[BASE TABLE]</text>
<polygon fill="none" stroke="#000000" points="46.5,-225.5 46.5,-255.5 503.5,-255.5 503.5,-225.5 46.5,-225.5"/>
<text text-anchor="start" x="53.5" y="-236.9" font-family="Arial" font-size="14.00" fill="#000000">rebaterateconfigurationdetailid </text>
<text text-anchor="start" x="245.6626" y="-236.9" font-family="Arial" font-size="14.00" fill="#666666">[integer]</text>
<polygon fill="none" stroke="#000000" points="46.5,-195.5 46.5,-225.5 503.5,-225.5 503.5,-195.5 46.5,-195.5"/>
<text text-anchor="start" x="53.5" y="-206.9" font-family="Arial" font-size="14.00" fill="#000000">rebaterateparameterdetailid </text>
<text text-anchor="start" x="229.3148" y="-206.9" font-family="Arial" font-size="14.00" fill="#666666">[integer]</text>
<polygon fill="none" stroke="#000000" points="46.5,-165.5 46.5,-195.5 503.5,-195.5 503.5,-165.5 46.5,-165.5"/>
<text text-anchor="start" x="53.5" y="-176.9" font-family="Arial" font-size="14.00" fill="#000000">rebaterateconfigurationmasterid </text>
<text text-anchor="start" x="254.988" y="-176.9" font-family="Arial" font-size="14.00" fill="#666666">[integer]</text>
<polygon fill="none" stroke="#000000" points="46.5,-135.5 46.5,-165.5 503.5,-165.5 503.5,-135.5 46.5,-135.5"/>
<text text-anchor="start" x="53.5" y="-146.9" font-family="Arial" font-size="14.00" fill="#000000">qualitytestparameterid </text>
<text text-anchor="start" x="195.0806" y="-146.9" font-family="Arial" font-size="14.00" fill="#666666">[integer]</text>
<polygon fill="none" stroke="#000000" points="46.5,-105.5 46.5,-135.5 503.5,-135.5 503.5,-105.5 46.5,-105.5"/>
<text text-anchor="start" x="53.5" y="-116.9" font-family="Arial" font-size="14.00" fill="#000000">frompercentage </text>
<text text-anchor="start" x="155.4144" y="-116.9" font-family="Arial" font-size="14.00" fill="#666666">[numeric(10,2)]</text>
<polygon fill="none" stroke="#000000" points="46.5,-75.5 46.5,-105.5 503.5,-105.5 503.5,-75.5 46.5,-75.5"/>
<text text-anchor="start" x="53.5" y="-86.9" font-family="Arial" font-size="14.00" fill="#000000">topercentage </text>
<text text-anchor="start" x="139.0932" y="-86.9" font-family="Arial" font-size="14.00" fill="#666666">[numeric(10,2)]</text>
<polygon fill="none" stroke="#000000" points="46.5,-45.5 46.5,-75.5 503.5,-75.5 503.5,-45.5 46.5,-45.5"/>
<text text-anchor="start" x="53.5" y="-56.9" font-family="Arial" font-size="14.00" fill="#000000">rebateperunit </text>
<text text-anchor="start" x="139.8604" y="-56.9" font-family="Arial" font-size="14.00" fill="#666666">[numeric(10,2)]</text>
<polygon fill="none" stroke="#000000" stroke-width="3" points="44.5,-44.5 44.5,-292.5 504.5,-292.5 504.5,-44.5 44.5,-44.5"/>
</g>
</g>
</svg>
