<?xml version="1.0" encoding="UTF-8" standalone="no"?>
<!DOCTYPE svg PUBLIC "-//W3C//DTD SVG 1.1//EN"
 "http://www.w3.org/Graphics/SVG/1.1/DTD/svg11.dtd">
<!-- Generated by graphviz version 2.40.1 (20161225.0304)
 -->
<!-- Title: public.pay_otmonthwise_sheet_detail Pages: 1 -->
<svg width="540pt" height="1245pt"
 viewBox="0.00 0.00 540.00 1245.00" xmlns="http://www.w3.org/2000/svg" xmlns:xlink="http://www.w3.org/1999/xlink">
<g id="graph0" class="graph" transform="scale(1 1) rotate(0) translate(4 1241)">
<title>public.pay_otmonthwise_sheet_detail</title>
<polygon fill="#ffffff" stroke="transparent" points="-4,4 -4,-1241 536,-1241 536,4 -4,4"/>
<!-- public.pay_otmonthwise_sheet_detail -->
<g id="node1" class="node">
<title>public.pay_otmonthwise_sheet_detail</title>
<polygon fill="#efefef" stroke="transparent" points="46,-1155.5 46,-1190.5 486,-1190.5 486,-1155.5 46,-1155.5"/>
<polygon fill="none" stroke="#000000" points="46,-1155.5 46,-1190.5 486,-1190.5 486,-1155.5 46,-1155.5"/>
<text text-anchor="start" x="52.6729" y="-1168.3" font-family="Arial Bold" font-size="18.00" fill="#000000">public.pay_otmonthwise_sheet_detail</text>
<text text-anchor="start" x="351.7591" y="-1168.3" font-family="Arial" font-size="14.00" fill="#000000">    </text>
<text text-anchor="start" x="385.9639" y="-1168.3" font-family="Arial" font-size="14.00" fill="#666666">[BASE TABLE]</text>
<polygon fill="none" stroke="#000000" points="46,-1125.5 46,-1155.5 486,-1155.5 486,-1125.5 46,-1125.5"/>
<text text-anchor="start" x="53" y="-1136.9" font-family="Arial" font-size="14.00" fill="#000000">otsheetdetailid </text>
<text text-anchor="start" x="147.143" y="-1136.9" font-family="Arial" font-size="14.00" fill="#666666">[integer]</text>
<polygon fill="none" stroke="#000000" points="46,-1095.5 46,-1125.5 486,-1125.5 486,-1095.5 46,-1095.5"/>
<text text-anchor="start" x="53" y="-1106.9" font-family="Arial" font-size="14.00" fill="#000000">otsheetmasterid </text>
<text text-anchor="start" x="156.4684" y="-1106.9" font-family="Arial" font-size="14.00" fill="#666666">[integer]</text>
<polygon fill="none" stroke="#000000" points="46,-1065.5 46,-1095.5 486,-1095.5 486,-1065.5 46,-1065.5"/>
<text text-anchor="start" x="53" y="-1076.9" font-family="Arial" font-size="14.00" fill="#000000">employeeid </text>
<text text-anchor="start" x="128.46" y="-1076.9" font-family="Arial" font-size="14.00" fill="#666666">[integer]</text>
<polygon fill="none" stroke="#000000" points="46,-1035.5 46,-1065.5 486,-1065.5 486,-1035.5 46,-1035.5"/>
<text text-anchor="start" x="53" y="-1046.9" font-family="Arial" font-size="14.00" fill="#000000">othours </text>
<text text-anchor="start" x="103.5722" y="-1046.9" font-family="Arial" font-size="14.00" fill="#666666">[text]</text>
<polygon fill="none" stroke="#000000" points="46,-1005.5 46,-1035.5 486,-1035.5 486,-1005.5 46,-1005.5"/>
<text text-anchor="start" x="53" y="-1016.9" font-family="Arial" font-size="14.00" fill="#000000">otcategory </text>
<text text-anchor="start" x="122.2454" y="-1016.9" font-family="Arial" font-size="14.00" fill="#666666">[integer]</text>
<polygon fill="none" stroke="#000000" points="46,-975.5 46,-1005.5 486,-1005.5 486,-975.5 46,-975.5"/>
<text text-anchor="start" x="53" y="-986.9" font-family="Arial" font-size="14.00" fill="#000000">otamount </text>
<text text-anchor="start" x="115.2454" y="-986.9" font-family="Arial" font-size="14.00" fill="#666666">[numeric(18,2)]</text>
<polygon fill="none" stroke="#000000" points="46,-945.5 46,-975.5 486,-975.5 486,-945.5 46,-945.5"/>
<text text-anchor="start" x="53" y="-956.9" font-family="Arial" font-size="14.00" fill="#000000">_1 </text>
<text text-anchor="start" x="72.4558" y="-956.9" font-family="Arial" font-size="14.00" fill="#666666">[timestamp without time zone]</text>
<polygon fill="none" stroke="#000000" points="46,-915.5 46,-945.5 486,-945.5 486,-915.5 46,-915.5"/>
<text text-anchor="start" x="53" y="-926.9" font-family="Arial" font-size="14.00" fill="#000000">_2 </text>
<text text-anchor="start" x="72.4558" y="-926.9" font-family="Arial" font-size="14.00" fill="#666666">[timestamp without time zone]</text>
<polygon fill="none" stroke="#000000" points="46,-885.5 46,-915.5 486,-915.5 486,-885.5 46,-885.5"/>
<text text-anchor="start" x="53" y="-896.9" font-family="Arial" font-size="14.00" fill="#000000">_3 </text>
<text text-anchor="start" x="72.4558" y="-896.9" font-family="Arial" font-size="14.00" fill="#666666">[timestamp without time zone]</text>
<polygon fill="none" stroke="#000000" points="46,-855.5 46,-885.5 486,-885.5 486,-855.5 46,-855.5"/>
<text text-anchor="start" x="53" y="-866.9" font-family="Arial" font-size="14.00" fill="#000000">_4 </text>
<text text-anchor="start" x="72.4558" y="-866.9" font-family="Arial" font-size="14.00" fill="#666666">[timestamp without time zone]</text>
<polygon fill="none" stroke="#000000" points="46,-825.5 46,-855.5 486,-855.5 486,-825.5 46,-825.5"/>
<text text-anchor="start" x="53" y="-836.9" font-family="Arial" font-size="14.00" fill="#000000">_5 </text>
<text text-anchor="start" x="72.4558" y="-836.9" font-family="Arial" font-size="14.00" fill="#666666">[timestamp without time zone]</text>
<polygon fill="none" stroke="#000000" points="46,-795.5 46,-825.5 486,-825.5 486,-795.5 46,-795.5"/>
<text text-anchor="start" x="53" y="-806.9" font-family="Arial" font-size="14.00" fill="#000000">_6 </text>
<text text-anchor="start" x="72.4558" y="-806.9" font-family="Arial" font-size="14.00" fill="#666666">[timestamp without time zone]</text>
<polygon fill="none" stroke="#000000" points="46,-765.5 46,-795.5 486,-795.5 486,-765.5 46,-765.5"/>
<text text-anchor="start" x="53" y="-776.9" font-family="Arial" font-size="14.00" fill="#000000">_7 </text>
<text text-anchor="start" x="72.4558" y="-776.9" font-family="Arial" font-size="14.00" fill="#666666">[timestamp without time zone]</text>
<polygon fill="none" stroke="#000000" points="46,-735.5 46,-765.5 486,-765.5 486,-735.5 46,-735.5"/>
<text text-anchor="start" x="53" y="-746.9" font-family="Arial" font-size="14.00" fill="#000000">_8 </text>
<text text-anchor="start" x="72.4558" y="-746.9" font-family="Arial" font-size="14.00" fill="#666666">[timestamp without time zone]</text>
<polygon fill="none" stroke="#000000" points="46,-705.5 46,-735.5 486,-735.5 486,-705.5 46,-705.5"/>
<text text-anchor="start" x="53" y="-716.9" font-family="Arial" font-size="14.00" fill="#000000">_9 </text>
<text text-anchor="start" x="72.4558" y="-716.9" font-family="Arial" font-size="14.00" fill="#666666">[timestamp without time zone]</text>
<polygon fill="none" stroke="#000000" points="46,-675.5 46,-705.5 486,-705.5 486,-675.5 46,-675.5"/>
<text text-anchor="start" x="53" y="-686.9" font-family="Arial" font-size="14.00" fill="#000000">_10 </text>
<text text-anchor="start" x="80.2384" y="-686.9" font-family="Arial" font-size="14.00" fill="#666666">[timestamp without time zone]</text>
<polygon fill="none" stroke="#000000" points="46,-645.5 46,-675.5 486,-675.5 486,-645.5 46,-645.5"/>
<text text-anchor="start" x="53" y="-656.9" font-family="Arial" font-size="14.00" fill="#000000">_11 </text>
<text text-anchor="start" x="80.2384" y="-656.9" font-family="Arial" font-size="14.00" fill="#666666">[timestamp without time zone]</text>
<polygon fill="none" stroke="#000000" points="46,-615.5 46,-645.5 486,-645.5 486,-615.5 46,-615.5"/>
<text text-anchor="start" x="53" y="-626.9" font-family="Arial" font-size="14.00" fill="#000000">_12 </text>
<text text-anchor="start" x="80.2384" y="-626.9" font-family="Arial" font-size="14.00" fill="#666666">[timestamp without time zone]</text>
<polygon fill="none" stroke="#000000" points="46,-585.5 46,-615.5 486,-615.5 486,-585.5 46,-585.5"/>
<text text-anchor="start" x="53" y="-596.9" font-family="Arial" font-size="14.00" fill="#000000">_13 </text>
<text text-anchor="start" x="80.2384" y="-596.9" font-family="Arial" font-size="14.00" fill="#666666">[timestamp without time zone]</text>
<polygon fill="none" stroke="#000000" points="46,-555.5 46,-585.5 486,-585.5 486,-555.5 46,-555.5"/>
<text text-anchor="start" x="53" y="-566.9" font-family="Arial" font-size="14.00" fill="#000000">_14 </text>
<text text-anchor="start" x="80.2384" y="-566.9" font-family="Arial" font-size="14.00" fill="#666666">[timestamp without time zone]</text>
<polygon fill="none" stroke="#000000" points="46,-525.5 46,-555.5 486,-555.5 486,-525.5 46,-525.5"/>
<text text-anchor="start" x="53" y="-536.9" font-family="Arial" font-size="14.00" fill="#000000">_15 </text>
<text text-anchor="start" x="80.2384" y="-536.9" font-family="Arial" font-size="14.00" fill="#666666">[timestamp without time zone]</text>
<polygon fill="none" stroke="#000000" points="46,-495.5 46,-525.5 486,-525.5 486,-495.5 46,-495.5"/>
<text text-anchor="start" x="53" y="-506.9" font-family="Arial" font-size="14.00" fill="#000000">_16 </text>
<text text-anchor="start" x="80.2384" y="-506.9" font-family="Arial" font-size="14.00" fill="#666666">[timestamp without time zone]</text>
<polygon fill="none" stroke="#000000" points="46,-465.5 46,-495.5 486,-495.5 486,-465.5 46,-465.5"/>
<text text-anchor="start" x="53" y="-476.9" font-family="Arial" font-size="14.00" fill="#000000">_17 </text>
<text text-anchor="start" x="80.2384" y="-476.9" font-family="Arial" font-size="14.00" fill="#666666">[timestamp without time zone]</text>
<polygon fill="none" stroke="#000000" points="46,-435.5 46,-465.5 486,-465.5 486,-435.5 46,-435.5"/>
<text text-anchor="start" x="53" y="-446.9" font-family="Arial" font-size="14.00" fill="#000000">_18 </text>
<text text-anchor="start" x="80.2384" y="-446.9" font-family="Arial" font-size="14.00" fill="#666666">[timestamp without time zone]</text>
<polygon fill="none" stroke="#000000" points="46,-405.5 46,-435.5 486,-435.5 486,-405.5 46,-405.5"/>
<text text-anchor="start" x="53" y="-416.9" font-family="Arial" font-size="14.00" fill="#000000">_19 </text>
<text text-anchor="start" x="80.2384" y="-416.9" font-family="Arial" font-size="14.00" fill="#666666">[timestamp without time zone]</text>
<polygon fill="none" stroke="#000000" points="46,-375.5 46,-405.5 486,-405.5 486,-375.5 46,-375.5"/>
<text text-anchor="start" x="53" y="-386.9" font-family="Arial" font-size="14.00" fill="#000000">_20 </text>
<text text-anchor="start" x="80.2384" y="-386.9" font-family="Arial" font-size="14.00" fill="#666666">[timestamp without time zone]</text>
<polygon fill="none" stroke="#000000" points="46,-345.5 46,-375.5 486,-375.5 486,-345.5 46,-345.5"/>
<text text-anchor="start" x="53" y="-356.9" font-family="Arial" font-size="14.00" fill="#000000">_21 </text>
<text text-anchor="start" x="80.2384" y="-356.9" font-family="Arial" font-size="14.00" fill="#666666">[timestamp without time zone]</text>
<polygon fill="none" stroke="#000000" points="46,-315.5 46,-345.5 486,-345.5 486,-315.5 46,-315.5"/>
<text text-anchor="start" x="53" y="-326.9" font-family="Arial" font-size="14.00" fill="#000000">_22 </text>
<text text-anchor="start" x="80.2384" y="-326.9" font-family="Arial" font-size="14.00" fill="#666666">[timestamp without time zone]</text>
<polygon fill="none" stroke="#000000" points="46,-285.5 46,-315.5 486,-315.5 486,-285.5 46,-285.5"/>
<text text-anchor="start" x="53" y="-296.9" font-family="Arial" font-size="14.00" fill="#000000">_23 </text>
<text text-anchor="start" x="80.2384" y="-296.9" font-family="Arial" font-size="14.00" fill="#666666">[timestamp without time zone]</text>
<polygon fill="none" stroke="#000000" points="46,-255.5 46,-285.5 486,-285.5 486,-255.5 46,-255.5"/>
<text text-anchor="start" x="53" y="-266.9" font-family="Arial" font-size="14.00" fill="#000000">_24 </text>
<text text-anchor="start" x="80.2384" y="-266.9" font-family="Arial" font-size="14.00" fill="#666666">[timestamp without time zone]</text>
<polygon fill="none" stroke="#000000" points="46,-225.5 46,-255.5 486,-255.5 486,-225.5 46,-225.5"/>
<text text-anchor="start" x="53" y="-236.9" font-family="Arial" font-size="14.00" fill="#000000">_25 </text>
<text text-anchor="start" x="80.2384" y="-236.9" font-family="Arial" font-size="14.00" fill="#666666">[timestamp without time zone]</text>
<polygon fill="none" stroke="#000000" points="46,-195.5 46,-225.5 486,-225.5 486,-195.5 46,-195.5"/>
<text text-anchor="start" x="53" y="-206.9" font-family="Arial" font-size="14.00" fill="#000000">_26 </text>
<text text-anchor="start" x="80.2384" y="-206.9" font-family="Arial" font-size="14.00" fill="#666666">[timestamp without time zone]</text>
<polygon fill="none" stroke="#000000" points="46,-165.5 46,-195.5 486,-195.5 486,-165.5 46,-165.5"/>
<text text-anchor="start" x="53" y="-176.9" font-family="Arial" font-size="14.00" fill="#000000">_27 </text>
<text text-anchor="start" x="80.2384" y="-176.9" font-family="Arial" font-size="14.00" fill="#666666">[timestamp without time zone]</text>
<polygon fill="none" stroke="#000000" points="46,-135.5 46,-165.5 486,-165.5 486,-135.5 46,-135.5"/>
<text text-anchor="start" x="53" y="-146.9" font-family="Arial" font-size="14.00" fill="#000000">_28 </text>
<text text-anchor="start" x="80.2384" y="-146.9" font-family="Arial" font-size="14.00" fill="#666666">[timestamp without time zone]</text>
<polygon fill="none" stroke="#000000" points="46,-105.5 46,-135.5 486,-135.5 486,-105.5 46,-105.5"/>
<text text-anchor="start" x="53" y="-116.9" font-family="Arial" font-size="14.00" fill="#000000">_29 </text>
<text text-anchor="start" x="80.2384" y="-116.9" font-family="Arial" font-size="14.00" fill="#666666">[timestamp without time zone]</text>
<polygon fill="none" stroke="#000000" points="46,-75.5 46,-105.5 486,-105.5 486,-75.5 46,-75.5"/>
<text text-anchor="start" x="53" y="-86.9" font-family="Arial" font-size="14.00" fill="#000000">_30 </text>
<text text-anchor="start" x="80.2384" y="-86.9" font-family="Arial" font-size="14.00" fill="#666666">[timestamp without time zone]</text>
<polygon fill="none" stroke="#000000" points="46,-45.5 46,-75.5 486,-75.5 486,-45.5 46,-45.5"/>
<text text-anchor="start" x="53" y="-56.9" font-family="Arial" font-size="14.00" fill="#000000">_31 </text>
<text text-anchor="start" x="80.2384" y="-56.9" font-family="Arial" font-size="14.00" fill="#666666">[timestamp without time zone]</text>
<polygon fill="none" stroke="#000000" stroke-width="3" points="44.5,-44.5 44.5,-1192.5 487.5,-1192.5 487.5,-44.5 44.5,-44.5"/>
</g>
</g>
</svg>
