<?xml version="1.0" encoding="UTF-8" standalone="no"?>
<!DOCTYPE svg PUBLIC "-//W3C//DTD SVG 1.1//EN"
 "http://www.w3.org/Graphics/SVG/1.1/DTD/svg11.dtd">
<!-- Generated by graphviz version 2.40.1 (20161225.0304)
 -->
<!-- Title: public.prod_batchcard Pages: 1 -->
<svg width="1010pt" height="3262pt"
 viewBox="0.00 0.00 1009.50 3262.00" xmlns="http://www.w3.org/2000/svg" xmlns:xlink="http://www.w3.org/1999/xlink">
<g id="graph0" class="graph" transform="scale(1 1) rotate(0) translate(4 3258)">
<title>public.prod_batchcard</title>
<polygon fill="#ffffff" stroke="transparent" points="-4,4 -4,-3258 1005.5,-3258 1005.5,4 -4,4"/>
<!-- public.prod_batchcard -->
<g id="node1" class="node">
<title>public.prod_batchcard</title>
<polygon fill="#efefef" stroke="transparent" points="319.5,-1755.5 319.5,-1790.5 637.5,-1790.5 637.5,-1755.5 319.5,-1755.5"/>
<polygon fill="none" stroke="#000000" points="319.5,-1755.5 319.5,-1790.5 637.5,-1790.5 637.5,-1755.5 319.5,-1755.5"/>
<text text-anchor="start" x="326.1902" y="-1768.3" font-family="Arial Bold" font-size="18.00" fill="#000000">public.prod_batchcard</text>
<text text-anchor="start" x="503.2418" y="-1768.3" font-family="Arial" font-size="14.00" fill="#000000">    </text>
<text text-anchor="start" x="537.4466" y="-1768.3" font-family="Arial" font-size="14.00" fill="#666666">[BASE TABLE]</text>
<polygon fill="none" stroke="#000000" points="319.5,-1725.5 319.5,-1755.5 637.5,-1755.5 637.5,-1725.5 319.5,-1725.5"/>
<text text-anchor="start" x="326.5" y="-1736.9" font-family="Arial" font-size="14.00" fill="#000000">batchcardid </text>
<text text-anchor="start" x="402.744" y="-1736.9" font-family="Arial" font-size="14.00" fill="#666666">[integer]</text>
<polygon fill="none" stroke="#000000" points="319.5,-1695.5 319.5,-1725.5 637.5,-1725.5 637.5,-1695.5 319.5,-1695.5"/>
<text text-anchor="start" x="326.5" y="-1706.9" font-family="Arial" font-size="14.00" fill="#000000">batchcardno </text>
<text text-anchor="start" x="407.42" y="-1706.9" font-family="Arial" font-size="14.00" fill="#666666">[varchar(50)]</text>
<polygon fill="none" stroke="#000000" points="319.5,-1665.5 319.5,-1695.5 637.5,-1695.5 637.5,-1665.5 319.5,-1665.5"/>
<text text-anchor="start" x="326.5" y="-1676.9" font-family="Arial" font-size="14.00" fill="#000000">batchcarddate </text>
<text text-anchor="start" x="419.0932" y="-1676.9" font-family="Arial" font-size="14.00" fill="#666666">[date]</text>
<polygon fill="none" stroke="#000000" points="319.5,-1635.5 319.5,-1665.5 637.5,-1665.5 637.5,-1635.5 319.5,-1635.5"/>
<text text-anchor="start" x="326.5" y="-1646.9" font-family="Arial" font-size="14.00" fill="#000000">preparedby </text>
<text text-anchor="start" x="401.19" y="-1646.9" font-family="Arial" font-size="14.00" fill="#666666">[integer]</text>
<polygon fill="none" stroke="#000000" points="319.5,-1605.5 319.5,-1635.5 637.5,-1635.5 637.5,-1605.5 319.5,-1605.5"/>
<text text-anchor="start" x="326.5" y="-1616.9" font-family="Arial" font-size="14.00" fill="#000000">remarks </text>
<text text-anchor="start" x="380.9376" y="-1616.9" font-family="Arial" font-size="14.00" fill="#666666">[varchar(800)]</text>
<polygon fill="none" stroke="#000000" points="319.5,-1575.5 319.5,-1605.5 637.5,-1605.5 637.5,-1575.5 319.5,-1575.5"/>
<text text-anchor="start" x="326.5" y="-1586.9" font-family="Arial" font-size="14.00" fill="#000000">itemid </text>
<text text-anchor="start" x="367.7202" y="-1586.9" font-family="Arial" font-size="14.00" fill="#666666">[integer]</text>
<polygon fill="none" stroke="#000000" points="319.5,-1545.5 319.5,-1575.5 637.5,-1575.5 637.5,-1545.5 319.5,-1545.5"/>
<text text-anchor="start" x="326.5" y="-1556.9" font-family="Arial" font-size="14.00" fill="#000000">baseqty </text>
<text text-anchor="start" x="379.4116" y="-1556.9" font-family="Arial" font-size="14.00" fill="#666666">[numeric(15,5)]</text>
<polygon fill="none" stroke="#000000" points="319.5,-1515.5 319.5,-1545.5 637.5,-1545.5 637.5,-1515.5 319.5,-1515.5"/>
<text text-anchor="start" x="326.5" y="-1526.9" font-family="Arial" font-size="14.00" fill="#000000">altqty </text>
<text text-anchor="start" x="363.8436" y="-1526.9" font-family="Arial" font-size="14.00" fill="#666666">[numeric(15,5)]</text>
<polygon fill="none" stroke="#000000" points="319.5,-1485.5 319.5,-1515.5 637.5,-1515.5 637.5,-1485.5 319.5,-1485.5"/>
<text text-anchor="start" x="326.5" y="-1496.9" font-family="Arial" font-size="14.00" fill="#000000">seriesno </text>
<text text-anchor="start" x="383.2882" y="-1496.9" font-family="Arial" font-size="14.00" fill="#666666">[integer]</text>
<polygon fill="none" stroke="#000000" points="319.5,-1455.5 319.5,-1485.5 637.5,-1485.5 637.5,-1455.5 319.5,-1455.5"/>
<text text-anchor="start" x="326.5" y="-1466.9" font-family="Arial" font-size="14.00" fill="#000000">seriesid </text>
<text text-anchor="start" x="378.6122" y="-1466.9" font-family="Arial" font-size="14.00" fill="#666666">[integer]</text>
<polygon fill="none" stroke="#000000" points="319.5,-1425.5 319.5,-1455.5 637.5,-1455.5 637.5,-1425.5 319.5,-1425.5"/>
<text text-anchor="start" x="326.5" y="-1436.9" font-family="Arial" font-size="14.00" fill="#000000">branchid </text>
<text text-anchor="start" x="384.0708" y="-1436.9" font-family="Arial" font-size="14.00" fill="#666666">[integer]</text>
<polygon fill="none" stroke="#000000" points="319.5,-1395.5 319.5,-1425.5 637.5,-1425.5 637.5,-1395.5 319.5,-1395.5"/>
<text text-anchor="start" x="326.5" y="-1406.9" font-family="Arial" font-size="14.00" fill="#000000">createdby </text>
<text text-anchor="start" x="391.8548" y="-1406.9" font-family="Arial" font-size="14.00" fill="#666666">[integer]</text>
<polygon fill="none" stroke="#000000" points="319.5,-1365.5 319.5,-1395.5 637.5,-1395.5 637.5,-1365.5 319.5,-1365.5"/>
<text text-anchor="start" x="326.5" y="-1376.9" font-family="Arial" font-size="14.00" fill="#000000">isactive </text>
<text text-anchor="start" x="377.0596" y="-1376.9" font-family="Arial" font-size="14.00" fill="#666666">[boolean]</text>
<polygon fill="none" stroke="#000000" points="319.5,-1335.5 319.5,-1365.5 637.5,-1365.5 637.5,-1335.5 319.5,-1335.5"/>
<text text-anchor="start" x="326.5" y="-1346.9" font-family="Arial" font-size="14.00" fill="#000000">authorizedby </text>
<text text-anchor="start" x="410.5266" y="-1346.9" font-family="Arial" font-size="14.00" fill="#666666">[integer]</text>
<polygon fill="none" stroke="#000000" points="319.5,-1305.5 319.5,-1335.5 637.5,-1335.5 637.5,-1305.5 319.5,-1305.5"/>
<text text-anchor="start" x="326.5" y="-1316.9" font-family="Arial" font-size="14.00" fill="#000000">authorizedon </text>
<text text-anchor="start" x="411.3092" y="-1316.9" font-family="Arial" font-size="14.00" fill="#666666">[timestamp without time zone]</text>
<polygon fill="none" stroke="#000000" points="319.5,-1275.5 319.5,-1305.5 637.5,-1305.5 637.5,-1275.5 319.5,-1275.5"/>
<text text-anchor="start" x="326.5" y="-1286.9" font-family="Arial" font-size="14.00" fill="#000000">createdon </text>
<text text-anchor="start" x="392.6374" y="-1286.9" font-family="Arial" font-size="14.00" fill="#666666">[timestamp without time zone]</text>
<polygon fill="none" stroke="#000000" points="319.5,-1245.5 319.5,-1275.5 637.5,-1275.5 637.5,-1245.5 319.5,-1245.5"/>
<text text-anchor="start" x="326.5" y="-1256.9" font-family="Arial" font-size="14.00" fill="#000000">editlog </text>
<text text-anchor="start" x="371.6248" y="-1256.9" font-family="Arial" font-size="14.00" fill="#666666">[text]</text>
<polygon fill="none" stroke="#000000" points="319.5,-1215.5 319.5,-1245.5 637.5,-1245.5 637.5,-1215.5 319.5,-1215.5"/>
<text text-anchor="start" x="326.5" y="-1226.9" font-family="Arial" font-size="14.00" fill="#000000">isauthorized </text>
<text text-anchor="start" x="405.8506" y="-1226.9" font-family="Arial" font-size="14.00" fill="#666666">[boolean]</text>
<polygon fill="none" stroke="#000000" points="319.5,-1185.5 319.5,-1215.5 637.5,-1215.5 637.5,-1185.5 319.5,-1185.5"/>
<text text-anchor="start" x="326.5" y="-1196.9" font-family="Arial" font-size="14.00" fill="#000000">headauthorizedby </text>
<text text-anchor="start" x="441.657" y="-1196.9" font-family="Arial" font-size="14.00" fill="#666666">[integer]</text>
<polygon fill="none" stroke="#000000" points="319.5,-1155.5 319.5,-1185.5 637.5,-1185.5 637.5,-1155.5 319.5,-1155.5"/>
<text text-anchor="start" x="326.5" y="-1166.9" font-family="Arial" font-size="14.00" fill="#000000">headauthorizedon </text>
<text text-anchor="start" x="442.4396" y="-1166.9" font-family="Arial" font-size="14.00" fill="#666666">[timestamp without time zone]</text>
<polygon fill="none" stroke="#000000" points="319.5,-1125.5 319.5,-1155.5 637.5,-1155.5 637.5,-1125.5 319.5,-1125.5"/>
<text text-anchor="start" x="326.5" y="-1136.9" font-family="Arial" font-size="14.00" fill="#000000">iscancelled </text>
<text text-anchor="start" x="399.6234" y="-1136.9" font-family="Arial" font-size="14.00" fill="#666666">[boolean]</text>
<polygon fill="none" stroke="#000000" points="319.5,-1095.5 319.5,-1125.5 637.5,-1125.5 637.5,-1095.5 319.5,-1095.5"/>
<text text-anchor="start" x="326.5" y="-1106.9" font-family="Arial" font-size="14.00" fill="#000000">cancelledon </text>
<text text-anchor="start" x="405.082" y="-1106.9" font-family="Arial" font-size="14.00" fill="#666666">[date]</text>
<polygon fill="none" stroke="#000000" points="319.5,-1065.5 319.5,-1095.5 637.5,-1095.5 637.5,-1065.5 319.5,-1065.5"/>
<text text-anchor="start" x="326.5" y="-1076.9" font-family="Arial" font-size="14.00" fill="#000000">inspectionrequired </text>
<text text-anchor="start" x="444.7482" y="-1076.9" font-family="Arial" font-size="14.00" fill="#666666">[boolean]</text>
<polygon fill="none" stroke="#000000" points="319.5,-1035.5 319.5,-1065.5 637.5,-1065.5 637.5,-1035.5 319.5,-1035.5"/>
<text text-anchor="start" x="326.5" y="-1046.9" font-family="Arial" font-size="14.00" fill="#000000">calculationbasedon </text>
<text text-anchor="start" x="450.2096" y="-1046.9" font-family="Arial" font-size="14.00" fill="#666666">[boolean]</text>
<polygon fill="none" stroke="#000000" points="319.5,-1005.5 319.5,-1035.5 637.5,-1035.5 637.5,-1005.5 319.5,-1005.5"/>
<text text-anchor="start" x="326.5" y="-1016.9" font-family="Arial" font-size="14.00" fill="#000000">isproductionbasedonreversecalculation </text>
<text text-anchor="start" x="572.3386" y="-1016.9" font-family="Arial" font-size="14.00" fill="#666666">[boolean]</text>
<polygon fill="none" stroke="#000000" points="319.5,-975.5 319.5,-1005.5 637.5,-1005.5 637.5,-975.5 319.5,-975.5"/>
<text text-anchor="start" x="326.5" y="-986.9" font-family="Arial" font-size="14.00" fill="#000000">stageid </text>
<text text-anchor="start" x="375.5182" y="-986.9" font-family="Arial" font-size="14.00" fill="#666666">[integer]</text>
<polygon fill="none" stroke="#000000" points="319.5,-945.5 319.5,-975.5 637.5,-975.5 637.5,-945.5 319.5,-945.5"/>
<text text-anchor="start" x="326.5" y="-956.9" font-family="Arial" font-size="14.00" fill="#000000">isroutingfreezed </text>
<text text-anchor="start" x="429.967" y="-956.9" font-family="Arial" font-size="14.00" fill="#666666">[boolean]</text>
<polygon fill="none" stroke="#000000" points="319.5,-915.5 319.5,-945.5 637.5,-945.5 637.5,-915.5 319.5,-915.5"/>
<text text-anchor="start" x="326.5" y="-926.9" font-family="Arial" font-size="14.00" fill="#000000">soid </text>
<text text-anchor="start" x="356.0624" y="-926.9" font-family="Arial" font-size="14.00" fill="#666666">[integer]</text>
<polygon fill="none" stroke="#000000" points="319.5,-885.5 319.5,-915.5 637.5,-915.5 637.5,-885.5 319.5,-885.5"/>
<text text-anchor="start" x="326.5" y="-896.9" font-family="Arial" font-size="14.00" fill="#000000">cancellationreason </text>
<text text-anchor="start" x="447.0876" y="-896.9" font-family="Arial" font-size="14.00" fill="#666666">[text]</text>
<polygon fill="none" stroke="#000000" points="319.5,-855.5 319.5,-885.5 637.5,-885.5 637.5,-855.5 319.5,-855.5"/>
<text text-anchor="start" x="326.5" y="-866.9" font-family="Arial" font-size="14.00" fill="#000000">cancelledby </text>
<text text-anchor="start" x="404.2994" y="-866.9" font-family="Arial" font-size="14.00" fill="#666666">[integer]</text>
<polygon fill="none" stroke="#000000" points="319.5,-825.5 319.5,-855.5 637.5,-855.5 637.5,-825.5 319.5,-825.5"/>
<text text-anchor="start" x="326.5" y="-836.9" font-family="Arial" font-size="14.00" fill="#000000">isallowtoeditproducedqty </text>
<text text-anchor="start" x="483.6472" y="-836.9" font-family="Arial" font-size="14.00" fill="#666666">[boolean]</text>
<polygon fill="none" stroke="#000000" points="319.5,-795.5 319.5,-825.5 637.5,-825.5 637.5,-795.5 319.5,-795.5"/>
<text text-anchor="start" x="326.5" y="-806.9" font-family="Arial" font-size="14.00" fill="#000000">stockstoreid </text>
<text text-anchor="start" x="405.0694" y="-806.9" font-family="Arial" font-size="14.00" fill="#666666">[integer]</text>
<polygon fill="none" stroke="#000000" points="319.5,-765.5 319.5,-795.5 637.5,-795.5 637.5,-765.5 319.5,-765.5"/>
<text text-anchor="start" x="326.5" y="-776.9" font-family="Arial" font-size="14.00" fill="#000000">isstockholding </text>
<text text-anchor="start" x="418.2966" y="-776.9" font-family="Arial" font-size="14.00" fill="#666666">[boolean]</text>
<polygon fill="none" stroke="#000000" points="319.5,-735.5 319.5,-765.5 637.5,-765.5 637.5,-735.5 319.5,-735.5"/>
<text text-anchor="start" x="326.5" y="-746.9" font-family="Arial" font-size="14.00" fill="#000000">amendby </text>
<text text-anchor="start" x="387.9642" y="-746.9" font-family="Arial" font-size="14.00" fill="#666666">[integer]</text>
<polygon fill="none" stroke="#000000" points="319.5,-705.5 319.5,-735.5 637.5,-735.5 637.5,-705.5 319.5,-705.5"/>
<text text-anchor="start" x="326.5" y="-716.9" font-family="Arial" font-size="14.00" fill="#000000">amendon </text>
<text text-anchor="start" x="388.7468" y="-716.9" font-family="Arial" font-size="14.00" fill="#666666">[timestamp without time zone]</text>
<polygon fill="none" stroke="#000000" points="319.5,-675.5 319.5,-705.5 637.5,-705.5 637.5,-675.5 319.5,-675.5"/>
<text text-anchor="start" x="326.5" y="-686.9" font-family="Arial" font-size="14.00" fill="#000000">amendno </text>
<text text-anchor="start" x="388.7468" y="-686.9" font-family="Arial" font-size="14.00" fill="#666666">[integer]</text>
<polygon fill="none" stroke="#000000" points="319.5,-645.5 319.5,-675.5 637.5,-675.5 637.5,-645.5 319.5,-645.5"/>
<text text-anchor="start" x="326.5" y="-656.9" font-family="Arial" font-size="14.00" fill="#000000">amendreason </text>
<text text-anchor="start" x="415.9726" y="-656.9" font-family="Arial" font-size="14.00" fill="#666666">[text]</text>
<polygon fill="none" stroke="#000000" points="319.5,-615.5 319.5,-645.5 637.5,-645.5 637.5,-615.5 319.5,-615.5"/>
<text text-anchor="start" x="326.5" y="-626.9" font-family="Arial" font-size="14.00" fill="#000000">seriesvouchertype </text>
<text text-anchor="start" x="443.9698" y="-626.9" font-family="Arial" font-size="14.00" fill="#666666">[integer]</text>
<polygon fill="none" stroke="#000000" points="319.5,-585.5 319.5,-615.5 637.5,-615.5 637.5,-585.5 319.5,-585.5"/>
<text text-anchor="start" x="326.5" y="-596.9" font-family="Arial" font-size="14.00" fill="#000000">isclosedforproduction </text>
<text text-anchor="start" x="462.6388" y="-596.9" font-family="Arial" font-size="14.00" fill="#666666">[boolean]</text>
<polygon fill="none" stroke="#000000" points="319.5,-555.5 319.5,-585.5 637.5,-585.5 637.5,-555.5 319.5,-555.5"/>
<text text-anchor="start" x="326.5" y="-566.9" font-family="Arial" font-size="14.00" fill="#000000">closedby </text>
<text text-anchor="start" x="385.6276" y="-566.9" font-family="Arial" font-size="14.00" fill="#666666">[integer]</text>
<polygon fill="none" stroke="#000000" points="319.5,-525.5 319.5,-555.5 637.5,-555.5 637.5,-525.5 319.5,-525.5"/>
<text text-anchor="start" x="326.5" y="-536.9" font-family="Arial" font-size="14.00" fill="#000000">closereason </text>
<text text-anchor="start" x="405.8534" y="-536.9" font-family="Arial" font-size="14.00" fill="#666666">[text]</text>
<polygon fill="none" stroke="#000000" points="319.5,-495.5 319.5,-525.5 637.5,-525.5 637.5,-495.5 319.5,-495.5"/>
<text text-anchor="start" x="326.5" y="-506.9" font-family="Arial" font-size="14.00" fill="#000000">isreprocessing </text>
<text text-anchor="start" x="420.6206" y="-506.9" font-family="Arial" font-size="14.00" fill="#666666">[boolean]</text>
<polygon fill="none" stroke="#000000" points="319.5,-465.5 319.5,-495.5 637.5,-495.5 637.5,-465.5 319.5,-465.5"/>
<text text-anchor="start" x="326.5" y="-476.9" font-family="Arial" font-size="14.00" fill="#000000">workordergenerationmasterid </text>
<text text-anchor="start" x="512.4116" y="-476.9" font-family="Arial" font-size="14.00" fill="#666666">[integer]</text>
<polygon fill="none" stroke="#000000" points="319.5,-435.5 319.5,-465.5 637.5,-465.5 637.5,-435.5 319.5,-435.5"/>
<text text-anchor="start" x="326.5" y="-446.9" font-family="Arial" font-size="14.00" fill="#000000">isclosedforrequisition </text>
<text text-anchor="start" x="461.0694" y="-446.9" font-family="Arial" font-size="14.00" fill="#666666">[boolean]</text>
<polygon fill="none" stroke="#000000" points="319.5,-405.5 319.5,-435.5 637.5,-435.5 637.5,-405.5 319.5,-405.5"/>
<text text-anchor="start" x="326.5" y="-416.9" font-family="Arial" font-size="14.00" fill="#000000">closedreqby </text>
<text text-anchor="start" x="405.8534" y="-416.9" font-family="Arial" font-size="14.00" fill="#666666">[integer]</text>
<polygon fill="none" stroke="#000000" points="319.5,-375.5 319.5,-405.5 637.5,-405.5 637.5,-375.5 319.5,-375.5"/>
<text text-anchor="start" x="326.5" y="-386.9" font-family="Arial" font-size="14.00" fill="#000000">closedreqreason </text>
<text text-anchor="start" x="433.8618" y="-386.9" font-family="Arial" font-size="14.00" fill="#666666">[text]</text>
<polygon fill="none" stroke="#000000" points="319.5,-345.5 319.5,-375.5 637.5,-375.5 637.5,-345.5 319.5,-345.5"/>
<text text-anchor="start" x="326.5" y="-356.9" font-family="Arial" font-size="14.00" fill="#000000">closedreqdate </text>
<text text-anchor="start" x="418.3092" y="-356.9" font-family="Arial" font-size="14.00" fill="#666666">[date]</text>
<polygon fill="none" stroke="#000000" points="319.5,-315.5 319.5,-345.5 637.5,-345.5 637.5,-315.5 319.5,-315.5"/>
<text text-anchor="start" x="326.5" y="-326.9" font-family="Arial" font-size="14.00" fill="#000000">sodetailid </text>
<text text-anchor="start" x="389.514" y="-326.9" font-family="Arial" font-size="14.00" fill="#666666">[integer]</text>
<polygon fill="none" stroke="#000000" points="319.5,-285.5 319.5,-315.5 637.5,-315.5 637.5,-285.5 319.5,-285.5"/>
<text text-anchor="start" x="326.5" y="-296.9" font-family="Arial" font-size="14.00" fill="#000000">soremark </text>
<text text-anchor="start" x="388.7202" y="-296.9" font-family="Arial" font-size="14.00" fill="#666666">[varchar(2000)]</text>
<polygon fill="none" stroke="#000000" points="319.5,-255.5 319.5,-285.5 637.5,-285.5 637.5,-255.5 319.5,-255.5"/>
<text text-anchor="start" x="326.5" y="-266.9" font-family="Arial" font-size="14.00" fill="#000000">sospecification </text>
<text text-anchor="start" x="422.1872" y="-266.9" font-family="Arial" font-size="14.00" fill="#666666">[varchar(2000)]</text>
<polygon fill="none" stroke="#000000" points="319.5,-225.5 319.5,-255.5 637.5,-255.5 637.5,-225.5 319.5,-225.5"/>
<text text-anchor="start" x="326.5" y="-236.9" font-family="Arial" font-size="14.00" fill="#000000">authorizelevel </text>
<text text-anchor="start" x="416.7398" y="-236.9" font-family="Arial" font-size="14.00" fill="#666666">[integer]</text>
<polygon fill="none" stroke="#000000" points="319.5,-195.5 319.5,-225.5 637.5,-225.5 637.5,-195.5 319.5,-195.5"/>
<text text-anchor="start" x="326.5" y="-206.9" font-family="Arial" font-size="14.00" fill="#000000">lastupdatedformula </text>
<text text-anchor="start" x="449.4228" y="-206.9" font-family="Arial" font-size="14.00" fill="#666666">[text]</text>
<polygon fill="none" stroke="#000000" points="319.5,-165.5 319.5,-195.5 637.5,-195.5 637.5,-165.5 319.5,-165.5"/>
<text text-anchor="start" x="326.5" y="-176.9" font-family="Arial" font-size="14.00" fill="#000000">iscustomitem </text>
<text text-anchor="start" x="412.054" y="-176.9" font-family="Arial" font-size="14.00" fill="#666666">[boolean]</text>
<polygon fill="none" stroke="#000000" points="319.5,-135.5 319.5,-165.5 637.5,-165.5 637.5,-135.5 319.5,-135.5"/>
<text text-anchor="start" x="326.5" y="-146.9" font-family="Arial" font-size="14.00" fill="#000000">prodjournalid </text>
<text text-anchor="start" x="411.2924" y="-146.9" font-family="Arial" font-size="14.00" fill="#666666">[integer]</text>
<polygon fill="none" stroke="#000000" points="319.5,-105.5 319.5,-135.5 637.5,-135.5 637.5,-105.5 319.5,-105.5"/>
<text text-anchor="start" x="326.5" y="-116.9" font-family="Arial" font-size="14.00" fill="#000000">updatedby </text>
<text text-anchor="start" x="395.7594" y="-116.9" font-family="Arial" font-size="14.00" fill="#666666">[integer]</text>
<polygon fill="none" stroke="#000000" points="319.5,-75.5 319.5,-105.5 637.5,-105.5 637.5,-75.5 319.5,-75.5"/>
<text text-anchor="start" x="326.5" y="-86.9" font-family="Arial" font-size="14.00" fill="#000000">updatedon </text>
<text text-anchor="start" x="396.542" y="-86.9" font-family="Arial" font-size="14.00" fill="#666666">[timestamp(6) without time zone]</text>
<polygon fill="none" stroke="#000000" points="319.5,-45.5 319.5,-75.5 637.5,-75.5 637.5,-45.5 319.5,-45.5"/>
<text text-anchor="start" x="326.5" y="-56.9" font-family="Arial" font-size="14.00" fill="#000000">isagainstiwo </text>
<text text-anchor="start" x="406.6206" y="-56.9" font-family="Arial" font-size="14.00" fill="#666666">[boolean]</text>
<polygon fill="none" stroke="#000000" stroke-width="3" points="318,-44.5 318,-1792.5 639,-1792.5 639,-44.5 318,-44.5"/>
</g>
<!-- public.prod_batchcarddetail -->
<g id="node2" class="node">
<title>public.prod_batchcarddetail</title>
<polygon fill="#efefef" stroke="transparent" points="43.5,-3175.5 43.5,-3210.5 404.5,-3210.5 404.5,-3175.5 43.5,-3175.5"/>
<polygon fill="none" stroke="#000000" points="43.5,-3175.5 43.5,-3210.5 404.5,-3210.5 404.5,-3175.5 43.5,-3175.5"/>
<text text-anchor="start" x="50.1856" y="-3188.3" font-family="Arial Bold" font-size="18.00" fill="#000000">public.prod_batchcarddetail</text>
<text text-anchor="start" x="270.2464" y="-3188.3" font-family="Arial" font-size="14.00" fill="#000000">    </text>
<text text-anchor="start" x="304.4512" y="-3188.3" font-family="Arial" font-size="14.00" fill="#666666">[BASE TABLE]</text>
<polygon fill="none" stroke="#000000" points="43.5,-3145.5 43.5,-3175.5 404.5,-3175.5 404.5,-3145.5 43.5,-3145.5"/>
<text text-anchor="start" x="50.5" y="-3156.9" font-family="Arial" font-size="14.00" fill="#000000">detailid    </text>
<text text-anchor="start" x="129.0456" y="-3156.9" font-family="Arial" font-size="14.00" fill="#666666">[integer]</text>
<polygon fill="none" stroke="#000000" points="43.5,-3115.5 43.5,-3145.5 404.5,-3145.5 404.5,-3115.5 43.5,-3115.5"/>
<text text-anchor="start" x="50.5" y="-3126.9" font-family="Arial" font-size="14.00" fill="#000000">batchcardid    </text>
<text text-anchor="start" x="157.0582" y="-3126.9" font-family="Arial" font-size="14.00" fill="#666666">[integer]</text>
<polygon fill="none" stroke="#000000" points="43.5,-3085.5 43.5,-3115.5 404.5,-3115.5 404.5,-3085.5 43.5,-3085.5"/>
<text text-anchor="start" x="50.5" y="-3096.9" font-family="Arial" font-size="14.00" fill="#000000">itemid    </text>
<text text-anchor="start" x="122.0344" y="-3096.9" font-family="Arial" font-size="14.00" fill="#666666">[integer]</text>
<polygon fill="none" stroke="#000000" points="43.5,-3055.5 43.5,-3085.5 404.5,-3085.5 404.5,-3055.5 43.5,-3055.5"/>
<text text-anchor="start" x="50.5" y="-3066.9" font-family="Arial" font-size="14.00" fill="#000000">baseqty    </text>
<text text-anchor="start" x="133.7258" y="-3066.9" font-family="Arial" font-size="14.00" fill="#666666">[numeric(15,5)]</text>
<polygon fill="none" stroke="#000000" points="43.5,-3025.5 43.5,-3055.5 404.5,-3055.5 404.5,-3025.5 43.5,-3025.5"/>
<text text-anchor="start" x="50.5" y="-3036.9" font-family="Arial" font-size="14.00" fill="#000000">altqty    </text>
<text text-anchor="start" x="118.1578" y="-3036.9" font-family="Arial" font-size="14.00" fill="#666666">[numeric(15,5)]</text>
<polygon fill="none" stroke="#000000" points="43.5,-2995.5 43.5,-3025.5 404.5,-3025.5 404.5,-2995.5 43.5,-2995.5"/>
<text text-anchor="start" x="50.5" y="-3006.9" font-family="Arial" font-size="14.00" fill="#000000">toleranceplus    </text>
<text text-anchor="start" x="167.9474" y="-3006.9" font-family="Arial" font-size="14.00" fill="#666666">[numeric(10,2)]</text>
<polygon fill="none" stroke="#000000" points="43.5,-2965.5 43.5,-2995.5 404.5,-2995.5 404.5,-2965.5 43.5,-2965.5"/>
<text text-anchor="start" x="50.5" y="-2976.9" font-family="Arial" font-size="14.00" fill="#000000">toleranceminus    </text>
<text text-anchor="start" x="179.608" y="-2976.9" font-family="Arial" font-size="14.00" fill="#666666">[numeric(10,2)]</text>
<polygon fill="none" stroke="#000000" points="43.5,-2935.5 43.5,-2965.5 404.5,-2965.5 404.5,-2935.5 43.5,-2935.5"/>
<text text-anchor="start" x="50.5" y="-2946.9" font-family="Arial" font-size="14.00" fill="#000000">parentdetailid    </text>
<text text-anchor="start" x="168.7272" y="-2946.9" font-family="Arial" font-size="14.00" fill="#666666">[integer]</text>
<polygon fill="none" stroke="#000000" points="43.5,-2905.5 43.5,-2935.5 404.5,-2935.5 404.5,-2905.5 43.5,-2905.5"/>
<text text-anchor="start" x="50.5" y="-2916.9" font-family="Arial" font-size="14.00" fill="#000000">scrapitemid    </text>
<text text-anchor="start" x="156.2602" y="-2916.9" font-family="Arial" font-size="14.00" fill="#666666">[integer]</text>
<polygon fill="none" stroke="#000000" points="43.5,-2875.5 43.5,-2905.5 404.5,-2905.5 404.5,-2875.5 43.5,-2875.5"/>
<text text-anchor="start" x="50.5" y="-2886.9" font-family="Arial" font-size="14.00" fill="#000000">scrappercentage    </text>
<text text-anchor="start" x="188.96" y="-2886.9" font-family="Arial" font-size="14.00" fill="#666666">[numeric(5,2)]</text>
<polygon fill="none" stroke="#000000" points="43.5,-2845.5 43.5,-2875.5 404.5,-2875.5 404.5,-2845.5 43.5,-2845.5"/>
<text text-anchor="start" x="50.5" y="-2856.9" font-family="Arial" font-size="14.00" fill="#000000">scrapbaseqty    </text>
<text text-anchor="start" x="167.9516" y="-2856.9" font-family="Arial" font-size="14.00" fill="#666666">[numeric(15,5)]</text>
<polygon fill="none" stroke="#000000" points="43.5,-2815.5 43.5,-2845.5 404.5,-2845.5 404.5,-2815.5 43.5,-2815.5"/>
<text text-anchor="start" x="50.5" y="-2826.9" font-family="Arial" font-size="14.00" fill="#000000">scrapaltqty    </text>
<text text-anchor="start" x="152.3836" y="-2826.9" font-family="Arial" font-size="14.00" fill="#666666">[numeric(15,5)]</text>
<polygon fill="none" stroke="#000000" points="43.5,-2785.5 43.5,-2815.5 404.5,-2815.5 404.5,-2785.5 43.5,-2785.5"/>
<text text-anchor="start" x="50.5" y="-2796.9" font-family="Arial" font-size="14.00" fill="#000000">burninglosspercentage    </text>
<text text-anchor="start" x="226.3036" y="-2796.9" font-family="Arial" font-size="14.00" fill="#666666">[numeric(5,2)]</text>
<polygon fill="none" stroke="#000000" points="43.5,-2755.5 43.5,-2785.5 404.5,-2785.5 404.5,-2755.5 43.5,-2755.5"/>
<text text-anchor="start" x="50.5" y="-2766.9" font-family="Arial" font-size="14.00" fill="#000000">burninglossaltqty    </text>
<text text-anchor="start" x="189.7272" y="-2766.9" font-family="Arial" font-size="14.00" fill="#666666">[numeric(15,5)]</text>
<polygon fill="none" stroke="#000000" points="43.5,-2725.5 43.5,-2755.5 404.5,-2755.5 404.5,-2725.5 43.5,-2725.5"/>
<text text-anchor="start" x="50.5" y="-2736.9" font-family="Arial" font-size="14.00" fill="#000000">burninglossbaseqty    </text>
<text text-anchor="start" x="205.2952" y="-2736.9" font-family="Arial" font-size="14.00" fill="#666666">[numeric(15,5)]</text>
<polygon fill="none" stroke="#000000" points="43.5,-2695.5 43.5,-2725.5 404.5,-2725.5 404.5,-2695.5 43.5,-2695.5"/>
<text text-anchor="start" x="50.5" y="-2706.9" font-family="Arial" font-size="14.00" fill="#000000">calculationbasedonaltunit    </text>
<text text-anchor="start" x="241.866" y="-2706.9" font-family="Arial" font-size="14.00" fill="#666666">[smallint]</text>
<polygon fill="none" stroke="#000000" points="43.5,-2665.5 43.5,-2695.5 404.5,-2695.5 404.5,-2665.5 43.5,-2665.5"/>
<text text-anchor="start" x="50.5" y="-2676.9" font-family="Arial" font-size="14.00" fill="#000000">sourcestageid    </text>
<text text-anchor="start" x="171.8408" y="-2676.9" font-family="Arial" font-size="14.00" fill="#666666">[integer]</text>
<polygon fill="none" stroke="#000000" points="43.5,-2635.5 43.5,-2665.5 404.5,-2665.5 404.5,-2635.5 43.5,-2635.5"/>
<text text-anchor="start" x="50.5" y="-2646.9" font-family="Arial" font-size="14.00" fill="#000000">levelno    </text>
<text text-anchor="start" x="129.0484" y="-2646.9" font-family="Arial" font-size="14.00" fill="#666666">[smallint]</text>
<polygon fill="none" stroke="#000000" points="43.5,-2605.5 43.5,-2635.5 404.5,-2635.5 404.5,-2605.5 43.5,-2605.5"/>
<text text-anchor="start" x="50.5" y="-2616.9" font-family="Arial" font-size="14.00" fill="#000000">isusedinbsgeneration    </text>
<text text-anchor="start" x="216.967" y="-2616.9" font-family="Arial" font-size="14.00" fill="#666666">[boolean]</text>
<polygon fill="none" stroke="#000000" points="43.5,-2575.5 43.5,-2605.5 404.5,-2605.5 404.5,-2575.5 43.5,-2575.5"/>
<text text-anchor="start" x="50.5" y="-2586.9" font-family="Arial" font-size="14.00" fill="#000000">destinationstageid    </text>
<text text-anchor="start" x="197.5224" y="-2586.9" font-family="Arial" font-size="14.00" fill="#666666">[smallint]</text>
<polygon fill="none" stroke="#000000" points="43.5,-2545.5 43.5,-2575.5 404.5,-2575.5 404.5,-2545.5 43.5,-2545.5"/>
<text text-anchor="start" x="50.5" y="-2556.9" font-family="Arial" font-size="14.00" fill="#000000">isunlimitedtolerance    </text>
<text text-anchor="start" x="208.3836" y="-2556.9" font-family="Arial" font-size="14.00" fill="#666666">[boolean]</text>
<polygon fill="none" stroke="#000000" points="43.5,-2515.5 43.5,-2545.5 404.5,-2545.5 404.5,-2515.5 43.5,-2515.5"/>
<text text-anchor="start" x="50.5" y="-2526.9" font-family="Arial" font-size="14.00" fill="#000000">issubstitute    </text>
<text text-anchor="start" x="154.7202" y="-2526.9" font-family="Arial" font-size="14.00" fill="#666666">[boolean]</text>
<polygon fill="none" stroke="#000000" points="43.5,-2485.5 43.5,-2515.5 404.5,-2515.5 404.5,-2485.5 43.5,-2485.5"/>
<text text-anchor="start" x="50.5" y="-2496.9" font-family="Arial" font-size="14.00" fill="#000000">mainitemid    </text>
<text text-anchor="start" x="152.3668" y="-2496.9" font-family="Arial" font-size="14.00" fill="#666666">[integer]</text>
<polygon fill="none" stroke="#000000" points="43.5,-2455.5 43.5,-2485.5 404.5,-2485.5 404.5,-2455.5 43.5,-2455.5"/>
<text text-anchor="start" x="50.5" y="-2466.9" font-family="Arial" font-size="14.00" fill="#000000">holdstock    </text>
<text text-anchor="start" x="143.8324" y="-2466.9" font-family="Arial" font-size="14.00" fill="#666666">[numeric(15,5)]</text>
<polygon fill="none" stroke="#000000" points="43.5,-2425.5 43.5,-2455.5 404.5,-2455.5 404.5,-2425.5 43.5,-2425.5"/>
<text text-anchor="start" x="50.5" y="-2436.9" font-family="Arial" font-size="14.00" fill="#000000">holdaltstock    </text>
<text text-anchor="start" x="158.6122" y="-2436.9" font-family="Arial" font-size="14.00" fill="#666666">[numeric(15,5)]</text>
<polygon fill="none" stroke="#000000" points="43.5,-2395.5 43.5,-2425.5 404.5,-2425.5 404.5,-2395.5 43.5,-2395.5"/>
<text text-anchor="start" x="50.5" y="-2406.9" font-family="Arial" font-size="14.00" fill="#000000">isvisibleinboq    </text>
<text text-anchor="start" x="167.9334" y="-2406.9" font-family="Arial" font-size="14.00" fill="#666666">[boolean]</text>
<polygon fill="none" stroke="#000000" points="43.5,-2365.5 43.5,-2395.5 404.5,-2395.5 404.5,-2365.5 43.5,-2365.5"/>
<text text-anchor="start" x="50.5" y="-2376.9" font-family="Arial" font-size="14.00" fill="#000000">itemrate    </text>
<text text-anchor="start" x="135.2616" y="-2376.9" font-family="Arial" font-size="14.00" fill="#666666">[numeric(15,5)]</text>
<polygon fill="none" stroke="#000000" points="43.5,-2335.5 43.5,-2365.5 404.5,-2365.5 404.5,-2335.5 43.5,-2335.5"/>
<text text-anchor="start" x="50.5" y="-2346.9" font-family="Arial" font-size="14.00" fill="#000000">approxlandedrate    </text>
<text text-anchor="start" x="193.6318" y="-2346.9" font-family="Arial" font-size="14.00" fill="#666666">[numeric(15,5)]</text>
<polygon fill="none" stroke="#000000" points="43.5,-2305.5 43.5,-2335.5 404.5,-2335.5 404.5,-2305.5 43.5,-2305.5"/>
<text text-anchor="start" x="50.5" y="-2316.9" font-family="Arial" font-size="14.00" fill="#000000">holdedbystoreid    </text>
<text text-anchor="start" x="183.5126" y="-2316.9" font-family="Arial" font-size="14.00" fill="#666666">[integer]</text>
<polygon fill="none" stroke="#000000" points="43.5,-2275.5 43.5,-2305.5 404.5,-2305.5 404.5,-2275.5 43.5,-2275.5"/>
<text text-anchor="start" x="50.5" y="-2286.9" font-family="Arial" font-size="14.00" fill="#000000">potency    </text>
<text text-anchor="start" x="133.7258" y="-2286.9" font-family="Arial" font-size="14.00" fill="#666666">[numeric]</text>
<polygon fill="none" stroke="#000000" points="43.5,-2245.5 43.5,-2275.5 404.5,-2275.5 404.5,-2245.5 43.5,-2245.5"/>
<text text-anchor="start" x="50.5" y="-2256.9" font-family="Arial" font-size="14.00" fill="#000000">bomid    </text>
<text text-anchor="start" x="122.8198" y="-2256.9" font-family="Arial" font-size="14.00" fill="#666666">[integer]</text>
<polygon fill="none" stroke="#000000" points="43.5,-2215.5 43.5,-2245.5 404.5,-2245.5 404.5,-2215.5 43.5,-2215.5"/>
<text text-anchor="start" x="50.5" y="-2226.9" font-family="Arial" font-size="14.00" fill="#000000">requiredqtyasperstandardbatchsize    </text>
<text text-anchor="start" x="303.319" y="-2226.9" font-family="Arial" font-size="14.00" fill="#666666">[numeric]</text>
<polygon fill="none" stroke="#000000" points="43.5,-2185.5 43.5,-2215.5 404.5,-2215.5 404.5,-2185.5 43.5,-2185.5"/>
<text text-anchor="start" x="50.5" y="-2196.9" font-family="Arial" font-size="14.00" fill="#000000">compensationqty    </text>
<text text-anchor="start" x="190.514" y="-2196.9" font-family="Arial" font-size="14.00" fill="#666666">[numeric]</text>
<polygon fill="none" stroke="#000000" points="43.5,-2155.5 43.5,-2185.5 404.5,-2185.5 404.5,-2155.5 43.5,-2155.5"/>
<text text-anchor="start" x="50.5" y="-2166.9" font-family="Arial" font-size="14.00" fill="#000000">actualqtybeforecompansaction    </text>
<text text-anchor="start" x="274.5406" y="-2166.9" font-family="Arial" font-size="14.00" fill="#666666">[numeric(15,5)]</text>
<polygon fill="none" stroke="#000000" points="43.5,-2125.5 43.5,-2155.5 404.5,-2155.5 404.5,-2125.5 43.5,-2125.5"/>
<text text-anchor="start" x="50.5" y="-2136.9" font-family="Arial" font-size="14.00" fill="#000000">actualaltqtybeforecompansaction    </text>
<text text-anchor="start" x="289.3204" y="-2136.9" font-family="Arial" font-size="14.00" fill="#666666">[numeric(15,5)]</text>
<polygon fill="none" stroke="#000000" points="43.5,-2095.5 43.5,-2125.5 404.5,-2125.5 404.5,-2095.5 43.5,-2095.5"/>
<text text-anchor="start" x="50.5" y="-2106.9" font-family="Arial" font-size="14.00" fill="#000000">bomdetailid    </text>
<text text-anchor="start" x="156.2714" y="-2106.9" font-family="Arial" font-size="14.00" fill="#666666">[integer]</text>
<polygon fill="none" stroke="#000000" points="43.5,-2065.5 43.5,-2095.5 404.5,-2095.5 404.5,-2065.5 43.5,-2065.5"/>
<text text-anchor="start" x="50.5" y="-2076.9" font-family="Arial" font-size="14.00" fill="#000000">issequentially    </text>
<text text-anchor="start" x="168.7174" y="-2076.9" font-family="Arial" font-size="14.00" fill="#666666">[boolean]</text>
<polygon fill="none" stroke="#000000" points="43.5,-2035.5 43.5,-2065.5 404.5,-2065.5 404.5,-2035.5 43.5,-2035.5"/>
<text text-anchor="start" x="50.5" y="-2046.9" font-family="Arial" font-size="14.00" fill="#000000">isjobwork    </text>
<text text-anchor="start" x="143.033" y="-2046.9" font-family="Arial" font-size="14.00" fill="#666666">[boolean]</text>
<polygon fill="none" stroke="#000000" points="43.5,-2005.5 43.5,-2035.5 404.5,-2035.5 404.5,-2005.5 43.5,-2005.5"/>
<text text-anchor="start" x="50.5" y="-2016.9" font-family="Arial" font-size="14.00" fill="#000000">jobworkvendorid    </text>
<text text-anchor="start" x="186.6066" y="-2016.9" font-family="Arial" font-size="14.00" fill="#666666">[integer]</text>
<polygon fill="none" stroke="#000000" points="43.5,-1975.5 43.5,-2005.5 404.5,-2005.5 404.5,-1975.5 43.5,-1975.5"/>
<text text-anchor="start" x="50.5" y="-1986.9" font-family="Arial" font-size="14.00" fill="#000000">description    </text>
<text text-anchor="start" x="152.3822" y="-1986.9" font-family="Arial" font-size="14.00" fill="#666666">[varchar(500)]</text>
<polygon fill="none" stroke="#000000" points="43.5,-1945.5 43.5,-1975.5 404.5,-1975.5 404.5,-1945.5 43.5,-1945.5"/>
<text text-anchor="start" x="50.5" y="-1956.9" font-family="Arial" font-size="14.00" fill="#000000">storeforstockid    </text>
<text text-anchor="start" x="175.7174" y="-1956.9" font-family="Arial" font-size="14.00" fill="#666666">[integer]</text>
<polygon fill="none" stroke="#000000" points="43.5,-1915.5 43.5,-1945.5 404.5,-1945.5 404.5,-1915.5 43.5,-1915.5"/>
<text text-anchor="start" x="50.5" y="-1926.9" font-family="Arial" font-size="14.00" fill="#000000">isnotrequiredforproduction    </text>
<text text-anchor="start" x="247.2952" y="-1926.9" font-family="Arial" font-size="14.00" fill="#666666">[boolean]</text>
</g>
<!-- public.prod_batchcarddetail&#45;&gt;public.prod_batchcard -->
<g id="edge1" class="edge">
<title>public.prod_batchcarddetail:batchcardid&#45;&gt;public.prod_batchcard:batchcardid</title>
<path fill="none" stroke="#000000" d="M412.5922,-3124.609C471.783,-3034.0428 441.4998,-1928.852 404.5,-1873 381.8423,-1838.7978 342.1577,-1871.2022 319.5,-1837 295.8137,-1801.2451 276.6111,-1740.5 319.5,-1740.5"/>
<polygon fill="#000000" stroke="#000000" points="412.5847,-3124.6145 401.8515,-3126.8619 408.5423,-3127.5572 404.5,-3130.5 404.5,-3130.5 404.5,-3130.5 408.5423,-3127.5572 407.1485,-3134.1381 412.5847,-3124.6145 412.5847,-3124.6145"/>
<text text-anchor="start" x="411.643" y="-3140.5" font-family="Arial" font-size="10.00" fill="#000000">FOREIGN KEY (batchcardid) REFERENCES prod_batchcard(batchcardid) ON DELETE CASCADE</text>
</g>
<!-- public.prod_batchcarddetail_amendlog -->
<g id="node3" class="node">
<title>public.prod_batchcarddetail_amendlog</title>
<polygon fill="#efefef" stroke="transparent" points="508.5,-2890.5 508.5,-2925.5 958.5,-2925.5 958.5,-2890.5 508.5,-2890.5"/>
<polygon fill="none" stroke="#000000" points="508.5,-2890.5 508.5,-2925.5 958.5,-2925.5 958.5,-2890.5 508.5,-2890.5"/>
<text text-anchor="start" x="515.1707" y="-2903.3" font-family="Arial Bold" font-size="18.00" fill="#000000">public.prod_batchcarddetail_amendlog</text>
<text text-anchor="start" x="824.2613" y="-2903.3" font-family="Arial" font-size="14.00" fill="#000000">    </text>
<text text-anchor="start" x="858.4661" y="-2903.3" font-family="Arial" font-size="14.00" fill="#666666">[BASE TABLE]</text>
<polygon fill="none" stroke="#000000" points="508.5,-2860.5 508.5,-2890.5 958.5,-2890.5 958.5,-2860.5 508.5,-2860.5"/>
<text text-anchor="start" x="515.5" y="-2871.9" font-family="Arial" font-size="14.00" fill="#000000">amenddetailid    </text>
<text text-anchor="start" x="636.8366" y="-2871.9" font-family="Arial" font-size="14.00" fill="#666666">[integer]</text>
<polygon fill="none" stroke="#000000" points="508.5,-2830.5 508.5,-2860.5 958.5,-2860.5 958.5,-2830.5 508.5,-2830.5"/>
<text text-anchor="start" x="515.5" y="-2841.9" font-family="Arial" font-size="14.00" fill="#000000">batchcardamendid    </text>
<text text-anchor="start" x="664.8492" y="-2841.9" font-family="Arial" font-size="14.00" fill="#666666">[integer]</text>
<polygon fill="none" stroke="#000000" points="508.5,-2800.5 508.5,-2830.5 958.5,-2830.5 958.5,-2800.5 508.5,-2800.5"/>
<text text-anchor="start" x="515.5" y="-2811.9" font-family="Arial" font-size="14.00" fill="#000000">detailid    </text>
<text text-anchor="start" x="594.0456" y="-2811.9" font-family="Arial" font-size="14.00" fill="#666666">[integer]</text>
<polygon fill="none" stroke="#000000" points="508.5,-2770.5 508.5,-2800.5 958.5,-2800.5 958.5,-2770.5 508.5,-2770.5"/>
<text text-anchor="start" x="515.5" y="-2781.9" font-family="Arial" font-size="14.00" fill="#000000">batchcardid    </text>
<text text-anchor="start" x="622.0582" y="-2781.9" font-family="Arial" font-size="14.00" fill="#666666">[integer]</text>
<polygon fill="none" stroke="#000000" points="508.5,-2740.5 508.5,-2770.5 958.5,-2770.5 958.5,-2740.5 508.5,-2740.5"/>
<text text-anchor="start" x="515.5" y="-2751.9" font-family="Arial" font-size="14.00" fill="#000000">itemid    </text>
<text text-anchor="start" x="587.0344" y="-2751.9" font-family="Arial" font-size="14.00" fill="#666666">[integer]</text>
<polygon fill="none" stroke="#000000" points="508.5,-2710.5 508.5,-2740.5 958.5,-2740.5 958.5,-2710.5 508.5,-2710.5"/>
<text text-anchor="start" x="515.5" y="-2721.9" font-family="Arial" font-size="14.00" fill="#000000">baseqty    </text>
<text text-anchor="start" x="598.7258" y="-2721.9" font-family="Arial" font-size="14.00" fill="#666666">[numeric(15,5)]</text>
<polygon fill="none" stroke="#000000" points="508.5,-2680.5 508.5,-2710.5 958.5,-2710.5 958.5,-2680.5 508.5,-2680.5"/>
<text text-anchor="start" x="515.5" y="-2691.9" font-family="Arial" font-size="14.00" fill="#000000">altqty    </text>
<text text-anchor="start" x="583.1578" y="-2691.9" font-family="Arial" font-size="14.00" fill="#666666">[numeric(15,5)]</text>
<polygon fill="none" stroke="#000000" points="508.5,-2650.5 508.5,-2680.5 958.5,-2680.5 958.5,-2650.5 508.5,-2650.5"/>
<text text-anchor="start" x="515.5" y="-2661.9" font-family="Arial" font-size="14.00" fill="#000000">toleranceplus    </text>
<text text-anchor="start" x="632.9474" y="-2661.9" font-family="Arial" font-size="14.00" fill="#666666">[numeric(10,2)]</text>
<polygon fill="none" stroke="#000000" points="508.5,-2620.5 508.5,-2650.5 958.5,-2650.5 958.5,-2620.5 508.5,-2620.5"/>
<text text-anchor="start" x="515.5" y="-2631.9" font-family="Arial" font-size="14.00" fill="#000000">toleranceminus    </text>
<text text-anchor="start" x="644.608" y="-2631.9" font-family="Arial" font-size="14.00" fill="#666666">[numeric(10,2)]</text>
<polygon fill="none" stroke="#000000" points="508.5,-2590.5 508.5,-2620.5 958.5,-2620.5 958.5,-2590.5 508.5,-2590.5"/>
<text text-anchor="start" x="515.5" y="-2601.9" font-family="Arial" font-size="14.00" fill="#000000">parentdetailid    </text>
<text text-anchor="start" x="633.7272" y="-2601.9" font-family="Arial" font-size="14.00" fill="#666666">[integer]</text>
<polygon fill="none" stroke="#000000" points="508.5,-2560.5 508.5,-2590.5 958.5,-2590.5 958.5,-2560.5 508.5,-2560.5"/>
<text text-anchor="start" x="515.5" y="-2571.9" font-family="Arial" font-size="14.00" fill="#000000">scrapitemid    </text>
<text text-anchor="start" x="621.2602" y="-2571.9" font-family="Arial" font-size="14.00" fill="#666666">[integer]</text>
<polygon fill="none" stroke="#000000" points="508.5,-2530.5 508.5,-2560.5 958.5,-2560.5 958.5,-2530.5 508.5,-2530.5"/>
<text text-anchor="start" x="515.5" y="-2541.9" font-family="Arial" font-size="14.00" fill="#000000">scrappercentage    </text>
<text text-anchor="start" x="653.96" y="-2541.9" font-family="Arial" font-size="14.00" fill="#666666">[numeric(5,2)]</text>
<polygon fill="none" stroke="#000000" points="508.5,-2500.5 508.5,-2530.5 958.5,-2530.5 958.5,-2500.5 508.5,-2500.5"/>
<text text-anchor="start" x="515.5" y="-2511.9" font-family="Arial" font-size="14.00" fill="#000000">scrapbaseqty    </text>
<text text-anchor="start" x="632.9516" y="-2511.9" font-family="Arial" font-size="14.00" fill="#666666">[numeric(15,5)]</text>
<polygon fill="none" stroke="#000000" points="508.5,-2470.5 508.5,-2500.5 958.5,-2500.5 958.5,-2470.5 508.5,-2470.5"/>
<text text-anchor="start" x="515.5" y="-2481.9" font-family="Arial" font-size="14.00" fill="#000000">scrapaltqty    </text>
<text text-anchor="start" x="617.3836" y="-2481.9" font-family="Arial" font-size="14.00" fill="#666666">[numeric(15,5)]</text>
<polygon fill="none" stroke="#000000" points="508.5,-2440.5 508.5,-2470.5 958.5,-2470.5 958.5,-2440.5 508.5,-2440.5"/>
<text text-anchor="start" x="515.5" y="-2451.9" font-family="Arial" font-size="14.00" fill="#000000">burninglosspercentage    </text>
<text text-anchor="start" x="691.3036" y="-2451.9" font-family="Arial" font-size="14.00" fill="#666666">[numeric(5,2)]</text>
<polygon fill="none" stroke="#000000" points="508.5,-2410.5 508.5,-2440.5 958.5,-2440.5 958.5,-2410.5 508.5,-2410.5"/>
<text text-anchor="start" x="515.5" y="-2421.9" font-family="Arial" font-size="14.00" fill="#000000">burninglossaltqty    </text>
<text text-anchor="start" x="654.7272" y="-2421.9" font-family="Arial" font-size="14.00" fill="#666666">[numeric(15,5)]</text>
<polygon fill="none" stroke="#000000" points="508.5,-2380.5 508.5,-2410.5 958.5,-2410.5 958.5,-2380.5 508.5,-2380.5"/>
<text text-anchor="start" x="515.5" y="-2391.9" font-family="Arial" font-size="14.00" fill="#000000">burninglossbaseqty    </text>
<text text-anchor="start" x="670.2952" y="-2391.9" font-family="Arial" font-size="14.00" fill="#666666">[numeric(15,5)]</text>
<polygon fill="none" stroke="#000000" points="508.5,-2350.5 508.5,-2380.5 958.5,-2380.5 958.5,-2350.5 508.5,-2350.5"/>
<text text-anchor="start" x="515.5" y="-2361.9" font-family="Arial" font-size="14.00" fill="#000000">calculationbasedonaltunit    </text>
<text text-anchor="start" x="706.866" y="-2361.9" font-family="Arial" font-size="14.00" fill="#666666">[smallint]</text>
<polygon fill="none" stroke="#000000" points="508.5,-2320.5 508.5,-2350.5 958.5,-2350.5 958.5,-2320.5 508.5,-2320.5"/>
<text text-anchor="start" x="515.5" y="-2331.9" font-family="Arial" font-size="14.00" fill="#000000">sourcestageid    </text>
<text text-anchor="start" x="636.8408" y="-2331.9" font-family="Arial" font-size="14.00" fill="#666666">[integer]</text>
<polygon fill="none" stroke="#000000" points="508.5,-2290.5 508.5,-2320.5 958.5,-2320.5 958.5,-2290.5 508.5,-2290.5"/>
<text text-anchor="start" x="515.5" y="-2301.9" font-family="Arial" font-size="14.00" fill="#000000">levelno    </text>
<text text-anchor="start" x="594.0484" y="-2301.9" font-family="Arial" font-size="14.00" fill="#666666">[smallint]</text>
<polygon fill="none" stroke="#000000" points="508.5,-2260.5 508.5,-2290.5 958.5,-2290.5 958.5,-2260.5 508.5,-2260.5"/>
<text text-anchor="start" x="515.5" y="-2271.9" font-family="Arial" font-size="14.00" fill="#000000">isusedinbsgeneration    </text>
<text text-anchor="start" x="681.967" y="-2271.9" font-family="Arial" font-size="14.00" fill="#666666">[boolean]</text>
<polygon fill="none" stroke="#000000" points="508.5,-2230.5 508.5,-2260.5 958.5,-2260.5 958.5,-2230.5 508.5,-2230.5"/>
<text text-anchor="start" x="515.5" y="-2241.9" font-family="Arial" font-size="14.00" fill="#000000">destinationstageid    </text>
<text text-anchor="start" x="662.5224" y="-2241.9" font-family="Arial" font-size="14.00" fill="#666666">[integer]</text>
<polygon fill="none" stroke="#000000" points="508.5,-2200.5 508.5,-2230.5 958.5,-2230.5 958.5,-2200.5 508.5,-2200.5"/>
<text text-anchor="start" x="515.5" y="-2211.9" font-family="Arial" font-size="14.00" fill="#000000">isunlimitedtolerance    </text>
<text text-anchor="start" x="673.3836" y="-2211.9" font-family="Arial" font-size="14.00" fill="#666666">[boolean]</text>
</g>
<!-- public.prod_batchcarddetail_amendlog&#45;&gt;public.prod_batchcard -->
<g id="edge2" class="edge">
<title>public.prod_batchcarddetail_amendlog:batchcardid&#45;&gt;public.prod_batchcard:batchcardid</title>
<path fill="none" stroke="#000000" d="M499.1697,-2781.6236C444.1905,-2732.0753 495.9064,-2223.1111 508.5,-2158 545.3803,-1967.3227 831.7112,-1740.5 637.5,-1740.5"/>
<polygon fill="#000000" stroke="#000000" points="499.2653,-2781.6632 506.7735,-2789.6556 503.8826,-2783.5816 508.5,-2785.5 508.5,-2785.5 508.5,-2785.5 503.8826,-2783.5816 510.2265,-2781.3444 499.2653,-2781.6632 499.2653,-2781.6632"/>
<text text-anchor="start" x="515.643" y="-2795.5" font-family="Arial" font-size="10.00" fill="#000000">FOREIGN KEY (batchcardid) REFERENCES prod_batchcard(batchcardid) ON DELETE CASCADE</text>
</g>
</g>
</svg>
