<?xml version="1.0" encoding="UTF-8" standalone="no"?>
<!DOCTYPE svg PUBLIC "-//W3C//DTD SVG 1.1//EN"
 "http://www.w3.org/Graphics/SVG/1.1/DTD/svg11.dtd">
<!-- Generated by graphviz version 2.40.1 (20161225.0304)
 -->
<!-- Title: public.tmp_pendingorder Pages: 1 -->
<svg width="439pt" height="465pt"
 viewBox="0.00 0.00 439.00 465.00" xmlns="http://www.w3.org/2000/svg" xmlns:xlink="http://www.w3.org/1999/xlink">
<g id="graph0" class="graph" transform="scale(1 1) rotate(0) translate(4 461)">
<title>public.tmp_pendingorder</title>
<polygon fill="#ffffff" stroke="transparent" points="-4,4 -4,-461 435,-461 435,4 -4,4"/>
<!-- public.tmp_pendingorder -->
<g id="node1" class="node">
<title>public.tmp_pendingorder</title>
<polygon fill="#efefef" stroke="transparent" points="46.5,-375.5 46.5,-410.5 385.5,-410.5 385.5,-375.5 46.5,-375.5"/>
<polygon fill="none" stroke="#000000" points="46.5,-375.5 46.5,-410.5 385.5,-410.5 385.5,-375.5 46.5,-375.5"/>
<text text-anchor="start" x="53.1908" y="-388.3" font-family="Arial Bold" font-size="18.00" fill="#000000">public.tmp_pendingorder</text>
<text text-anchor="start" x="251.2412" y="-388.3" font-family="Arial" font-size="14.00" fill="#000000">    </text>
<text text-anchor="start" x="285.446" y="-388.3" font-family="Arial" font-size="14.00" fill="#666666">[BASE TABLE]</text>
<polygon fill="none" stroke="#000000" points="46.5,-345.5 46.5,-375.5 385.5,-375.5 385.5,-345.5 46.5,-345.5"/>
<text text-anchor="start" x="53.5" y="-356.9" font-family="Arial" font-size="14.00" fill="#000000">orderid </text>
<text text-anchor="start" x="100.9488" y="-356.9" font-family="Arial" font-size="14.00" fill="#666666">[integer]</text>
<polygon fill="none" stroke="#000000" points="46.5,-315.5 46.5,-345.5 385.5,-345.5 385.5,-315.5 46.5,-315.5"/>
<text text-anchor="start" x="53.5" y="-326.9" font-family="Arial" font-size="14.00" fill="#000000">orderdetailid </text>
<text text-anchor="start" x="134.4004" y="-326.9" font-family="Arial" font-size="14.00" fill="#666666">[integer]</text>
<polygon fill="none" stroke="#000000" points="46.5,-285.5 46.5,-315.5 385.5,-315.5 385.5,-285.5 46.5,-285.5"/>
<text text-anchor="start" x="53.5" y="-296.9" font-family="Arial" font-size="14.00" fill="#000000">itemid </text>
<text text-anchor="start" x="94.7202" y="-296.9" font-family="Arial" font-size="14.00" fill="#666666">[integer]</text>
<polygon fill="none" stroke="#000000" points="46.5,-255.5 46.5,-285.5 385.5,-285.5 385.5,-255.5 46.5,-255.5"/>
<text text-anchor="start" x="53.5" y="-266.9" font-family="Arial" font-size="14.00" fill="#000000">orderqty </text>
<text text-anchor="start" x="108.7328" y="-266.9" font-family="Arial" font-size="14.00" fill="#666666">[numeric(17,5)]</text>
<polygon fill="none" stroke="#000000" points="46.5,-225.5 46.5,-255.5 385.5,-255.5 385.5,-225.5 46.5,-225.5"/>
<text text-anchor="start" x="53.5" y="-236.9" font-family="Arial" font-size="14.00" fill="#000000">orderaltqty </text>
<text text-anchor="start" x="123.5126" y="-236.9" font-family="Arial" font-size="14.00" fill="#666666">[numeric(17,5)]</text>
<polygon fill="none" stroke="#000000" points="46.5,-195.5 46.5,-225.5 385.5,-225.5 385.5,-195.5 46.5,-195.5"/>
<text text-anchor="start" x="53.5" y="-206.9" font-family="Arial" font-size="14.00" fill="#000000">pendingqty </text>
<text text-anchor="start" x="125.866" y="-206.9" font-family="Arial" font-size="14.00" fill="#666666">[numeric(17,5)]</text>
<polygon fill="none" stroke="#000000" points="46.5,-165.5 46.5,-195.5 385.5,-195.5 385.5,-165.5 46.5,-165.5"/>
<text text-anchor="start" x="53.5" y="-176.9" font-family="Arial" font-size="14.00" fill="#000000">pendingaltqty </text>
<text text-anchor="start" x="140.6458" y="-176.9" font-family="Arial" font-size="14.00" fill="#666666">[numeric(17,5)]</text>
<polygon fill="none" stroke="#000000" points="46.5,-135.5 46.5,-165.5 385.5,-165.5 385.5,-135.5 46.5,-135.5"/>
<text text-anchor="start" x="53.5" y="-146.9" font-family="Arial" font-size="14.00" fill="#000000">pendingscheduleqty </text>
<text text-anchor="start" x="181.8856" y="-146.9" font-family="Arial" font-size="14.00" fill="#666666">[numeric(17,5)]</text>
<polygon fill="none" stroke="#000000" points="46.5,-105.5 46.5,-135.5 385.5,-135.5 385.5,-105.5 46.5,-105.5"/>
<text text-anchor="start" x="53.5" y="-116.9" font-family="Arial" font-size="14.00" fill="#000000">pendingschedulealtqty </text>
<text text-anchor="start" x="196.6654" y="-116.9" font-family="Arial" font-size="14.00" fill="#666666">[numeric(17,5)]</text>
<polygon fill="none" stroke="#000000" points="46.5,-75.5 46.5,-105.5 385.5,-105.5 385.5,-75.5 46.5,-75.5"/>
<text text-anchor="start" x="53.5" y="-86.9" font-family="Arial" font-size="14.00" fill="#000000">freeschemeqty </text>
<text text-anchor="start" x="149.1886" y="-86.9" font-family="Arial" font-size="14.00" fill="#666666">[numeric(15,7)]</text>
<polygon fill="none" stroke="#000000" points="46.5,-45.5 46.5,-75.5 385.5,-75.5 385.5,-45.5 46.5,-45.5"/>
<text text-anchor="start" x="53.5" y="-56.9" font-family="Arial" font-size="14.00" fill="#000000">freeschemealtqty </text>
<text text-anchor="start" x="163.9684" y="-56.9" font-family="Arial" font-size="14.00" fill="#666666">[numeric(15,7)]</text>
<polygon fill="none" stroke="#000000" stroke-width="3" points="44.5,-44.5 44.5,-412.5 386.5,-412.5 386.5,-44.5 44.5,-44.5"/>
</g>
</g>
</svg>
