<?xml version="1.0" encoding="UTF-8" standalone="no"?>
<!DOCTYPE svg PUBLIC "-//W3C//DTD SVG 1.1//EN"
 "http://www.w3.org/Graphics/SVG/1.1/DTD/svg11.dtd">
<!-- Generated by graphviz version 2.40.1 (20161225.0304)
 -->
<!-- Title: public.prod_batchcard_dieitemdetails Pages: 1 -->
<svg width="538pt" height="315pt"
 viewBox="0.00 0.00 538.00 315.00" xmlns="http://www.w3.org/2000/svg" xmlns:xlink="http://www.w3.org/1999/xlink">
<g id="graph0" class="graph" transform="scale(1 1) rotate(0) translate(4 311)">
<title>public.prod_batchcard_dieitemdetails</title>
<polygon fill="#ffffff" stroke="transparent" points="-4,4 -4,-311 534,-311 534,4 -4,4"/>
<!-- public.prod_batchcard_dieitemdetails -->
<g id="node1" class="node">
<title>public.prod_batchcard_dieitemdetails</title>
<polygon fill="#efefef" stroke="transparent" points="46,-225.5 46,-260.5 484,-260.5 484,-225.5 46,-225.5"/>
<polygon fill="none" stroke="#000000" points="46,-225.5 46,-260.5 484,-260.5 484,-225.5 46,-225.5"/>
<text text-anchor="start" x="52.6818" y="-238.3" font-family="Arial Bold" font-size="18.00" fill="#000000">public.prod_batchcard_dieitemdetails</text>
<text text-anchor="start" x="349.7502" y="-238.3" font-family="Arial" font-size="14.00" fill="#000000">    </text>
<text text-anchor="start" x="383.955" y="-238.3" font-family="Arial" font-size="14.00" fill="#666666">[BASE TABLE]</text>
<polygon fill="none" stroke="#000000" points="46,-195.5 46,-225.5 484,-225.5 484,-195.5 46,-195.5"/>
<text text-anchor="start" x="53" y="-206.9" font-family="Arial" font-size="14.00" fill="#000000">diedetailid </text>
<text text-anchor="start" x="119.9032" y="-206.9" font-family="Arial" font-size="14.00" fill="#666666">[integer]</text>
<polygon fill="none" stroke="#000000" points="46,-165.5 46,-195.5 484,-195.5 484,-165.5 46,-165.5"/>
<text text-anchor="start" x="53" y="-176.9" font-family="Arial" font-size="14.00" fill="#000000">mainitemid </text>
<text text-anchor="start" x="124.5526" y="-176.9" font-family="Arial" font-size="14.00" fill="#666666">[integer]</text>
<polygon fill="none" stroke="#000000" points="46,-135.5 46,-165.5 484,-165.5 484,-135.5 46,-135.5"/>
<text text-anchor="start" x="53" y="-146.9" font-family="Arial" font-size="14.00" fill="#000000">stageid </text>
<text text-anchor="start" x="102.0182" y="-146.9" font-family="Arial" font-size="14.00" fill="#666666">[integer]</text>
<polygon fill="none" stroke="#000000" points="46,-105.5 46,-135.5 484,-135.5 484,-105.5 46,-105.5"/>
<text text-anchor="start" x="53" y="-116.9" font-family="Arial" font-size="14.00" fill="#000000">dieitemid </text>
<text text-anchor="start" x="112.892" y="-116.9" font-family="Arial" font-size="14.00" fill="#666666">[integer]</text>
<polygon fill="none" stroke="#000000" points="46,-75.5 46,-105.5 484,-105.5 484,-75.5 46,-75.5"/>
<text text-anchor="start" x="53" y="-86.9" font-family="Arial" font-size="14.00" fill="#000000">batchcardid </text>
<text text-anchor="start" x="129.244" y="-86.9" font-family="Arial" font-size="14.00" fill="#666666">[integer]</text>
<polygon fill="none" stroke="#000000" points="46,-45.5 46,-75.5 484,-75.5 484,-45.5 46,-45.5"/>
<text text-anchor="start" x="53" y="-56.9" font-family="Arial" font-size="14.00" fill="#000000">batchcarddetailid </text>
<text text-anchor="start" x="162.6956" y="-56.9" font-family="Arial" font-size="14.00" fill="#666666">[integer]</text>
<polygon fill="none" stroke="#000000" stroke-width="3" points="44.5,-44.5 44.5,-262.5 485.5,-262.5 485.5,-44.5 44.5,-44.5"/>
</g>
</g>
</svg>
