<?xml version="1.0" encoding="UTF-8" standalone="no"?>
<!DOCTYPE svg PUBLIC "-//W3C//DTD SVG 1.1//EN"
 "http://www.w3.org/Graphics/SVG/1.1/DTD/svg11.dtd">
<!-- Generated by graphviz version 2.40.1 (20161225.0304)
 -->
<!-- Title: public.pay_subworkingdays Pages: 1 -->
<svg width="461pt" height="345pt"
 viewBox="0.00 0.00 461.00 345.00" xmlns="http://www.w3.org/2000/svg" xmlns:xlink="http://www.w3.org/1999/xlink">
<g id="graph0" class="graph" transform="scale(1 1) rotate(0) translate(4 341)">
<title>public.pay_subworkingdays</title>
<polygon fill="#ffffff" stroke="transparent" points="-4,4 -4,-341 457,-341 457,4 -4,4"/>
<!-- public.pay_subworkingdays -->
<g id="node1" class="node">
<title>public.pay_subworkingdays</title>
<polygon fill="#efefef" stroke="transparent" points="46.5,-255.5 46.5,-290.5 407.5,-290.5 407.5,-255.5 46.5,-255.5"/>
<polygon fill="none" stroke="#000000" points="46.5,-255.5 46.5,-290.5 407.5,-290.5 407.5,-255.5 46.5,-255.5"/>
<text text-anchor="start" x="53.1901" y="-268.3" font-family="Arial Bold" font-size="18.00" fill="#000000">public.pay_subworkingdays</text>
<text text-anchor="start" x="273.2419" y="-268.3" font-family="Arial" font-size="14.00" fill="#000000">    </text>
<text text-anchor="start" x="307.4467" y="-268.3" font-family="Arial" font-size="14.00" fill="#666666">[BASE TABLE]</text>
<polygon fill="none" stroke="#000000" points="46.5,-225.5 46.5,-255.5 407.5,-255.5 407.5,-225.5 46.5,-225.5"/>
<text text-anchor="start" x="53.5" y="-236.9" font-family="Arial" font-size="14.00" fill="#000000">detailsid </text>
<text text-anchor="start" x="108.7314" y="-236.9" font-family="Arial" font-size="14.00" fill="#666666">[integer]</text>
<polygon fill="none" stroke="#000000" points="46.5,-195.5 46.5,-225.5 407.5,-225.5 407.5,-195.5 46.5,-195.5"/>
<text text-anchor="start" x="53.5" y="-206.9" font-family="Arial" font-size="14.00" fill="#000000">masterid </text>
<text text-anchor="start" x="111.0568" y="-206.9" font-family="Arial" font-size="14.00" fill="#666666">[integer]</text>
<polygon fill="none" stroke="#000000" points="46.5,-165.5 46.5,-195.5 407.5,-195.5 407.5,-165.5 46.5,-165.5"/>
<text text-anchor="start" x="53.5" y="-176.9" font-family="Arial" font-size="14.00" fill="#000000">settingid </text>
<text text-anchor="start" x="109.5154" y="-176.9" font-family="Arial" font-size="14.00" fill="#666666">[integer]</text>
<polygon fill="none" stroke="#000000" points="46.5,-135.5 46.5,-165.5 407.5,-165.5 407.5,-135.5 46.5,-135.5"/>
<text text-anchor="start" x="53.5" y="-146.9" font-family="Arial" font-size="14.00" fill="#000000">isworkingday </text>
<text text-anchor="start" x="138.284" y="-146.9" font-family="Arial" font-size="14.00" fill="#666666">[boolean]</text>
<polygon fill="none" stroke="#000000" points="46.5,-105.5 46.5,-135.5 407.5,-135.5 407.5,-105.5 46.5,-105.5"/>
<text text-anchor="start" x="53.5" y="-116.9" font-family="Arial" font-size="14.00" fill="#000000">isholiday </text>
<text text-anchor="start" x="111.8408" y="-116.9" font-family="Arial" font-size="14.00" fill="#666666">[boolean]</text>
<polygon fill="none" stroke="#000000" points="46.5,-75.5 46.5,-105.5 407.5,-105.5 407.5,-75.5 46.5,-75.5"/>
<text text-anchor="start" x="53.5" y="-86.9" font-family="Arial" font-size="14.00" fill="#000000">ishalfday </text>
<text text-anchor="start" x="112.6248" y="-86.9" font-family="Arial" font-size="14.00" fill="#666666">[boolean]</text>
<polygon fill="none" stroke="#000000" points="46.5,-45.5 46.5,-75.5 407.5,-75.5 407.5,-45.5 46.5,-45.5"/>
<text text-anchor="start" x="53.5" y="-56.9" font-family="Arial" font-size="14.00" fill="#000000">isalternateday </text>
<text text-anchor="start" x="144.5238" y="-56.9" font-family="Arial" font-size="14.00" fill="#666666">[boolean]</text>
<polygon fill="none" stroke="#000000" stroke-width="3" points="44.5,-44.5 44.5,-292.5 408.5,-292.5 408.5,-44.5 44.5,-44.5"/>
</g>
</g>
</svg>
