<?xml version="1.0" encoding="UTF-8" standalone="no"?>
<!DOCTYPE svg PUBLIC "-//W3C//DTD SVG 1.1//EN"
 "http://www.w3.org/Graphics/SVG/1.1/DTD/svg11.dtd">
<!-- Generated by graphviz version 2.40.1 (20161225.0304)
 -->
<!-- Title: public.comn_seriesfielddetail_log Pages: 1 -->
<svg width="505pt" height="375pt"
 viewBox="0.00 0.00 505.00 375.00" xmlns="http://www.w3.org/2000/svg" xmlns:xlink="http://www.w3.org/1999/xlink">
<g id="graph0" class="graph" transform="scale(1 1) rotate(0) translate(4 371)">
<title>public.comn_seriesfielddetail_log</title>
<polygon fill="#ffffff" stroke="transparent" points="-4,4 -4,-371 501,-371 501,4 -4,4"/>
<!-- public.comn_seriesfielddetail_log -->
<g id="node1" class="node">
<title>public.comn_seriesfielddetail_log</title>
<polygon fill="#efefef" stroke="transparent" points="46.5,-285.5 46.5,-320.5 451.5,-320.5 451.5,-285.5 46.5,-285.5"/>
<polygon fill="none" stroke="#000000" points="46.5,-285.5 46.5,-320.5 451.5,-320.5 451.5,-285.5 46.5,-285.5"/>
<text text-anchor="start" x="53.1941" y="-298.3" font-family="Arial Bold" font-size="18.00" fill="#000000">public.comn_seriesfielddetail_log</text>
<text text-anchor="start" x="317.2379" y="-298.3" font-family="Arial" font-size="14.00" fill="#000000">    </text>
<text text-anchor="start" x="351.4427" y="-298.3" font-family="Arial" font-size="14.00" fill="#666666">[BASE TABLE]</text>
<polygon fill="none" stroke="#000000" points="46.5,-255.5 46.5,-285.5 451.5,-285.5 451.5,-255.5 46.5,-255.5"/>
<text text-anchor="start" x="53.5" y="-266.9" font-family="Arial" font-size="14.00" fill="#000000">seriesfielddetaillogid </text>
<text text-anchor="start" x="183.4046" y="-266.9" font-family="Arial" font-size="14.00" fill="#666666">[integer]</text>
<polygon fill="none" stroke="#000000" points="46.5,-225.5 46.5,-255.5 451.5,-255.5 451.5,-225.5 46.5,-225.5"/>
<text text-anchor="start" x="53.5" y="-236.9" font-family="Arial" font-size="14.00" fill="#000000">serieslogid </text>
<text text-anchor="start" x="124.284" y="-236.9" font-family="Arial" font-size="14.00" fill="#666666">[integer]</text>
<polygon fill="none" stroke="#000000" points="46.5,-195.5 46.5,-225.5 451.5,-225.5 451.5,-195.5 46.5,-195.5"/>
<text text-anchor="start" x="53.5" y="-206.9" font-family="Arial" font-size="14.00" fill="#000000">seriesfielddetailid </text>
<text text-anchor="start" x="164.7328" y="-206.9" font-family="Arial" font-size="14.00" fill="#666666">[integer]</text>
<polygon fill="none" stroke="#000000" points="46.5,-165.5 46.5,-195.5 451.5,-195.5 451.5,-165.5 46.5,-165.5"/>
<text text-anchor="start" x="53.5" y="-176.9" font-family="Arial" font-size="14.00" fill="#000000">seriesid </text>
<text text-anchor="start" x="105.6122" y="-176.9" font-family="Arial" font-size="14.00" fill="#666666">[integer]</text>
<polygon fill="none" stroke="#000000" points="46.5,-135.5 46.5,-165.5 451.5,-165.5 451.5,-135.5 46.5,-135.5"/>
<text text-anchor="start" x="53.5" y="-146.9" font-family="Arial" font-size="14.00" fill="#000000">fieldid </text>
<text text-anchor="start" x="93.9488" y="-146.9" font-family="Arial" font-size="14.00" fill="#666666">[integer]</text>
<polygon fill="none" stroke="#000000" points="46.5,-105.5 46.5,-135.5 451.5,-135.5 451.5,-105.5 46.5,-105.5"/>
<text text-anchor="start" x="53.5" y="-116.9" font-family="Arial" font-size="14.00" fill="#000000">fieldvalue </text>
<text text-anchor="start" x="116.514" y="-116.9" font-family="Arial" font-size="14.00" fill="#666666">[varchar(50)]</text>
<polygon fill="none" stroke="#000000" points="46.5,-75.5 46.5,-105.5 451.5,-105.5 451.5,-75.5 46.5,-75.5"/>
<text text-anchor="start" x="53.5" y="-86.9" font-family="Arial" font-size="14.00" fill="#000000">seperator </text>
<text text-anchor="start" x="116.5154" y="-86.9" font-family="Arial" font-size="14.00" fill="#666666">[varchar(10)]</text>
<polygon fill="none" stroke="#000000" points="46.5,-45.5 46.5,-75.5 451.5,-75.5 451.5,-45.5 46.5,-45.5"/>
<text text-anchor="start" x="53.5" y="-56.9" font-family="Arial" font-size="14.00" fill="#000000">oder </text>
<text text-anchor="start" x="85.399" y="-56.9" font-family="Arial" font-size="14.00" fill="#666666">[smallint]</text>
<polygon fill="none" stroke="#000000" stroke-width="3" points="44.5,-44.5 44.5,-322.5 452.5,-322.5 452.5,-44.5 44.5,-44.5"/>
</g>
</g>
</svg>
