<?xml version="1.0" encoding="UTF-8" standalone="no"?>
<!DOCTYPE svg PUBLIC "-//W3C//DTD SVG 1.1//EN"
 "http://www.w3.org/Graphics/SVG/1.1/DTD/svg11.dtd">
<!-- Generated by graphviz version 2.40.1 (20161225.0304)
 -->
<!-- Title: public.pur_profitabilitysettingdetail Pages: 1 -->
<svg width="1034pt" height="1012pt"
 viewBox="0.00 0.00 1033.50 1012.00" xmlns="http://www.w3.org/2000/svg" xmlns:xlink="http://www.w3.org/1999/xlink">
<g id="graph0" class="graph" transform="scale(1 1) rotate(0) translate(4 1008)">
<title>public.pur_profitabilitysettingdetail</title>
<polygon fill="#ffffff" stroke="transparent" points="-4,4 -4,-1008 1029.5,-1008 1029.5,4 -4,4"/>
<!-- public.pur_profitabilitysettingdetail -->
<g id="node1" class="node">
<title>public.pur_profitabilitysettingdetail</title>
<polygon fill="#efefef" stroke="transparent" points="46.5,-922.5 46.5,-957.5 457.5,-957.5 457.5,-922.5 46.5,-922.5"/>
<polygon fill="none" stroke="#000000" points="46.5,-922.5 46.5,-957.5 457.5,-957.5 457.5,-922.5 46.5,-922.5"/>
<text text-anchor="start" x="53.1926" y="-935.3" font-family="Arial Bold" font-size="18.00" fill="#000000">public.pur_profitabilitysettingdetail</text>
<text text-anchor="start" x="323.2394" y="-935.3" font-family="Arial" font-size="14.00" fill="#000000">    </text>
<text text-anchor="start" x="357.4442" y="-935.3" font-family="Arial" font-size="14.00" fill="#666666">[BASE TABLE]</text>
<polygon fill="none" stroke="#000000" points="46.5,-892.5 46.5,-922.5 457.5,-922.5 457.5,-892.5 46.5,-892.5"/>
<text text-anchor="start" x="53.5" y="-903.9" font-family="Arial" font-size="14.00" fill="#000000">detailid </text>
<text text-anchor="start" x="101.7314" y="-903.9" font-family="Arial" font-size="14.00" fill="#666666">[integer]</text>
<polygon fill="none" stroke="#000000" points="46.5,-862.5 46.5,-892.5 457.5,-892.5 457.5,-862.5 46.5,-862.5"/>
<text text-anchor="start" x="53.5" y="-873.9" font-family="Arial" font-size="14.00" fill="#000000">settingid </text>
<text text-anchor="start" x="109.5154" y="-873.9" font-family="Arial" font-size="14.00" fill="#666666">[integer]</text>
<polygon fill="none" stroke="#000000" points="46.5,-832.5 46.5,-862.5 457.5,-862.5 457.5,-832.5 46.5,-832.5"/>
<text text-anchor="start" x="53.5" y="-843.9" font-family="Arial" font-size="14.00" fill="#000000">itemid </text>
<text text-anchor="start" x="94.7202" y="-843.9" font-family="Arial" font-size="14.00" fill="#666666">[integer]</text>
<polygon fill="none" stroke="#000000" points="46.5,-802.5 46.5,-832.5 457.5,-832.5 457.5,-802.5 46.5,-802.5"/>
<text text-anchor="start" x="53.5" y="-813.9" font-family="Arial" font-size="14.00" fill="#000000">brandid </text>
<text text-anchor="start" x="104.0708" y="-813.9" font-family="Arial" font-size="14.00" fill="#666666">[integer]</text>
<polygon fill="none" stroke="#000000" points="46.5,-772.5 46.5,-802.5 457.5,-802.5 457.5,-772.5 46.5,-772.5"/>
<text text-anchor="start" x="53.5" y="-783.9" font-family="Arial" font-size="14.00" fill="#000000">rate </text>
<text text-anchor="start" x="81.507" y="-783.9" font-family="Arial" font-size="14.00" fill="#666666">[double precision]</text>
<polygon fill="none" stroke="#000000" points="46.5,-742.5 46.5,-772.5 457.5,-772.5 457.5,-742.5 46.5,-742.5"/>
<text text-anchor="start" x="53.5" y="-753.9" font-family="Arial" font-size="14.00" fill="#000000">amount </text>
<text text-anchor="start" x="104.0722" y="-753.9" font-family="Arial" font-size="14.00" fill="#666666">[double precision]</text>
<polygon fill="none" stroke="#000000" points="46.5,-712.5 46.5,-742.5 457.5,-742.5 457.5,-712.5 46.5,-712.5"/>
<text text-anchor="start" x="53.5" y="-723.9" font-family="Arial" font-size="14.00" fill="#000000">amendby </text>
<text text-anchor="start" x="114.9642" y="-723.9" font-family="Arial" font-size="14.00" fill="#666666">[integer]</text>
<polygon fill="none" stroke="#000000" points="46.5,-682.5 46.5,-712.5 457.5,-712.5 457.5,-682.5 46.5,-682.5"/>
<text text-anchor="start" x="53.5" y="-693.9" font-family="Arial" font-size="14.00" fill="#000000">amendon </text>
<text text-anchor="start" x="115.7468" y="-693.9" font-family="Arial" font-size="14.00" fill="#666666">[timestamp without time zone]</text>
<polygon fill="none" stroke="#000000" points="46.5,-652.5 46.5,-682.5 457.5,-682.5 457.5,-652.5 46.5,-652.5"/>
<text text-anchor="start" x="53.5" y="-663.9" font-family="Arial" font-size="14.00" fill="#000000">amendreason </text>
<text text-anchor="start" x="142.9726" y="-663.9" font-family="Arial" font-size="14.00" fill="#666666">[text]</text>
<polygon fill="none" stroke="#000000" stroke-width="3" points="44.5,-651.5 44.5,-959.5 458.5,-959.5 458.5,-651.5 44.5,-651.5"/>
</g>
<!-- public.pur_profitabilitysetting -->
<g id="node2" class="node">
<title>public.pur_profitabilitysetting</title>
<polygon fill="#efefef" stroke="transparent" points="68.5,-492.5 68.5,-527.5 436.5,-527.5 436.5,-492.5 68.5,-492.5"/>
<polygon fill="none" stroke="#000000" points="68.5,-492.5 68.5,-527.5 436.5,-527.5 436.5,-492.5 68.5,-492.5"/>
<text text-anchor="start" x="75.1972" y="-505.3" font-family="Arial Bold" font-size="18.00" fill="#000000">public.pur_profitabilitysetting</text>
<text text-anchor="start" x="302.2348" y="-505.3" font-family="Arial" font-size="14.00" fill="#000000">    </text>
<text text-anchor="start" x="336.4396" y="-505.3" font-family="Arial" font-size="14.00" fill="#666666">[BASE TABLE]</text>
<polygon fill="none" stroke="#000000" points="68.5,-462.5 68.5,-492.5 436.5,-492.5 436.5,-462.5 68.5,-462.5"/>
<text text-anchor="start" x="75.5" y="-473.9" font-family="Arial" font-size="14.00" fill="#000000">settingid    </text>
<text text-anchor="start" x="161.8296" y="-473.9" font-family="Arial" font-size="14.00" fill="#666666">[integer]</text>
<polygon fill="none" stroke="#000000" points="68.5,-432.5 68.5,-462.5 436.5,-462.5 436.5,-432.5 68.5,-432.5"/>
<text text-anchor="start" x="75.5" y="-443.9" font-family="Arial" font-size="14.00" fill="#000000">branchid    </text>
<text text-anchor="start" x="163.385" y="-443.9" font-family="Arial" font-size="14.00" fill="#666666">[integer]</text>
<polygon fill="none" stroke="#000000" points="68.5,-402.5 68.5,-432.5 436.5,-432.5 436.5,-402.5 68.5,-402.5"/>
<text text-anchor="start" x="75.5" y="-413.9" font-family="Arial" font-size="14.00" fill="#000000">period    </text>
<text text-anchor="start" x="148.6024" y="-413.9" font-family="Arial" font-size="14.00" fill="#666666">[date]</text>
<polygon fill="none" stroke="#000000" points="68.5,-372.5 68.5,-402.5 436.5,-402.5 436.5,-372.5 68.5,-372.5"/>
<text text-anchor="start" x="75.5" y="-383.9" font-family="Arial" font-size="14.00" fill="#000000">settingvalueid    </text>
<text text-anchor="start" x="195.284" y="-383.9" font-family="Arial" font-size="14.00" fill="#666666">[integer]</text>
<polygon fill="none" stroke="#000000" points="68.5,-342.5 68.5,-372.5 436.5,-372.5 436.5,-342.5 68.5,-342.5"/>
<text text-anchor="start" x="75.5" y="-353.9" font-family="Arial" font-size="14.00" fill="#000000">settingvalueagainst    </text>
<text text-anchor="start" x="229.5224" y="-353.9" font-family="Arial" font-size="14.00" fill="#666666">[integer]</text>
<polygon fill="none" stroke="#000000" points="68.5,-312.5 68.5,-342.5 436.5,-342.5 436.5,-312.5 68.5,-312.5"/>
<text text-anchor="start" x="75.5" y="-323.9" font-family="Arial" font-size="14.00" fill="#000000">valuein    </text>
<text text-anchor="start" x="154.0484" y="-323.9" font-family="Arial" font-size="14.00" fill="#666666">[integer]</text>
<polygon fill="none" stroke="#000000" points="68.5,-282.5 68.5,-312.5 436.5,-312.5 436.5,-282.5 68.5,-282.5"/>
<text text-anchor="start" x="75.5" y="-293.9" font-family="Arial" font-size="14.00" fill="#000000">value_amount    </text>
<text text-anchor="start" x="197.6234" y="-293.9" font-family="Arial" font-size="14.00" fill="#666666">[double precision]</text>
<polygon fill="none" stroke="#000000" points="68.5,-252.5 68.5,-282.5 436.5,-282.5 436.5,-252.5 68.5,-252.5"/>
<text text-anchor="start" x="75.5" y="-263.9" font-family="Arial" font-size="14.00" fill="#000000">createdon    </text>
<text text-anchor="start" x="171.9516" y="-263.9" font-family="Arial" font-size="14.00" fill="#666666">[date]</text>
<polygon fill="none" stroke="#000000" points="68.5,-222.5 68.5,-252.5 436.5,-252.5 436.5,-222.5 68.5,-222.5"/>
<text text-anchor="start" x="75.5" y="-233.9" font-family="Arial" font-size="14.00" fill="#000000">createdby    </text>
<text text-anchor="start" x="171.169" y="-233.9" font-family="Arial" font-size="14.00" fill="#666666">[smallint]</text>
<polygon fill="none" stroke="#000000" points="68.5,-192.5 68.5,-222.5 436.5,-222.5 436.5,-192.5 68.5,-192.5"/>
<text text-anchor="start" x="75.5" y="-203.9" font-family="Arial" font-size="14.00" fill="#000000">authorizedon    </text>
<text text-anchor="start" x="190.6234" y="-203.9" font-family="Arial" font-size="14.00" fill="#666666">[date]</text>
<polygon fill="none" stroke="#000000" points="68.5,-162.5 68.5,-192.5 436.5,-192.5 436.5,-162.5 68.5,-162.5"/>
<text text-anchor="start" x="75.5" y="-173.9" font-family="Arial" font-size="14.00" fill="#000000">authorizedby    </text>
<text text-anchor="start" x="189.8408" y="-173.9" font-family="Arial" font-size="14.00" fill="#666666">[smallint]</text>
<polygon fill="none" stroke="#000000" points="68.5,-132.5 68.5,-162.5 436.5,-162.5 436.5,-132.5 68.5,-132.5"/>
<text text-anchor="start" x="75.5" y="-143.9" font-family="Arial" font-size="14.00" fill="#000000">isauthorized    </text>
<text text-anchor="start" x="185.1648" y="-143.9" font-family="Arial" font-size="14.00" fill="#666666">[boolean]</text>
<polygon fill="none" stroke="#000000" points="68.5,-102.5 68.5,-132.5 436.5,-132.5 436.5,-102.5 68.5,-102.5"/>
<text text-anchor="start" x="75.5" y="-113.9" font-family="Arial" font-size="14.00" fill="#000000">amendby    </text>
<text text-anchor="start" x="167.2784" y="-113.9" font-family="Arial" font-size="14.00" fill="#666666">[integer]</text>
<polygon fill="none" stroke="#000000" points="68.5,-72.5 68.5,-102.5 436.5,-102.5 436.5,-72.5 68.5,-72.5"/>
<text text-anchor="start" x="75.5" y="-83.9" font-family="Arial" font-size="14.00" fill="#000000">amendon    </text>
<text text-anchor="start" x="168.061" y="-83.9" font-family="Arial" font-size="14.00" fill="#666666">[timestamp without time zone]</text>
<polygon fill="none" stroke="#000000" points="68.5,-42.5 68.5,-72.5 436.5,-72.5 436.5,-42.5 68.5,-42.5"/>
<text text-anchor="start" x="75.5" y="-53.9" font-family="Arial" font-size="14.00" fill="#000000">amendreason    </text>
<text text-anchor="start" x="195.2868" y="-53.9" font-family="Arial" font-size="14.00" fill="#666666">[text]</text>
</g>
<!-- public.pur_profitabilitysettingdetail&#45;&gt;public.pur_profitabilitysetting -->
<g id="edge1" class="edge">
<title>public.pur_profitabilitysettingdetail:settingid&#45;&gt;public.pur_profitabilitysetting:settingid</title>
<path fill="none" stroke="#000000" d="M467.6588,-877.0391C575.3881,-866.9356 536.1254,-693.2378 457.5,-607 399.0101,-542.8472 126.9899,-635.1528 68.5,-571 40.5024,-540.2917 26.9444,-477.5 68.5,-477.5"/>
<polygon fill="#000000" stroke="#000000" points="467.4897,-877.0467 457.296,-873.0046 462.4949,-877.2734 457.5,-877.5 457.5,-877.5 457.5,-877.5 462.4949,-877.2734 457.704,-881.9954 467.4897,-877.0467 467.4897,-877.0467"/>
<text text-anchor="start" x="464.2665" y="-887.5" font-family="Arial" font-size="10.00" fill="#000000">FOREIGN KEY (settingid) REFERENCES pur_profitabilitysetting(settingid) ON UPDATE CASCADE ON DELETE RESTRICT</text>
</g>
</g>
</svg>
