<?xml version="1.0" encoding="UTF-8" standalone="no"?>
<!DOCTYPE svg PUBLIC "-//W3C//DTD SVG 1.1//EN"
 "http://www.w3.org/Graphics/SVG/1.1/DTD/svg11.dtd">
<!-- Generated by graphviz version 2.40.1 (20161225.0304)
 -->
<!-- Title: public.prod_bomalternativeitem Pages: 1 -->
<svg width="917pt" height="1942pt"
 viewBox="0.00 0.00 916.50 1942.00" xmlns="http://www.w3.org/2000/svg" xmlns:xlink="http://www.w3.org/1999/xlink">
<g id="graph0" class="graph" transform="scale(1 1) rotate(0) translate(4 1938)">
<title>public.prod_bomalternativeitem</title>
<polygon fill="#ffffff" stroke="transparent" points="-4,4 -4,-1938 912.5,-1938 912.5,4 -4,4"/>
<!-- public.prod_bomalternativeitem -->
<g id="node1" class="node">
<title>public.prod_bomalternativeitem</title>
<polygon fill="#efefef" stroke="transparent" points="472,-1852.5 472,-1887.5 863,-1887.5 863,-1852.5 472,-1852.5"/>
<polygon fill="none" stroke="#000000" points="472,-1852.5 472,-1887.5 863,-1887.5 863,-1852.5 472,-1852.5"/>
<text text-anchor="start" x="478.6952" y="-1865.3" font-family="Arial Bold" font-size="18.00" fill="#000000">public.prod_bomalternativeitem</text>
<text text-anchor="start" x="728.7368" y="-1865.3" font-family="Arial" font-size="14.00" fill="#000000">    </text>
<text text-anchor="start" x="762.9416" y="-1865.3" font-family="Arial" font-size="14.00" fill="#666666">[BASE TABLE]</text>
<polygon fill="none" stroke="#000000" points="472,-1822.5 472,-1852.5 863,-1852.5 863,-1822.5 472,-1822.5"/>
<text text-anchor="start" x="479" y="-1833.9" font-family="Arial" font-size="14.00" fill="#000000">bomalternativedetailid </text>
<text text-anchor="start" x="619.0252" y="-1833.9" font-family="Arial" font-size="14.00" fill="#666666">[integer]</text>
<polygon fill="none" stroke="#000000" points="472,-1792.5 472,-1822.5 863,-1822.5 863,-1792.5 472,-1792.5"/>
<text text-anchor="start" x="479" y="-1803.9" font-family="Arial" font-size="14.00" fill="#000000">itemid </text>
<text text-anchor="start" x="520.2202" y="-1803.9" font-family="Arial" font-size="14.00" fill="#666666">[integer]</text>
<polygon fill="none" stroke="#000000" points="472,-1762.5 472,-1792.5 863,-1792.5 863,-1762.5 472,-1762.5"/>
<text text-anchor="start" x="479" y="-1773.9" font-family="Arial" font-size="14.00" fill="#000000">bomdetailid </text>
<text text-anchor="start" x="554.4572" y="-1773.9" font-family="Arial" font-size="14.00" fill="#666666">[integer]</text>
<polygon fill="none" stroke="#000000" points="472,-1732.5 472,-1762.5 863,-1762.5 863,-1732.5 472,-1732.5"/>
<text text-anchor="start" x="479" y="-1743.9" font-family="Arial" font-size="14.00" fill="#000000">baseqty </text>
<text text-anchor="start" x="531.9116" y="-1743.9" font-family="Arial" font-size="14.00" fill="#666666">[numeric(15,5)]</text>
<polygon fill="none" stroke="#000000" points="472,-1702.5 472,-1732.5 863,-1732.5 863,-1702.5 472,-1702.5"/>
<text text-anchor="start" x="479" y="-1713.9" font-family="Arial" font-size="14.00" fill="#000000">priority </text>
<text text-anchor="start" x="524.8808" y="-1713.9" font-family="Arial" font-size="14.00" fill="#666666">[integer]</text>
<polygon fill="none" stroke="#000000" points="472,-1672.5 472,-1702.5 863,-1702.5 863,-1672.5 472,-1672.5"/>
<text text-anchor="start" x="479" y="-1683.9" font-family="Arial" font-size="14.00" fill="#000000">altqty </text>
<text text-anchor="start" x="516.3436" y="-1683.9" font-family="Arial" font-size="14.00" fill="#666666">[numeric(15,5)]</text>
<polygon fill="none" stroke="#000000" points="472,-1642.5 472,-1672.5 863,-1672.5 863,-1642.5 472,-1642.5"/>
<text text-anchor="start" x="479" y="-1653.9" font-family="Arial" font-size="14.00" fill="#000000">scrapitemid </text>
<text text-anchor="start" x="554.446" y="-1653.9" font-family="Arial" font-size="14.00" fill="#666666">[integer]</text>
<polygon fill="none" stroke="#000000" points="472,-1612.5 472,-1642.5 863,-1642.5 863,-1612.5 472,-1612.5"/>
<text text-anchor="start" x="479" y="-1623.9" font-family="Arial" font-size="14.00" fill="#000000">scrappercentage </text>
<text text-anchor="start" x="587.1458" y="-1623.9" font-family="Arial" font-size="14.00" fill="#666666">[numeric(5,2)]</text>
<polygon fill="none" stroke="#000000" points="472,-1582.5 472,-1612.5 863,-1612.5 863,-1582.5 472,-1582.5"/>
<text text-anchor="start" x="479" y="-1593.9" font-family="Arial" font-size="14.00" fill="#000000">scrapbaseqty </text>
<text text-anchor="start" x="566.1374" y="-1593.9" font-family="Arial" font-size="14.00" fill="#666666">[numeric(15,5)]</text>
<polygon fill="none" stroke="#000000" points="472,-1552.5 472,-1582.5 863,-1582.5 863,-1552.5 472,-1552.5"/>
<text text-anchor="start" x="479" y="-1563.9" font-family="Arial" font-size="14.00" fill="#000000">scrapaltqty </text>
<text text-anchor="start" x="550.5694" y="-1563.9" font-family="Arial" font-size="14.00" fill="#666666">[numeric(15,5)]</text>
<polygon fill="none" stroke="#000000" points="472,-1522.5 472,-1552.5 863,-1552.5 863,-1522.5 472,-1522.5"/>
<text text-anchor="start" x="479" y="-1533.9" font-family="Arial" font-size="14.00" fill="#000000">toleranceplus </text>
<text text-anchor="start" x="566.1332" y="-1533.9" font-family="Arial" font-size="14.00" fill="#666666">[numeric(5,2)]</text>
<polygon fill="none" stroke="#000000" points="472,-1492.5 472,-1522.5 863,-1522.5 863,-1492.5 472,-1492.5"/>
<text text-anchor="start" x="479" y="-1503.9" font-family="Arial" font-size="14.00" fill="#000000">toleranceminus </text>
<text text-anchor="start" x="577.7938" y="-1503.9" font-family="Arial" font-size="14.00" fill="#666666">[numeric(5,2)]</text>
<polygon fill="none" stroke="#000000" points="472,-1462.5 472,-1492.5 863,-1492.5 863,-1462.5 472,-1462.5"/>
<text text-anchor="start" x="479" y="-1473.9" font-family="Arial" font-size="14.00" fill="#000000">itembomid </text>
<text text-anchor="start" x="547.446" y="-1473.9" font-family="Arial" font-size="14.00" fill="#666666">[integer]</text>
<polygon fill="none" stroke="#000000" points="472,-1432.5 472,-1462.5 863,-1462.5 863,-1432.5 472,-1432.5"/>
<text text-anchor="start" x="479" y="-1443.9" font-family="Arial" font-size="14.00" fill="#000000">burninglosspercentage </text>
<text text-anchor="start" x="624.4894" y="-1443.9" font-family="Arial" font-size="14.00" fill="#666666">[numeric(5,2)]</text>
<polygon fill="none" stroke="#000000" points="472,-1402.5 472,-1432.5 863,-1432.5 863,-1402.5 472,-1402.5"/>
<text text-anchor="start" x="479" y="-1413.9" font-family="Arial" font-size="14.00" fill="#000000">burninglossbaseqty </text>
<text text-anchor="start" x="603.481" y="-1413.9" font-family="Arial" font-size="14.00" fill="#666666">[numeric(15,5)]</text>
<polygon fill="none" stroke="#000000" points="472,-1372.5 472,-1402.5 863,-1402.5 863,-1372.5 472,-1372.5"/>
<text text-anchor="start" x="479" y="-1383.9" font-family="Arial" font-size="14.00" fill="#000000">burninglossaltqty </text>
<text text-anchor="start" x="587.913" y="-1383.9" font-family="Arial" font-size="14.00" fill="#666666">[numeric(15,5)]</text>
<polygon fill="none" stroke="#000000" points="472,-1342.5 472,-1372.5 863,-1372.5 863,-1342.5 472,-1342.5"/>
<text text-anchor="start" x="479" y="-1353.9" font-family="Arial" font-size="14.00" fill="#000000">calculationbasedonaltunit </text>
<text text-anchor="start" x="640.0518" y="-1353.9" font-family="Arial" font-size="14.00" fill="#666666">[smallint]</text>
<polygon fill="none" stroke="#000000" points="472,-1312.5 472,-1342.5 863,-1342.5 863,-1312.5 472,-1312.5"/>
<text text-anchor="start" x="479" y="-1323.9" font-family="Arial" font-size="14.00" fill="#000000">isusedinbsgeneration </text>
<text text-anchor="start" x="615.1528" y="-1323.9" font-family="Arial" font-size="14.00" fill="#666666">[boolean]</text>
<polygon fill="none" stroke="#000000" points="472,-1282.5 472,-1312.5 863,-1312.5 863,-1282.5 472,-1282.5"/>
<text text-anchor="start" x="479" y="-1293.9" font-family="Arial" font-size="14.00" fill="#000000">labelclaim </text>
<text text-anchor="start" x="545.108" y="-1293.9" font-family="Arial" font-size="14.00" fill="#666666">[numeric(10,2)]</text>
<polygon fill="none" stroke="#000000" points="472,-1252.5 472,-1282.5 863,-1282.5 863,-1252.5 472,-1252.5"/>
<text text-anchor="start" x="479" y="-1263.9" font-family="Arial" font-size="14.00" fill="#000000">overage </text>
<text text-anchor="start" x="533.4642" y="-1263.9" font-family="Arial" font-size="14.00" fill="#666666">[numeric(10,2)]</text>
<polygon fill="none" stroke="#000000" points="472,-1222.5 472,-1252.5 863,-1252.5 863,-1222.5 472,-1222.5"/>
<text text-anchor="start" x="479" y="-1233.9" font-family="Arial" font-size="14.00" fill="#000000">composition </text>
<text text-anchor="start" x="557.568" y="-1233.9" font-family="Arial" font-size="14.00" fill="#666666">[boolean]</text>
<polygon fill="none" stroke="#000000" points="472,-1192.5 472,-1222.5 863,-1222.5 863,-1192.5 472,-1192.5"/>
<text text-anchor="start" x="479" y="-1203.9" font-family="Arial" font-size="14.00" fill="#000000">factor </text>
<text text-anchor="start" x="517.8976" y="-1203.9" font-family="Arial" font-size="14.00" fill="#666666">[numeric(10,5)]</text>
<polygon fill="none" stroke="#000000" points="472,-1162.5 472,-1192.5 863,-1192.5 863,-1162.5 472,-1162.5"/>
<text text-anchor="start" x="479" y="-1173.9" font-family="Arial" font-size="14.00" fill="#000000">labelclaimuom </text>
<text text-anchor="start" x="572.3338" y="-1173.9" font-family="Arial" font-size="14.00" fill="#666666">[integer]</text>
<polygon fill="none" stroke="#000000" points="472,-1132.5 472,-1162.5 863,-1162.5 863,-1132.5 472,-1132.5"/>
<text text-anchor="start" x="479" y="-1143.9" font-family="Arial" font-size="14.00" fill="#000000">description </text>
<text text-anchor="start" x="550.568" y="-1143.9" font-family="Arial" font-size="14.00" fill="#666666">[varchar(500)]</text>
<polygon fill="none" stroke="#000000" stroke-width="3" points="470,-1131.5 470,-1889.5 864,-1889.5 864,-1131.5 470,-1131.5"/>
</g>
<!-- public.prod_bomitemdetail -->
<g id="node2" class="node">
<title>public.prod_bomitemdetail</title>
<polygon fill="#efefef" stroke="transparent" points="492,-972.5 492,-1007.5 843,-1007.5 843,-972.5 492,-972.5"/>
<polygon fill="none" stroke="#000000" points="492,-972.5 492,-1007.5 843,-1007.5 843,-972.5 492,-972.5"/>
<text text-anchor="start" x="498.6986" y="-985.3" font-family="Arial Bold" font-size="18.00" fill="#000000">public.prod_bomitemdetail</text>
<text text-anchor="start" x="708.7334" y="-985.3" font-family="Arial" font-size="14.00" fill="#000000">    </text>
<text text-anchor="start" x="742.9382" y="-985.3" font-family="Arial" font-size="14.00" fill="#666666">[BASE TABLE]</text>
<polygon fill="none" stroke="#000000" points="492,-942.5 492,-972.5 843,-972.5 843,-942.5 492,-942.5"/>
<text text-anchor="start" x="499" y="-953.9" font-family="Arial" font-size="14.00" fill="#000000">bomdetailid    </text>
<text text-anchor="start" x="604.7714" y="-953.9" font-family="Arial" font-size="14.00" fill="#666666">[integer]</text>
<polygon fill="none" stroke="#000000" points="492,-912.5 492,-942.5 843,-942.5 843,-912.5 492,-912.5"/>
<text text-anchor="start" x="499" y="-923.9" font-family="Arial" font-size="14.00" fill="#000000">bomid    </text>
<text text-anchor="start" x="571.3198" y="-923.9" font-family="Arial" font-size="14.00" fill="#666666">[integer]</text>
<polygon fill="none" stroke="#000000" points="492,-882.5 492,-912.5 843,-912.5 843,-882.5 492,-882.5"/>
<text text-anchor="start" x="499" y="-893.9" font-family="Arial" font-size="14.00" fill="#000000">itemid    </text>
<text text-anchor="start" x="570.5344" y="-893.9" font-family="Arial" font-size="14.00" fill="#666666">[integer]</text>
<polygon fill="none" stroke="#000000" points="492,-852.5 492,-882.5 843,-882.5 843,-852.5 492,-852.5"/>
<text text-anchor="start" x="499" y="-863.9" font-family="Arial" font-size="14.00" fill="#000000">baseqty    </text>
<text text-anchor="start" x="582.2258" y="-863.9" font-family="Arial" font-size="14.00" fill="#666666">[numeric(15,5)]</text>
<polygon fill="none" stroke="#000000" points="492,-822.5 492,-852.5 843,-852.5 843,-822.5 492,-822.5"/>
<text text-anchor="start" x="499" y="-833.9" font-family="Arial" font-size="14.00" fill="#000000">altqty    </text>
<text text-anchor="start" x="566.6578" y="-833.9" font-family="Arial" font-size="14.00" fill="#666666">[numeric(15,5)]</text>
<polygon fill="none" stroke="#000000" points="492,-792.5 492,-822.5 843,-822.5 843,-792.5 492,-792.5"/>
<text text-anchor="start" x="499" y="-803.9" font-family="Arial" font-size="14.00" fill="#000000">toleranceplus    </text>
<text text-anchor="start" x="616.4474" y="-803.9" font-family="Arial" font-size="14.00" fill="#666666">[numeric(10,2)]</text>
<polygon fill="none" stroke="#000000" points="492,-762.5 492,-792.5 843,-792.5 843,-762.5 492,-762.5"/>
<text text-anchor="start" x="499" y="-773.9" font-family="Arial" font-size="14.00" fill="#000000">toleranceminus    </text>
<text text-anchor="start" x="628.108" y="-773.9" font-family="Arial" font-size="14.00" fill="#666666">[numeric(10,2)]</text>
<polygon fill="none" stroke="#000000" points="492,-732.5 492,-762.5 843,-762.5 843,-732.5 492,-732.5"/>
<text text-anchor="start" x="499" y="-743.9" font-family="Arial" font-size="14.00" fill="#000000">itembomid    </text>
<text text-anchor="start" x="597.7602" y="-743.9" font-family="Arial" font-size="14.00" fill="#666666">[integer]</text>
<polygon fill="none" stroke="#000000" points="492,-702.5 492,-732.5 843,-732.5 843,-702.5 492,-702.5"/>
<text text-anchor="start" x="499" y="-713.9" font-family="Arial" font-size="14.00" fill="#000000">scrapitemid    </text>
<text text-anchor="start" x="604.7602" y="-713.9" font-family="Arial" font-size="14.00" fill="#666666">[integer]</text>
<polygon fill="none" stroke="#000000" points="492,-672.5 492,-702.5 843,-702.5 843,-672.5 492,-672.5"/>
<text text-anchor="start" x="499" y="-683.9" font-family="Arial" font-size="14.00" fill="#000000">scrappercentage    </text>
<text text-anchor="start" x="637.46" y="-683.9" font-family="Arial" font-size="14.00" fill="#666666">[numeric(5,2)]</text>
<polygon fill="none" stroke="#000000" points="492,-642.5 492,-672.5 843,-672.5 843,-642.5 492,-642.5"/>
<text text-anchor="start" x="499" y="-653.9" font-family="Arial" font-size="14.00" fill="#000000">scrapbaseqty    </text>
<text text-anchor="start" x="616.4516" y="-653.9" font-family="Arial" font-size="14.00" fill="#666666">[numeric(15,5)]</text>
<polygon fill="none" stroke="#000000" points="492,-612.5 492,-642.5 843,-642.5 843,-612.5 492,-612.5"/>
<text text-anchor="start" x="499" y="-623.9" font-family="Arial" font-size="14.00" fill="#000000">scrapaltqty    </text>
<text text-anchor="start" x="600.8836" y="-623.9" font-family="Arial" font-size="14.00" fill="#666666">[numeric(15,5)]</text>
<polygon fill="none" stroke="#000000" points="492,-582.5 492,-612.5 843,-612.5 843,-582.5 492,-582.5"/>
<text text-anchor="start" x="499" y="-593.9" font-family="Arial" font-size="14.00" fill="#000000">burninglosspercentage    </text>
<text text-anchor="start" x="674.8036" y="-593.9" font-family="Arial" font-size="14.00" fill="#666666">[numeric(5,2)]</text>
<polygon fill="none" stroke="#000000" points="492,-552.5 492,-582.5 843,-582.5 843,-552.5 492,-552.5"/>
<text text-anchor="start" x="499" y="-563.9" font-family="Arial" font-size="14.00" fill="#000000">burninglossaltqty    </text>
<text text-anchor="start" x="638.2272" y="-563.9" font-family="Arial" font-size="14.00" fill="#666666">[numeric(15,5)]</text>
<polygon fill="none" stroke="#000000" points="492,-522.5 492,-552.5 843,-552.5 843,-522.5 492,-522.5"/>
<text text-anchor="start" x="499" y="-533.9" font-family="Arial" font-size="14.00" fill="#000000">burninglossbaseqty    </text>
<text text-anchor="start" x="653.7952" y="-533.9" font-family="Arial" font-size="14.00" fill="#666666">[numeric(15,5)]</text>
<polygon fill="none" stroke="#000000" points="492,-492.5 492,-522.5 843,-522.5 843,-492.5 492,-492.5"/>
<text text-anchor="start" x="499" y="-503.9" font-family="Arial" font-size="14.00" fill="#000000">calculationbasedonaltunit    </text>
<text text-anchor="start" x="690.366" y="-503.9" font-family="Arial" font-size="14.00" fill="#666666">[smallint]</text>
<polygon fill="none" stroke="#000000" points="492,-462.5 492,-492.5 843,-492.5 843,-462.5 492,-462.5"/>
<text text-anchor="start" x="499" y="-473.9" font-family="Arial" font-size="14.00" fill="#000000">isusedinbsgeneration    </text>
<text text-anchor="start" x="665.467" y="-473.9" font-family="Arial" font-size="14.00" fill="#666666">[boolean]</text>
<polygon fill="none" stroke="#000000" points="492,-432.5 492,-462.5 843,-462.5 843,-432.5 492,-432.5"/>
<text text-anchor="start" x="499" y="-443.9" font-family="Arial" font-size="14.00" fill="#000000">grossqty    </text>
<text text-anchor="start" x="586.1038" y="-443.9" font-family="Arial" font-size="14.00" fill="#666666">[numeric(15,5)]</text>
<polygon fill="none" stroke="#000000" points="492,-402.5 492,-432.5 843,-432.5 843,-402.5 492,-402.5"/>
<text text-anchor="start" x="499" y="-413.9" font-family="Arial" font-size="14.00" fill="#000000">grossaltqty    </text>
<text text-anchor="start" x="600.8836" y="-413.9" font-family="Arial" font-size="14.00" fill="#666666">[numeric(15,5)]</text>
<polygon fill="none" stroke="#000000" points="492,-372.5 492,-402.5 843,-402.5 843,-372.5 492,-372.5"/>
<text text-anchor="start" x="499" y="-383.9" font-family="Arial" font-size="14.00" fill="#000000">labelclaim    </text>
<text text-anchor="start" x="595.4222" y="-383.9" font-family="Arial" font-size="14.00" fill="#666666">[numeric(10,2)]</text>
<polygon fill="none" stroke="#000000" points="492,-342.5 492,-372.5 843,-372.5 843,-342.5 492,-342.5"/>
<text text-anchor="start" x="499" y="-353.9" font-family="Arial" font-size="14.00" fill="#000000">overage    </text>
<text text-anchor="start" x="583.7784" y="-353.9" font-family="Arial" font-size="14.00" fill="#666666">[numeric(10,2)]</text>
<polygon fill="none" stroke="#000000" points="492,-312.5 492,-342.5 843,-342.5 843,-312.5 492,-312.5"/>
<text text-anchor="start" x="499" y="-323.9" font-family="Arial" font-size="14.00" fill="#000000">composition    </text>
<text text-anchor="start" x="607.8822" y="-323.9" font-family="Arial" font-size="14.00" fill="#666666">[boolean]</text>
<polygon fill="none" stroke="#000000" points="492,-282.5 492,-312.5 843,-312.5 843,-282.5 492,-282.5"/>
<text text-anchor="start" x="499" y="-293.9" font-family="Arial" font-size="14.00" fill="#000000">factor    </text>
<text text-anchor="start" x="568.2118" y="-293.9" font-family="Arial" font-size="14.00" fill="#666666">[numeric(10,5)]</text>
<polygon fill="none" stroke="#000000" points="492,-252.5 492,-282.5 843,-282.5 843,-252.5 492,-252.5"/>
<text text-anchor="start" x="499" y="-263.9" font-family="Arial" font-size="14.00" fill="#000000">labelclaimuom    </text>
<text text-anchor="start" x="622.648" y="-263.9" font-family="Arial" font-size="14.00" fill="#666666">[integer]</text>
<polygon fill="none" stroke="#000000" points="492,-222.5 492,-252.5 843,-252.5 843,-222.5 492,-222.5"/>
<text text-anchor="start" x="499" y="-233.9" font-family="Arial" font-size="14.00" fill="#000000">bomactualqty    </text>
<text text-anchor="start" x="616.4488" y="-233.9" font-family="Arial" font-size="14.00" fill="#666666">[numeric(17,5)]</text>
<polygon fill="none" stroke="#000000" points="492,-192.5 492,-222.5 843,-222.5 843,-192.5 492,-192.5"/>
<text text-anchor="start" x="499" y="-203.9" font-family="Arial" font-size="14.00" fill="#000000">claimincontent    </text>
<text text-anchor="start" x="622.662" y="-203.9" font-family="Arial" font-size="14.00" fill="#666666">[numeric(10,2)]</text>
<polygon fill="none" stroke="#000000" points="492,-162.5 492,-192.5 843,-192.5 843,-162.5 492,-162.5"/>
<text text-anchor="start" x="499" y="-173.9" font-family="Arial" font-size="14.00" fill="#000000">claimincontentuom    </text>
<text text-anchor="start" x="649.8878" y="-173.9" font-family="Arial" font-size="14.00" fill="#666666">[integer]</text>
<polygon fill="none" stroke="#000000" points="492,-132.5 492,-162.5 843,-162.5 843,-132.5 492,-132.5"/>
<text text-anchor="start" x="499" y="-143.9" font-family="Arial" font-size="14.00" fill="#000000">calculationformula    </text>
<text text-anchor="start" x="645.9944" y="-143.9" font-family="Arial" font-size="14.00" fill="#666666">[text]</text>
<polygon fill="none" stroke="#000000" points="492,-102.5 492,-132.5 843,-132.5 843,-102.5 492,-102.5"/>
<text text-anchor="start" x="499" y="-113.9" font-family="Arial" font-size="14.00" fill="#000000">rejbaseqty    </text>
<text text-anchor="start" x="597.7756" y="-113.9" font-family="Arial" font-size="14.00" fill="#666666">[numeric(15,5)]</text>
<polygon fill="none" stroke="#000000" points="492,-72.5 492,-102.5 843,-102.5 843,-72.5 492,-72.5"/>
<text text-anchor="start" x="499" y="-83.9" font-family="Arial" font-size="14.00" fill="#000000">rejaltqty    </text>
<text text-anchor="start" x="582.2076" y="-83.9" font-family="Arial" font-size="14.00" fill="#666666">[numeric(15,5)]</text>
<polygon fill="none" stroke="#000000" points="492,-42.5 492,-72.5 843,-72.5 843,-42.5 492,-42.5"/>
<text text-anchor="start" x="499" y="-53.9" font-family="Arial" font-size="14.00" fill="#000000">description    </text>
<text text-anchor="start" x="600.8822" y="-53.9" font-family="Arial" font-size="14.00" fill="#666666">[varchar(500)]</text>
</g>
<!-- public.prod_bomalternativeitem&#45;&gt;public.prod_bomitemdetail -->
<g id="edge1" class="edge">
<title>public.prod_bomalternativeitem:bomdetailid&#45;&gt;public.prod_bomitemdetail:bomdetailid</title>
<path fill="none" stroke="#000000" d="M462.3109,-1774.1961C382.4441,-1717.7699 404.2439,-957.5 492,-957.5"/>
<polygon fill="#000000" stroke="#000000" points="462.5351,-1774.2725 470.5476,-1781.7592 467.2676,-1775.8863 472,-1777.5 472,-1777.5 472,-1777.5 467.2676,-1775.8863 473.4524,-1773.2408 462.5351,-1774.2725 462.5351,-1774.2725"/>
<text text-anchor="start" x="6.543" y="-1787.5" font-family="Arial" font-size="10.00" fill="#000000">FOREIGN KEY (bomdetailid) REFERENCES prod_bomitemdetail(bomdetailid) ON DELETE CASCADE</text>
</g>
</g>
</svg>
