<?xml version="1.0" encoding="UTF-8" standalone="no"?>
<!DOCTYPE svg PUBLIC "-//W3C//DTD SVG 1.1//EN"
 "http://www.w3.org/Graphics/SVG/1.1/DTD/svg11.dtd">
<!-- Generated by graphviz version 2.40.1 (20161225.0304)
 -->
<!-- Title: public.bargaindocumentdetail Pages: 1 -->
<svg width="794pt" height="1162pt"
 viewBox="0.00 0.00 793.50 1162.00" xmlns="http://www.w3.org/2000/svg" xmlns:xlink="http://www.w3.org/1999/xlink">
<g id="graph0" class="graph" transform="scale(1 1) rotate(0) translate(4 1158)">
<title>public.bargaindocumentdetail</title>
<polygon fill="#ffffff" stroke="transparent" points="-4,4 -4,-1158 789.5,-1158 789.5,4 -4,4"/>
<!-- public.bargaindocumentdetail -->
<g id="node1" class="node">
<title>public.bargaindocumentdetail</title>
<polygon fill="#efefef" stroke="transparent" points="46.5,-1072.5 46.5,-1107.5 421.5,-1107.5 421.5,-1072.5 46.5,-1072.5"/>
<polygon fill="none" stroke="#000000" points="46.5,-1072.5 46.5,-1107.5 421.5,-1107.5 421.5,-1072.5 46.5,-1072.5"/>
<text text-anchor="start" x="53.1854" y="-1085.3" font-family="Arial Bold" font-size="18.00" fill="#000000">public.bargaindocumentdetail</text>
<text text-anchor="start" x="287.2466" y="-1085.3" font-family="Arial" font-size="14.00" fill="#000000">    </text>
<text text-anchor="start" x="321.4514" y="-1085.3" font-family="Arial" font-size="14.00" fill="#666666">[BASE TABLE]</text>
<polygon fill="none" stroke="#000000" points="46.5,-1042.5 46.5,-1072.5 421.5,-1072.5 421.5,-1042.5 46.5,-1042.5"/>
<text text-anchor="start" x="53.5" y="-1053.9" font-family="Arial" font-size="14.00" fill="#000000">bargaindocdetailid </text>
<text text-anchor="start" x="170.9768" y="-1053.9" font-family="Arial" font-size="14.00" fill="#666666">[integer]</text>
<polygon fill="none" stroke="#000000" points="46.5,-1012.5 46.5,-1042.5 421.5,-1042.5 421.5,-1012.5 46.5,-1012.5"/>
<text text-anchor="start" x="53.5" y="-1023.9" font-family="Arial" font-size="14.00" fill="#000000">bargaindocid </text>
<text text-anchor="start" x="137.5252" y="-1023.9" font-family="Arial" font-size="14.00" fill="#666666">[integer]</text>
<polygon fill="none" stroke="#000000" points="46.5,-982.5 46.5,-1012.5 421.5,-1012.5 421.5,-982.5 46.5,-982.5"/>
<text text-anchor="start" x="53.5" y="-993.9" font-family="Arial" font-size="14.00" fill="#000000">productgroupattributeid </text>
<text text-anchor="start" x="201.3218" y="-993.9" font-family="Arial" font-size="14.00" fill="#666666">[integer]</text>
<polygon fill="none" stroke="#000000" points="46.5,-952.5 46.5,-982.5 421.5,-982.5 421.5,-952.5 46.5,-952.5"/>
<text text-anchor="start" x="53.5" y="-963.9" font-family="Arial" font-size="14.00" fill="#000000">bpcpattributeid </text>
<text text-anchor="start" x="149.197" y="-963.9" font-family="Arial" font-size="14.00" fill="#666666">[integer]</text>
<polygon fill="none" stroke="#000000" points="46.5,-922.5 46.5,-952.5 421.5,-952.5 421.5,-922.5 46.5,-922.5"/>
<text text-anchor="start" x="53.5" y="-933.9" font-family="Arial" font-size="14.00" fill="#000000">qty </text>
<text text-anchor="start" x="76.0638" y="-933.9" font-family="Arial" font-size="14.00" fill="#666666">[numeric(12,2)]</text>
<polygon fill="none" stroke="#000000" points="46.5,-892.5 46.5,-922.5 421.5,-922.5 421.5,-892.5 46.5,-892.5"/>
<text text-anchor="start" x="53.5" y="-903.9" font-family="Arial" font-size="14.00" fill="#000000">branchid </text>
<text text-anchor="start" x="111.0708" y="-903.9" font-family="Arial" font-size="14.00" fill="#666666">[integer]</text>
<polygon fill="none" stroke="#000000" stroke-width="3" points="44.5,-891.5 44.5,-1109.5 422.5,-1109.5 422.5,-891.5 44.5,-891.5"/>
</g>
<!-- public.bargaindocument -->
<g id="node2" class="node">
<title>public.bargaindocument</title>
<polygon fill="#efefef" stroke="transparent" points="68.5,-732.5 68.5,-767.5 400.5,-767.5 400.5,-732.5 68.5,-732.5"/>
<polygon fill="none" stroke="#000000" points="68.5,-732.5 68.5,-767.5 400.5,-767.5 400.5,-732.5 68.5,-732.5"/>
<text text-anchor="start" x="75.19" y="-745.3" font-family="Arial Bold" font-size="18.00" fill="#000000">public.bargaindocument</text>
<text text-anchor="start" x="266.242" y="-745.3" font-family="Arial" font-size="14.00" fill="#000000">    </text>
<text text-anchor="start" x="300.4468" y="-745.3" font-family="Arial" font-size="14.00" fill="#666666">[BASE TABLE]</text>
<polygon fill="none" stroke="#000000" points="68.5,-702.5 68.5,-732.5 400.5,-732.5 400.5,-702.5 68.5,-702.5"/>
<text text-anchor="start" x="75.5" y="-713.9" font-family="Arial" font-size="14.00" fill="#000000">bargaindocid    </text>
<text text-anchor="start" x="189.8394" y="-713.9" font-family="Arial" font-size="14.00" fill="#666666">[integer]</text>
<polygon fill="none" stroke="#000000" points="68.5,-672.5 68.5,-702.5 400.5,-702.5 400.5,-672.5 68.5,-672.5"/>
<text text-anchor="start" x="75.5" y="-683.9" font-family="Arial" font-size="14.00" fill="#000000">bargaindocno    </text>
<text text-anchor="start" x="194.5154" y="-683.9" font-family="Arial" font-size="14.00" fill="#666666">[varchar(50)]</text>
<polygon fill="none" stroke="#000000" points="68.5,-642.5 68.5,-672.5 400.5,-672.5 400.5,-642.5 68.5,-642.5"/>
<text text-anchor="start" x="75.5" y="-653.9" font-family="Arial" font-size="14.00" fill="#000000">datetime    </text>
<text text-anchor="start" x="163.3836" y="-653.9" font-family="Arial" font-size="14.00" fill="#666666">[timestamp(6) without time zone]</text>
<polygon fill="none" stroke="#000000" points="68.5,-612.5 68.5,-642.5 400.5,-642.5 400.5,-612.5 68.5,-612.5"/>
<text text-anchor="start" x="75.5" y="-623.9" font-family="Arial" font-size="14.00" fill="#000000">branchid    </text>
<text text-anchor="start" x="163.385" y="-623.9" font-family="Arial" font-size="14.00" fill="#666666">[integer]</text>
<polygon fill="none" stroke="#000000" points="68.5,-582.5 68.5,-612.5 400.5,-612.5 400.5,-582.5 68.5,-582.5"/>
<text text-anchor="start" x="75.5" y="-593.9" font-family="Arial" font-size="14.00" fill="#000000">partyid    </text>
<text text-anchor="start" x="151.7104" y="-593.9" font-family="Arial" font-size="14.00" fill="#666666">[integer]</text>
<polygon fill="none" stroke="#000000" points="68.5,-552.5 68.5,-582.5 400.5,-582.5 400.5,-552.5 68.5,-552.5"/>
<text text-anchor="start" x="75.5" y="-563.9" font-family="Arial" font-size="14.00" fill="#000000">isauthorized    </text>
<text text-anchor="start" x="185.1648" y="-563.9" font-family="Arial" font-size="14.00" fill="#666666">[boolean]</text>
<polygon fill="none" stroke="#000000" points="68.5,-522.5 68.5,-552.5 400.5,-552.5 400.5,-522.5 68.5,-522.5"/>
<text text-anchor="start" x="75.5" y="-533.9" font-family="Arial" font-size="14.00" fill="#000000">authorizedon    </text>
<text text-anchor="start" x="190.6234" y="-533.9" font-family="Arial" font-size="14.00" fill="#666666">[timestamp(6) without time zone]</text>
<polygon fill="none" stroke="#000000" points="68.5,-492.5 68.5,-522.5 400.5,-522.5 400.5,-492.5 68.5,-492.5"/>
<text text-anchor="start" x="75.5" y="-503.9" font-family="Arial" font-size="14.00" fill="#000000">authorizedby    </text>
<text text-anchor="start" x="189.8408" y="-503.9" font-family="Arial" font-size="14.00" fill="#666666">[integer]</text>
<polygon fill="none" stroke="#000000" points="68.5,-462.5 68.5,-492.5 400.5,-492.5 400.5,-462.5 68.5,-462.5"/>
<text text-anchor="start" x="75.5" y="-473.9" font-family="Arial" font-size="14.00" fill="#000000">seriesid    </text>
<text text-anchor="start" x="157.9264" y="-473.9" font-family="Arial" font-size="14.00" fill="#666666">[integer]</text>
<polygon fill="none" stroke="#000000" points="68.5,-432.5 68.5,-462.5 400.5,-462.5 400.5,-432.5 68.5,-432.5"/>
<text text-anchor="start" x="75.5" y="-443.9" font-family="Arial" font-size="14.00" fill="#000000">editlog    </text>
<text text-anchor="start" x="150.939" y="-443.9" font-family="Arial" font-size="14.00" fill="#666666">[text]</text>
<polygon fill="none" stroke="#000000" points="68.5,-402.5 68.5,-432.5 400.5,-432.5 400.5,-402.5 68.5,-402.5"/>
<text text-anchor="start" x="75.5" y="-413.9" font-family="Arial" font-size="14.00" fill="#000000">createdby    </text>
<text text-anchor="start" x="171.169" y="-413.9" font-family="Arial" font-size="14.00" fill="#666666">[integer]</text>
<polygon fill="none" stroke="#000000" points="68.5,-372.5 68.5,-402.5 400.5,-402.5 400.5,-372.5 68.5,-372.5"/>
<text text-anchor="start" x="75.5" y="-383.9" font-family="Arial" font-size="14.00" fill="#000000">createdon    </text>
<text text-anchor="start" x="171.9516" y="-383.9" font-family="Arial" font-size="14.00" fill="#666666">[timestamp(6) without time zone]</text>
<polygon fill="none" stroke="#000000" points="68.5,-342.5 68.5,-372.5 400.5,-372.5 400.5,-342.5 68.5,-342.5"/>
<text text-anchor="start" x="75.5" y="-353.9" font-family="Arial" font-size="14.00" fill="#000000">mindate    </text>
<text text-anchor="start" x="159.493" y="-353.9" font-family="Arial" font-size="14.00" fill="#666666">[timestamp(6) without time zone]</text>
<polygon fill="none" stroke="#000000" points="68.5,-312.5 68.5,-342.5 400.5,-342.5 400.5,-312.5 68.5,-312.5"/>
<text text-anchor="start" x="75.5" y="-323.9" font-family="Arial" font-size="14.00" fill="#000000">seriescode    </text>
<text text-anchor="start" x="177.385" y="-323.9" font-family="Arial" font-size="14.00" fill="#666666">[varchar(50)]</text>
<polygon fill="none" stroke="#000000" points="68.5,-282.5 68.5,-312.5 400.5,-312.5 400.5,-282.5 68.5,-282.5"/>
<text text-anchor="start" x="75.5" y="-293.9" font-family="Arial" font-size="14.00" fill="#000000">seriesno    </text>
<text text-anchor="start" x="162.6024" y="-293.9" font-family="Arial" font-size="14.00" fill="#666666">[integer]</text>
<polygon fill="none" stroke="#000000" points="68.5,-252.5 68.5,-282.5 400.5,-282.5 400.5,-252.5 68.5,-252.5"/>
<text text-anchor="start" x="75.5" y="-263.9" font-family="Arial" font-size="14.00" fill="#000000">iscancelled    </text>
<text text-anchor="start" x="178.9376" y="-263.9" font-family="Arial" font-size="14.00" fill="#666666">[boolean]</text>
<polygon fill="none" stroke="#000000" points="68.5,-222.5 68.5,-252.5 400.5,-252.5 400.5,-222.5 68.5,-222.5"/>
<text text-anchor="start" x="75.5" y="-233.9" font-family="Arial" font-size="14.00" fill="#000000">cancellationreason    </text>
<text text-anchor="start" x="226.4018" y="-233.9" font-family="Arial" font-size="14.00" fill="#666666">[text]</text>
<polygon fill="none" stroke="#000000" points="68.5,-192.5 68.5,-222.5 400.5,-222.5 400.5,-192.5 68.5,-192.5"/>
<text text-anchor="start" x="75.5" y="-203.9" font-family="Arial" font-size="14.00" fill="#000000">cancelledby    </text>
<text text-anchor="start" x="183.6136" y="-203.9" font-family="Arial" font-size="14.00" fill="#666666">[integer]</text>
<polygon fill="none" stroke="#000000" points="68.5,-162.5 68.5,-192.5 400.5,-192.5 400.5,-162.5 68.5,-162.5"/>
<text text-anchor="start" x="75.5" y="-173.9" font-family="Arial" font-size="14.00" fill="#000000">cancellationdate    </text>
<text text-anchor="start" x="210.8492" y="-173.9" font-family="Arial" font-size="14.00" fill="#666666">[date]</text>
<polygon fill="none" stroke="#000000" points="68.5,-132.5 68.5,-162.5 400.5,-162.5 400.5,-132.5 68.5,-132.5"/>
<text text-anchor="start" x="75.5" y="-143.9" font-family="Arial" font-size="14.00" fill="#000000">remarks    </text>
<text text-anchor="start" x="160.2518" y="-143.9" font-family="Arial" font-size="14.00" fill="#666666">[varchar(250)]</text>
<polygon fill="none" stroke="#000000" points="68.5,-102.5 68.5,-132.5 400.5,-132.5 400.5,-102.5 68.5,-102.5"/>
<text text-anchor="start" x="75.5" y="-113.9" font-family="Arial" font-size="14.00" fill="#000000">seriesvouchertype    </text>
<text text-anchor="start" x="223.284" y="-113.9" font-family="Arial" font-size="14.00" fill="#666666">[integer]</text>
<polygon fill="none" stroke="#000000" points="68.5,-72.5 68.5,-102.5 400.5,-102.5 400.5,-72.5 68.5,-72.5"/>
<text text-anchor="start" x="75.5" y="-83.9" font-family="Arial" font-size="14.00" fill="#000000">updatedby    </text>
<text text-anchor="start" x="175.0736" y="-83.9" font-family="Arial" font-size="14.00" fill="#666666">[integer]</text>
<polygon fill="none" stroke="#000000" points="68.5,-42.5 68.5,-72.5 400.5,-72.5 400.5,-42.5 68.5,-42.5"/>
<text text-anchor="start" x="75.5" y="-53.9" font-family="Arial" font-size="14.00" fill="#000000">updatedon    </text>
<text text-anchor="start" x="175.8562" y="-53.9" font-family="Arial" font-size="14.00" fill="#666666">[timestamp(6) without time zone]</text>
</g>
<!-- public.bargaindocumentdetail&#45;&gt;public.bargaindocument -->
<g id="edge1" class="edge">
<title>public.bargaindocumentdetail:bargaindocid&#45;&gt;public.bargaindocument:bargaindocid</title>
<path fill="none" stroke="#000000" d="M431.6726,-1026.7842C499.2906,-1016.7559 472.8556,-903.8594 421.5,-847 368.6478,-788.4836 121.3522,-869.5164 68.5,-811 40.6463,-780.1612 26.9444,-717.5 68.5,-717.5"/>
<polygon fill="#000000" stroke="#000000" points="431.4753,-1026.798 421.1841,-1023.0111 426.4877,-1027.149 421.5,-1027.5 421.5,-1027.5 421.5,-1027.5 426.4877,-1027.149 421.8159,-1031.9889 431.4753,-1026.798 431.4753,-1026.798"/>
<text text-anchor="start" x="428.477" y="-1037.5" font-family="Arial" font-size="10.00" fill="#000000">FOREIGN KEY (bargaindocid) REFERENCES bargaindocument(bargaindocid)</text>
</g>
</g>
</svg>
