<?xml version="1.0" encoding="UTF-8" standalone="no"?>
<!DOCTYPE svg PUBLIC "-//W3C//DTD SVG 1.1//EN"
 "http://www.w3.org/Graphics/SVG/1.1/DTD/svg11.dtd">
<!-- Generated by graphviz version 2.40.1 (20161225.0304)
 -->
<!-- Title: public.login_attempts Pages: 1 -->
<svg width="410pt" height="225pt"
 viewBox="0.00 0.00 410.00 225.00" xmlns="http://www.w3.org/2000/svg" xmlns:xlink="http://www.w3.org/1999/xlink">
<g id="graph0" class="graph" transform="scale(1 1) rotate(0) translate(4 221)">
<title>public.login_attempts</title>
<polygon fill="#ffffff" stroke="transparent" points="-4,4 -4,-221 406,-221 406,4 -4,4"/>
<!-- public.login_attempts -->
<g id="node1" class="node">
<title>public.login_attempts</title>
<polygon fill="#efefef" stroke="transparent" points="46,-135.5 46,-170.5 356,-170.5 356,-135.5 46,-135.5"/>
<polygon fill="none" stroke="#000000" points="46,-135.5 46,-170.5 356,-170.5 356,-135.5 46,-135.5"/>
<text text-anchor="start" x="52.6961" y="-148.3" font-family="Arial Bold" font-size="18.00" fill="#000000">public.login_attempts</text>
<text text-anchor="start" x="221.7359" y="-148.3" font-family="Arial" font-size="14.00" fill="#000000">    </text>
<text text-anchor="start" x="255.9407" y="-148.3" font-family="Arial" font-size="14.00" fill="#666666">[BASE TABLE]</text>
<polygon fill="none" stroke="#000000" points="46,-105.5 46,-135.5 356,-135.5 356,-105.5 46,-105.5"/>
<text text-anchor="start" x="53" y="-116.9" font-family="Arial" font-size="14.00" fill="#000000">id </text>
<text text-anchor="start" x="67.7798" y="-116.9" font-family="Arial" font-size="14.00" fill="#666666">[integer]</text>
<polygon fill="none" stroke="#000000" points="46,-75.5 46,-105.5 356,-105.5 356,-75.5 46,-75.5"/>
<text text-anchor="start" x="53" y="-86.9" font-family="Arial" font-size="14.00" fill="#000000">ip_address </text>
<text text-anchor="start" x="125.3534" y="-86.9" font-family="Arial" font-size="14.00" fill="#666666">[varchar(40)]</text>
<polygon fill="none" stroke="#000000" points="46,-45.5 46,-75.5 356,-75.5 356,-45.5 46,-45.5"/>
<text text-anchor="start" x="53" y="-56.9" font-family="Arial" font-size="14.00" fill="#000000">time </text>
<text text-anchor="start" x="83.331" y="-56.9" font-family="Arial" font-size="14.00" fill="#666666">[timestamp without time zone]</text>
<polygon fill="none" stroke="#000000" stroke-width="3" points="44.5,-44.5 44.5,-172.5 357.5,-172.5 357.5,-44.5 44.5,-44.5"/>
</g>
</g>
</svg>
