<?xml version="1.0" encoding="UTF-8" standalone="no"?>
<!DOCTYPE svg PUBLIC "-//W3C//DTD SVG 1.1//EN"
 "http://www.w3.org/Graphics/SVG/1.1/DTD/svg11.dtd">
<!-- Generated by graphviz version 2.40.1 (20161225.0304)
 -->
<!-- Title: public.jw_termconditiontemplate_amendlog Pages: 1 -->
<svg width="586pt" height="315pt"
 viewBox="0.00 0.00 586.00 315.00" xmlns="http://www.w3.org/2000/svg" xmlns:xlink="http://www.w3.org/1999/xlink">
<g id="graph0" class="graph" transform="scale(1 1) rotate(0) translate(4 311)">
<title>public.jw_termconditiontemplate_amendlog</title>
<polygon fill="#ffffff" stroke="transparent" points="-4,4 -4,-311 582,-311 582,4 -4,4"/>
<!-- public.jw_termconditiontemplate_amendlog -->
<g id="node1" class="node">
<title>public.jw_termconditiontemplate_amendlog</title>
<polygon fill="#efefef" stroke="transparent" points="46,-225.5 46,-260.5 532,-260.5 532,-225.5 46,-225.5"/>
<polygon fill="none" stroke="#000000" points="46,-225.5 46,-260.5 532,-260.5 532,-225.5 46,-225.5"/>
<text text-anchor="start" x="52.6842" y="-238.3" font-family="Arial Bold" font-size="18.00" fill="#000000">public.jw_termconditiontemplate_amendlog</text>
<text text-anchor="start" x="397.7478" y="-238.3" font-family="Arial" font-size="14.00" fill="#000000">    </text>
<text text-anchor="start" x="431.9526" y="-238.3" font-family="Arial" font-size="14.00" fill="#666666">[BASE TABLE]</text>
<polygon fill="none" stroke="#000000" points="46,-195.5 46,-225.5 532,-225.5 532,-195.5 46,-195.5"/>
<text text-anchor="start" x="53" y="-206.9" font-family="Arial" font-size="14.00" fill="#000000">termconditionamendid </text>
<text text-anchor="start" x="194.582" y="-206.9" font-family="Arial" font-size="14.00" fill="#666666">[integer]</text>
<polygon fill="none" stroke="#000000" points="46,-165.5 46,-195.5 532,-195.5 532,-165.5 46,-165.5"/>
<text text-anchor="start" x="53" y="-176.9" font-family="Arial" font-size="14.00" fill="#000000">jobworkamendid </text>
<text text-anchor="start" x="158.7924" y="-176.9" font-family="Arial" font-size="14.00" fill="#666666">[integer]</text>
<polygon fill="none" stroke="#000000" points="46,-135.5 46,-165.5 532,-165.5 532,-135.5 46,-135.5"/>
<text text-anchor="start" x="53" y="-146.9" font-family="Arial" font-size="14.00" fill="#000000">termconditionid </text>
<text text-anchor="start" x="151.791" y="-146.9" font-family="Arial" font-size="14.00" fill="#666666">[integer]</text>
<polygon fill="none" stroke="#000000" points="46,-105.5 46,-135.5 532,-135.5 532,-105.5 46,-105.5"/>
<text text-anchor="start" x="53" y="-116.9" font-family="Arial" font-size="14.00" fill="#000000">jobworkid </text>
<text text-anchor="start" x="116.0014" y="-116.9" font-family="Arial" font-size="14.00" fill="#666666">[integer]</text>
<polygon fill="none" stroke="#000000" points="46,-75.5 46,-105.5 532,-105.5 532,-75.5 46,-75.5"/>
<text text-anchor="start" x="53" y="-86.9" font-family="Arial" font-size="14.00" fill="#000000">termconditionname </text>
<text text-anchor="start" x="175.9102" y="-86.9" font-family="Arial" font-size="14.00" fill="#666666">[varchar(300)]</text>
<polygon fill="none" stroke="#000000" points="46,-45.5 46,-75.5 532,-75.5 532,-45.5 46,-45.5"/>
<text text-anchor="start" x="53" y="-56.9" font-family="Arial" font-size="14.00" fill="#000000">description </text>
<text text-anchor="start" x="124.568" y="-56.9" font-family="Arial" font-size="14.00" fill="#666666">[varchar(400)]</text>
<polygon fill="none" stroke="#000000" stroke-width="3" points="44.5,-44.5 44.5,-262.5 533.5,-262.5 533.5,-44.5 44.5,-44.5"/>
</g>
</g>
</svg>
