<?xml version="1.0" encoding="UTF-8" standalone="no"?>
<!DOCTYPE svg PUBLIC "-//W3C//DTD SVG 1.1//EN"
 "http://www.w3.org/Graphics/SVG/1.1/DTD/svg11.dtd">
<!-- Generated by graphviz version 2.40.1 (20161225.0304)
 -->
<!-- Title: public.stor_productgroup Pages: 1 -->
<svg width="439pt" height="675pt"
 viewBox="0.00 0.00 439.00 675.00" xmlns="http://www.w3.org/2000/svg" xmlns:xlink="http://www.w3.org/1999/xlink">
<g id="graph0" class="graph" transform="scale(1 1) rotate(0) translate(4 671)">
<title>public.stor_productgroup</title>
<polygon fill="#ffffff" stroke="transparent" points="-4,4 -4,-671 435,-671 435,4 -4,4"/>
<!-- public.stor_productgroup -->
<g id="node1" class="node">
<title>public.stor_productgroup</title>
<polygon fill="#efefef" stroke="transparent" points="46.5,-585.5 46.5,-620.5 385.5,-620.5 385.5,-585.5 46.5,-585.5"/>
<polygon fill="none" stroke="#000000" points="46.5,-585.5 46.5,-620.5 385.5,-620.5 385.5,-585.5 46.5,-585.5"/>
<text text-anchor="start" x="53.1899" y="-598.3" font-family="Arial Bold" font-size="18.00" fill="#000000">public.stor_productgroup</text>
<text text-anchor="start" x="251.2421" y="-598.3" font-family="Arial" font-size="14.00" fill="#000000">    </text>
<text text-anchor="start" x="285.4469" y="-598.3" font-family="Arial" font-size="14.00" fill="#666666">[BASE TABLE]</text>
<polygon fill="none" stroke="#000000" points="46.5,-555.5 46.5,-585.5 385.5,-585.5 385.5,-555.5 46.5,-555.5"/>
<text text-anchor="start" x="53.5" y="-566.9" font-family="Arial" font-size="14.00" fill="#000000">productgroupid </text>
<text text-anchor="start" x="150.7524" y="-566.9" font-family="Arial" font-size="14.00" fill="#666666">[integer]</text>
<polygon fill="none" stroke="#000000" points="46.5,-525.5 46.5,-555.5 385.5,-555.5 385.5,-525.5 46.5,-525.5"/>
<text text-anchor="start" x="53.5" y="-536.9" font-family="Arial" font-size="14.00" fill="#000000">productgroupname </text>
<text text-anchor="start" x="174.8716" y="-536.9" font-family="Arial" font-size="14.00" fill="#666666">[varchar(20)]</text>
<polygon fill="none" stroke="#000000" points="46.5,-495.5 46.5,-525.5 385.5,-525.5 385.5,-495.5 46.5,-495.5"/>
<text text-anchor="start" x="53.5" y="-506.9" font-family="Arial" font-size="14.00" fill="#000000">productgroupshortname </text>
<text text-anchor="start" x="205.988" y="-506.9" font-family="Arial" font-size="14.00" fill="#666666">[varchar(10)]</text>
<polygon fill="none" stroke="#000000" points="46.5,-465.5 46.5,-495.5 385.5,-495.5 385.5,-465.5 46.5,-465.5"/>
<text text-anchor="start" x="53.5" y="-476.9" font-family="Arial" font-size="14.00" fill="#000000">issendtotally </text>
<text text-anchor="start" x="134.4046" y="-476.9" font-family="Arial" font-size="14.00" fill="#666666">[boolean]</text>
<polygon fill="none" stroke="#000000" points="46.5,-435.5 46.5,-465.5 385.5,-465.5 385.5,-435.5 46.5,-435.5"/>
<text text-anchor="start" x="53.5" y="-446.9" font-family="Arial" font-size="14.00" fill="#000000">isactive </text>
<text text-anchor="start" x="104.0596" y="-446.9" font-family="Arial" font-size="14.00" fill="#666666">[boolean]</text>
<polygon fill="none" stroke="#000000" points="46.5,-405.5 46.5,-435.5 385.5,-435.5 385.5,-405.5 46.5,-405.5"/>
<text text-anchor="start" x="53.5" y="-416.9" font-family="Arial" font-size="14.00" fill="#000000">isauthorized </text>
<text text-anchor="start" x="132.8506" y="-416.9" font-family="Arial" font-size="14.00" fill="#666666">[boolean]</text>
<polygon fill="none" stroke="#000000" points="46.5,-375.5 46.5,-405.5 385.5,-405.5 385.5,-375.5 46.5,-375.5"/>
<text text-anchor="start" x="53.5" y="-386.9" font-family="Arial" font-size="14.00" fill="#000000">authorizedon </text>
<text text-anchor="start" x="138.3092" y="-386.9" font-family="Arial" font-size="14.00" fill="#666666">[timestamp(6) without time zone]</text>
<polygon fill="none" stroke="#000000" points="46.5,-345.5 46.5,-375.5 385.5,-375.5 385.5,-345.5 46.5,-345.5"/>
<text text-anchor="start" x="53.5" y="-356.9" font-family="Arial" font-size="14.00" fill="#000000">authorizedby </text>
<text text-anchor="start" x="137.5266" y="-356.9" font-family="Arial" font-size="14.00" fill="#666666">[integer]</text>
<polygon fill="none" stroke="#000000" points="46.5,-315.5 46.5,-345.5 385.5,-345.5 385.5,-315.5 46.5,-315.5"/>
<text text-anchor="start" x="53.5" y="-326.9" font-family="Arial" font-size="14.00" fill="#000000">createdby </text>
<text text-anchor="start" x="118.8548" y="-326.9" font-family="Arial" font-size="14.00" fill="#666666">[integer]</text>
<polygon fill="none" stroke="#000000" points="46.5,-285.5 46.5,-315.5 385.5,-315.5 385.5,-285.5 46.5,-285.5"/>
<text text-anchor="start" x="53.5" y="-296.9" font-family="Arial" font-size="14.00" fill="#000000">editlog </text>
<text text-anchor="start" x="98.6248" y="-296.9" font-family="Arial" font-size="14.00" fill="#666666">[text]</text>
<polygon fill="none" stroke="#000000" points="46.5,-255.5 46.5,-285.5 385.5,-285.5 385.5,-255.5 46.5,-255.5"/>
<text text-anchor="start" x="53.5" y="-266.9" font-family="Arial" font-size="14.00" fill="#000000">createdon </text>
<text text-anchor="start" x="119.6374" y="-266.9" font-family="Arial" font-size="14.00" fill="#666666">[timestamp(6) without time zone]</text>
<polygon fill="none" stroke="#000000" points="46.5,-225.5 46.5,-255.5 385.5,-255.5 385.5,-225.5 46.5,-225.5"/>
<text text-anchor="start" x="53.5" y="-236.9" font-family="Arial" font-size="14.00" fill="#000000">headauthorizedon </text>
<text text-anchor="start" x="169.4396" y="-236.9" font-family="Arial" font-size="14.00" fill="#666666">[timestamp(6) without time zone]</text>
<polygon fill="none" stroke="#000000" points="46.5,-195.5 46.5,-225.5 385.5,-225.5 385.5,-195.5 46.5,-195.5"/>
<text text-anchor="start" x="53.5" y="-206.9" font-family="Arial" font-size="14.00" fill="#000000">headauthorizedby </text>
<text text-anchor="start" x="168.657" y="-206.9" font-family="Arial" font-size="14.00" fill="#666666">[integer]</text>
<polygon fill="none" stroke="#000000" points="46.5,-165.5 46.5,-195.5 385.5,-195.5 385.5,-165.5 46.5,-165.5"/>
<text text-anchor="start" x="53.5" y="-176.9" font-family="Arial" font-size="14.00" fill="#000000">sentincrm </text>
<text text-anchor="start" x="118.0568" y="-176.9" font-family="Arial" font-size="14.00" fill="#666666">[boolean]</text>
<polygon fill="none" stroke="#000000" points="46.5,-135.5 46.5,-165.5 385.5,-165.5 385.5,-135.5 46.5,-135.5"/>
<text text-anchor="start" x="53.5" y="-146.9" font-family="Arial" font-size="14.00" fill="#000000">alterid </text>
<text text-anchor="start" x="95.5028" y="-146.9" font-family="Arial" font-size="14.00" fill="#666666">[integer]</text>
<polygon fill="none" stroke="#000000" points="46.5,-105.5 46.5,-135.5 385.5,-135.5 385.5,-105.5 46.5,-105.5"/>
<text text-anchor="start" x="53.5" y="-116.9" font-family="Arial" font-size="14.00" fill="#000000">globalname </text>
<text text-anchor="start" x="129.7426" y="-116.9" font-family="Arial" font-size="14.00" fill="#666666">[varchar(20)]</text>
<polygon fill="none" stroke="#000000" points="46.5,-75.5 46.5,-105.5 385.5,-105.5 385.5,-75.5 46.5,-75.5"/>
<text text-anchor="start" x="53.5" y="-86.9" font-family="Arial" font-size="14.00" fill="#000000">updatedby </text>
<text text-anchor="start" x="122.7594" y="-86.9" font-family="Arial" font-size="14.00" fill="#666666">[integer]</text>
<polygon fill="none" stroke="#000000" points="46.5,-45.5 46.5,-75.5 385.5,-75.5 385.5,-45.5 46.5,-45.5"/>
<text text-anchor="start" x="53.5" y="-56.9" font-family="Arial" font-size="14.00" fill="#000000">updatedon </text>
<text text-anchor="start" x="123.542" y="-56.9" font-family="Arial" font-size="14.00" fill="#666666">[timestamp(6) without time zone]</text>
<polygon fill="none" stroke="#000000" stroke-width="3" points="44.5,-44.5 44.5,-622.5 386.5,-622.5 386.5,-44.5 44.5,-44.5"/>
</g>
</g>
</svg>
