<?xml version="1.0" encoding="UTF-8" standalone="no"?>
<!DOCTYPE svg PUBLIC "-//W3C//DTD SVG 1.1//EN"
 "http://www.w3.org/Graphics/SVG/1.1/DTD/svg11.dtd">
<!-- Generated by graphviz version 2.40.1 (20161225.0304)
 -->
<!-- Title: public.tag_master Pages: 1 -->
<svg width="383pt" height="285pt"
 viewBox="0.00 0.00 383.00 285.00" xmlns="http://www.w3.org/2000/svg" xmlns:xlink="http://www.w3.org/1999/xlink">
<g id="graph0" class="graph" transform="scale(1 1) rotate(0) translate(4 281)">
<title>public.tag_master</title>
<polygon fill="#ffffff" stroke="transparent" points="-4,4 -4,-281 379,-281 379,4 -4,4"/>
<!-- public.tag_master -->
<g id="node1" class="node">
<title>public.tag_master</title>
<polygon fill="#efefef" stroke="transparent" points="46.5,-195.5 46.5,-230.5 329.5,-230.5 329.5,-195.5 46.5,-195.5"/>
<polygon fill="none" stroke="#000000" points="46.5,-195.5 46.5,-230.5 329.5,-230.5 329.5,-195.5 46.5,-195.5"/>
<text text-anchor="start" x="53.2015" y="-208.3" font-family="Arial Bold" font-size="18.00" fill="#000000">public.tag_master</text>
<text text-anchor="start" x="195.2305" y="-208.3" font-family="Arial" font-size="14.00" fill="#000000">    </text>
<text text-anchor="start" x="229.4353" y="-208.3" font-family="Arial" font-size="14.00" fill="#666666">[BASE TABLE]</text>
<polygon fill="none" stroke="#000000" points="46.5,-165.5 46.5,-195.5 329.5,-195.5 329.5,-165.5 46.5,-165.5"/>
<text text-anchor="start" x="53.5" y="-176.9" font-family="Arial" font-size="14.00" fill="#000000">tag_id </text>
<text text-anchor="start" x="95.5182" y="-176.9" font-family="Arial" font-size="14.00" fill="#666666">[bigint]</text>
<polygon fill="none" stroke="#000000" points="46.5,-135.5 46.5,-165.5 329.5,-165.5 329.5,-135.5 46.5,-135.5"/>
<text text-anchor="start" x="53.5" y="-146.9" font-family="Arial" font-size="14.00" fill="#000000">name </text>
<text text-anchor="start" x="92.399" y="-146.9" font-family="Arial" font-size="14.00" fill="#666666">[varchar(50)]</text>
<polygon fill="none" stroke="#000000" points="46.5,-105.5 46.5,-135.5 329.5,-135.5 329.5,-105.5 46.5,-105.5"/>
<text text-anchor="start" x="53.5" y="-116.9" font-family="Arial" font-size="14.00" fill="#000000">value </text>
<text text-anchor="start" x="90.845" y="-116.9" font-family="Arial" font-size="14.00" fill="#666666">[varchar(50)]</text>
<polygon fill="none" stroke="#000000" points="46.5,-75.5 46.5,-105.5 329.5,-105.5 329.5,-75.5 46.5,-75.5"/>
<text text-anchor="start" x="53.5" y="-86.9" font-family="Arial" font-size="14.00" fill="#000000">iscommon </text>
<text text-anchor="start" x="121.1662" y="-86.9" font-family="Arial" font-size="14.00" fill="#666666">[boolean]</text>
<polygon fill="none" stroke="#000000" points="46.5,-45.5 46.5,-75.5 329.5,-75.5 329.5,-45.5 46.5,-45.5"/>
<text text-anchor="start" x="53.5" y="-56.9" font-family="Arial" font-size="14.00" fill="#000000">description </text>
<text text-anchor="start" x="125.068" y="-56.9" font-family="Arial" font-size="14.00" fill="#666666">[text]</text>
<polygon fill="none" stroke="#000000" stroke-width="3" points="44.5,-44.5 44.5,-232.5 330.5,-232.5 330.5,-44.5 44.5,-44.5"/>
</g>
</g>
</svg>
