<?xml version="1.0" encoding="UTF-8" standalone="no"?>
<!DOCTYPE svg PUBLIC "-//W3C//DTD SVG 1.1//EN"
 "http://www.w3.org/Graphics/SVG/1.1/DTD/svg11.dtd">
<!-- Generated by graphviz version 2.40.1 (20161225.0304)
 -->
<!-- Title: public.pur_inspectionaftermrn Pages: 1 -->
<svg width="740pt" height="2722pt"
 viewBox="0.00 0.00 739.50 2722.00" xmlns="http://www.w3.org/2000/svg" xmlns:xlink="http://www.w3.org/1999/xlink">
<g id="graph0" class="graph" transform="scale(1 1) rotate(0) translate(4 2718)">
<title>public.pur_inspectionaftermrn</title>
<polygon fill="#ffffff" stroke="transparent" points="-4,4 -4,-2718 735.5,-2718 735.5,4 -4,4"/>
<!-- public.pur_inspectionaftermrn -->
<g id="node1" class="node">
<title>public.pur_inspectionaftermrn</title>
<polygon fill="#efefef" stroke="transparent" points="46.5,-2632.5 46.5,-2667.5 423.5,-2667.5 423.5,-2632.5 46.5,-2632.5"/>
<polygon fill="none" stroke="#000000" points="46.5,-2632.5 46.5,-2667.5 423.5,-2667.5 423.5,-2632.5 46.5,-2632.5"/>
<text text-anchor="start" x="53.1954" y="-2645.3" font-family="Arial Bold" font-size="18.00" fill="#000000">public.pur_inspectionaftermrn</text>
<text text-anchor="start" x="289.2366" y="-2645.3" font-family="Arial" font-size="14.00" fill="#000000">    </text>
<text text-anchor="start" x="323.4414" y="-2645.3" font-family="Arial" font-size="14.00" fill="#666666">[BASE TABLE]</text>
<polygon fill="none" stroke="#000000" points="46.5,-2602.5 46.5,-2632.5 423.5,-2632.5 423.5,-2602.5 46.5,-2602.5"/>
<text text-anchor="start" x="53.5" y="-2613.9" font-family="Arial" font-size="14.00" fill="#000000">inspectiondate </text>
<text text-anchor="start" x="147.6458" y="-2613.9" font-family="Arial" font-size="14.00" fill="#666666">[date]</text>
<polygon fill="none" stroke="#000000" points="46.5,-2572.5 46.5,-2602.5 423.5,-2602.5 423.5,-2572.5 46.5,-2572.5"/>
<text text-anchor="start" x="53.5" y="-2583.9" font-family="Arial" font-size="14.00" fill="#000000">isinspectionoccured </text>
<text text-anchor="start" x="180.305" y="-2583.9" font-family="Arial" font-size="14.00" fill="#666666">[boolean]</text>
<polygon fill="none" stroke="#000000" points="46.5,-2542.5 46.5,-2572.5 423.5,-2572.5 423.5,-2542.5 46.5,-2542.5"/>
<text text-anchor="start" x="53.5" y="-2553.9" font-family="Arial" font-size="14.00" fill="#000000">inspectedby </text>
<text text-anchor="start" x="132.0834" y="-2553.9" font-family="Arial" font-size="14.00" fill="#666666">[integer]</text>
<polygon fill="none" stroke="#000000" points="46.5,-2512.5 46.5,-2542.5 423.5,-2542.5 423.5,-2512.5 46.5,-2512.5"/>
<text text-anchor="start" x="53.5" y="-2523.9" font-family="Arial" font-size="14.00" fill="#000000">createdby </text>
<text text-anchor="start" x="118.8548" y="-2523.9" font-family="Arial" font-size="14.00" fill="#666666">[integer]</text>
<polygon fill="none" stroke="#000000" points="46.5,-2482.5 46.5,-2512.5 423.5,-2512.5 423.5,-2482.5 46.5,-2482.5"/>
<text text-anchor="start" x="53.5" y="-2493.9" font-family="Arial" font-size="14.00" fill="#000000">isauthorized </text>
<text text-anchor="start" x="132.8506" y="-2493.9" font-family="Arial" font-size="14.00" fill="#666666">[boolean]</text>
<polygon fill="none" stroke="#000000" points="46.5,-2452.5 46.5,-2482.5 423.5,-2482.5 423.5,-2452.5 46.5,-2452.5"/>
<text text-anchor="start" x="53.5" y="-2463.9" font-family="Arial" font-size="14.00" fill="#000000">authorizedby </text>
<text text-anchor="start" x="137.5266" y="-2463.9" font-family="Arial" font-size="14.00" fill="#666666">[integer]</text>
<polygon fill="none" stroke="#000000" points="46.5,-2422.5 46.5,-2452.5 423.5,-2452.5 423.5,-2422.5 46.5,-2422.5"/>
<text text-anchor="start" x="53.5" y="-2433.9" font-family="Arial" font-size="14.00" fill="#000000">authorizedon </text>
<text text-anchor="start" x="138.3092" y="-2433.9" font-family="Arial" font-size="14.00" fill="#666666">[timestamp without time zone]</text>
<polygon fill="none" stroke="#000000" points="46.5,-2392.5 46.5,-2422.5 423.5,-2422.5 423.5,-2392.5 46.5,-2392.5"/>
<text text-anchor="start" x="53.5" y="-2403.9" font-family="Arial" font-size="14.00" fill="#000000">branchid </text>
<text text-anchor="start" x="111.0708" y="-2403.9" font-family="Arial" font-size="14.00" fill="#666666">[integer]</text>
<polygon fill="none" stroke="#000000" points="46.5,-2362.5 46.5,-2392.5 423.5,-2392.5 423.5,-2362.5 46.5,-2362.5"/>
<text text-anchor="start" x="53.5" y="-2373.9" font-family="Arial" font-size="14.00" fill="#000000">iscancelled </text>
<text text-anchor="start" x="126.6234" y="-2373.9" font-family="Arial" font-size="14.00" fill="#666666">[boolean]</text>
<polygon fill="none" stroke="#000000" points="46.5,-2332.5 46.5,-2362.5 423.5,-2362.5 423.5,-2332.5 46.5,-2332.5"/>
<text text-anchor="start" x="53.5" y="-2343.9" font-family="Arial" font-size="14.00" fill="#000000">inspectionno </text>
<text text-anchor="start" x="135.9726" y="-2343.9" font-family="Arial" font-size="14.00" fill="#666666">[varchar(50)]</text>
<polygon fill="none" stroke="#000000" points="46.5,-2302.5 46.5,-2332.5 423.5,-2332.5 423.5,-2302.5 46.5,-2302.5"/>
<text text-anchor="start" x="53.5" y="-2313.9" font-family="Arial" font-size="14.00" fill="#000000">seriescode </text>
<text text-anchor="start" x="125.0708" y="-2313.9" font-family="Arial" font-size="14.00" fill="#666666">[varchar(50)]</text>
<polygon fill="none" stroke="#000000" points="46.5,-2272.5 46.5,-2302.5 423.5,-2302.5 423.5,-2272.5 46.5,-2272.5"/>
<text text-anchor="start" x="53.5" y="-2283.9" font-family="Arial" font-size="14.00" fill="#000000">seriesno </text>
<text text-anchor="start" x="110.2882" y="-2283.9" font-family="Arial" font-size="14.00" fill="#666666">[integer]</text>
<polygon fill="none" stroke="#000000" points="46.5,-2242.5 46.5,-2272.5 423.5,-2272.5 423.5,-2242.5 46.5,-2242.5"/>
<text text-anchor="start" x="53.5" y="-2253.9" font-family="Arial" font-size="14.00" fill="#000000">partyid </text>
<text text-anchor="start" x="99.3962" y="-2253.9" font-family="Arial" font-size="14.00" fill="#666666">[integer]</text>
<polygon fill="none" stroke="#000000" points="46.5,-2212.5 46.5,-2242.5 423.5,-2242.5 423.5,-2212.5 46.5,-2212.5"/>
<text text-anchor="start" x="53.5" y="-2223.9" font-family="Arial" font-size="14.00" fill="#000000">mrnid </text>
<text text-anchor="start" x="92.3836" y="-2223.9" font-family="Arial" font-size="14.00" fill="#666666">[integer]</text>
<polygon fill="none" stroke="#000000" points="46.5,-2182.5 46.5,-2212.5 423.5,-2212.5 423.5,-2182.5 46.5,-2182.5"/>
<text text-anchor="start" x="53.5" y="-2193.9" font-family="Arial" font-size="14.00" fill="#000000">inspectionid </text>
<text text-anchor="start" x="131.2966" y="-2193.9" font-family="Arial" font-size="14.00" fill="#666666">[integer]</text>
<polygon fill="none" stroke="#000000" points="46.5,-2152.5 46.5,-2182.5 423.5,-2182.5 423.5,-2152.5 46.5,-2152.5"/>
<text text-anchor="start" x="53.5" y="-2163.9" font-family="Arial" font-size="14.00" fill="#000000">editlog </text>
<text text-anchor="start" x="98.6248" y="-2163.9" font-family="Arial" font-size="14.00" fill="#666666">[text]</text>
<polygon fill="none" stroke="#000000" points="46.5,-2122.5 46.5,-2152.5 423.5,-2152.5 423.5,-2122.5 46.5,-2122.5"/>
<text text-anchor="start" x="53.5" y="-2133.9" font-family="Arial" font-size="14.00" fill="#000000">createdon </text>
<text text-anchor="start" x="119.6374" y="-2133.9" font-family="Arial" font-size="14.00" fill="#666666">[timestamp without time zone]</text>
<polygon fill="none" stroke="#000000" points="46.5,-2092.5 46.5,-2122.5 423.5,-2122.5 423.5,-2092.5 46.5,-2092.5"/>
<text text-anchor="start" x="53.5" y="-2103.9" font-family="Arial" font-size="14.00" fill="#000000">challantype </text>
<text text-anchor="start" x="128.19" y="-2103.9" font-family="Arial" font-size="14.00" fill="#666666">[smallint]</text>
<polygon fill="none" stroke="#000000" points="46.5,-2062.5 46.5,-2092.5 423.5,-2092.5 423.5,-2062.5 46.5,-2062.5"/>
<text text-anchor="start" x="53.5" y="-2073.9" font-family="Arial" font-size="14.00" fill="#000000">remarks </text>
<text text-anchor="start" x="107.9376" y="-2073.9" font-family="Arial" font-size="14.00" fill="#666666">[varchar(1000)]</text>
<polygon fill="none" stroke="#000000" points="46.5,-2032.5 46.5,-2062.5 423.5,-2062.5 423.5,-2032.5 46.5,-2032.5"/>
<text text-anchor="start" x="53.5" y="-2043.9" font-family="Arial" font-size="14.00" fill="#000000">seriesid </text>
<text text-anchor="start" x="105.6122" y="-2043.9" font-family="Arial" font-size="14.00" fill="#666666">[integer]</text>
<polygon fill="none" stroke="#000000" points="46.5,-2002.5 46.5,-2032.5 423.5,-2032.5 423.5,-2002.5 46.5,-2002.5"/>
<text text-anchor="start" x="53.5" y="-2013.9" font-family="Arial" font-size="14.00" fill="#000000">headauthorizedon </text>
<text text-anchor="start" x="169.4396" y="-2013.9" font-family="Arial" font-size="14.00" fill="#666666">[timestamp without time zone]</text>
<polygon fill="none" stroke="#000000" points="46.5,-1972.5 46.5,-2002.5 423.5,-2002.5 423.5,-1972.5 46.5,-1972.5"/>
<text text-anchor="start" x="53.5" y="-1983.9" font-family="Arial" font-size="14.00" fill="#000000">headauthorizedby </text>
<text text-anchor="start" x="168.657" y="-1983.9" font-family="Arial" font-size="14.00" fill="#666666">[integer]</text>
<polygon fill="none" stroke="#000000" points="46.5,-1942.5 46.5,-1972.5 423.5,-1972.5 423.5,-1942.5 46.5,-1942.5"/>
<text text-anchor="start" x="53.5" y="-1953.9" font-family="Arial" font-size="14.00" fill="#000000">seriesvouchertype </text>
<text text-anchor="start" x="170.9698" y="-1953.9" font-family="Arial" font-size="14.00" fill="#666666">[integer]</text>
<polygon fill="none" stroke="#000000" points="46.5,-1912.5 46.5,-1942.5 423.5,-1942.5 423.5,-1912.5 46.5,-1912.5"/>
<text text-anchor="start" x="53.5" y="-1923.9" font-family="Arial" font-size="14.00" fill="#000000">cancellationreason </text>
<text text-anchor="start" x="174.0876" y="-1923.9" font-family="Arial" font-size="14.00" fill="#666666">[text]</text>
<polygon fill="none" stroke="#000000" points="46.5,-1882.5 46.5,-1912.5 423.5,-1912.5 423.5,-1882.5 46.5,-1882.5"/>
<text text-anchor="start" x="53.5" y="-1893.9" font-family="Arial" font-size="14.00" fill="#000000">cancelledby </text>
<text text-anchor="start" x="131.2994" y="-1893.9" font-family="Arial" font-size="14.00" fill="#666666">[integer]</text>
<polygon fill="none" stroke="#000000" points="46.5,-1852.5 46.5,-1882.5 423.5,-1882.5 423.5,-1852.5 46.5,-1852.5"/>
<text text-anchor="start" x="53.5" y="-1863.9" font-family="Arial" font-size="14.00" fill="#000000">isinspected </text>
<text text-anchor="start" x="127.4074" y="-1863.9" font-family="Arial" font-size="14.00" fill="#666666">[boolean]</text>
<polygon fill="none" stroke="#000000" points="46.5,-1822.5 46.5,-1852.5 423.5,-1852.5 423.5,-1822.5 46.5,-1822.5"/>
<text text-anchor="start" x="53.5" y="-1833.9" font-family="Arial" font-size="14.00" fill="#000000">isfileattached </text>
<text text-anchor="start" x="139.0778" y="-1833.9" font-family="Arial" font-size="14.00" fill="#666666">[boolean]</text>
<polygon fill="none" stroke="#000000" points="46.5,-1792.5 46.5,-1822.5 423.5,-1822.5 423.5,-1792.5 46.5,-1792.5"/>
<text text-anchor="start" x="53.5" y="-1803.9" font-family="Arial" font-size="14.00" fill="#000000">formid </text>
<text text-anchor="start" x="96.2742" y="-1803.9" font-family="Arial" font-size="14.00" fill="#666666">[integer]</text>
<polygon fill="none" stroke="#000000" points="46.5,-1762.5 46.5,-1792.5 423.5,-1792.5 423.5,-1762.5 46.5,-1762.5"/>
<text text-anchor="start" x="53.5" y="-1773.9" font-family="Arial" font-size="14.00" fill="#000000">authorizelevel </text>
<text text-anchor="start" x="143.7398" y="-1773.9" font-family="Arial" font-size="14.00" fill="#666666">[integer]</text>
<polygon fill="none" stroke="#000000" points="46.5,-1732.5 46.5,-1762.5 423.5,-1762.5 423.5,-1732.5 46.5,-1732.5"/>
<text text-anchor="start" x="53.5" y="-1743.9" font-family="Arial" font-size="14.00" fill="#000000">lastupdatedformula </text>
<text text-anchor="start" x="176.4228" y="-1743.9" font-family="Arial" font-size="14.00" fill="#666666">[text]</text>
<polygon fill="none" stroke="#000000" points="46.5,-1702.5 46.5,-1732.5 423.5,-1732.5 423.5,-1702.5 46.5,-1702.5"/>
<text text-anchor="start" x="53.5" y="-1713.9" font-family="Arial" font-size="14.00" fill="#000000">authorizationlevelid </text>
<text text-anchor="start" x="177.1914" y="-1713.9" font-family="Arial" font-size="14.00" fill="#666666">[integer]</text>
<polygon fill="none" stroke="#000000" points="46.5,-1672.5 46.5,-1702.5 423.5,-1702.5 423.5,-1672.5 46.5,-1672.5"/>
<text text-anchor="start" x="53.5" y="-1683.9" font-family="Arial" font-size="14.00" fill="#000000">isinitialrejected </text>
<text text-anchor="start" x="149.1676" y="-1683.9" font-family="Arial" font-size="14.00" fill="#666666">[boolean]</text>
<polygon fill="none" stroke="#000000" points="46.5,-1642.5 46.5,-1672.5 423.5,-1672.5 423.5,-1642.5 46.5,-1642.5"/>
<text text-anchor="start" x="53.5" y="-1653.9" font-family="Arial" font-size="14.00" fill="#000000">updatedby </text>
<text text-anchor="start" x="122.7594" y="-1653.9" font-family="Arial" font-size="14.00" fill="#666666">[integer]</text>
<polygon fill="none" stroke="#000000" points="46.5,-1612.5 46.5,-1642.5 423.5,-1642.5 423.5,-1612.5 46.5,-1612.5"/>
<text text-anchor="start" x="53.5" y="-1623.9" font-family="Arial" font-size="14.00" fill="#000000">updatedon </text>
<text text-anchor="start" x="123.542" y="-1623.9" font-family="Arial" font-size="14.00" fill="#666666">[timestamp(6) without time zone]</text>
<polygon fill="none" stroke="#000000" stroke-width="3" points="44.5,-1611.5 44.5,-2669.5 424.5,-2669.5 424.5,-1611.5 44.5,-1611.5"/>
</g>
<!-- public.comn_formmaster -->
<g id="node2" class="node">
<title>public.comn_formmaster</title>
<polygon fill="#efefef" stroke="transparent" points="66.5,-1452.5 66.5,-1487.5 404.5,-1487.5 404.5,-1452.5 66.5,-1452.5"/>
<polygon fill="none" stroke="#000000" points="66.5,-1452.5 66.5,-1487.5 404.5,-1487.5 404.5,-1452.5 66.5,-1452.5"/>
<text text-anchor="start" x="73.2101" y="-1465.3" font-family="Arial Bold" font-size="18.00" fill="#000000">public.comn_formmaster</text>
<text text-anchor="start" x="270.2219" y="-1465.3" font-family="Arial" font-size="14.00" fill="#000000">    </text>
<text text-anchor="start" x="304.4267" y="-1465.3" font-family="Arial" font-size="14.00" fill="#666666">[BASE TABLE]</text>
<polygon fill="none" stroke="#000000" points="66.5,-1422.5 66.5,-1452.5 404.5,-1452.5 404.5,-1422.5 66.5,-1422.5"/>
<text text-anchor="start" x="73.5" y="-1433.9" font-family="Arial" font-size="14.00" fill="#000000">formid    </text>
<text text-anchor="start" x="146.5884" y="-1433.9" font-family="Arial" font-size="14.00" fill="#666666">[integer]</text>
<polygon fill="none" stroke="#000000" points="66.5,-1392.5 66.5,-1422.5 404.5,-1422.5 404.5,-1392.5 66.5,-1392.5"/>
<text text-anchor="start" x="73.5" y="-1403.9" font-family="Arial" font-size="14.00" fill="#000000">formname    </text>
<text text-anchor="start" x="170.7076" y="-1403.9" font-family="Arial" font-size="14.00" fill="#666666">[varchar(100)]</text>
<polygon fill="none" stroke="#000000" points="66.5,-1362.5 66.5,-1392.5 404.5,-1392.5 404.5,-1362.5 66.5,-1362.5"/>
<text text-anchor="start" x="73.5" y="-1373.9" font-family="Arial" font-size="14.00" fill="#000000">caption    </text>
<text text-anchor="start" x="152.8324" y="-1373.9" font-family="Arial" font-size="14.00" fill="#666666">[varchar(100)]</text>
<polygon fill="none" stroke="#000000" points="66.5,-1332.5 66.5,-1362.5 404.5,-1362.5 404.5,-1332.5 66.5,-1332.5"/>
<text text-anchor="start" x="73.5" y="-1343.9" font-family="Arial" font-size="14.00" fill="#000000">formtype    </text>
<text text-anchor="start" x="162.155" y="-1343.9" font-family="Arial" font-size="14.00" fill="#666666">[smallint]</text>
<polygon fill="none" stroke="#000000" points="66.5,-1302.5 66.5,-1332.5 404.5,-1332.5 404.5,-1302.5 66.5,-1302.5"/>
<text text-anchor="start" x="73.5" y="-1313.9" font-family="Arial" font-size="14.00" fill="#000000">mnunew    </text>
<text text-anchor="start" x="160.6024" y="-1313.9" font-family="Arial" font-size="14.00" fill="#666666">[boolean]</text>
<polygon fill="none" stroke="#000000" points="66.5,-1272.5 66.5,-1302.5 404.5,-1302.5 404.5,-1272.5 66.5,-1272.5"/>
<text text-anchor="start" x="73.5" y="-1283.9" font-family="Arial" font-size="14.00" fill="#000000">mnuedit    </text>
<text text-anchor="start" x="157.493" y="-1283.9" font-family="Arial" font-size="14.00" fill="#666666">[boolean]</text>
<polygon fill="none" stroke="#000000" points="66.5,-1242.5 66.5,-1272.5 404.5,-1272.5 404.5,-1242.5 66.5,-1242.5"/>
<text text-anchor="start" x="73.5" y="-1253.9" font-family="Arial" font-size="14.00" fill="#000000">mnuauthorize    </text>
<text text-anchor="start" x="192.5014" y="-1253.9" font-family="Arial" font-size="14.00" fill="#666666">[boolean]</text>
<polygon fill="none" stroke="#000000" points="66.5,-1212.5 66.5,-1242.5 404.5,-1242.5 404.5,-1212.5 66.5,-1212.5"/>
<text text-anchor="start" x="73.5" y="-1223.9" font-family="Arial" font-size="14.00" fill="#000000">mnuview    </text>
<text text-anchor="start" x="162.9264" y="-1223.9" font-family="Arial" font-size="14.00" fill="#666666">[boolean]</text>
<polygon fill="none" stroke="#000000" points="66.5,-1182.5 66.5,-1212.5 404.5,-1212.5 404.5,-1182.5 66.5,-1182.5"/>
<text text-anchor="start" x="73.5" y="-1193.9" font-family="Arial" font-size="14.00" fill="#000000">mnuprint    </text>
<text text-anchor="start" x="162.1536" y="-1193.9" font-family="Arial" font-size="14.00" fill="#666666">[boolean]</text>
<polygon fill="none" stroke="#000000" points="66.5,-1152.5 66.5,-1182.5 404.5,-1182.5 404.5,-1152.5 66.5,-1152.5"/>
<text text-anchor="start" x="73.5" y="-1163.9" font-family="Arial" font-size="14.00" fill="#000000">mnuamendment    </text>
<text text-anchor="start" x="208.838" y="-1163.9" font-family="Arial" font-size="14.00" fill="#666666">[boolean]</text>
<polygon fill="none" stroke="#000000" points="66.5,-1122.5 66.5,-1152.5 404.5,-1152.5 404.5,-1122.5 66.5,-1122.5"/>
<text text-anchor="start" x="73.5" y="-1133.9" font-family="Arial" font-size="14.00" fill="#000000">mnusendtotally    </text>
<text text-anchor="start" x="201.838" y="-1133.9" font-family="Arial" font-size="14.00" fill="#666666">[boolean]</text>
<polygon fill="none" stroke="#000000" points="66.5,-1092.5 66.5,-1122.5 404.5,-1122.5 404.5,-1092.5 66.5,-1092.5"/>
<text text-anchor="start" x="73.5" y="-1103.9" font-family="Arial" font-size="14.00" fill="#000000">mnuexporttoexcel    </text>
<text text-anchor="start" x="218.1746" y="-1103.9" font-family="Arial" font-size="14.00" fill="#666666">[boolean]</text>
<polygon fill="none" stroke="#000000" points="66.5,-1062.5 66.5,-1092.5 404.5,-1092.5 404.5,-1062.5 66.5,-1062.5"/>
<text text-anchor="start" x="73.5" y="-1073.9" font-family="Arial" font-size="14.00" fill="#000000">extravalue    </text>
<text text-anchor="start" x="172.2756" y="-1073.9" font-family="Arial" font-size="14.00" fill="#666666">[varchar(50)]</text>
<polygon fill="none" stroke="#000000" points="66.5,-1032.5 66.5,-1062.5 404.5,-1062.5 404.5,-1032.5 66.5,-1032.5"/>
<text text-anchor="start" x="73.5" y="-1043.9" font-family="Arial" font-size="14.00" fill="#000000">formval    </text>
<text text-anchor="start" x="153.5884" y="-1043.9" font-family="Arial" font-size="14.00" fill="#666666">[varchar(70)]</text>
<polygon fill="none" stroke="#000000" points="66.5,-1002.5 66.5,-1032.5 404.5,-1032.5 404.5,-1002.5 66.5,-1002.5"/>
<text text-anchor="start" x="73.5" y="-1013.9" font-family="Arial" font-size="14.00" fill="#000000">isauthorizationreq    </text>
<text text-anchor="start" x="218.1704" y="-1013.9" font-family="Arial" font-size="14.00" fill="#666666">[boolean]</text>
<polygon fill="none" stroke="#000000" points="66.5,-972.5 66.5,-1002.5 404.5,-1002.5 404.5,-972.5 66.5,-972.5"/>
<text text-anchor="start" x="73.5" y="-983.9" font-family="Arial" font-size="14.00" fill="#000000">mnuclosepending    </text>
<text text-anchor="start" x="217.4046" y="-983.9" font-family="Arial" font-size="14.00" fill="#666666">[boolean]</text>
<polygon fill="none" stroke="#000000" points="66.5,-942.5 66.5,-972.5 404.5,-972.5 404.5,-942.5 66.5,-942.5"/>
<text text-anchor="start" x="73.5" y="-953.9" font-family="Arial" font-size="14.00" fill="#000000">visible    </text>
<text text-anchor="start" x="146.5898" y="-953.9" font-family="Arial" font-size="14.00" fill="#666666">[boolean]</text>
<polygon fill="none" stroke="#000000" points="66.5,-912.5 66.5,-942.5 404.5,-942.5 404.5,-912.5 66.5,-912.5"/>
<text text-anchor="start" x="73.5" y="-923.9" font-family="Arial" font-size="14.00" fill="#000000">mnucanceltransaction    </text>
<text text-anchor="start" x="243.8464" y="-923.9" font-family="Arial" font-size="14.00" fill="#666666">[boolean]</text>
<polygon fill="none" stroke="#000000" points="66.5,-882.5 66.5,-912.5 404.5,-912.5 404.5,-882.5 66.5,-882.5"/>
<text text-anchor="start" x="73.5" y="-893.9" font-family="Arial" font-size="14.00" fill="#000000">formgroupid    </text>
<text text-anchor="start" x="182.3794" y="-893.9" font-family="Arial" font-size="14.00" fill="#666666">[integer]</text>
<polygon fill="none" stroke="#000000" points="66.5,-852.5 66.5,-882.5 404.5,-882.5 404.5,-852.5 66.5,-852.5"/>
<text text-anchor="start" x="73.5" y="-863.9" font-family="Arial" font-size="14.00" fill="#000000">allowbackdateentry    </text>
<text text-anchor="start" x="227.5098" y="-863.9" font-family="Arial" font-size="14.00" fill="#666666">[boolean]</text>
<polygon fill="none" stroke="#000000" points="66.5,-822.5 66.5,-852.5 404.5,-852.5 404.5,-822.5 66.5,-822.5"/>
<text text-anchor="start" x="73.5" y="-833.9" font-family="Arial" font-size="14.00" fill="#000000">isheadauthorizationreq    </text>
<text text-anchor="start" x="249.3008" y="-833.9" font-family="Arial" font-size="14.00" fill="#666666">[boolean]</text>
<polygon fill="none" stroke="#000000" points="66.5,-792.5 66.5,-822.5 404.5,-822.5 404.5,-792.5 66.5,-792.5"/>
<text text-anchor="start" x="73.5" y="-803.9" font-family="Arial" font-size="14.00" fill="#000000">roundoffitemlevelamt    </text>
<text text-anchor="start" x="237.6122" y="-803.9" font-family="Arial" font-size="14.00" fill="#666666">[integer]</text>
<polygon fill="none" stroke="#000000" points="66.5,-762.5 66.5,-792.5 404.5,-792.5 404.5,-762.5 66.5,-762.5"/>
<text text-anchor="start" x="73.5" y="-773.9" font-family="Arial" font-size="14.00" fill="#000000">mnuattachment    </text>
<text text-anchor="start" x="204.176" y="-773.9" font-family="Arial" font-size="14.00" fill="#666666">[boolean]</text>
<polygon fill="none" stroke="#000000" points="66.5,-732.5 66.5,-762.5 404.5,-762.5 404.5,-732.5 66.5,-732.5"/>
<text text-anchor="start" x="73.5" y="-743.9" font-family="Arial" font-size="14.00" fill="#000000">mnuviewattachment    </text>
<text text-anchor="start" x="232.1718" y="-743.9" font-family="Arial" font-size="14.00" fill="#666666">[boolean]</text>
<polygon fill="none" stroke="#000000" points="66.5,-702.5 66.5,-732.5 404.5,-732.5 404.5,-702.5 66.5,-702.5"/>
<text text-anchor="start" x="73.5" y="-713.9" font-family="Arial" font-size="14.00" fill="#000000">bamount_auth_enable    </text>
<text text-anchor="start" x="246.9922" y="-713.9" font-family="Arial" font-size="14.00" fill="#666666">[boolean]</text>
<polygon fill="none" stroke="#000000" points="66.5,-672.5 66.5,-702.5 404.5,-702.5 404.5,-672.5 66.5,-672.5"/>
<text text-anchor="start" x="73.5" y="-683.9" font-family="Arial" font-size="14.00" fill="#000000">formpath    </text>
<text text-anchor="start" x="162.9376" y="-683.9" font-family="Arial" font-size="14.00" fill="#666666">[text]</text>
<polygon fill="none" stroke="#000000" points="66.5,-642.5 66.5,-672.5 404.5,-672.5 404.5,-642.5 66.5,-642.5"/>
<text text-anchor="start" x="73.5" y="-653.9" font-family="Arial" font-size="14.00" fill="#000000">backdateenddate    </text>
<text text-anchor="start" x="215.0946" y="-653.9" font-family="Arial" font-size="14.00" fill="#666666">[date]</text>
<polygon fill="none" stroke="#000000" points="66.5,-612.5 66.5,-642.5 404.5,-642.5 404.5,-612.5 66.5,-612.5"/>
<text text-anchor="start" x="73.5" y="-623.9" font-family="Arial" font-size="14.00" fill="#000000">saveandprint    </text>
<text text-anchor="start" x="187.8408" y="-623.9" font-family="Arial" font-size="14.00" fill="#666666">[boolean]</text>
<polygon fill="none" stroke="#000000" points="66.5,-582.5 66.5,-612.5 404.5,-612.5 404.5,-582.5 66.5,-582.5"/>
<text text-anchor="start" x="73.5" y="-593.9" font-family="Arial" font-size="14.00" fill="#000000">saveandauthorize    </text>
<text text-anchor="start" x="218.1886" y="-593.9" font-family="Arial" font-size="14.00" fill="#666666">[boolean]</text>
<polygon fill="none" stroke="#000000" points="66.5,-552.5 66.5,-582.5 404.5,-582.5 404.5,-552.5 66.5,-552.5"/>
<text text-anchor="start" x="73.5" y="-563.9" font-family="Arial" font-size="14.00" fill="#000000">mnucreatestructure    </text>
<text text-anchor="start" x="228.2798" y="-563.9" font-family="Arial" font-size="14.00" fill="#666666">[boolean]</text>
<polygon fill="none" stroke="#000000" points="66.5,-522.5 66.5,-552.5 404.5,-552.5 404.5,-522.5 66.5,-522.5"/>
<text text-anchor="start" x="73.5" y="-533.9" font-family="Arial" font-size="14.00" fill="#000000">mnuimport    </text>
<text text-anchor="start" x="173.8142" y="-533.9" font-family="Arial" font-size="14.00" fill="#666666">[boolean]</text>
<polygon fill="none" stroke="#000000" points="66.5,-492.5 66.5,-522.5 404.5,-522.5 404.5,-492.5 66.5,-492.5"/>
<text text-anchor="start" x="73.5" y="-503.9" font-family="Arial" font-size="14.00" fill="#000000">tb_name    </text>
<text text-anchor="start" x="162.169" y="-503.9" font-family="Arial" font-size="14.00" fill="#666666">[varchar]</text>
<polygon fill="none" stroke="#000000" points="66.5,-462.5 66.5,-492.5 404.5,-492.5 404.5,-462.5 66.5,-462.5"/>
<text text-anchor="start" x="73.5" y="-473.9" font-family="Arial" font-size="14.00" fill="#000000">mnuprintserial    </text>
<text text-anchor="start" x="195.5926" y="-473.9" font-family="Arial" font-size="14.00" fill="#666666">[boolean]</text>
<polygon fill="none" stroke="#000000" points="66.5,-432.5 66.5,-462.5 404.5,-462.5 404.5,-432.5 66.5,-432.5"/>
<text text-anchor="start" x="73.5" y="-443.9" font-family="Arial" font-size="14.00" fill="#000000">mnuemail    </text>
<text text-anchor="start" x="168.3696" y="-443.9" font-family="Arial" font-size="14.00" fill="#666666">[boolean]</text>
<polygon fill="none" stroke="#000000" points="66.5,-402.5 66.5,-432.5 404.5,-432.5 404.5,-402.5 66.5,-402.5"/>
<text text-anchor="start" x="73.5" y="-413.9" font-family="Arial" font-size="14.00" fill="#000000">mnuunauthorize    </text>
<text text-anchor="start" x="208.0666" y="-413.9" font-family="Arial" font-size="14.00" fill="#666666">[boolean]</text>
<polygon fill="none" stroke="#000000" points="66.5,-372.5 66.5,-402.5 404.5,-402.5 404.5,-372.5 66.5,-372.5"/>
<text text-anchor="start" x="73.5" y="-383.9" font-family="Arial" font-size="14.00" fill="#000000">report_id    </text>
<text text-anchor="start" x="162.9362" y="-383.9" font-family="Arial" font-size="14.00" fill="#666666">[integer]</text>
<polygon fill="none" stroke="#000000" points="66.5,-342.5 66.5,-372.5 404.5,-372.5 404.5,-342.5 66.5,-342.5"/>
<text text-anchor="start" x="73.5" y="-353.9" font-family="Arial" font-size="14.00" fill="#000000">isautomail    </text>
<text text-anchor="start" x="170.7062" y="-353.9" font-family="Arial" font-size="14.00" fill="#666666">[boolean]</text>
<polygon fill="none" stroke="#000000" points="66.5,-312.5 66.5,-342.5 404.5,-342.5 404.5,-312.5 66.5,-312.5"/>
<text text-anchor="start" x="73.5" y="-323.9" font-family="Arial" font-size="14.00" fill="#000000">printfromdbqry    </text>
<text text-anchor="start" x="197.9306" y="-323.9" font-family="Arial" font-size="14.00" fill="#666666">[boolean]</text>
<polygon fill="none" stroke="#000000" points="66.5,-282.5 66.5,-312.5 404.5,-312.5 404.5,-282.5 66.5,-282.5"/>
<text text-anchor="start" x="73.5" y="-293.9" font-family="Arial" font-size="14.00" fill="#000000">showitemattributeonreport    </text>
<text text-anchor="start" x="269.5112" y="-293.9" font-family="Arial" font-size="14.00" fill="#666666">[boolean]</text>
<polygon fill="none" stroke="#000000" points="66.5,-252.5 66.5,-282.5 404.5,-282.5 404.5,-252.5 66.5,-252.5"/>
<text text-anchor="start" x="73.5" y="-263.9" font-family="Arial" font-size="14.00" fill="#000000">bydefaultselectallitemattribute    </text>
<text text-anchor="start" x="292.0736" y="-263.9" font-family="Arial" font-size="14.00" fill="#666666">[boolean]</text>
<polygon fill="none" stroke="#000000" points="66.5,-222.5 66.5,-252.5 404.5,-252.5 404.5,-222.5 66.5,-222.5"/>
<text text-anchor="start" x="73.5" y="-233.9" font-family="Arial" font-size="14.00" fill="#000000">helpurl    </text>
<text text-anchor="start" x="149.709" y="-233.9" font-family="Arial" font-size="14.00" fill="#666666">[text]</text>
<polygon fill="none" stroke="#000000" points="66.5,-192.5 66.5,-222.5 404.5,-222.5 404.5,-192.5 66.5,-192.5"/>
<text text-anchor="start" x="73.5" y="-203.9" font-family="Arial" font-size="14.00" fill="#000000">roundoffitemlevelgstrate    </text>
<text text-anchor="start" x="257.068" y="-203.9" font-family="Arial" font-size="14.00" fill="#666666">[integer]</text>
<polygon fill="none" stroke="#000000" points="66.5,-162.5 66.5,-192.5 404.5,-192.5 404.5,-162.5 66.5,-162.5"/>
<text text-anchor="start" x="73.5" y="-173.9" font-family="Arial" font-size="14.00" fill="#000000">isforglobalseries    </text>
<text text-anchor="start" x="208.8212" y="-173.9" font-family="Arial" font-size="14.00" fill="#666666">[boolean]</text>
<polygon fill="none" stroke="#000000" points="66.5,-132.5 66.5,-162.5 404.5,-162.5 404.5,-132.5 66.5,-132.5"/>
<text text-anchor="start" x="73.5" y="-143.9" font-family="Arial" font-size="14.00" fill="#000000">saveandprintbarcode    </text>
<text text-anchor="start" x="238.4144" y="-143.9" font-family="Arial" font-size="14.00" fill="#666666">[boolean]</text>
<polygon fill="none" stroke="#000000" points="66.5,-102.5 66.5,-132.5 404.5,-132.5 404.5,-102.5 66.5,-102.5"/>
<text text-anchor="start" x="73.5" y="-113.9" font-family="Arial" font-size="14.00" fill="#000000">discperdecimallimit    </text>
<text text-anchor="start" x="225.9124" y="-113.9" font-family="Arial" font-size="14.00" fill="#666666">[integer]</text>
<polygon fill="none" stroke="#000000" points="66.5,-72.5 66.5,-102.5 404.5,-102.5 404.5,-72.5 66.5,-72.5"/>
<text text-anchor="start" x="73.5" y="-83.9" font-family="Arial" font-size="14.00" fill="#000000">isbackdateimpact    </text>
<text text-anchor="start" x="215.838" y="-83.9" font-family="Arial" font-size="14.00" fill="#666666">[boolean]</text>
<polygon fill="none" stroke="#000000" points="66.5,-42.5 66.5,-72.5 404.5,-72.5 404.5,-42.5 66.5,-42.5"/>
<text text-anchor="start" x="73.5" y="-53.9" font-family="Arial" font-size="14.00" fill="#000000">mnuwhatsapp    </text>
<text text-anchor="start" x="194.8408" y="-53.9" font-family="Arial" font-size="14.00" fill="#666666">[boolean]</text>
</g>
<!-- public.pur_inspectionaftermrn&#45;&gt;public.comn_formmaster -->
<g id="edge1" class="edge">
<title>public.pur_inspectionaftermrn:formid&#45;&gt;public.comn_formmaster:formid</title>
<path fill="none" stroke="#000000" d="M433.6811,-1806.9757C528.0112,-1796.8845 492.8097,-1643.6504 423.5,-1567 370.0215,-1507.8575 119.9785,-1590.1425 66.5,-1531 38.6288,-1500.1769 24.9444,-1437.5 66.5,-1437.5"/>
<polygon fill="#000000" stroke="#000000" points="433.4868,-1806.9856 423.2685,-1803.006 428.4934,-1807.2428 423.5,-1807.5 423.5,-1807.5 423.5,-1807.5 428.4934,-1807.2428 423.7315,-1811.994 433.4868,-1806.9856 433.4868,-1806.9856"/>
<text text-anchor="start" x="430.2865" y="-1817.5" font-family="Arial" font-size="10.00" fill="#000000">FOREIGN KEY (formid) REFERENCES comn_formmaster(formid)</text>
</g>
</g>
</svg>
