<?xml version="1.0" encoding="UTF-8" standalone="no"?>
<!DOCTYPE svg PUBLIC "-//W3C//DTD SVG 1.1//EN"
 "http://www.w3.org/Graphics/SVG/1.1/DTD/svg11.dtd">
<!-- Generated by graphviz version 2.40.1 (20161225.0304)
 -->
<!-- Title: public.comn_customerratingconfiguration Pages: 1 -->
<svg width="569pt" height="315pt"
 viewBox="0.00 0.00 569.00 315.00" xmlns="http://www.w3.org/2000/svg" xmlns:xlink="http://www.w3.org/1999/xlink">
<g id="graph0" class="graph" transform="scale(1 1) rotate(0) translate(4 311)">
<title>public.comn_customerratingconfiguration</title>
<polygon fill="#ffffff" stroke="transparent" points="-4,4 -4,-311 565,-311 565,4 -4,4"/>
<!-- public.comn_customerratingconfiguration -->
<g id="node1" class="node">
<title>public.comn_customerratingconfiguration</title>
<polygon fill="#efefef" stroke="transparent" points="46.5,-225.5 46.5,-260.5 515.5,-260.5 515.5,-225.5 46.5,-225.5"/>
<polygon fill="none" stroke="#000000" points="46.5,-225.5 46.5,-260.5 515.5,-260.5 515.5,-225.5 46.5,-225.5"/>
<text text-anchor="start" x="53.1856" y="-238.3" font-family="Arial Bold" font-size="18.00" fill="#000000">public.comn_customerratingconfiguration</text>
<text text-anchor="start" x="381.2464" y="-238.3" font-family="Arial" font-size="14.00" fill="#000000">    </text>
<text text-anchor="start" x="415.4512" y="-238.3" font-family="Arial" font-size="14.00" fill="#666666">[BASE TABLE]</text>
<polygon fill="none" stroke="#000000" points="46.5,-195.5 46.5,-225.5 515.5,-225.5 515.5,-195.5 46.5,-195.5"/>
<text text-anchor="start" x="53.5" y="-206.9" font-family="Arial" font-size="14.00" fill="#000000">tableid </text>
<text text-anchor="start" x="98.6248" y="-206.9" font-family="Arial" font-size="14.00" fill="#666666">[integer]</text>
<polygon fill="none" stroke="#000000" points="46.5,-165.5 46.5,-195.5 515.5,-195.5 515.5,-165.5 46.5,-165.5"/>
<text text-anchor="start" x="53.5" y="-176.9" font-family="Arial" font-size="14.00" fill="#000000">fromoddays </text>
<text text-anchor="start" x="130.5154" y="-176.9" font-family="Arial" font-size="14.00" fill="#666666">[integer]</text>
<polygon fill="none" stroke="#000000" points="46.5,-135.5 46.5,-165.5 515.5,-165.5 515.5,-135.5 46.5,-135.5"/>
<text text-anchor="start" x="53.5" y="-146.9" font-family="Arial" font-size="14.00" fill="#000000">tooddays </text>
<text text-anchor="start" x="114.1942" y="-146.9" font-family="Arial" font-size="14.00" fill="#666666">[integer]</text>
<polygon fill="none" stroke="#000000" points="46.5,-105.5 46.5,-135.5 515.5,-135.5 515.5,-105.5 46.5,-105.5"/>
<text text-anchor="start" x="53.5" y="-116.9" font-family="Arial" font-size="14.00" fill="#000000">chequebounceinmonth </text>
<text text-anchor="start" x="199.0048" y="-116.9" font-family="Arial" font-size="14.00" fill="#666666">[integer]</text>
<polygon fill="none" stroke="#000000" points="46.5,-75.5 46.5,-105.5 515.5,-105.5 515.5,-75.5 46.5,-75.5"/>
<text text-anchor="start" x="53.5" y="-86.9" font-family="Arial" font-size="14.00" fill="#000000">newcreditlimitpercentage </text>
<text text-anchor="start" x="212.1858" y="-86.9" font-family="Arial" font-size="14.00" fill="#666666">[integer]</text>
<polygon fill="none" stroke="#000000" points="46.5,-45.5 46.5,-75.5 515.5,-75.5 515.5,-45.5 46.5,-45.5"/>
<text text-anchor="start" x="53.5" y="-56.9" font-family="Arial" font-size="14.00" fill="#000000">ratings </text>
<text text-anchor="start" x="99.3962" y="-56.9" font-family="Arial" font-size="14.00" fill="#666666">[varchar(255)]</text>
<polygon fill="none" stroke="#000000" stroke-width="3" points="44.5,-44.5 44.5,-262.5 516.5,-262.5 516.5,-44.5 44.5,-44.5"/>
</g>
</g>
</svg>
