<?xml version="1.0" encoding="UTF-8" standalone="no"?>
<!DOCTYPE svg PUBLIC "-//W3C//DTD SVG 1.1//EN"
 "http://www.w3.org/Graphics/SVG/1.1/DTD/svg11.dtd">
<!-- Generated by graphviz version 2.40.1 (20161225.0304)
 -->
<!-- Title: public.comn_whatsapp_setting Pages: 1 -->
<svg width="487pt" height="255pt"
 viewBox="0.00 0.00 487.00 255.00" xmlns="http://www.w3.org/2000/svg" xmlns:xlink="http://www.w3.org/1999/xlink">
<g id="graph0" class="graph" transform="scale(1 1) rotate(0) translate(4 251)">
<title>public.comn_whatsapp_setting</title>
<polygon fill="#ffffff" stroke="transparent" points="-4,4 -4,-251 483,-251 483,4 -4,4"/>
<!-- public.comn_whatsapp_setting -->
<g id="node1" class="node">
<title>public.comn_whatsapp_setting</title>
<polygon fill="#efefef" stroke="transparent" points="46.5,-165.5 46.5,-200.5 433.5,-200.5 433.5,-165.5 46.5,-165.5"/>
<polygon fill="none" stroke="#000000" points="46.5,-165.5 46.5,-200.5 433.5,-200.5 433.5,-165.5 46.5,-165.5"/>
<text text-anchor="start" x="53.1806" y="-178.3" font-family="Arial Bold" font-size="18.00" fill="#000000">public.comn_whatsapp_setting</text>
<text text-anchor="start" x="299.2514" y="-178.3" font-family="Arial" font-size="14.00" fill="#000000">    </text>
<text text-anchor="start" x="333.4562" y="-178.3" font-family="Arial" font-size="14.00" fill="#666666">[BASE TABLE]</text>
<polygon fill="none" stroke="#000000" points="46.5,-135.5 46.5,-165.5 433.5,-165.5 433.5,-135.5 46.5,-135.5"/>
<text text-anchor="start" x="53.5" y="-146.9" font-family="Arial" font-size="14.00" fill="#000000">setting </text>
<text text-anchor="start" x="98.6262" y="-146.9" font-family="Arial" font-size="14.00" fill="#666666">[integer]</text>
<polygon fill="none" stroke="#000000" points="46.5,-105.5 46.5,-135.5 433.5,-135.5 433.5,-105.5 46.5,-105.5"/>
<text text-anchor="start" x="53.5" y="-116.9" font-family="Arial" font-size="14.00" fill="#000000">t_limit </text>
<text text-anchor="start" x="93.9348" y="-116.9" font-family="Arial" font-size="14.00" fill="#666666">[integer]</text>
<polygon fill="none" stroke="#000000" points="46.5,-75.5 46.5,-105.5 433.5,-105.5 433.5,-75.5 46.5,-75.5"/>
<text text-anchor="start" x="53.5" y="-86.9" font-family="Arial" font-size="14.00" fill="#000000">valid_upto </text>
<text text-anchor="start" x="121.19" y="-86.9" font-family="Arial" font-size="14.00" fill="#666666">[date]</text>
<polygon fill="none" stroke="#000000" points="46.5,-45.5 46.5,-75.5 433.5,-75.5 433.5,-45.5 46.5,-45.5"/>
<text text-anchor="start" x="53.5" y="-56.9" font-family="Arial" font-size="14.00" fill="#000000">send_count </text>
<text text-anchor="start" x="129.7594" y="-56.9" font-family="Arial" font-size="14.00" fill="#666666">[integer]</text>
<polygon fill="none" stroke="#000000" stroke-width="3" points="44.5,-44.5 44.5,-202.5 434.5,-202.5 434.5,-44.5 44.5,-44.5"/>
</g>
</g>
</svg>
