<?xml version="1.0" encoding="UTF-8" standalone="no"?>
<!DOCTYPE svg PUBLIC "-//W3C//DTD SVG 1.1//EN"
 "http://www.w3.org/Graphics/SVG/1.1/DTD/svg11.dtd">
<!-- Generated by graphviz version 2.40.1 (20161225.0304)
 -->
<!-- Title: public.pur_debitnote_rebatedetails Pages: 1 -->
<svg width="516pt" height="555pt"
 viewBox="0.00 0.00 516.00 555.00" xmlns="http://www.w3.org/2000/svg" xmlns:xlink="http://www.w3.org/1999/xlink">
<g id="graph0" class="graph" transform="scale(1 1) rotate(0) translate(4 551)">
<title>public.pur_debitnote_rebatedetails</title>
<polygon fill="#ffffff" stroke="transparent" points="-4,4 -4,-551 512,-551 512,4 -4,4"/>
<!-- public.pur_debitnote_rebatedetails -->
<g id="node1" class="node">
<title>public.pur_debitnote_rebatedetails</title>
<polygon fill="#efefef" stroke="transparent" points="46,-465.5 46,-500.5 462,-500.5 462,-465.5 46,-465.5"/>
<polygon fill="none" stroke="#000000" points="46,-465.5 46,-500.5 462,-500.5 462,-465.5 46,-465.5"/>
<text text-anchor="start" x="52.6708" y="-478.3" font-family="Arial Bold" font-size="18.00" fill="#000000">public.pur_debitnote_rebatedetails</text>
<text text-anchor="start" x="327.7612" y="-478.3" font-family="Arial" font-size="14.00" fill="#000000">    </text>
<text text-anchor="start" x="361.966" y="-478.3" font-family="Arial" font-size="14.00" fill="#666666">[BASE TABLE]</text>
<polygon fill="none" stroke="#000000" points="46,-435.5 46,-465.5 462,-465.5 462,-435.5 46,-435.5"/>
<text text-anchor="start" x="53" y="-446.9" font-family="Arial" font-size="14.00" fill="#000000">dndetailid </text>
<text text-anchor="start" x="116.7966" y="-446.9" font-family="Arial" font-size="14.00" fill="#666666">[integer]</text>
<polygon fill="none" stroke="#000000" points="46,-405.5 46,-435.5 462,-435.5 462,-405.5 46,-405.5"/>
<text text-anchor="start" x="53" y="-416.9" font-family="Arial" font-size="14.00" fill="#000000">invoiceid </text>
<text text-anchor="start" x="111.3408" y="-416.9" font-family="Arial" font-size="14.00" fill="#666666">[integer]</text>
<polygon fill="none" stroke="#000000" points="46,-375.5 46,-405.5 462,-405.5 462,-375.5 46,-375.5"/>
<text text-anchor="start" x="53" y="-386.9" font-family="Arial" font-size="14.00" fill="#000000">itemid </text>
<text text-anchor="start" x="94.2202" y="-386.9" font-family="Arial" font-size="14.00" fill="#666666">[integer]</text>
<polygon fill="none" stroke="#000000" points="46,-345.5 46,-375.5 462,-375.5 462,-345.5 46,-345.5"/>
<text text-anchor="start" x="53" y="-356.9" font-family="Arial" font-size="14.00" fill="#000000">parameterdetailid </text>
<text text-anchor="start" x="165.0168" y="-356.9" font-family="Arial" font-size="14.00" fill="#666666">[integer]</text>
<polygon fill="none" stroke="#000000" points="46,-315.5 46,-345.5 462,-345.5 462,-315.5 46,-315.5"/>
<text text-anchor="start" x="53" y="-326.9" font-family="Arial" font-size="14.00" fill="#000000">qualitytestparameterid </text>
<text text-anchor="start" x="194.5806" y="-326.9" font-family="Arial" font-size="14.00" fill="#666666">[integer]</text>
<polygon fill="none" stroke="#000000" points="46,-285.5 46,-315.5 462,-315.5 462,-285.5 46,-285.5"/>
<text text-anchor="start" x="53" y="-296.9" font-family="Arial" font-size="14.00" fill="#000000">inspectionid </text>
<text text-anchor="start" x="130.7966" y="-296.9" font-family="Arial" font-size="14.00" fill="#666666">[integer]</text>
<polygon fill="none" stroke="#000000" points="46,-255.5 46,-285.5 462,-285.5 462,-255.5 46,-255.5"/>
<text text-anchor="start" x="53" y="-266.9" font-family="Arial" font-size="14.00" fill="#000000">pi_invoiceid </text>
<text text-anchor="start" x="130.0126" y="-266.9" font-family="Arial" font-size="14.00" fill="#666666">[integer]</text>
<polygon fill="none" stroke="#000000" points="46,-225.5 46,-255.5 462,-255.5 462,-225.5 46,-225.5"/>
<text text-anchor="start" x="53" y="-236.9" font-family="Arial" font-size="14.00" fill="#000000">pi_invoicedetailid </text>
<text text-anchor="start" x="163.4642" y="-236.9" font-family="Arial" font-size="14.00" fill="#666666">[integer]</text>
<polygon fill="none" stroke="#000000" points="46,-195.5 46,-225.5 462,-225.5 462,-195.5 46,-195.5"/>
<text text-anchor="start" x="53" y="-206.9" font-family="Arial" font-size="14.00" fill="#000000">invoiceamount </text>
<text text-anchor="start" x="147.1332" y="-206.9" font-family="Arial" font-size="14.00" fill="#666666">[numeric(20,2)]</text>
<polygon fill="none" stroke="#000000" points="46,-165.5 46,-195.5 462,-195.5 462,-165.5 46,-165.5"/>
<text text-anchor="start" x="53" y="-176.9" font-family="Arial" font-size="14.00" fill="#000000">stdvalue </text>
<text text-anchor="start" x="109.0182" y="-176.9" font-family="Arial" font-size="14.00" fill="#666666">[numeric(20,2)]</text>
<polygon fill="none" stroke="#000000" points="46,-135.5 46,-165.5 462,-165.5 462,-135.5 46,-135.5"/>
<text text-anchor="start" x="53" y="-146.9" font-family="Arial" font-size="14.00" fill="#000000">mainvalue </text>
<text text-anchor="start" x="120.6774" y="-146.9" font-family="Arial" font-size="14.00" fill="#666666">[numeric(20,2)]</text>
<polygon fill="none" stroke="#000000" points="46,-105.5 46,-135.5 462,-135.5 462,-105.5 46,-105.5"/>
<text text-anchor="start" x="53" y="-116.9" font-family="Arial" font-size="14.00" fill="#000000">rebateunit </text>
<text text-anchor="start" x="119.1346" y="-116.9" font-family="Arial" font-size="14.00" fill="#666666">[numeric(20,2)]</text>
<polygon fill="none" stroke="#000000" points="46,-75.5 46,-105.5 462,-105.5 462,-75.5 46,-75.5"/>
<text text-anchor="start" x="53" y="-86.9" font-family="Arial" font-size="14.00" fill="#000000">rebaterate </text>
<text text-anchor="start" x="120.6886" y="-86.9" font-family="Arial" font-size="14.00" fill="#666666">[numeric(20,2)]</text>
<polygon fill="none" stroke="#000000" points="46,-45.5 46,-75.5 462,-75.5 462,-45.5 46,-45.5"/>
<text text-anchor="start" x="53" y="-56.9" font-family="Arial" font-size="14.00" fill="#000000">rebateamount </text>
<text text-anchor="start" x="143.2538" y="-56.9" font-family="Arial" font-size="14.00" fill="#666666">[numeric(20,2)]</text>
<polygon fill="none" stroke="#000000" stroke-width="3" points="44.5,-44.5 44.5,-502.5 463.5,-502.5 463.5,-44.5 44.5,-44.5"/>
</g>
</g>
</svg>
