<?xml version="1.0" encoding="UTF-8" standalone="no"?>
<!DOCTYPE svg PUBLIC "-//W3C//DTD SVG 1.1//EN"
 "http://www.w3.org/Graphics/SVG/1.1/DTD/svg11.dtd">
<!-- Generated by graphviz version 2.40.1 (20161225.0304)
 -->
<!-- Title: public.pay_compoff_calc Pages: 1 -->
<svg width="438pt" height="375pt"
 viewBox="0.00 0.00 438.00 375.00" xmlns="http://www.w3.org/2000/svg" xmlns:xlink="http://www.w3.org/1999/xlink">
<g id="graph0" class="graph" transform="scale(1 1) rotate(0) translate(4 371)">
<title>public.pay_compoff_calc</title>
<polygon fill="#ffffff" stroke="transparent" points="-4,4 -4,-371 434,-371 434,4 -4,4"/>
<!-- public.pay_compoff_calc -->
<g id="node1" class="node">
<title>public.pay_compoff_calc</title>
<polygon fill="#efefef" stroke="transparent" points="46,-285.5 46,-320.5 384,-320.5 384,-285.5 46,-285.5"/>
<polygon fill="none" stroke="#000000" points="46,-285.5 46,-320.5 384,-320.5 384,-285.5 46,-285.5"/>
<text text-anchor="start" x="52.6912" y="-298.3" font-family="Arial Bold" font-size="18.00" fill="#000000">public.pay_compoff_calc</text>
<text text-anchor="start" x="249.7408" y="-298.3" font-family="Arial" font-size="14.00" fill="#000000">    </text>
<text text-anchor="start" x="283.9456" y="-298.3" font-family="Arial" font-size="14.00" fill="#666666">[BASE TABLE]</text>
<polygon fill="none" stroke="#000000" points="46,-255.5 46,-285.5 384,-285.5 384,-255.5 46,-255.5"/>
<text text-anchor="start" x="53" y="-266.9" font-family="Arial" font-size="14.00" fill="#000000">payperiodid </text>
<text text-anchor="start" x="129.2426" y="-266.9" font-family="Arial" font-size="14.00" fill="#666666">[integer]</text>
<polygon fill="none" stroke="#000000" points="46,-225.5 46,-255.5 384,-255.5 384,-225.5 46,-225.5"/>
<text text-anchor="start" x="53" y="-236.9" font-family="Arial" font-size="14.00" fill="#000000">branchid </text>
<text text-anchor="start" x="110.5708" y="-236.9" font-family="Arial" font-size="14.00" fill="#666666">[integer]</text>
<polygon fill="none" stroke="#000000" points="46,-195.5 46,-225.5 384,-225.5 384,-195.5 46,-195.5"/>
<text text-anchor="start" x="53" y="-206.9" font-family="Arial" font-size="14.00" fill="#000000">empid </text>
<text text-anchor="start" x="95.0056" y="-206.9" font-family="Arial" font-size="14.00" fill="#666666">[integer]</text>
<polygon fill="none" stroke="#000000" points="46,-165.5 46,-195.5 384,-195.5 384,-165.5 46,-165.5"/>
<text text-anchor="start" x="53" y="-176.9" font-family="Arial" font-size="14.00" fill="#000000">attn_date </text>
<text text-anchor="start" x="115.258" y="-176.9" font-family="Arial" font-size="14.00" fill="#666666">[date]</text>
<polygon fill="none" stroke="#000000" points="46,-135.5 46,-165.5 384,-165.5 384,-135.5 46,-135.5"/>
<text text-anchor="start" x="53" y="-146.9" font-family="Arial" font-size="14.00" fill="#000000">valid_upto_date </text>
<text text-anchor="start" x="155.711" y="-146.9" font-family="Arial" font-size="14.00" fill="#666666">[date]</text>
<polygon fill="none" stroke="#000000" points="46,-105.5 46,-135.5 384,-135.5 384,-105.5 46,-105.5"/>
<text text-anchor="start" x="53" y="-116.9" font-family="Arial" font-size="14.00" fill="#000000">t_days </text>
<text text-anchor="start" x="98.129" y="-116.9" font-family="Arial" font-size="14.00" fill="#666666">[numeric]</text>
<polygon fill="none" stroke="#000000" points="46,-75.5 46,-105.5 384,-105.5 384,-75.5 46,-75.5"/>
<text text-anchor="start" x="53" y="-86.9" font-family="Arial" font-size="14.00" fill="#000000">t_type </text>
<text text-anchor="start" x="95.0196" y="-86.9" font-family="Arial" font-size="14.00" fill="#666666">[integer]</text>
<polygon fill="none" stroke="#000000" points="46,-45.5 46,-75.5 384,-75.5 384,-45.5 46,-45.5"/>
<text text-anchor="start" x="53" y="-56.9" font-family="Arial" font-size="14.00" fill="#000000">is_used </text>
<text text-anchor="start" x="105.1276" y="-56.9" font-family="Arial" font-size="14.00" fill="#666666">[boolean]</text>
<polygon fill="none" stroke="#000000" stroke-width="3" points="44.5,-44.5 44.5,-322.5 385.5,-322.5 385.5,-44.5 44.5,-44.5"/>
</g>
</g>
</svg>
