<?xml version="1.0" encoding="UTF-8" standalone="no"?>
<!DOCTYPE svg PUBLIC "-//W3C//DTD SVG 1.1//EN"
 "http://www.w3.org/Graphics/SVG/1.1/DTD/svg11.dtd">
<!-- Generated by graphviz version 2.40.1 (20161225.0304)
 -->
<!-- Title: public.sale_deliverynotedetail Pages: 1 -->
<svg width="476pt" height="1785pt"
 viewBox="0.00 0.00 476.00 1785.00" xmlns="http://www.w3.org/2000/svg" xmlns:xlink="http://www.w3.org/1999/xlink">
<g id="graph0" class="graph" transform="scale(1 1) rotate(0) translate(4 1781)">
<title>public.sale_deliverynotedetail</title>
<polygon fill="#ffffff" stroke="transparent" points="-4,4 -4,-1781 472,-1781 472,4 -4,4"/>
<!-- public.sale_deliverynotedetail -->
<g id="node1" class="node">
<title>public.sale_deliverynotedetail</title>
<polygon fill="#efefef" stroke="transparent" points="46,-1695.5 46,-1730.5 422,-1730.5 422,-1695.5 46,-1695.5"/>
<polygon fill="none" stroke="#000000" points="46,-1695.5 46,-1730.5 422,-1730.5 422,-1695.5 46,-1695.5"/>
<text text-anchor="start" x="52.6904" y="-1708.3" font-family="Arial Bold" font-size="18.00" fill="#000000">public.sale_deliverynotedetail</text>
<text text-anchor="start" x="287.7416" y="-1708.3" font-family="Arial" font-size="14.00" fill="#000000">    </text>
<text text-anchor="start" x="321.9464" y="-1708.3" font-family="Arial" font-size="14.00" fill="#666666">[BASE TABLE]</text>
<polygon fill="none" stroke="#000000" points="46,-1665.5 46,-1695.5 422,-1695.5 422,-1665.5 46,-1665.5"/>
<text text-anchor="start" x="53" y="-1676.9" font-family="Arial" font-size="14.00" fill="#000000">deliverynotedetailid </text>
<text text-anchor="start" x="176.6914" y="-1676.9" font-family="Arial" font-size="14.00" fill="#666666">[integer]</text>
<polygon fill="none" stroke="#000000" points="46,-1635.5 46,-1665.5 422,-1665.5 422,-1635.5 46,-1635.5"/>
<text text-anchor="start" x="53" y="-1646.9" font-family="Arial" font-size="14.00" fill="#000000">deliverynoteid </text>
<text text-anchor="start" x="143.2398" y="-1646.9" font-family="Arial" font-size="14.00" fill="#666666">[integer]</text>
<polygon fill="none" stroke="#000000" points="46,-1605.5 46,-1635.5 422,-1635.5 422,-1605.5 46,-1605.5"/>
<text text-anchor="start" x="53" y="-1616.9" font-family="Arial" font-size="14.00" fill="#000000">soid </text>
<text text-anchor="start" x="82.5624" y="-1616.9" font-family="Arial" font-size="14.00" fill="#666666">[integer]</text>
<polygon fill="none" stroke="#000000" points="46,-1575.5 46,-1605.5 422,-1605.5 422,-1575.5 46,-1575.5"/>
<text text-anchor="start" x="53" y="-1586.9" font-family="Arial" font-size="14.00" fill="#000000">sodetailid </text>
<text text-anchor="start" x="116.014" y="-1586.9" font-family="Arial" font-size="14.00" fill="#666666">[integer]</text>
<polygon fill="none" stroke="#000000" points="46,-1545.5 46,-1575.5 422,-1575.5 422,-1545.5 46,-1545.5"/>
<text text-anchor="start" x="53" y="-1556.9" font-family="Arial" font-size="14.00" fill="#000000">itemid </text>
<text text-anchor="start" x="94.2202" y="-1556.9" font-family="Arial" font-size="14.00" fill="#666666">[integer]</text>
<polygon fill="none" stroke="#000000" points="46,-1515.5 46,-1545.5 422,-1545.5 422,-1515.5 46,-1515.5"/>
<text text-anchor="start" x="53" y="-1526.9" font-family="Arial" font-size="14.00" fill="#000000">baseqty </text>
<text text-anchor="start" x="105.9116" y="-1526.9" font-family="Arial" font-size="14.00" fill="#666666">[numeric(15,5)]</text>
<polygon fill="none" stroke="#000000" points="46,-1485.5 46,-1515.5 422,-1515.5 422,-1485.5 46,-1485.5"/>
<text text-anchor="start" x="53" y="-1496.9" font-family="Arial" font-size="14.00" fill="#000000">altqty </text>
<text text-anchor="start" x="90.3436" y="-1496.9" font-family="Arial" font-size="14.00" fill="#666666">[numeric(15,5)]</text>
<polygon fill="none" stroke="#000000" points="46,-1455.5 46,-1485.5 422,-1485.5 422,-1455.5 46,-1455.5"/>
<text text-anchor="start" x="53" y="-1466.9" font-family="Arial" font-size="14.00" fill="#000000">isrejectedreturn </text>
<text text-anchor="start" x="153.345" y="-1466.9" font-family="Arial" font-size="14.00" fill="#666666">[boolean]</text>
<polygon fill="none" stroke="#000000" points="46,-1425.5 46,-1455.5 422,-1455.5 422,-1425.5 46,-1425.5"/>
<text text-anchor="start" x="53" y="-1436.9" font-family="Arial" font-size="14.00" fill="#000000">field1 </text>
<text text-anchor="start" x="90.3422" y="-1436.9" font-family="Arial" font-size="14.00" fill="#666666">[text]</text>
<polygon fill="none" stroke="#000000" points="46,-1395.5 46,-1425.5 422,-1425.5 422,-1395.5 46,-1395.5"/>
<text text-anchor="start" x="53" y="-1406.9" font-family="Arial" font-size="14.00" fill="#000000">field2 </text>
<text text-anchor="start" x="90.3422" y="-1406.9" font-family="Arial" font-size="14.00" fill="#666666">[text]</text>
<polygon fill="none" stroke="#000000" points="46,-1365.5 46,-1395.5 422,-1395.5 422,-1365.5 46,-1365.5"/>
<text text-anchor="start" x="53" y="-1376.9" font-family="Arial" font-size="14.00" fill="#000000">remarks </text>
<text text-anchor="start" x="107.4376" y="-1376.9" font-family="Arial" font-size="14.00" fill="#666666">[text]</text>
<polygon fill="none" stroke="#000000" points="46,-1335.5 46,-1365.5 422,-1365.5 422,-1335.5 46,-1335.5"/>
<text text-anchor="start" x="53" y="-1346.9" font-family="Arial" font-size="14.00" fill="#000000">costprice </text>
<text text-anchor="start" x="112.8962" y="-1346.9" font-family="Arial" font-size="14.00" fill="#666666">[numeric(17,5)]</text>
<polygon fill="none" stroke="#000000" points="46,-1305.5 46,-1335.5 422,-1335.5 422,-1305.5 46,-1305.5"/>
<text text-anchor="start" x="53" y="-1316.9" font-family="Arial" font-size="14.00" fill="#000000">totalcostprice </text>
<text text-anchor="start" x="139.3492" y="-1316.9" font-family="Arial" font-size="14.00" fill="#666666">[numeric(17,5)]</text>
<polygon fill="none" stroke="#000000" points="46,-1275.5 46,-1305.5 422,-1305.5 422,-1275.5 46,-1275.5"/>
<text text-anchor="start" x="53" y="-1286.9" font-family="Arial" font-size="14.00" fill="#000000">packqty </text>
<text text-anchor="start" x="105.129" y="-1286.9" font-family="Arial" font-size="14.00" fill="#666666">[numeric]</text>
<polygon fill="none" stroke="#000000" points="46,-1245.5 46,-1275.5 422,-1275.5 422,-1245.5 46,-1245.5"/>
<text text-anchor="start" x="53" y="-1256.9" font-family="Arial" font-size="14.00" fill="#000000">is_cost_updated </text>
<text text-anchor="start" x="158.8218" y="-1256.9" font-family="Arial" font-size="14.00" fill="#666666">[boolean]</text>
<polygon fill="none" stroke="#000000" points="46,-1215.5 46,-1245.5 422,-1245.5 422,-1215.5 46,-1215.5"/>
<text text-anchor="start" x="53" y="-1226.9" font-family="Arial" font-size="14.00" fill="#000000">grossweight </text>
<text text-anchor="start" x="131.568" y="-1226.9" font-family="Arial" font-size="14.00" fill="#666666">[numeric(21,5)]</text>
<polygon fill="none" stroke="#000000" points="46,-1185.5 46,-1215.5 422,-1215.5 422,-1185.5 46,-1185.5"/>
<text text-anchor="start" x="53" y="-1196.9" font-family="Arial" font-size="14.00" fill="#000000">netweight </text>
<text text-anchor="start" x="116.798" y="-1196.9" font-family="Arial" font-size="14.00" fill="#666666">[numeric(21,5)]</text>
<polygon fill="none" stroke="#000000" points="46,-1155.5 46,-1185.5 422,-1185.5 422,-1155.5 46,-1155.5"/>
<text text-anchor="start" x="53" y="-1166.9" font-family="Arial" font-size="14.00" fill="#000000">marknumberfrom </text>
<text text-anchor="start" x="163.4404" y="-1166.9" font-family="Arial" font-size="14.00" fill="#666666">[varchar(200)]</text>
<polygon fill="none" stroke="#000000" points="46,-1125.5 46,-1155.5 422,-1155.5 422,-1125.5 46,-1125.5"/>
<text text-anchor="start" x="53" y="-1136.9" font-family="Arial" font-size="14.00" fill="#000000">marknumberto </text>
<text text-anchor="start" x="147.1192" y="-1136.9" font-family="Arial" font-size="14.00" fill="#666666">[varchar(200)]</text>
<polygon fill="none" stroke="#000000" points="46,-1095.5 46,-1125.5 422,-1125.5 422,-1095.5 46,-1095.5"/>
<text text-anchor="start" x="53" y="-1106.9" font-family="Arial" font-size="14.00" fill="#000000">expecteddateofreturn </text>
<text text-anchor="start" x="189.1654" y="-1106.9" font-family="Arial" font-size="14.00" fill="#666666">[date]</text>
<polygon fill="none" stroke="#000000" points="46,-1065.5 46,-1095.5 422,-1095.5 422,-1065.5 46,-1065.5"/>
<text text-anchor="start" x="53" y="-1076.9" font-family="Arial" font-size="14.00" fill="#000000">purpose </text>
<text text-anchor="start" x="107.4642" y="-1076.9" font-family="Arial" font-size="14.00" fill="#666666">[text]</text>
<polygon fill="none" stroke="#000000" points="46,-1035.5 46,-1065.5 422,-1065.5 422,-1035.5 46,-1035.5"/>
<text text-anchor="start" x="53" y="-1046.9" font-family="Arial" font-size="14.00" fill="#000000">inwardchallanid </text>
<text text-anchor="start" x="153.345" y="-1046.9" font-family="Arial" font-size="14.00" fill="#666666">[numeric]</text>
<polygon fill="none" stroke="#000000" points="46,-1005.5 46,-1035.5 422,-1035.5 422,-1005.5 46,-1005.5"/>
<text text-anchor="start" x="53" y="-1016.9" font-family="Arial" font-size="14.00" fill="#000000">inwardchallandetailid </text>
<text text-anchor="start" x="186.7966" y="-1016.9" font-family="Arial" font-size="14.00" fill="#666666">[numeric]</text>
<polygon fill="none" stroke="#000000" points="46,-975.5 46,-1005.5 422,-1005.5 422,-975.5 46,-975.5"/>
<text text-anchor="start" x="53" y="-986.9" font-family="Arial" font-size="14.00" fill="#000000">height </text>
<text text-anchor="start" x="95.0182" y="-986.9" font-family="Arial" font-size="14.00" fill="#666666">[numeric(21,5)]</text>
<polygon fill="none" stroke="#000000" points="46,-945.5 46,-975.5 422,-975.5 422,-945.5 46,-945.5"/>
<text text-anchor="start" x="53" y="-956.9" font-family="Arial" font-size="14.00" fill="#000000">width </text>
<text text-anchor="start" x="89.5596" y="-956.9" font-family="Arial" font-size="14.00" fill="#666666">[numeric(21,5)]</text>
<polygon fill="none" stroke="#000000" points="46,-915.5 46,-945.5 422,-945.5 422,-915.5 46,-915.5"/>
<text text-anchor="start" x="53" y="-926.9" font-family="Arial" font-size="14.00" fill="#000000">length </text>
<text text-anchor="start" x="95.0182" y="-926.9" font-family="Arial" font-size="14.00" fill="#666666">[numeric(21,5)]</text>
<polygon fill="none" stroke="#000000" points="46,-885.5 46,-915.5 422,-915.5 422,-885.5 46,-885.5"/>
<text text-anchor="start" x="53" y="-896.9" font-family="Arial" font-size="14.00" fill="#000000">baseqtybeforeclosing </text>
<text text-anchor="start" x="189.1542" y="-896.9" font-family="Arial" font-size="14.00" fill="#666666">[numeric(15,5)]</text>
<polygon fill="none" stroke="#000000" points="46,-855.5 46,-885.5 422,-885.5 422,-855.5 46,-855.5"/>
<text text-anchor="start" x="53" y="-866.9" font-family="Arial" font-size="14.00" fill="#000000">altqtybeforeclosing </text>
<text text-anchor="start" x="173.5862" y="-866.9" font-family="Arial" font-size="14.00" fill="#666666">[numeric(15,5)]</text>
<polygon fill="none" stroke="#000000" points="46,-825.5 46,-855.5 422,-855.5 422,-825.5 46,-825.5"/>
<text text-anchor="start" x="53" y="-836.9" font-family="Arial" font-size="14.00" fill="#000000">approx_rate </text>
<text text-anchor="start" x="131.5806" y="-836.9" font-family="Arial" font-size="14.00" fill="#666666">[numeric(18,4)]</text>
<polygon fill="none" stroke="#000000" points="46,-795.5 46,-825.5 422,-825.5 422,-795.5 46,-795.5"/>
<text text-anchor="start" x="53" y="-806.9" font-family="Arial" font-size="14.00" fill="#000000">approx_value </text>
<text text-anchor="start" x="140.9186" y="-806.9" font-family="Arial" font-size="14.00" fill="#666666">[numeric(18,4)]</text>
<polygon fill="none" stroke="#000000" points="46,-765.5 46,-795.5 422,-795.5 422,-765.5 46,-765.5"/>
<text text-anchor="start" x="53" y="-776.9" font-family="Arial" font-size="14.00" fill="#000000">dn_rate </text>
<text text-anchor="start" x="104.3548" y="-776.9" font-family="Arial" font-size="14.00" fill="#666666">[numeric(21,9)]</text>
<polygon fill="none" stroke="#000000" points="46,-735.5 46,-765.5 422,-765.5 422,-735.5 46,-735.5"/>
<text text-anchor="start" x="53" y="-746.9" font-family="Arial" font-size="14.00" fill="#000000">dn_value </text>
<text text-anchor="start" x="113.6928" y="-746.9" font-family="Arial" font-size="14.00" fill="#666666">[numeric(21,9)]</text>
<polygon fill="none" stroke="#000000" points="46,-705.5 46,-735.5 422,-735.5 422,-705.5 46,-705.5"/>
<text text-anchor="start" x="53" y="-716.9" font-family="Arial" font-size="14.00" fill="#000000">wo_rm_item </text>
<text text-anchor="start" x="133.1066" y="-716.9" font-family="Arial" font-size="14.00" fill="#666666">[boolean]</text>
<polygon fill="none" stroke="#000000" points="46,-675.5 46,-705.5 422,-705.5 422,-675.5 46,-675.5"/>
<text text-anchor="start" x="53" y="-686.9" font-family="Arial" font-size="14.00" fill="#000000">item_type </text>
<text text-anchor="start" x="117.5694" y="-686.9" font-family="Arial" font-size="14.00" fill="#666666">[varchar(50)]</text>
<polygon fill="none" stroke="#000000" points="46,-645.5 46,-675.5 422,-675.5 422,-645.5 46,-645.5"/>
<text text-anchor="start" x="53" y="-656.9" font-family="Arial" font-size="14.00" fill="#000000">deliveredqty </text>
<text text-anchor="start" x="132.3506" y="-656.9" font-family="Arial" font-size="14.00" fill="#666666">[numeric(20,5)]</text>
<polygon fill="none" stroke="#000000" points="46,-615.5 46,-645.5 422,-645.5 422,-615.5 46,-615.5"/>
<text text-anchor="start" x="53" y="-626.9" font-family="Arial" font-size="14.00" fill="#000000">freeschemeqty </text>
<text text-anchor="start" x="148.6886" y="-626.9" font-family="Arial" font-size="14.00" fill="#666666">[numeric(15,7)]</text>
<polygon fill="none" stroke="#000000" points="46,-585.5 46,-615.5 422,-615.5 422,-585.5 46,-585.5"/>
<text text-anchor="start" x="53" y="-596.9" font-family="Arial" font-size="14.00" fill="#000000">freeschemealtqty </text>
<text text-anchor="start" x="163.4684" y="-596.9" font-family="Arial" font-size="14.00" fill="#666666">[numeric(15,7)]</text>
<polygon fill="none" stroke="#000000" points="46,-555.5 46,-585.5 422,-585.5 422,-555.5 46,-555.5"/>
<text text-anchor="start" x="53" y="-566.9" font-family="Arial" font-size="14.00" fill="#000000">hsnclassificationid </text>
<text text-anchor="start" x="169.683" y="-566.9" font-family="Arial" font-size="14.00" fill="#666666">[integer]</text>
<polygon fill="none" stroke="#000000" points="46,-525.5 46,-555.5 422,-555.5 422,-525.5 46,-525.5"/>
<text text-anchor="start" x="53" y="-536.9" font-family="Arial" font-size="14.00" fill="#000000">pallets </text>
<text text-anchor="start" x="97.3422" y="-536.9" font-family="Arial" font-size="14.00" fill="#666666">[numeric(10,2)]</text>
<polygon fill="none" stroke="#000000" points="46,-495.5 46,-525.5 422,-525.5 422,-495.5 46,-495.5"/>
<text text-anchor="start" x="53" y="-506.9" font-family="Arial" font-size="14.00" fill="#000000">pallatenetitemweight </text>
<text text-anchor="start" x="184.4726" y="-506.9" font-family="Arial" font-size="14.00" fill="#666666">[numeric(10,2)]</text>
<polygon fill="none" stroke="#000000" points="46,-465.5 46,-495.5 422,-495.5 422,-465.5 46,-465.5"/>
<text text-anchor="start" x="53" y="-476.9" font-family="Arial" font-size="14.00" fill="#000000">pallategrossweight </text>
<text text-anchor="start" x="172.8022" y="-476.9" font-family="Arial" font-size="14.00" fill="#666666">[numeric(10,2)]</text>
<polygon fill="none" stroke="#000000" points="46,-435.5 46,-465.5 422,-465.5 422,-435.5 46,-435.5"/>
<text text-anchor="start" x="53" y="-446.9" font-family="Arial" font-size="14.00" fill="#000000">pallatenetweight </text>
<text text-anchor="start" x="158.0322" y="-446.9" font-family="Arial" font-size="14.00" fill="#666666">[numeric(10,2)]</text>
<polygon fill="none" stroke="#000000" points="46,-405.5 46,-435.5 422,-435.5 422,-405.5 46,-405.5"/>
<text text-anchor="start" x="53" y="-416.9" font-family="Arial" font-size="14.00" fill="#000000">scanning_thru_app </text>
<text text-anchor="start" x="175.9396" y="-416.9" font-family="Arial" font-size="14.00" fill="#666666">[boolean]</text>
<polygon fill="none" stroke="#000000" points="46,-375.5 46,-405.5 422,-405.5 422,-375.5 46,-375.5"/>
<text text-anchor="start" x="53" y="-386.9" font-family="Arial" font-size="14.00" fill="#000000">proformainvoicedetailid </text>
<text text-anchor="start" x="200.7952" y="-386.9" font-family="Arial" font-size="14.00" fill="#666666">[integer]</text>
<polygon fill="none" stroke="#000000" points="46,-345.5 46,-375.5 422,-375.5 422,-345.5 46,-345.5"/>
<text text-anchor="start" x="53" y="-356.9" font-family="Arial" font-size="14.00" fill="#000000">proformainvoiceid </text>
<text text-anchor="start" x="167.3436" y="-356.9" font-family="Arial" font-size="14.00" fill="#666666">[integer]</text>
<polygon fill="none" stroke="#000000" points="46,-315.5 46,-345.5 422,-345.5 422,-315.5 46,-315.5"/>
<text text-anchor="start" x="53" y="-326.9" font-family="Arial" font-size="14.00" fill="#000000">cbm </text>
<text text-anchor="start" x="83.3338" y="-326.9" font-family="Arial" font-size="14.00" fill="#666666">[numeric(10,5)]</text>
<polygon fill="none" stroke="#000000" points="46,-285.5 46,-315.5 422,-315.5 422,-285.5 46,-285.5"/>
<text text-anchor="start" x="53" y="-296.9" font-family="Arial" font-size="14.00" fill="#000000">volumetric </text>
<text text-anchor="start" x="120.6634" y="-296.9" font-family="Arial" font-size="14.00" fill="#666666">[numeric(10,5)]</text>
<polygon fill="none" stroke="#000000" points="46,-255.5 46,-285.5 422,-285.5 422,-255.5 46,-255.5"/>
<text text-anchor="start" x="53" y="-266.9" font-family="Arial" font-size="14.00" fill="#000000">itemspecificationid </text>
<text text-anchor="start" x="171.2342" y="-266.9" font-family="Arial" font-size="14.00" fill="#666666">[integer]</text>
<polygon fill="none" stroke="#000000" points="46,-225.5 46,-255.5 422,-255.5 422,-225.5 46,-225.5"/>
<text text-anchor="start" x="53" y="-236.9" font-family="Arial" font-size="14.00" fill="#000000">balestypeid </text>
<text text-anchor="start" x="127.69" y="-236.9" font-family="Arial" font-size="14.00" fill="#666666">[integer]</text>
<polygon fill="none" stroke="#000000" points="46,-195.5 46,-225.5 422,-225.5 422,-195.5 46,-195.5"/>
<text text-anchor="start" x="53" y="-206.9" font-family="Arial" font-size="14.00" fill="#000000">noofbales </text>
<text text-anchor="start" x="117.5834" y="-206.9" font-family="Arial" font-size="14.00" fill="#666666">[integer]</text>
<polygon fill="none" stroke="#000000" points="46,-165.5 46,-195.5 422,-195.5 422,-165.5 46,-165.5"/>
<text text-anchor="start" x="53" y="-176.9" font-family="Arial" font-size="14.00" fill="#000000">isfreeitem </text>
<text text-anchor="start" x="117.554" y="-176.9" font-family="Arial" font-size="14.00" fill="#666666">[boolean]</text>
<polygon fill="none" stroke="#000000" points="46,-135.5 46,-165.5 422,-165.5 422,-135.5 46,-135.5"/>
<text text-anchor="start" x="53" y="-146.9" font-family="Arial" font-size="14.00" fill="#000000">mainitemid </text>
<text text-anchor="start" x="124.5526" y="-146.9" font-family="Arial" font-size="14.00" fill="#666666">[integer]</text>
<polygon fill="none" stroke="#000000" points="46,-105.5 46,-135.5 422,-135.5 422,-105.5 46,-105.5"/>
<text text-anchor="start" x="53" y="-116.9" font-family="Arial" font-size="14.00" fill="#000000">validateqty </text>
<text text-anchor="start" x="123.798" y="-116.9" font-family="Arial" font-size="14.00" fill="#666666">[numeric(15,5)]</text>
<polygon fill="none" stroke="#000000" points="46,-75.5 46,-105.5 422,-105.5 422,-75.5 46,-75.5"/>
<text text-anchor="start" x="53" y="-86.9" font-family="Arial" font-size="14.00" fill="#000000">validatefreeqty </text>
<text text-anchor="start" x="147.9144" y="-86.9" font-family="Arial" font-size="14.00" fill="#666666">[numeric(15,5)]</text>
<polygon fill="none" stroke="#000000" points="46,-45.5 46,-75.5 422,-75.5 422,-45.5 46,-45.5"/>
<text text-anchor="start" x="53" y="-56.9" font-family="Arial" font-size="14.00" fill="#000000">islinked_rgp_insource </text>
<text text-anchor="start" x="192.2468" y="-56.9" font-family="Arial" font-size="14.00" fill="#666666">[boolean]</text>
<polygon fill="none" stroke="#000000" stroke-width="3" points="44.5,-44.5 44.5,-1732.5 423.5,-1732.5 423.5,-44.5 44.5,-44.5"/>
</g>
</g>
</svg>
