<?xml version="1.0" encoding="UTF-8" standalone="no"?>
<!DOCTYPE svg PUBLIC "-//W3C//DTD SVG 1.1//EN"
 "http://www.w3.org/Graphics/SVG/1.1/DTD/svg11.dtd">
<!-- Generated by graphviz version 2.40.1 (20161225.0304)
 -->
<!-- Title: public.stor_itemmrporabatement Pages: 1 -->
<svg width="499pt" height="735pt"
 viewBox="0.00 0.00 499.00 735.00" xmlns="http://www.w3.org/2000/svg" xmlns:xlink="http://www.w3.org/1999/xlink">
<g id="graph0" class="graph" transform="scale(1 1) rotate(0) translate(4 731)">
<title>public.stor_itemmrporabatement</title>
<polygon fill="#ffffff" stroke="transparent" points="-4,4 -4,-731 495,-731 495,4 -4,4"/>
<!-- public.stor_itemmrporabatement -->
<g id="node1" class="node">
<title>public.stor_itemmrporabatement</title>
<polygon fill="#efefef" stroke="transparent" points="46.5,-645.5 46.5,-680.5 445.5,-680.5 445.5,-645.5 46.5,-645.5"/>
<polygon fill="none" stroke="#000000" points="46.5,-645.5 46.5,-680.5 445.5,-680.5 445.5,-645.5 46.5,-645.5"/>
<text text-anchor="start" x="53.1992" y="-658.3" font-family="Arial Bold" font-size="18.00" fill="#000000">public.stor_itemmrporabatement</text>
<text text-anchor="start" x="311.2328" y="-658.3" font-family="Arial" font-size="14.00" fill="#000000">    </text>
<text text-anchor="start" x="345.4376" y="-658.3" font-family="Arial" font-size="14.00" fill="#666666">[BASE TABLE]</text>
<polygon fill="none" stroke="#000000" points="46.5,-615.5 46.5,-645.5 445.5,-645.5 445.5,-615.5 46.5,-615.5"/>
<text text-anchor="start" x="53.5" y="-626.9" font-family="Arial" font-size="14.00" fill="#000000">mrpabatementid </text>
<text text-anchor="start" x="158.521" y="-626.9" font-family="Arial" font-size="14.00" fill="#666666">[integer]</text>
<polygon fill="none" stroke="#000000" points="46.5,-585.5 46.5,-615.5 445.5,-615.5 445.5,-585.5 46.5,-585.5"/>
<text text-anchor="start" x="53.5" y="-596.9" font-family="Arial" font-size="14.00" fill="#000000">itemid </text>
<text text-anchor="start" x="94.7202" y="-596.9" font-family="Arial" font-size="14.00" fill="#666666">[integer]</text>
<polygon fill="none" stroke="#000000" points="46.5,-555.5 46.5,-585.5 445.5,-585.5 445.5,-555.5 46.5,-555.5"/>
<text text-anchor="start" x="53.5" y="-566.9" font-family="Arial" font-size="14.00" fill="#000000">branchid </text>
<text text-anchor="start" x="111.0708" y="-566.9" font-family="Arial" font-size="14.00" fill="#666666">[integer]</text>
<polygon fill="none" stroke="#000000" points="46.5,-525.5 46.5,-555.5 445.5,-555.5 445.5,-525.5 46.5,-525.5"/>
<text text-anchor="start" x="53.5" y="-536.9" font-family="Arial" font-size="14.00" fill="#000000">applicablefrom </text>
<text text-anchor="start" x="148.4004" y="-536.9" font-family="Arial" font-size="14.00" fill="#666666">[date]</text>
<polygon fill="none" stroke="#000000" points="46.5,-495.5 46.5,-525.5 445.5,-525.5 445.5,-495.5 46.5,-495.5"/>
<text text-anchor="start" x="53.5" y="-506.9" font-family="Arial" font-size="14.00" fill="#000000">mrp </text>
<text text-anchor="start" x="81.4944" y="-506.9" font-family="Arial" font-size="14.00" fill="#666666">[numeric(17,5)]</text>
<polygon fill="none" stroke="#000000" points="46.5,-465.5 46.5,-495.5 445.5,-495.5 445.5,-465.5 46.5,-465.5"/>
<text text-anchor="start" x="53.5" y="-476.9" font-family="Arial" font-size="14.00" fill="#000000">abatement </text>
<text text-anchor="start" x="123.528" y="-476.9" font-family="Arial" font-size="14.00" fill="#666666">[numeric(17,5)]</text>
<polygon fill="none" stroke="#000000" points="46.5,-435.5 46.5,-465.5 445.5,-465.5 445.5,-435.5 46.5,-435.5"/>
<text text-anchor="start" x="53.5" y="-446.9" font-family="Arial" font-size="14.00" fill="#000000">deactive </text>
<text text-anchor="start" x="109.5182" y="-446.9" font-family="Arial" font-size="14.00" fill="#666666">[boolean]</text>
<polygon fill="none" stroke="#000000" points="46.5,-405.5 46.5,-435.5 445.5,-435.5 445.5,-405.5 46.5,-405.5"/>
<text text-anchor="start" x="53.5" y="-416.9" font-family="Arial" font-size="14.00" fill="#000000">createdby </text>
<text text-anchor="start" x="118.8548" y="-416.9" font-family="Arial" font-size="14.00" fill="#666666">[integer]</text>
<polygon fill="none" stroke="#000000" points="46.5,-375.5 46.5,-405.5 445.5,-405.5 445.5,-375.5 46.5,-375.5"/>
<text text-anchor="start" x="53.5" y="-386.9" font-family="Arial" font-size="14.00" fill="#000000">createdon </text>
<text text-anchor="start" x="119.6374" y="-386.9" font-family="Arial" font-size="14.00" fill="#666666">[timestamp without time zone]</text>
<polygon fill="none" stroke="#000000" points="46.5,-345.5 46.5,-375.5 445.5,-375.5 445.5,-345.5 46.5,-345.5"/>
<text text-anchor="start" x="53.5" y="-356.9" font-family="Arial" font-size="14.00" fill="#000000">editlog </text>
<text text-anchor="start" x="98.6248" y="-356.9" font-family="Arial" font-size="14.00" fill="#666666">[text]</text>
<polygon fill="none" stroke="#000000" points="46.5,-315.5 46.5,-345.5 445.5,-345.5 445.5,-315.5 46.5,-315.5"/>
<text text-anchor="start" x="53.5" y="-326.9" font-family="Arial" font-size="14.00" fill="#000000">isauthorized </text>
<text text-anchor="start" x="132.8506" y="-326.9" font-family="Arial" font-size="14.00" fill="#666666">[boolean]</text>
<polygon fill="none" stroke="#000000" points="46.5,-285.5 46.5,-315.5 445.5,-315.5 445.5,-285.5 46.5,-285.5"/>
<text text-anchor="start" x="53.5" y="-296.9" font-family="Arial" font-size="14.00" fill="#000000">authorizedby </text>
<text text-anchor="start" x="137.5266" y="-296.9" font-family="Arial" font-size="14.00" fill="#666666">[integer]</text>
<polygon fill="none" stroke="#000000" points="46.5,-255.5 46.5,-285.5 445.5,-285.5 445.5,-255.5 46.5,-255.5"/>
<text text-anchor="start" x="53.5" y="-266.9" font-family="Arial" font-size="14.00" fill="#000000">authorizedon </text>
<text text-anchor="start" x="138.3092" y="-266.9" font-family="Arial" font-size="14.00" fill="#666666">[timestamp without time zone]</text>
<polygon fill="none" stroke="#000000" points="46.5,-225.5 46.5,-255.5 445.5,-255.5 445.5,-225.5 46.5,-225.5"/>
<text text-anchor="start" x="53.5" y="-236.9" font-family="Arial" font-size="14.00" fill="#000000">headauthorizedby </text>
<text text-anchor="start" x="168.657" y="-236.9" font-family="Arial" font-size="14.00" fill="#666666">[integer]</text>
<polygon fill="none" stroke="#000000" points="46.5,-195.5 46.5,-225.5 445.5,-225.5 445.5,-195.5 46.5,-195.5"/>
<text text-anchor="start" x="53.5" y="-206.9" font-family="Arial" font-size="14.00" fill="#000000">headauthorizedon </text>
<text text-anchor="start" x="169.4396" y="-206.9" font-family="Arial" font-size="14.00" fill="#666666">[timestamp without time zone]</text>
<polygon fill="none" stroke="#000000" points="46.5,-165.5 46.5,-195.5 445.5,-195.5 445.5,-165.5 46.5,-165.5"/>
<text text-anchor="start" x="53.5" y="-176.9" font-family="Arial" font-size="14.00" fill="#000000">currencyid </text>
<text text-anchor="start" x="121.9488" y="-176.9" font-family="Arial" font-size="14.00" fill="#666666">[integer]</text>
<polygon fill="none" stroke="#000000" points="46.5,-135.5 46.5,-165.5 445.5,-165.5 445.5,-135.5 46.5,-135.5"/>
<text text-anchor="start" x="53.5" y="-146.9" font-family="Arial" font-size="14.00" fill="#000000">item_attribute_id </text>
<text text-anchor="start" x="160.8548" y="-146.9" font-family="Arial" font-size="14.00" fill="#666666">[integer]</text>
<polygon fill="none" stroke="#000000" points="46.5,-105.5 46.5,-135.5 445.5,-135.5 445.5,-105.5 46.5,-105.5"/>
<text text-anchor="start" x="53.5" y="-116.9" font-family="Arial" font-size="14.00" fill="#000000">rateon </text>
<text text-anchor="start" x="97.0722" y="-116.9" font-family="Arial" font-size="14.00" fill="#666666">[integer]</text>
<polygon fill="none" stroke="#000000" points="46.5,-75.5 46.5,-105.5 445.5,-105.5 445.5,-75.5 46.5,-75.5"/>
<text text-anchor="start" x="53.5" y="-86.9" font-family="Arial" font-size="14.00" fill="#000000">updatedby </text>
<text text-anchor="start" x="122.7594" y="-86.9" font-family="Arial" font-size="14.00" fill="#666666">[integer]</text>
<polygon fill="none" stroke="#000000" points="46.5,-45.5 46.5,-75.5 445.5,-75.5 445.5,-45.5 46.5,-45.5"/>
<text text-anchor="start" x="53.5" y="-56.9" font-family="Arial" font-size="14.00" fill="#000000">updatedon </text>
<text text-anchor="start" x="123.542" y="-56.9" font-family="Arial" font-size="14.00" fill="#666666">[timestamp(6) without time zone]</text>
<polygon fill="none" stroke="#000000" stroke-width="3" points="44.5,-44.5 44.5,-682.5 446.5,-682.5 446.5,-44.5 44.5,-44.5"/>
</g>
</g>
</svg>
