<?xml version="1.0" encoding="UTF-8" standalone="no"?>
<!DOCTYPE svg PUBLIC "-//W3C//DTD SVG 1.1//EN"
 "http://www.w3.org/Graphics/SVG/1.1/DTD/svg11.dtd">
<!-- Generated by graphviz version 2.40.1 (20161225.0304)
 -->
<!-- Title: public.qlty_iaminspectedserial Pages: 1 -->
<svg width="480pt" height="255pt"
 viewBox="0.00 0.00 480.00 255.00" xmlns="http://www.w3.org/2000/svg" xmlns:xlink="http://www.w3.org/1999/xlink">
<g id="graph0" class="graph" transform="scale(1 1) rotate(0) translate(4 251)">
<title>public.qlty_iaminspectedserial</title>
<polygon fill="#ffffff" stroke="transparent" points="-4,4 -4,-251 476,-251 476,4 -4,4"/>
<!-- public.qlty_iaminspectedserial -->
<g id="node1" class="node">
<title>public.qlty_iaminspectedserial</title>
<polygon fill="#efefef" stroke="transparent" points="46,-165.5 46,-200.5 426,-200.5 426,-165.5 46,-165.5"/>
<polygon fill="none" stroke="#000000" points="46,-165.5 46,-200.5 426,-200.5 426,-165.5 46,-165.5"/>
<text text-anchor="start" x="52.7005" y="-178.3" font-family="Arial Bold" font-size="18.00" fill="#000000">public.qlty_iaminspectedserial</text>
<text text-anchor="start" x="291.7315" y="-178.3" font-family="Arial" font-size="14.00" fill="#000000">    </text>
<text text-anchor="start" x="325.9363" y="-178.3" font-family="Arial" font-size="14.00" fill="#666666">[BASE TABLE]</text>
<polygon fill="none" stroke="#000000" points="46,-135.5 46,-165.5 426,-165.5 426,-135.5 46,-135.5"/>
<text text-anchor="start" x="53" y="-146.9" font-family="Arial" font-size="14.00" fill="#000000">serialdetailid </text>
<text text-anchor="start" x="134.6704" y="-146.9" font-family="Arial" font-size="14.00" fill="#666666">[bigint]</text>
<polygon fill="none" stroke="#000000" points="46,-105.5 46,-135.5 426,-135.5 426,-105.5 46,-105.5"/>
<text text-anchor="start" x="53" y="-116.9" font-family="Arial" font-size="14.00" fill="#000000">inspectiondetailid </text>
<text text-anchor="start" x="164.2482" y="-116.9" font-family="Arial" font-size="14.00" fill="#666666">[integer]</text>
<polygon fill="none" stroke="#000000" points="46,-75.5 46,-105.5 426,-105.5 426,-75.5 46,-75.5"/>
<text text-anchor="start" x="53" y="-86.9" font-family="Arial" font-size="14.00" fill="#000000">serialid </text>
<text text-anchor="start" x="101.2188" y="-86.9" font-family="Arial" font-size="14.00" fill="#666666">[bigint]</text>
<polygon fill="none" stroke="#000000" points="46,-45.5 46,-75.5 426,-75.5 426,-45.5 46,-45.5"/>
<text text-anchor="start" x="53" y="-56.9" font-family="Arial" font-size="14.00" fill="#000000">itemparameterdetailid </text>
<text text-anchor="start" x="191.4572" y="-56.9" font-family="Arial" font-size="14.00" fill="#666666">[integer]</text>
<polygon fill="none" stroke="#000000" stroke-width="3" points="44.5,-44.5 44.5,-202.5 427.5,-202.5 427.5,-44.5 44.5,-44.5"/>
</g>
</g>
</svg>
