<?xml version="1.0" encoding="UTF-8" standalone="no"?>
<!DOCTYPE svg PUBLIC "-//W3C//DTD SVG 1.1//EN"
 "http://www.w3.org/Graphics/SVG/1.1/DTD/svg11.dtd">
<!-- Generated by graphviz version 2.40.1 (20161225.0304)
 -->
<!-- Title: public.comn_portal_specifications Pages: 1 -->
<svg width="510pt" height="225pt"
 viewBox="0.00 0.00 510.00 225.00" xmlns="http://www.w3.org/2000/svg" xmlns:xlink="http://www.w3.org/1999/xlink">
<g id="graph0" class="graph" transform="scale(1 1) rotate(0) translate(4 221)">
<title>public.comn_portal_specifications</title>
<polygon fill="#ffffff" stroke="transparent" points="-4,4 -4,-221 506,-221 506,4 -4,4"/>
<!-- public.comn_portal_specifications -->
<g id="node1" class="node">
<title>public.comn_portal_specifications</title>
<polygon fill="#efefef" stroke="transparent" points="46,-135.5 46,-170.5 456,-170.5 456,-135.5 46,-135.5"/>
<polygon fill="none" stroke="#000000" points="46,-135.5 46,-170.5 456,-170.5 456,-135.5 46,-135.5"/>
<text text-anchor="start" x="52.6903" y="-148.3" font-family="Arial Bold" font-size="18.00" fill="#000000">public.comn_portal_specifications</text>
<text text-anchor="start" x="321.7417" y="-148.3" font-family="Arial" font-size="14.00" fill="#000000">    </text>
<text text-anchor="start" x="355.9465" y="-148.3" font-family="Arial" font-size="14.00" fill="#666666">[BASE TABLE]</text>
<polygon fill="none" stroke="#000000" points="46,-105.5 46,-135.5 456,-135.5 456,-105.5 46,-105.5"/>
<text text-anchor="start" x="53" y="-116.9" font-family="Arial" font-size="14.00" fill="#000000">portalname </text>
<text text-anchor="start" x="126.9046" y="-116.9" font-family="Arial" font-size="14.00" fill="#666666">[varchar(50)]</text>
<polygon fill="none" stroke="#000000" points="46,-75.5 46,-105.5 456,-105.5 456,-75.5 46,-75.5"/>
<text text-anchor="start" x="53" y="-86.9" font-family="Arial" font-size="14.00" fill="#000000">client_id </text>
<text text-anchor="start" x="108.2314" y="-86.9" font-family="Arial" font-size="14.00" fill="#666666">[varchar(200)]</text>
<polygon fill="none" stroke="#000000" points="46,-45.5 46,-75.5 456,-75.5 456,-45.5 46,-45.5"/>
<text text-anchor="start" x="53" y="-56.9" font-family="Arial" font-size="14.00" fill="#000000">client_secret </text>
<text text-anchor="start" x="135.4586" y="-56.9" font-family="Arial" font-size="14.00" fill="#666666">[varchar(200)]</text>
<polygon fill="none" stroke="#000000" stroke-width="3" points="44.5,-44.5 44.5,-172.5 457.5,-172.5 457.5,-44.5 44.5,-44.5"/>
</g>
</g>
</svg>
