<?xml version="1.0" encoding="UTF-8" standalone="no"?>
<!DOCTYPE svg PUBLIC "-//W3C//DTD SVG 1.1//EN"
 "http://www.w3.org/Graphics/SVG/1.1/DTD/svg11.dtd">
<!-- Generated by graphviz version 2.40.1 (20161225.0304)
 -->
<!-- Title: public.sale_sifielddetail Pages: 1 -->
<svg width="425pt" height="285pt"
 viewBox="0.00 0.00 425.00 285.00" xmlns="http://www.w3.org/2000/svg" xmlns:xlink="http://www.w3.org/1999/xlink">
<g id="graph0" class="graph" transform="scale(1 1) rotate(0) translate(4 281)">
<title>public.sale_sifielddetail</title>
<polygon fill="#ffffff" stroke="transparent" points="-4,4 -4,-281 421,-281 421,4 -4,4"/>
<!-- public.sale_sifielddetail -->
<g id="node1" class="node">
<title>public.sale_sifielddetail</title>
<polygon fill="#efefef" stroke="transparent" points="46.5,-195.5 46.5,-230.5 371.5,-230.5 371.5,-195.5 46.5,-195.5"/>
<polygon fill="none" stroke="#000000" points="46.5,-195.5 46.5,-230.5 371.5,-230.5 371.5,-195.5 46.5,-195.5"/>
<text text-anchor="start" x="53.2018" y="-208.3" font-family="Arial Bold" font-size="18.00" fill="#000000">public.sale_sifielddetail</text>
<text text-anchor="start" x="237.2302" y="-208.3" font-family="Arial" font-size="14.00" fill="#000000">    </text>
<text text-anchor="start" x="271.435" y="-208.3" font-family="Arial" font-size="14.00" fill="#666666">[BASE TABLE]</text>
<polygon fill="none" stroke="#000000" points="46.5,-165.5 46.5,-195.5 371.5,-195.5 371.5,-165.5 46.5,-165.5"/>
<text text-anchor="start" x="53.5" y="-176.9" font-family="Arial" font-size="14.00" fill="#000000">sifielddetailid </text>
<text text-anchor="start" x="137.507" y="-176.9" font-family="Arial" font-size="14.00" fill="#666666">[integer]</text>
<polygon fill="none" stroke="#000000" points="46.5,-135.5 46.5,-165.5 371.5,-165.5 371.5,-135.5 46.5,-135.5"/>
<text text-anchor="start" x="53.5" y="-146.9" font-family="Arial" font-size="14.00" fill="#000000">siid </text>
<text text-anchor="start" x="78.3864" y="-146.9" font-family="Arial" font-size="14.00" fill="#666666">[integer]</text>
<polygon fill="none" stroke="#000000" points="46.5,-105.5 46.5,-135.5 371.5,-135.5 371.5,-105.5 46.5,-105.5"/>
<text text-anchor="start" x="53.5" y="-116.9" font-family="Arial" font-size="14.00" fill="#000000">fieldid </text>
<text text-anchor="start" x="93.9488" y="-116.9" font-family="Arial" font-size="14.00" fill="#666666">[integer]</text>
<polygon fill="none" stroke="#000000" points="46.5,-75.5 46.5,-105.5 371.5,-105.5 371.5,-75.5 46.5,-75.5"/>
<text text-anchor="start" x="53.5" y="-86.9" font-family="Arial" font-size="14.00" fill="#000000">fieldvalue </text>
<text text-anchor="start" x="116.514" y="-86.9" font-family="Arial" font-size="14.00" fill="#666666">[text]</text>
<polygon fill="none" stroke="#000000" points="46.5,-45.5 46.5,-75.5 371.5,-75.5 371.5,-45.5 46.5,-45.5"/>
<text text-anchor="start" x="53.5" y="-56.9" font-family="Arial" font-size="14.00" fill="#000000">fieldcaption </text>
<text text-anchor="start" x="128.1872" y="-56.9" font-family="Arial" font-size="14.00" fill="#666666">[text]</text>
<polygon fill="none" stroke="#000000" stroke-width="3" points="44.5,-44.5 44.5,-232.5 372.5,-232.5 372.5,-44.5 44.5,-44.5"/>
</g>
</g>
</svg>
