<?xml version="1.0" encoding="UTF-8" standalone="no"?>
<!DOCTYPE svg PUBLIC "-//W3C//DTD SVG 1.1//EN"
 "http://www.w3.org/Graphics/SVG/1.1/DTD/svg11.dtd">
<!-- Generated by graphviz version 2.40.1 (20161225.0304)
 -->
<!-- Title: public.quotationitemfielddetail_amendlog Pages: 1 -->
<svg width="566pt" height="375pt"
 viewBox="0.00 0.00 566.00 375.00" xmlns="http://www.w3.org/2000/svg" xmlns:xlink="http://www.w3.org/1999/xlink">
<g id="graph0" class="graph" transform="scale(1 1) rotate(0) translate(4 371)">
<title>public.quotationitemfielddetail_amendlog</title>
<polygon fill="#ffffff" stroke="transparent" points="-4,4 -4,-371 562,-371 562,4 -4,4"/>
<!-- public.quotationitemfielddetail_amendlog -->
<g id="node1" class="node">
<title>public.quotationitemfielddetail_amendlog</title>
<polygon fill="#efefef" stroke="transparent" points="46,-285.5 46,-320.5 512,-320.5 512,-285.5 46,-285.5"/>
<polygon fill="none" stroke="#000000" points="46,-285.5 46,-320.5 512,-320.5 512,-285.5 46,-285.5"/>
<text text-anchor="start" x="52.6751" y="-298.3" font-family="Arial Bold" font-size="18.00" fill="#000000">public.quotationitemfielddetail_amendlog</text>
<text text-anchor="start" x="377.7569" y="-298.3" font-family="Arial" font-size="14.00" fill="#000000">    </text>
<text text-anchor="start" x="411.9617" y="-298.3" font-family="Arial" font-size="14.00" fill="#666666">[BASE TABLE]</text>
<polygon fill="none" stroke="#000000" points="46,-255.5 46,-285.5 512,-285.5 512,-255.5 46,-255.5"/>
<text text-anchor="start" x="53" y="-266.9" font-family="Arial" font-size="14.00" fill="#000000">amendquotitemfielddetailid </text>
<text text-anchor="start" x="223.3702" y="-266.9" font-family="Arial" font-size="14.00" fill="#666666">[integer]</text>
<polygon fill="none" stroke="#000000" points="46,-225.5 46,-255.5 512,-255.5 512,-225.5 46,-225.5"/>
<text text-anchor="start" x="53" y="-236.9" font-family="Arial" font-size="14.00" fill="#000000">amendid </text>
<text text-anchor="start" x="110.5708" y="-236.9" font-family="Arial" font-size="14.00" fill="#666666">[integer]</text>
<polygon fill="none" stroke="#000000" points="46,-195.5 46,-225.5 512,-225.5 512,-195.5 46,-195.5"/>
<text text-anchor="start" x="53" y="-206.9" font-family="Arial" font-size="14.00" fill="#000000">quotationitemfielddetailid </text>
<text text-anchor="start" x="210.9242" y="-206.9" font-family="Arial" font-size="14.00" fill="#666666">[integer]</text>
<polygon fill="none" stroke="#000000" points="46,-165.5 46,-195.5 512,-195.5 512,-165.5 46,-165.5"/>
<text text-anchor="start" x="53" y="-176.9" font-family="Arial" font-size="14.00" fill="#000000">quotationid </text>
<text text-anchor="start" x="125.3632" y="-176.9" font-family="Arial" font-size="14.00" fill="#666666">[integer]</text>
<polygon fill="none" stroke="#000000" points="46,-135.5 46,-165.5 512,-165.5 512,-135.5 46,-135.5"/>
<text text-anchor="start" x="53" y="-146.9" font-family="Arial" font-size="14.00" fill="#000000">quotationdetailid </text>
<text text-anchor="start" x="158.8148" y="-146.9" font-family="Arial" font-size="14.00" fill="#666666">[integer]</text>
<polygon fill="none" stroke="#000000" points="46,-105.5 46,-135.5 512,-135.5 512,-105.5 46,-105.5"/>
<text text-anchor="start" x="53" y="-116.9" font-family="Arial" font-size="14.00" fill="#000000">itemid </text>
<text text-anchor="start" x="94.2202" y="-116.9" font-family="Arial" font-size="14.00" fill="#666666">[integer]</text>
<polygon fill="none" stroke="#000000" points="46,-75.5 46,-105.5 512,-105.5 512,-75.5 46,-75.5"/>
<text text-anchor="start" x="53" y="-86.9" font-family="Arial" font-size="14.00" fill="#000000">fieldid </text>
<text text-anchor="start" x="93.4488" y="-86.9" font-family="Arial" font-size="14.00" fill="#666666">[integer]</text>
<polygon fill="none" stroke="#000000" points="46,-45.5 46,-75.5 512,-75.5 512,-45.5 46,-45.5"/>
<text text-anchor="start" x="53" y="-56.9" font-family="Arial" font-size="14.00" fill="#000000">fieldvalue </text>
<text text-anchor="start" x="116.014" y="-56.9" font-family="Arial" font-size="14.00" fill="#666666">[text]</text>
<polygon fill="none" stroke="#000000" stroke-width="3" points="44.5,-44.5 44.5,-322.5 513.5,-322.5 513.5,-44.5 44.5,-44.5"/>
</g>
</g>
</svg>
