<?xml version="1.0" encoding="UTF-8" standalone="no"?>
<!DOCTYPE svg PUBLIC "-//W3C//DTD SVG 1.1//EN"
 "http://www.w3.org/Graphics/SVG/1.1/DTD/svg11.dtd">
<!-- Generated by graphviz version 2.40.1 (20161225.0304)
 -->
<!-- Title: public.comn_appfeatures Pages: 1 -->
<svg width="442pt" height="255pt"
 viewBox="0.00 0.00 442.00 255.00" xmlns="http://www.w3.org/2000/svg" xmlns:xlink="http://www.w3.org/1999/xlink">
<g id="graph0" class="graph" transform="scale(1 1) rotate(0) translate(4 251)">
<title>public.comn_appfeatures</title>
<polygon fill="#ffffff" stroke="transparent" points="-4,4 -4,-251 438,-251 438,4 -4,4"/>
<!-- public.comn_appfeatures -->
<g id="node1" class="node">
<title>public.comn_appfeatures</title>
<polygon fill="#efefef" stroke="transparent" points="46,-165.5 46,-200.5 388,-200.5 388,-165.5 46,-165.5"/>
<polygon fill="none" stroke="#000000" points="46,-165.5 46,-200.5 388,-200.5 388,-165.5 46,-165.5"/>
<text text-anchor="start" x="52.686" y="-178.3" font-family="Arial Bold" font-size="18.00" fill="#000000">public.comn_appfeatures</text>
<text text-anchor="start" x="253.746" y="-178.3" font-family="Arial" font-size="14.00" fill="#000000">    </text>
<text text-anchor="start" x="287.9508" y="-178.3" font-family="Arial" font-size="14.00" fill="#666666">[BASE TABLE]</text>
<polygon fill="none" stroke="#000000" points="46,-135.5 46,-165.5 388,-165.5 388,-135.5 46,-135.5"/>
<text text-anchor="start" x="53" y="-146.9" font-family="Arial" font-size="14.00" fill="#000000">app_feature_id </text>
<text text-anchor="start" x="150.265" y="-146.9" font-family="Arial" font-size="14.00" fill="#666666">[integer]</text>
<polygon fill="none" stroke="#000000" points="46,-105.5 46,-135.5 388,-135.5 388,-105.5 46,-105.5"/>
<text text-anchor="start" x="53" y="-116.9" font-family="Arial" font-size="14.00" fill="#000000">feature_id </text>
<text text-anchor="start" x="119.1346" y="-116.9" font-family="Arial" font-size="14.00" fill="#666666">[integer]</text>
<polygon fill="none" stroke="#000000" points="46,-75.5 46,-105.5 388,-105.5 388,-75.5 46,-75.5"/>
<text text-anchor="start" x="53" y="-86.9" font-family="Arial" font-size="14.00" fill="#000000">feature_name </text>
<text text-anchor="start" x="143.2538" y="-86.9" font-family="Arial" font-size="14.00" fill="#666666">[varchar(200)]</text>
<polygon fill="none" stroke="#000000" points="46,-45.5 46,-75.5 388,-75.5 388,-45.5 46,-45.5"/>
<text text-anchor="start" x="53" y="-56.9" font-family="Arial" font-size="14.00" fill="#000000">is_active </text>
<text text-anchor="start" x="111.3422" y="-56.9" font-family="Arial" font-size="14.00" fill="#666666">[boolean]</text>
<polygon fill="none" stroke="#000000" stroke-width="3" points="44.5,-44.5 44.5,-202.5 389.5,-202.5 389.5,-44.5 44.5,-44.5"/>
</g>
</g>
</svg>
