<?xml version="1.0" encoding="UTF-8" standalone="no"?>
<!DOCTYPE svg PUBLIC "-//W3C//DTD SVG 1.1//EN"
 "http://www.w3.org/Graphics/SVG/1.1/DTD/svg11.dtd">
<!-- Generated by graphviz version 2.40.1 (20161225.0304)
 -->
<!-- Title: scheme.termsconditions Pages: 1 -->
<svg width="435pt" height="255pt"
 viewBox="0.00 0.00 435.00 255.00" xmlns="http://www.w3.org/2000/svg" xmlns:xlink="http://www.w3.org/1999/xlink">
<g id="graph0" class="graph" transform="scale(1 1) rotate(0) translate(4 251)">
<title>scheme.termsconditions</title>
<polygon fill="#ffffff" stroke="transparent" points="-4,4 -4,-251 431,-251 431,4 -4,4"/>
<!-- scheme.termsconditions -->
<g id="node1" class="node">
<title>scheme.termsconditions</title>
<polygon fill="#efefef" stroke="transparent" points="46.5,-165.5 46.5,-200.5 381.5,-200.5 381.5,-165.5 46.5,-165.5"/>
<polygon fill="none" stroke="#000000" points="46.5,-165.5 46.5,-200.5 381.5,-200.5 381.5,-165.5 46.5,-165.5"/>
<text text-anchor="start" x="53.2023" y="-178.3" font-family="Arial Bold" font-size="18.00" fill="#000000">scheme.termsconditions</text>
<text text-anchor="start" x="247.2297" y="-178.3" font-family="Arial" font-size="14.00" fill="#000000">    </text>
<text text-anchor="start" x="281.4345" y="-178.3" font-family="Arial" font-size="14.00" fill="#666666">[BASE TABLE]</text>
<polygon fill="none" stroke="#000000" points="46.5,-135.5 46.5,-165.5 381.5,-165.5 381.5,-135.5 46.5,-135.5"/>
<text text-anchor="start" x="53.5" y="-146.9" font-family="Arial" font-size="14.00" fill="#000000">conditionid </text>
<text text-anchor="start" x="124.2966" y="-146.9" font-family="Arial" font-size="14.00" fill="#666666">[integer]</text>
<polygon fill="none" stroke="#000000" points="46.5,-105.5 46.5,-135.5 381.5,-135.5 381.5,-105.5 46.5,-105.5"/>
<text text-anchor="start" x="53.5" y="-116.9" font-family="Arial" font-size="14.00" fill="#000000">schemeid </text>
<text text-anchor="start" x="117.2882" y="-116.9" font-family="Arial" font-size="14.00" fill="#666666">[bigint]</text>
<polygon fill="none" stroke="#000000" points="46.5,-75.5 46.5,-105.5 381.5,-105.5 381.5,-75.5 46.5,-75.5"/>
<text text-anchor="start" x="53.5" y="-86.9" font-family="Arial" font-size="14.00" fill="#000000">itemcategory </text>
<text text-anchor="start" x="137.5126" y="-86.9" font-family="Arial" font-size="14.00" fill="#666666">[varchar(100)]</text>
<polygon fill="none" stroke="#000000" points="46.5,-45.5 46.5,-75.5 381.5,-75.5 381.5,-45.5 46.5,-45.5"/>
<text text-anchor="start" x="53.5" y="-56.9" font-family="Arial" font-size="14.00" fill="#000000">salepercentage </text>
<text text-anchor="start" x="153.0918" y="-56.9" font-family="Arial" font-size="14.00" fill="#666666">[numeric(2,0)]</text>
<polygon fill="none" stroke="#000000" stroke-width="3" points="44.5,-44.5 44.5,-202.5 382.5,-202.5 382.5,-44.5 44.5,-44.5"/>
</g>
</g>
</svg>
