<?xml version="1.0" encoding="UTF-8" standalone="no"?>
<!DOCTYPE svg PUBLIC "-//W3C//DTD SVG 1.1//EN"
 "http://www.w3.org/Graphics/SVG/1.1/DTD/svg11.dtd">
<!-- Generated by graphviz version 2.40.1 (20161225.0304)
 -->
<!-- Title: scheme.schemeapplyontrial Pages: 1 -->
<svg width="464pt" height="285pt"
 viewBox="0.00 0.00 464.00 285.00" xmlns="http://www.w3.org/2000/svg" xmlns:xlink="http://www.w3.org/1999/xlink">
<g id="graph0" class="graph" transform="scale(1 1) rotate(0) translate(4 281)">
<title>scheme.schemeapplyontrial</title>
<polygon fill="#ffffff" stroke="transparent" points="-4,4 -4,-281 460,-281 460,4 -4,4"/>
<!-- scheme.schemeapplyontrial -->
<g id="node1" class="node">
<title>scheme.schemeapplyontrial</title>
<polygon fill="#efefef" stroke="transparent" points="46,-195.5 46,-230.5 410,-230.5 410,-195.5 46,-195.5"/>
<polygon fill="none" stroke="#000000" points="46,-195.5 46,-230.5 410,-230.5 410,-195.5 46,-195.5"/>
<text text-anchor="start" x="52.697" y="-208.3" font-family="Arial Bold" font-size="18.00" fill="#000000">scheme.schemeapplyontrial</text>
<text text-anchor="start" x="275.735" y="-208.3" font-family="Arial" font-size="14.00" fill="#000000">    </text>
<text text-anchor="start" x="309.9398" y="-208.3" font-family="Arial" font-size="14.00" fill="#666666">[BASE TABLE]</text>
<polygon fill="none" stroke="#000000" points="46,-165.5 46,-195.5 410,-195.5 410,-165.5 46,-165.5"/>
<text text-anchor="start" x="53" y="-176.9" font-family="Arial" font-size="14.00" fill="#000000">applyid </text>
<text text-anchor="start" x="101.2342" y="-176.9" font-family="Arial" font-size="14.00" fill="#666666">[integer]</text>
<polygon fill="none" stroke="#000000" points="46,-135.5 46,-165.5 410,-165.5 410,-135.5 46,-135.5"/>
<text text-anchor="start" x="53" y="-146.9" font-family="Arial" font-size="14.00" fill="#000000">schemeid </text>
<text text-anchor="start" x="116.7882" y="-146.9" font-family="Arial" font-size="14.00" fill="#666666">[bigint]</text>
<polygon fill="none" stroke="#000000" points="46,-105.5 46,-135.5 410,-135.5 410,-105.5 46,-105.5"/>
<text text-anchor="start" x="53" y="-116.9" font-family="Arial" font-size="14.00" fill="#000000">cfaname </text>
<text text-anchor="start" x="110.5722" y="-116.9" font-family="Arial" font-size="14.00" fill="#666666">[varchar(50)]</text>
<polygon fill="none" stroke="#000000" points="46,-75.5 46,-105.5 410,-105.5 410,-75.5 46,-75.5"/>
<text text-anchor="start" x="53" y="-86.9" font-family="Arial" font-size="14.00" fill="#000000">partycode </text>
<text text-anchor="start" x="118.3548" y="-86.9" font-family="Arial" font-size="14.00" fill="#666666">[varchar(20)]</text>
<polygon fill="none" stroke="#000000" points="46,-45.5 46,-75.5 410,-75.5 410,-45.5 46,-45.5"/>
<text text-anchor="start" x="53" y="-56.9" font-family="Arial" font-size="14.00" fill="#000000">salesmancode </text>
<text text-anchor="start" x="147.136" y="-56.9" font-family="Arial" font-size="14.00" fill="#666666">[varchar(20)]</text>
<polygon fill="none" stroke="#000000" stroke-width="3" points="44.5,-44.5 44.5,-232.5 411.5,-232.5 411.5,-44.5 44.5,-44.5"/>
</g>
</g>
</svg>
