<?xml version="1.0" encoding="UTF-8" standalone="no"?>
<!DOCTYPE svg PUBLIC "-//W3C//DTD SVG 1.1//EN"
 "http://www.w3.org/Graphics/SVG/1.1/DTD/svg11.dtd">
<!-- Generated by graphviz version 2.40.1 (20161225.0304)
 -->
<!-- Title: temp.vikki_schdln Pages: 1 -->
<svg width="405pt" height="735pt"
 viewBox="0.00 0.00 405.00 735.00" xmlns="http://www.w3.org/2000/svg" xmlns:xlink="http://www.w3.org/1999/xlink">
<g id="graph0" class="graph" transform="scale(1 1) rotate(0) translate(4 731)">
<title>temp.vikki_schdln</title>
<polygon fill="#ffffff" stroke="transparent" points="-4,4 -4,-731 401,-731 401,4 -4,4"/>
<!-- temp.vikki_schdln -->
<g id="node1" class="node">
<title>temp.vikki_schdln</title>
<polygon fill="#efefef" stroke="transparent" points="46.5,-645.5 46.5,-680.5 351.5,-680.5 351.5,-645.5 46.5,-645.5"/>
<polygon fill="none" stroke="#000000" points="46.5,-645.5 46.5,-680.5 351.5,-680.5 351.5,-645.5 46.5,-645.5"/>
<text text-anchor="start" x="64.2078" y="-658.3" font-family="Arial Bold" font-size="18.00" fill="#000000">temp.vikki_schdln</text>
<text text-anchor="start" x="206.2242" y="-658.3" font-family="Arial" font-size="14.00" fill="#000000">    </text>
<text text-anchor="start" x="240.429" y="-658.3" font-family="Arial" font-size="14.00" fill="#666666">[BASE TABLE]</text>
<polygon fill="none" stroke="#000000" points="46.5,-615.5 46.5,-645.5 351.5,-645.5 351.5,-615.5 46.5,-615.5"/>
<text text-anchor="start" x="53.5" y="-626.9" font-family="Arial" font-size="14.00" fill="#000000">rowno </text>
<text text-anchor="start" x="95.5056" y="-626.9" font-family="Arial" font-size="14.00" fill="#666666">[bigint]</text>
<polygon fill="none" stroke="#000000" points="46.5,-585.5 46.5,-615.5 351.5,-615.5 351.5,-585.5 46.5,-585.5"/>
<text text-anchor="start" x="53.5" y="-596.9" font-family="Arial" font-size="14.00" fill="#000000">sono </text>
<text text-anchor="start" x="87.7384" y="-596.9" font-family="Arial" font-size="14.00" fill="#666666">[varchar(20)]</text>
<polygon fill="none" stroke="#000000" points="46.5,-555.5 46.5,-585.5 351.5,-585.5 351.5,-555.5 46.5,-555.5"/>
<text text-anchor="start" x="53.5" y="-566.9" font-family="Arial" font-size="14.00" fill="#000000">sodate </text>
<text text-anchor="start" x="99.4116" y="-566.9" font-family="Arial" font-size="14.00" fill="#666666">[date]</text>
<polygon fill="none" stroke="#000000" points="46.5,-525.5 46.5,-555.5 351.5,-555.5 351.5,-525.5 46.5,-525.5"/>
<text text-anchor="start" x="53.5" y="-536.9" font-family="Arial" font-size="14.00" fill="#000000">seriesno </text>
<text text-anchor="start" x="110.2882" y="-536.9" font-family="Arial" font-size="14.00" fill="#666666">[integer]</text>
<polygon fill="none" stroke="#000000" points="46.5,-495.5 46.5,-525.5 351.5,-525.5 351.5,-495.5 46.5,-495.5"/>
<text text-anchor="start" x="53.5" y="-506.9" font-family="Arial" font-size="14.00" fill="#000000">partyid </text>
<text text-anchor="start" x="99.3962" y="-506.9" font-family="Arial" font-size="14.00" fill="#666666">[integer]</text>
<polygon fill="none" stroke="#000000" points="46.5,-465.5 46.5,-495.5 351.5,-495.5 351.5,-465.5 46.5,-465.5"/>
<text text-anchor="start" x="53.5" y="-476.9" font-family="Arial" font-size="14.00" fill="#000000">itemid </text>
<text text-anchor="start" x="94.7202" y="-476.9" font-family="Arial" font-size="14.00" fill="#666666">[integer]</text>
<polygon fill="none" stroke="#000000" points="46.5,-435.5 46.5,-465.5 351.5,-465.5 351.5,-435.5 46.5,-435.5"/>
<text text-anchor="start" x="53.5" y="-446.9" font-family="Arial" font-size="14.00" fill="#000000">partyorderno </text>
<text text-anchor="start" x="136.7412" y="-446.9" font-family="Arial" font-size="14.00" fill="#666666">[varchar(50)]</text>
<polygon fill="none" stroke="#000000" points="46.5,-405.5 46.5,-435.5 351.5,-435.5 351.5,-405.5 46.5,-405.5"/>
<text text-anchor="start" x="53.5" y="-416.9" font-family="Arial" font-size="14.00" fill="#000000">scheduleno </text>
<text text-anchor="start" x="128.9754" y="-416.9" font-family="Arial" font-size="14.00" fill="#666666">[numeric(14,0)]</text>
<polygon fill="none" stroke="#000000" points="46.5,-375.5 46.5,-405.5 351.5,-405.5 351.5,-375.5 46.5,-375.5"/>
<text text-anchor="start" x="53.5" y="-386.9" font-family="Arial" font-size="14.00" fill="#000000">duedate </text>
<text text-anchor="start" x="107.9768" y="-386.9" font-family="Arial" font-size="14.00" fill="#666666">[date]</text>
<polygon fill="none" stroke="#000000" points="46.5,-345.5 46.5,-375.5 351.5,-375.5 351.5,-345.5 46.5,-345.5"/>
<text text-anchor="start" x="53.5" y="-356.9" font-family="Arial" font-size="14.00" fill="#000000">schqty </text>
<text text-anchor="start" x="97.8464" y="-356.9" font-family="Arial" font-size="14.00" fill="#666666">[numeric]</text>
<polygon fill="none" stroke="#000000" points="46.5,-315.5 46.5,-345.5 351.5,-345.5 351.5,-315.5 46.5,-315.5"/>
<text text-anchor="start" x="53.5" y="-326.9" font-family="Arial" font-size="14.00" fill="#000000">schaltqty </text>
<text text-anchor="start" x="112.6262" y="-326.9" font-family="Arial" font-size="14.00" fill="#666666">[numeric]</text>
<polygon fill="none" stroke="#000000" points="46.5,-285.5 46.5,-315.5 351.5,-315.5 351.5,-285.5 46.5,-285.5"/>
<text text-anchor="start" x="53.5" y="-296.9" font-family="Arial" font-size="14.00" fill="#000000">deliverynoteno </text>
<text text-anchor="start" x="148.4158" y="-296.9" font-family="Arial" font-size="14.00" fill="#666666">[varchar(50)]</text>
<polygon fill="none" stroke="#000000" points="46.5,-255.5 46.5,-285.5 351.5,-285.5 351.5,-255.5 46.5,-255.5"/>
<text text-anchor="start" x="53.1354" y="-266.9" font-family="Arial" font-size="14.00" fill="#000000">deliverynotedate </text>
<text text-anchor="start" x="159.7244" y="-266.9" font-family="Arial" font-size="14.00" fill="#666666">[timestamp without time zone]</text>
<polygon fill="none" stroke="#000000" points="46.5,-225.5 46.5,-255.5 351.5,-255.5 351.5,-225.5 46.5,-225.5"/>
<text text-anchor="start" x="53.5" y="-236.9" font-family="Arial" font-size="14.00" fill="#000000">dispqty </text>
<text text-anchor="start" x="101.7356" y="-236.9" font-family="Arial" font-size="14.00" fill="#666666">[numeric]</text>
<polygon fill="none" stroke="#000000" points="46.5,-195.5 46.5,-225.5 351.5,-225.5 351.5,-195.5 46.5,-195.5"/>
<text text-anchor="start" x="53.5" y="-206.9" font-family="Arial" font-size="14.00" fill="#000000">dispaltqty </text>
<text text-anchor="start" x="116.5154" y="-206.9" font-family="Arial" font-size="14.00" fill="#666666">[numeric]</text>
<polygon fill="none" stroke="#000000" points="46.5,-165.5 46.5,-195.5 351.5,-195.5 351.5,-165.5 46.5,-165.5"/>
<text text-anchor="start" x="53.5" y="-176.9" font-family="Arial" font-size="14.00" fill="#000000">soduedetailid </text>
<text text-anchor="start" x="139.8618" y="-176.9" font-family="Arial" font-size="14.00" fill="#666666">[integer]</text>
<polygon fill="none" stroke="#000000" points="46.5,-135.5 46.5,-165.5 351.5,-165.5 351.5,-135.5 46.5,-135.5"/>
<text text-anchor="start" x="53.5" y="-146.9" font-family="Arial" font-size="14.00" fill="#000000">deliverynotedetailid </text>
<text text-anchor="start" x="177.1914" y="-146.9" font-family="Arial" font-size="14.00" fill="#666666">[integer]</text>
<polygon fill="none" stroke="#000000" points="46.5,-105.5 46.5,-135.5 351.5,-135.5 351.5,-105.5 46.5,-105.5"/>
<text text-anchor="start" x="53.5" y="-116.9" font-family="Arial" font-size="14.00" fill="#000000">sno </text>
<text text-anchor="start" x="79.9558" y="-116.9" font-family="Arial" font-size="14.00" fill="#666666">[integer]</text>
<polygon fill="none" stroke="#000000" points="46.5,-75.5 46.5,-105.5 351.5,-105.5 351.5,-75.5 46.5,-75.5"/>
<text text-anchor="start" x="53.5" y="-86.9" font-family="Arial" font-size="14.00" fill="#000000">soid </text>
<text text-anchor="start" x="83.0624" y="-86.9" font-family="Arial" font-size="14.00" fill="#666666">[integer]</text>
<polygon fill="none" stroke="#000000" points="46.5,-45.5 46.5,-75.5 351.5,-75.5 351.5,-45.5 46.5,-45.5"/>
<text text-anchor="start" x="53.5" y="-56.9" font-family="Arial" font-size="14.00" fill="#000000">formid </text>
<text text-anchor="start" x="96.2742" y="-56.9" font-family="Arial" font-size="14.00" fill="#666666">[integer]</text>
<polygon fill="none" stroke="#000000" stroke-width="3" points="44.5,-44.5 44.5,-682.5 352.5,-682.5 352.5,-44.5 44.5,-44.5"/>
</g>
</g>
</svg>
