<?xml version="1.0" encoding="UTF-8" standalone="no"?>
<!DOCTYPE svg PUBLIC "-//W3C//DTD SVG 1.1//EN"
 "http://www.w3.org/Graphics/SVG/1.1/DTD/svg11.dtd">
<!-- Generated by graphviz version 2.40.1 (20161225.0304)
 -->
<!-- Title: temp.rohits_branch_wise_stock Pages: 1 -->
<svg width="502pt" height="285pt"
 viewBox="0.00 0.00 502.00 285.00" xmlns="http://www.w3.org/2000/svg" xmlns:xlink="http://www.w3.org/1999/xlink">
<g id="graph0" class="graph" transform="scale(1 1) rotate(0) translate(4 281)">
<title>temp.rohits_branch_wise_stock</title>
<polygon fill="#ffffff" stroke="transparent" points="-4,4 -4,-281 498,-281 498,4 -4,4"/>
<!-- temp.rohits_branch_wise_stock -->
<g id="node1" class="node">
<title>temp.rohits_branch_wise_stock</title>
<polygon fill="#efefef" stroke="transparent" points="46,-195.5 46,-230.5 448,-230.5 448,-195.5 46,-195.5"/>
<polygon fill="none" stroke="#000000" points="46,-195.5 46,-230.5 448,-230.5 448,-195.5 46,-195.5"/>
<text text-anchor="start" x="57.1917" y="-208.3" font-family="Arial Bold" font-size="18.00" fill="#000000">temp.rohits_branch_wise_stock</text>
<text text-anchor="start" x="309.2403" y="-208.3" font-family="Arial" font-size="14.00" fill="#000000">    </text>
<text text-anchor="start" x="343.4451" y="-208.3" font-family="Arial" font-size="14.00" fill="#666666">[BASE TABLE]</text>
<polygon fill="none" stroke="#000000" points="46,-165.5 46,-195.5 448,-195.5 448,-165.5 46,-165.5"/>
<text text-anchor="start" x="53" y="-176.9" font-family="Arial" font-size="14.00" fill="#000000">itemid </text>
<text text-anchor="start" x="94.2202" y="-176.9" font-family="Arial" font-size="14.00" fill="#666666">[integer]</text>
<polygon fill="none" stroke="#000000" points="46,-135.5 46,-165.5 448,-165.5 448,-135.5 46,-135.5"/>
<text text-anchor="start" x="53" y="-146.9" font-family="Arial" font-size="14.00" fill="#000000">TRINITY CYCLES INDIA PRIVATE LIMITED </text>
<text text-anchor="start" x="335.3422" y="-146.9" font-family="Arial" font-size="14.00" fill="#666666">[numeric]</text>
<polygon fill="none" stroke="#000000" points="46,-105.5 46,-135.5 448,-135.5 448,-105.5 46,-105.5"/>
<text text-anchor="start" x="53" y="-116.9" font-family="Arial" font-size="14.00" fill="#000000">TRINITY CYCLES INDIA PVT LTD &#45; LUDHIANA BR </text>
<text text-anchor="start" x="380.4418" y="-116.9" font-family="Arial" font-size="14.00" fill="#666666">[numeric]</text>
<polygon fill="none" stroke="#000000" points="46,-75.5 46,-105.5 448,-105.5 448,-75.5 46,-75.5"/>
<text text-anchor="start" x="53" y="-86.9" font-family="Arial" font-size="14.00" fill="#000000">TRINITY CYCLES INDIA PVT LTD &#45; PARGAON </text>
<text text-anchor="start" x="356.3394" y="-86.9" font-family="Arial" font-size="14.00" fill="#666666">[numeric]</text>
<polygon fill="none" stroke="#000000" points="46,-45.5 46,-75.5 448,-75.5 448,-45.5 46,-45.5"/>
<text text-anchor="start" x="52.9327" y="-56.9" font-family="Arial" font-size="14.00" fill="#000000">TRINITY CYCLES INDIA PVT LTD &#45; KELAVADE BR </text>
<text text-anchor="start" x="383.5105" y="-56.9" font-family="Arial" font-size="14.00" fill="#666666">[numeric]</text>
<polygon fill="none" stroke="#000000" stroke-width="3" points="44.5,-44.5 44.5,-232.5 449.5,-232.5 449.5,-44.5 44.5,-44.5"/>
</g>
</g>
</svg>
