<?xml version="1.0" encoding="UTF-8" standalone="no"?>
<!DOCTYPE svg PUBLIC "-//W3C//DTD SVG 1.1//EN"
 "http://www.w3.org/Graphics/SVG/1.1/DTD/svg11.dtd">
<!-- Generated by graphviz version 2.40.1 (20161225.0304)
 -->
<!-- Title: temp.tejashree_branch_wise_stock Pages: 1 -->
<svg width="523pt" height="285pt"
 viewBox="0.00 0.00 523.00 285.00" xmlns="http://www.w3.org/2000/svg" xmlns:xlink="http://www.w3.org/1999/xlink">
<g id="graph0" class="graph" transform="scale(1 1) rotate(0) translate(4 281)">
<title>temp.tejashree_branch_wise_stock</title>
<polygon fill="#ffffff" stroke="transparent" points="-4,4 -4,-281 519,-281 519,4 -4,4"/>
<!-- temp.tejashree_branch_wise_stock -->
<g id="node1" class="node">
<title>temp.tejashree_branch_wise_stock</title>
<polygon fill="#efefef" stroke="transparent" points="46.5,-195.5 46.5,-230.5 469.5,-230.5 469.5,-195.5 46.5,-195.5"/>
<polygon fill="none" stroke="#000000" points="46.5,-195.5 46.5,-230.5 469.5,-230.5 469.5,-195.5 46.5,-195.5"/>
<text text-anchor="start" x="53.1824" y="-208.3" font-family="Arial Bold" font-size="18.00" fill="#000000">temp.tejashree_branch_wise_stock</text>
<text text-anchor="start" x="335.2496" y="-208.3" font-family="Arial" font-size="14.00" fill="#000000">    </text>
<text text-anchor="start" x="369.4544" y="-208.3" font-family="Arial" font-size="14.00" fill="#666666">[BASE TABLE]</text>
<polygon fill="none" stroke="#000000" points="46.5,-165.5 46.5,-195.5 469.5,-195.5 469.5,-165.5 46.5,-165.5"/>
<text text-anchor="start" x="53.5" y="-176.9" font-family="Arial" font-size="14.00" fill="#000000">itemid </text>
<text text-anchor="start" x="94.7202" y="-176.9" font-family="Arial" font-size="14.00" fill="#666666">[integer]</text>
<polygon fill="none" stroke="#000000" points="46.5,-135.5 46.5,-165.5 469.5,-165.5 469.5,-135.5 46.5,-135.5"/>
<text text-anchor="start" x="53.5" y="-146.9" font-family="Arial" font-size="14.00" fill="#000000">TRINITY CYCLES INDIA PRIVATE LIMITED </text>
<text text-anchor="start" x="335.8422" y="-146.9" font-family="Arial" font-size="14.00" fill="#666666">[numeric]</text>
<polygon fill="none" stroke="#000000" points="46.5,-105.5 46.5,-135.5 469.5,-135.5 469.5,-105.5 46.5,-105.5"/>
<text text-anchor="start" x="53.5" y="-116.9" font-family="Arial" font-size="14.00" fill="#000000">TRINITY CYCLES INDIA PVT LTD &#45; KELAVADE BR </text>
<text text-anchor="start" x="384.0778" y="-116.9" font-family="Arial" font-size="14.00" fill="#666666">[numeric]</text>
<polygon fill="none" stroke="#000000" points="46.5,-75.5 46.5,-105.5 469.5,-105.5 469.5,-75.5 46.5,-75.5"/>
<text text-anchor="start" x="53.5" y="-86.9" font-family="Arial" font-size="14.00" fill="#000000">TRINITY CYCLES INDIA PVT LTD &#45; LUDHIANA BR </text>
<text text-anchor="start" x="380.9418" y="-86.9" font-family="Arial" font-size="14.00" fill="#666666">[numeric]</text>
<polygon fill="none" stroke="#000000" points="46.5,-45.5 46.5,-75.5 469.5,-75.5 469.5,-45.5 46.5,-45.5"/>
<text text-anchor="start" x="53.5" y="-56.9" font-family="Arial" font-size="14.00" fill="#000000">TRINITY CYCLES INDIA PVT LTD &#45; PARGAON </text>
<text text-anchor="start" x="356.8394" y="-56.9" font-family="Arial" font-size="14.00" fill="#666666">[numeric]</text>
<polygon fill="none" stroke="#000000" stroke-width="3" points="44.5,-44.5 44.5,-232.5 470.5,-232.5 470.5,-44.5 44.5,-44.5"/>
</g>
</g>
</svg>
