<?xml version="1.0" encoding="UTF-8" standalone="no"?>
<!DOCTYPE svg PUBLIC "-//W3C//DTD SVG 1.1//EN"
 "http://www.w3.org/Graphics/SVG/1.1/DTD/svg11.dtd">
<!-- Generated by graphviz version 2.40.1 (20161225.0304)
 -->
<!-- Title: temp.temp_storephysicalstockbatch Pages: 1 -->
<svg width="527pt" height="1065pt"
 viewBox="0.00 0.00 527.00 1065.00" xmlns="http://www.w3.org/2000/svg" xmlns:xlink="http://www.w3.org/1999/xlink">
<g id="graph0" class="graph" transform="scale(1 1) rotate(0) translate(4 1061)">
<title>temp.temp_storephysicalstockbatch</title>
<polygon fill="#ffffff" stroke="transparent" points="-4,4 -4,-1061 523,-1061 523,4 -4,4"/>
<!-- temp.temp_storephysicalstockbatch -->
<g id="node1" class="node">
<title>temp.temp_storephysicalstockbatch</title>
<polygon fill="#efefef" stroke="transparent" points="46.5,-975.5 46.5,-1010.5 473.5,-1010.5 473.5,-975.5 46.5,-975.5"/>
<polygon fill="none" stroke="#000000" points="46.5,-975.5 46.5,-1010.5 473.5,-1010.5 473.5,-975.5 46.5,-975.5"/>
<text text-anchor="start" x="53.1835" y="-988.3" font-family="Arial Bold" font-size="18.00" fill="#000000">temp.temp_storephysicalstockbatch</text>
<text text-anchor="start" x="339.2485" y="-988.3" font-family="Arial" font-size="14.00" fill="#000000">    </text>
<text text-anchor="start" x="373.4533" y="-988.3" font-family="Arial" font-size="14.00" fill="#666666">[BASE TABLE]</text>
<polygon fill="none" stroke="#000000" points="46.5,-945.5 46.5,-975.5 473.5,-975.5 473.5,-945.5 46.5,-945.5"/>
<text text-anchor="start" x="53.5" y="-956.9" font-family="Arial" font-size="14.00" fill="#000000">itemcode </text>
<text text-anchor="start" x="114.1788" y="-956.9" font-family="Arial" font-size="14.00" fill="#666666">[text]</text>
<polygon fill="none" stroke="#000000" points="46.5,-915.5 46.5,-945.5 473.5,-945.5 473.5,-915.5 46.5,-915.5"/>
<text text-anchor="start" x="53.5" y="-926.9" font-family="Arial" font-size="14.00" fill="#000000">itemname </text>
<text text-anchor="start" x="118.8394" y="-926.9" font-family="Arial" font-size="14.00" fill="#666666">[text]</text>
<polygon fill="none" stroke="#000000" points="46.5,-885.5 46.5,-915.5 473.5,-915.5 473.5,-885.5 46.5,-885.5"/>
<text text-anchor="start" x="53.5" y="-896.9" font-family="Arial" font-size="14.00" fill="#000000">storename </text>
<text text-anchor="start" x="123.5154" y="-896.9" font-family="Arial" font-size="14.00" fill="#666666">[text]</text>
<polygon fill="none" stroke="#000000" points="46.5,-855.5 46.5,-885.5 473.5,-885.5 473.5,-855.5 46.5,-855.5"/>
<text text-anchor="start" x="53.5" y="-866.9" font-family="Arial" font-size="14.00" fill="#000000">batchno </text>
<text text-anchor="start" x="107.1942" y="-866.9" font-family="Arial" font-size="14.00" fill="#666666">[text]</text>
<polygon fill="none" stroke="#000000" points="46.5,-825.5 46.5,-855.5 473.5,-855.5 473.5,-825.5 46.5,-825.5"/>
<text text-anchor="start" x="53.5" y="-836.9" font-family="Arial" font-size="14.00" fill="#000000">batchdate_t </text>
<text text-anchor="start" x="130.5406" y="-836.9" font-family="Arial" font-size="14.00" fill="#666666">[text]</text>
<polygon fill="none" stroke="#000000" points="46.5,-795.5 46.5,-825.5 473.5,-825.5 473.5,-795.5 46.5,-795.5"/>
<text text-anchor="start" x="53.5" y="-806.9" font-family="Arial" font-size="14.00" fill="#000000">expirydate_t </text>
<text text-anchor="start" x="133.6346" y="-806.9" font-family="Arial" font-size="14.00" fill="#666666">[text]</text>
<polygon fill="none" stroke="#000000" points="46.5,-765.5 46.5,-795.5 473.5,-795.5 473.5,-765.5 46.5,-765.5"/>
<text text-anchor="start" x="53.5" y="-776.9" font-family="Arial" font-size="14.00" fill="#000000">mfgdate_t </text>
<text text-anchor="start" x="119.636" y="-776.9" font-family="Arial" font-size="14.00" fill="#666666">[text]</text>
<polygon fill="none" stroke="#000000" points="46.5,-735.5 46.5,-765.5 473.5,-765.5 473.5,-735.5 46.5,-735.5"/>
<text text-anchor="start" x="53.5" y="-746.9" font-family="Arial" font-size="14.00" fill="#000000">baseqty_t </text>
<text text-anchor="start" x="118.0848" y="-746.9" font-family="Arial" font-size="14.00" fill="#666666">[varchar]</text>
<polygon fill="none" stroke="#000000" points="46.5,-705.5 46.5,-735.5 473.5,-735.5 473.5,-705.5 46.5,-705.5"/>
<text text-anchor="start" x="53.5" y="-716.9" font-family="Arial" font-size="14.00" fill="#000000">costprice_t </text>
<text text-anchor="start" x="125.0694" y="-716.9" font-family="Arial" font-size="14.00" fill="#666666">[varchar]</text>
<polygon fill="none" stroke="#000000" points="46.5,-675.5 46.5,-705.5 473.5,-705.5 473.5,-675.5 46.5,-675.5"/>
<text text-anchor="start" x="53.5" y="-686.9" font-family="Arial" font-size="14.00" fill="#000000">mrp_t </text>
<text text-anchor="start" x="93.1676" y="-686.9" font-family="Arial" font-size="14.00" fill="#666666">[varchar]</text>
<polygon fill="none" stroke="#000000" points="46.5,-645.5 46.5,-675.5 473.5,-675.5 473.5,-645.5 46.5,-645.5"/>
<text text-anchor="start" x="53.5" y="-656.9" font-family="Arial" font-size="14.00" fill="#000000">lotno </text>
<text text-anchor="start" x="87.7356" y="-656.9" font-family="Arial" font-size="14.00" fill="#666666">[varchar]</text>
<polygon fill="none" stroke="#000000" points="46.5,-615.5 46.5,-645.5 473.5,-645.5 473.5,-615.5 46.5,-615.5"/>
<text text-anchor="start" x="53.5" y="-626.9" font-family="Arial" font-size="14.00" fill="#000000">itemid </text>
<text text-anchor="start" x="94.7202" y="-626.9" font-family="Arial" font-size="14.00" fill="#666666">[integer]</text>
<polygon fill="none" stroke="#000000" points="46.5,-585.5 46.5,-615.5 473.5,-615.5 473.5,-585.5 46.5,-585.5"/>
<text text-anchor="start" x="53.5" y="-596.9" font-family="Arial" font-size="14.00" fill="#000000">storeid </text>
<text text-anchor="start" x="99.3962" y="-596.9" font-family="Arial" font-size="14.00" fill="#666666">[integer]</text>
<polygon fill="none" stroke="#000000" points="46.5,-555.5 46.5,-585.5 473.5,-585.5 473.5,-555.5 46.5,-555.5"/>
<text text-anchor="start" x="53.5" y="-566.9" font-family="Arial" font-size="14.00" fill="#000000">log </text>
<text text-anchor="start" x="76.0624" y="-566.9" font-family="Arial" font-size="14.00" fill="#666666">[text]</text>
<polygon fill="none" stroke="#000000" points="46.5,-525.5 46.5,-555.5 473.5,-555.5 473.5,-525.5 46.5,-525.5"/>
<text text-anchor="start" x="53.5" y="-536.9" font-family="Arial" font-size="14.00" fill="#000000">isvalid </text>
<text text-anchor="start" x="96.2756" y="-536.9" font-family="Arial" font-size="14.00" fill="#666666">[boolean]</text>
<polygon fill="none" stroke="#000000" points="46.5,-495.5 46.5,-525.5 473.5,-525.5 473.5,-495.5 46.5,-495.5"/>
<text text-anchor="start" x="53.5" y="-506.9" font-family="Arial" font-size="14.00" fill="#000000">altqty </text>
<text text-anchor="start" x="90.8436" y="-506.9" font-family="Arial" font-size="14.00" fill="#666666">[numeric(18,3)]</text>
<polygon fill="none" stroke="#000000" points="46.5,-465.5 46.5,-495.5 473.5,-495.5 473.5,-465.5 46.5,-465.5"/>
<text text-anchor="start" x="53.5" y="-476.9" font-family="Arial" font-size="14.00" fill="#000000">baseqty </text>
<text text-anchor="start" x="106.4116" y="-476.9" font-family="Arial" font-size="14.00" fill="#666666">[numeric(18,3)]</text>
<polygon fill="none" stroke="#000000" points="46.5,-435.5 46.5,-465.5 473.5,-465.5 473.5,-435.5 46.5,-435.5"/>
<text text-anchor="start" x="53.5" y="-446.9" font-family="Arial" font-size="14.00" fill="#000000">costprice </text>
<text text-anchor="start" x="113.3962" y="-446.9" font-family="Arial" font-size="14.00" fill="#666666">[numeric(18,3)]</text>
<polygon fill="none" stroke="#000000" points="46.5,-405.5 46.5,-435.5 473.5,-435.5 473.5,-405.5 46.5,-405.5"/>
<text text-anchor="start" x="53.5" y="-416.9" font-family="Arial" font-size="14.00" fill="#000000">actualqty </text>
<text text-anchor="start" x="113.4088" y="-416.9" font-family="Arial" font-size="14.00" fill="#666666">[numeric(18,3)]</text>
<polygon fill="none" stroke="#000000" points="46.5,-375.5 46.5,-405.5 473.5,-405.5 473.5,-375.5 46.5,-375.5"/>
<text text-anchor="start" x="53.5" y="-386.9" font-family="Arial" font-size="14.00" fill="#000000">actualaltqty </text>
<text text-anchor="start" x="128.1886" y="-386.9" font-family="Arial" font-size="14.00" fill="#666666">[numeric(18,3)]</text>
<polygon fill="none" stroke="#000000" points="46.5,-345.5 46.5,-375.5 473.5,-375.5 473.5,-345.5 46.5,-345.5"/>
<text text-anchor="start" x="53.5" y="-356.9" font-family="Arial" font-size="14.00" fill="#000000">isbatch </text>
<text text-anchor="start" x="101.7356" y="-356.9" font-family="Arial" font-size="14.00" fill="#666666">[boolean]</text>
<polygon fill="none" stroke="#000000" points="46.5,-315.5 46.5,-345.5 473.5,-345.5 473.5,-315.5 46.5,-315.5"/>
<text text-anchor="start" x="53.5" y="-326.9" font-family="Arial" font-size="14.00" fill="#000000">isseries </text>
<text text-anchor="start" x="104.8296" y="-326.9" font-family="Arial" font-size="14.00" fill="#666666">[boolean]</text>
<polygon fill="none" stroke="#000000" points="46.5,-285.5 46.5,-315.5 473.5,-315.5 473.5,-285.5 46.5,-285.5"/>
<text text-anchor="start" x="53.5" y="-296.9" font-family="Arial" font-size="14.00" fill="#000000">printname </text>
<text text-anchor="start" x="119.622" y="-296.9" font-family="Arial" font-size="14.00" fill="#666666">[text]</text>
<polygon fill="none" stroke="#000000" points="46.5,-255.5 46.5,-285.5 473.5,-285.5 473.5,-255.5 46.5,-255.5"/>
<text text-anchor="start" x="53.5" y="-266.9" font-family="Arial" font-size="14.00" fill="#000000">basedecimalplaces </text>
<text text-anchor="start" x="176.4144" y="-266.9" font-family="Arial" font-size="14.00" fill="#666666">[integer]</text>
<polygon fill="none" stroke="#000000" points="46.5,-225.5 46.5,-255.5 473.5,-255.5 473.5,-225.5 46.5,-225.5"/>
<text text-anchor="start" x="53.5" y="-236.9" font-family="Arial" font-size="14.00" fill="#000000">altdecimalplaces </text>
<text text-anchor="start" x="160.8464" y="-236.9" font-family="Arial" font-size="14.00" fill="#666666">[integer]</text>
<polygon fill="none" stroke="#000000" points="46.5,-195.5 46.5,-225.5 473.5,-225.5 473.5,-195.5 46.5,-195.5"/>
<text text-anchor="start" x="53.5" y="-206.9" font-family="Arial" font-size="14.00" fill="#000000">mrp </text>
<text text-anchor="start" x="81.4944" y="-206.9" font-family="Arial" font-size="14.00" fill="#666666">[numeric(18,3)]</text>
<polygon fill="none" stroke="#000000" points="46.5,-165.5 46.5,-195.5 473.5,-195.5 473.5,-165.5 46.5,-165.5"/>
<text text-anchor="start" x="53.5" y="-176.9" font-family="Arial" font-size="14.00" fill="#000000">batchdate </text>
<text text-anchor="start" x="118.8674" y="-176.9" font-family="Arial" font-size="14.00" fill="#666666">[date]</text>
<polygon fill="none" stroke="#000000" points="46.5,-135.5 46.5,-165.5 473.5,-165.5 473.5,-135.5 46.5,-135.5"/>
<text text-anchor="start" x="53.5" y="-146.9" font-family="Arial" font-size="14.00" fill="#000000">expirydate </text>
<text text-anchor="start" x="121.9614" y="-146.9" font-family="Arial" font-size="14.00" fill="#666666">[date]</text>
<polygon fill="none" stroke="#000000" points="46.5,-105.5 46.5,-135.5 473.5,-135.5 473.5,-105.5 46.5,-105.5"/>
<text text-anchor="start" x="53.5" y="-116.9" font-family="Arial" font-size="14.00" fill="#000000">mfgdate </text>
<text text-anchor="start" x="107.9628" y="-116.9" font-family="Arial" font-size="14.00" fill="#666666">[date]</text>
<polygon fill="none" stroke="#000000" points="46.5,-75.5 46.5,-105.5 473.5,-105.5 473.5,-75.5 46.5,-75.5"/>
<text text-anchor="start" x="53.5" y="-86.9" font-family="Arial" font-size="14.00" fill="#000000">conversion </text>
<text text-anchor="start" x="125.0708" y="-86.9" font-family="Arial" font-size="14.00" fill="#666666">[numeric(18,3)]</text>
<polygon fill="none" stroke="#000000" points="46.5,-45.5 46.5,-75.5 473.5,-75.5 473.5,-45.5 46.5,-45.5"/>
<text text-anchor="start" x="53.5" y="-56.9" font-family="Arial" font-size="14.00" fill="#000000">denominator </text>
<text text-anchor="start" x="135.1872" y="-56.9" font-family="Arial" font-size="14.00" fill="#666666">[numeric(18,3)]</text>
<polygon fill="none" stroke="#000000" stroke-width="3" points="44.5,-44.5 44.5,-1012.5 474.5,-1012.5 474.5,-44.5 44.5,-44.5"/>
</g>
</g>
</svg>
