<?xml version="1.0" encoding="UTF-8" standalone="no"?>
<!DOCTYPE svg PUBLIC "-//W3C//DTD SVG 1.1//EN"
 "http://www.w3.org/Graphics/SVG/1.1/DTD/svg11.dtd">
<!-- Generated by graphviz version 2.40.1 (20161225.0304)
 -->
<!-- Title: tmh_service_module.svc_inquiry_parts Pages: 1 -->
<svg width="552pt" height="315pt"
 viewBox="0.00 0.00 552.00 315.00" xmlns="http://www.w3.org/2000/svg" xmlns:xlink="http://www.w3.org/1999/xlink">
<g id="graph0" class="graph" transform="scale(1 1) rotate(0) translate(4 311)">
<title>tmh_service_module.svc_inquiry_parts</title>
<polygon fill="#ffffff" stroke="transparent" points="-4,4 -4,-311 548,-311 548,4 -4,4"/>
<!-- tmh_service_module.svc_inquiry_parts -->
<g id="node1" class="node">
<title>tmh_service_module.svc_inquiry_parts</title>
<polygon fill="#efefef" stroke="transparent" points="46,-225.5 46,-260.5 498,-260.5 498,-225.5 46,-225.5"/>
<polygon fill="none" stroke="#000000" points="46,-225.5 46,-260.5 498,-260.5 498,-225.5 46,-225.5"/>
<text text-anchor="start" x="52.6942" y="-238.3" font-family="Arial Bold" font-size="18.00" fill="#000000">tmh_service_module.svc_inquiry_parts</text>
<text text-anchor="start" x="363.7378" y="-238.3" font-family="Arial" font-size="14.00" fill="#000000">    </text>
<text text-anchor="start" x="397.9426" y="-238.3" font-family="Arial" font-size="14.00" fill="#666666">[BASE TABLE]</text>
<polygon fill="none" stroke="#000000" points="46,-195.5 46,-225.5 498,-225.5 498,-195.5 46,-195.5"/>
<text text-anchor="start" x="53" y="-206.9" font-family="Arial" font-size="14.00" fill="#000000">inquiry_parts__id </text>
<text text-anchor="start" x="163.4656" y="-206.9" font-family="Arial" font-size="14.00" fill="#666666">[integer]</text>
<polygon fill="none" stroke="#000000" points="46,-165.5 46,-195.5 498,-195.5 498,-165.5 46,-165.5"/>
<text text-anchor="start" x="53" y="-176.9" font-family="Arial" font-size="14.00" fill="#000000">inquiry_id </text>
<text text-anchor="start" x="116.784" y="-176.9" font-family="Arial" font-size="14.00" fill="#666666">[integer]</text>
<polygon fill="none" stroke="#000000" points="46,-135.5 46,-165.5 498,-165.5 498,-135.5 46,-135.5"/>
<text text-anchor="start" x="53" y="-146.9" font-family="Arial" font-size="14.00" fill="#000000">priority_id </text>
<text text-anchor="start" x="117.5526" y="-146.9" font-family="Arial" font-size="14.00" fill="#666666">[integer]</text>
<polygon fill="none" stroke="#000000" points="46,-105.5 46,-135.5 498,-135.5 498,-105.5 46,-105.5"/>
<text text-anchor="start" x="53" y="-116.9" font-family="Arial" font-size="14.00" fill="#000000">parts_id </text>
<text text-anchor="start" x="106.6788" y="-116.9" font-family="Arial" font-size="14.00" fill="#666666">[integer]</text>
<polygon fill="none" stroke="#000000" points="46,-75.5 46,-105.5 498,-105.5 498,-75.5 46,-75.5"/>
<text text-anchor="start" x="53" y="-86.9" font-family="Arial" font-size="14.00" fill="#000000">quantity </text>
<text text-anchor="start" x="105.9088" y="-86.9" font-family="Arial" font-size="14.00" fill="#666666">[integer]</text>
<polygon fill="none" stroke="#000000" points="46,-45.5 46,-75.5 498,-75.5 498,-45.5 46,-45.5"/>
<text text-anchor="start" x="53" y="-56.9" font-family="Arial" font-size="14.00" fill="#000000">remarks </text>
<text text-anchor="start" x="107.4376" y="-56.9" font-family="Arial" font-size="14.00" fill="#666666">[varchar(100)]</text>
<polygon fill="none" stroke="#000000" stroke-width="3" points="44.5,-44.5 44.5,-262.5 499.5,-262.5 499.5,-44.5 44.5,-44.5"/>
</g>
</g>
</svg>
